<svg width="680" height="374" viewBox="0 0 680 374" fill="none" xmlns="http://www.w3.org/2000/svg">
<g filter="url(#filter0_d)">
<rect x="10" y="10" width="660" height="350" rx="32" fill="#BFCCD3"/>
<rect x="12" y="12" width="656" height="346" rx="30" stroke="#913443" stroke-width="4"/>
</g>
<rect x="417" width="198" height="23" fill="#BFCCD3"/>
<path d="M462.32 12.82C462.32 14.5667 462.227 15.96 462.04 17H450.6L450.48 16.36C450.987 16.0133 451.553 15.7 452.18 15.42V5.06L450.64 4.82L450.66 3.76H457.38L457.5 4.4C457.02 4.74667 456.453 5.06 455.8 5.34V15.14L459.36 14.8L460.26 11.9L462.32 12.08V12.82ZM473.112 15.86L470.472 17.34C470.099 17.3267 469.726 17.1867 469.352 16.92C468.979 16.6533 468.672 16.3067 468.432 15.88L466.312 17.26L465.632 17.32C464.766 17.32 464.039 17.0667 463.452 16.56C462.879 16.0533 462.592 15.44 462.592 14.72C462.592 13.72 463.132 12.9333 464.212 12.36L468.012 12.28V10.64C468.012 9.61333 467.706 8.94 467.092 8.62C466.666 8.64667 466.292 8.72667 465.972 8.86L465.492 11.06L463.532 11.1C463.279 10.38 463.152 9.62 463.152 8.82L463.192 8.08C463.992 7.77333 464.919 7.51333 465.972 7.3C467.026 7.07333 467.839 6.96 468.412 6.96C469.599 6.96 470.539 7.44667 471.232 8.42C471.379 8.67333 471.459 9.18 471.472 9.94V14.52C471.472 14.8667 471.639 15.04 471.972 15.04L472.512 15.02L472.992 14.98L473.112 15.86ZM466.012 14.5C466.012 14.8467 466.126 15.1333 466.352 15.36C466.752 15.3333 467.306 15.2067 468.012 14.98V13.5C466.679 13.4733 466.012 13.8067 466.012 14.5ZM494.655 15.94L494.635 17H487.635L487.515 16.36C488.021 16.0133 488.588 15.7 489.215 15.42V11.34H484.355V15.64L486.175 15.94L486.155 17H479.155L479.035 16.36C479.541 16.0133 480.108 15.7 480.735 15.42V5.06L479.195 4.82L479.215 3.76H485.935L486.055 4.4C485.575 4.74667 485.008 5.06 484.355 5.34V9.46H489.215V5.06L487.675 4.82L487.695 3.76H494.415L494.535 4.4C494.055 4.74667 493.488 5.06 492.835 5.34V15.64L494.655 15.94ZM505.456 15.86L502.816 17.34C502.443 17.3267 502.069 17.1867 501.696 16.92C501.323 16.6533 501.016 16.3067 500.776 15.88L498.656 17.26L497.976 17.32C497.109 17.32 496.383 17.0667 495.796 16.56C495.223 16.0533 494.936 15.44 494.936 14.72C494.936 13.72 495.476 12.9333 496.556 12.36L500.356 12.28V10.64C500.356 9.61333 500.049 8.94 499.436 8.62C499.009 8.64667 498.636 8.72667 498.316 8.86L497.836 11.06L495.876 11.1C495.623 10.38 495.496 9.62 495.496 8.82L495.536 8.08C496.336 7.77333 497.263 7.51333 498.316 7.3C499.369 7.07333 500.183 6.96 500.756 6.96C501.943 6.96 502.883 7.44667 503.576 8.42C503.723 8.67333 503.803 9.18 503.816 9.94V14.52C503.816 14.8667 503.983 15.04 504.316 15.04L504.856 15.02L505.336 14.98L505.456 15.86ZM498.356 14.5C498.356 14.8467 498.469 15.1333 498.696 15.36C499.096 15.3333 499.649 15.2067 500.356 14.98V13.5C499.023 13.4733 498.356 13.8067 498.356 14.5ZM512.305 7.18L512.985 7.12C514.092 7.12 514.985 7.56667 515.665 8.46C516.359 9.34 516.705 10.44 516.705 11.76C516.705 13.4 516.172 14.7467 515.105 15.8C514.039 16.84 512.632 17.36 510.885 17.36C509.592 17.36 508.199 17.1067 506.705 16.6L506.725 16.58V4.26L505.225 4L505.145 3C506.265 2.6 507.585 2.35333 509.105 2.26L510.185 3.26V8.72L512.305 7.18ZM511.925 15.48C512.739 14.7733 513.145 13.7333 513.145 12.36C513.145 11.5733 512.965 10.9067 512.605 10.36C512.245 9.81333 511.765 9.54 511.165 9.54C510.845 9.54 510.519 9.62 510.185 9.78V15.34C510.545 15.46 510.939 15.52 511.365 15.52L511.925 15.48ZM520.71 5.98C519.79 5.56667 518.997 4.96 518.33 4.16C518.864 3.13333 519.524 2.33333 520.31 1.76C521.204 2.22667 521.957 2.90667 522.57 3.8C522.13 4.68 521.51 5.40667 520.71 5.98ZM522.25 15.32C522.837 15.52 523.317 15.7533 523.69 16.02L523.65 17H517.31L517.27 16.3C517.737 16.0333 518.244 15.8067 518.79 15.62V9.02L517.31 8.74L517.21 7.78C518.397 7.32667 519.717 7.08 521.17 7.04L522.25 8V15.32ZM529.745 14.78C530.212 14.78 530.745 14.72 531.345 14.6L531.485 15.64L528.185 17.34C527.518 17.3667 526.905 17.16 526.345 16.72C525.798 16.2667 525.525 15.74 525.525 15.14V9.78H524.065L524.005 8.7C524.445 8.32667 525.012 7.94 525.705 7.54L526.805 4.86H528.385L528.885 7.54H531.645L531.665 8.54L530.665 9.8H528.985V13.92C528.985 14.4933 529.238 14.78 529.745 14.78ZM543.132 15.86L540.492 17.34C540.118 17.3267 539.745 17.1867 539.372 16.92C538.998 16.6533 538.692 16.3067 538.452 15.88L536.332 17.26L535.652 17.32C534.785 17.32 534.058 17.0667 533.472 16.56C532.898 16.0533 532.612 15.44 532.612 14.72C532.612 13.72 533.152 12.9333 534.232 12.36L538.032 12.28V10.64C538.032 9.61333 537.725 8.94 537.112 8.62C536.685 8.64667 536.312 8.72667 535.992 8.86L535.512 11.06L533.552 11.1C533.298 10.38 533.172 9.62 533.172 8.82L533.212 8.08C534.012 7.77333 534.938 7.51333 535.992 7.3C537.045 7.07333 537.858 6.96 538.432 6.96C539.618 6.96 540.558 7.44667 541.252 8.42C541.398 8.67333 541.478 9.18 541.492 9.94V14.52C541.492 14.8667 541.658 15.04 541.992 15.04L542.532 15.02L543.012 14.98L543.132 15.86ZM536.032 14.5C536.032 14.8467 536.145 15.1333 536.372 15.36C536.772 15.3333 537.325 15.2067 538.032 14.98V13.5C536.698 13.4733 536.032 13.8067 536.032 14.5ZM549.401 17.26L548.521 17.32C547.081 17.32 545.881 16.8467 544.921 15.9C543.975 14.94 543.501 13.7133 543.501 12.22C543.501 10.7133 543.981 9.46667 544.941 8.48C545.901 7.49333 547.108 7 548.561 7C549.495 7 550.328 7.22667 551.061 7.68C551.795 8.12 552.288 8.76 552.541 9.6L549.801 11.14C549.228 10.0067 548.561 9.23333 547.801 8.82C547.161 9.51333 546.841 10.4733 546.841 11.7C546.841 12.7 547.081 13.5133 547.561 14.14C548.055 14.7667 548.748 15.08 549.641 15.08C550.268 15.08 550.995 14.88 551.821 14.48L552.301 15.58L549.401 17.26ZM556.179 5.98C555.259 5.56667 554.466 4.96 553.799 4.16C554.332 3.13333 554.992 2.33333 555.779 1.76C556.672 2.22667 557.426 2.90667 558.039 3.8C557.599 4.68 556.979 5.40667 556.179 5.98ZM557.719 15.32C558.306 15.52 558.786 15.7533 559.159 16.02L559.119 17H552.779L552.739 16.3C553.206 16.0333 553.712 15.8067 554.259 15.62V9.02L552.779 8.74L552.679 7.78C553.866 7.32667 555.186 7.08 556.639 7.04L557.719 8V15.32ZM559.654 12.14C559.654 10.6333 560.127 9.4 561.074 8.44C562.02 7.48 563.22 7 564.674 7C566.127 7 567.32 7.48667 568.254 8.46C569.187 9.43333 569.654 10.6933 569.654 12.24C569.654 13.7733 569.194 15.02 568.274 15.98C567.367 16.9267 566.194 17.4 564.754 17.4C563.287 17.4 562.067 16.9067 561.094 15.92C560.134 14.92 559.654 13.66 559.654 12.14ZM565.414 15.5C565.907 15.1267 566.154 14.1133 566.154 12.46C566.154 10.1 565.614 8.92 564.534 8.92C564.2 8.92 563.94 8.99333 563.754 9.14C563.354 9.67333 563.154 10.6867 563.154 12.18C563.154 13.1933 563.294 14.02 563.574 14.66C563.854 15.2867 564.28 15.6 564.854 15.6C565.04 15.6 565.227 15.5667 565.414 15.5ZM562.674 5.06L565.754 1.3L567.914 3.2L566.894 4.06L564.914 5.94L564.414 6.42L562.674 5.06ZM581.28 15.32C581.867 15.52 582.347 15.7533 582.72 16.02L582.66 17H577.82V11.46C577.82 10.1133 577.394 9.44 576.54 9.44C576.154 9.44 575.72 9.56 575.24 9.8V15.38C575.72 15.5933 576.107 15.8067 576.4 16.02L576.36 17H570.34L570.3 16.3C570.714 16.06 571.207 15.84 571.78 15.64V9.02L570.3 8.74L570.2 7.78C571.387 7.32667 572.707 7.08 574.16 7.04L575.24 8.12V8.76C576.32 7.94667 577.327 7.39333 578.26 7.1C579.514 7.14 580.44 7.62 581.04 8.54C581.187 8.80667 581.267 9.41333 581.28 10.36V15.32Z" fill="#913443"/>
<defs>
<filter id="filter0_d" x="0" y="4" width="680" height="370" filterUnits="userSpaceOnUse" color-interpolation-filters="sRGB">
<feFlood flood-opacity="0" result="BackgroundImageFix"/>
<feColorMatrix in="SourceAlpha" type="matrix" values="0 0 0 0 0 0 0 0 0 0 0 0 0 0 0 0 0 0 127 0"/>
<feOffset dy="4"/>
<feGaussianBlur stdDeviation="5"/>
<feColorMatrix type="matrix" values="0 0 0 0 0.568627 0 0 0 0 0.203922 0 0 0 0 0.262745 0 0 0 0.25 0"/>
<feBlend mode="normal" in2="BackgroundImageFix" result="effect1_dropShadow"/>
<feBlend mode="normal" in="SourceGraphic" in2="effect1_dropShadow" result="shape"/>
</filter>
</defs>
</svg>
