<svg width="680" height="574" viewBox="0 0 680 574" fill="none" xmlns="http://www.w3.org/2000/svg">
<g filter="url(#filter0_d)">
<rect x="10" y="10" width="660" height="550" rx="32" fill="#BFCCD3"/>
<rect x="11.5" y="11.5" width="657" height="547" rx="30.5" stroke="#FFFD54" stroke-width="3"/>
</g>
<rect x="70" width="120" height="23" fill="#BFCCD3"/>
<path d="M93.38 5.72V20H104.22V17.36H96.52V13.86H103.44V11.42H96.52V8.36H104.06V5.72H93.38ZM106.129 5.72V20H108.969V5.72H106.129ZM118.971 16.64H116.271C116.298 17.3333 116.451 17.9133 116.731 18.38C117.025 18.8333 117.391 19.2 117.831 19.48C118.285 19.76 118.798 19.96 119.371 20.08C119.945 20.2 120.531 20.26 121.131 20.26C121.718 20.26 122.291 20.2 122.851 20.08C123.425 19.9733 123.931 19.78 124.371 19.5C124.811 19.22 125.165 18.8533 125.431 18.4C125.711 17.9333 125.851 17.36 125.851 16.68C125.851 16.2 125.758 15.8 125.571 15.48C125.385 15.1467 125.138 14.8733 124.831 14.66C124.525 14.4333 124.171 14.2533 123.771 14.12C123.385 13.9867 122.985 13.8733 122.571 13.78C122.171 13.6867 121.778 13.6 121.391 13.52C121.005 13.44 120.658 13.3533 120.351 13.26C120.058 13.1533 119.818 13.02 119.631 12.86C119.445 12.7 119.351 12.4933 119.351 12.24C119.351 12.0267 119.405 11.86 119.511 11.74C119.618 11.6067 119.745 11.5067 119.891 11.44C120.051 11.3733 120.225 11.3333 120.411 11.32C120.598 11.2933 120.771 11.28 120.931 11.28C121.438 11.28 121.878 11.38 122.251 11.58C122.625 11.7667 122.831 12.1333 122.871 12.68H125.571C125.518 12.04 125.351 11.5133 125.071 11.1C124.805 10.6733 124.465 10.3333 124.051 10.08C123.638 9.82667 123.165 9.64667 122.631 9.54C122.111 9.43333 121.571 9.38 121.011 9.38C120.451 9.38 119.905 9.43333 119.371 9.54C118.838 9.63333 118.358 9.80667 117.931 10.06C117.505 10.3 117.158 10.6333 116.891 11.06C116.638 11.4867 116.511 12.0333 116.511 12.7C116.511 13.1533 116.605 13.54 116.791 13.86C116.978 14.1667 117.225 14.4267 117.531 14.64C117.838 14.84 118.185 15.0067 118.571 15.14C118.971 15.26 119.378 15.3667 119.791 15.46C120.805 15.6733 121.591 15.8867 122.151 16.1C122.725 16.3133 123.011 16.6333 123.011 17.06C123.011 17.3133 122.951 17.5267 122.831 17.7C122.711 17.86 122.558 17.9933 122.371 18.1C122.198 18.1933 121.998 18.2667 121.771 18.32C121.558 18.36 121.351 18.38 121.151 18.38C120.871 18.38 120.598 18.3467 120.331 18.28C120.078 18.2133 119.851 18.1133 119.651 17.98C119.451 17.8333 119.285 17.6533 119.151 17.44C119.031 17.2133 118.971 16.9467 118.971 16.64ZM127.394 12.84C127.434 12.1733 127.6 11.62 127.894 11.18C128.187 10.74 128.56 10.3867 129.014 10.12C129.467 9.85333 129.974 9.66667 130.534 9.56C131.107 9.44 131.68 9.38 132.254 9.38C132.774 9.38 133.3 9.42 133.834 9.5C134.367 9.56667 134.854 9.70667 135.294 9.92C135.734 10.1333 136.094 10.4333 136.374 10.82C136.654 11.1933 136.794 11.6933 136.794 12.32V17.7C136.794 18.1667 136.82 18.6133 136.874 19.04C136.927 19.4667 137.02 19.7867 137.154 20H134.274C134.22 19.84 134.174 19.68 134.134 19.52C134.107 19.3467 134.087 19.1733 134.074 19C133.62 19.4667 133.087 19.7933 132.474 19.98C131.86 20.1667 131.234 20.26 130.594 20.26C130.1 20.26 129.64 20.2 129.214 20.08C128.787 19.96 128.414 19.7733 128.094 19.52C127.774 19.2667 127.52 18.9467 127.334 18.56C127.16 18.1733 127.074 17.7133 127.074 17.18C127.074 16.5933 127.174 16.1133 127.374 15.74C127.587 15.3533 127.854 15.0467 128.174 14.82C128.507 14.5933 128.88 14.4267 129.294 14.32C129.72 14.2 130.147 14.1067 130.574 14.04C131 13.9733 131.42 13.92 131.834 13.88C132.247 13.84 132.614 13.78 132.934 13.7C133.254 13.62 133.507 13.5067 133.694 13.36C133.88 13.2 133.967 12.9733 133.954 12.68C133.954 12.3733 133.9 12.1333 133.794 11.96C133.7 11.7733 133.567 11.6333 133.394 11.54C133.234 11.4333 133.04 11.3667 132.814 11.34C132.6 11.3 132.367 11.28 132.114 11.28C131.554 11.28 131.114 11.4 130.794 11.64C130.474 11.88 130.287 12.28 130.234 12.84H127.394ZM133.954 14.94C133.834 15.0467 133.68 15.1333 133.494 15.2C133.32 15.2533 133.127 15.3 132.914 15.34C132.714 15.38 132.5 15.4133 132.274 15.44C132.047 15.4667 131.82 15.5 131.594 15.54C131.38 15.58 131.167 15.6333 130.954 15.7C130.754 15.7667 130.574 15.86 130.414 15.98C130.267 16.0867 130.147 16.2267 130.054 16.4C129.96 16.5733 129.914 16.7933 129.914 17.06C129.914 17.3133 129.96 17.5267 130.054 17.7C130.147 17.8733 130.274 18.0133 130.434 18.12C130.594 18.2133 130.78 18.28 130.994 18.32C131.207 18.36 131.427 18.38 131.654 18.38C132.214 18.38 132.647 18.2867 132.954 18.1C133.26 17.9133 133.487 17.6933 133.634 17.44C133.78 17.1733 133.867 16.9067 133.894 16.64C133.934 16.3733 133.954 16.16 133.954 16V14.94ZM139.078 5.72V20H141.918V5.72H139.078ZM146.674 14.84C146.674 14.4267 146.714 14.02 146.794 13.62C146.874 13.22 147.008 12.8667 147.194 12.56C147.394 12.2533 147.654 12.0067 147.974 11.82C148.294 11.62 148.694 11.52 149.174 11.52C149.654 11.52 150.054 11.62 150.374 11.82C150.708 12.0067 150.968 12.2533 151.154 12.56C151.354 12.8667 151.494 13.22 151.574 13.62C151.654 14.02 151.694 14.4267 151.694 14.84C151.694 15.2533 151.654 15.66 151.574 16.06C151.494 16.4467 151.354 16.8 151.154 17.12C150.968 17.4267 150.708 17.6733 150.374 17.86C150.054 18.0467 149.654 18.14 149.174 18.14C148.694 18.14 148.294 18.0467 147.974 17.86C147.654 17.6733 147.394 17.4267 147.194 17.12C147.008 16.8 146.874 16.4467 146.794 16.06C146.714 15.66 146.674 15.2533 146.674 14.84ZM143.834 14.84C143.834 15.6667 143.961 16.4133 144.214 17.08C144.468 17.7467 144.828 18.32 145.294 18.8C145.761 19.2667 146.321 19.6267 146.974 19.88C147.628 20.1333 148.361 20.26 149.174 20.26C149.988 20.26 150.721 20.1333 151.374 19.88C152.041 19.6267 152.608 19.2667 153.074 18.8C153.541 18.32 153.901 17.7467 154.154 17.08C154.408 16.4133 154.534 15.6667 154.534 14.84C154.534 14.0133 154.408 13.2667 154.154 12.6C153.901 11.92 153.541 11.3467 153.074 10.88C152.608 10.4 152.041 10.0333 151.374 9.78C150.721 9.51333 149.988 9.38 149.174 9.38C148.361 9.38 147.628 9.51333 146.974 9.78C146.321 10.0333 145.761 10.4 145.294 10.88C144.828 11.3467 144.468 11.92 144.214 12.6C143.961 13.2667 143.834 14.0133 143.834 14.84ZM152.914 4.3L149.654 7.84H147.674L149.794 4.3H152.914ZM156.381 9.66V20H159.221V14.58C159.221 13.5267 159.394 12.7733 159.741 12.32C160.087 11.8533 160.647 11.62 161.421 11.62C162.101 11.62 162.574 11.8333 162.841 12.26C163.107 12.6733 163.241 13.3067 163.241 14.16V20H166.081V13.64C166.081 13 166.021 12.42 165.901 11.9C165.794 11.3667 165.601 10.92 165.321 10.56C165.041 10.1867 164.654 9.9 164.161 9.7C163.681 9.48667 163.061 9.38 162.301 9.38C161.701 9.38 161.114 9.52 160.541 9.8C159.967 10.0667 159.501 10.5 159.141 11.1H159.081V9.66H156.381Z" fill="#FFFD54"/>
<defs>
<filter id="filter0_d" x="0" y="4" width="680" height="570" filterUnits="userSpaceOnUse" color-interpolation-filters="sRGB">
<feFlood flood-opacity="0" result="BackgroundImageFix"/>
<feColorMatrix in="SourceAlpha" type="matrix" values="0 0 0 0 0 0 0 0 0 0 0 0 0 0 0 0 0 0 127 0"/>
<feOffset dy="4"/>
<feGaussianBlur stdDeviation="5"/>
<feColorMatrix type="matrix" values="0 0 0 0 0.941176 0 0 0 0 0.94902 0 0 0 0 0.580392 0 0 0 0.25 0"/>
<feBlend mode="normal" in2="BackgroundImageFix" result="effect1_dropShadow"/>
<feBlend mode="normal" in="SourceGraphic" in2="effect1_dropShadow" result="shape"/>
</filter>
</defs>
</svg>
