<svg width="660" height="360" viewBox="0 0 660 360" fill="none" xmlns="http://www.w3.org/2000/svg">
<rect x="1.5" y="11.5" width="657" height="347" rx="30.5" fill="#BFCCD3" stroke="#913443" stroke-width="3"/>
<rect x="407" width="198" height="23" fill="#BFCCD3"/>
<path d="M444.38 5.72V20H454.48V17.36H447.52V5.72H444.38ZM455.815 12.84C455.855 12.1733 456.022 11.62 456.315 11.18C456.609 10.74 456.982 10.3867 457.435 10.12C457.889 9.85333 458.395 9.66667 458.955 9.56C459.529 9.44 460.102 9.38 460.675 9.38C461.195 9.38 461.722 9.42 462.255 9.5C462.789 9.56667 463.275 9.70667 463.715 9.92C464.155 10.1333 464.515 10.4333 464.795 10.82C465.075 11.1933 465.215 11.6933 465.215 12.32V17.7C465.215 18.1667 465.242 18.6133 465.295 19.04C465.349 19.4667 465.442 19.7867 465.575 20H462.695C462.642 19.84 462.595 19.68 462.555 19.52C462.529 19.3467 462.509 19.1733 462.495 19C462.042 19.4667 461.509 19.7933 460.895 19.98C460.282 20.1667 459.655 20.26 459.015 20.26C458.522 20.26 458.062 20.2 457.635 20.08C457.209 19.96 456.835 19.7733 456.515 19.52C456.195 19.2667 455.942 18.9467 455.755 18.56C455.582 18.1733 455.495 17.7133 455.495 17.18C455.495 16.5933 455.595 16.1133 455.795 15.74C456.009 15.3533 456.275 15.0467 456.595 14.82C456.929 14.5933 457.302 14.4267 457.715 14.32C458.142 14.2 458.569 14.1067 458.995 14.04C459.422 13.9733 459.842 13.92 460.255 13.88C460.669 13.84 461.035 13.78 461.355 13.7C461.675 13.62 461.929 13.5067 462.115 13.36C462.302 13.2 462.389 12.9733 462.375 12.68C462.375 12.3733 462.322 12.1333 462.215 11.96C462.122 11.7733 461.989 11.6333 461.815 11.54C461.655 11.4333 461.462 11.3667 461.235 11.34C461.022 11.3 460.789 11.28 460.535 11.28C459.975 11.28 459.535 11.4 459.215 11.64C458.895 11.88 458.709 12.28 458.655 12.84H455.815ZM462.375 14.94C462.255 15.0467 462.102 15.1333 461.915 15.2C461.742 15.2533 461.549 15.3 461.335 15.34C461.135 15.38 460.922 15.4133 460.695 15.44C460.469 15.4667 460.242 15.5 460.015 15.54C459.802 15.58 459.589 15.6333 459.375 15.7C459.175 15.7667 458.995 15.86 458.835 15.98C458.689 16.0867 458.569 16.2267 458.475 16.4C458.382 16.5733 458.335 16.7933 458.335 17.06C458.335 17.3133 458.382 17.5267 458.475 17.7C458.569 17.8733 458.695 18.0133 458.855 18.12C459.015 18.2133 459.202 18.28 459.415 18.32C459.629 18.36 459.849 18.38 460.075 18.38C460.635 18.38 461.069 18.2867 461.375 18.1C461.682 17.9133 461.909 17.6933 462.055 17.44C462.202 17.1733 462.289 16.9067 462.315 16.64C462.355 16.3733 462.375 16.16 462.375 16V14.94ZM473.286 5.72V20H476.426V13.84H482.206V20H485.346V5.72H482.206V11.2H476.426V5.72H473.286ZM487.69 12.84C487.73 12.1733 487.897 11.62 488.19 11.18C488.484 10.74 488.857 10.3867 489.31 10.12C489.764 9.85333 490.27 9.66667 490.83 9.56C491.404 9.44 491.977 9.38 492.55 9.38C493.07 9.38 493.597 9.42 494.13 9.5C494.664 9.56667 495.15 9.70667 495.59 9.92C496.03 10.1333 496.39 10.4333 496.67 10.82C496.95 11.1933 497.09 11.6933 497.09 12.32V17.7C497.09 18.1667 497.117 18.6133 497.17 19.04C497.224 19.4667 497.317 19.7867 497.45 20H494.57C494.517 19.84 494.47 19.68 494.43 19.52C494.404 19.3467 494.384 19.1733 494.37 19C493.917 19.4667 493.384 19.7933 492.77 19.98C492.157 20.1667 491.53 20.26 490.89 20.26C490.397 20.26 489.937 20.2 489.51 20.08C489.084 19.96 488.71 19.7733 488.39 19.52C488.07 19.2667 487.817 18.9467 487.63 18.56C487.457 18.1733 487.37 17.7133 487.37 17.18C487.37 16.5933 487.47 16.1133 487.67 15.74C487.884 15.3533 488.15 15.0467 488.47 14.82C488.804 14.5933 489.177 14.4267 489.59 14.32C490.017 14.2 490.444 14.1067 490.87 14.04C491.297 13.9733 491.717 13.92 492.13 13.88C492.544 13.84 492.91 13.78 493.23 13.7C493.55 13.62 493.804 13.5067 493.99 13.36C494.177 13.2 494.264 12.9733 494.25 12.68C494.25 12.3733 494.197 12.1333 494.09 11.96C493.997 11.7733 493.864 11.6333 493.69 11.54C493.53 11.4333 493.337 11.3667 493.11 11.34C492.897 11.3 492.664 11.28 492.41 11.28C491.85 11.28 491.41 11.4 491.09 11.64C490.77 11.88 490.584 12.28 490.53 12.84H487.69ZM494.25 14.94C494.13 15.0467 493.977 15.1333 493.79 15.2C493.617 15.2533 493.424 15.3 493.21 15.34C493.01 15.38 492.797 15.4133 492.57 15.44C492.344 15.4667 492.117 15.5 491.89 15.54C491.677 15.58 491.464 15.6333 491.25 15.7C491.05 15.7667 490.87 15.86 490.71 15.98C490.564 16.0867 490.444 16.2267 490.35 16.4C490.257 16.5733 490.21 16.7933 490.21 17.06C490.21 17.3133 490.257 17.5267 490.35 17.7C490.444 17.8733 490.57 18.0133 490.73 18.12C490.89 18.2133 491.077 18.28 491.29 18.32C491.504 18.36 491.724 18.38 491.95 18.38C492.51 18.38 492.944 18.2867 493.25 18.1C493.557 17.9133 493.784 17.6933 493.93 17.44C494.077 17.1733 494.164 16.9067 494.19 16.64C494.23 16.3733 494.25 16.16 494.25 16V14.94ZM506.875 14.84C506.875 15.2667 506.828 15.68 506.735 16.08C506.642 16.48 506.495 16.8333 506.295 17.14C506.095 17.4467 505.842 17.6933 505.535 17.88C505.242 18.0533 504.882 18.14 504.455 18.14C504.042 18.14 503.682 18.0533 503.375 17.88C503.068 17.6933 502.815 17.4467 502.615 17.14C502.415 16.8333 502.268 16.48 502.175 16.08C502.082 15.68 502.035 15.2667 502.035 14.84C502.035 14.4 502.082 13.98 502.175 13.58C502.268 13.18 502.415 12.8267 502.615 12.52C502.815 12.2133 503.068 11.9733 503.375 11.8C503.682 11.6133 504.042 11.52 504.455 11.52C504.882 11.52 505.242 11.6133 505.535 11.8C505.842 11.9733 506.095 12.2133 506.295 12.52C506.495 12.8267 506.642 13.18 506.735 13.58C506.828 13.98 506.875 14.4 506.875 14.84ZM499.295 5.72V20H501.995V18.68H502.035C502.342 19.2533 502.795 19.66 503.395 19.9C503.995 20.14 504.675 20.26 505.435 20.26C505.955 20.26 506.468 20.1533 506.975 19.94C507.482 19.7267 507.935 19.4 508.335 18.96C508.748 18.52 509.082 17.96 509.335 17.28C509.588 16.5867 509.715 15.7667 509.715 14.82C509.715 13.8733 509.588 13.06 509.335 12.38C509.082 11.6867 508.748 11.12 508.335 10.68C507.935 10.24 507.482 9.91333 506.975 9.7C506.468 9.48667 505.955 9.38 505.435 9.38C504.795 9.38 504.175 9.50667 503.575 9.76C502.988 10 502.522 10.3867 502.175 10.92H502.135V5.72H499.295ZM514.441 8.06V5.72H511.601V8.06H514.441ZM511.601 9.66V20H514.441V9.66H511.601ZM520.278 9.66V6.56H517.438V9.66H515.718V11.56H517.438V17.66C517.438 18.18 517.524 18.6 517.698 18.92C517.871 19.24 518.104 19.4867 518.398 19.66C518.704 19.8333 519.051 19.9467 519.438 20C519.838 20.0667 520.258 20.1 520.698 20.1C520.978 20.1 521.264 20.0933 521.558 20.08C521.851 20.0667 522.118 20.04 522.358 20V17.8C522.224 17.8267 522.084 17.8467 521.938 17.86C521.791 17.8733 521.638 17.88 521.478 17.88C520.998 17.88 520.678 17.8 520.518 17.64C520.358 17.48 520.278 17.16 520.278 16.68V11.56H522.358V9.66H520.278ZM523.589 12.84C523.629 12.1733 523.796 11.62 524.089 11.18C524.382 10.74 524.756 10.3867 525.209 10.12C525.662 9.85333 526.169 9.66667 526.729 9.56C527.302 9.44 527.876 9.38 528.449 9.38C528.969 9.38 529.496 9.42 530.029 9.5C530.562 9.56667 531.049 9.70667 531.489 9.92C531.929 10.1333 532.289 10.4333 532.569 10.82C532.849 11.1933 532.989 11.6933 532.989 12.32V17.7C532.989 18.1667 533.016 18.6133 533.069 19.04C533.122 19.4667 533.216 19.7867 533.349 20H530.469C530.416 19.84 530.369 19.68 530.329 19.52C530.302 19.3467 530.282 19.1733 530.269 19C529.816 19.4667 529.282 19.7933 528.669 19.98C528.056 20.1667 527.429 20.26 526.789 20.26C526.296 20.26 525.836 20.2 525.409 20.08C524.982 19.96 524.609 19.7733 524.289 19.52C523.969 19.2667 523.716 18.9467 523.529 18.56C523.356 18.1733 523.269 17.7133 523.269 17.18C523.269 16.5933 523.369 16.1133 523.569 15.74C523.782 15.3533 524.049 15.0467 524.369 14.82C524.702 14.5933 525.076 14.4267 525.489 14.32C525.916 14.2 526.342 14.1067 526.769 14.04C527.196 13.9733 527.616 13.92 528.029 13.88C528.442 13.84 528.809 13.78 529.129 13.7C529.449 13.62 529.702 13.5067 529.889 13.36C530.076 13.2 530.162 12.9733 530.149 12.68C530.149 12.3733 530.096 12.1333 529.989 11.96C529.896 11.7733 529.762 11.6333 529.589 11.54C529.429 11.4333 529.236 11.3667 529.009 11.34C528.796 11.3 528.562 11.28 528.309 11.28C527.749 11.28 527.309 11.4 526.989 11.64C526.669 11.88 526.482 12.28 526.429 12.84H523.589ZM530.149 14.94C530.029 15.0467 529.876 15.1333 529.689 15.2C529.516 15.2533 529.322 15.3 529.109 15.34C528.909 15.38 528.696 15.4133 528.469 15.44C528.242 15.4667 528.016 15.5 527.789 15.54C527.576 15.58 527.362 15.6333 527.149 15.7C526.949 15.7667 526.769 15.86 526.609 15.98C526.462 16.0867 526.342 16.2267 526.249 16.4C526.156 16.5733 526.109 16.7933 526.109 17.06C526.109 17.3133 526.156 17.5267 526.249 17.7C526.342 17.8733 526.469 18.0133 526.629 18.12C526.789 18.2133 526.976 18.28 527.189 18.32C527.402 18.36 527.622 18.38 527.849 18.38C528.409 18.38 528.842 18.2867 529.149 18.1C529.456 17.9133 529.682 17.6933 529.829 17.44C529.976 17.1733 530.062 16.9067 530.089 16.64C530.129 16.3733 530.149 16.16 530.149 16V14.94ZM542.233 13.3H545.013C544.973 12.6333 544.813 12.06 544.533 11.58C544.253 11.0867 543.887 10.68 543.433 10.36C542.993 10.0267 542.487 9.78 541.913 9.62C541.353 9.46 540.767 9.38 540.153 9.38C539.313 9.38 538.567 9.52 537.913 9.8C537.26 10.08 536.707 10.4733 536.253 10.98C535.8 11.4733 535.453 12.0667 535.213 12.76C534.987 13.44 534.873 14.18 534.873 14.98C534.873 15.7533 535 16.4667 535.253 17.12C535.507 17.76 535.86 18.3133 536.313 18.78C536.767 19.2467 537.313 19.6133 537.953 19.88C538.607 20.1333 539.32 20.26 540.093 20.26C541.467 20.26 542.593 19.9 543.473 19.18C544.353 18.46 544.887 17.4133 545.073 16.04H542.333C542.24 16.68 542.007 17.1933 541.633 17.58C541.273 17.9533 540.753 18.14 540.073 18.14C539.633 18.14 539.26 18.04 538.953 17.84C538.647 17.64 538.4 17.3867 538.213 17.08C538.04 16.76 537.913 16.4067 537.833 16.02C537.753 15.6333 537.713 15.2533 537.713 14.88C537.713 14.4933 537.753 14.1067 537.833 13.72C537.913 13.32 538.047 12.96 538.233 12.64C538.433 12.3067 538.687 12.04 538.993 11.84C539.3 11.6267 539.68 11.52 540.133 11.52C541.347 11.52 542.047 12.1133 542.233 13.3ZM549.598 8.06V5.72H546.758V8.06H549.598ZM546.758 9.66V20H549.598V9.66H546.758ZM554.354 14.84C554.354 14.4267 554.394 14.02 554.474 13.62C554.554 13.22 554.687 12.8667 554.874 12.56C555.074 12.2533 555.334 12.0067 555.654 11.82C555.974 11.62 556.374 11.52 556.854 11.52C557.334 11.52 557.734 11.62 558.054 11.82C558.387 12.0067 558.647 12.2533 558.834 12.56C559.034 12.8667 559.174 13.22 559.254 13.62C559.334 14.02 559.374 14.4267 559.374 14.84C559.374 15.2533 559.334 15.66 559.254 16.06C559.174 16.4467 559.034 16.8 558.834 17.12C558.647 17.4267 558.387 17.6733 558.054 17.86C557.734 18.0467 557.334 18.14 556.854 18.14C556.374 18.14 555.974 18.0467 555.654 17.86C555.334 17.6733 555.074 17.4267 554.874 17.12C554.687 16.8 554.554 16.4467 554.474 16.06C554.394 15.66 554.354 15.2533 554.354 14.84ZM551.514 14.84C551.514 15.6667 551.641 16.4133 551.894 17.08C552.147 17.7467 552.507 18.32 552.974 18.8C553.441 19.2667 554.001 19.6267 554.654 19.88C555.307 20.1333 556.041 20.26 556.854 20.26C557.667 20.26 558.401 20.1333 559.054 19.88C559.721 19.6267 560.287 19.2667 560.754 18.8C561.221 18.32 561.581 17.7467 561.834 17.08C562.087 16.4133 562.214 15.6667 562.214 14.84C562.214 14.0133 562.087 13.2667 561.834 12.6C561.581 11.92 561.221 11.3467 560.754 10.88C560.287 10.4 559.721 10.0333 559.054 9.78C558.401 9.51333 557.667 9.38 556.854 9.38C556.041 9.38 555.307 9.51333 554.654 9.78C554.001 10.0333 553.441 10.4 552.974 10.88C552.507 11.3467 552.147 11.92 551.894 12.6C551.641 13.2667 551.514 14.0133 551.514 14.84ZM560.594 4.3L557.334 7.84H555.354L557.474 4.3H560.594ZM564.06 9.66V20H566.9V14.58C566.9 13.5267 567.074 12.7733 567.42 12.32C567.767 11.8533 568.327 11.62 569.1 11.62C569.78 11.62 570.254 11.8333 570.52 12.26C570.787 12.6733 570.92 13.3067 570.92 14.16V20H573.76V13.64C573.76 13 573.7 12.42 573.58 11.9C573.474 11.3667 573.28 10.92 573 10.56C572.72 10.1867 572.334 9.9 571.84 9.7C571.36 9.48667 570.74 9.38 569.98 9.38C569.38 9.38 568.794 9.52 568.22 9.8C567.647 10.0667 567.18 10.5 566.82 11.1H566.76V9.66H564.06Z" fill="#913443"/>
</svg>
