<svg width="680" height="574" viewBox="0 0 680 574" fill="none" xmlns="http://www.w3.org/2000/svg">
<g filter="url(#filter0_d)">
<rect x="10" y="10" width="660" height="550" rx="32" fill="#BFCCD3"/>
<rect x="12" y="12" width="656" height="546" rx="30" stroke="#F0F294" stroke-width="4"/>
</g>
<rect x="70" width="120" height="23" fill="#BFCCD3"/>
<path d="M103.86 12.84C103.887 14.1467 103.807 15.5333 103.62 17H92.6L92.48 16.36C92.9867 16.0133 93.5533 15.7 94.18 15.42V5.04L92.68 4.82L92.7 3.76H103.76L103.78 4.22C103.78 5.44667 103.653 6.64 103.4 7.8H101.4L101.04 5.76L97.8 5.54V9.58L101.98 9.24V11.4L97.8 11.22V15.14L101.16 14.88L101.88 12.68L103.86 12.84ZM109.817 15.32C110.403 15.52 110.883 15.7533 111.257 16.02L111.217 17H104.877L104.837 16.3C105.303 16.0333 105.81 15.8067 106.357 15.62V4.26L104.877 4L104.777 3C105.897 2.6 107.217 2.35333 108.737 2.26L109.817 3.26V15.32ZM120.721 9.38C120.721 9.62 120.808 9.84 120.981 10.04C121.155 10.2267 121.775 10.6 122.841 11.16C123.908 11.7067 124.628 12.22 125.001 12.7C125.375 13.1667 125.561 13.7 125.561 14.3C125.561 15.2067 125.188 15.9533 124.441 16.54C123.695 17.1133 122.701 17.4 121.461 17.4C120.061 17.4 118.668 17.04 117.281 16.32L118.421 13.7C119.581 14.5933 120.781 15.26 122.021 15.7C122.261 15.4867 122.381 15.24 122.381 14.96C122.381 14.7067 122.281 14.48 122.081 14.28C121.895 14.08 121.281 13.72 120.241 13.2C119.215 12.6667 118.515 12.1733 118.141 11.72C117.781 11.2533 117.601 10.7267 117.601 10.14C117.601 9.20667 118.008 8.45333 118.821 7.88C119.648 7.29333 120.715 7 122.021 7C123.235 7 124.268 7.22 125.121 7.66L125.161 8.36C125.161 9.05333 125.048 9.75333 124.821 10.46H123.061L122.441 8.64L121.521 8.54C120.988 8.7 120.721 8.98 120.721 9.38ZM137.026 15.86L134.386 17.34C134.013 17.3267 133.64 17.1867 133.266 16.92C132.893 16.6533 132.586 16.3067 132.346 15.88L130.226 17.26L129.546 17.32C128.68 17.32 127.953 17.0667 127.366 16.56C126.793 16.0533 126.506 15.44 126.506 14.72C126.506 13.72 127.046 12.9333 128.126 12.36L131.926 12.28V10.64C131.926 9.61333 131.62 8.94 131.006 8.62C130.58 8.64667 130.206 8.72667 129.886 8.86L129.406 11.06L127.446 11.1C127.193 10.38 127.066 9.62 127.066 8.82L127.106 8.08C127.906 7.77333 128.833 7.51333 129.886 7.3C130.94 7.07333 131.753 6.96 132.326 6.96C133.513 6.96 134.453 7.44667 135.146 8.42C135.293 8.67333 135.373 9.18 135.386 9.94V14.52C135.386 14.8667 135.553 15.04 135.886 15.04L136.426 15.02L136.906 14.98L137.026 15.86ZM129.926 14.5C129.926 14.8467 130.04 15.1333 130.266 15.36C130.666 15.3333 131.22 15.2067 131.926 14.98V13.5C130.593 13.4733 129.926 13.8067 129.926 14.5ZM142.356 15.32C142.942 15.52 143.422 15.7533 143.796 16.02L143.756 17H137.416L137.376 16.3C137.842 16.0333 138.349 15.8067 138.896 15.62V4.26L137.416 4L137.316 3C138.436 2.6 139.756 2.35333 141.276 2.26L142.356 3.26V15.32ZM144.115 12.14C144.115 10.6333 144.588 9.4 145.535 8.44C146.481 7.48 147.681 7 149.135 7C150.588 7 151.781 7.48667 152.715 8.46C153.648 9.43333 154.115 10.6933 154.115 12.24C154.115 13.7733 153.655 15.02 152.735 15.98C151.828 16.9267 150.655 17.4 149.215 17.4C147.748 17.4 146.528 16.9067 145.555 15.92C144.595 14.92 144.115 13.66 144.115 12.14ZM149.875 15.5C150.368 15.1267 150.615 14.1133 150.615 12.46C150.615 10.1 150.075 8.92 148.995 8.92C148.661 8.92 148.401 8.99333 148.215 9.14C147.815 9.67333 147.615 10.6867 147.615 12.18C147.615 13.1933 147.755 14.02 148.035 14.66C148.315 15.2867 148.741 15.6 149.315 15.6C149.501 15.6 149.688 15.5667 149.875 15.5ZM147.135 5.06L150.215 1.3L152.375 3.2L151.355 4.06L149.375 5.94L148.875 6.42L147.135 5.06ZM165.741 15.32C166.328 15.52 166.808 15.7533 167.181 16.02L167.121 17H162.281V11.46C162.281 10.1133 161.855 9.44 161.001 9.44C160.615 9.44 160.181 9.56 159.701 9.8V15.38C160.181 15.5933 160.568 15.8067 160.861 16.02L160.821 17H154.801L154.761 16.3C155.175 16.06 155.668 15.84 156.241 15.64V9.02L154.761 8.74L154.661 7.78C155.848 7.32667 157.168 7.08 158.621 7.04L159.701 8.12V8.76C160.781 7.94667 161.788 7.39333 162.721 7.1C163.975 7.14 164.901 7.62 165.501 8.54C165.648 8.80667 165.728 9.41333 165.741 10.36V15.32Z" fill="#F0F294"/>
<defs>
<filter id="filter0_d" x="0" y="4" width="680" height="570" filterUnits="userSpaceOnUse" color-interpolation-filters="sRGB">
<feFlood flood-opacity="0" result="BackgroundImageFix"/>
<feColorMatrix in="SourceAlpha" type="matrix" values="0 0 0 0 0 0 0 0 0 0 0 0 0 0 0 0 0 0 127 0"/>
<feOffset dy="4"/>
<feGaussianBlur stdDeviation="5"/>
<feColorMatrix type="matrix" values="0 0 0 0 0.941176 0 0 0 0 0.94902 0 0 0 0 0.580392 0 0 0 0.25 0"/>
<feBlend mode="normal" in2="BackgroundImageFix" result="effect1_dropShadow"/>
<feBlend mode="normal" in="SourceGraphic" in2="effect1_dropShadow" result="shape"/>
</filter>
</defs>
</svg>
