<svg width="126" height="86" viewBox="0 0 126 86" fill="none" xmlns="http://www.w3.org/2000/svg">
<path d="M68.3544 3L69.6787 1.50122L68.4037 0.374658L67.0873 1.45263L68.3544 3ZM45 22.125L43.7329 20.5776L43 21.1778V22.125H45ZM90 22.125H92V21.2233L91.3243 20.6262L90 22.125ZM90 48V50H92V48H90ZM45 48H43V50H45V48ZM67.0873 1.45263L43.7329 20.5776L46.2671 23.6724L69.6216 4.54737L67.0873 1.45263ZM91.3243 20.6262L69.6787 1.50122L67.0302 4.49878L88.6757 23.6238L91.3243 20.6262ZM88 22.125V48H92V22.125H88ZM90 46H45V50H90V46ZM47 48V22.125H43V48H47Z" fill="#B23634"/>
<path d="M1.03711 73.9199C1.03711 71.4069 1.71094 69.4701 3.05859 68.1094C4.23047 66.9245 5.72135 66.332 7.53125 66.332C9.95312 66.332 11.724 67.1263 12.8438 68.7148C13.4622 69.6068 13.7943 70.502 13.8398 71.4004H10.832C10.6367 70.7103 10.3861 70.1895 10.0801 69.8379C9.5332 69.2129 8.72266 68.9004 7.64844 68.9004C6.55469 68.9004 5.69206 69.3431 5.06055 70.2285C4.42904 71.1074 4.11328 72.3542 4.11328 73.9688C4.11328 75.5833 4.44531 76.7943 5.10938 77.6016C5.77995 78.4023 6.62956 78.8027 7.6582 78.8027C8.71289 78.8027 9.51693 78.4577 10.0703 77.7676C10.3763 77.3965 10.6302 76.8398 10.832 76.0977H13.8105C13.5501 77.6667 12.8828 78.9427 11.8086 79.9258C10.7409 80.9089 9.37044 81.4004 7.69727 81.4004C5.62695 81.4004 3.99935 80.7363 2.81445 79.4082C1.62956 78.0736 1.03711 76.2441 1.03711 73.9199ZM21.7598 75.8242C21.584 75.9349 21.4049 76.026 21.2227 76.0977C21.0469 76.1628 20.8027 76.2246 20.4902 76.2832L19.8652 76.4004C19.2793 76.5046 18.8594 76.6315 18.6055 76.7812C18.1758 77.0352 17.9609 77.429 17.9609 77.9629C17.9609 78.4382 18.0911 78.7832 18.3516 78.998C18.6185 79.2064 18.9408 79.3105 19.3184 79.3105C19.9173 79.3105 20.4674 79.1348 20.9688 78.7832C21.4766 78.4316 21.7402 77.7904 21.7598 76.8594V75.8242ZM20.0703 74.5254C20.5846 74.4603 20.9525 74.3789 21.1738 74.2812C21.571 74.112 21.7695 73.8483 21.7695 73.4902C21.7695 73.054 21.6165 72.7546 21.3105 72.5918C21.0111 72.4225 20.5684 72.3379 19.9824 72.3379C19.3249 72.3379 18.8594 72.5007 18.5859 72.8262C18.3906 73.0671 18.2604 73.3926 18.1953 73.8027H15.5098C15.5684 72.8717 15.8288 72.1068 16.291 71.5078C17.0267 70.5703 18.2897 70.1016 20.0801 70.1016C21.2454 70.1016 22.2806 70.3327 23.1855 70.7949C24.0905 71.2572 24.543 72.1296 24.543 73.4121V78.2949C24.543 78.6335 24.5495 79.0436 24.5625 79.5254C24.582 79.89 24.6374 80.1374 24.7285 80.2676C24.8197 80.3978 24.9564 80.5052 25.1387 80.5898V81H22.1113C22.0267 80.7852 21.9681 80.5833 21.9355 80.3945C21.903 80.2057 21.877 79.9909 21.8574 79.75C21.4733 80.1667 21.0306 80.5215 20.5293 80.8145C19.9303 81.1595 19.2533 81.332 18.498 81.332C17.5345 81.332 16.737 81.0586 16.1055 80.5117C15.4805 79.9583 15.168 79.1771 15.168 78.168C15.168 76.8594 15.6725 75.9121 16.6816 75.3262C17.235 75.0072 18.0488 74.7793 19.123 74.6426L20.0703 74.5254ZM29.1914 77.6016C29.25 78.0964 29.377 78.4479 29.5723 78.6562C29.9173 79.0273 30.5553 79.2129 31.4863 79.2129C32.0332 79.2129 32.4661 79.1315 32.7852 78.9688C33.1107 78.806 33.2734 78.5618 33.2734 78.2363C33.2734 77.9238 33.1432 77.6862 32.8828 77.5234C32.6224 77.3607 31.6556 77.0807 29.9824 76.6836C28.778 76.3841 27.9284 76.0098 27.4336 75.5605C26.9388 75.1178 26.6914 74.4798 26.6914 73.6465C26.6914 72.6634 27.0755 71.8203 27.8438 71.1172C28.6185 70.4076 29.7057 70.0527 31.1055 70.0527C32.4336 70.0527 33.5143 70.3197 34.3477 70.8535C35.1875 71.3809 35.6693 72.2956 35.793 73.5977H33.0098C32.9707 73.2396 32.8698 72.9564 32.707 72.748C32.401 72.3704 31.8802 72.1816 31.1445 72.1816C30.5391 72.1816 30.1061 72.276 29.8457 72.4648C29.5918 72.6536 29.4648 72.875 29.4648 73.1289C29.4648 73.4479 29.6016 73.679 29.875 73.8223C30.1484 73.972 31.1152 74.2292 32.7754 74.5938C33.8822 74.8542 34.7122 75.248 35.2656 75.7754C35.8125 76.3092 36.0859 76.9766 36.0859 77.7773C36.0859 78.832 35.6921 79.6947 34.9043 80.3652C34.123 81.0293 32.9121 81.3613 31.2715 81.3613C29.5983 81.3613 28.3613 81.0098 27.5605 80.3066C26.7663 79.597 26.3691 78.6953 26.3691 77.6016H29.1914ZM44.0254 75.8242C43.8496 75.9349 43.6706 76.026 43.4883 76.0977C43.3125 76.1628 43.0684 76.2246 42.7559 76.2832L42.1309 76.4004C41.5449 76.5046 41.125 76.6315 40.8711 76.7812C40.4414 77.0352 40.2266 77.429 40.2266 77.9629C40.2266 78.4382 40.3568 78.7832 40.6172 78.998C40.8841 79.2064 41.2064 79.3105 41.584 79.3105C42.1829 79.3105 42.7331 79.1348 43.2344 78.7832C43.7422 78.4316 44.0059 77.7904 44.0254 76.8594V75.8242ZM42.3359 74.5254C42.8503 74.4603 43.2181 74.3789 43.4395 74.2812C43.8366 74.112 44.0352 73.8483 44.0352 73.4902C44.0352 73.054 43.8822 72.7546 43.5762 72.5918C43.2767 72.4225 42.834 72.3379 42.248 72.3379C41.5905 72.3379 41.125 72.5007 40.8516 72.8262C40.6562 73.0671 40.526 73.3926 40.4609 73.8027H37.7754C37.834 72.8717 38.0944 72.1068 38.5566 71.5078C39.2923 70.5703 40.5553 70.1016 42.3457 70.1016C43.5111 70.1016 44.5462 70.3327 45.4512 70.7949C46.3561 71.2572 46.8086 72.1296 46.8086 73.4121V78.2949C46.8086 78.6335 46.8151 79.0436 46.8281 79.5254C46.8477 79.89 46.903 80.1374 46.9941 80.2676C47.0853 80.3978 47.222 80.5052 47.4043 80.5898V81H44.377C44.2923 80.7852 44.2337 80.5833 44.2012 80.3945C44.1686 80.2057 44.1426 79.9909 44.123 79.75C43.7389 80.1667 43.2962 80.5215 42.7949 80.8145C42.196 81.1595 41.5189 81.332 40.7637 81.332C39.8001 81.332 39.0026 81.0586 38.3711 80.5117C37.7461 79.9583 37.4336 79.1771 37.4336 78.168C37.4336 76.8594 37.9382 75.9121 38.9473 75.3262C39.5007 75.0072 40.3145 74.7793 41.3887 74.6426L42.3359 74.5254ZM58.7812 70.1016C59.4258 70.1016 59.9987 70.2448 60.5 70.5312C61.0013 70.8112 61.4082 71.2018 61.7207 71.7031V66.625H64.543V81H61.8379V79.5254C61.4408 80.1569 60.9883 80.6159 60.4805 80.9023C59.9727 81.1888 59.3411 81.332 58.5859 81.332C57.3424 81.332 56.2943 80.8307 55.4414 79.8281C54.5951 78.819 54.1719 77.5267 54.1719 75.9512C54.1719 74.1348 54.5885 72.7057 55.4219 71.6641C56.2617 70.6224 57.3815 70.1016 58.7812 70.1016ZM59.3867 78.9883C60.1745 78.9883 60.7734 78.6953 61.1836 78.1094C61.5938 77.5234 61.7988 76.765 61.7988 75.834C61.7988 74.5319 61.4701 73.6009 60.8125 73.041C60.4089 72.7025 59.9401 72.5332 59.4062 72.5332C58.5924 72.5332 57.9935 72.8424 57.6094 73.4609C57.2318 74.0729 57.043 74.8346 57.043 75.7461C57.043 76.7292 57.235 77.5169 57.6191 78.1094C58.0098 78.6953 58.599 78.9883 59.3867 78.9883ZM71.2812 72.3672C70.6367 72.3672 70.1354 72.569 69.7773 72.9727C69.4258 73.3763 69.2044 73.9232 69.1133 74.6133H73.4395C73.3939 73.8776 73.1693 73.321 72.7656 72.9434C72.3685 72.5592 71.8737 72.3672 71.2812 72.3672ZM71.2812 70.0723C72.1667 70.0723 72.9642 70.2383 73.6738 70.5703C74.3835 70.9023 74.9694 71.4264 75.4316 72.1426C75.8483 72.7741 76.1185 73.5065 76.2422 74.3398C76.3138 74.8281 76.3431 75.5312 76.3301 76.4492H69.0449C69.084 77.5169 69.4193 78.2656 70.0508 78.6953C70.4349 78.9622 70.8971 79.0957 71.4375 79.0957C72.0104 79.0957 72.4759 78.9329 72.834 78.6074C73.0293 78.4316 73.2018 78.1875 73.3516 77.875H76.1934C76.1217 78.5065 75.793 79.1478 75.207 79.7988C74.2956 80.834 73.0195 81.3516 71.3789 81.3516C70.0247 81.3516 68.8301 80.9154 67.7949 80.043C66.7598 79.1706 66.2422 77.7513 66.2422 75.7852C66.2422 73.9427 66.7077 72.5299 67.6387 71.5469C68.5762 70.5638 69.7904 70.0723 71.2812 70.0723ZM83.957 66.6055H87.1113L92.8438 76.6543V66.6055H95.6465V81H92.6387L86.7598 70.7754V81H83.957V66.6055ZM101.096 69.0859H98.2734V66.5176H101.096V69.0859ZM98.2734 70.3555H101.096V81H98.2734V70.3555ZM110.158 74.1738C110.106 73.7767 109.973 73.4186 109.758 73.0996C109.445 72.6699 108.96 72.4551 108.303 72.4551C107.365 72.4551 106.724 72.9206 106.379 73.8516C106.197 74.3464 106.105 75.0039 106.105 75.8242C106.105 76.6055 106.197 77.2337 106.379 77.709C106.711 78.5944 107.336 79.0371 108.254 79.0371C108.905 79.0371 109.367 78.8613 109.641 78.5098C109.914 78.1582 110.08 77.7025 110.139 77.1426H112.98C112.915 77.9889 112.609 78.7897 112.062 79.5449C111.19 80.7624 109.898 81.3711 108.186 81.3711C106.473 81.3711 105.214 80.8633 104.406 79.8477C103.599 78.832 103.195 77.5137 103.195 75.8926C103.195 74.0632 103.641 72.6406 104.533 71.625C105.425 70.6094 106.656 70.1016 108.225 70.1016C109.559 70.1016 110.65 70.401 111.496 71C112.349 71.599 112.854 72.6569 113.01 74.1738H110.158ZM119.709 79.0371C120.523 79.0371 121.148 78.7474 121.584 78.168C122.02 77.5885 122.238 76.765 122.238 75.6973C122.238 74.6296 122.02 73.8092 121.584 73.2363C121.148 72.6569 120.523 72.3672 119.709 72.3672C118.895 72.3672 118.267 72.6569 117.824 73.2363C117.388 73.8092 117.17 74.6296 117.17 75.6973C117.17 76.765 117.388 77.5885 117.824 78.168C118.267 78.7474 118.895 79.0371 119.709 79.0371ZM125.158 75.6973C125.158 77.2598 124.709 78.5977 123.811 79.7109C122.912 80.8177 121.548 81.3711 119.719 81.3711C117.889 81.3711 116.525 80.8177 115.627 79.7109C114.729 78.5977 114.279 77.2598 114.279 75.6973C114.279 74.1608 114.729 72.8294 115.627 71.7031C116.525 70.5768 117.889 70.0137 119.719 70.0137C121.548 70.0137 122.912 70.5768 123.811 71.7031C124.709 72.8294 125.158 74.1608 125.158 75.6973Z" fill="#B23634"/>
</svg>
