<svg width="128" height="86" viewBox="0 0 128 86" fill="none" xmlns="http://www.w3.org/2000/svg">
<path d="M65.3544 3L66.6787 1.50122L65.4037 0.374658L64.0873 1.45263L65.3544 3ZM42 22.125L40.7329 20.5776L40 21.1778V22.125H42ZM87 22.125H89V21.2233L88.3243 20.6262L87 22.125ZM87 48V50H89V48H87ZM42 48H40V50H42V48ZM64.0873 1.45263L40.7329 20.5776L43.2671 23.6724L66.6216 4.54737L64.0873 1.45263ZM88.3243 20.6262L66.6787 1.50122L64.0302 4.49878L85.6757 23.6238L88.3243 20.6262ZM85 22.125V48H89V22.125H85ZM87 46H42V50H87V46ZM44 48V22.125H40V48H44Z" fill="#B23634"/>
<path d="M11.3648 72.52H14.4048C14.3115 71.6933 14.0848 70.96 13.7248 70.32C13.3648 69.68 12.9048 69.1467 12.3448 68.72C11.7982 68.28 11.1715 67.9467 10.4648 67.72C9.77151 67.4933 9.03151 67.38 8.24484 67.38C7.15151 67.38 6.16484 67.5733 5.28484 67.96C4.41818 68.3467 3.68484 68.88 3.08484 69.56C2.48484 70.24 2.02484 71.04 1.70484 71.96C1.38484 72.8667 1.22484 73.8533 1.22484 74.92C1.22484 75.96 1.38484 76.9333 1.70484 77.84C2.02484 78.7333 2.48484 79.5133 3.08484 80.18C3.68484 80.8467 4.41818 81.3733 5.28484 81.76C6.16484 82.1333 7.15151 82.32 8.24484 82.32C9.12484 82.32 9.93151 82.1867 10.6648 81.92C11.3982 81.6533 12.0382 81.2667 12.5848 80.76C13.1315 80.2533 13.5715 79.64 13.9048 78.92C14.2382 78.2 14.4448 77.3933 14.5248 76.5H11.4848C11.3648 77.46 11.0315 78.2333 10.4848 78.82C9.95151 79.4067 9.20484 79.7 8.24484 79.7C7.53818 79.7 6.93818 79.5667 6.44484 79.3C5.95151 79.02 5.55151 78.6533 5.24484 78.2C4.93818 77.7467 4.71151 77.24 4.56484 76.68C4.43151 76.1067 4.36484 75.52 4.36484 74.92C4.36484 74.2933 4.43151 73.6867 4.56484 73.1C4.71151 72.5133 4.93818 71.9933 5.24484 71.54C5.55151 71.0733 5.95151 70.7067 6.44484 70.44C6.93818 70.16 7.53818 70.02 8.24484 70.02C8.63151 70.02 8.99818 70.0867 9.34484 70.22C9.70484 70.34 10.0248 70.5133 10.3048 70.74C10.5848 70.9667 10.8182 71.2333 11.0048 71.54C11.1915 71.8333 11.3115 72.16 11.3648 72.52ZM16.2491 74.84C16.2891 74.1733 16.4557 73.62 16.7491 73.18C17.0424 72.74 17.4157 72.3867 17.8691 72.12C18.3224 71.8533 18.8291 71.6667 19.3891 71.56C19.9624 71.44 20.5357 71.38 21.1091 71.38C21.6291 71.38 22.1557 71.42 22.6891 71.5C23.2224 71.5667 23.7091 71.7067 24.1491 71.92C24.5891 72.1333 24.9491 72.4333 25.2291 72.82C25.5091 73.1933 25.6491 73.6933 25.6491 74.32V79.7C25.6491 80.1667 25.6757 80.6133 25.7291 81.04C25.7824 81.4667 25.8757 81.7867 26.0091 82H23.1291C23.0757 81.84 23.0291 81.68 22.9891 81.52C22.9624 81.3467 22.9424 81.1733 22.9291 81C22.4757 81.4667 21.9424 81.7933 21.3291 81.98C20.7157 82.1667 20.0891 82.26 19.4491 82.26C18.9557 82.26 18.4957 82.2 18.0691 82.08C17.6424 81.96 17.2691 81.7733 16.9491 81.52C16.6291 81.2667 16.3757 80.9467 16.1891 80.56C16.0157 80.1733 15.9291 79.7133 15.9291 79.18C15.9291 78.5933 16.0291 78.1133 16.2291 77.74C16.4424 77.3533 16.7091 77.0467 17.0291 76.82C17.3624 76.5933 17.7357 76.4267 18.1491 76.32C18.5757 76.2 19.0024 76.1067 19.4291 76.04C19.8557 75.9733 20.2757 75.92 20.6891 75.88C21.1024 75.84 21.4691 75.78 21.7891 75.7C22.1091 75.62 22.3624 75.5067 22.5491 75.36C22.7357 75.2 22.8224 74.9733 22.8091 74.68C22.8091 74.3733 22.7557 74.1333 22.6491 73.96C22.5557 73.7733 22.4224 73.6333 22.2491 73.54C22.0891 73.4333 21.8957 73.3667 21.6691 73.34C21.4557 73.3 21.2224 73.28 20.9691 73.28C20.4091 73.28 19.9691 73.4 19.6491 73.64C19.3291 73.88 19.1424 74.28 19.0891 74.84H16.2491ZM22.8091 76.94C22.6891 77.0467 22.5357 77.1333 22.3491 77.2C22.1757 77.2533 21.9824 77.3 21.7691 77.34C21.5691 77.38 21.3557 77.4133 21.1291 77.44C20.9024 77.4667 20.6757 77.5 20.4491 77.54C20.2357 77.58 20.0224 77.6333 19.8091 77.7C19.6091 77.7667 19.4291 77.86 19.2691 77.98C19.1224 78.0867 19.0024 78.2267 18.9091 78.4C18.8157 78.5733 18.7691 78.7933 18.7691 79.06C18.7691 79.3133 18.8157 79.5267 18.9091 79.7C19.0024 79.8733 19.1291 80.0133 19.2891 80.12C19.4491 80.2133 19.6357 80.28 19.8491 80.32C20.0624 80.36 20.2824 80.38 20.5091 80.38C21.0691 80.38 21.5024 80.2867 21.8091 80.1C22.1157 79.9133 22.3424 79.6933 22.4891 79.44C22.6357 79.1733 22.7224 78.9067 22.7491 78.64C22.7891 78.3733 22.8091 78.16 22.8091 78V76.94ZM30.0534 78.64H27.3534C27.3801 79.3333 27.5334 79.9133 27.8134 80.38C28.1068 80.8333 28.4734 81.2 28.9134 81.48C29.3668 81.76 29.8801 81.96 30.4534 82.08C31.0268 82.2 31.6134 82.26 32.2134 82.26C32.8001 82.26 33.3734 82.2 33.9334 82.08C34.5068 81.9733 35.0134 81.78 35.4534 81.5C35.8934 81.22 36.2468 80.8533 36.5134 80.4C36.7934 79.9333 36.9334 79.36 36.9334 78.68C36.9334 78.2 36.8401 77.8 36.6534 77.48C36.4668 77.1467 36.2201 76.8733 35.9134 76.66C35.6068 76.4333 35.2534 76.2533 34.8534 76.12C34.4668 75.9867 34.0668 75.8733 33.6534 75.78C33.2534 75.6867 32.8601 75.6 32.4734 75.52C32.0868 75.44 31.7401 75.3533 31.4334 75.26C31.1401 75.1533 30.9001 75.02 30.7134 74.86C30.5268 74.7 30.4334 74.4933 30.4334 74.24C30.4334 74.0267 30.4868 73.86 30.5934 73.74C30.7001 73.6067 30.8268 73.5067 30.9734 73.44C31.1334 73.3733 31.3068 73.3333 31.4934 73.32C31.6801 73.2933 31.8534 73.28 32.0134 73.28C32.5201 73.28 32.9601 73.38 33.3334 73.58C33.7068 73.7667 33.9134 74.1333 33.9534 74.68H36.6534C36.6001 74.04 36.4334 73.5133 36.1534 73.1C35.8868 72.6733 35.5468 72.3333 35.1334 72.08C34.7201 71.8267 34.2468 71.6467 33.7134 71.54C33.1934 71.4333 32.6534 71.38 32.0934 71.38C31.5334 71.38 30.9868 71.4333 30.4534 71.54C29.9201 71.6333 29.4401 71.8067 29.0134 72.06C28.5868 72.3 28.2401 72.6333 27.9734 73.06C27.7201 73.4867 27.5934 74.0333 27.5934 74.7C27.5934 75.1533 27.6868 75.54 27.8734 75.86C28.0601 76.1667 28.3068 76.4267 28.6134 76.64C28.9201 76.84 29.2668 77.0067 29.6534 77.14C30.0534 77.26 30.4601 77.3667 30.8734 77.46C31.8868 77.6733 32.6734 77.8867 33.2334 78.1C33.8068 78.3133 34.0934 78.6333 34.0934 79.06C34.0934 79.3133 34.0334 79.5267 33.9134 79.7C33.7934 79.86 33.6401 79.9933 33.4534 80.1C33.2801 80.1933 33.0801 80.2667 32.8534 80.32C32.6401 80.36 32.4334 80.38 32.2334 80.38C31.9534 80.38 31.6801 80.3467 31.4134 80.28C31.1601 80.2133 30.9334 80.1133 30.7334 79.98C30.5334 79.8333 30.3668 79.6533 30.2334 79.44C30.1134 79.2133 30.0534 78.9467 30.0534 78.64ZM38.4756 74.84C38.5156 74.1733 38.6823 73.62 38.9756 73.18C39.269 72.74 39.6423 72.3867 40.0956 72.12C40.549 71.8533 41.0556 71.6667 41.6156 71.56C42.189 71.44 42.7623 71.38 43.3356 71.38C43.8556 71.38 44.3823 71.42 44.9156 71.5C45.449 71.5667 45.9356 71.7067 46.3756 71.92C46.8156 72.1333 47.1756 72.4333 47.4556 72.82C47.7356 73.1933 47.8756 73.6933 47.8756 74.32V79.7C47.8756 80.1667 47.9023 80.6133 47.9556 81.04C48.009 81.4667 48.1023 81.7867 48.2356 82H45.3556C45.3023 81.84 45.2556 81.68 45.2156 81.52C45.189 81.3467 45.169 81.1733 45.1556 81C44.7023 81.4667 44.169 81.7933 43.5556 81.98C42.9423 82.1667 42.3156 82.26 41.6756 82.26C41.1823 82.26 40.7223 82.2 40.2956 82.08C39.869 81.96 39.4956 81.7733 39.1756 81.52C38.8556 81.2667 38.6023 80.9467 38.4156 80.56C38.2423 80.1733 38.1556 79.7133 38.1556 79.18C38.1556 78.5933 38.2556 78.1133 38.4556 77.74C38.669 77.3533 38.9356 77.0467 39.2556 76.82C39.589 76.5933 39.9623 76.4267 40.3756 76.32C40.8023 76.2 41.229 76.1067 41.6556 76.04C42.0823 75.9733 42.5023 75.92 42.9156 75.88C43.329 75.84 43.6956 75.78 44.0156 75.7C44.3356 75.62 44.589 75.5067 44.7756 75.36C44.9623 75.2 45.049 74.9733 45.0356 74.68C45.0356 74.3733 44.9823 74.1333 44.8756 73.96C44.7823 73.7733 44.649 73.6333 44.4756 73.54C44.3156 73.4333 44.1223 73.3667 43.8956 73.34C43.6823 73.3 43.449 73.28 43.1956 73.28C42.6356 73.28 42.1956 73.4 41.8756 73.64C41.5556 73.88 41.369 74.28 41.3156 74.84H38.4756ZM45.0356 76.94C44.9156 77.0467 44.7623 77.1333 44.5756 77.2C44.4023 77.2533 44.209 77.3 43.9956 77.34C43.7956 77.38 43.5823 77.4133 43.3556 77.44C43.129 77.4667 42.9023 77.5 42.6756 77.54C42.4623 77.58 42.249 77.6333 42.0356 77.7C41.8356 77.7667 41.6556 77.86 41.4956 77.98C41.349 78.0867 41.229 78.2267 41.1356 78.4C41.0423 78.5733 40.9956 78.7933 40.9956 79.06C40.9956 79.3133 41.0423 79.5267 41.1356 79.7C41.229 79.8733 41.3556 80.0133 41.5156 80.12C41.6756 80.2133 41.8623 80.28 42.0756 80.32C42.289 80.36 42.509 80.38 42.7356 80.38C43.2956 80.38 43.729 80.2867 44.0356 80.1C44.3423 79.9133 44.569 79.6933 44.7156 79.44C44.8623 79.1733 44.949 78.9067 44.9756 78.64C45.0156 78.3733 45.0356 78.16 45.0356 78V76.94ZM62.9864 76.8C62.9864 77.2267 62.9464 77.64 62.8664 78.04C62.7864 78.44 62.6531 78.8 62.4664 79.12C62.2797 79.4267 62.0264 79.6733 61.7064 79.86C61.3997 80.0467 61.0131 80.14 60.5464 80.14C60.1064 80.14 59.7264 80.0467 59.4064 79.86C59.0997 79.66 58.8397 79.4067 58.6264 79.1C58.4264 78.78 58.2797 78.42 58.1864 78.02C58.0931 77.62 58.0464 77.22 58.0464 76.82C58.0464 76.3933 58.0864 75.9867 58.1664 75.6C58.2597 75.2 58.3997 74.8467 58.5864 74.54C58.7864 74.2333 59.0464 73.9867 59.3664 73.8C59.6864 73.6133 60.0797 73.52 60.5464 73.52C61.0131 73.52 61.3997 73.6133 61.7064 73.8C62.0131 73.9867 62.2597 74.2333 62.4464 74.54C62.6464 74.8333 62.7864 75.18 62.8664 75.58C62.9464 75.9667 62.9864 76.3733 62.9864 76.8ZM63.0264 80.68V82H65.7264V67.72H62.8864V72.92H62.8464C62.5264 72.4133 62.0864 72.0333 61.5264 71.78C60.9797 71.5133 60.3997 71.38 59.7864 71.38C59.0264 71.38 58.3597 71.5333 57.7864 71.84C57.2131 72.1333 56.7331 72.5267 56.3464 73.02C55.9731 73.5133 55.6864 74.0867 55.4864 74.74C55.2997 75.38 55.2064 76.0467 55.2064 76.74C55.2064 77.46 55.2997 78.1533 55.4864 78.82C55.6864 79.4867 55.9731 80.08 56.3464 80.6C56.7331 81.1067 57.2197 81.5133 57.8064 81.82C58.3931 82.1133 59.0731 82.26 59.8464 82.26C60.5264 82.26 61.1331 82.14 61.6664 81.9C62.2131 81.6467 62.6531 81.24 62.9864 80.68H63.0264ZM74.833 75.72H70.213C70.2263 75.52 70.2663 75.2933 70.333 75.04C70.413 74.7867 70.5396 74.5467 70.713 74.32C70.8996 74.0933 71.1396 73.9067 71.433 73.76C71.7396 73.6 72.1196 73.52 72.573 73.52C73.2663 73.52 73.7796 73.7067 74.113 74.08C74.4596 74.4533 74.6996 75 74.833 75.72ZM70.213 77.52H77.673C77.7263 76.72 77.6596 75.9533 77.473 75.22C77.2863 74.4867 76.9796 73.8333 76.553 73.26C76.1396 72.6867 75.6063 72.2333 74.953 71.9C74.2996 71.5533 73.533 71.38 72.653 71.38C71.8663 71.38 71.1463 71.52 70.493 71.8C69.853 72.08 69.2996 72.4667 68.833 72.96C68.3663 73.44 68.0063 74.0133 67.753 74.68C67.4996 75.3467 67.373 76.0667 67.373 76.84C67.373 77.64 67.493 78.3733 67.733 79.04C67.9863 79.7067 68.3396 80.28 68.793 80.76C69.2463 81.24 69.7996 81.6133 70.453 81.88C71.1063 82.1333 71.8396 82.26 72.653 82.26C73.8263 82.26 74.8263 81.9933 75.653 81.46C76.4796 80.9267 77.093 80.04 77.493 78.8H74.993C74.8996 79.12 74.6463 79.4267 74.233 79.72C73.8196 80 73.3263 80.14 72.753 80.14C71.953 80.14 71.3396 79.9333 70.913 79.52C70.4863 79.1067 70.253 78.44 70.213 77.52ZM85.2238 67.72V82H88.1638V72.44H88.2038L94.1438 82H97.2838V67.72H94.3438V77.3H94.3038L88.3438 67.72H85.2238ZM102.668 70.06V67.72H99.828V70.06H102.668ZM99.828 71.66V82H102.668V71.66H99.828ZM111.944 75.3H114.724C114.684 74.6333 114.524 74.06 114.244 73.58C113.964 73.0867 113.598 72.68 113.144 72.36C112.704 72.0267 112.198 71.78 111.624 71.62C111.064 71.46 110.478 71.38 109.864 71.38C109.024 71.38 108.278 71.52 107.624 71.8C106.971 72.08 106.418 72.4733 105.964 72.98C105.511 73.4733 105.164 74.0667 104.924 74.76C104.698 75.44 104.584 76.18 104.584 76.98C104.584 77.7533 104.711 78.4667 104.964 79.12C105.218 79.76 105.571 80.3133 106.024 80.78C106.478 81.2467 107.024 81.6133 107.664 81.88C108.318 82.1333 109.031 82.26 109.804 82.26C111.178 82.26 112.304 81.9 113.184 81.18C114.064 80.46 114.598 79.4133 114.784 78.04H112.044C111.951 78.68 111.718 79.1933 111.344 79.58C110.984 79.9533 110.464 80.14 109.784 80.14C109.344 80.14 108.971 80.04 108.664 79.84C108.358 79.64 108.111 79.3867 107.924 79.08C107.751 78.76 107.624 78.4067 107.544 78.02C107.464 77.6333 107.424 77.2533 107.424 76.88C107.424 76.4933 107.464 76.1067 107.544 75.72C107.624 75.32 107.758 74.96 107.944 74.64C108.144 74.3067 108.398 74.04 108.704 73.84C109.011 73.6267 109.391 73.52 109.844 73.52C111.058 73.52 111.758 74.1133 111.944 75.3ZM118.909 76.84C118.909 76.4267 118.949 76.02 119.029 75.62C119.109 75.22 119.242 74.8667 119.429 74.56C119.629 74.2533 119.889 74.0067 120.209 73.82C120.529 73.62 120.929 73.52 121.409 73.52C121.889 73.52 122.289 73.62 122.609 73.82C122.942 74.0067 123.202 74.2533 123.389 74.56C123.589 74.8667 123.729 75.22 123.809 75.62C123.889 76.02 123.929 76.4267 123.929 76.84C123.929 77.2533 123.889 77.66 123.809 78.06C123.729 78.4467 123.589 78.8 123.389 79.12C123.202 79.4267 122.942 79.6733 122.609 79.86C122.289 80.0467 121.889 80.14 121.409 80.14C120.929 80.14 120.529 80.0467 120.209 79.86C119.889 79.6733 119.629 79.4267 119.429 79.12C119.242 78.8 119.109 78.4467 119.029 78.06C118.949 77.66 118.909 77.2533 118.909 76.84ZM116.069 76.84C116.069 77.6667 116.195 78.4133 116.449 79.08C116.702 79.7467 117.062 80.32 117.529 80.8C117.995 81.2667 118.555 81.6267 119.209 81.88C119.862 82.1333 120.595 82.26 121.409 82.26C122.222 82.26 122.955 82.1333 123.609 81.88C124.275 81.6267 124.842 81.2667 125.309 80.8C125.775 80.32 126.135 79.7467 126.389 79.08C126.642 78.4133 126.769 77.6667 126.769 76.84C126.769 76.0133 126.642 75.2667 126.389 74.6C126.135 73.92 125.775 73.3467 125.309 72.88C124.842 72.4 124.275 72.0333 123.609 71.78C122.955 71.5133 122.222 71.38 121.409 71.38C120.595 71.38 119.862 71.5133 119.209 71.78C118.555 72.0333 117.995 72.4 117.529 72.88C117.062 73.3467 116.702 73.92 116.449 74.6C116.195 75.2667 116.069 76.0133 116.069 76.84Z" fill="#B23634"/>
</svg>
