<svg width="137" height="100" viewBox="0 0 137 100" fill="none" xmlns="http://www.w3.org/2000/svg">
<g filter="url(#filter0_d)">
<path d="M73.3544 9L74.6787 7.50122L73.4037 6.37466L72.0873 7.45263L73.3544 9ZM50 28.125L48.7329 26.5776L48 27.1778V28.125H50ZM95 28.125H97V27.2233L96.3243 26.6262L95 28.125ZM95 54V56H97V54H95ZM50 54H48V56H50V54ZM72.0873 7.45263L48.7329 26.5776L51.2671 29.6724L74.6216 10.5474L72.0873 7.45263ZM96.3243 26.6262L74.6787 7.50122L72.0302 10.4988L93.6757 29.6238L96.3243 26.6262ZM93 28.125V54H97V28.125H93ZM95 52H50V56H95V52ZM52 54V28.125H48V54H52Z" fill="#1E2021"/>
<path d="M21.9304 83.56L17.7304 85.34C15.9837 85.4067 14.5571 85.1133 13.4504 84.46C12.3437 83.8067 11.5437 82.9533 11.0504 81.9C10.5704 80.8467 10.3304 79.7333 10.3304 78.56C10.3304 77.3067 10.5904 76.1333 11.1104 75.04C11.6437 73.9467 12.4371 73.06 13.4904 72.38C14.5437 71.7 15.8237 71.36 17.3304 71.36C18.9437 71.36 20.3504 71.7933 21.5504 72.66L21.5704 73.04C21.5704 74.12 21.4037 75.2733 21.0704 76.5H18.9104L18.3104 73.82C17.4704 73.5 16.6037 73.32 15.7104 73.28C15.1237 73.8 14.6837 74.4867 14.3904 75.34C14.1104 76.1933 13.9704 77.0933 13.9704 78.04C13.9704 79.5067 14.3104 80.7067 14.9904 81.64C15.6837 82.5733 16.6771 83.0267 17.9704 83L21.3704 81.92L21.9304 83.56ZM32.579 83.86L29.939 85.34C29.5657 85.3267 29.1923 85.1867 28.819 84.92C28.4457 84.6533 28.139 84.3067 27.899 83.88L25.779 85.26L25.099 85.32C24.2323 85.32 23.5057 85.0667 22.919 84.56C22.3457 84.0533 22.059 83.44 22.059 82.72C22.059 81.72 22.599 80.9333 23.679 80.36L27.479 80.28V78.64C27.479 77.6133 27.1723 76.94 26.559 76.62C26.1323 76.6467 25.759 76.7267 25.439 76.86L24.959 79.06L22.999 79.1C22.7457 78.38 22.619 77.62 22.619 76.82L22.659 76.08C23.459 75.7733 24.3857 75.5133 25.439 75.3C26.4923 75.0733 27.3057 74.96 27.879 74.96C29.0657 74.96 30.0057 75.4467 30.699 76.42C30.8457 76.6733 30.9257 77.18 30.939 77.94V82.52C30.939 82.8667 31.1057 83.04 31.439 83.04L31.979 83.02L32.459 82.98L32.579 83.86ZM25.479 82.5C25.479 82.8467 25.5923 83.1333 25.819 83.36C26.219 83.3333 26.7723 83.2067 27.479 82.98V81.5C26.1457 81.4733 25.479 81.8067 25.479 82.5ZM36.5085 77.38C36.5085 77.62 36.5952 77.84 36.7685 78.04C36.9418 78.2267 37.5618 78.6 38.6285 79.16C39.6952 79.7067 40.4152 80.22 40.7885 80.7C41.1618 81.1667 41.3485 81.7 41.3485 82.3C41.3485 83.2067 40.9752 83.9533 40.2285 84.54C39.4818 85.1133 38.4885 85.4 37.2485 85.4C35.8485 85.4 34.4552 85.04 33.0685 84.32L34.2085 81.7C35.3685 82.5933 36.5685 83.26 37.8085 83.7C38.0485 83.4867 38.1685 83.24 38.1685 82.96C38.1685 82.7067 38.0685 82.48 37.8685 82.28C37.6818 82.08 37.0685 81.72 36.0285 81.2C35.0018 80.6667 34.3018 80.1733 33.9285 79.72C33.5685 79.2533 33.3885 78.7267 33.3885 78.14C33.3885 77.2067 33.7952 76.4533 34.6085 75.88C35.4352 75.2933 36.5018 75 37.8085 75C39.0218 75 40.0552 75.22 40.9085 75.66L40.9485 76.36C40.9485 77.0533 40.8352 77.7533 40.6085 78.46H38.8485L38.2285 76.64L37.3085 76.54C36.7752 76.7 36.5085 76.98 36.5085 77.38ZM52.8134 83.86L50.1734 85.34C49.8 85.3267 49.4267 85.1867 49.0534 84.92C48.68 84.6533 48.3734 84.3067 48.1334 83.88L46.0134 85.26L45.3334 85.32C44.4667 85.32 43.74 85.0667 43.1534 84.56C42.58 84.0533 42.2934 83.44 42.2934 82.72C42.2934 81.72 42.8334 80.9333 43.9134 80.36L47.7134 80.28V78.64C47.7134 77.6133 47.4067 76.94 46.7934 76.62C46.3667 76.6467 45.9934 76.7267 45.6734 76.86L45.1934 79.06L43.2334 79.1C42.98 78.38 42.8534 77.62 42.8534 76.82L42.8934 76.08C43.6934 75.7733 44.62 75.5133 45.6734 75.3C46.7267 75.0733 47.54 74.96 48.1134 74.96C49.3 74.96 50.24 75.4467 50.9334 76.42C51.08 76.6733 51.16 77.18 51.1734 77.94V82.52C51.1734 82.8667 51.34 83.04 51.6734 83.04L52.2134 83.02L52.6934 82.98L52.8134 83.86ZM45.7134 82.5C45.7134 82.8467 45.8267 83.1333 46.0534 83.36C46.4534 83.3333 47.0067 83.2067 47.7134 82.98V81.5C46.38 81.4733 45.7134 81.8067 45.7134 82.5ZM70.0159 83.86L67.3559 85.34C66.9559 85.3267 66.5559 85.1667 66.1559 84.86C65.7559 84.5533 65.4425 84.1467 65.2159 83.64L62.9359 85.34C61.6425 85.3533 60.5759 84.8867 59.7359 83.94C58.8959 82.98 58.4759 81.7733 58.4759 80.32C58.4759 78.8 58.9692 77.5467 59.9559 76.56C60.9425 75.56 62.2225 75.06 63.7959 75.06L64.9159 75.16V72.26L63.4359 72L63.3359 71C64.4559 70.6 65.7759 70.3533 67.2959 70.26L68.3759 71.26V82.5C68.3759 82.86 68.5425 83.04 68.8759 83.04L69.3959 83.02L69.8959 82.98L70.0159 83.86ZM62.0759 79.96C62.0759 80.7733 62.2492 81.4533 62.5959 82C62.9559 82.5333 63.4425 82.8 64.0559 82.8C64.3492 82.8 64.6359 82.7467 64.9159 82.64V77.22C64.3825 76.98 63.8092 76.8667 63.1959 76.88C62.4492 77.6 62.0759 78.6267 62.0759 79.96ZM78.3188 80.42L73.2788 80.38C73.3722 81.2467 73.6788 81.9133 74.1988 82.38C74.7322 82.8467 75.3988 83.08 76.1988 83.08C76.9055 83.08 77.7522 82.8267 78.7388 82.32L79.2388 83.46L76.0988 85.24L75.1788 85.3C73.6988 85.3 72.4655 84.8333 71.4788 83.9C70.5055 82.9667 70.0188 81.7733 70.0188 80.32C70.0188 78.84 70.5122 77.5867 71.4988 76.56C72.4988 75.52 73.7055 75 75.1188 75C76.4122 75 77.4655 75.3933 78.2788 76.18C79.0922 76.9533 79.4922 77.98 79.4788 79.26L78.3188 80.42ZM74.5788 76.66C73.9388 77.06 73.5322 77.7933 73.3588 78.86L76.3588 78.68C76.2788 78.1333 76.0722 77.6667 75.7388 77.28C75.4188 76.88 75.0322 76.6733 74.5788 76.66ZM100.372 72.4C99.8918 72.7333 99.3585 73.0267 98.7718 73.28L98.6718 85L95.4718 85.26L89.4918 76.28L89.7718 78.7V83.66L91.5318 83.94L91.5118 85H85.6918L85.5718 84.36C86.0785 84.0133 86.6451 83.7 87.2718 83.42V73.08L85.8118 72.82L85.8318 71.76H90.7318L90.7118 71.78L96.5718 80.78L96.2918 78.28V73.14L94.3118 72.82L94.3318 71.76H100.252L100.372 72.4ZM103.79 73.98C102.87 73.5667 102.077 72.96 101.41 72.16C101.944 71.1333 102.604 70.3333 103.39 69.76C104.284 70.2267 105.037 70.9067 105.65 71.8C105.21 72.68 104.59 73.4067 103.79 73.98ZM105.33 83.32C105.917 83.52 106.397 83.7533 106.77 84.02L106.73 85H100.39L100.35 84.3C100.817 84.0333 101.324 83.8067 101.87 83.62V77.02L100.39 76.74L100.29 75.78C101.477 75.3267 102.797 75.08 104.25 75.04L105.33 76V83.32ZM113.165 85.26L112.285 85.32C110.845 85.32 109.645 84.8467 108.685 83.9C107.738 82.94 107.265 81.7133 107.265 80.22C107.265 78.7133 107.745 77.4667 108.705 76.48C109.665 75.4933 110.872 75 112.325 75C113.258 75 114.092 75.2267 114.825 75.68C115.558 76.12 116.052 76.76 116.305 77.6L113.565 79.14C112.992 78.0067 112.325 77.2333 111.565 76.82C110.925 77.5133 110.605 78.4733 110.605 79.7C110.605 80.7 110.845 81.5133 111.325 82.14C111.818 82.7667 112.512 83.08 113.405 83.08C114.032 83.08 114.758 82.88 115.585 82.48L116.065 83.58L113.165 85.26ZM116.523 80.14C116.523 78.6333 116.996 77.4 117.943 76.44C118.889 75.48 120.089 75 121.543 75C122.996 75 124.189 75.4867 125.123 76.46C126.056 77.4333 126.523 78.6933 126.523 80.24C126.523 81.7733 126.063 83.02 125.143 83.98C124.236 84.9267 123.063 85.4 121.623 85.4C120.156 85.4 118.936 84.9067 117.963 83.92C117.003 82.92 116.523 81.66 116.523 80.14ZM122.283 83.5C122.776 83.1267 123.023 82.1133 123.023 80.46C123.023 78.1 122.483 76.92 121.403 76.92C121.069 76.92 120.809 76.9933 120.623 77.14C120.223 77.6733 120.023 78.6867 120.023 80.18C120.023 81.1933 120.163 82.02 120.443 82.66C120.723 83.2867 121.149 83.6 121.723 83.6C121.909 83.6 122.096 83.5667 122.283 83.5Z" fill="#1E2021"/>
</g>
<defs>
<filter id="filter0_d" x="0.330078" y="0.374512" width="136.192" height="99.0253" filterUnits="userSpaceOnUse" color-interpolation-filters="sRGB">
<feFlood flood-opacity="0" result="BackgroundImageFix"/>
<feColorMatrix in="SourceAlpha" type="matrix" values="0 0 0 0 0 0 0 0 0 0 0 0 0 0 0 0 0 0 127 0"/>
<feOffset dy="4"/>
<feGaussianBlur stdDeviation="5"/>
<feColorMatrix type="matrix" values="0 0 0 0 0 0 0 0 0 0 0 0 0 0 0 0 0 0 0.25 0"/>
<feBlend mode="normal" in2="BackgroundImageFix" result="effect1_dropShadow"/>
<feBlend mode="normal" in="SourceGraphic" in2="effect1_dropShadow" result="shape"/>
</filter>
</defs>
</svg>
