<svg width="520" height="544" viewBox="0 0 520 544" fill="none" xmlns="http://www.w3.org/2000/svg">
<g filter="url(#filter0_d)">
<rect x="10" y="10" width="500" height="520" rx="32" fill="#BFCCD3"/>
<rect x="12" y="12" width="496" height="516" rx="30" stroke="#83C55B" stroke-width="4"/>
</g>
<rect x="58" width="264.29" height="23" fill="#BFCCD3"/>
<path d="M83.32 12.82C83.32 14.5667 83.2267 15.96 83.04 17H71.6L71.48 16.36C71.9867 16.0133 72.5533 15.7 73.18 15.42V5.06L71.64 4.82L71.66 3.76H78.38L78.5 4.4C78.02 4.74667 77.4533 5.06 76.8 5.34V15.14L80.36 14.8L81.26 11.9L83.32 12.08V12.82ZM94.1122 15.86L91.4722 17.34C91.0989 17.3267 90.7255 17.1867 90.3522 16.92C89.9789 16.6533 89.6722 16.3067 89.4322 15.88L87.3122 17.26L86.6322 17.32C85.7655 17.32 85.0389 17.0667 84.4522 16.56C83.8789 16.0533 83.5922 15.44 83.5922 14.72C83.5922 13.72 84.1322 12.9333 85.2122 12.36L89.0122 12.28V10.64C89.0122 9.61333 88.7055 8.94 88.0922 8.62C87.6655 8.64667 87.2922 8.72667 86.9722 8.86L86.4922 11.06L84.5322 11.1C84.2789 10.38 84.1522 9.62 84.1522 8.82L84.1922 8.08C84.9922 7.77333 85.9189 7.51333 86.9722 7.3C88.0255 7.07333 88.8389 6.96 89.4122 6.96C90.5989 6.96 91.5389 7.44667 92.2322 8.42C92.3789 8.67333 92.4589 9.18 92.4722 9.94V14.52C92.4722 14.8667 92.6389 15.04 92.9722 15.04L93.5122 15.02L93.9922 14.98L94.1122 15.86ZM87.0122 14.5C87.0122 14.8467 87.1255 15.1333 87.3522 15.36C87.7522 15.3333 88.3055 15.2067 89.0122 14.98V13.5C87.6789 13.4733 87.0122 13.8067 87.0122 14.5ZM104.735 15.32C105.321 15.52 105.801 15.7533 106.175 16.02L106.135 17H99.7947L99.7547 16.3C100.221 16.0333 100.728 15.8067 101.275 15.62V4.26L99.7947 4L99.6947 3C100.815 2.6 102.135 2.35333 103.655 2.26L104.735 3.26V15.32ZM114.793 12.42L109.753 12.38C109.847 13.2467 110.153 13.9133 110.673 14.38C111.207 14.8467 111.873 15.08 112.673 15.08C113.38 15.08 114.227 14.8267 115.213 14.32L115.713 15.46L112.573 17.24L111.653 17.3C110.173 17.3 108.94 16.8333 107.953 15.9C106.98 14.9667 106.493 13.7733 106.493 12.32C106.493 10.84 106.987 9.58667 107.973 8.56C108.973 7.52 110.18 7 111.593 7C112.887 7 113.94 7.39333 114.753 8.18C115.567 8.95333 115.967 9.98 115.953 11.26L114.793 12.42ZM111.053 8.66C110.413 9.06 110.007 9.79333 109.833 10.86L112.833 10.68C112.753 10.1333 112.547 9.66667 112.213 9.28C111.893 8.88 111.507 8.67333 111.053 8.66ZM127.713 8.4L126.733 8.92L125.713 12.44L124.993 14.64C124.433 16.2267 123.707 17.5667 122.813 18.66C121.92 19.7533 120.673 20.7333 119.073 21.6L117.273 18.48C119.033 17.9467 120.527 17.3467 121.753 16.68L119.793 16.12L117.313 9.36L115.793 8.52L115.813 7.42H120.313L121.713 12.28L121.873 13.88H122.193C122.833 11.3467 123.287 9.19333 123.553 7.42H127.653L127.713 8.4ZM135.809 12.42L130.769 12.38C130.862 13.2467 131.169 13.9133 131.689 14.38C132.222 14.8467 132.889 15.08 133.689 15.08C134.396 15.08 135.242 14.8267 136.229 14.32L136.729 15.46L133.589 17.24L132.669 17.3C131.189 17.3 129.956 16.8333 128.969 15.9C127.996 14.9667 127.509 13.7733 127.509 12.32C127.509 10.84 128.002 9.58667 128.989 8.56C129.989 7.52 131.196 7 132.609 7C133.902 7 134.956 7.39333 135.769 8.18C136.582 8.95333 136.982 9.98 136.969 11.26L135.809 12.42ZM132.069 8.66C131.429 9.06 131.022 9.79333 130.849 10.86L133.849 10.68C133.769 10.1333 133.562 9.66667 133.229 9.28C132.909 8.88 132.522 8.67333 132.069 8.66ZM148.374 15.32C148.961 15.52 149.441 15.7533 149.814 16.02L149.754 17H144.914V11.46C144.914 10.1133 144.488 9.44 143.634 9.44C143.248 9.44 142.814 9.56 142.334 9.8V15.38C142.814 15.5933 143.201 15.8067 143.494 16.02L143.454 17H137.434L137.394 16.3C137.808 16.06 138.301 15.84 138.874 15.64V9.02L137.394 8.74L137.294 7.78C138.481 7.32667 139.801 7.08 141.254 7.04L142.334 8.12V8.76C143.414 7.94667 144.421 7.39333 145.354 7.1C146.608 7.14 147.534 7.62 148.134 8.54C148.281 8.80667 148.361 9.41333 148.374 10.36V15.32ZM161.549 15.86L158.889 17.34C158.489 17.3267 158.089 17.1667 157.689 16.86C157.289 16.5533 156.976 16.1467 156.749 15.64L154.469 17.34C153.176 17.3533 152.109 16.8867 151.269 15.94C150.429 14.98 150.009 13.7733 150.009 12.32C150.009 10.8 150.502 9.54667 151.489 8.56C152.476 7.56 153.756 7.06 155.329 7.06L156.449 7.16V4.26L154.969 4L154.869 3C155.989 2.6 157.309 2.35333 158.829 2.26L159.909 3.26V14.5C159.909 14.86 160.076 15.04 160.409 15.04L160.929 15.02L161.429 14.98L161.549 15.86ZM153.609 11.96C153.609 12.7733 153.782 13.4533 154.129 14C154.489 14.5333 154.976 14.8 155.589 14.8C155.882 14.8 156.169 14.7467 156.449 14.64V9.22C155.916 8.98 155.342 8.86667 154.729 8.88C153.982 9.6 153.609 10.6267 153.609 11.96ZM172.452 15.86L169.812 17.34C169.439 17.3267 169.065 17.1867 168.692 16.92C168.319 16.6533 168.012 16.3067 167.772 15.88L165.652 17.26L164.972 17.32C164.105 17.32 163.379 17.0667 162.792 16.56C162.219 16.0533 161.932 15.44 161.932 14.72C161.932 13.72 162.472 12.9333 163.552 12.36L167.352 12.28V10.64C167.352 9.61333 167.045 8.94 166.432 8.62C166.005 8.64667 165.632 8.72667 165.312 8.86L164.832 11.06L162.872 11.1C162.619 10.38 162.492 9.62 162.492 8.82L162.532 8.08C163.332 7.77333 164.259 7.51333 165.312 7.3C166.365 7.07333 167.179 6.96 167.752 6.96C168.939 6.96 169.879 7.44667 170.572 8.42C170.719 8.67333 170.799 9.18 170.812 9.94V14.52C170.812 14.8667 170.979 15.04 171.312 15.04L171.852 15.02L172.332 14.98L172.452 15.86ZM165.352 14.5C165.352 14.8467 165.465 15.1333 165.692 15.36C166.092 15.3333 166.645 15.2067 167.352 14.98V13.5C166.019 13.4733 165.352 13.8067 165.352 14.5ZM189.655 15.86L186.995 17.34C186.595 17.3267 186.195 17.1667 185.795 16.86C185.395 16.5533 185.081 16.1467 184.855 15.64L182.575 17.34C181.281 17.3533 180.215 16.8867 179.375 15.94C178.535 14.98 178.115 13.7733 178.115 12.32C178.115 10.8 178.608 9.54667 179.595 8.56C180.581 7.56 181.861 7.06 183.435 7.06L184.555 7.16V4.26L183.075 4L182.975 3C184.095 2.6 185.415 2.35333 186.935 2.26L188.015 3.26V14.5C188.015 14.86 188.181 15.04 188.515 15.04L189.035 15.02L189.535 14.98L189.655 15.86ZM181.715 11.96C181.715 12.7733 181.888 13.4533 182.235 14C182.595 14.5333 183.081 14.8 183.695 14.8C183.988 14.8 184.275 14.7467 184.555 14.64V9.22C184.021 8.98 183.448 8.86667 182.835 8.88C182.088 9.6 181.715 10.6267 181.715 11.96ZM197.958 12.42L192.918 12.38C193.011 13.2467 193.318 13.9133 193.838 14.38C194.371 14.8467 195.038 15.08 195.838 15.08C196.544 15.08 197.391 14.8267 198.378 14.32L198.878 15.46L195.738 17.24L194.818 17.3C193.338 17.3 192.104 16.8333 191.118 15.9C190.144 14.9667 189.658 13.7733 189.658 12.32C189.658 10.84 190.151 9.58667 191.138 8.56C192.138 7.52 193.344 7 194.758 7C196.051 7 197.104 7.39333 197.918 8.18C198.731 8.95333 199.131 9.98 199.118 11.26L197.958 12.42ZM194.218 8.66C193.578 9.06 193.171 9.79333 192.998 10.86L195.998 10.68C195.918 10.1333 195.711 9.66667 195.378 9.28C195.058 8.88 194.671 8.67333 194.218 8.66ZM209.91 15.32C210.497 15.52 210.977 15.7533 211.35 16.02L211.31 17H204.97L204.93 16.3C205.397 16.0333 205.904 15.8067 206.45 15.62V4.26L204.97 4L204.87 3C205.99 2.6 207.31 2.35333 208.83 2.26L209.91 3.26V15.32ZM222.569 15.86L219.929 17.34C219.556 17.3267 219.183 17.1867 218.809 16.92C218.436 16.6533 218.129 16.3067 217.889 15.88L215.769 17.26L215.089 17.32C214.223 17.32 213.496 17.0667 212.909 16.56C212.336 16.0533 212.049 15.44 212.049 14.72C212.049 13.72 212.589 12.9333 213.669 12.36L217.469 12.28V10.64C217.469 9.61333 217.163 8.94 216.549 8.62C216.123 8.64667 215.749 8.72667 215.429 8.86L214.949 11.06L212.989 11.1C212.736 10.38 212.609 9.62 212.609 8.82L212.649 8.08C213.449 7.77333 214.376 7.51333 215.429 7.3C216.483 7.07333 217.296 6.96 217.869 6.96C219.056 6.96 219.996 7.44667 220.689 8.42C220.836 8.67333 220.916 9.18 220.929 9.94V14.52C220.929 14.8667 221.096 15.04 221.429 15.04L221.969 15.02L222.449 14.98L222.569 15.86ZM215.469 14.5C215.469 14.8467 215.583 15.1333 215.809 15.36C216.209 15.3333 216.763 15.2067 217.469 14.98V13.5C216.136 13.4733 215.469 13.8067 215.469 14.5ZM234.572 17.12C234.092 17.12 233.618 17.0733 233.152 16.98V19.2C233.952 19.52 234.585 19.8067 235.052 20.06L235.012 21.04H228.412L228.372 20.34L229.692 19.82V9.02L228.232 8.74L228.132 7.78C229.318 7.32667 230.638 7.08 232.092 7.04V7.06L233.152 8V8.74L235.252 7.18L235.932 7.12C237.025 7.12 237.918 7.56667 238.612 8.46C239.318 9.34 239.672 10.4467 239.672 11.78C239.672 13.34 239.198 14.62 238.252 15.62C237.305 16.62 236.078 17.12 234.572 17.12ZM234.112 9.54C233.818 9.54 233.498 9.62 233.152 9.78V15.26C233.752 15.42 234.325 15.48 234.872 15.44C235.205 15.12 235.472 14.68 235.672 14.12C235.885 13.5467 235.992 12.96 235.992 12.36C235.992 11.5867 235.825 10.9267 235.492 10.38C235.158 9.82 234.698 9.54 234.112 9.54ZM245.303 10.44V15.18C246.196 15.3933 246.923 15.6733 247.483 16.02L247.443 17H240.403L240.363 16.3C240.776 16.06 241.27 15.84 241.843 15.64V9.02L240.363 8.74L240.263 7.78C241.45 7.32667 242.77 7.08 244.223 7.04L245.303 8.54V8.9L246.883 7.12C247.083 7.05333 247.336 7.02 247.643 7.02C248.176 7.02 248.663 7.15333 249.103 7.42C249.556 7.68667 249.87 8.06 250.043 8.54L247.743 11.44C246.85 10.6933 246.136 10.2867 245.603 10.22L245.303 10.44ZM253.605 5.98C252.685 5.56667 251.892 4.96 251.225 4.16C251.758 3.13333 252.418 2.33333 253.205 1.76C254.098 2.22667 254.852 2.90667 255.465 3.8C255.025 4.68 254.405 5.40667 253.605 5.98ZM255.145 15.32C255.732 15.52 256.212 15.7533 256.585 16.02L256.545 17H250.205L250.165 16.3C250.632 16.0333 251.138 15.8067 251.685 15.62V9.02L250.205 8.74L250.105 7.78C251.292 7.32667 252.612 7.08 254.065 7.04L255.145 8V15.32ZM268.159 15.32C268.746 15.52 269.226 15.7533 269.599 16.02L269.539 17H264.699V11.46C264.699 10.1133 264.273 9.44 263.419 9.44C263.033 9.44 262.599 9.56 262.119 9.8V15.38C262.599 15.5933 262.986 15.8067 263.279 16.02L263.239 17H257.219L257.179 16.3C257.593 16.06 258.086 15.84 258.659 15.64V9.02L257.179 8.74L257.079 7.78C258.266 7.32667 259.586 7.08 261.039 7.04L262.119 8.12V8.76C263.199 7.94667 264.206 7.39333 265.139 7.1C266.393 7.14 267.319 7.62 267.919 8.54C268.066 8.80667 268.146 9.41333 268.159 10.36V15.32ZM275.694 17.26L274.814 17.32C273.374 17.32 272.174 16.8467 271.214 15.9C270.268 14.94 269.794 13.7133 269.794 12.22C269.794 10.7133 270.274 9.46667 271.234 8.48C272.194 7.49333 273.401 7 274.854 7C275.788 7 276.621 7.22667 277.354 7.68C278.088 8.12 278.581 8.76 278.834 9.6L276.094 11.14C275.521 10.0067 274.854 9.23333 274.094 8.82C273.454 9.51333 273.134 10.4733 273.134 11.7C273.134 12.7 273.374 13.5133 273.854 14.14C274.348 14.7667 275.041 15.08 275.934 15.08C276.561 15.08 277.288 14.88 278.114 14.48L278.594 15.58L275.694 17.26ZM287.352 12.42L282.312 12.38C282.405 13.2467 282.712 13.9133 283.232 14.38C283.765 14.8467 284.432 15.08 285.232 15.08C285.939 15.08 286.785 14.8267 287.772 14.32L288.272 15.46L285.132 17.24L284.212 17.3C282.732 17.3 281.499 16.8333 280.512 15.9C279.539 14.9667 279.052 13.7733 279.052 12.32C279.052 10.84 279.545 9.58667 280.532 8.56C281.532 7.52 282.739 7 284.152 7C285.445 7 286.499 7.39333 287.312 8.18C288.125 8.95333 288.525 9.98 288.512 11.26L287.352 12.42ZM283.612 8.66C282.972 9.06 282.565 9.79333 282.392 10.86L285.392 10.68C285.312 10.1333 285.105 9.66667 284.772 9.28C284.452 8.88 284.065 8.67333 283.612 8.66ZM292.612 9.38C292.612 9.62 292.699 9.84 292.872 10.04C293.045 10.2267 293.665 10.6 294.732 11.16C295.799 11.7067 296.519 12.22 296.892 12.7C297.265 13.1667 297.452 13.7 297.452 14.3C297.452 15.2067 297.079 15.9533 296.332 16.54C295.585 17.1133 294.592 17.4 293.352 17.4C291.952 17.4 290.559 17.04 289.172 16.32L290.312 13.7C291.472 14.5933 292.672 15.26 293.912 15.7C294.152 15.4867 294.272 15.24 294.272 14.96C294.272 14.7067 294.172 14.48 293.972 14.28C293.785 14.08 293.172 13.72 292.132 13.2C291.105 12.6667 290.405 12.1733 290.032 11.72C289.672 11.2533 289.492 10.7267 289.492 10.14C289.492 9.20667 289.899 8.45333 290.712 7.88C291.539 7.29333 292.605 7 293.912 7C295.125 7 296.159 7.22 297.012 7.66L297.052 8.36C297.052 9.05333 296.939 9.75333 296.712 10.46H294.952L294.332 8.64L293.412 8.54C292.879 8.7 292.612 8.98 292.612 9.38ZM308.917 15.86L306.277 17.34C305.904 17.3267 305.53 17.1867 305.157 16.92C304.784 16.6533 304.477 16.3067 304.237 15.88L302.117 17.26L301.437 17.32C300.57 17.32 299.844 17.0667 299.257 16.56C298.684 16.0533 298.397 15.44 298.397 14.72C298.397 13.72 298.937 12.9333 300.017 12.36L303.817 12.28V10.64C303.817 9.61333 303.51 8.94 302.897 8.62C302.47 8.64667 302.097 8.72667 301.777 8.86L301.297 11.06L299.337 11.1C299.084 10.38 298.957 9.62 298.957 8.82L298.997 8.08C299.797 7.77333 300.724 7.51333 301.777 7.3C302.83 7.07333 303.644 6.96 304.217 6.96C305.404 6.96 306.344 7.44667 307.037 8.42C307.184 8.67333 307.264 9.18 307.277 9.94V14.52C307.277 14.8667 307.444 15.04 307.777 15.04L308.317 15.02L308.797 14.98L308.917 15.86ZM301.817 14.5C301.817 14.8467 301.93 15.1333 302.157 15.36C302.557 15.3333 303.11 15.2067 303.817 14.98V13.5C302.484 13.4733 301.817 13.8067 301.817 14.5Z" fill="#83C55B"/>
<defs>
<filter id="filter0_d" x="0" y="4" width="520" height="540" filterUnits="userSpaceOnUse" color-interpolation-filters="sRGB">
<feFlood flood-opacity="0" result="BackgroundImageFix"/>
<feColorMatrix in="SourceAlpha" type="matrix" values="0 0 0 0 0 0 0 0 0 0 0 0 0 0 0 0 0 0 127 0"/>
<feOffset dy="4"/>
<feGaussianBlur stdDeviation="5"/>
<feColorMatrix type="matrix" values="0 0 0 0 0.494118 0 0 0 0 0.631373 0 0 0 0 0.447059 0 0 0 0.25 0"/>
<feBlend mode="normal" in2="BackgroundImageFix" result="effect1_dropShadow"/>
<feBlend mode="normal" in="SourceGraphic" in2="effect1_dropShadow" result="shape"/>
</filter>
</defs>
</svg>
