<svg width="499" height="530" viewBox="0 0 499 530" fill="none" xmlns="http://www.w3.org/2000/svg">
<rect x="1.5" y="11.5" width="496" height="517" rx="30.5" fill="#BFCCD3" stroke="#83C55B" stroke-width="3"/>
<rect x="265" width="192" height="23" fill="#BFCCD3"/>
<path d="M288.9 12.92C288.9 12.2933 288.967 11.6867 289.1 11.1C289.247 10.5133 289.473 9.99333 289.78 9.54C290.087 9.07333 290.487 8.70667 290.98 8.44C291.473 8.16 292.073 8.02 292.78 8.02C293.487 8.02 294.087 8.16 294.58 8.44C295.073 8.70667 295.473 9.07333 295.78 9.54C296.087 9.99333 296.307 10.5133 296.44 11.1C296.587 11.6867 296.66 12.2933 296.66 12.92C296.66 13.52 296.587 14.1067 296.44 14.68C296.307 15.24 296.087 15.7467 295.78 16.2C295.473 16.6533 295.073 17.02 294.58 17.3C294.087 17.5667 293.487 17.7 292.78 17.7C292.073 17.7 291.473 17.5667 290.98 17.3C290.487 17.02 290.087 16.6533 289.78 16.2C289.473 15.7467 289.247 15.24 289.1 14.68C288.967 14.1067 288.9 13.52 288.9 12.92ZM285.76 12.92C285.76 13.96 285.92 14.9333 286.24 15.84C286.56 16.7333 287.02 17.5133 287.62 18.18C288.22 18.8467 288.953 19.3733 289.82 19.76C290.7 20.1333 291.687 20.32 292.78 20.32C293.887 20.32 294.873 20.1333 295.74 19.76C296.607 19.3733 297.34 18.8467 297.94 18.18C298.54 17.5133 299 16.7333 299.32 15.84C299.64 14.9333 299.8 13.96 299.8 12.92C299.8 11.8533 299.64 10.8667 299.32 9.96C299 9.04 298.54 8.24 297.94 7.56C297.34 6.88 296.607 6.34667 295.74 5.96C294.873 5.57333 293.887 5.38 292.78 5.38C291.687 5.38 290.7 5.57333 289.82 5.96C288.953 6.34667 288.22 6.88 287.62 7.56C287.02 8.24 286.56 9.04 286.24 9.96C285.92 10.8667 285.76 11.8533 285.76 12.92ZM309.226 14.84C309.226 15.2667 309.18 15.68 309.086 16.08C308.993 16.48 308.846 16.8333 308.646 17.14C308.446 17.4467 308.193 17.6933 307.886 17.88C307.593 18.0533 307.233 18.14 306.806 18.14C306.393 18.14 306.033 18.0533 305.726 17.88C305.42 17.6933 305.166 17.4467 304.966 17.14C304.766 16.8333 304.62 16.48 304.526 16.08C304.433 15.68 304.386 15.2667 304.386 14.84C304.386 14.4 304.433 13.98 304.526 13.58C304.62 13.18 304.766 12.8267 304.966 12.52C305.166 12.2133 305.42 11.9733 305.726 11.8C306.033 11.6133 306.393 11.52 306.806 11.52C307.233 11.52 307.593 11.6133 307.886 11.8C308.193 11.9733 308.446 12.2133 308.646 12.52C308.846 12.8267 308.993 13.18 309.086 13.58C309.18 13.98 309.226 14.4 309.226 14.84ZM301.646 5.72V20H304.346V18.68H304.386C304.693 19.2533 305.146 19.66 305.746 19.9C306.346 20.14 307.026 20.26 307.786 20.26C308.306 20.26 308.82 20.1533 309.326 19.94C309.833 19.7267 310.286 19.4 310.686 18.96C311.1 18.52 311.433 17.96 311.686 17.28C311.94 16.5867 312.066 15.7667 312.066 14.82C312.066 13.8733 311.94 13.06 311.686 12.38C311.433 11.6867 311.1 11.12 310.686 10.68C310.286 10.24 309.833 9.91333 309.326 9.7C308.82 9.48667 308.306 9.38 307.786 9.38C307.146 9.38 306.526 9.50667 305.926 9.76C305.34 10 304.873 10.3867 304.526 10.92H304.486V5.72H301.646ZM316.973 8.06V5.72H314.133V8.06H316.973ZM312.433 21.2V23.54C312.7 23.5933 313 23.62 313.333 23.62C314.053 23.62 314.646 23.5533 315.113 23.42C315.58 23.3 315.946 23.1067 316.213 22.84C316.493 22.5867 316.686 22.2667 316.793 21.88C316.913 21.4933 316.973 21.0333 316.973 20.5V9.66H314.133V20.36C314.133 20.7467 314.02 20.9933 313.793 21.1C313.58 21.22 313.326 21.28 313.033 21.28C312.78 21.28 312.58 21.2533 312.433 21.2ZM326.399 13.72H321.779C321.793 13.52 321.833 13.2933 321.899 13.04C321.979 12.7867 322.106 12.5467 322.279 12.32C322.466 12.0933 322.706 11.9067 322.999 11.76C323.306 11.6 323.686 11.52 324.139 11.52C324.833 11.52 325.346 11.7067 325.679 12.08C326.026 12.4533 326.266 13 326.399 13.72ZM321.779 15.52H329.239C329.293 14.72 329.226 13.9533 329.039 13.22C328.853 12.4867 328.546 11.8333 328.119 11.26C327.706 10.6867 327.173 10.2333 326.519 9.9C325.866 9.55333 325.099 9.38 324.219 9.38C323.433 9.38 322.713 9.52 322.059 9.8C321.419 10.08 320.866 10.4667 320.399 10.96C319.933 11.44 319.573 12.0133 319.319 12.68C319.066 13.3467 318.939 14.0667 318.939 14.84C318.939 15.64 319.059 16.3733 319.299 17.04C319.553 17.7067 319.906 18.28 320.359 18.76C320.813 19.24 321.366 19.6133 322.019 19.88C322.673 20.1333 323.406 20.26 324.219 20.26C325.393 20.26 326.393 19.9933 327.219 19.46C328.046 18.9267 328.659 18.04 329.059 16.8H326.559C326.466 17.12 326.213 17.4267 325.799 17.72C325.386 18 324.893 18.14 324.319 18.14C323.519 18.14 322.906 17.9333 322.479 17.52C322.053 17.1067 321.819 16.44 321.779 15.52ZM334.524 9.66V6.56H331.684V9.66H329.964V11.56H331.684V17.66C331.684 18.18 331.77 18.6 331.944 18.92C332.117 19.24 332.35 19.4867 332.644 19.66C332.95 19.8333 333.297 19.9467 333.684 20C334.084 20.0667 334.504 20.1 334.944 20.1C335.224 20.1 335.51 20.0933 335.804 20.08C336.097 20.0667 336.364 20.04 336.604 20V17.8C336.47 17.8267 336.33 17.8467 336.184 17.86C336.037 17.8733 335.884 17.88 335.724 17.88C335.244 17.88 334.924 17.8 334.764 17.64C334.604 17.48 334.524 17.16 334.524 16.68V11.56H336.604V9.66H334.524ZM340.475 14.84C340.475 14.4267 340.515 14.02 340.595 13.62C340.675 13.22 340.808 12.8667 340.995 12.56C341.195 12.2533 341.455 12.0067 341.775 11.82C342.095 11.62 342.495 11.52 342.975 11.52C343.455 11.52 343.855 11.62 344.175 11.82C344.508 12.0067 344.768 12.2533 344.955 12.56C345.155 12.8667 345.295 13.22 345.375 13.62C345.455 14.02 345.495 14.4267 345.495 14.84C345.495 15.2533 345.455 15.66 345.375 16.06C345.295 16.4467 345.155 16.8 344.955 17.12C344.768 17.4267 344.508 17.6733 344.175 17.86C343.855 18.0467 343.455 18.14 342.975 18.14C342.495 18.14 342.095 18.0467 341.775 17.86C341.455 17.6733 341.195 17.4267 340.995 17.12C340.808 16.8 340.675 16.4467 340.595 16.06C340.515 15.66 340.475 15.2533 340.475 14.84ZM337.635 14.84C337.635 15.6667 337.762 16.4133 338.015 17.08C338.268 17.7467 338.628 18.32 339.095 18.8C339.562 19.2667 340.122 19.6267 340.775 19.88C341.428 20.1333 342.162 20.26 342.975 20.26C343.788 20.26 344.522 20.1333 345.175 19.88C345.842 19.6267 346.408 19.2667 346.875 18.8C347.342 18.32 347.702 17.7467 347.955 17.08C348.208 16.4133 348.335 15.6667 348.335 14.84C348.335 14.0133 348.208 13.2667 347.955 12.6C347.702 11.92 347.342 11.3467 346.875 10.88C346.408 10.4 345.842 10.0333 345.175 9.78C344.522 9.51333 343.788 9.38 342.975 9.38C342.162 9.38 341.428 9.51333 340.775 9.78C340.122 10.0333 339.562 10.4 339.095 10.88C338.628 11.3467 338.268 11.92 338.015 12.6C337.762 13.2667 337.635 14.0133 337.635 14.84ZM352.382 16.64H349.682C349.708 17.3333 349.862 17.9133 350.142 18.38C350.435 18.8333 350.802 19.2 351.242 19.48C351.695 19.76 352.208 19.96 352.782 20.08C353.355 20.2 353.942 20.26 354.542 20.26C355.128 20.26 355.702 20.2 356.262 20.08C356.835 19.9733 357.342 19.78 357.782 19.5C358.222 19.22 358.575 18.8533 358.842 18.4C359.122 17.9333 359.262 17.36 359.262 16.68C359.262 16.2 359.168 15.8 358.982 15.48C358.795 15.1467 358.548 14.8733 358.242 14.66C357.935 14.4333 357.582 14.2533 357.182 14.12C356.795 13.9867 356.395 13.8733 355.982 13.78C355.582 13.6867 355.188 13.6 354.802 13.52C354.415 13.44 354.068 13.3533 353.762 13.26C353.468 13.1533 353.228 13.02 353.042 12.86C352.855 12.7 352.762 12.4933 352.762 12.24C352.762 12.0267 352.815 11.86 352.922 11.74C353.028 11.6067 353.155 11.5067 353.302 11.44C353.462 11.3733 353.635 11.3333 353.822 11.32C354.008 11.2933 354.182 11.28 354.342 11.28C354.848 11.28 355.288 11.38 355.662 11.58C356.035 11.7667 356.242 12.1333 356.282 12.68H358.982C358.928 12.04 358.762 11.5133 358.482 11.1C358.215 10.6733 357.875 10.3333 357.462 10.08C357.048 9.82667 356.575 9.64667 356.042 9.54C355.522 9.43333 354.982 9.38 354.422 9.38C353.862 9.38 353.315 9.43333 352.782 9.54C352.248 9.63333 351.768 9.80667 351.342 10.06C350.915 10.3 350.568 10.6333 350.302 11.06C350.048 11.4867 349.922 12.0333 349.922 12.7C349.922 13.1533 350.015 13.54 350.202 13.86C350.388 14.1667 350.635 14.4267 350.942 14.64C351.248 14.84 351.595 15.0067 351.982 15.14C352.382 15.26 352.788 15.3667 353.202 15.46C354.215 15.6733 355.002 15.8867 355.562 16.1C356.135 16.3133 356.422 16.6333 356.422 17.06C356.422 17.3133 356.362 17.5267 356.242 17.7C356.122 17.86 355.968 17.9933 355.782 18.1C355.608 18.1933 355.408 18.2667 355.182 18.32C354.968 18.36 354.762 18.38 354.562 18.38C354.282 18.38 354.008 18.3467 353.742 18.28C353.488 18.2133 353.262 18.1133 353.062 17.98C352.862 17.8333 352.695 17.6533 352.562 17.44C352.442 17.2133 352.382 16.9467 352.382 16.64ZM366.57 9.66V20H369.41V14C369.41 13.4933 369.483 13.0867 369.63 12.78C369.777 12.46 369.95 12.22 370.15 12.06C370.363 11.8867 370.577 11.7733 370.79 11.72C371.017 11.6533 371.197 11.62 371.33 11.62C371.783 11.62 372.123 11.7 372.35 11.86C372.59 12.0067 372.757 12.2067 372.85 12.46C372.957 12.7133 373.017 12.9933 373.03 13.3C373.043 13.5933 373.05 13.8933 373.05 14.2V20H375.89V14.24C375.89 13.92 375.91 13.6067 375.95 13.3C376.003 12.98 376.097 12.7 376.23 12.46C376.377 12.2067 376.57 12.0067 376.81 11.86C377.063 11.7 377.39 11.62 377.79 11.62C378.19 11.62 378.503 11.6867 378.73 11.82C378.97 11.9533 379.15 12.1333 379.27 12.36C379.39 12.5867 379.463 12.8533 379.49 13.16C379.517 13.4667 379.53 13.7933 379.53 14.14V20H382.37V13.08C382.37 12.4133 382.277 11.8467 382.09 11.38C381.903 10.9 381.643 10.5133 381.31 10.22C380.977 9.92667 380.577 9.71333 380.11 9.58C379.643 9.44667 379.137 9.38 378.59 9.38C377.87 9.38 377.243 9.55333 376.71 9.9C376.19 10.2467 375.777 10.6467 375.47 11.1C375.19 10.46 374.777 10.0133 374.23 9.76C373.697 9.50667 373.103 9.38 372.45 9.38C371.77 9.38 371.163 9.52667 370.63 9.82C370.11 10.1133 369.663 10.5267 369.29 11.06H369.25V9.66H366.57ZM384.495 12.84C384.535 12.1733 384.702 11.62 384.995 11.18C385.288 10.74 385.662 10.3867 386.115 10.12C386.568 9.85333 387.075 9.66667 387.635 9.56C388.208 9.44 388.782 9.38 389.355 9.38C389.875 9.38 390.402 9.42 390.935 9.5C391.468 9.56667 391.955 9.70667 392.395 9.92C392.835 10.1333 393.195 10.4333 393.475 10.82C393.755 11.1933 393.895 11.6933 393.895 12.32V17.7C393.895 18.1667 393.922 18.6133 393.975 19.04C394.028 19.4667 394.122 19.7867 394.255 20H391.375C391.322 19.84 391.275 19.68 391.235 19.52C391.208 19.3467 391.188 19.1733 391.175 19C390.722 19.4667 390.188 19.7933 389.575 19.98C388.962 20.1667 388.335 20.26 387.695 20.26C387.202 20.26 386.742 20.2 386.315 20.08C385.888 19.96 385.515 19.7733 385.195 19.52C384.875 19.2667 384.622 18.9467 384.435 18.56C384.262 18.1733 384.175 17.7133 384.175 17.18C384.175 16.5933 384.275 16.1133 384.475 15.74C384.688 15.3533 384.955 15.0467 385.275 14.82C385.608 14.5933 385.982 14.4267 386.395 14.32C386.822 14.2 387.248 14.1067 387.675 14.04C388.102 13.9733 388.522 13.92 388.935 13.88C389.348 13.84 389.715 13.78 390.035 13.7C390.355 13.62 390.608 13.5067 390.795 13.36C390.982 13.2 391.068 12.9733 391.055 12.68C391.055 12.3733 391.002 12.1333 390.895 11.96C390.802 11.7733 390.668 11.6333 390.495 11.54C390.335 11.4333 390.142 11.3667 389.915 11.34C389.702 11.3 389.468 11.28 389.215 11.28C388.655 11.28 388.215 11.4 387.895 11.64C387.575 11.88 387.388 12.28 387.335 12.84H384.495ZM391.055 14.94C390.935 15.0467 390.782 15.1333 390.595 15.2C390.422 15.2533 390.228 15.3 390.015 15.34C389.815 15.38 389.602 15.4133 389.375 15.44C389.148 15.4667 388.922 15.5 388.695 15.54C388.482 15.58 388.268 15.6333 388.055 15.7C387.855 15.7667 387.675 15.86 387.515 15.98C387.368 16.0867 387.248 16.2267 387.155 16.4C387.062 16.5733 387.015 16.7933 387.015 17.06C387.015 17.3133 387.062 17.5267 387.155 17.7C387.248 17.8733 387.375 18.0133 387.535 18.12C387.695 18.2133 387.882 18.28 388.095 18.32C388.308 18.36 388.528 18.38 388.755 18.38C389.315 18.38 389.748 18.2867 390.055 18.1C390.362 17.9133 390.588 17.6933 390.735 17.44C390.882 17.1733 390.968 16.9067 390.995 16.64C391.035 16.3733 391.055 16.16 391.055 16V14.94ZM400.92 17.56C400.48 17.56 400.113 17.4667 399.82 17.28C399.526 17.0933 399.286 16.8533 399.1 16.56C398.926 16.2667 398.8 15.94 398.72 15.58C398.653 15.2067 398.62 14.8333 398.62 14.46C398.62 14.0733 398.66 13.7067 398.74 13.36C398.833 13 398.973 12.6867 399.16 12.42C399.36 12.14 399.6 11.92 399.88 11.76C400.173 11.6 400.52 11.52 400.92 11.52C401.386 11.52 401.773 11.6067 402.08 11.78C402.386 11.9533 402.633 12.1867 402.82 12.48C403.006 12.7733 403.14 13.1133 403.22 13.5C403.3 13.8733 403.34 14.2733 403.34 14.7C403.34 15.0733 403.286 15.4333 403.18 15.78C403.086 16.1133 402.94 16.4133 402.74 16.68C402.54 16.9467 402.286 17.16 401.98 17.32C401.673 17.48 401.32 17.56 400.92 17.56ZM406.04 19.34V9.66H403.34V11.04H403.3C402.953 10.44 402.52 10.0133 402 9.76C401.493 9.50667 400.9 9.38 400.22 9.38C399.5 9.38 398.86 9.52 398.3 9.8C397.753 10.08 397.293 10.46 396.92 10.94C396.546 11.4067 396.26 11.9533 396.06 12.58C395.873 13.1933 395.78 13.8333 395.78 14.5C395.78 15.2067 395.86 15.88 396.02 16.52C396.193 17.1467 396.46 17.7 396.82 18.18C397.18 18.6467 397.64 19.02 398.2 19.3C398.76 19.5667 399.426 19.7 400.2 19.7C400.826 19.7 401.42 19.5733 401.98 19.32C402.553 19.0533 402.993 18.6467 403.3 18.1H403.34V19.46C403.353 20.1933 403.173 20.8 402.8 21.28C402.44 21.76 401.86 22 401.06 22C400.553 22 400.106 21.8933 399.72 21.68C399.333 21.48 399.073 21.1133 398.94 20.58H396.12C396.16 21.1667 396.32 21.6667 396.6 22.08C396.893 22.5067 397.253 22.8533 397.68 23.12C398.12 23.3867 398.6 23.58 399.12 23.7C399.653 23.8333 400.173 23.9 400.68 23.9C401.866 23.9 402.813 23.74 403.52 23.42C404.226 23.1 404.766 22.7067 405.14 22.24C405.513 21.7867 405.753 21.2933 405.86 20.76C405.98 20.2267 406.04 19.7533 406.04 19.34ZM411.246 8.06V5.72H408.406V8.06H411.246ZM408.406 9.66V20H411.246V9.66H408.406ZM420.522 13.3H423.302C423.262 12.6333 423.102 12.06 422.822 11.58C422.542 11.0867 422.176 10.68 421.722 10.36C421.282 10.0267 420.776 9.78 420.202 9.62C419.642 9.46 419.056 9.38 418.442 9.38C417.602 9.38 416.856 9.52 416.202 9.8C415.549 10.08 414.996 10.4733 414.542 10.98C414.089 11.4733 413.742 12.0667 413.502 12.76C413.276 13.44 413.162 14.18 413.162 14.98C413.162 15.7533 413.289 16.4667 413.542 17.12C413.796 17.76 414.149 18.3133 414.602 18.78C415.056 19.2467 415.602 19.6133 416.242 19.88C416.896 20.1333 417.609 20.26 418.382 20.26C419.756 20.26 420.882 19.9 421.762 19.18C422.642 18.46 423.176 17.4133 423.362 16.04H420.622C420.529 16.68 420.296 17.1933 419.922 17.58C419.562 17.9533 419.042 18.14 418.362 18.14C417.922 18.14 417.549 18.04 417.242 17.84C416.936 17.64 416.689 17.3867 416.502 17.08C416.329 16.76 416.202 16.4067 416.122 16.02C416.042 15.6333 416.002 15.2533 416.002 14.88C416.002 14.4933 416.042 14.1067 416.122 13.72C416.202 13.32 416.336 12.96 416.522 12.64C416.722 12.3067 416.976 12.04 417.282 11.84C417.589 11.6267 417.969 11.52 418.422 11.52C419.636 11.52 420.336 12.1133 420.522 13.3ZM427.487 14.84C427.487 14.4267 427.527 14.02 427.607 13.62C427.687 13.22 427.82 12.8667 428.007 12.56C428.207 12.2533 428.467 12.0067 428.787 11.82C429.107 11.62 429.507 11.52 429.987 11.52C430.467 11.52 430.867 11.62 431.187 11.82C431.52 12.0067 431.78 12.2533 431.967 12.56C432.167 12.8667 432.307 13.22 432.387 13.62C432.467 14.02 432.507 14.4267 432.507 14.84C432.507 15.2533 432.467 15.66 432.387 16.06C432.307 16.4467 432.167 16.8 431.967 17.12C431.78 17.4267 431.52 17.6733 431.187 17.86C430.867 18.0467 430.467 18.14 429.987 18.14C429.507 18.14 429.107 18.0467 428.787 17.86C428.467 17.6733 428.207 17.4267 428.007 17.12C427.82 16.8 427.687 16.4467 427.607 16.06C427.527 15.66 427.487 15.2533 427.487 14.84ZM424.647 14.84C424.647 15.6667 424.773 16.4133 425.027 17.08C425.28 17.7467 425.64 18.32 426.107 18.8C426.573 19.2667 427.133 19.6267 427.787 19.88C428.44 20.1333 429.173 20.26 429.987 20.26C430.8 20.26 431.533 20.1333 432.187 19.88C432.853 19.6267 433.42 19.2667 433.887 18.8C434.353 18.32 434.713 17.7467 434.967 17.08C435.22 16.4133 435.347 15.6667 435.347 14.84C435.347 14.0133 435.22 13.2667 434.967 12.6C434.713 11.92 434.353 11.3467 433.887 10.88C433.42 10.4 432.853 10.0333 432.187 9.78C431.533 9.51333 430.8 9.38 429.987 9.38C429.173 9.38 428.44 9.51333 427.787 9.78C427.133 10.0333 426.573 10.4 426.107 10.88C425.64 11.3467 425.28 11.92 425.027 12.6C424.773 13.2667 424.647 14.0133 424.647 14.84ZM439.393 16.64H436.693C436.72 17.3333 436.873 17.9133 437.153 18.38C437.447 18.8333 437.813 19.2 438.253 19.48C438.707 19.76 439.22 19.96 439.793 20.08C440.367 20.2 440.953 20.26 441.553 20.26C442.14 20.26 442.713 20.2 443.273 20.08C443.847 19.9733 444.353 19.78 444.793 19.5C445.233 19.22 445.587 18.8533 445.853 18.4C446.133 17.9333 446.273 17.36 446.273 16.68C446.273 16.2 446.18 15.8 445.993 15.48C445.807 15.1467 445.56 14.8733 445.253 14.66C444.947 14.4333 444.593 14.2533 444.193 14.12C443.807 13.9867 443.407 13.8733 442.993 13.78C442.593 13.6867 442.2 13.6 441.813 13.52C441.427 13.44 441.08 13.3533 440.773 13.26C440.48 13.1533 440.24 13.02 440.053 12.86C439.867 12.7 439.773 12.4933 439.773 12.24C439.773 12.0267 439.827 11.86 439.933 11.74C440.04 11.6067 440.167 11.5067 440.313 11.44C440.473 11.3733 440.647 11.3333 440.833 11.32C441.02 11.2933 441.193 11.28 441.353 11.28C441.86 11.28 442.3 11.38 442.673 11.58C443.047 11.7667 443.253 12.1333 443.293 12.68H445.993C445.94 12.04 445.773 11.5133 445.493 11.1C445.227 10.6733 444.887 10.3333 444.473 10.08C444.06 9.82667 443.587 9.64667 443.053 9.54C442.533 9.43333 441.993 9.38 441.433 9.38C440.873 9.38 440.327 9.43333 439.793 9.54C439.26 9.63333 438.78 9.80667 438.353 10.06C437.927 10.3 437.58 10.6333 437.313 11.06C437.06 11.4867 436.933 12.0333 436.933 12.7C436.933 13.1533 437.027 13.54 437.213 13.86C437.4 14.1667 437.647 14.4267 437.953 14.64C438.26 14.84 438.607 15.0067 438.993 15.14C439.393 15.26 439.8 15.3667 440.213 15.46C441.227 15.6733 442.013 15.8867 442.573 16.1C443.147 16.3133 443.433 16.6333 443.433 17.06C443.433 17.3133 443.373 17.5267 443.253 17.7C443.133 17.86 442.98 17.9933 442.793 18.1C442.62 18.1933 442.42 18.2667 442.193 18.32C441.98 18.36 441.773 18.38 441.573 18.38C441.293 18.38 441.02 18.3467 440.753 18.28C440.5 18.2133 440.273 18.1133 440.073 17.98C439.873 17.8333 439.707 17.6533 439.573 17.44C439.453 17.2133 439.393 16.9467 439.393 16.64Z" fill="#83C55B"/>
</svg>
