<svg width="519" height="544" viewBox="0 0 519 544" fill="none" xmlns="http://www.w3.org/2000/svg">
<g filter="url(#filter0_d)">
<rect x="10" y="10" width="499" height="520" rx="32" fill="#BFCCD3"/>
<rect x="12" y="12" width="495" height="516" rx="30" stroke="#7EA172" stroke-width="4"/>
</g>
<rect x="275" width="192" height="23" fill="#BFCCD3"/>
<path d="M301.82 3.36C303.767 3.36 305.367 4.03333 306.62 5.38C307.887 6.71333 308.52 8.44 308.52 10.56C308.52 12.6267 307.913 14.2867 306.7 15.54C305.487 16.78 303.907 17.4 301.96 17.4C299.987 17.4 298.367 16.7667 297.1 15.5C295.847 14.22 295.22 12.5467 295.22 10.48C295.22 8.38667 295.84 6.68 297.08 5.36C298.32 4.02667 299.9 3.36 301.82 3.36ZM300.32 5.56C299.933 5.90667 299.62 6.48667 299.38 7.3C299.14 8.1 299.02 9.02667 299.02 10.08C299.02 11.7067 299.307 13.0133 299.88 14C300.467 14.9733 301.28 15.46 302.32 15.46C302.653 15.46 302.967 15.4067 303.26 15.3C303.7 14.8867 304.053 14.26 304.32 13.42C304.587 12.58 304.72 11.6467 304.72 10.62C304.72 9.04667 304.433 7.76667 303.86 6.78C303.287 5.79333 302.52 5.3 301.56 5.3C301.16 5.3 300.747 5.38667 300.32 5.56ZM315.43 7.18L316.11 7.12C317.217 7.12 318.11 7.56667 318.79 8.46C319.484 9.34 319.83 10.44 319.83 11.76C319.83 13.4 319.297 14.7467 318.23 15.8C317.164 16.84 315.757 17.36 314.01 17.36C312.717 17.36 311.324 17.1067 309.83 16.6L309.85 16.58V4.26L308.35 4L308.27 3C309.39 2.6 310.71 2.35333 312.23 2.26L313.31 3.26V8.72L315.43 7.18ZM315.05 15.48C315.864 14.7733 316.27 13.7333 316.27 12.36C316.27 11.5733 316.09 10.9067 315.73 10.36C315.37 9.81333 314.89 9.54 314.29 9.54C313.97 9.54 313.644 9.62 313.31 9.78V15.34C313.67 15.46 314.064 15.52 314.49 15.52L315.05 15.48ZM323.64 6C322.654 5.53333 321.86 4.92 321.26 4.16C321.78 3.16 322.44 2.36 323.24 1.76C324.174 2.26667 324.927 2.94667 325.5 3.8C325.074 4.66667 324.454 5.4 323.64 6ZM324.12 7.04L325.2 8V17.9C325.2 18.7933 324.734 19.56 323.8 20.2C322.88 20.8533 321.654 21.2467 320.12 21.38L319.78 20.54C321.034 20.1267 321.687 19.3733 321.74 18.28V9.02L320.24 8.74L320.14 7.78C321.327 7.32667 322.647 7.08 324.1 7.04H324.12ZM335.063 12.42L330.023 12.38C330.116 13.2467 330.423 13.9133 330.943 14.38C331.476 14.8467 332.143 15.08 332.943 15.08C333.65 15.08 334.496 14.8267 335.483 14.32L335.983 15.46L332.843 17.24L331.923 17.3C330.443 17.3 329.21 16.8333 328.223 15.9C327.25 14.9667 326.763 13.7733 326.763 12.32C326.763 10.84 327.256 9.58667 328.243 8.56C329.243 7.52 330.45 7 331.863 7C333.156 7 334.21 7.39333 335.023 8.18C335.836 8.95333 336.236 9.98 336.223 11.26L335.063 12.42ZM331.323 8.66C330.683 9.06 330.276 9.79333 330.103 10.86L333.103 10.68C333.023 10.1333 332.816 9.66667 332.483 9.28C332.163 8.88 331.776 8.67333 331.323 8.66ZM342.323 14.78C342.79 14.78 343.323 14.72 343.923 14.6L344.063 15.64L340.763 17.34C340.096 17.3667 339.483 17.16 338.923 16.72C338.376 16.2667 338.103 15.74 338.103 15.14V9.78H336.643L336.583 8.7C337.023 8.32667 337.59 7.94 338.283 7.54L339.383 4.86H340.963L341.463 7.54H344.223L344.243 8.54L343.243 9.8H341.563V13.92C341.563 14.4933 341.816 14.78 342.323 14.78ZM344.81 12.14C344.81 10.6333 345.283 9.4 346.23 8.44C347.177 7.48 348.377 7 349.83 7C351.283 7 352.477 7.48667 353.41 8.46C354.343 9.43333 354.81 10.6933 354.81 12.24C354.81 13.7733 354.35 15.02 353.43 15.98C352.523 16.9267 351.35 17.4 349.91 17.4C348.443 17.4 347.223 16.9067 346.25 15.92C345.29 14.92 344.81 13.66 344.81 12.14ZM350.57 15.5C351.063 15.1267 351.31 14.1133 351.31 12.46C351.31 10.1 350.77 8.92 349.69 8.92C349.357 8.92 349.097 8.99333 348.91 9.14C348.51 9.67333 348.31 10.6867 348.31 12.18C348.31 13.1933 348.45 14.02 348.73 14.66C349.01 15.2867 349.437 15.6 350.01 15.6C350.197 15.6 350.383 15.5667 350.57 15.5ZM358.917 9.38C358.917 9.62 359.003 9.84 359.177 10.04C359.35 10.2267 359.97 10.6 361.037 11.16C362.103 11.7067 362.823 12.22 363.197 12.7C363.57 13.1667 363.757 13.7 363.757 14.3C363.757 15.2067 363.383 15.9533 362.637 16.54C361.89 17.1133 360.897 17.4 359.657 17.4C358.257 17.4 356.863 17.04 355.477 16.32L356.617 13.7C357.777 14.5933 358.977 15.26 360.217 15.7C360.457 15.4867 360.577 15.24 360.577 14.96C360.577 14.7067 360.477 14.48 360.277 14.28C360.09 14.08 359.477 13.72 358.437 13.2C357.41 12.6667 356.71 12.1733 356.337 11.72C355.977 11.2533 355.797 10.7267 355.797 10.14C355.797 9.20667 356.203 8.45333 357.017 7.88C357.843 7.29333 358.91 7 360.217 7C361.43 7 362.463 7.22 363.317 7.66L363.357 8.36C363.357 9.05333 363.243 9.75333 363.017 10.46H361.257L360.637 8.64L359.717 8.54C359.183 8.7 358.917 8.98 358.917 9.38ZM386.769 15.28C387.409 15.5067 387.923 15.7533 388.309 16.02L388.249 17H383.309V11.46C383.309 10.1133 382.883 9.44 382.029 9.44C381.656 9.44 381.243 9.54667 380.789 9.76L380.809 15.36C381.223 15.5333 381.623 15.7533 382.009 16.02L381.949 17H377.349V11.46C377.349 10.1133 376.923 9.44 376.069 9.44C375.736 9.44 375.336 9.54 374.869 9.74V15.38C375.349 15.5933 375.736 15.8067 376.029 16.02L375.989 17H369.969L369.929 16.3C370.343 16.06 370.836 15.84 371.409 15.64V9.02L369.929 8.74L369.829 7.78C371.016 7.32667 372.336 7.08 373.789 7.04L374.869 8.12V8.68C375.923 7.90667 376.896 7.38 377.789 7.1C379.043 7.14 379.969 7.62 380.569 8.54L380.689 8.8C381.769 7.97333 382.789 7.40667 383.749 7.1C385.003 7.14 385.929 7.62 386.529 8.54C386.676 8.80667 386.756 9.41333 386.769 10.36V15.28ZM399.401 15.86L396.761 17.34C396.388 17.3267 396.015 17.1867 395.641 16.92C395.268 16.6533 394.961 16.3067 394.721 15.88L392.601 17.26L391.921 17.32C391.055 17.32 390.328 17.0667 389.741 16.56C389.168 16.0533 388.881 15.44 388.881 14.72C388.881 13.72 389.421 12.9333 390.501 12.36L394.301 12.28V10.64C394.301 9.61333 393.995 8.94 393.381 8.62C392.955 8.64667 392.581 8.72667 392.261 8.86L391.781 11.06L389.821 11.1C389.568 10.38 389.441 9.62 389.441 8.82L389.481 8.08C390.281 7.77333 391.208 7.51333 392.261 7.3C393.315 7.07333 394.128 6.96 394.701 6.96C395.888 6.96 396.828 7.44667 397.521 8.42C397.668 8.67333 397.748 9.18 397.761 9.94V14.52C397.761 14.8667 397.928 15.04 398.261 15.04L398.801 15.02L399.281 14.98L399.401 15.86ZM392.301 14.5C392.301 14.8467 392.415 15.1333 392.641 15.36C393.041 15.3333 393.595 15.2067 394.301 14.98V13.5C392.968 13.4733 392.301 13.8067 392.301 14.5ZM403.116 14.62C404.196 14.6333 405.356 14.7467 406.596 14.96C407.836 15.16 408.956 15.42 409.956 15.74C410.143 16.1933 410.236 16.6333 410.236 17.06C410.236 18.34 409.609 19.4733 408.356 20.46C407.116 21.4467 405.656 21.94 403.976 21.94C402.856 21.94 401.869 21.6867 401.016 21.18C400.163 20.6867 399.696 19.9133 399.616 18.86L401.696 17L400.636 16.94L400.216 15.46C400.989 14.66 401.749 14.0333 402.496 13.58C401.683 13.3 401.049 12.8867 400.596 12.34C400.156 11.78 399.936 11.16 399.936 10.48C399.936 9.48 400.383 8.64 401.276 7.96C402.183 7.26667 403.316 6.92 404.676 6.92C405.756 6.92 406.703 7.14 407.516 7.58C407.916 6.46 408.816 5.86 410.216 5.78L410.776 8.62L410.076 8.56C409.649 8.56 409.249 8.63333 408.876 8.78C409.209 9.27333 409.376 9.82 409.376 10.42C409.376 11.42 408.929 12.2467 408.036 12.9C407.143 13.5533 405.996 13.88 404.596 13.88L403.996 13.86L403.116 14.62ZM403.816 8.6C403.469 8.89333 403.296 9.49333 403.296 10.4C403.296 10.9867 403.429 11.4733 403.696 11.86C403.963 12.2467 404.343 12.44 404.836 12.44C405.023 12.44 405.203 12.4133 405.376 12.36C405.816 12.0533 406.036 11.4733 406.036 10.62C406.036 10.06 405.883 9.56667 405.576 9.14C405.269 8.7 404.876 8.48 404.396 8.48C404.209 8.48 404.016 8.52 403.816 8.6ZM404.516 19.38C405.183 19.38 405.823 19.2733 406.436 19.06C407.049 18.8467 407.503 18.5467 407.796 18.16C406.649 17.7067 405.036 17.36 402.956 17.12C402.516 17.52 402.296 17.8867 402.296 18.22C402.296 18.9933 403.036 19.38 404.516 19.38ZM414.578 5.98C413.658 5.56667 412.864 4.96 412.198 4.16C412.731 3.13333 413.391 2.33333 414.178 1.76C415.071 2.22667 415.824 2.90667 416.438 3.8C415.998 4.68 415.378 5.40667 414.578 5.98ZM416.118 15.32C416.704 15.52 417.184 15.7533 417.558 16.02L417.518 17H411.178L411.138 16.3C411.604 16.0333 412.111 15.8067 412.658 15.62V9.02L411.178 8.74L411.078 7.78C412.264 7.32667 413.584 7.08 415.038 7.04L416.118 8V15.32ZM423.952 17.26L423.072 17.32C421.632 17.32 420.432 16.8467 419.472 15.9C418.525 14.94 418.052 13.7133 418.052 12.22C418.052 10.7133 418.532 9.46667 419.492 8.48C420.452 7.49333 421.659 7 423.112 7C424.045 7 424.879 7.22667 425.612 7.68C426.345 8.12 426.839 8.76 427.092 9.6L424.352 11.14C423.779 10.0067 423.112 9.23333 422.352 8.82C421.712 9.51333 421.392 10.4733 421.392 11.7C421.392 12.7 421.632 13.5133 422.112 14.14C422.605 14.7667 423.299 15.08 424.192 15.08C424.819 15.08 425.545 14.88 426.372 14.48L426.852 15.58L423.952 17.26ZM427.31 12.14C427.31 10.6333 427.783 9.4 428.73 8.44C429.677 7.48 430.877 7 432.33 7C433.783 7 434.977 7.48667 435.91 8.46C436.843 9.43333 437.31 10.6933 437.31 12.24C437.31 13.7733 436.85 15.02 435.93 15.98C435.023 16.9267 433.85 17.4 432.41 17.4C430.943 17.4 429.723 16.9067 428.75 15.92C427.79 14.92 427.31 13.66 427.31 12.14ZM433.07 15.5C433.563 15.1267 433.81 14.1133 433.81 12.46C433.81 10.1 433.27 8.92 432.19 8.92C431.857 8.92 431.597 8.99333 431.41 9.14C431.01 9.67333 430.81 10.6867 430.81 12.18C430.81 13.1933 430.95 14.02 431.23 14.66C431.51 15.2867 431.937 15.6 432.51 15.6C432.697 15.6 432.883 15.5667 433.07 15.5ZM441.417 9.38C441.417 9.62 441.503 9.84 441.677 10.04C441.85 10.2267 442.47 10.6 443.537 11.16C444.603 11.7067 445.323 12.22 445.697 12.7C446.07 13.1667 446.257 13.7 446.257 14.3C446.257 15.2067 445.883 15.9533 445.137 16.54C444.39 17.1133 443.397 17.4 442.157 17.4C440.757 17.4 439.363 17.04 437.977 16.32L439.117 13.7C440.277 14.5933 441.477 15.26 442.717 15.7C442.957 15.4867 443.077 15.24 443.077 14.96C443.077 14.7067 442.977 14.48 442.777 14.28C442.59 14.08 441.977 13.72 440.937 13.2C439.91 12.6667 439.21 12.1733 438.837 11.72C438.477 11.2533 438.297 10.7267 438.297 10.14C438.297 9.20667 438.703 8.45333 439.517 7.88C440.343 7.29333 441.41 7 442.717 7C443.93 7 444.963 7.22 445.817 7.66L445.857 8.36C445.857 9.05333 445.743 9.75333 445.517 10.46H443.757L443.137 8.64L442.217 8.54C441.683 8.7 441.417 8.98 441.417 9.38Z" fill="#7EA172"/>
<defs>
<filter id="filter0_d" x="0" y="4" width="519" height="540" filterUnits="userSpaceOnUse" color-interpolation-filters="sRGB">
<feFlood flood-opacity="0" result="BackgroundImageFix"/>
<feColorMatrix in="SourceAlpha" type="matrix" values="0 0 0 0 0 0 0 0 0 0 0 0 0 0 0 0 0 0 127 0"/>
<feOffset dy="4"/>
<feGaussianBlur stdDeviation="5"/>
<feColorMatrix type="matrix" values="0 0 0 0 0.494118 0 0 0 0 0.631373 0 0 0 0 0.447059 0 0 0 0.25 0"/>
<feBlend mode="normal" in2="BackgroundImageFix" result="effect1_dropShadow"/>
<feBlend mode="normal" in="SourceGraphic" in2="effect1_dropShadow" result="shape"/>
</filter>
</defs>
</svg>
