<svg width="500" height="530" viewBox="0 0 500 530" fill="none" xmlns="http://www.w3.org/2000/svg">
<rect x="1.5" y="11.5" width="497" height="517" rx="30.5" fill="#BFCCD3" stroke="#83C55B" stroke-width="3"/>
<rect x="48" width="264.29" height="23" fill="#BFCCD3"/>
<path d="M62.38 5.72V20H72.48V17.36H65.52V5.72H62.38ZM73.8155 12.84C73.8555 12.1733 74.0221 11.62 74.3155 11.18C74.6088 10.74 74.9821 10.3867 75.4355 10.12C75.8888 9.85333 76.3955 9.66667 76.9555 9.56C77.5288 9.44 78.1021 9.38 78.6755 9.38C79.1955 9.38 79.7221 9.42 80.2555 9.5C80.7888 9.56667 81.2755 9.70667 81.7155 9.92C82.1555 10.1333 82.5155 10.4333 82.7955 10.82C83.0755 11.1933 83.2155 11.6933 83.2155 12.32V17.7C83.2155 18.1667 83.2421 18.6133 83.2955 19.04C83.3488 19.4667 83.4421 19.7867 83.5755 20H80.6955C80.6421 19.84 80.5955 19.68 80.5555 19.52C80.5288 19.3467 80.5088 19.1733 80.4955 19C80.0421 19.4667 79.5088 19.7933 78.8955 19.98C78.2821 20.1667 77.6555 20.26 77.0155 20.26C76.5221 20.26 76.0621 20.2 75.6355 20.08C75.2088 19.96 74.8355 19.7733 74.5155 19.52C74.1955 19.2667 73.9421 18.9467 73.7555 18.56C73.5821 18.1733 73.4955 17.7133 73.4955 17.18C73.4955 16.5933 73.5955 16.1133 73.7955 15.74C74.0088 15.3533 74.2755 15.0467 74.5955 14.82C74.9288 14.5933 75.3021 14.4267 75.7155 14.32C76.1421 14.2 76.5688 14.1067 76.9955 14.04C77.4221 13.9733 77.8421 13.92 78.2555 13.88C78.6688 13.84 79.0355 13.78 79.3555 13.7C79.6755 13.62 79.9288 13.5067 80.1155 13.36C80.3021 13.2 80.3888 12.9733 80.3755 12.68C80.3755 12.3733 80.3221 12.1333 80.2155 11.96C80.1221 11.7733 79.9888 11.6333 79.8155 11.54C79.6555 11.4333 79.4621 11.3667 79.2355 11.34C79.0221 11.3 78.7888 11.28 78.5355 11.28C77.9755 11.28 77.5355 11.4 77.2155 11.64C76.8955 11.88 76.7088 12.28 76.6555 12.84H73.8155ZM80.3755 14.94C80.2555 15.0467 80.1021 15.1333 79.9155 15.2C79.7421 15.2533 79.5488 15.3 79.3355 15.34C79.1355 15.38 78.9221 15.4133 78.6955 15.44C78.4688 15.4667 78.2421 15.5 78.0155 15.54C77.8021 15.58 77.5888 15.6333 77.3755 15.7C77.1755 15.7667 76.9955 15.86 76.8355 15.98C76.6888 16.0867 76.5688 16.2267 76.4755 16.4C76.3821 16.5733 76.3355 16.7933 76.3355 17.06C76.3355 17.3133 76.3821 17.5267 76.4755 17.7C76.5688 17.8733 76.6955 18.0133 76.8555 18.12C77.0155 18.2133 77.2021 18.28 77.4155 18.32C77.6288 18.36 77.8488 18.38 78.0755 18.38C78.6355 18.38 79.0688 18.2867 79.3755 18.1C79.6821 17.9133 79.9088 17.6933 80.0555 17.44C80.2021 17.1733 80.2888 16.9067 80.3155 16.64C80.3555 16.3733 80.3755 16.16 80.3755 16V14.94ZM91.0663 5.72V20H93.9063V5.72H91.0663ZM103.103 13.72H98.4825C98.4958 13.52 98.5358 13.2933 98.6025 13.04C98.6825 12.7867 98.8092 12.5467 98.9825 12.32C99.1692 12.0933 99.4092 11.9067 99.7025 11.76C100.009 11.6 100.389 11.52 100.843 11.52C101.536 11.52 102.049 11.7067 102.383 12.08C102.729 12.4533 102.969 13 103.103 13.72ZM98.4825 15.52H105.943C105.996 14.72 105.929 13.9533 105.743 13.22C105.556 12.4867 105.249 11.8333 104.823 11.26C104.409 10.6867 103.876 10.2333 103.223 9.9C102.569 9.55333 101.803 9.38 100.923 9.38C100.136 9.38 99.4158 9.52 98.7625 9.8C98.1225 10.08 97.5692 10.4667 97.1025 10.96C96.6358 11.44 96.2758 12.0133 96.0225 12.68C95.7692 13.3467 95.6425 14.0667 95.6425 14.84C95.6425 15.64 95.7625 16.3733 96.0025 17.04C96.2558 17.7067 96.6092 18.28 97.0625 18.76C97.5158 19.24 98.0692 19.6133 98.7225 19.88C99.3758 20.1333 100.109 20.26 100.923 20.26C102.096 20.26 103.096 19.9933 103.923 19.46C104.749 18.9267 105.363 18.04 105.763 16.8H103.263C103.169 17.12 102.916 17.4267 102.503 17.72C102.089 18 101.596 18.14 101.023 18.14C100.223 18.14 99.6092 17.9333 99.1825 17.52C98.7558 17.1067 98.5225 16.44 98.4825 15.52ZM112.727 21.28L117.047 9.66H114.107L111.847 16.74H111.807L109.467 9.66H106.447L110.067 19.36C110.147 19.56 110.187 19.7733 110.187 20C110.187 20.3067 110.094 20.5867 109.907 20.84C109.734 21.0933 109.46 21.24 109.087 21.28C108.807 21.2933 108.527 21.2867 108.247 21.26C107.967 21.2333 107.694 21.2067 107.427 21.18V23.52C107.72 23.5467 108.007 23.5667 108.287 23.58C108.58 23.6067 108.874 23.62 109.167 23.62C110.14 23.62 110.9 23.44 111.447 23.08C111.994 22.72 112.42 22.12 112.727 21.28ZM124.958 13.72H120.338C120.351 13.52 120.391 13.2933 120.458 13.04C120.538 12.7867 120.665 12.5467 120.838 12.32C121.025 12.0933 121.265 11.9067 121.558 11.76C121.865 11.6 122.245 11.52 122.698 11.52C123.391 11.52 123.905 11.7067 124.238 12.08C124.585 12.4533 124.825 13 124.958 13.72ZM120.338 15.52H127.798C127.851 14.72 127.785 13.9533 127.598 13.22C127.411 12.4867 127.105 11.8333 126.678 11.26C126.265 10.6867 125.731 10.2333 125.078 9.9C124.425 9.55333 123.658 9.38 122.778 9.38C121.991 9.38 121.271 9.52 120.618 9.8C119.978 10.08 119.425 10.4667 118.958 10.96C118.491 11.44 118.131 12.0133 117.878 12.68C117.625 13.3467 117.498 14.0667 117.498 14.84C117.498 15.64 117.618 16.3733 117.858 17.04C118.111 17.7067 118.465 18.28 118.918 18.76C119.371 19.24 119.925 19.6133 120.578 19.88C121.231 20.1333 121.965 20.26 122.778 20.26C123.951 20.26 124.951 19.9933 125.778 19.46C126.605 18.9267 127.218 18.04 127.618 16.8H125.118C125.025 17.12 124.771 17.4267 124.358 17.72C123.945 18 123.451 18.14 122.878 18.14C122.078 18.14 121.465 17.9333 121.038 17.52C120.611 17.1067 120.378 16.44 120.338 15.52ZM129.482 9.66V20H132.322V14.58C132.322 13.5267 132.496 12.7733 132.842 12.32C133.189 11.8533 133.749 11.62 134.522 11.62C135.202 11.62 135.676 11.8333 135.942 12.26C136.209 12.6733 136.342 13.3067 136.342 14.16V20H139.182V13.64C139.182 13 139.122 12.42 139.002 11.9C138.896 11.3667 138.702 10.92 138.422 10.56C138.142 10.1867 137.756 9.9 137.262 9.7C136.782 9.48667 136.162 9.38 135.402 9.38C134.802 9.38 134.216 9.52 133.642 9.8C133.069 10.0667 132.602 10.5 132.242 11.1H132.182V9.66H129.482ZM148.678 14.8C148.678 15.2267 148.638 15.64 148.558 16.04C148.478 16.44 148.344 16.8 148.158 17.12C147.971 17.4267 147.718 17.6733 147.398 17.86C147.091 18.0467 146.704 18.14 146.238 18.14C145.798 18.14 145.418 18.0467 145.098 17.86C144.791 17.66 144.531 17.4067 144.318 17.1C144.118 16.78 143.971 16.42 143.878 16.02C143.784 15.62 143.738 15.22 143.738 14.82C143.738 14.3933 143.778 13.9867 143.858 13.6C143.951 13.2 144.091 12.8467 144.278 12.54C144.478 12.2333 144.738 11.9867 145.058 11.8C145.378 11.6133 145.771 11.52 146.238 11.52C146.704 11.52 147.091 11.6133 147.398 11.8C147.704 11.9867 147.951 12.2333 148.138 12.54C148.338 12.8333 148.478 13.18 148.558 13.58C148.638 13.9667 148.678 14.3733 148.678 14.8ZM148.718 18.68V20H151.418V5.72H148.578V10.92H148.538C148.218 10.4133 147.778 10.0333 147.218 9.78C146.671 9.51333 146.091 9.38 145.478 9.38C144.718 9.38 144.051 9.53333 143.478 9.84C142.904 10.1333 142.424 10.5267 142.038 11.02C141.664 11.5133 141.378 12.0867 141.178 12.74C140.991 13.38 140.898 14.0467 140.898 14.74C140.898 15.46 140.991 16.1533 141.178 16.82C141.378 17.4867 141.664 18.08 142.038 18.6C142.424 19.1067 142.911 19.5133 143.498 19.82C144.084 20.1133 144.764 20.26 145.538 20.26C146.218 20.26 146.824 20.14 147.358 19.9C147.904 19.6467 148.344 19.24 148.678 18.68H148.718ZM153.444 12.84C153.484 12.1733 153.651 11.62 153.944 11.18C154.238 10.74 154.611 10.3867 155.064 10.12C155.518 9.85333 156.024 9.66667 156.584 9.56C157.158 9.44 157.731 9.38 158.304 9.38C158.824 9.38 159.351 9.42 159.884 9.5C160.418 9.56667 160.904 9.70667 161.344 9.92C161.784 10.1333 162.144 10.4333 162.424 10.82C162.704 11.1933 162.844 11.6933 162.844 12.32V17.7C162.844 18.1667 162.871 18.6133 162.924 19.04C162.978 19.4667 163.071 19.7867 163.204 20H160.324C160.271 19.84 160.224 19.68 160.184 19.52C160.158 19.3467 160.138 19.1733 160.124 19C159.671 19.4667 159.138 19.7933 158.524 19.98C157.911 20.1667 157.284 20.26 156.644 20.26C156.151 20.26 155.691 20.2 155.264 20.08C154.838 19.96 154.464 19.7733 154.144 19.52C153.824 19.2667 153.571 18.9467 153.384 18.56C153.211 18.1733 153.124 17.7133 153.124 17.18C153.124 16.5933 153.224 16.1133 153.424 15.74C153.638 15.3533 153.904 15.0467 154.224 14.82C154.558 14.5933 154.931 14.4267 155.344 14.32C155.771 14.2 156.198 14.1067 156.624 14.04C157.051 13.9733 157.471 13.92 157.884 13.88C158.298 13.84 158.664 13.78 158.984 13.7C159.304 13.62 159.558 13.5067 159.744 13.36C159.931 13.2 160.018 12.9733 160.004 12.68C160.004 12.3733 159.951 12.1333 159.844 11.96C159.751 11.7733 159.618 11.6333 159.444 11.54C159.284 11.4333 159.091 11.3667 158.864 11.34C158.651 11.3 158.418 11.28 158.164 11.28C157.604 11.28 157.164 11.4 156.844 11.64C156.524 11.88 156.338 12.28 156.284 12.84H153.444ZM160.004 14.94C159.884 15.0467 159.731 15.1333 159.544 15.2C159.371 15.2533 159.178 15.3 158.964 15.34C158.764 15.38 158.551 15.4133 158.324 15.44C158.098 15.4667 157.871 15.5 157.644 15.54C157.431 15.58 157.218 15.6333 157.004 15.7C156.804 15.7667 156.624 15.86 156.464 15.98C156.318 16.0867 156.198 16.2267 156.104 16.4C156.011 16.5733 155.964 16.7933 155.964 17.06C155.964 17.3133 156.011 17.5267 156.104 17.7C156.198 17.8733 156.324 18.0133 156.484 18.12C156.644 18.2133 156.831 18.28 157.044 18.32C157.258 18.36 157.478 18.38 157.704 18.38C158.264 18.38 158.698 18.2867 159.004 18.1C159.311 17.9133 159.538 17.6933 159.684 17.44C159.831 17.1733 159.918 16.9067 159.944 16.64C159.984 16.3733 160.004 16.16 160.004 16V14.94ZM177.955 14.8C177.955 15.2267 177.915 15.64 177.835 16.04C177.755 16.44 177.622 16.8 177.435 17.12C177.248 17.4267 176.995 17.6733 176.675 17.86C176.368 18.0467 175.982 18.14 175.515 18.14C175.075 18.14 174.695 18.0467 174.375 17.86C174.068 17.66 173.808 17.4067 173.595 17.1C173.395 16.78 173.248 16.42 173.155 16.02C173.062 15.62 173.015 15.22 173.015 14.82C173.015 14.3933 173.055 13.9867 173.135 13.6C173.228 13.2 173.368 12.8467 173.555 12.54C173.755 12.2333 174.015 11.9867 174.335 11.8C174.655 11.6133 175.048 11.52 175.515 11.52C175.982 11.52 176.368 11.6133 176.675 11.8C176.982 11.9867 177.228 12.2333 177.415 12.54C177.615 12.8333 177.755 13.18 177.835 13.58C177.915 13.9667 177.955 14.3733 177.955 14.8ZM177.995 18.68V20H180.695V5.72H177.855V10.92H177.815C177.495 10.4133 177.055 10.0333 176.495 9.78C175.948 9.51333 175.368 9.38 174.755 9.38C173.995 9.38 173.328 9.53333 172.755 9.84C172.182 10.1333 171.702 10.5267 171.315 11.02C170.942 11.5133 170.655 12.0867 170.455 12.74C170.268 13.38 170.175 14.0467 170.175 14.74C170.175 15.46 170.268 16.1533 170.455 16.82C170.655 17.4867 170.942 18.08 171.315 18.6C171.702 19.1067 172.188 19.5133 172.775 19.82C173.362 20.1133 174.042 20.26 174.815 20.26C175.495 20.26 176.102 20.14 176.635 19.9C177.182 19.6467 177.622 19.24 177.955 18.68H177.995ZM189.802 13.72H185.182C185.195 13.52 185.235 13.2933 185.302 13.04C185.382 12.7867 185.508 12.5467 185.682 12.32C185.868 12.0933 186.108 11.9067 186.402 11.76C186.708 11.6 187.088 11.52 187.542 11.52C188.235 11.52 188.748 11.7067 189.082 12.08C189.428 12.4533 189.668 13 189.802 13.72ZM185.182 15.52H192.642C192.695 14.72 192.628 13.9533 192.442 13.22C192.255 12.4867 191.948 11.8333 191.522 11.26C191.108 10.6867 190.575 10.2333 189.922 9.9C189.268 9.55333 188.502 9.38 187.622 9.38C186.835 9.38 186.115 9.52 185.462 9.8C184.822 10.08 184.268 10.4667 183.802 10.96C183.335 11.44 182.975 12.0133 182.722 12.68C182.468 13.3467 182.342 14.0667 182.342 14.84C182.342 15.64 182.462 16.3733 182.702 17.04C182.955 17.7067 183.308 18.28 183.762 18.76C184.215 19.24 184.768 19.6133 185.422 19.88C186.075 20.1333 186.808 20.26 187.622 20.26C188.795 20.26 189.795 19.9933 190.622 19.46C191.448 18.9267 192.062 18.04 192.462 16.8H189.962C189.868 17.12 189.615 17.4267 189.202 17.72C188.788 18 188.295 18.14 187.722 18.14C186.922 18.14 186.308 17.9333 185.882 17.52C185.455 17.1067 185.222 16.44 185.182 15.52ZM199.973 5.72V20H202.813V5.72H199.973ZM204.929 12.84C204.969 12.1733 205.135 11.62 205.429 11.18C205.722 10.74 206.095 10.3867 206.549 10.12C207.002 9.85333 207.509 9.66667 208.069 9.56C208.642 9.44 209.215 9.38 209.789 9.38C210.309 9.38 210.835 9.42 211.369 9.5C211.902 9.56667 212.389 9.70667 212.829 9.92C213.269 10.1333 213.629 10.4333 213.909 10.82C214.189 11.1933 214.329 11.6933 214.329 12.32V17.7C214.329 18.1667 214.355 18.6133 214.409 19.04C214.462 19.4667 214.555 19.7867 214.689 20H211.809C211.755 19.84 211.709 19.68 211.669 19.52C211.642 19.3467 211.622 19.1733 211.609 19C211.155 19.4667 210.622 19.7933 210.009 19.98C209.395 20.1667 208.769 20.26 208.129 20.26C207.635 20.26 207.175 20.2 206.749 20.08C206.322 19.96 205.949 19.7733 205.629 19.52C205.309 19.2667 205.055 18.9467 204.869 18.56C204.695 18.1733 204.609 17.7133 204.609 17.18C204.609 16.5933 204.709 16.1133 204.909 15.74C205.122 15.3533 205.389 15.0467 205.709 14.82C206.042 14.5933 206.415 14.4267 206.829 14.32C207.255 14.2 207.682 14.1067 208.109 14.04C208.535 13.9733 208.955 13.92 209.369 13.88C209.782 13.84 210.149 13.78 210.469 13.7C210.789 13.62 211.042 13.5067 211.229 13.36C211.415 13.2 211.502 12.9733 211.489 12.68C211.489 12.3733 211.435 12.1333 211.329 11.96C211.235 11.7733 211.102 11.6333 210.929 11.54C210.769 11.4333 210.575 11.3667 210.349 11.34C210.135 11.3 209.902 11.28 209.649 11.28C209.089 11.28 208.649 11.4 208.329 11.64C208.009 11.88 207.822 12.28 207.769 12.84H204.929ZM211.489 14.94C211.369 15.0467 211.215 15.1333 211.029 15.2C210.855 15.2533 210.662 15.3 210.449 15.34C210.249 15.38 210.035 15.4133 209.809 15.44C209.582 15.4667 209.355 15.5 209.129 15.54C208.915 15.58 208.702 15.6333 208.489 15.7C208.289 15.7667 208.109 15.86 207.949 15.98C207.802 16.0867 207.682 16.2267 207.589 16.4C207.495 16.5733 207.449 16.7933 207.449 17.06C207.449 17.3133 207.495 17.5267 207.589 17.7C207.682 17.8733 207.809 18.0133 207.969 18.12C208.129 18.2133 208.315 18.28 208.529 18.32C208.742 18.36 208.962 18.38 209.189 18.38C209.749 18.38 210.182 18.2867 210.489 18.1C210.795 17.9133 211.022 17.6933 211.169 17.44C211.315 17.1733 211.402 16.9067 211.429 16.64C211.469 16.3733 211.489 16.16 211.489 16V14.94ZM227.32 18.14C226.866 18.14 226.48 18.0467 226.16 17.86C225.84 17.6733 225.58 17.4333 225.38 17.14C225.193 16.8333 225.053 16.48 224.96 16.08C224.88 15.68 224.84 15.2733 224.84 14.86C224.84 14.4333 224.88 14.02 224.96 13.62C225.04 13.22 225.173 12.8667 225.36 12.56C225.56 12.2533 225.813 12.0067 226.12 11.82C226.44 11.62 226.833 11.52 227.3 11.52C227.753 11.52 228.133 11.62 228.44 11.82C228.76 12.0067 229.02 12.26 229.22 12.58C229.42 12.8867 229.56 13.24 229.64 13.64C229.733 14.04 229.78 14.4467 229.78 14.86C229.78 15.2733 229.74 15.68 229.66 16.08C229.58 16.48 229.44 16.8333 229.24 17.14C229.053 17.4333 228.8 17.6733 228.48 17.86C228.173 18.0467 227.786 18.14 227.32 18.14ZM222.1 9.66V23.62H224.94V18.72H224.98C225.326 19.2267 225.766 19.6133 226.3 19.88C226.846 20.1333 227.44 20.26 228.08 20.26C228.84 20.26 229.5 20.1133 230.06 19.82C230.633 19.5267 231.106 19.1333 231.48 18.64C231.866 18.1467 232.153 17.58 232.34 16.94C232.526 16.3 232.62 15.6333 232.62 14.94C232.62 14.2067 232.526 13.5067 232.34 12.84C232.153 12.16 231.866 11.5667 231.48 11.06C231.093 10.5533 230.606 10.1467 230.02 9.84C229.433 9.53333 228.733 9.38 227.92 9.38C227.28 9.38 226.693 9.50667 226.16 9.76C225.626 10.0133 225.186 10.42 224.84 10.98H224.8V9.66H222.1ZM234.326 9.66V20H237.166V15.34C237.166 14.8733 237.213 14.44 237.306 14.04C237.399 13.64 237.553 13.2933 237.766 13C237.993 12.6933 238.286 12.4533 238.646 12.28C239.006 12.1067 239.446 12.02 239.966 12.02C240.139 12.02 240.319 12.0333 240.506 12.06C240.693 12.0733 240.853 12.0933 240.986 12.12V9.48C240.759 9.41333 240.553 9.38 240.366 9.38C240.006 9.38 239.659 9.43333 239.326 9.54C238.993 9.64667 238.679 9.8 238.386 10C238.093 10.1867 237.833 10.42 237.606 10.7C237.379 10.9667 237.199 11.26 237.066 11.58H237.026V9.66H234.326ZM245.02 8.06V5.72H242.18V8.06H245.02ZM242.18 9.66V20H245.02V9.66H242.18ZM247.256 9.66V20H250.096V14.58C250.096 13.5267 250.269 12.7733 250.616 12.32C250.962 11.8533 251.522 11.62 252.296 11.62C252.976 11.62 253.449 11.8333 253.716 12.26C253.982 12.6733 254.116 13.3067 254.116 14.16V20H256.956V13.64C256.956 13 256.896 12.42 256.776 11.9C256.669 11.3667 256.476 10.92 256.196 10.56C255.916 10.1867 255.529 9.9 255.036 9.7C254.556 9.48667 253.936 9.38 253.176 9.38C252.576 9.38 251.989 9.52 251.416 9.8C250.842 10.0667 250.376 10.5 250.016 11.1H249.956V9.66H247.256ZM266.151 13.3H268.931C268.891 12.6333 268.731 12.06 268.451 11.58C268.171 11.0867 267.805 10.68 267.351 10.36C266.911 10.0267 266.405 9.78 265.831 9.62C265.271 9.46 264.685 9.38 264.071 9.38C263.231 9.38 262.485 9.52 261.831 9.8C261.178 10.08 260.625 10.4733 260.171 10.98C259.718 11.4733 259.371 12.0667 259.131 12.76C258.905 13.44 258.791 14.18 258.791 14.98C258.791 15.7533 258.918 16.4667 259.171 17.12C259.425 17.76 259.778 18.3133 260.231 18.78C260.685 19.2467 261.231 19.6133 261.871 19.88C262.525 20.1333 263.238 20.26 264.011 20.26C265.385 20.26 266.511 19.9 267.391 19.18C268.271 18.46 268.805 17.4133 268.991 16.04H266.251C266.158 16.68 265.925 17.1933 265.551 17.58C265.191 17.9533 264.671 18.14 263.991 18.14C263.551 18.14 263.178 18.04 262.871 17.84C262.565 17.64 262.318 17.3867 262.131 17.08C261.958 16.76 261.831 16.4067 261.751 16.02C261.671 15.6333 261.631 15.2533 261.631 14.88C261.631 14.4933 261.671 14.1067 261.751 13.72C261.831 13.32 261.965 12.96 262.151 12.64C262.351 12.3067 262.605 12.04 262.911 11.84C263.218 11.6267 263.598 11.52 264.051 11.52C265.265 11.52 265.965 12.1133 266.151 13.3ZM277.556 13.72H272.936C272.949 13.52 272.989 13.2933 273.056 13.04C273.136 12.7867 273.262 12.5467 273.436 12.32C273.622 12.0933 273.862 11.9067 274.156 11.76C274.462 11.6 274.842 11.52 275.296 11.52C275.989 11.52 276.502 11.7067 276.836 12.08C277.182 12.4533 277.422 13 277.556 13.72ZM272.936 15.52H280.396C280.449 14.72 280.382 13.9533 280.196 13.22C280.009 12.4867 279.702 11.8333 279.276 11.26C278.862 10.6867 278.329 10.2333 277.676 9.9C277.022 9.55333 276.256 9.38 275.376 9.38C274.589 9.38 273.869 9.52 273.216 9.8C272.576 10.08 272.022 10.4667 271.556 10.96C271.089 11.44 270.729 12.0133 270.476 12.68C270.222 13.3467 270.096 14.0667 270.096 14.84C270.096 15.64 270.216 16.3733 270.456 17.04C270.709 17.7067 271.062 18.28 271.516 18.76C271.969 19.24 272.522 19.6133 273.176 19.88C273.829 20.1333 274.562 20.26 275.376 20.26C276.549 20.26 277.549 19.9933 278.376 19.46C279.202 18.9267 279.816 18.04 280.216 16.8H277.716C277.622 17.12 277.369 17.4267 276.956 17.72C276.542 18 276.049 18.14 275.476 18.14C274.676 18.14 274.062 17.9333 273.636 17.52C273.209 17.1067 272.976 16.44 272.936 15.52ZM284.28 16.64H281.58C281.607 17.3333 281.76 17.9133 282.04 18.38C282.333 18.8333 282.7 19.2 283.14 19.48C283.593 19.76 284.107 19.96 284.68 20.08C285.253 20.2 285.84 20.26 286.44 20.26C287.027 20.26 287.6 20.2 288.16 20.08C288.733 19.9733 289.24 19.78 289.68 19.5C290.12 19.22 290.473 18.8533 290.74 18.4C291.02 17.9333 291.16 17.36 291.16 16.68C291.16 16.2 291.067 15.8 290.88 15.48C290.693 15.1467 290.447 14.8733 290.14 14.66C289.833 14.4333 289.48 14.2533 289.08 14.12C288.693 13.9867 288.293 13.8733 287.88 13.78C287.48 13.6867 287.087 13.6 286.7 13.52C286.313 13.44 285.967 13.3533 285.66 13.26C285.367 13.1533 285.127 13.02 284.94 12.86C284.753 12.7 284.66 12.4933 284.66 12.24C284.66 12.0267 284.713 11.86 284.82 11.74C284.927 11.6067 285.053 11.5067 285.2 11.44C285.36 11.3733 285.533 11.3333 285.72 11.32C285.907 11.2933 286.08 11.28 286.24 11.28C286.747 11.28 287.187 11.38 287.56 11.58C287.933 11.7667 288.14 12.1333 288.18 12.68H290.88C290.827 12.04 290.66 11.5133 290.38 11.1C290.113 10.6733 289.773 10.3333 289.36 10.08C288.947 9.82667 288.473 9.64667 287.94 9.54C287.42 9.43333 286.88 9.38 286.32 9.38C285.76 9.38 285.213 9.43333 284.68 9.54C284.147 9.63333 283.667 9.80667 283.24 10.06C282.813 10.3 282.467 10.6333 282.2 11.06C281.947 11.4867 281.82 12.0333 281.82 12.7C281.82 13.1533 281.913 13.54 282.1 13.86C282.287 14.1667 282.533 14.4267 282.84 14.64C283.147 14.84 283.493 15.0067 283.88 15.14C284.28 15.26 284.687 15.3667 285.1 15.46C286.113 15.6733 286.9 15.8867 287.46 16.1C288.033 16.3133 288.32 16.6333 288.32 17.06C288.32 17.3133 288.26 17.5267 288.14 17.7C288.02 17.86 287.867 17.9933 287.68 18.1C287.507 18.1933 287.307 18.2667 287.08 18.32C286.867 18.36 286.66 18.38 286.46 18.38C286.18 18.38 285.907 18.3467 285.64 18.28C285.387 18.2133 285.16 18.1133 284.96 17.98C284.76 17.8333 284.593 17.6533 284.46 17.44C284.34 17.2133 284.28 16.9467 284.28 16.64ZM292.702 12.84C292.742 12.1733 292.909 11.62 293.202 11.18C293.496 10.74 293.869 10.3867 294.322 10.12C294.776 9.85333 295.282 9.66667 295.842 9.56C296.416 9.44 296.989 9.38 297.562 9.38C298.082 9.38 298.609 9.42 299.142 9.5C299.676 9.56667 300.162 9.70667 300.602 9.92C301.042 10.1333 301.402 10.4333 301.682 10.82C301.962 11.1933 302.102 11.6933 302.102 12.32V17.7C302.102 18.1667 302.129 18.6133 302.182 19.04C302.236 19.4667 302.329 19.7867 302.462 20H299.582C299.529 19.84 299.482 19.68 299.442 19.52C299.416 19.3467 299.396 19.1733 299.382 19C298.929 19.4667 298.396 19.7933 297.782 19.98C297.169 20.1667 296.542 20.26 295.902 20.26C295.409 20.26 294.949 20.2 294.522 20.08C294.096 19.96 293.722 19.7733 293.402 19.52C293.082 19.2667 292.829 18.9467 292.642 18.56C292.469 18.1733 292.382 17.7133 292.382 17.18C292.382 16.5933 292.482 16.1133 292.682 15.74C292.896 15.3533 293.162 15.0467 293.482 14.82C293.816 14.5933 294.189 14.4267 294.602 14.32C295.029 14.2 295.456 14.1067 295.882 14.04C296.309 13.9733 296.729 13.92 297.142 13.88C297.556 13.84 297.922 13.78 298.242 13.7C298.562 13.62 298.816 13.5067 299.002 13.36C299.189 13.2 299.276 12.9733 299.262 12.68C299.262 12.3733 299.209 12.1333 299.102 11.96C299.009 11.7733 298.876 11.6333 298.702 11.54C298.542 11.4333 298.349 11.3667 298.122 11.34C297.909 11.3 297.676 11.28 297.422 11.28C296.862 11.28 296.422 11.4 296.102 11.64C295.782 11.88 295.596 12.28 295.542 12.84H292.702ZM299.262 14.94C299.142 15.0467 298.989 15.1333 298.802 15.2C298.629 15.2533 298.436 15.3 298.222 15.34C298.022 15.38 297.809 15.4133 297.582 15.44C297.356 15.4667 297.129 15.5 296.902 15.54C296.689 15.58 296.476 15.6333 296.262 15.7C296.062 15.7667 295.882 15.86 295.722 15.98C295.576 16.0867 295.456 16.2267 295.362 16.4C295.269 16.5733 295.222 16.7933 295.222 17.06C295.222 17.3133 295.269 17.5267 295.362 17.7C295.456 17.8733 295.582 18.0133 295.742 18.12C295.902 18.2133 296.089 18.28 296.302 18.32C296.516 18.36 296.736 18.38 296.962 18.38C297.522 18.38 297.956 18.2867 298.262 18.1C298.569 17.9133 298.796 17.6933 298.942 17.44C299.089 17.1733 299.176 16.9067 299.202 16.64C299.242 16.3733 299.262 16.16 299.262 16V14.94Z" fill="#83C55B"/>
</svg>
