<svg width="177" height="143" viewBox="0 0 177 143" fill="none" xmlns="http://www.w3.org/2000/svg">
<g filter="url(#filter0_d)">
<path d="M51.9529 67.2637C-6.86911 65.1435 8.77006 81.2723 23.9424 89.6018C91.9675 109.744 134.651 102.79 147.489 96.7953C159.893 89.2231 147.656 85.9418 139.986 85.2477C161.994 86.1564 167.163 80.9569 166.996 78.2435C157.393 56.2841 118.645 59.8809 100.471 64.4242C84.8655 71.5421 78.2963 69.283 76.9625 67.2637C71.7606 62.5691 58.1219 65.3076 51.9529 67.2637Z" fill="#9FA152"/>
<path d="M53.5036 123.82C53.5036 125.567 53.4103 126.96 53.2236 128H41.7836L41.6636 127.36C42.1703 127.013 42.7369 126.7 43.3636 126.42V116.06L41.8236 115.82L41.8436 114.76H48.5636L48.6836 115.4C48.2036 115.747 47.6369 116.06 46.9836 116.34V126.14L50.5436 125.8L51.4436 122.9L53.5036 123.08V123.82ZM64.2958 126.86L61.6558 128.34C61.2824 128.327 60.9091 128.187 60.5358 127.92C60.1624 127.653 59.8558 127.307 59.6158 126.88L57.4958 128.26L56.8158 128.32C55.9491 128.32 55.2224 128.067 54.6358 127.56C54.0624 127.053 53.7758 126.44 53.7758 125.72C53.7758 124.72 54.3158 123.933 55.3958 123.36L59.1958 123.28V121.64C59.1958 120.613 58.8891 119.94 58.2758 119.62C57.8491 119.647 57.4758 119.727 57.1558 119.86L56.6758 122.06L54.7158 122.1C54.4624 121.38 54.3358 120.62 54.3358 119.82L54.3758 119.08C55.1758 118.773 56.1024 118.513 57.1558 118.3C58.2091 118.073 59.0224 117.96 59.5958 117.96C60.7824 117.96 61.7224 118.447 62.4158 119.42C62.5624 119.673 62.6424 120.18 62.6558 120.94V125.52C62.6558 125.867 62.8224 126.04 63.1558 126.04L63.6958 126.02L64.1758 125.98L64.2958 126.86ZM57.1958 125.5C57.1958 125.847 57.3091 126.133 57.5358 126.36C57.9358 126.333 58.4891 126.207 59.1958 125.98V124.5C57.8624 124.473 57.1958 124.807 57.1958 125.5ZM81.3983 114.82L81.4183 115.3C81.4183 116.593 81.2916 117.8 81.0383 118.92H79.0383L78.6583 116.74L75.4383 116.52V120.98L79.8783 120.64V122.92L75.4383 122.72V126.56L77.8783 126.94L77.8583 128H70.3583L70.2383 127.36C70.7583 127.013 71.2849 126.72 71.8183 126.48V116.04L70.3383 115.82L70.3583 114.76H81.4183L81.3983 114.82ZM93.9008 126.86L91.2408 128.34C90.8541 128.313 90.4608 128.147 90.0608 127.84C89.6741 127.533 89.3608 127.133 89.1208 126.64C88.0541 127.453 86.9808 128.02 85.9008 128.34C85.2208 128.34 84.5741 128.127 83.9608 127.7C83.3608 127.273 83.0208 126.74 82.9408 126.1L82.8808 124.96V120.02L81.4008 119.74L81.3008 118.78C82.4874 118.327 83.8074 118.08 85.2608 118.04L86.3408 119V124.28C86.3408 125.387 86.7608 125.94 87.6008 125.94C88.0141 125.94 88.4141 125.853 88.8008 125.68V119.96L87.6808 119.68L87.5808 118.72C88.6474 118.293 89.8474 118.067 91.1808 118.04L92.2608 119V125.52C92.2608 125.867 92.4274 126.04 92.7608 126.04L93.2808 126.02L93.7808 125.98L93.9008 126.86ZM102.497 123.42L97.4566 123.38C97.5499 124.247 97.8566 124.913 98.3766 125.38C98.9099 125.847 99.5766 126.08 100.377 126.08C101.083 126.08 101.93 125.827 102.917 125.32L103.417 126.46L100.277 128.24L99.3566 128.3C97.8766 128.3 96.6432 127.833 95.6566 126.9C94.6832 125.967 94.1966 124.773 94.1966 123.32C94.1966 121.84 94.6899 120.587 95.6766 119.56C96.6766 118.52 97.8832 118 99.2966 118C100.59 118 101.643 118.393 102.457 119.18C103.27 119.953 103.67 120.98 103.657 122.26L102.497 123.42ZM98.7566 119.66C98.1166 120.06 97.7099 120.793 97.5366 121.86L100.537 121.68C100.457 121.133 100.25 120.667 99.9166 120.28C99.5966 119.88 99.2099 119.673 98.7566 119.66ZM115.062 126.32C115.648 126.52 116.128 126.753 116.502 127.02L116.442 128H111.602V122.46C111.602 121.113 111.175 120.44 110.322 120.44C109.935 120.44 109.502 120.56 109.022 120.8V126.38C109.502 126.593 109.888 126.807 110.182 127.02L110.142 128H104.122L104.082 127.3C104.495 127.06 104.988 126.84 105.562 126.64V120.02L104.082 119.74L103.982 118.78C105.168 118.327 106.488 118.08 107.942 118.04L109.022 119.12V119.76C110.102 118.947 111.108 118.393 112.042 118.1C113.295 118.14 114.222 118.62 114.822 119.54C114.968 119.807 115.048 120.413 115.062 121.36V126.32ZM122.55 125.78C123.016 125.78 123.55 125.72 124.15 125.6L124.29 126.64L120.99 128.34C120.323 128.367 119.71 128.16 119.15 127.72C118.603 127.267 118.33 126.74 118.33 126.14V120.78H116.87L116.81 119.7C117.25 119.327 117.816 118.94 118.51 118.54L119.61 115.86H121.19L121.69 118.54H124.45L124.47 119.54L123.47 120.8H121.79V124.92C121.79 125.493 122.043 125.78 122.55 125.78ZM133.336 123.42L128.296 123.38C128.39 124.247 128.696 124.913 129.216 125.38C129.75 125.847 130.416 126.08 131.216 126.08C131.923 126.08 132.77 125.827 133.756 125.32L134.256 126.46L131.116 128.24L130.196 128.3C128.716 128.3 127.483 127.833 126.496 126.9C125.523 125.967 125.036 124.773 125.036 123.32C125.036 121.84 125.53 120.587 126.516 119.56C127.516 118.52 128.723 118 130.136 118C131.43 118 132.483 118.393 133.296 119.18C134.11 119.953 134.51 120.98 134.496 122.26L133.336 123.42ZM129.596 119.66C128.956 120.06 128.55 120.793 128.376 121.86L131.376 121.68C131.296 121.133 131.09 120.667 130.756 120.28C130.436 119.88 130.05 119.673 129.596 119.66Z" fill="#1E2021"/>
<path d="M76.5 59.3555H53L65.5 80.8555H109L123 59.3555H97.5V52.3555H76.5V59.3555Z" fill="#BFCCD3" stroke="black" stroke-width="4"/>
<path d="M76.5 12.8554C84.9 10.0554 87.3333 36.3554 87.5 49.8554C87.5 32.2554 92.5 17.8554 95 12.8554C98.2 10.8554 109.667 17.3554 115 20.8554C103.4 0.455434 91.8333 7.35543 87.5 13.3554C77.5 -1.04456 66.6667 12.3554 62.5 20.8554L76.5 12.8554Z" fill="#9BE1FF" stroke="#9BE1FF"/>
</g>
<defs>
<filter id="filter0_d" x="0" y="0.5" width="177" height="141.842" filterUnits="userSpaceOnUse" color-interpolation-filters="sRGB">
<feFlood flood-opacity="0" result="BackgroundImageFix"/>
<feColorMatrix in="SourceAlpha" type="matrix" values="0 0 0 0 0 0 0 0 0 0 0 0 0 0 0 0 0 0 127 0"/>
<feOffset dy="4"/>
<feGaussianBlur stdDeviation="5"/>
<feColorMatrix type="matrix" values="0 0 0 0 0 0 0 0 0 0 0 0 0 0 0 0 0 0 0.25 0"/>
<feBlend mode="normal" in2="BackgroundImageFix" result="effect1_dropShadow"/>
<feBlend mode="normal" in="SourceGraphic" in2="effect1_dropShadow" result="shape"/>
</filter>
</defs>
</svg>
