<svg width="117" height="92" viewBox="0 0 117 92" fill="none" xmlns="http://www.w3.org/2000/svg">
<path d="M63.3544 3L64.6787 1.50122L63.4037 0.374658L62.0873 1.45263L63.3544 3ZM40 22.125L38.7329 20.5776L38 21.1778V22.125H40ZM85 22.125H87V21.2233L86.3243 20.6262L85 22.125ZM85 48V50H87V48H85ZM40 48H38V50H40V48ZM62.0873 1.45263L38.7329 20.5776L41.2671 23.6724L64.6216 4.54737L62.0873 1.45263ZM86.3243 20.6262L64.6787 1.50122L62.0302 4.49878L83.6757 23.6238L86.3243 20.6262ZM83 22.125V48H87V22.125H83ZM85 46H40V50H85V46ZM42 48V22.125H38V48H42Z" fill="black"/>
<path d="M11.9304 77.56L7.73039 79.34C5.98372 79.4067 4.55706 79.1133 3.45039 78.46C2.34372 77.8067 1.54372 76.9533 1.05039 75.9C0.570391 74.8467 0.330391 73.7333 0.330391 72.56C0.330391 71.3067 0.590391 70.1333 1.11039 69.04C1.64372 67.9467 2.43706 67.06 3.49039 66.38C4.54372 65.7 5.82372 65.36 7.33039 65.36C8.94372 65.36 10.3504 65.7933 11.5504 66.66L11.5704 67.04C11.5704 68.12 11.4037 69.2733 11.0704 70.5H8.91039L8.31039 67.82C7.47039 67.5 6.60372 67.32 5.71039 67.28C5.12372 67.8 4.68372 68.4867 4.39039 69.34C4.11039 70.1933 3.97039 71.0933 3.97039 72.04C3.97039 73.5067 4.31039 74.7067 4.99039 75.64C5.68372 76.5733 6.67706 77.0267 7.97039 77L11.3704 75.92L11.9304 77.56ZM22.579 77.86L19.939 79.34C19.5657 79.3267 19.1923 79.1867 18.819 78.92C18.4457 78.6533 18.139 78.3067 17.899 77.88L15.779 79.26L15.099 79.32C14.2323 79.32 13.5057 79.0667 12.919 78.56C12.3457 78.0533 12.059 77.44 12.059 76.72C12.059 75.72 12.599 74.9333 13.679 74.36L17.479 74.28V72.64C17.479 71.6133 17.1723 70.94 16.559 70.62C16.1323 70.6467 15.759 70.7267 15.439 70.86L14.959 73.06L12.999 73.1C12.7457 72.38 12.619 71.62 12.619 70.82L12.659 70.08C13.459 69.7733 14.3857 69.5133 15.439 69.3C16.4923 69.0733 17.3057 68.96 17.879 68.96C19.0657 68.96 20.0057 69.4467 20.699 70.42C20.8457 70.6733 20.9257 71.18 20.939 71.94V76.52C20.939 76.8667 21.1057 77.04 21.439 77.04L21.979 77.02L22.459 76.98L22.579 77.86ZM15.479 76.5C15.479 76.8467 15.5923 77.1333 15.819 77.36C16.219 77.3333 16.7723 77.2067 17.479 76.98V75.5C16.1457 75.4733 15.479 75.8067 15.479 76.5ZM26.5085 71.38C26.5085 71.62 26.5952 71.84 26.7685 72.04C26.9418 72.2267 27.5618 72.6 28.6285 73.16C29.6952 73.7067 30.4152 74.22 30.7885 74.7C31.1618 75.1667 31.3485 75.7 31.3485 76.3C31.3485 77.2067 30.9752 77.9533 30.2285 78.54C29.4818 79.1133 28.4885 79.4 27.2485 79.4C25.8485 79.4 24.4552 79.04 23.0685 78.32L24.2085 75.7C25.3685 76.5933 26.5685 77.26 27.8085 77.7C28.0485 77.4867 28.1685 77.24 28.1685 76.96C28.1685 76.7067 28.0685 76.48 27.8685 76.28C27.6818 76.08 27.0685 75.72 26.0285 75.2C25.0018 74.6667 24.3018 74.1733 23.9285 73.72C23.5685 73.2533 23.3885 72.7267 23.3885 72.14C23.3885 71.2067 23.7952 70.4533 24.6085 69.88C25.4352 69.2933 26.5018 69 27.8085 69C29.0218 69 30.0552 69.22 30.9085 69.66L30.9485 70.36C30.9485 71.0533 30.8352 71.7533 30.6085 72.46H28.8485L28.2285 70.64L27.3085 70.54C26.7752 70.7 26.5085 70.98 26.5085 71.38ZM42.8134 77.86L40.1734 79.34C39.8 79.3267 39.4267 79.1867 39.0534 78.92C38.68 78.6533 38.3734 78.3067 38.1334 77.88L36.0134 79.26L35.3334 79.32C34.4667 79.32 33.74 79.0667 33.1534 78.56C32.58 78.0533 32.2934 77.44 32.2934 76.72C32.2934 75.72 32.8334 74.9333 33.9134 74.36L37.7134 74.28V72.64C37.7134 71.6133 37.4067 70.94 36.7934 70.62C36.3667 70.6467 35.9934 70.7267 35.6734 70.86L35.1934 73.06L33.2334 73.1C32.98 72.38 32.8534 71.62 32.8534 70.82L32.8934 70.08C33.6934 69.7733 34.62 69.5133 35.6734 69.3C36.7267 69.0733 37.54 68.96 38.1134 68.96C39.3 68.96 40.24 69.4467 40.9334 70.42C41.08 70.6733 41.16 71.18 41.1734 71.94V76.52C41.1734 76.8667 41.34 77.04 41.6734 77.04L42.2134 77.02L42.6934 76.98L42.8134 77.86ZM35.7134 76.5C35.7134 76.8467 35.8267 77.1333 36.0534 77.36C36.4534 77.3333 37.0067 77.2067 37.7134 76.98V75.5C36.38 75.4733 35.7134 75.8067 35.7134 76.5ZM60.0159 77.86L57.3559 79.34C56.9559 79.3267 56.5559 79.1667 56.1559 78.86C55.7559 78.5533 55.4425 78.1467 55.2159 77.64L52.9359 79.34C51.6425 79.3533 50.5759 78.8867 49.7359 77.94C48.8959 76.98 48.4759 75.7733 48.4759 74.32C48.4759 72.8 48.9692 71.5467 49.9559 70.56C50.9425 69.56 52.2225 69.06 53.7959 69.06L54.9159 69.16V66.26L53.4359 66L53.3359 65C54.4559 64.6 55.7759 64.3533 57.2959 64.26L58.3759 65.26V76.5C58.3759 76.86 58.5425 77.04 58.8759 77.04L59.3959 77.02L59.8959 76.98L60.0159 77.86ZM52.0759 73.96C52.0759 74.7733 52.2492 75.4533 52.5959 76C52.9559 76.5333 53.4425 76.8 54.0559 76.8C54.3492 76.8 54.6359 76.7467 54.9159 76.64V71.22C54.3825 70.98 53.8092 70.8667 53.1959 70.88C52.4492 71.6 52.0759 72.6267 52.0759 73.96ZM68.3188 74.42L63.2788 74.38C63.3722 75.2467 63.6788 75.9133 64.1988 76.38C64.7322 76.8467 65.3988 77.08 66.1988 77.08C66.9055 77.08 67.7522 76.8267 68.7388 76.32L69.2388 77.46L66.0988 79.24L65.1788 79.3C63.6988 79.3 62.4655 78.8333 61.4788 77.9C60.5055 76.9667 60.0188 75.7733 60.0188 74.32C60.0188 72.84 60.5122 71.5867 61.4988 70.56C62.4988 69.52 63.7055 69 65.1188 69C66.4122 69 67.4655 69.3933 68.2788 70.18C69.0922 70.9533 69.4922 71.98 69.4788 73.26L68.3188 74.42ZM64.5788 70.66C63.9388 71.06 63.5322 71.7933 63.3588 72.86L66.3588 72.68C66.2788 72.1333 66.0722 71.6667 65.7388 71.28C65.4188 70.88 65.0322 70.6733 64.5788 70.66ZM90.3718 66.4C89.8918 66.7333 89.3585 67.0267 88.7718 67.28L88.6718 79L85.4718 79.26L79.4918 70.28L79.7718 72.7V77.66L81.5318 77.94L81.5118 79H75.6918L75.5718 78.36C76.0785 78.0133 76.6451 77.7 77.2718 77.42V67.08L75.8118 66.82L75.8318 65.76H80.7318L80.7118 65.78L86.5718 74.78L86.2918 72.28V67.14L84.3118 66.82L84.3318 65.76H90.2518L90.3718 66.4ZM93.7904 67.98C92.8704 67.5667 92.0771 66.96 91.4104 66.16C91.9437 65.1333 92.6037 64.3333 93.3904 63.76C94.2837 64.2267 95.0371 64.9067 95.6504 65.8C95.2104 66.68 94.5904 67.4067 93.7904 67.98ZM95.3304 77.32C95.9171 77.52 96.3971 77.7533 96.7704 78.02L96.7304 79H90.3904L90.3504 78.3C90.8171 78.0333 91.3237 77.8067 91.8704 77.62V71.02L90.3904 70.74L90.2904 69.78C91.4771 69.3267 92.7971 69.08 94.2504 69.04L95.3304 70V77.32ZM103.165 79.26L102.285 79.32C100.845 79.32 99.6449 78.8467 98.6849 77.9C97.7383 76.94 97.2649 75.7133 97.2649 74.22C97.2649 72.7133 97.7449 71.4667 98.7049 70.48C99.6649 69.4933 100.872 69 102.325 69C103.258 69 104.092 69.2267 104.825 69.68C105.558 70.12 106.052 70.76 106.305 71.6L103.565 73.14C102.992 72.0067 102.325 71.2333 101.565 70.82C100.925 71.5133 100.605 72.4733 100.605 73.7C100.605 74.7 100.845 75.5133 101.325 76.14C101.818 76.7667 102.512 77.08 103.405 77.08C104.032 77.08 104.758 76.88 105.585 76.48L106.065 77.58L103.165 79.26ZM106.523 74.14C106.523 72.6333 106.996 71.4 107.943 70.44C108.889 69.48 110.089 69 111.543 69C112.996 69 114.189 69.4867 115.123 70.46C116.056 71.4333 116.523 72.6933 116.523 74.24C116.523 75.7733 116.063 77.02 115.143 77.98C114.236 78.9267 113.063 79.4 111.623 79.4C110.156 79.4 108.936 78.9067 107.963 77.92C107.003 76.92 106.523 75.66 106.523 74.14ZM112.283 77.5C112.776 77.1267 113.023 76.1133 113.023 74.46C113.023 72.1 112.483 70.92 111.403 70.92C111.069 70.92 110.809 70.9933 110.623 71.14C110.223 71.6733 110.023 72.6867 110.023 74.18C110.023 75.1933 110.163 76.02 110.443 76.66C110.723 77.2867 111.149 77.6 111.723 77.6C111.909 77.6 112.096 77.5667 112.283 77.5Z" fill="black"/>
</svg>
