<svg width="142" height="92" viewBox="0 0 142 92" fill="none" xmlns="http://www.w3.org/2000/svg">
<path d="M71.3544 3L72.6787 1.50122L71.4037 0.374658L70.0873 1.45263L71.3544 3ZM48 22.125L46.7329 20.5776L46 21.1778V22.125H48ZM93 22.125H95V21.2233L94.3243 20.6262L93 22.125ZM93 48V50H95V48H93ZM48 48H46V50H48V48ZM70.0873 1.45263L46.7329 20.5776L49.2671 23.6724L72.6216 4.54737L70.0873 1.45263ZM94.3243 20.6262L72.6787 1.50122L70.0302 4.49878L91.6757 23.6238L94.3243 20.6262ZM91 22.125V48H95V22.125H91ZM93 46H48V50H93V46ZM50 48V22.125H46V48H50Z" fill="black"/>
<path d="M11.9695 77.56L7.76945 79.34C6.02279 79.4067 4.59612 79.1133 3.48945 78.46C2.38279 77.8067 1.58279 76.9533 1.08945 75.9C0.609453 74.8467 0.369453 73.7333 0.369453 72.56C0.369453 71.3067 0.629453 70.1333 1.14945 69.04C1.68279 67.9467 2.47612 67.06 3.52945 66.38C4.58279 65.7 5.86279 65.36 7.36945 65.36C8.98279 65.36 10.3895 65.7933 11.5895 66.66L11.6095 67.04C11.6095 68.12 11.4428 69.2733 11.1095 70.5H8.94945L8.34945 67.82C7.50945 67.5 6.64279 67.32 5.74945 67.28C5.16279 67.8 4.72279 68.4867 4.42945 69.34C4.14945 70.1933 4.00945 71.0933 4.00945 72.04C4.00945 73.5067 4.34945 74.7067 5.02945 75.64C5.72279 76.5733 6.71612 77.0267 8.00945 77L11.4095 75.92L11.9695 77.56ZM22.618 77.86L19.978 79.34C19.6047 79.3267 19.2314 79.1867 18.858 78.92C18.4847 78.6533 18.178 78.3067 17.938 77.88L15.818 79.26L15.138 79.32C14.2714 79.32 13.5447 79.0667 12.958 78.56C12.3847 78.0533 12.098 77.44 12.098 76.72C12.098 75.72 12.638 74.9333 13.718 74.36L17.518 74.28V72.64C17.518 71.6133 17.2114 70.94 16.598 70.62C16.1714 70.6467 15.798 70.7267 15.478 70.86L14.998 73.06L13.038 73.1C12.7847 72.38 12.658 71.62 12.658 70.82L12.698 70.08C13.498 69.7733 14.4247 69.5133 15.478 69.3C16.5314 69.0733 17.3447 68.96 17.918 68.96C19.1047 68.96 20.0447 69.4467 20.738 70.42C20.8847 70.6733 20.9647 71.18 20.978 71.94V76.52C20.978 76.8667 21.1447 77.04 21.478 77.04L22.018 77.02L22.498 76.98L22.618 77.86ZM15.518 76.5C15.518 76.8467 15.6314 77.1333 15.858 77.36C16.258 77.3333 16.8114 77.2067 17.518 76.98V75.5C16.1847 75.4733 15.518 75.8067 15.518 76.5ZM26.5476 71.38C26.5476 71.62 26.6342 71.84 26.8076 72.04C26.9809 72.2267 27.6009 72.6 28.6676 73.16C29.7342 73.7067 30.4542 74.22 30.8276 74.7C31.2009 75.1667 31.3876 75.7 31.3876 76.3C31.3876 77.2067 31.0142 77.9533 30.2676 78.54C29.5209 79.1133 28.5276 79.4 27.2876 79.4C25.8876 79.4 24.4942 79.04 23.1076 78.32L24.2476 75.7C25.4076 76.5933 26.6076 77.26 27.8476 77.7C28.0876 77.4867 28.2076 77.24 28.2076 76.96C28.2076 76.7067 28.1076 76.48 27.9076 76.28C27.7209 76.08 27.1076 75.72 26.0676 75.2C25.0409 74.6667 24.3409 74.1733 23.9676 73.72C23.6076 73.2533 23.4276 72.7267 23.4276 72.14C23.4276 71.2067 23.8342 70.4533 24.6476 69.88C25.4742 69.2933 26.5409 69 27.8476 69C29.0609 69 30.0942 69.22 30.9476 69.66L30.9876 70.36C30.9876 71.0533 30.8742 71.7533 30.6476 72.46H28.8876L28.2676 70.64L27.3476 70.54C26.8142 70.7 26.5476 70.98 26.5476 71.38ZM42.8524 77.86L40.2124 79.34C39.8391 79.3267 39.4658 79.1867 39.0924 78.92C38.7191 78.6533 38.4124 78.3067 38.1724 77.88L36.0524 79.26L35.3724 79.32C34.5058 79.32 33.7791 79.0667 33.1924 78.56C32.6191 78.0533 32.3324 77.44 32.3324 76.72C32.3324 75.72 32.8724 74.9333 33.9524 74.36L37.7524 74.28V72.64C37.7524 71.6133 37.4458 70.94 36.8324 70.62C36.4058 70.6467 36.0324 70.7267 35.7124 70.86L35.2324 73.06L33.2724 73.1C33.0191 72.38 32.8924 71.62 32.8924 70.82L32.9324 70.08C33.7324 69.7733 34.6591 69.5133 35.7124 69.3C36.7658 69.0733 37.5791 68.96 38.1524 68.96C39.3391 68.96 40.2791 69.4467 40.9724 70.42C41.1191 70.6733 41.1991 71.18 41.2124 71.94V76.52C41.2124 76.8667 41.3791 77.04 41.7124 77.04L42.2524 77.02L42.7324 76.98L42.8524 77.86ZM35.7524 76.5C35.7524 76.8467 35.8658 77.1333 36.0924 77.36C36.4924 77.3333 37.0458 77.2067 37.7524 76.98V75.5C36.4191 75.4733 35.7524 75.8067 35.7524 76.5ZM60.0549 77.86L57.3949 79.34C56.9949 79.3267 56.5949 79.1667 56.1949 78.86C55.7949 78.5533 55.4816 78.1467 55.2549 77.64L52.9749 79.34C51.6816 79.3533 50.6149 78.8867 49.7749 77.94C48.9349 76.98 48.5149 75.7733 48.5149 74.32C48.5149 72.8 49.0083 71.5467 49.9949 70.56C50.9816 69.56 52.2616 69.06 53.8349 69.06L54.9549 69.16V66.26L53.4749 66L53.3749 65C54.4949 64.6 55.8149 64.3533 57.3349 64.26L58.4149 65.26V76.5C58.4149 76.86 58.5816 77.04 58.9149 77.04L59.4349 77.02L59.9349 76.98L60.0549 77.86ZM52.1149 73.96C52.1149 74.7733 52.2883 75.4533 52.6349 76C52.9949 76.5333 53.4816 76.8 54.0949 76.8C54.3883 76.8 54.6749 76.7467 54.9549 76.64V71.22C54.4216 70.98 53.8483 70.8667 53.2349 70.88C52.4883 71.6 52.1149 72.6267 52.1149 73.96ZM68.3579 74.42L63.3179 74.38C63.4112 75.2467 63.7179 75.9133 64.2379 76.38C64.7712 76.8467 65.4379 77.08 66.2379 77.08C66.9446 77.08 67.7912 76.8267 68.7779 76.32L69.2779 77.46L66.1379 79.24L65.2179 79.3C63.7379 79.3 62.5046 78.8333 61.5179 77.9C60.5446 76.9667 60.0579 75.7733 60.0579 74.32C60.0579 72.84 60.5512 71.5867 61.5379 70.56C62.5379 69.52 63.7446 69 65.1579 69C66.4512 69 67.5046 69.3933 68.3179 70.18C69.1312 70.9533 69.5312 71.98 69.5179 73.26L68.3579 74.42ZM64.6179 70.66C63.9779 71.06 63.5712 71.7933 63.3979 72.86L66.3979 72.68C66.3179 72.1333 66.1112 71.6667 65.7779 71.28C65.4579 70.88 65.0712 70.6733 64.6179 70.66ZM94.2509 78.06L94.2309 79H87.3709L87.2509 78.36C87.6775 78.0533 88.2442 77.74 88.9509 77.42L88.9309 72.94L89.2109 69.38L85.6909 78.68L83.1309 79.14L79.6309 69.46L79.9309 72.94L79.8709 77.64L81.5709 78.06L81.5509 79H75.7109L75.5909 78.36C76.1242 77.9867 76.7109 77.6667 77.3509 77.4L77.5909 67.36L75.9109 66.94L75.9309 66H81.8509L81.8309 66.02L85.1909 75.4L88.6909 66H93.8509L93.9709 66.64C93.5309 66.96 92.9575 67.2733 92.2509 67.58L92.4109 77.6L94.2509 78.06ZM97.6966 67.98C96.7766 67.5667 95.9833 66.96 95.3166 66.16C95.85 65.1333 96.51 64.3333 97.2966 63.76C98.19 64.2267 98.9433 64.9067 99.5566 65.8C99.1166 66.68 98.4966 67.4067 97.6966 67.98ZM99.2366 77.32C99.8233 77.52 100.303 77.7533 100.677 78.02L100.637 79H94.2966L94.2566 78.3C94.7233 78.0333 95.23 77.8067 95.7766 77.62V71.02L94.2966 70.74L94.1966 69.78C95.3833 69.3267 96.7033 69.08 98.1566 69.04L99.2366 70V77.32ZM104.516 76.62C105.596 76.6333 106.756 76.7467 107.996 76.96C109.236 77.16 110.356 77.42 111.356 77.74C111.543 78.1933 111.636 78.6333 111.636 79.06C111.636 80.34 111.01 81.4733 109.756 82.46C108.516 83.4467 107.056 83.94 105.376 83.94C104.256 83.94 103.27 83.6867 102.416 83.18C101.563 82.6867 101.096 81.9133 101.016 80.86L103.096 79L102.036 78.94L101.616 77.46C102.39 76.66 103.15 76.0333 103.896 75.58C103.083 75.3 102.45 74.8867 101.996 74.34C101.556 73.78 101.336 73.16 101.336 72.48C101.336 71.48 101.783 70.64 102.676 69.96C103.583 69.2667 104.716 68.92 106.076 68.92C107.156 68.92 108.103 69.14 108.916 69.58C109.316 68.46 110.216 67.86 111.616 67.78L112.176 70.62L111.476 70.56C111.05 70.56 110.65 70.6333 110.276 70.78C110.61 71.2733 110.776 71.82 110.776 72.42C110.776 73.42 110.33 74.2467 109.436 74.9C108.543 75.5533 107.396 75.88 105.996 75.88L105.396 75.86L104.516 76.62ZM105.216 70.6C104.87 70.8933 104.696 71.4933 104.696 72.4C104.696 72.9867 104.83 73.4733 105.096 73.86C105.363 74.2467 105.743 74.44 106.236 74.44C106.423 74.44 106.603 74.4133 106.776 74.36C107.216 74.0533 107.436 73.4733 107.436 72.62C107.436 72.06 107.283 71.5667 106.976 71.14C106.67 70.7 106.276 70.48 105.796 70.48C105.61 70.48 105.416 70.52 105.216 70.6ZM105.916 81.38C106.583 81.38 107.223 81.2733 107.836 81.06C108.45 80.8467 108.903 80.5467 109.196 80.16C108.05 79.7067 106.436 79.36 104.356 79.12C103.916 79.52 103.696 79.8867 103.696 80.22C103.696 80.9933 104.436 81.38 105.916 81.38ZM124.723 77.86L122.063 79.34C121.676 79.3133 121.283 79.1467 120.883 78.84C120.496 78.5333 120.183 78.1333 119.943 77.64C118.876 78.4533 117.803 79.02 116.723 79.34C116.043 79.34 115.396 79.1267 114.783 78.7C114.183 78.2733 113.843 77.74 113.763 77.1L113.703 75.96V71.02L112.223 70.74L112.123 69.78C113.31 69.3267 114.63 69.08 116.083 69.04L117.163 70V75.28C117.163 76.3867 117.583 76.94 118.423 76.94C118.836 76.94 119.236 76.8533 119.623 76.68V70.96L118.503 70.68L118.403 69.72C119.47 69.2933 120.67 69.0667 122.003 69.04L123.083 70V76.52C123.083 76.8667 123.25 77.04 123.583 77.04L124.103 77.02L124.603 76.98L124.723 77.86ZM133.319 74.42L128.279 74.38C128.372 75.2467 128.679 75.9133 129.199 76.38C129.732 76.8467 130.399 77.08 131.199 77.08C131.905 77.08 132.752 76.8267 133.739 76.32L134.239 77.46L131.099 79.24L130.179 79.3C128.699 79.3 127.465 78.8333 126.479 77.9C125.505 76.9667 125.019 75.7733 125.019 74.32C125.019 72.84 125.512 71.5867 126.499 70.56C127.499 69.52 128.705 69 130.119 69C131.412 69 132.465 69.3933 133.279 70.18C134.092 70.9533 134.492 71.98 134.479 73.26L133.319 74.42ZM129.579 70.66C128.939 71.06 128.532 71.7933 128.359 72.86L131.359 72.68C131.279 72.1333 131.072 71.6667 130.739 71.28C130.419 70.88 130.032 70.6733 129.579 70.66ZM139.979 77.32C140.565 77.52 141.045 77.7533 141.419 78.02L141.379 79H135.039L134.999 78.3C135.465 78.0333 135.972 77.8067 136.519 77.62V66.26L135.039 66L134.939 65C136.059 64.6 137.379 64.3533 138.899 64.26L139.979 65.26V77.32Z" fill="black"/>
</svg>
