<svg width="316" height="221" viewBox="0 0 316 221" fill="none" xmlns="http://www.w3.org/2000/svg">
<path d="M54.5016 48.5894C48.5016 88.1893 19.6683 115.756 6.00163 124.589C-20.3984 162.989 46.6683 166.923 83.5016 164.09C94.3016 159.29 122.668 189.423 135.502 205.09C187.102 245.49 226.668 198.59 240.002 170.09C248.402 151.69 267.168 152.09 275.502 154.59C303.902 159.79 311.335 136.756 311.502 124.589C330.702 58.1889 277.502 64.9228 248.502 76.5898C218.102 98.9902 205.502 92.2567 203.002 86.0898C205.002 70.4898 195.502 54.5895 190.502 48.5894C109.302 -39.4106 66.0016 11.9227 54.5016 48.5894Z" fill="#7EA172"/>
<path d="M128.232 117.008C128.264 118.576 128.168 120.24 127.944 122H114.72L114.576 121.232C115.184 120.816 115.864 120.44 116.616 120.104V107.648L114.816 107.384L114.84 106.112H128.112L128.136 106.664C128.136 108.136 127.984 109.568 127.68 110.96H125.28L124.848 108.512L120.96 108.248V113.096L125.976 112.688V115.28L120.96 115.064V119.768L124.992 119.456L125.856 116.816L128.232 117.008ZM135.38 119.984C136.084 120.224 136.66 120.504 137.108 120.824L137.06 122H129.452L129.404 121.16C129.964 120.84 130.572 120.568 131.228 120.344V106.712L129.452 106.4L129.332 105.2C130.676 104.72 132.26 104.424 134.084 104.312L135.38 105.512V119.984ZM151.97 110.216L152.786 110.144C154.114 110.144 155.186 110.68 156.002 111.752C156.834 112.808 157.25 114.128 157.25 115.712C157.25 117.68 156.61 119.296 155.33 120.56C154.05 121.808 152.362 122.432 150.266 122.432C148.714 122.432 147.042 122.128 145.25 121.52L145.274 121.496V106.712L143.474 106.4L143.378 105.2C144.722 104.72 146.306 104.424 148.13 104.312L149.426 105.512V112.064L151.97 110.216ZM151.514 120.176C152.49 119.328 152.978 118.08 152.978 116.432C152.978 115.488 152.762 114.688 152.33 114.032C151.898 113.376 151.322 113.048 150.602 113.048C150.218 113.048 149.826 113.144 149.426 113.336V120.008C149.858 120.152 150.33 120.224 150.842 120.224L151.514 120.176ZM157.952 116.168C157.952 114.36 158.52 112.88 159.656 111.728C160.792 110.576 162.232 110 163.976 110C165.72 110 167.152 110.584 168.272 111.752C169.392 112.92 169.952 114.432 169.952 116.288C169.952 118.128 169.4 119.624 168.296 120.776C167.208 121.912 165.8 122.48 164.072 122.48C162.312 122.48 160.848 121.888 159.68 120.704C158.528 119.504 157.952 117.992 157.952 116.168ZM164.864 120.2C165.456 119.752 165.752 118.536 165.752 116.552C165.752 113.72 165.104 112.304 163.808 112.304C163.408 112.304 163.096 112.392 162.872 112.568C162.392 113.208 162.152 114.424 162.152 116.216C162.152 117.432 162.32 118.424 162.656 119.192C162.992 119.944 163.504 120.32 164.192 120.32C164.416 120.32 164.64 120.28 164.864 120.2ZM174.88 112.856C174.88 113.144 174.984 113.408 175.192 113.648C175.4 113.872 176.144 114.32 177.424 114.992C178.704 115.648 179.568 116.264 180.016 116.84C180.464 117.4 180.688 118.04 180.688 118.76C180.688 119.848 180.24 120.744 179.344 121.448C178.448 122.136 177.256 122.48 175.768 122.48C174.088 122.48 172.416 122.048 170.752 121.184L172.12 118.04C173.512 119.112 174.952 119.912 176.44 120.44C176.728 120.184 176.872 119.888 176.872 119.552C176.872 119.248 176.752 118.976 176.512 118.736C176.288 118.496 175.552 118.064 174.304 117.44C173.072 116.8 172.232 116.208 171.784 115.664C171.352 115.104 171.136 114.472 171.136 113.768C171.136 112.648 171.624 111.744 172.6 111.056C173.592 110.352 174.872 110 176.44 110C177.896 110 179.136 110.264 180.16 110.792L180.208 111.632C180.208 112.464 180.072 113.304 179.8 114.152H177.688L176.944 111.968L175.84 111.848C175.2 112.04 174.88 112.376 174.88 112.856ZM193.719 124.928L195.015 125.672L194.967 126.848H187.167L187.119 126.008C187.855 125.576 188.671 125.24 189.567 125V120.488L187.167 122.264C185.599 122.28 184.311 121.712 183.303 120.56C182.311 119.408 181.815 117.984 181.815 116.288C181.815 114.432 182.447 112.92 183.711 111.752C184.975 110.568 186.615 109.976 188.631 109.976C189.479 109.976 190.367 110.088 191.295 110.312C192.239 110.536 193.047 110.824 193.719 111.176V124.928ZM188.511 119.264C188.799 119.264 189.151 119.2 189.567 119.072V112.568C188.927 112.28 188.239 112.144 187.503 112.16C186.607 112.96 186.159 114.192 186.159 115.856C186.159 116.816 186.367 117.624 186.783 118.28C187.199 118.936 187.775 119.264 188.511 119.264ZM210.472 120.632L207.28 122.408C206.816 122.376 206.344 122.176 205.864 121.808C205.4 121.44 205.024 120.96 204.736 120.368C203.456 121.344 202.168 122.024 200.872 122.408C200.056 122.408 199.28 122.152 198.544 121.64C197.824 121.128 197.416 120.488 197.32 119.72L197.248 118.352V112.424L195.472 112.088L195.352 110.936C196.776 110.392 198.36 110.096 200.104 110.048L201.4 111.2V117.536C201.4 118.864 201.904 119.528 202.912 119.528C203.408 119.528 203.888 119.424 204.352 119.216V112.352L203.008 112.016L202.888 110.864C204.168 110.352 205.608 110.08 207.208 110.048L208.504 111.2V119.024C208.504 119.44 208.704 119.648 209.104 119.648L209.728 119.624L210.328 119.576L210.472 120.632ZM220.787 116.504L214.739 116.456C214.851 117.496 215.219 118.296 215.843 118.856C216.483 119.416 217.283 119.696 218.243 119.696C219.091 119.696 220.107 119.392 221.291 118.784L221.891 120.152L218.123 122.288L217.019 122.36C215.243 122.36 213.763 121.8 212.579 120.68C211.411 119.56 210.827 118.128 210.827 116.384C210.827 114.608 211.419 113.104 212.603 111.872C213.803 110.624 215.251 110 216.947 110C218.499 110 219.763 110.472 220.739 111.416C221.715 112.344 222.195 113.576 222.179 115.112L220.787 116.504ZM216.299 111.992C215.531 112.472 215.043 113.352 214.835 114.632L218.435 114.416C218.339 113.76 218.091 113.2 217.691 112.736C217.307 112.256 216.843 112.008 216.299 111.992ZM128.112 148.632L124.92 150.408C124.44 150.392 123.96 150.2 123.48 149.832C123 149.464 122.624 148.976 122.352 148.368L119.616 150.408C118.064 150.424 116.784 149.864 115.776 148.728C114.768 147.576 114.264 146.128 114.264 144.384C114.264 142.56 114.856 141.056 116.04 139.872C117.224 138.672 118.76 138.072 120.648 138.072L121.992 138.192V134.712L120.216 134.4L120.096 133.2C121.44 132.72 123.024 132.424 124.848 132.312L126.144 133.512V147C126.144 147.432 126.344 147.648 126.744 147.648L127.368 147.624L127.968 147.576L128.112 148.632ZM118.584 143.952C118.584 144.928 118.792 145.744 119.208 146.4C119.64 147.04 120.224 147.36 120.96 147.36C121.312 147.36 121.656 147.296 121.992 147.168V140.664C121.352 140.376 120.664 140.24 119.928 140.256C119.032 141.12 118.584 142.352 118.584 143.952ZM138.076 144.504L132.028 144.456C132.14 145.496 132.508 146.296 133.132 146.856C133.772 147.416 134.572 147.696 135.532 147.696C136.38 147.696 137.396 147.392 138.58 146.784L139.18 148.152L135.412 150.288L134.308 150.36C132.532 150.36 131.052 149.8 129.868 148.68C128.7 147.56 128.116 146.128 128.116 144.384C128.116 142.608 128.708 141.104 129.892 139.872C131.092 138.624 132.54 138 134.236 138C135.788 138 137.052 138.472 138.028 139.416C139.004 140.344 139.484 141.576 139.468 143.112L138.076 144.504ZM133.588 139.992C132.82 140.472 132.332 141.352 132.124 142.632L135.724 142.416C135.628 141.76 135.38 141.2 134.98 140.736C134.596 140.256 134.132 140.008 133.588 139.992ZM146.068 147.984C146.772 148.224 147.348 148.504 147.796 148.824L147.748 150H140.14L140.092 149.16C140.652 148.84 141.26 148.568 141.916 148.344V134.712L140.14 134.4L140.02 133.2C141.364 132.72 142.948 132.424 144.772 132.312L146.068 133.512V147.984ZM172.953 134.88C172.377 135.28 171.737 135.632 171.033 135.936L170.913 150L167.073 150.312L159.897 139.536L160.233 142.44V148.392L162.345 148.728L162.321 150H155.337L155.193 149.232C155.801 148.816 156.481 148.44 157.233 148.104V135.696L155.481 135.384L155.505 134.112H161.385L161.361 134.136L168.393 144.936L168.057 141.936V135.768L165.681 135.384L165.705 134.112H172.809L172.953 134.88ZM172.952 144.168C172.952 142.36 173.52 140.88 174.656 139.728C175.792 138.576 177.232 138 178.976 138C180.72 138 182.152 138.584 183.272 139.752C184.392 140.92 184.952 142.432 184.952 144.288C184.952 146.128 184.4 147.624 183.296 148.776C182.208 149.912 180.8 150.48 179.072 150.48C177.312 150.48 175.848 149.888 174.68 148.704C173.528 147.504 172.952 145.992 172.952 144.168ZM179.864 148.2C180.456 147.752 180.752 146.536 180.752 144.552C180.752 141.72 180.104 140.304 178.808 140.304C178.408 140.304 178.096 140.392 177.872 140.568C177.392 141.208 177.152 142.424 177.152 144.216C177.152 145.432 177.32 146.424 177.656 147.192C177.992 147.944 178.504 148.32 179.192 148.32C179.416 148.32 179.64 148.28 179.864 148.2ZM191.656 142.128V147.816C192.728 148.072 193.6 148.408 194.272 148.824L194.224 150H185.776L185.728 149.16C186.224 148.872 186.816 148.608 187.504 148.368V140.424L185.728 140.088L185.608 138.936C187.032 138.392 188.616 138.096 190.36 138.048L191.656 139.848V140.28L193.552 138.144C193.792 138.064 194.096 138.024 194.464 138.024C195.104 138.024 195.688 138.184 196.216 138.504C196.76 138.824 197.136 139.272 197.344 139.848L194.584 143.328C193.512 142.432 192.656 141.944 192.016 141.864L191.656 142.128ZM204.186 147.336C204.746 147.336 205.386 147.264 206.106 147.12L206.274 148.368L202.314 150.408C201.514 150.44 200.778 150.192 200.106 149.664C199.45 149.12 199.122 148.488 199.122 147.768V141.336H197.37L197.298 140.04C197.826 139.592 198.506 139.128 199.338 138.648L200.658 135.432H202.554L203.154 138.648H206.466L206.49 139.848L205.29 141.36H203.274V146.304C203.274 146.992 203.578 147.336 204.186 147.336ZM217.13 144.504L211.082 144.456C211.194 145.496 211.562 146.296 212.186 146.856C212.826 147.416 213.626 147.696 214.586 147.696C215.434 147.696 216.45 147.392 217.634 146.784L218.234 148.152L214.466 150.288L213.362 150.36C211.586 150.36 210.106 149.8 208.922 148.68C207.754 147.56 207.17 146.128 207.17 144.384C207.17 142.608 207.762 141.104 208.946 139.872C210.146 138.624 211.594 138 213.29 138C214.842 138 216.106 138.472 217.082 139.416C218.058 140.344 218.538 141.576 218.522 143.112L217.13 144.504ZM212.642 139.992C211.874 140.472 211.386 141.352 211.178 142.632L214.778 142.416C214.682 141.76 214.434 141.2 214.034 140.736C213.65 140.256 213.186 140.008 212.642 139.992Z" fill="black"/>
</svg>
