<svg width="365" height="195" viewBox="0 0 365 195" fill="none" xmlns="http://www.w3.org/2000/svg">
<path d="M55.5 13.3891L0 2.88913V195.389H353.5C369.5 159.389 364.167 138.389 359.5 132.389C349.9 103.189 285.167 127.555 254 143.389C226 152.189 214.667 147.055 212.5 143.389C208.1 136.589 214.333 114.889 218 104.889C210.8 67.2887 167.667 63.8887 147 66.8887C147 26.8887 126.667 7.55565 116.5 2.88913C96.5 -5.51087 67.5 6.38913 55.5 13.3891Z" fill="#7EA172"/>
<path d="M54.232 114.008C54.264 115.576 54.168 117.24 53.944 119H40.72L40.576 118.232C41.184 117.816 41.864 117.44 42.616 117.104V104.648L40.816 104.384L40.84 103.112H54.112L54.136 103.664C54.136 105.136 53.984 106.568 53.68 107.96H51.28L50.848 105.512L46.96 105.248V110.096L51.976 109.688V112.28L46.96 112.064V116.768L50.992 116.456L51.856 113.816L54.232 114.008ZM61.3801 116.984C62.0841 117.224 62.6601 117.504 63.1081 117.824L63.0601 119H55.4521L55.4041 118.16C55.9641 117.84 56.5721 117.568 57.2281 117.344V103.712L55.4521 103.4L55.3321 102.2C56.6761 101.72 58.2601 101.424 60.0841 101.312L61.3801 102.512V116.984ZM77.9697 107.216L78.7857 107.144C80.1137 107.144 81.1857 107.68 82.0017 108.752C82.8337 109.808 83.2497 111.128 83.2497 112.712C83.2497 114.68 82.6097 116.296 81.3297 117.56C80.0497 118.808 78.3617 119.432 76.2657 119.432C74.7137 119.432 73.0417 119.128 71.2497 118.52L71.2737 118.496V103.712L69.4737 103.4L69.3777 102.2C70.7217 101.72 72.3057 101.424 74.1297 101.312L75.4257 102.512V109.064L77.9697 107.216ZM77.5137 117.176C78.4897 116.328 78.9777 115.08 78.9777 113.432C78.9777 112.488 78.7617 111.688 78.3297 111.032C77.8977 110.376 77.3217 110.048 76.6017 110.048C76.2177 110.048 75.8257 110.144 75.4257 110.336V117.008C75.8577 117.152 76.3297 117.224 76.8417 117.224L77.5137 117.176ZM83.9515 113.168C83.9515 111.36 84.5195 109.88 85.6555 108.728C86.7915 107.576 88.2315 107 89.9755 107C91.7195 107 93.1515 107.584 94.2715 108.752C95.3915 109.92 95.9515 111.432 95.9515 113.288C95.9515 115.128 95.3995 116.624 94.2955 117.776C93.2075 118.912 91.7995 119.48 90.0715 119.48C88.3115 119.48 86.8475 118.888 85.6795 117.704C84.5275 116.504 83.9515 114.992 83.9515 113.168ZM90.8635 117.2C91.4555 116.752 91.7515 115.536 91.7515 113.552C91.7515 110.72 91.1035 109.304 89.8075 109.304C89.4075 109.304 89.0955 109.392 88.8715 109.568C88.3915 110.208 88.1515 111.424 88.1515 113.216C88.1515 114.432 88.3195 115.424 88.6555 116.192C88.9915 116.944 89.5035 117.32 90.1915 117.32C90.4155 117.32 90.6395 117.28 90.8635 117.2ZM100.88 109.856C100.88 110.144 100.984 110.408 101.192 110.648C101.4 110.872 102.144 111.32 103.424 111.992C104.704 112.648 105.568 113.264 106.016 113.84C106.464 114.4 106.688 115.04 106.688 115.76C106.688 116.848 106.24 117.744 105.344 118.448C104.448 119.136 103.256 119.48 101.768 119.48C100.088 119.48 98.4158 119.048 96.7518 118.184L98.1198 115.04C99.5118 116.112 100.952 116.912 102.44 117.44C102.728 117.184 102.872 116.888 102.872 116.552C102.872 116.248 102.752 115.976 102.512 115.736C102.288 115.496 101.552 115.064 100.304 114.44C99.0718 113.8 98.2318 113.208 97.7838 112.664C97.3518 112.104 97.1357 111.472 97.1357 110.768C97.1357 109.648 97.6238 108.744 98.5998 108.056C99.5918 107.352 100.872 107 102.44 107C103.896 107 105.136 107.264 106.16 107.792L106.208 108.632C106.208 109.464 106.072 110.304 105.8 111.152H103.688L102.944 108.968L101.84 108.848C101.2 109.04 100.88 109.376 100.88 109.856ZM119.719 121.928L121.015 122.672L120.967 123.848H113.167L113.119 123.008C113.855 122.576 114.671 122.24 115.567 122V117.488L113.167 119.264C111.599 119.28 110.311 118.712 109.303 117.56C108.311 116.408 107.815 114.984 107.815 113.288C107.815 111.432 108.447 109.92 109.711 108.752C110.975 107.568 112.615 106.976 114.631 106.976C115.479 106.976 116.367 107.088 117.295 107.312C118.239 107.536 119.047 107.824 119.719 108.176V121.928ZM114.511 116.264C114.799 116.264 115.151 116.2 115.567 116.072V109.568C114.927 109.28 114.239 109.144 113.503 109.16C112.607 109.96 112.159 111.192 112.159 112.856C112.159 113.816 112.367 114.624 112.783 115.28C113.199 115.936 113.775 116.264 114.511 116.264ZM136.472 117.632L133.28 119.408C132.816 119.376 132.344 119.176 131.864 118.808C131.4 118.44 131.024 117.96 130.736 117.368C129.456 118.344 128.168 119.024 126.872 119.408C126.056 119.408 125.28 119.152 124.544 118.64C123.824 118.128 123.416 117.488 123.32 116.72L123.248 115.352V109.424L121.472 109.088L121.352 107.936C122.776 107.392 124.36 107.096 126.104 107.048L127.4 108.2V114.536C127.4 115.864 127.904 116.528 128.912 116.528C129.408 116.528 129.888 116.424 130.352 116.216V109.352L129.008 109.016L128.888 107.864C130.168 107.352 131.608 107.08 133.208 107.048L134.504 108.2V116.024C134.504 116.44 134.704 116.648 135.104 116.648L135.728 116.624L136.328 116.576L136.472 117.632ZM146.787 113.504L140.739 113.456C140.851 114.496 141.219 115.296 141.843 115.856C142.483 116.416 143.283 116.696 144.243 116.696C145.091 116.696 146.107 116.392 147.291 115.784L147.891 117.152L144.123 119.288L143.019 119.36C141.243 119.36 139.763 118.8 138.579 117.68C137.411 116.56 136.827 115.128 136.827 113.384C136.827 111.608 137.419 110.104 138.603 108.872C139.803 107.624 141.251 107 142.947 107C144.499 107 145.763 107.472 146.739 108.416C147.715 109.344 148.195 110.576 148.179 112.112L146.787 113.504ZM142.299 108.992C141.531 109.472 141.043 110.352 140.835 111.632L144.435 111.416C144.339 110.76 144.091 110.2 143.691 109.736C143.307 109.256 142.843 109.008 142.299 108.992ZM54.112 145.632L50.92 147.408C50.44 147.392 49.96 147.2 49.48 146.832C49 146.464 48.624 145.976 48.352 145.368L45.616 147.408C44.064 147.424 42.784 146.864 41.776 145.728C40.768 144.576 40.264 143.128 40.264 141.384C40.264 139.56 40.856 138.056 42.04 136.872C43.224 135.672 44.76 135.072 46.648 135.072L47.992 135.192V131.712L46.216 131.4L46.096 130.2C47.44 129.72 49.024 129.424 50.848 129.312L52.144 130.512V144C52.144 144.432 52.344 144.648 52.744 144.648L53.368 144.624L53.968 144.576L54.112 145.632ZM44.584 140.952C44.584 141.928 44.792 142.744 45.208 143.4C45.64 144.04 46.224 144.36 46.96 144.36C47.312 144.36 47.656 144.296 47.992 144.168V137.664C47.352 137.376 46.664 137.24 45.928 137.256C45.032 138.12 44.584 139.352 44.584 140.952ZM64.0756 141.504L58.0276 141.456C58.1396 142.496 58.5076 143.296 59.1316 143.856C59.7716 144.416 60.5716 144.696 61.5316 144.696C62.3796 144.696 63.3956 144.392 64.5796 143.784L65.1796 145.152L61.4116 147.288L60.3076 147.36C58.5316 147.36 57.0516 146.8 55.8676 145.68C54.6996 144.56 54.1156 143.128 54.1156 141.384C54.1156 139.608 54.7076 138.104 55.8916 136.872C57.0916 135.624 58.5396 135 60.2356 135C61.7876 135 63.0516 135.472 64.0276 136.416C65.0036 137.344 65.4836 138.576 65.4676 140.112L64.0756 141.504ZM59.5876 136.992C58.8196 137.472 58.3316 138.352 58.1236 139.632L61.7236 139.416C61.6276 138.76 61.3796 138.2 60.9796 137.736C60.5956 137.256 60.1316 137.008 59.5876 136.992ZM72.0676 144.984C72.7716 145.224 73.3476 145.504 73.7956 145.824L73.7476 147H66.1396L66.0916 146.16C66.6516 145.84 67.2596 145.568 67.9156 145.344V131.712L66.1396 131.4L66.0196 130.2C67.3636 129.72 68.9476 129.424 70.7716 129.312L72.0676 130.512V144.984ZM94.1532 142.536C94.1532 144.008 93.5692 145.2 92.4012 146.112C91.2492 147.008 89.7452 147.456 87.8892 147.456C86.9132 147.456 85.8572 147.328 84.7212 147.072C83.6012 146.816 82.6492 146.456 81.8652 145.992L81.8892 145.944L81.8652 145.224C81.8652 143.72 82.0092 142.432 82.2972 141.36H84.2412L85.8012 144.84C86.7132 145.16 87.6412 145.336 88.5852 145.368C89.4492 144.968 89.8812 144.368 89.8812 143.568C89.8812 142.768 89.3372 142.08 88.2492 141.504L85.3212 140.088L84.3852 139.56C82.6892 138.536 81.8412 137.2 81.8412 135.552C81.8412 134.096 82.4412 132.912 83.6412 132C84.8412 131.088 86.3932 130.632 88.2972 130.632C90.0892 130.632 91.8012 130.936 93.4332 131.544C93.3692 133.48 93.2012 135.008 92.9292 136.128H90.7212L89.7852 133.2C88.9852 132.88 88.0572 132.704 87.0012 132.672C86.2812 133.104 85.9212 133.704 85.9212 134.472C85.9212 135 86.1692 135.448 86.6652 135.816C87.1772 136.168 88.0012 136.6 89.1372 137.112C90.2892 137.608 91.2012 138.08 91.8732 138.528C92.5612 138.976 93.1132 139.528 93.5292 140.184C93.9452 140.824 94.1532 141.608 94.1532 142.536ZM109.659 145.632L106.467 147.408C106.003 147.376 105.531 147.176 105.051 146.808C104.587 146.44 104.211 145.96 103.923 145.368C102.643 146.344 101.355 147.024 100.059 147.408C99.2431 147.408 98.4671 147.152 97.7311 146.64C97.0111 146.128 96.6031 145.488 96.5071 144.72L96.4351 143.352V137.424L94.6591 137.088L94.5391 135.936C95.9631 135.392 97.5471 135.096 99.2911 135.048L100.587 136.2V142.536C100.587 143.864 101.091 144.528 102.099 144.528C102.595 144.528 103.075 144.424 103.539 144.216V137.352L102.195 137.016L102.075 135.864C103.355 135.352 104.795 135.08 106.395 135.048L107.691 136.2V144.024C107.691 144.44 107.891 144.648 108.291 144.648L108.915 144.624L109.515 144.576L109.659 145.632ZM116.062 139.128V144.816C117.134 145.072 118.006 145.408 118.678 145.824L118.63 147H110.182L110.134 146.16C110.63 145.872 111.222 145.608 111.91 145.368V137.424L110.134 137.088L110.014 135.936C111.438 135.392 113.022 135.096 114.766 135.048L116.062 136.848V137.28L117.958 135.144C118.198 135.064 118.502 135.024 118.87 135.024C119.51 135.024 120.094 135.184 120.622 135.504C121.166 135.824 121.542 136.272 121.75 136.848L118.99 140.328C117.918 139.432 117.062 138.944 116.422 138.864L116.062 139.128Z" fill="black"/>
</svg>
