<svg width="588" height="773" viewBox="0 0 588 773" fill="none" xmlns="http://www.w3.org/2000/svg">
<path d="M587 9.8572C519.047 -0.735581 363.658 -8.90228 285.73 43.1732C277.954 49.2147 267.194 57.075 254.5 65.6807M296.776 771C255.402 704.983 261.126 643.374 269.16 620.822C292.458 539.223 246.732 450.825 220.956 416.825C192.035 363.52 132.584 356.002 106.474 358.907C40.9977 359.727 9.89986 302.867 2.53548 274.335C-5.4984 182.076 78.8573 141.584 122.039 132.87C135.576 129.274 149.98 123.806 164.5 117.234" stroke="#71A4BA" stroke-width="4"/>
<path d="M198.393 104.571C199.023 105.717 199.595 106.982 200.11 108.368L190.348 113.48L189.945 112.969C190.233 112.427 190.589 111.887 191.014 111.348L186.199 102.152L184.768 102.653L184.294 101.705L194.092 96.574L194.323 96.9723C194.892 98.0589 195.333 99.1748 195.647 100.32L193.875 101.248L192.61 99.6077L189.638 100.916L191.512 104.495L195.057 102.254L196.059 104.168L192.273 105.948L194.091 109.42L196.947 107.631L196.564 105.348L198.393 104.571ZM204.82 104.005C205.433 103.91 205.966 103.894 206.421 103.957L206.84 104.844L201.223 107.785L200.863 107.183C201.153 106.731 201.497 106.295 201.894 105.876L196.624 95.8123L195.192 96.2686L194.64 95.4291C195.446 94.5551 196.501 93.7242 197.805 92.9364L199.225 93.3212L204.82 104.005ZM213.527 93.9362L215.726 98.1353C216.617 97.9098 217.39 97.8207 218.047 97.868L218.467 98.7548L212.23 102.021L211.87 101.419C212.125 101.015 212.46 100.591 212.875 100.148L209.804 94.2835L208.363 94.722L207.829 93.918C208.67 92.9659 209.724 92.135 210.993 91.4253L212.646 92.2531L212.813 92.572L213.387 90.2621C213.533 90.1103 213.742 89.9632 214.014 89.8209C214.486 89.5735 214.979 89.4659 215.493 89.498C216.018 89.5239 216.469 89.7092 216.845 90.0541L216.153 93.6901C215.015 93.4431 214.195 93.4138 213.691 93.6022L213.527 93.9362ZM224.538 93.7465C225.062 93.7128 225.504 93.7224 225.862 93.7753L226.282 94.6621L220.949 97.4549L220.589 96.8533C220.843 96.449 221.178 96.0252 221.593 95.5821L218.578 89.8239L217.137 90.2624L216.603 89.4584C217.444 88.5063 218.499 87.6754 219.768 86.9657L221.17 87.3151L224.538 93.7465ZM216.224 86.4507L217.209 81.691L220.004 82.372L219.499 83.6071L218.617 86.1911L218.397 86.8483L216.224 86.4507ZM224.506 90.1057C223.807 88.771 223.654 87.4588 224.048 86.1692C224.441 84.8796 225.281 83.8976 226.569 83.2234C227.856 82.5491 229.139 82.4266 230.418 82.8559C231.696 83.2852 232.694 84.1849 233.411 85.555C234.123 86.9133 234.294 88.2311 233.924 89.5084C233.56 90.7676 232.74 91.7313 231.465 92.3994C230.165 93.0798 228.856 93.2087 227.536 92.7862C226.221 92.3457 225.211 91.4522 224.506 90.1057ZM231.168 90.41C231.432 89.8504 231.18 88.8383 230.413 87.3736C229.318 85.283 228.292 84.4882 227.336 84.9892C227.04 85.1439 226.844 85.3294 226.747 85.546C226.64 86.204 226.933 87.1945 227.625 88.5174C228.096 89.4151 228.603 90.0824 229.148 90.5195C229.687 90.9447 230.21 91.0244 230.718 90.7584C230.883 90.6718 231.033 90.5557 231.168 90.41Z" fill="black"/>
</svg>
