<svg width="1275" height="204" viewBox="0 0 1275 204" fill="none" xmlns="http://www.w3.org/2000/svg">
<path d="M2.5 74.592C36.3333 33.9254 282 -28.4075 361.5 19.0921C441 66.5916 518.5 134.592 557.5 168.592C596.5 202.593 692.7 212.392 779.5 187.592C779.5 187.592 797.904 183.584 827 177.156M1272.5 32.0925C1237 74.0925 1235 71.5931 1195.5 88.5925C1182.68 94.1078 1134.4 106.465 1075 120.645" stroke="#913443" stroke-width="4" stroke-dasharray="0 10"/>
<path d="M875.646 167.905C876.048 169.605 876.277 170.982 876.334 172.038L865.2 174.665L864.936 174.07C865.35 173.616 865.829 173.181 866.375 172.765L863.995 162.682L862.441 162.802L862.217 161.766L868.757 160.222L869.021 160.817C868.634 161.265 868.154 161.7 867.582 162.123L869.834 171.661L873.22 170.512L873.43 167.483L875.476 167.185L875.646 167.905ZM886.848 168.385L884.619 170.431C884.252 170.504 883.857 170.454 883.432 170.28C883.008 170.106 882.63 169.839 882.298 169.479L880.552 171.309L879.904 171.524C879.06 171.723 878.295 171.643 877.607 171.285C876.933 170.923 876.513 170.392 876.348 169.692C876.118 168.718 876.463 167.829 877.382 167.023L881.062 166.072L880.686 164.476C880.45 163.476 879.997 162.892 879.326 162.721C878.917 162.845 878.572 163.009 878.291 163.212L878.329 165.463L876.431 165.953C876.019 165.31 875.721 164.599 875.537 163.821L875.406 163.091C876.115 162.609 876.957 162.143 877.933 161.694C878.906 161.231 879.672 160.934 880.23 160.802C881.384 160.53 882.411 160.787 883.31 161.575C883.51 161.788 883.705 162.263 883.892 163L884.944 167.457C885.024 167.795 885.226 167.925 885.55 167.848L886.071 167.705L886.529 167.556L886.848 168.385ZM879.626 168.692C879.705 169.029 879.882 169.282 880.154 169.451C880.537 169.333 881.047 169.083 881.683 168.7L881.343 167.259C880.039 167.54 879.466 168.017 879.626 168.692ZM898.423 167.091L897.581 167.352C896.179 167.682 894.902 167.497 893.751 166.797C892.609 166.08 891.866 164.995 891.523 163.541C891.177 162.075 891.358 160.751 892.066 159.57C892.773 158.39 893.834 157.632 895.249 157.298C896.157 157.084 897.02 157.113 897.838 157.386C898.653 157.646 899.28 158.155 899.72 158.915L897.407 161.043C896.588 160.072 895.762 159.472 894.927 159.244C894.464 160.066 894.373 161.074 894.654 162.268C894.884 163.241 895.305 163.978 895.916 164.477C896.54 164.974 897.287 165.119 898.156 164.914C898.766 164.77 899.427 164.409 900.14 163.83L900.86 164.79L898.423 167.091ZM911.598 162.543L909.369 164.59C909.002 164.663 908.607 164.612 908.182 164.438C907.757 164.265 907.379 163.998 907.048 163.638L905.301 165.468L904.653 165.682C903.81 165.881 903.044 165.802 902.357 165.443C901.683 165.082 901.263 164.551 901.097 163.85C900.868 162.877 901.213 161.987 902.132 161.181L905.812 160.23L905.435 158.634C905.199 157.635 904.746 157.05 904.076 156.88C903.667 157.004 903.322 157.167 903.041 157.37L903.079 159.622L901.181 160.111C900.769 159.468 900.471 158.758 900.287 157.979L900.156 157.25C900.864 156.768 901.706 156.302 902.683 155.852C903.656 155.39 904.421 155.092 904.979 154.961C906.134 154.688 907.161 154.946 908.059 155.734C908.26 155.947 908.454 156.421 908.642 157.158L909.694 161.616C909.774 161.953 909.976 162.083 910.3 162.007L910.821 161.863L911.279 161.714L911.598 162.543ZM904.375 162.85C904.455 163.188 904.631 163.441 904.904 163.609C905.287 163.491 905.796 163.241 906.432 162.858L906.092 161.418C904.788 161.698 904.216 162.176 904.375 162.85ZM915.238 156.115L916.326 160.728C917.245 160.731 918.016 160.836 918.641 161.045L918.827 162.008L911.976 163.625L911.776 162.953C912.123 162.625 912.553 162.297 913.065 161.971L911.544 155.528L910.039 155.595L909.721 154.684C910.772 153.97 912 153.427 913.405 153.054L914.801 154.266L914.884 154.616L916.013 152.521C916.192 152.41 916.431 152.319 916.729 152.249C917.248 152.127 917.753 152.144 918.242 152.303C918.745 152.458 919.135 152.75 919.414 153.177L917.842 156.528C916.801 156.006 916.013 155.774 915.479 155.832L915.238 156.115ZM924.894 153.836L925.983 158.449C926.901 158.452 927.673 158.557 928.298 158.766L928.484 159.729L921.632 161.346L921.432 160.674C921.78 160.345 922.209 160.018 922.721 159.692L921.2 153.249L919.696 153.316L919.378 152.405C920.429 151.691 921.657 151.148 923.062 150.775L924.458 151.987L924.54 152.337L925.669 150.242C925.849 150.131 926.088 150.04 926.386 149.97C926.905 149.847 927.409 149.865 927.899 150.024C928.401 150.179 928.792 150.471 929.071 150.898L927.499 154.249C926.458 153.727 925.67 153.495 925.136 153.553L924.894 153.836ZM937.969 152.784L933.055 153.903C933.345 154.725 933.796 155.304 934.41 155.638C935.036 155.97 935.738 156.044 936.517 155.86C937.205 155.698 937.971 155.257 938.814 154.537L939.563 155.532L936.916 157.985L936.034 158.255C934.594 158.595 933.286 158.424 932.112 157.742C930.95 157.058 930.202 156.008 929.868 154.594C929.528 153.153 929.721 151.82 930.445 150.594C931.179 149.352 932.234 148.569 933.61 148.244C934.869 147.947 935.984 148.088 936.956 148.667C937.926 149.233 938.551 150.14 938.832 151.389L937.969 152.784ZM933.466 149.984C932.935 150.52 932.707 151.327 932.784 152.405L935.662 151.541C935.459 151.027 935.15 150.621 934.737 150.321C934.334 150.005 933.91 149.893 933.466 149.984ZM945.577 153.413C946.031 153.306 946.537 153.125 947.093 152.871L947.468 153.851L944.647 156.263C944.004 156.442 943.36 156.382 942.714 156.083C942.078 155.767 941.691 155.317 941.553 154.733L940.322 149.517L938.901 149.852L938.594 148.815C938.937 148.35 939.399 147.844 939.982 147.295L940.437 144.434L941.975 144.071L943.077 146.565L945.763 145.931L946.012 146.899L945.329 148.355L943.694 148.741L944.64 152.751C944.772 153.309 945.084 153.53 945.577 153.413ZM955.534 148.639L950.619 149.758C950.909 150.58 951.361 151.158 951.974 151.493C952.6 151.824 953.303 151.898 954.081 151.715C954.769 151.552 955.535 151.111 956.379 150.391L957.127 151.386L954.48 153.84L953.599 154.109C952.158 154.449 950.851 154.279 949.676 153.597C948.514 152.912 947.766 151.862 947.433 150.448C947.093 149.008 947.285 147.674 948.009 146.449C948.744 145.207 949.799 144.423 951.174 144.099C952.433 143.802 953.548 143.942 954.521 144.521C955.49 145.087 956.115 145.994 956.396 147.243L955.534 148.639ZM951.03 145.838C950.499 146.375 950.272 147.182 950.348 148.26L953.226 147.395C953.023 146.882 952.714 146.475 952.301 146.175C951.898 145.86 951.474 145.747 951.03 145.838ZM961.429 145.213L962.518 149.826C963.437 149.828 964.208 149.934 964.833 150.143L965.019 151.106L958.167 152.723L957.968 152.051C958.315 151.722 958.744 151.395 959.256 151.068L957.736 144.626L956.231 144.693L955.913 143.782C956.964 143.068 958.192 142.525 959.597 142.152L960.993 143.364L961.076 143.714L962.204 141.619C962.384 141.508 962.623 141.417 962.921 141.347C963.44 141.224 963.945 141.242 964.434 141.401C964.936 141.556 965.327 141.847 965.606 142.275L964.034 145.625C962.993 145.104 962.205 144.872 961.671 144.93L961.429 145.213ZM977.654 146.952L975.425 148.999C975.058 149.072 974.663 149.021 974.238 148.848C973.814 148.674 973.435 148.407 973.104 148.047L971.358 149.877L970.709 150.091C969.866 150.291 969.101 150.211 968.413 149.853C967.739 149.491 967.319 148.96 967.154 148.259C966.924 147.286 967.269 146.396 968.188 145.59L971.868 144.639L971.491 143.043C971.256 142.044 970.802 141.459 970.132 141.289C969.723 141.413 969.378 141.576 969.097 141.78L969.135 144.031L967.237 144.52C966.825 143.878 966.527 143.167 966.343 142.388L966.212 141.659C966.92 141.177 967.763 140.711 968.739 140.261C969.712 139.799 970.477 139.502 971.035 139.37C972.19 139.097 973.217 139.355 974.115 140.143C974.316 140.356 974.51 140.831 974.698 141.567L975.75 146.025C975.83 146.362 976.032 146.493 976.356 146.416L976.877 146.273L977.335 146.123L977.654 146.952ZM970.432 147.26C970.511 147.597 970.687 147.85 970.96 148.018C971.343 147.901 971.853 147.65 972.488 147.267L972.148 145.827C970.845 146.107 970.272 146.585 970.432 147.26ZM982.311 142.031C981.965 140.565 982.142 139.255 982.843 138.104C983.544 136.952 984.601 136.209 986.016 135.875C987.43 135.541 988.703 135.741 989.835 136.474C990.967 137.207 991.711 138.326 992.066 139.831C992.418 141.323 992.257 142.642 991.582 143.788C990.917 144.918 989.884 145.648 988.483 145.979C987.055 146.316 985.754 146.116 984.58 145.379C983.416 144.626 982.66 143.51 982.311 142.031ZM988.688 143.978C989.083 143.501 989.09 142.458 988.71 140.849C988.168 138.552 987.372 137.528 986.32 137.776C985.996 137.853 985.76 137.984 985.612 138.169C985.345 138.78 985.383 139.812 985.726 141.266C985.959 142.252 986.285 143.025 986.705 143.583C987.121 144.129 987.608 144.336 988.166 144.204C988.348 144.161 988.522 144.086 988.688 143.978ZM995.406 136.104C995.461 136.338 995.596 136.532 995.811 136.687C996.022 136.829 996.712 137.05 997.878 137.35C999.042 137.637 999.861 137.971 1000.33 138.352C1000.81 138.721 1001.11 139.197 1001.25 139.781C1001.46 140.663 1001.26 141.476 1000.67 142.218C1000.08 142.948 999.176 143.455 997.969 143.74C996.606 144.061 995.167 144.031 993.652 143.649L994.16 140.837C995.494 141.44 996.815 141.813 998.123 141.957C998.308 141.694 998.368 141.426 998.304 141.154C998.245 140.907 998.096 140.71 997.855 140.561C997.628 140.409 996.948 140.2 995.817 139.932C994.695 139.649 993.9 139.33 993.433 138.974C992.975 138.603 992.679 138.132 992.544 137.561C992.33 136.652 992.553 135.826 993.212 135.081C993.882 134.32 994.853 133.789 996.125 133.489C997.306 133.211 998.362 133.187 999.293 133.419L999.493 134.092C999.652 134.766 999.703 135.474 999.645 136.214L997.932 136.618L996.91 134.989L995.992 135.103C995.51 135.381 995.314 135.715 995.406 136.104ZM1008.43 141.127L1007.59 141.388C1006.18 141.719 1004.91 141.534 1003.76 140.833C1002.61 140.116 1001.87 139.031 1001.53 137.577C1001.18 136.111 1001.36 134.787 1002.07 133.607C1002.78 132.426 1003.84 131.668 1005.25 131.335C1006.16 131.12 1007.03 131.149 1007.84 131.422C1008.66 131.682 1009.28 132.191 1009.72 132.951L1007.41 135.079C1006.59 134.108 1005.77 133.508 1004.93 133.281C1004.47 134.102 1004.38 135.11 1004.66 136.304C1004.89 137.277 1005.31 138.014 1005.92 138.513C1006.54 139.01 1007.29 139.156 1008.16 138.95C1008.77 138.807 1009.43 138.445 1010.14 137.866L1010.86 138.826L1008.43 141.127ZM1023.42 136.15L1021.17 138.201C1020.79 138.264 1020.37 138.192 1019.91 137.985C1019.46 137.776 1019.07 137.458 1018.72 137.033C1017.87 138.07 1016.95 138.868 1015.98 139.428C1015.32 139.584 1014.64 139.525 1013.94 139.25C1013.26 138.973 1012.81 138.532 1012.58 137.928L1012.26 136.832L1011.13 132.024L1009.62 132.091L1009.3 131.18C1010.36 130.466 1011.58 129.923 1012.99 129.55L1014.26 130.236L1015.47 135.375C1015.73 136.452 1016.26 136.894 1017.08 136.701C1017.48 136.606 1017.85 136.43 1018.19 136.173L1016.87 130.606L1015.72 130.59L1015.4 129.679C1016.34 129.019 1017.46 128.522 1018.75 128.19L1020.02 128.876L1021.52 135.222C1021.6 135.56 1021.8 135.69 1022.13 135.613L1022.63 135.474L1023.1 135.321L1023.42 136.15ZM1027.37 129.649L1028.46 134.262C1029.38 134.264 1030.15 134.37 1030.77 134.579L1030.96 135.542L1024.11 137.159L1023.91 136.487C1024.26 136.158 1024.69 135.831 1025.2 135.505L1023.68 129.062L1022.17 129.129L1021.86 128.218C1022.91 127.504 1024.13 126.961 1025.54 126.588L1026.93 127.8L1027.02 128.15L1028.15 126.055C1028.33 125.944 1028.56 125.853 1028.86 125.783C1029.38 125.66 1029.89 125.678 1030.38 125.837C1030.88 125.992 1031.27 126.283 1031.55 126.711L1029.98 130.062C1028.93 129.54 1028.15 129.308 1027.61 129.366L1027.37 129.649ZM1043.6 131.388L1041.37 133.435C1041 133.508 1040.6 133.457 1040.18 133.284C1039.76 133.11 1039.38 132.843 1039.05 132.483L1037.3 134.313L1036.65 134.528C1035.81 134.727 1035.04 134.647 1034.36 134.289C1033.68 133.927 1033.26 133.396 1033.1 132.695C1032.87 131.722 1033.21 130.832 1034.13 130.026L1037.81 129.076L1037.43 127.479C1037.2 126.48 1036.74 125.895 1036.07 125.725C1035.66 125.849 1035.32 126.012 1035.04 126.216L1035.08 128.467L1033.18 128.956C1032.77 128.314 1032.47 127.603 1032.29 126.824L1032.15 126.095C1032.86 125.613 1033.7 125.147 1034.68 124.697C1035.65 124.235 1036.42 123.938 1036.98 123.806C1038.13 123.533 1039.16 123.791 1040.06 124.579C1040.26 124.792 1040.45 125.267 1040.64 126.003L1041.69 130.461C1041.77 130.798 1041.97 130.929 1042.3 130.852L1042.82 130.709L1043.28 130.559L1043.6 131.388ZM1036.37 131.696C1036.45 132.033 1036.63 132.286 1036.9 132.455C1037.29 132.337 1037.79 132.086 1038.43 131.703L1038.09 130.263C1036.79 130.543 1036.21 131.021 1036.37 131.696Z" fill="black"/>
</svg>
