<svg width="291" height="153" viewBox="0 0 291 153" fill="none" xmlns="http://www.w3.org/2000/svg">
<path d="M41.9996 46.4999C-12.4004 52.8999 -1.66708 72.1665 10.4996 80.9999C36.8993 103.8 77 99.5 103 87C129 74.5 166 73.5879 184.5 80.9999C203 88.4118 256.5 100 284.5 82C310.1 62.7999 249 38.703 244.5 37.0003C214.9 25.8001 188 43.1664 178.5 52.4999C158 58.4999 113 66.8999 97 52.4999C81 38.0999 53.6664 42.4999 41.9996 46.4999Z" fill="#7EA172"/>
<mask id="path-2-inside-1" fill="white">
<path fill-rule="evenodd" clip-rule="evenodd" d="M169 0H129V26H113V70H129H169H185V26H169V0Z"/>
</mask>
<path fill-rule="evenodd" clip-rule="evenodd" d="M169 0H129V26H113V70H129H169H185V26H169V0Z" fill="#BFCCD3"/>
<path d="M129 0V-4H125V0H129ZM169 0H173V-4H169V0ZM129 26V30H133V26H129ZM113 26V22H109V26H113ZM113 70H109V74H113V70ZM185 70V74H189V70H185ZM185 26H189V22H185V26ZM169 26H165V30H169V26ZM129 4H169V-4H129V4ZM133 26V0H125V26H133ZM113 30H129V22H113V30ZM117 70V26H109V70H117ZM129 66H113V74H129V66ZM169 66H129V74H169V66ZM185 66H169V74H185V66ZM181 26V70H189V26H181ZM169 30H185V22H169V30ZM165 0V26H173V0H165Z" fill="black" mask="url(#path-2-inside-1)"/>
<path d="M103.982 108.82L104.002 109.3C104.002 110.593 103.876 111.8 103.622 112.92H101.622L101.242 110.74L98.0223 110.52V114.98L102.462 114.64V116.92L98.0223 116.72V120.56L100.462 120.94L100.442 122H92.9423L92.8223 121.36C93.3423 121.013 93.8689 120.72 94.4023 120.48V110.04L92.9223 109.82L92.9423 108.76H104.002L103.982 108.82ZM114.302 120.86L111.662 122.34C111.288 122.327 110.915 122.187 110.542 121.92C110.168 121.653 109.862 121.307 109.622 120.88L107.502 122.26L106.822 122.32C105.955 122.32 105.228 122.067 104.642 121.56C104.068 121.053 103.782 120.44 103.782 119.72C103.782 118.72 104.322 117.933 105.402 117.36L109.202 117.28V115.64C109.202 114.613 108.895 113.94 108.282 113.62C107.855 113.647 107.482 113.727 107.162 113.86L106.682 116.06L104.722 116.1C104.468 115.38 104.342 114.62 104.342 113.82L104.382 113.08C105.182 112.773 106.108 112.513 107.162 112.3C108.215 112.073 109.028 111.96 109.602 111.96C110.788 111.96 111.728 112.447 112.422 113.42C112.568 113.673 112.648 114.18 112.662 114.94V119.52C112.662 119.867 112.828 120.04 113.162 120.04L113.702 120.02L114.182 119.98L114.302 120.86ZM107.202 119.5C107.202 119.847 107.315 120.133 107.542 120.36C107.942 120.333 108.495 120.207 109.202 119.98V118.5C107.868 118.473 107.202 118.807 107.202 119.5ZM120.571 122.26L119.691 122.32C118.251 122.32 117.051 121.847 116.091 120.9C115.145 119.94 114.671 118.713 114.671 117.22C114.671 115.713 115.151 114.467 116.111 113.48C117.071 112.493 118.278 112 119.731 112C120.665 112 121.498 112.227 122.231 112.68C122.965 113.12 123.458 113.76 123.711 114.6L120.971 116.14C120.398 115.007 119.731 114.233 118.971 113.82C118.331 114.513 118.011 115.473 118.011 116.7C118.011 117.7 118.251 118.513 118.731 119.14C119.225 119.767 119.918 120.08 120.811 120.08C121.438 120.08 122.165 119.88 122.991 119.48L123.471 120.58L120.571 122.26ZM136.309 120.86L133.649 122.34C133.262 122.313 132.869 122.147 132.469 121.84C132.082 121.533 131.769 121.133 131.529 120.64C130.462 121.453 129.389 122.02 128.309 122.34C127.629 122.34 126.982 122.127 126.369 121.7C125.769 121.273 125.429 120.74 125.349 120.1L125.289 118.96V114.02L123.809 113.74L123.709 112.78C124.896 112.327 126.216 112.08 127.669 112.04L128.749 113V118.28C128.749 119.387 129.169 119.94 130.009 119.94C130.422 119.94 130.822 119.853 131.209 119.68V113.96L130.089 113.68L129.989 112.72C131.056 112.293 132.256 112.067 133.589 112.04L134.669 113V119.52C134.669 119.867 134.836 120.04 135.169 120.04L135.689 120.02L136.189 119.98L136.309 120.86ZM141.565 120.32C142.151 120.52 142.631 120.753 143.005 121.02L142.965 122H136.625L136.585 121.3C137.051 121.033 137.558 120.807 138.105 120.62V109.26L136.625 109L136.525 108C137.645 107.6 138.965 107.353 140.485 107.26L141.565 108.26V120.32ZM149.176 119.78C149.643 119.78 150.176 119.72 150.776 119.6L150.916 120.64L147.616 122.34C146.95 122.367 146.336 122.16 145.776 121.72C145.23 121.267 144.956 120.74 144.956 120.14V114.78H143.496L143.436 113.7C143.876 113.327 144.443 112.94 145.136 112.54L146.236 109.86H147.816L148.316 112.54H151.076L151.096 113.54L150.096 114.8H148.416V118.92C148.416 119.493 148.67 119.78 149.176 119.78ZM162.563 120.86L159.923 122.34C159.55 122.327 159.177 122.187 158.803 121.92C158.43 121.653 158.123 121.307 157.883 120.88L155.763 122.26L155.083 122.32C154.217 122.32 153.49 122.067 152.903 121.56C152.33 121.053 152.043 120.44 152.043 119.72C152.043 118.72 152.583 117.933 153.663 117.36L157.463 117.28V115.64C157.463 114.613 157.157 113.94 156.543 113.62C156.117 113.647 155.743 113.727 155.423 113.86L154.943 116.06L152.983 116.1C152.73 115.38 152.603 114.62 152.603 113.82L152.643 113.08C153.443 112.773 154.37 112.513 155.423 112.3C156.477 112.073 157.29 111.96 157.863 111.96C159.05 111.96 159.99 112.447 160.683 113.42C160.83 113.673 160.91 114.18 160.923 114.94V119.52C160.923 119.867 161.09 120.04 161.423 120.04L161.963 120.02L162.443 119.98L162.563 120.86ZM155.463 119.5C155.463 119.847 155.577 120.133 155.803 120.36C156.203 120.333 156.757 120.207 157.463 119.98V118.5C156.13 118.473 155.463 118.807 155.463 119.5ZM174.473 120.86L171.813 122.34C171.413 122.327 171.013 122.167 170.613 121.86C170.213 121.553 169.9 121.147 169.673 120.64L167.393 122.34C166.1 122.353 165.033 121.887 164.193 120.94C163.353 119.98 162.933 118.773 162.933 117.32C162.933 115.8 163.426 114.547 164.413 113.56C165.4 112.56 166.68 112.06 168.253 112.06L169.373 112.16V109.26L167.893 109L167.793 108C168.913 107.6 170.233 107.353 171.753 107.26L172.833 108.26V119.5C172.833 119.86 173 120.04 173.333 120.04L173.853 120.02L174.353 119.98L174.473 120.86ZM166.533 116.96C166.533 117.773 166.706 118.453 167.053 119C167.413 119.533 167.9 119.8 168.513 119.8C168.806 119.8 169.093 119.747 169.373 119.64V114.22C168.84 113.98 168.266 113.867 167.653 113.88C166.906 114.6 166.533 115.627 166.533 116.96ZM191.602 120.86L188.942 122.34C188.542 122.327 188.142 122.167 187.742 121.86C187.342 121.553 187.028 121.147 186.802 120.64L184.522 122.34C183.228 122.353 182.162 121.887 181.322 120.94C180.482 119.98 180.062 118.773 180.062 117.32C180.062 115.8 180.555 114.547 181.542 113.56C182.528 112.56 183.808 112.06 185.382 112.06L186.502 112.16V109.26L185.022 109L184.922 108C186.042 107.6 187.362 107.353 188.882 107.26L189.962 108.26V119.5C189.962 119.86 190.128 120.04 190.462 120.04L190.982 120.02L191.482 119.98L191.602 120.86ZM183.662 116.96C183.662 117.773 183.835 118.453 184.182 119C184.542 119.533 185.028 119.8 185.642 119.8C185.935 119.8 186.222 119.747 186.502 119.64V114.22C185.968 113.98 185.395 113.867 184.782 113.88C184.035 114.6 183.662 115.627 183.662 116.96ZM199.905 117.42L194.865 117.38C194.958 118.247 195.265 118.913 195.785 119.38C196.318 119.847 196.985 120.08 197.785 120.08C198.491 120.08 199.338 119.827 200.325 119.32L200.825 120.46L197.685 122.24L196.765 122.3C195.285 122.3 194.051 121.833 193.065 120.9C192.091 119.967 191.605 118.773 191.605 117.32C191.605 115.84 192.098 114.587 193.085 113.56C194.085 112.52 195.291 112 196.705 112C197.998 112 199.051 112.393 199.865 113.18C200.678 113.953 201.078 114.98 201.065 116.26L199.905 117.42ZM196.165 113.66C195.525 114.06 195.118 114.793 194.945 115.86L197.945 115.68C197.865 115.133 197.658 114.667 197.325 114.28C197.005 113.88 196.618 113.673 196.165 113.66ZM102.326 139C103.3 139.2 104.053 139.607 104.586 140.22C105.12 140.82 105.386 141.52 105.386 142.32C105.386 143.413 104.913 144.293 103.966 144.96C103.033 145.613 101.76 145.96 100.146 146H92.7465L92.6265 145.36C93.1332 145.013 93.6998 144.7 94.3265 144.42V134.02L92.9065 133.82L92.9265 132.76C94.7132 132.653 96.9665 132.6 99.6865 132.6C101.206 132.6 102.44 132.92 103.386 133.56C104.333 134.2 104.806 135.02 104.806 136.02C104.806 136.673 104.593 137.293 104.166 137.88C103.74 138.453 103.126 138.827 102.326 139ZM97.9465 134.64V138.4H98.8465C99.6332 138.4 100.22 138.213 100.606 137.84C101.006 137.453 101.206 136.987 101.206 136.44C101.206 135.987 101.08 135.553 100.826 135.14C100.586 134.727 100.266 134.46 99.8665 134.34L97.9465 134.64ZM99.3465 144.3L99.6465 144.32C100.3 144.32 100.8 144.113 101.146 143.7C101.493 143.287 101.666 142.8 101.666 142.24C101.666 141.613 101.453 141.06 101.026 140.58C100.613 140.1 100.093 139.853 99.4665 139.84H97.9465V144.14L99.3465 144.3ZM114.534 141.42L109.494 141.38C109.587 142.247 109.894 142.913 110.414 143.38C110.947 143.847 111.614 144.08 112.414 144.08C113.12 144.08 113.967 143.827 114.954 143.32L115.454 144.46L112.314 146.24L111.394 146.3C109.914 146.3 108.68 145.833 107.694 144.9C106.72 143.967 106.234 142.773 106.234 141.32C106.234 139.84 106.727 138.587 107.714 137.56C108.714 136.52 109.92 136 111.334 136C112.627 136 113.68 136.393 114.494 137.18C115.307 137.953 115.707 138.98 115.694 140.26L114.534 141.42ZM110.794 137.66C110.154 138.06 109.747 138.793 109.574 139.86L112.574 139.68C112.494 139.133 112.287 138.667 111.954 138.28C111.634 137.88 111.247 137.673 110.794 137.66ZM121.194 144.32C121.78 144.52 122.26 144.753 122.634 145.02L122.594 146H116.254L116.214 145.3C116.68 145.033 117.187 144.807 117.734 144.62V133.26L116.254 133L116.154 132C117.274 131.6 118.594 131.353 120.114 131.26L121.194 132.26V144.32ZM128.205 144.32C128.792 144.52 129.272 144.753 129.645 145.02L129.605 146H123.265L123.225 145.3C123.692 145.033 124.199 144.807 124.745 144.62V133.26L123.265 133L123.165 132C124.285 131.6 125.605 131.353 127.125 131.26L128.205 132.26V144.32ZM140.864 144.86L138.224 146.34C137.851 146.327 137.477 146.187 137.104 145.92C136.731 145.653 136.424 145.307 136.184 144.88L134.064 146.26L133.384 146.32C132.517 146.32 131.791 146.067 131.204 145.56C130.631 145.053 130.344 144.44 130.344 143.72C130.344 142.72 130.884 141.933 131.964 141.36L135.764 141.28V139.64C135.764 138.613 135.457 137.94 134.844 137.62C134.417 137.647 134.044 137.727 133.724 137.86L133.244 140.06L131.284 140.1C131.031 139.38 130.904 138.62 130.904 137.82L130.944 137.08C131.744 136.773 132.671 136.513 133.724 136.3C134.777 136.073 135.591 135.96 136.164 135.96C137.351 135.96 138.291 136.447 138.984 137.42C139.131 137.673 139.211 138.18 139.224 138.94V143.52C139.224 143.867 139.391 144.04 139.724 144.04L140.264 144.02L140.744 143.98L140.864 144.86ZM133.764 143.5C133.764 143.847 133.877 144.133 134.104 144.36C134.504 144.333 135.057 144.207 135.764 143.98V142.5C134.431 142.473 133.764 142.807 133.764 143.5ZM144.794 138.38C144.794 138.62 144.88 138.84 145.054 139.04C145.227 139.227 145.847 139.6 146.914 140.16C147.98 140.707 148.7 141.22 149.074 141.7C149.447 142.167 149.634 142.7 149.634 143.3C149.634 144.207 149.26 144.953 148.514 145.54C147.767 146.113 146.774 146.4 145.534 146.4C144.134 146.4 142.74 146.04 141.354 145.32L142.494 142.7C143.654 143.593 144.854 144.26 146.094 144.7C146.334 144.487 146.454 144.24 146.454 143.96C146.454 143.707 146.354 143.48 146.154 143.28C145.967 143.08 145.354 142.72 144.314 142.2C143.287 141.667 142.587 141.173 142.214 140.72C141.854 140.253 141.674 139.727 141.674 139.14C141.674 138.207 142.08 137.453 142.894 136.88C143.72 136.293 144.787 136 146.094 136C147.307 136 148.34 136.22 149.194 136.66L149.234 137.36C149.234 138.053 149.12 138.753 148.894 139.46H147.134L146.514 137.64L145.594 137.54C145.06 137.7 144.794 137.98 144.794 138.38ZM170.326 144.94L170.306 146H163.526L163.406 145.36C163.78 145.093 164.313 144.793 165.006 144.46L164.306 142.56H159.906L159.106 144.66L160.826 144.94L160.806 146H155.206L155.086 145.36C155.553 145.04 156.113 144.733 156.766 144.44L161.046 133.9L160.746 133.08L163.866 132.28L168.886 144.72L170.326 144.94ZM163.666 140.88L162.106 136.68L160.526 140.88H163.666ZM174.965 139.44V144.18C175.858 144.393 176.585 144.673 177.145 145.02L177.105 146H170.065L170.025 145.3C170.438 145.06 170.932 144.84 171.505 144.64V138.02L170.025 137.74L169.925 136.78C171.112 136.327 172.432 136.08 173.885 136.04L174.965 137.54V137.9L176.545 136.12C176.745 136.053 176.998 136.02 177.305 136.02C177.838 136.02 178.325 136.153 178.765 136.42C179.218 136.687 179.532 137.06 179.705 137.54L177.405 140.44C176.512 139.693 175.798 139.287 175.265 139.22L174.965 139.44ZM185.407 143.78C185.874 143.78 186.407 143.72 187.007 143.6L187.147 144.64L183.847 146.34C183.18 146.367 182.567 146.16 182.007 145.72C181.46 145.267 181.187 144.74 181.187 144.14V138.78H179.727L179.667 137.7C180.107 137.327 180.674 136.94 181.367 136.54L182.467 133.86H184.047L184.547 136.54H187.307L187.327 137.54L186.327 138.8H184.647V142.92C184.647 143.493 184.9 143.78 185.407 143.78ZM196.194 141.42L191.154 141.38C191.247 142.247 191.554 142.913 192.074 143.38C192.607 143.847 193.274 144.08 194.074 144.08C194.78 144.08 195.627 143.827 196.614 143.32L197.114 144.46L193.974 146.24L193.054 146.3C191.574 146.3 190.34 145.833 189.354 144.9C188.38 143.967 187.894 142.773 187.894 141.32C187.894 139.84 188.387 138.587 189.374 137.56C190.374 136.52 191.58 136 192.994 136C194.287 136 195.34 136.393 196.154 137.18C196.967 137.953 197.367 138.98 197.354 140.26L196.194 141.42ZM192.454 137.66C191.814 138.06 191.407 138.793 191.234 139.86L194.234 139.68C194.154 139.133 193.947 138.667 193.614 138.28C193.294 137.88 192.907 137.673 192.454 137.66ZM201.454 138.38C201.454 138.62 201.54 138.84 201.714 139.04C201.887 139.227 202.507 139.6 203.574 140.16C204.64 140.707 205.36 141.22 205.734 141.7C206.107 142.167 206.294 142.7 206.294 143.3C206.294 144.207 205.92 144.953 205.174 145.54C204.427 146.113 203.434 146.4 202.194 146.4C200.794 146.4 199.4 146.04 198.014 145.32L199.154 142.7C200.314 143.593 201.514 144.26 202.754 144.7C202.994 144.487 203.114 144.24 203.114 143.96C203.114 143.707 203.014 143.48 202.814 143.28C202.627 143.08 202.014 142.72 200.974 142.2C199.947 141.667 199.247 141.173 198.874 140.72C198.514 140.253 198.334 139.727 198.334 139.14C198.334 138.207 198.74 137.453 199.554 136.88C200.38 136.293 201.447 136 202.754 136C203.967 136 205 136.22 205.854 136.66L205.894 137.36C205.894 138.053 205.78 138.753 205.554 139.46H203.794L203.174 137.64L202.254 137.54C201.72 137.7 201.454 137.98 201.454 138.38Z" fill="black"/>
</svg>
