<svg width="158" height="149" viewBox="0 0 158 149" fill="none" xmlns="http://www.w3.org/2000/svg">
<path d="M41.9997 17C-16.8003 11.4 -1.16698 54 13.9997 76C81.9994 129.2 124.666 110.833 137.5 94.9999C149.9 74.9999 137.667 66.3332 130 64.4999C152 66.8999 157.167 53.1667 157 46.0002C147.4 -11.9998 108.667 -2.49983 90.5 9.50017C74.9 28.3002 68.3333 22.3334 67 17C61.8 4.60032 48.1665 11.8335 41.9997 17Z" fill="#7EA172"/>
<path d="M58.5036 131.82C58.5036 133.567 58.4103 134.96 58.2236 136H46.7836L46.6636 135.36C47.1703 135.013 47.7369 134.7 48.3636 134.42V124.06L46.8236 123.82L46.8436 122.76H53.5636L53.6836 123.4C53.2036 123.747 52.6369 124.06 51.9836 124.34V134.14L55.5436 133.8L56.4436 130.9L58.5036 131.08V131.82ZM69.2958 134.86L66.6558 136.34C66.2824 136.327 65.9091 136.187 65.5358 135.92C65.1624 135.653 64.8558 135.307 64.6158 134.88L62.4958 136.26L61.8158 136.32C60.9491 136.32 60.2224 136.067 59.6358 135.56C59.0624 135.053 58.7758 134.44 58.7758 133.72C58.7758 132.72 59.3158 131.933 60.3958 131.36L64.1958 131.28V129.64C64.1958 128.613 63.8891 127.94 63.2758 127.62C62.8491 127.647 62.4758 127.727 62.1558 127.86L61.6758 130.06L59.7158 130.1C59.4624 129.38 59.3358 128.62 59.3358 127.82L59.3758 127.08C60.1758 126.773 61.1024 126.513 62.1558 126.3C63.2091 126.073 64.0224 125.96 64.5958 125.96C65.7824 125.96 66.7224 126.447 67.4158 127.42C67.5624 127.673 67.6424 128.18 67.6558 128.94V133.52C67.6558 133.867 67.8224 134.04 68.1558 134.04L68.6958 134.02L69.1758 133.98L69.2958 134.86ZM62.1958 133.5C62.1958 133.847 62.3091 134.133 62.5358 134.36C62.9358 134.333 63.4891 134.207 64.1958 133.98V132.5C62.8624 132.473 62.1958 132.807 62.1958 133.5ZM86.3983 122.82L86.4183 123.3C86.4183 124.593 86.2916 125.8 86.0383 126.92H84.0383L83.6583 124.74L80.4383 124.52V128.98L84.8783 128.64V130.92L80.4383 130.72V134.56L82.8783 134.94L82.8583 136H75.3583L75.2383 135.36C75.7583 135.013 76.2849 134.72 76.8183 134.48V124.04L75.3383 123.82L75.3583 122.76H86.4183L86.3983 122.82ZM98.9008 134.86L96.2408 136.34C95.8541 136.313 95.4608 136.147 95.0608 135.84C94.6741 135.533 94.3608 135.133 94.1208 134.64C93.0541 135.453 91.9808 136.02 90.9008 136.34C90.2208 136.34 89.5741 136.127 88.9608 135.7C88.3608 135.273 88.0208 134.74 87.9408 134.1L87.8808 132.96V128.02L86.4008 127.74L86.3008 126.78C87.4874 126.327 88.8074 126.08 90.2608 126.04L91.3408 127V132.28C91.3408 133.387 91.7608 133.94 92.6008 133.94C93.0141 133.94 93.4141 133.853 93.8008 133.68V127.96L92.6808 127.68L92.5808 126.72C93.6474 126.293 94.8474 126.067 96.1808 126.04L97.2608 127V133.52C97.2608 133.867 97.4274 134.04 97.7608 134.04L98.2808 134.02L98.7808 133.98L98.9008 134.86ZM107.497 131.42L102.457 131.38C102.55 132.247 102.857 132.913 103.377 133.38C103.91 133.847 104.577 134.08 105.377 134.08C106.083 134.08 106.93 133.827 107.917 133.32L108.417 134.46L105.277 136.24L104.357 136.3C102.877 136.3 101.643 135.833 100.657 134.9C99.6832 133.967 99.1966 132.773 99.1966 131.32C99.1966 129.84 99.6899 128.587 100.677 127.56C101.677 126.52 102.883 126 104.297 126C105.59 126 106.643 126.393 107.457 127.18C108.27 127.953 108.67 128.98 108.657 130.26L107.497 131.42ZM103.757 127.66C103.117 128.06 102.71 128.793 102.537 129.86L105.537 129.68C105.457 129.133 105.25 128.667 104.917 128.28C104.597 127.88 104.21 127.673 103.757 127.66ZM120.062 134.32C120.648 134.52 121.128 134.753 121.502 135.02L121.442 136H116.602V130.46C116.602 129.113 116.175 128.44 115.322 128.44C114.935 128.44 114.502 128.56 114.022 128.8V134.38C114.502 134.593 114.888 134.807 115.182 135.02L115.142 136H109.122L109.082 135.3C109.495 135.06 109.988 134.84 110.562 134.64V128.02L109.082 127.74L108.982 126.78C110.168 126.327 111.488 126.08 112.942 126.04L114.022 127.12V127.76C115.102 126.947 116.108 126.393 117.042 126.1C118.295 126.14 119.222 126.62 119.822 127.54C119.968 127.807 120.048 128.413 120.062 129.36V134.32ZM127.55 133.78C128.016 133.78 128.55 133.72 129.15 133.6L129.29 134.64L125.99 136.34C125.323 136.367 124.71 136.16 124.15 135.72C123.603 135.267 123.33 134.74 123.33 134.14V128.78H121.87L121.81 127.7C122.25 127.327 122.816 126.94 123.51 126.54L124.61 123.86H126.19L126.69 126.54H129.45L129.47 127.54L128.47 128.8H126.79V132.92C126.79 133.493 127.043 133.78 127.55 133.78ZM138.336 131.42L133.296 131.38C133.39 132.247 133.696 132.913 134.216 133.38C134.75 133.847 135.416 134.08 136.216 134.08C136.923 134.08 137.77 133.827 138.756 133.32L139.256 134.46L136.116 136.24L135.196 136.3C133.716 136.3 132.483 135.833 131.496 134.9C130.523 133.967 130.036 132.773 130.036 131.32C130.036 129.84 130.53 128.587 131.516 127.56C132.516 126.52 133.723 126 135.136 126C136.43 126 137.483 126.393 138.296 127.18C139.11 127.953 139.51 128.98 139.496 130.26L138.336 131.42ZM134.596 127.66C133.956 128.06 133.55 128.793 133.376 129.86L136.376 129.68C136.296 129.133 136.09 128.667 135.756 128.28C135.436 127.88 135.05 127.673 134.596 127.66Z" fill="black"/>
</svg>
