<svg width="618" height="244" viewBox="0 0 618 244" fill="none" xmlns="http://www.w3.org/2000/svg">
<path d="M73.4321 74.0928C90.9948 73.6175 99.7366 82.2125 101.912 86.5695L163.619 137.07C160.296 177.47 195.461 205.395 213.459 214.307C274.691 226.665 331.533 219.456 352.3 214.307C357.046 224.288 378.802 236.686 389.086 241.637C435.604 251.618 487.184 227.576 507.16 214.307C619.656 159.647 625.234 90.5298 613.96 62.8037C606.366 32.3843 549.089 34.6817 521.4 39.6329C491.496 12.0649 449.211 22.997 431.806 31.909C369.15 20.5017 297.317 32.3052 269.233 39.6329C214.171 58.6452 192.495 47.5547 188.539 39.6329C136.8 -24.5332 49.1054 3.39092 11.7253 25.3737C-26.2482 72.4288 37.0409 77.4594 73.4321 74.0928Z" fill="#DFE3E6"/>
<path d="M269.784 179.984C269.784 182.08 269.672 183.752 269.448 185H255.72L255.576 184.232C256.184 183.816 256.864 183.44 257.616 183.104V170.672L255.768 170.384L255.792 169.112H263.856L264 169.88C263.424 170.296 262.744 170.672 261.96 171.008V182.768L266.232 182.36L267.312 178.88L269.784 179.096V179.984ZM282.735 183.632L279.567 185.408C279.119 185.392 278.671 185.224 278.223 184.904C277.775 184.584 277.407 184.168 277.119 183.656L274.575 185.312L273.759 185.384C272.719 185.384 271.847 185.08 271.143 184.472C270.455 183.864 270.111 183.128 270.111 182.264C270.111 181.064 270.759 180.12 272.055 179.432L276.615 179.336V177.368C276.615 176.136 276.247 175.328 275.511 174.944C274.999 174.976 274.551 175.072 274.167 175.232L273.591 177.872L271.239 177.92C270.935 177.056 270.783 176.144 270.783 175.184L270.831 174.296C271.791 173.928 272.903 173.616 274.167 173.36C275.431 173.088 276.407 172.952 277.095 172.952C278.519 172.952 279.647 173.536 280.479 174.704C280.655 175.008 280.751 175.616 280.767 176.528V182.024C280.767 182.44 280.967 182.648 281.367 182.648L282.015 182.624L282.591 182.576L282.735 183.632ZM274.215 182C274.215 182.416 274.351 182.76 274.623 183.032C275.103 183 275.767 182.848 276.615 182.576V180.8C275.015 180.768 274.215 181.168 274.215 182ZM287.45 175.856C287.45 176.144 287.554 176.408 287.762 176.648C287.97 176.872 288.714 177.32 289.994 177.992C291.274 178.648 292.138 179.264 292.586 179.84C293.034 180.4 293.258 181.04 293.258 181.76C293.258 182.848 292.81 183.744 291.914 184.448C291.018 185.136 289.826 185.48 288.338 185.48C286.658 185.48 284.986 185.048 283.322 184.184L284.69 181.04C286.082 182.112 287.522 182.912 289.01 183.44C289.298 183.184 289.442 182.888 289.442 182.552C289.442 182.248 289.322 181.976 289.082 181.736C288.858 181.496 288.122 181.064 286.874 180.44C285.642 179.8 284.802 179.208 284.354 178.664C283.922 178.104 283.706 177.472 283.706 176.768C283.706 175.648 284.194 174.744 285.17 174.056C286.162 173.352 287.442 173 289.01 173C290.466 173 291.706 173.264 292.73 173.792L292.778 174.632C292.778 175.464 292.642 176.304 292.37 177.152H290.258L289.514 174.968L288.41 174.848C287.77 175.04 287.45 175.376 287.45 175.856ZM323.225 183.872L323.201 185H314.969L314.825 184.232C315.337 183.864 316.017 183.488 316.865 183.104L316.841 177.728L317.177 173.456L312.953 184.616L309.881 185.168L305.681 173.552L306.041 177.728L305.969 183.368L308.009 183.872L307.985 185H300.977L300.833 184.232C301.473 183.784 302.177 183.4 302.945 183.08L303.233 171.032L301.217 170.528L301.241 169.4H308.345L308.321 169.424L312.353 180.68L316.553 169.4H322.745L322.889 170.168C322.361 170.552 321.673 170.928 320.825 171.296L321.017 183.32L323.225 183.872ZM323.256 179.168C323.256 177.36 323.824 175.88 324.96 174.728C326.096 173.576 327.536 173 329.28 173C331.024 173 332.456 173.584 333.576 174.752C334.696 175.92 335.256 177.432 335.256 179.288C335.256 181.128 334.704 182.624 333.6 183.776C332.512 184.912 331.104 185.48 329.376 185.48C327.616 185.48 326.152 184.888 324.984 183.704C323.832 182.504 323.256 180.992 323.256 179.168ZM330.168 183.2C330.76 182.752 331.056 181.536 331.056 179.552C331.056 176.72 330.408 175.304 329.112 175.304C328.712 175.304 328.4 175.392 328.176 175.568C327.696 176.208 327.456 177.424 327.456 179.216C327.456 180.432 327.624 181.424 327.96 182.192C328.296 182.944 328.808 183.32 329.496 183.32C329.72 183.32 329.944 183.28 330.168 183.2ZM349.208 182.984C349.912 183.224 350.488 183.504 350.936 183.824L350.864 185H345.056V178.352C345.056 176.736 344.544 175.928 343.52 175.928C343.056 175.928 342.536 176.072 341.96 176.36V183.056C342.536 183.312 343 183.568 343.352 183.824L343.304 185H336.08L336.032 184.16C336.528 183.872 337.12 183.608 337.808 183.368V175.424L336.032 175.088L335.912 173.936C337.336 173.392 338.92 173.096 340.664 173.048L341.96 174.344V175.112C343.256 174.136 344.464 173.472 345.584 173.12C347.088 173.168 348.2 173.744 348.92 174.848C349.096 175.168 349.192 175.896 349.208 177.032V182.984ZM358.194 182.336C358.754 182.336 359.394 182.264 360.114 182.12L360.282 183.368L356.322 185.408C355.522 185.44 354.786 185.192 354.114 184.664C353.458 184.12 353.13 183.488 353.13 182.768V176.336H351.378L351.306 175.04C351.834 174.592 352.514 174.128 353.346 173.648L354.666 170.432H356.562L357.162 173.648H360.474L360.498 174.848L359.298 176.36H357.282V181.304C357.282 181.992 357.586 182.336 358.194 182.336ZM374.258 183.632L371.09 185.408C370.642 185.392 370.194 185.224 369.746 184.904C369.298 184.584 368.93 184.168 368.642 183.656L366.098 185.312L365.282 185.384C364.242 185.384 363.37 185.08 362.666 184.472C361.978 183.864 361.634 183.128 361.634 182.264C361.634 181.064 362.282 180.12 363.578 179.432L368.138 179.336V177.368C368.138 176.136 367.77 175.328 367.034 174.944C366.522 174.976 366.074 175.072 365.69 175.232L365.114 177.872L362.762 177.92C362.458 177.056 362.306 176.144 362.306 175.184L362.354 174.296C363.314 173.928 364.426 173.616 365.69 173.36C366.954 173.088 367.93 172.952 368.618 172.952C370.042 172.952 371.17 173.536 372.002 174.704C372.178 175.008 372.274 175.616 372.29 176.528V182.024C372.29 182.44 372.49 182.648 372.89 182.648L373.538 182.624L374.114 182.576L374.258 183.632ZM365.738 182C365.738 182.416 365.874 182.76 366.146 183.032C366.626 183 367.29 182.848 368.138 182.576V180.8C366.538 180.768 365.738 181.168 365.738 182ZM387.997 182.984C388.702 183.224 389.278 183.504 389.726 183.824L389.654 185H383.846V178.352C383.846 176.736 383.334 175.928 382.31 175.928C381.846 175.928 381.326 176.072 380.75 176.36V183.056C381.326 183.312 381.79 183.568 382.142 183.824L382.094 185H374.87L374.822 184.16C375.318 183.872 375.91 183.608 376.598 183.368V175.424L374.822 175.088L374.702 173.936C376.126 173.392 377.71 173.096 379.454 173.048L380.75 174.344V175.112C382.046 174.136 383.254 173.472 384.374 173.12C385.878 173.168 386.99 173.744 387.71 174.848C387.886 175.168 387.982 175.896 387.997 177.032V182.984ZM377.102 170.864C377.966 169.424 378.638 168.472 379.118 168.008C379.614 167.544 380.134 167.312 380.678 167.312C381.014 167.312 381.582 167.544 382.382 168.008C383.182 168.456 383.934 168.944 384.638 169.472L386.606 167.48L387.902 168.416C386.654 170.848 385.55 172.064 384.59 172.064C384.302 172.064 383.982 171.976 383.63 171.8C383.278 171.608 382.734 171.272 381.998 170.792C381.278 170.296 380.798 170.048 380.558 170.048C380.318 170.048 380.054 170.192 379.766 170.48C379.478 170.752 379.046 171.232 378.47 171.92L377.102 170.864ZM403.391 183.632L400.223 185.408C399.775 185.392 399.327 185.224 398.879 184.904C398.431 184.584 398.063 184.168 397.775 183.656L395.231 185.312L394.415 185.384C393.375 185.384 392.503 185.08 391.799 184.472C391.111 183.864 390.767 183.128 390.767 182.264C390.767 181.064 391.415 180.12 392.711 179.432L397.271 179.336V177.368C397.271 176.136 396.903 175.328 396.167 174.944C395.655 174.976 395.207 175.072 394.823 175.232L394.247 177.872L391.895 177.92C391.591 177.056 391.439 176.144 391.439 175.184L391.487 174.296C392.447 173.928 393.559 173.616 394.823 173.36C396.087 173.088 397.063 172.952 397.751 172.952C399.175 172.952 400.303 173.536 401.135 174.704C401.311 175.008 401.407 175.616 401.423 176.528V182.024C401.423 182.44 401.623 182.648 402.023 182.648L402.671 182.624L403.247 182.576L403.391 183.632ZM394.871 182C394.871 182.416 395.007 182.76 395.279 183.032C395.759 183 396.423 182.848 397.271 182.576V180.8C395.671 180.768 394.871 181.168 394.871 182ZM408.106 175.856C408.106 176.144 408.21 176.408 408.418 176.648C408.626 176.872 409.37 177.32 410.65 177.992C411.93 178.648 412.794 179.264 413.242 179.84C413.69 180.4 413.914 181.04 413.914 181.76C413.914 182.848 413.466 183.744 412.57 184.448C411.674 185.136 410.482 185.48 408.994 185.48C407.314 185.48 405.642 185.048 403.978 184.184L405.346 181.04C406.738 182.112 408.178 182.912 409.666 183.44C409.954 183.184 410.098 182.888 410.098 182.552C410.098 182.248 409.978 181.976 409.738 181.736C409.514 181.496 408.778 181.064 407.53 180.44C406.298 179.8 405.458 179.208 405.01 178.664C404.578 178.104 404.362 177.472 404.362 176.768C404.362 175.648 404.85 174.744 405.826 174.056C406.818 173.352 408.098 173 409.666 173C411.122 173 412.362 173.264 413.386 173.792L413.434 174.632C413.434 175.464 413.298 176.304 413.026 177.152H410.914L410.17 174.968L409.066 174.848C408.426 175.04 408.106 175.376 408.106 175.856ZM439.274 169.88C438.698 170.28 438.058 170.632 437.354 170.936L437.234 185L433.394 185.312L426.218 174.536L426.554 177.44V183.392L428.666 183.728L428.642 185H421.658L421.514 184.232C422.122 183.816 422.802 183.44 423.554 183.104V170.696L421.802 170.384L421.826 169.112H427.706L427.682 169.136L434.714 179.936L434.378 176.936V170.768L432.002 170.384L432.026 169.112H439.13L439.274 169.88ZM449.232 179.504L443.184 179.456C443.296 180.496 443.664 181.296 444.288 181.856C444.928 182.416 445.728 182.696 446.688 182.696C447.536 182.696 448.552 182.392 449.736 181.784L450.336 183.152L446.568 185.288L445.464 185.36C443.688 185.36 442.208 184.8 441.024 183.68C439.856 182.56 439.272 181.128 439.272 179.384C439.272 177.608 439.864 176.104 441.048 174.872C442.248 173.624 443.696 173 445.392 173C446.944 173 448.208 173.472 449.184 174.416C450.16 175.344 450.64 176.576 450.624 178.112L449.232 179.504ZM444.744 174.992C443.976 175.472 443.488 176.352 443.28 177.632L446.88 177.416C446.784 176.76 446.536 176.2 446.136 175.736C445.752 175.256 445.288 175.008 444.744 174.992ZM464.424 174.68L463.248 175.352L460.368 182.624L459.384 184.928C458.808 185.104 457.992 185.192 456.936 185.192C456.28 185.192 455.784 185.16 455.448 185.096L451.992 175.688L450.456 174.824L450.48 173.504H455.712L457.608 179.576L457.944 181.4H458.28C458.776 178.808 459.192 176.176 459.528 173.504H464.352L464.424 174.68ZM477.336 183.632L474.168 185.408C473.72 185.392 473.272 185.224 472.824 184.904C472.376 184.584 472.008 184.168 471.72 183.656L469.176 185.312L468.36 185.384C467.32 185.384 466.448 185.08 465.744 184.472C465.056 183.864 464.712 183.128 464.712 182.264C464.712 181.064 465.36 180.12 466.656 179.432L471.216 179.336V177.368C471.216 176.136 470.848 175.328 470.112 174.944C469.6 174.976 469.152 175.072 468.768 175.232L468.192 177.872L465.84 177.92C465.536 177.056 465.384 176.144 465.384 175.184L465.432 174.296C466.392 173.928 467.504 173.616 468.768 173.36C470.032 173.088 471.008 172.952 471.696 172.952C473.12 172.952 474.248 173.536 475.08 174.704C475.256 175.008 475.352 175.616 475.368 176.528V182.024C475.368 182.44 475.568 182.648 475.968 182.648L476.616 182.624L477.192 182.576L477.336 183.632ZM468.816 182C468.816 182.416 468.952 182.76 469.224 183.032C469.704 183 470.368 182.848 471.216 182.576V180.8C469.616 180.768 468.816 181.168 468.816 182ZM491.628 183.632L488.436 185.408C487.956 185.392 487.476 185.2 486.996 184.832C486.516 184.464 486.14 183.976 485.868 183.368L483.132 185.408C481.58 185.424 480.3 184.864 479.292 183.728C478.284 182.576 477.78 181.128 477.78 179.384C477.78 177.56 478.372 176.056 479.556 174.872C480.74 173.672 482.276 173.072 484.164 173.072L485.508 173.192V169.712L483.732 169.4L483.612 168.2C484.956 167.72 486.54 167.424 488.364 167.312L489.66 168.512V182C489.66 182.432 489.86 182.648 490.26 182.648L490.884 182.624L491.484 182.576L491.628 183.632ZM482.1 178.952C482.1 179.928 482.308 180.744 482.724 181.4C483.156 182.04 483.74 182.36 484.476 182.36C484.828 182.36 485.172 182.296 485.508 182.168V175.664C484.868 175.376 484.18 175.24 483.444 175.256C482.548 176.12 482.1 177.352 482.1 178.952ZM504.711 183.632L501.543 185.408C501.095 185.392 500.647 185.224 500.199 184.904C499.751 184.584 499.383 184.168 499.095 183.656L496.551 185.312L495.735 185.384C494.695 185.384 493.823 185.08 493.119 184.472C492.431 183.864 492.087 183.128 492.087 182.264C492.087 181.064 492.735 180.12 494.031 179.432L498.591 179.336V177.368C498.591 176.136 498.223 175.328 497.487 174.944C496.975 174.976 496.527 175.072 496.143 175.232L495.567 177.872L493.215 177.92C492.911 177.056 492.759 176.144 492.759 175.184L492.807 174.296C493.767 173.928 494.879 173.616 496.143 173.36C497.407 173.088 498.383 172.952 499.071 172.952C500.495 172.952 501.623 173.536 502.455 174.704C502.631 175.008 502.727 175.616 502.743 176.528V182.024C502.743 182.44 502.943 182.648 503.343 182.648L503.991 182.624L504.567 182.576L504.711 183.632ZM496.191 182C496.191 182.416 496.327 182.76 496.599 183.032C497.079 183 497.743 182.848 498.591 182.576V180.8C496.991 180.768 496.191 181.168 496.191 182ZM509.427 175.856C509.427 176.144 509.531 176.408 509.739 176.648C509.947 176.872 510.691 177.32 511.971 177.992C513.251 178.648 514.115 179.264 514.563 179.84C515.011 180.4 515.235 181.04 515.235 181.76C515.235 182.848 514.787 183.744 513.891 184.448C512.995 185.136 511.803 185.48 510.315 185.48C508.635 185.48 506.963 185.048 505.299 184.184L506.667 181.04C508.059 182.112 509.499 182.912 510.987 183.44C511.275 183.184 511.419 182.888 511.419 182.552C511.419 182.248 511.299 181.976 511.059 181.736C510.835 181.496 510.099 181.064 508.851 180.44C507.619 179.8 506.779 179.208 506.331 178.664C505.899 178.104 505.683 177.472 505.683 176.768C505.683 175.648 506.171 174.744 507.147 174.056C508.139 173.352 509.419 173 510.987 173C512.443 173 513.683 173.264 514.707 173.792L514.755 174.632C514.755 175.464 514.619 176.304 514.347 177.152H512.235L511.491 174.968L510.387 174.848C509.747 175.04 509.427 175.376 509.427 175.856Z" fill="black"/>
<path d="M266 154C272 142.167 284.9 118.5 288.5 118.5C292.1 118.5 304.667 142.167 310.5 154" stroke="#A8B4BA" stroke-width="3" stroke-linecap="round" stroke-linejoin="round"/>
<path d="M331 154C337 142.167 349.9 118.5 353.5 118.5C357.1 118.5 369.667 142.167 375.5 154" stroke="#A8B4BA" stroke-width="3" stroke-linecap="round" stroke-linejoin="round"/>
<path d="M332 108.5C338 96.6667 350.9 73 354.5 73C358.1 73 370.667 96.6667 376.5 108.5" stroke="#A8B4BA" stroke-width="3" stroke-linecap="round" stroke-linejoin="round"/>
<path d="M299 131C305 119.167 317.9 95.5 321.5 95.5C325.1 95.5 337.667 119.167 343.5 131" stroke="#A8B4BA" stroke-width="3" stroke-linecap="round" stroke-linejoin="round"/>
<path d="M396 154C402 142.167 414.9 118.5 418.5 118.5C422.1 118.5 434.667 142.167 440.5 154" stroke="#A8B4BA" stroke-width="3" stroke-linecap="round" stroke-linejoin="round"/>
<path d="M397 108.5C403 96.6667 415.9 73 419.5 73C423.1 73 435.667 96.6667 441.5 108.5" stroke="#A8B4BA" stroke-width="3" stroke-linecap="round" stroke-linejoin="round"/>
<path d="M364 131C370 119.167 382.9 95.5 386.5 95.5C390.1 95.5 402.667 119.167 408.5 131" stroke="#A8B4BA" stroke-width="3" stroke-linecap="round" stroke-linejoin="round"/>
<path d="M365 85.5C371 73.6667 383.9 50 387.5 50C391.1 50 403.667 73.6667 409.5 85.5" stroke="#A8B4BA" stroke-width="3" stroke-linecap="round" stroke-linejoin="round"/>
<path d="M461 154C467 142.167 479.9 118.5 483.5 118.5C487.1 118.5 499.667 142.167 505.5 154" stroke="#A8B4BA" stroke-width="3" stroke-linecap="round" stroke-linejoin="round"/>
<path d="M430 131C436 119.167 448.9 95.5 452.5 95.5C456.1 95.5 468.667 119.167 474.5 131" stroke="#A8B4BA" stroke-width="3" stroke-linecap="round"/>
</svg>
