<svg width="660" height="335" viewBox="0 0 660 335" fill="none" xmlns="http://www.w3.org/2000/svg">
<rect x="1.5" y="9.5" width="657" height="324" rx="30.5" fill="#BFCCD3" stroke="#FF0000" stroke-width="3"/>
<rect x="60" width="274" height="23" fill="#BFCCD3"/>
<path d="M71.38 5.72V20H81.48V17.36H74.52V5.72H71.38ZM82.8155 12.84C82.8555 12.1733 83.0221 11.62 83.3155 11.18C83.6088 10.74 83.9821 10.3867 84.4355 10.12C84.8888 9.85333 85.3955 9.66667 85.9555 9.56C86.5288 9.44 87.1021 9.38 87.6755 9.38C88.1955 9.38 88.7221 9.42 89.2555 9.5C89.7888 9.56667 90.2755 9.70667 90.7155 9.92C91.1555 10.1333 91.5155 10.4333 91.7955 10.82C92.0755 11.1933 92.2155 11.6933 92.2155 12.32V17.7C92.2155 18.1667 92.2421 18.6133 92.2955 19.04C92.3488 19.4667 92.4421 19.7867 92.5755 20H89.6955C89.6421 19.84 89.5955 19.68 89.5555 19.52C89.5288 19.3467 89.5088 19.1733 89.4955 19C89.0421 19.4667 88.5088 19.7933 87.8955 19.98C87.2821 20.1667 86.6555 20.26 86.0155 20.26C85.5221 20.26 85.0621 20.2 84.6355 20.08C84.2088 19.96 83.8355 19.7733 83.5155 19.52C83.1955 19.2667 82.9421 18.9467 82.7555 18.56C82.5821 18.1733 82.4955 17.7133 82.4955 17.18C82.4955 16.5933 82.5955 16.1133 82.7955 15.74C83.0088 15.3533 83.2755 15.0467 83.5955 14.82C83.9288 14.5933 84.3021 14.4267 84.7155 14.32C85.1421 14.2 85.5688 14.1067 85.9955 14.04C86.4221 13.9733 86.8421 13.92 87.2555 13.88C87.6688 13.84 88.0355 13.78 88.3555 13.7C88.6755 13.62 88.9288 13.5067 89.1155 13.36C89.3021 13.2 89.3888 12.9733 89.3755 12.68C89.3755 12.3733 89.3221 12.1333 89.2155 11.96C89.1221 11.7733 88.9888 11.6333 88.8155 11.54C88.6555 11.4333 88.4621 11.3667 88.2355 11.34C88.0221 11.3 87.7888 11.28 87.5355 11.28C86.9755 11.28 86.5355 11.4 86.2155 11.64C85.8955 11.88 85.7088 12.28 85.6555 12.84H82.8155ZM89.3755 14.94C89.2555 15.0467 89.1021 15.1333 88.9155 15.2C88.7421 15.2533 88.5488 15.3 88.3355 15.34C88.1355 15.38 87.9221 15.4133 87.6955 15.44C87.4688 15.4667 87.2421 15.5 87.0155 15.54C86.8021 15.58 86.5888 15.6333 86.3755 15.7C86.1755 15.7667 85.9955 15.86 85.8355 15.98C85.6888 16.0867 85.5688 16.2267 85.4755 16.4C85.3821 16.5733 85.3355 16.7933 85.3355 17.06C85.3355 17.3133 85.3821 17.5267 85.4755 17.7C85.5688 17.8733 85.6955 18.0133 85.8555 18.12C86.0155 18.2133 86.2021 18.28 86.4155 18.32C86.6288 18.36 86.8488 18.38 87.0755 18.38C87.6355 18.38 88.0688 18.2867 88.3755 18.1C88.6821 17.9133 88.9088 17.6933 89.0555 17.44C89.2021 17.1733 89.2888 16.9067 89.3155 16.64C89.3555 16.3733 89.3755 16.16 89.3755 16V14.94ZM100.286 5.72V20H103.226V9.98H103.266L106.766 20H109.186L112.686 9.88H112.726V20H115.666V5.72H111.246L108.086 15.54H108.046L104.706 5.72H100.286ZM118.011 12.84C118.051 12.1733 118.217 11.62 118.511 11.18C118.804 10.74 119.177 10.3867 119.631 10.12C120.084 9.85333 120.591 9.66667 121.151 9.56C121.724 9.44 122.297 9.38 122.871 9.38C123.391 9.38 123.917 9.42 124.451 9.5C124.984 9.56667 125.471 9.70667 125.911 9.92C126.351 10.1333 126.711 10.4333 126.991 10.82C127.271 11.1933 127.411 11.6933 127.411 12.32V17.7C127.411 18.1667 127.437 18.6133 127.491 19.04C127.544 19.4667 127.637 19.7867 127.771 20H124.891C124.837 19.84 124.791 19.68 124.751 19.52C124.724 19.3467 124.704 19.1733 124.691 19C124.237 19.4667 123.704 19.7933 123.091 19.98C122.477 20.1667 121.851 20.26 121.211 20.26C120.717 20.26 120.257 20.2 119.831 20.08C119.404 19.96 119.031 19.7733 118.711 19.52C118.391 19.2667 118.137 18.9467 117.951 18.56C117.777 18.1733 117.691 17.7133 117.691 17.18C117.691 16.5933 117.791 16.1133 117.991 15.74C118.204 15.3533 118.471 15.0467 118.791 14.82C119.124 14.5933 119.497 14.4267 119.911 14.32C120.337 14.2 120.764 14.1067 121.191 14.04C121.617 13.9733 122.037 13.92 122.451 13.88C122.864 13.84 123.231 13.78 123.551 13.7C123.871 13.62 124.124 13.5067 124.311 13.36C124.497 13.2 124.584 12.9733 124.571 12.68C124.571 12.3733 124.517 12.1333 124.411 11.96C124.317 11.7733 124.184 11.6333 124.011 11.54C123.851 11.4333 123.657 11.3667 123.431 11.34C123.217 11.3 122.984 11.28 122.731 11.28C122.171 11.28 121.731 11.4 121.411 11.64C121.091 11.88 120.904 12.28 120.851 12.84H118.011ZM124.571 14.94C124.451 15.0467 124.297 15.1333 124.111 15.2C123.937 15.2533 123.744 15.3 123.531 15.34C123.331 15.38 123.117 15.4133 122.891 15.44C122.664 15.4667 122.437 15.5 122.211 15.54C121.997 15.58 121.784 15.6333 121.571 15.7C121.371 15.7667 121.191 15.86 121.031 15.98C120.884 16.0867 120.764 16.2267 120.671 16.4C120.577 16.5733 120.531 16.7933 120.531 17.06C120.531 17.3133 120.577 17.5267 120.671 17.7C120.764 17.8733 120.891 18.0133 121.051 18.12C121.211 18.2133 121.397 18.28 121.611 18.32C121.824 18.36 122.044 18.38 122.271 18.38C122.831 18.38 123.264 18.2867 123.571 18.1C123.877 17.9133 124.104 17.6933 124.251 17.44C124.397 17.1733 124.484 16.9067 124.511 16.64C124.551 16.3733 124.571 16.16 124.571 16V14.94ZM129.615 9.66V20H132.455V14.58C132.455 13.5267 132.628 12.7733 132.975 12.32C133.322 11.8533 133.882 11.62 134.655 11.62C135.335 11.62 135.808 11.8333 136.075 12.26C136.342 12.6733 136.475 13.3067 136.475 14.16V20H139.315V13.64C139.315 13 139.255 12.42 139.135 11.9C139.028 11.3667 138.835 10.92 138.555 10.56C138.275 10.1867 137.888 9.9 137.395 9.7C136.915 9.48667 136.295 9.38 135.535 9.38C134.935 9.38 134.348 9.52 133.775 9.8C133.202 10.0667 132.735 10.5 132.375 11.1H132.315V9.66H129.615ZM143.671 16.64H140.971C140.997 17.3333 141.151 17.9133 141.431 18.38C141.724 18.8333 142.091 19.2 142.531 19.48C142.984 19.76 143.497 19.96 144.071 20.08C144.644 20.2 145.231 20.26 145.831 20.26C146.417 20.26 146.991 20.2 147.551 20.08C148.124 19.9733 148.631 19.78 149.071 19.5C149.511 19.22 149.864 18.8533 150.131 18.4C150.411 17.9333 150.551 17.36 150.551 16.68C150.551 16.2 150.457 15.8 150.271 15.48C150.084 15.1467 149.837 14.8733 149.531 14.66C149.224 14.4333 148.871 14.2533 148.471 14.12C148.084 13.9867 147.684 13.8733 147.271 13.78C146.871 13.6867 146.477 13.6 146.091 13.52C145.704 13.44 145.357 13.3533 145.051 13.26C144.757 13.1533 144.517 13.02 144.331 12.86C144.144 12.7 144.051 12.4933 144.051 12.24C144.051 12.0267 144.104 11.86 144.211 11.74C144.317 11.6067 144.444 11.5067 144.591 11.44C144.751 11.3733 144.924 11.3333 145.111 11.32C145.297 11.2933 145.471 11.28 145.631 11.28C146.137 11.28 146.577 11.38 146.951 11.58C147.324 11.7667 147.531 12.1333 147.571 12.68H150.271C150.217 12.04 150.051 11.5133 149.771 11.1C149.504 10.6733 149.164 10.3333 148.751 10.08C148.337 9.82667 147.864 9.64667 147.331 9.54C146.811 9.43333 146.271 9.38 145.711 9.38C145.151 9.38 144.604 9.43333 144.071 9.54C143.537 9.63333 143.057 9.80667 142.631 10.06C142.204 10.3 141.857 10.6333 141.591 11.06C141.337 11.4867 141.211 12.0333 141.211 12.7C141.211 13.1533 141.304 13.54 141.491 13.86C141.677 14.1667 141.924 14.4267 142.231 14.64C142.537 14.84 142.884 15.0067 143.271 15.14C143.671 15.26 144.077 15.3667 144.491 15.46C145.504 15.6733 146.291 15.8867 146.851 16.1C147.424 16.3133 147.711 16.6333 147.711 17.06C147.711 17.3133 147.651 17.5267 147.531 17.7C147.411 17.86 147.257 17.9933 147.071 18.1C146.897 18.1933 146.697 18.2667 146.471 18.32C146.257 18.36 146.051 18.38 145.851 18.38C145.571 18.38 145.297 18.3467 145.031 18.28C144.777 18.2133 144.551 18.1133 144.351 17.98C144.151 17.8333 143.984 17.6533 143.851 17.44C143.731 17.2133 143.671 16.9467 143.671 16.64ZM155.133 8.06V5.72H152.293V8.06H155.133ZM152.293 9.66V20H155.133V9.66H152.293ZM159.889 14.84C159.889 14.4267 159.929 14.02 160.009 13.62C160.089 13.22 160.222 12.8667 160.409 12.56C160.609 12.2533 160.869 12.0067 161.189 11.82C161.509 11.62 161.909 11.52 162.389 11.52C162.869 11.52 163.269 11.62 163.589 11.82C163.922 12.0067 164.182 12.2533 164.369 12.56C164.569 12.8667 164.709 13.22 164.789 13.62C164.869 14.02 164.909 14.4267 164.909 14.84C164.909 15.2533 164.869 15.66 164.789 16.06C164.709 16.4467 164.569 16.8 164.369 17.12C164.182 17.4267 163.922 17.6733 163.589 17.86C163.269 18.0467 162.869 18.14 162.389 18.14C161.909 18.14 161.509 18.0467 161.189 17.86C160.869 17.6733 160.609 17.4267 160.409 17.12C160.222 16.8 160.089 16.4467 160.009 16.06C159.929 15.66 159.889 15.2533 159.889 14.84ZM157.049 14.84C157.049 15.6667 157.176 16.4133 157.429 17.08C157.682 17.7467 158.042 18.32 158.509 18.8C158.976 19.2667 159.536 19.6267 160.189 19.88C160.842 20.1333 161.576 20.26 162.389 20.26C163.202 20.26 163.936 20.1333 164.589 19.88C165.256 19.6267 165.822 19.2667 166.289 18.8C166.756 18.32 167.116 17.7467 167.369 17.08C167.622 16.4133 167.749 15.6667 167.749 14.84C167.749 14.0133 167.622 13.2667 167.369 12.6C167.116 11.92 166.756 11.3467 166.289 10.88C165.822 10.4 165.256 10.0333 164.589 9.78C163.936 9.51333 163.202 9.38 162.389 9.38C161.576 9.38 160.842 9.51333 160.189 9.78C159.536 10.0333 158.976 10.4 158.509 10.88C158.042 11.3467 157.682 11.92 157.429 12.6C157.176 13.2667 157.049 14.0133 157.049 14.84ZM166.129 4.3L162.869 7.84H160.889L163.009 4.3H166.129ZM169.596 9.66V20H172.436V14.58C172.436 13.5267 172.609 12.7733 172.956 12.32C173.302 11.8533 173.862 11.62 174.636 11.62C175.316 11.62 175.789 11.8333 176.056 12.26C176.322 12.6733 176.456 13.3067 176.456 14.16V20H179.296V13.64C179.296 13 179.236 12.42 179.116 11.9C179.009 11.3667 178.816 10.92 178.536 10.56C178.256 10.1867 177.869 9.9 177.376 9.7C176.896 9.48667 176.276 9.38 175.516 9.38C174.916 9.38 174.329 9.52 173.756 9.8C173.182 10.0667 172.716 10.5 172.356 11.1H172.296V9.66H169.596ZM193.978 13.72H189.358C189.371 13.52 189.411 13.2933 189.478 13.04C189.558 12.7867 189.684 12.5467 189.858 12.32C190.044 12.0933 190.284 11.9067 190.578 11.76C190.884 11.6 191.264 11.52 191.718 11.52C192.411 11.52 192.924 11.7067 193.258 12.08C193.604 12.4533 193.844 13 193.978 13.72ZM189.358 15.52H196.818C196.871 14.72 196.804 13.9533 196.618 13.22C196.431 12.4867 196.124 11.8333 195.698 11.26C195.284 10.6867 194.751 10.2333 194.098 9.9C193.444 9.55333 192.678 9.38 191.798 9.38C191.011 9.38 190.291 9.52 189.638 9.8C188.998 10.08 188.444 10.4667 187.978 10.96C187.511 11.44 187.151 12.0133 186.898 12.68C186.644 13.3467 186.518 14.0667 186.518 14.84C186.518 15.64 186.638 16.3733 186.878 17.04C187.131 17.7067 187.484 18.28 187.938 18.76C188.391 19.24 188.944 19.6133 189.598 19.88C190.251 20.1333 190.984 20.26 191.798 20.26C192.971 20.26 193.971 19.9933 194.798 19.46C195.624 18.9267 196.238 18.04 196.638 16.8H194.138C194.044 17.12 193.791 17.4267 193.378 17.72C192.964 18 192.471 18.14 191.898 18.14C191.098 18.14 190.484 17.9333 190.058 17.52C189.631 17.1067 189.398 16.44 189.358 15.52ZM198.502 9.66V20H201.342V14.58C201.342 13.5267 201.515 12.7733 201.862 12.32C202.209 11.8533 202.769 11.62 203.542 11.62C204.222 11.62 204.695 11.8333 204.962 12.26C205.229 12.6733 205.362 13.3067 205.362 14.16V20H208.202V13.64C208.202 13 208.142 12.42 208.022 11.9C207.915 11.3667 207.722 10.92 207.442 10.56C207.162 10.1867 206.775 9.9 206.282 9.7C205.802 9.48667 205.182 9.38 204.422 9.38C203.822 9.38 203.235 9.52 202.662 9.8C202.089 10.0667 201.622 10.5 201.262 11.1H201.202V9.66H198.502ZM216.004 5.72V20H218.844V5.72H216.004ZM220.96 12.84C221 12.1733 221.167 11.62 221.46 11.18C221.753 10.74 222.127 10.3867 222.58 10.12C223.033 9.85333 223.54 9.66667 224.1 9.56C224.673 9.44 225.247 9.38 225.82 9.38C226.34 9.38 226.867 9.42 227.4 9.5C227.933 9.56667 228.42 9.70667 228.86 9.92C229.3 10.1333 229.66 10.4333 229.94 10.82C230.22 11.1933 230.36 11.6933 230.36 12.32V17.7C230.36 18.1667 230.387 18.6133 230.44 19.04C230.493 19.4667 230.587 19.7867 230.72 20H227.84C227.787 19.84 227.74 19.68 227.7 19.52C227.673 19.3467 227.653 19.1733 227.64 19C227.187 19.4667 226.653 19.7933 226.04 19.98C225.427 20.1667 224.8 20.26 224.16 20.26C223.667 20.26 223.207 20.2 222.78 20.08C222.353 19.96 221.98 19.7733 221.66 19.52C221.34 19.2667 221.087 18.9467 220.9 18.56C220.727 18.1733 220.64 17.7133 220.64 17.18C220.64 16.5933 220.74 16.1133 220.94 15.74C221.153 15.3533 221.42 15.0467 221.74 14.82C222.073 14.5933 222.447 14.4267 222.86 14.32C223.287 14.2 223.713 14.1067 224.14 14.04C224.567 13.9733 224.987 13.92 225.4 13.88C225.813 13.84 226.18 13.78 226.5 13.7C226.82 13.62 227.073 13.5067 227.26 13.36C227.447 13.2 227.533 12.9733 227.52 12.68C227.52 12.3733 227.467 12.1333 227.36 11.96C227.267 11.7733 227.133 11.6333 226.96 11.54C226.8 11.4333 226.607 11.3667 226.38 11.34C226.167 11.3 225.933 11.28 225.68 11.28C225.12 11.28 224.68 11.4 224.36 11.64C224.04 11.88 223.853 12.28 223.8 12.84H220.96ZM227.52 14.94C227.4 15.0467 227.247 15.1333 227.06 15.2C226.887 15.2533 226.693 15.3 226.48 15.34C226.28 15.38 226.067 15.4133 225.84 15.44C225.613 15.4667 225.387 15.5 225.16 15.54C224.947 15.58 224.733 15.6333 224.52 15.7C224.32 15.7667 224.14 15.86 223.98 15.98C223.833 16.0867 223.713 16.2267 223.62 16.4C223.527 16.5733 223.48 16.7933 223.48 17.06C223.48 17.3133 223.527 17.5267 223.62 17.7C223.713 17.8733 223.84 18.0133 224 18.12C224.16 18.2133 224.347 18.28 224.56 18.32C224.773 18.36 224.993 18.38 225.22 18.38C225.78 18.38 226.213 18.2867 226.52 18.1C226.827 17.9133 227.053 17.6933 227.2 17.44C227.347 17.1733 227.433 16.9067 227.46 16.64C227.5 16.3733 227.52 16.16 227.52 16V14.94ZM238.431 5.72V20H241.371V9.98H241.411L244.911 20H247.331L250.831 9.88H250.871V20H253.811V5.72H249.391L246.231 15.54H246.191L242.851 5.72H238.431ZM258.795 14.84C258.795 14.4267 258.835 14.02 258.915 13.62C258.995 13.22 259.129 12.8667 259.315 12.56C259.515 12.2533 259.775 12.0067 260.095 11.82C260.415 11.62 260.815 11.52 261.295 11.52C261.775 11.52 262.175 11.62 262.495 11.82C262.829 12.0067 263.089 12.2533 263.275 12.56C263.475 12.8667 263.615 13.22 263.695 13.62C263.775 14.02 263.815 14.4267 263.815 14.84C263.815 15.2533 263.775 15.66 263.695 16.06C263.615 16.4467 263.475 16.8 263.275 17.12C263.089 17.4267 262.829 17.6733 262.495 17.86C262.175 18.0467 261.775 18.14 261.295 18.14C260.815 18.14 260.415 18.0467 260.095 17.86C259.775 17.6733 259.515 17.4267 259.315 17.12C259.129 16.8 258.995 16.4467 258.915 16.06C258.835 15.66 258.795 15.2533 258.795 14.84ZM255.955 14.84C255.955 15.6667 256.082 16.4133 256.335 17.08C256.589 17.7467 256.949 18.32 257.415 18.8C257.882 19.2667 258.442 19.6267 259.095 19.88C259.749 20.1333 260.482 20.26 261.295 20.26C262.109 20.26 262.842 20.1333 263.495 19.88C264.162 19.6267 264.729 19.2667 265.195 18.8C265.662 18.32 266.022 17.7467 266.275 17.08C266.529 16.4133 266.655 15.6667 266.655 14.84C266.655 14.0133 266.529 13.2667 266.275 12.6C266.022 11.92 265.662 11.3467 265.195 10.88C264.729 10.4 264.162 10.0333 263.495 9.78C262.842 9.51333 262.109 9.38 261.295 9.38C260.482 9.38 259.749 9.51333 259.095 9.78C258.442 10.0333 257.882 10.4 257.415 10.88C256.949 11.3467 256.589 11.92 256.335 12.6C256.082 13.2667 255.955 14.0133 255.955 14.84ZM268.502 9.66V20H271.342V14.58C271.342 13.5267 271.515 12.7733 271.862 12.32C272.209 11.8533 272.769 11.62 273.542 11.62C274.222 11.62 274.695 11.8333 274.962 12.26C275.229 12.6733 275.362 13.3067 275.362 14.16V20H278.202V13.64C278.202 13 278.142 12.42 278.022 11.9C277.915 11.3667 277.722 10.92 277.442 10.56C277.162 10.1867 276.775 9.9 276.282 9.7C275.802 9.48667 275.182 9.38 274.422 9.38C273.822 9.38 273.235 9.52 272.662 9.8C272.089 10.0667 271.622 10.5 271.262 11.1H271.202V9.66H268.502ZM283.957 9.66V6.56H281.117V9.66H279.397V11.56H281.117V17.66C281.117 18.18 281.204 18.6 281.377 18.92C281.551 19.24 281.784 19.4867 282.077 19.66C282.384 19.8333 282.731 19.9467 283.117 20C283.517 20.0667 283.937 20.1 284.377 20.1C284.657 20.1 284.944 20.0933 285.237 20.08C285.531 20.0667 285.797 20.04 286.037 20V17.8C285.904 17.8267 285.764 17.8467 285.617 17.86C285.471 17.8733 285.317 17.88 285.157 17.88C284.677 17.88 284.357 17.8 284.197 17.64C284.037 17.48 283.957 17.16 283.957 16.68V11.56H286.037V9.66H283.957ZM287.269 12.84C287.309 12.1733 287.475 11.62 287.769 11.18C288.062 10.74 288.435 10.3867 288.889 10.12C289.342 9.85333 289.849 9.66667 290.409 9.56C290.982 9.44 291.555 9.38 292.129 9.38C292.649 9.38 293.175 9.42 293.709 9.5C294.242 9.56667 294.729 9.70667 295.169 9.92C295.609 10.1333 295.969 10.4333 296.249 10.82C296.529 11.1933 296.669 11.6933 296.669 12.32V17.7C296.669 18.1667 296.695 18.6133 296.749 19.04C296.802 19.4667 296.895 19.7867 297.029 20H294.149C294.095 19.84 294.049 19.68 294.009 19.52C293.982 19.3467 293.962 19.1733 293.949 19C293.495 19.4667 292.962 19.7933 292.349 19.98C291.735 20.1667 291.109 20.26 290.469 20.26C289.975 20.26 289.515 20.2 289.089 20.08C288.662 19.96 288.289 19.7733 287.969 19.52C287.649 19.2667 287.395 18.9467 287.209 18.56C287.035 18.1733 286.949 17.7133 286.949 17.18C286.949 16.5933 287.049 16.1133 287.249 15.74C287.462 15.3533 287.729 15.0467 288.049 14.82C288.382 14.5933 288.755 14.4267 289.169 14.32C289.595 14.2 290.022 14.1067 290.449 14.04C290.875 13.9733 291.295 13.92 291.709 13.88C292.122 13.84 292.489 13.78 292.809 13.7C293.129 13.62 293.382 13.5067 293.569 13.36C293.755 13.2 293.842 12.9733 293.829 12.68C293.829 12.3733 293.775 12.1333 293.669 11.96C293.575 11.7733 293.442 11.6333 293.269 11.54C293.109 11.4333 292.915 11.3667 292.689 11.34C292.475 11.3 292.242 11.28 291.989 11.28C291.429 11.28 290.989 11.4 290.669 11.64C290.349 11.88 290.162 12.28 290.109 12.84H287.269ZM293.829 14.94C293.709 15.0467 293.555 15.1333 293.369 15.2C293.195 15.2533 293.002 15.3 292.789 15.34C292.589 15.38 292.375 15.4133 292.149 15.44C291.922 15.4667 291.695 15.5 291.469 15.54C291.255 15.58 291.042 15.6333 290.829 15.7C290.629 15.7667 290.449 15.86 290.289 15.98C290.142 16.0867 290.022 16.2267 289.929 16.4C289.835 16.5733 289.789 16.7933 289.789 17.06C289.789 17.3133 289.835 17.5267 289.929 17.7C290.022 17.8733 290.149 18.0133 290.309 18.12C290.469 18.2133 290.655 18.28 290.869 18.32C291.082 18.36 291.302 18.38 291.529 18.38C292.089 18.38 292.522 18.2867 292.829 18.1C293.135 17.9133 293.362 17.6933 293.509 17.44C293.655 17.1733 293.742 16.9067 293.769 16.64C293.809 16.3733 293.829 16.16 293.829 16V14.94ZM307.393 5.72H306.013C306.026 5.90667 305.966 6.07333 305.833 6.22C305.7 6.35333 305.48 6.42 305.173 6.42C304.946 6.42 304.72 6.38667 304.493 6.32C304.28 6.24 304.066 6.15333 303.853 6.06C303.64 5.98 303.426 5.90667 303.213 5.84C303.013 5.76 302.8 5.72 302.573 5.72C302.133 5.72 301.766 5.79333 301.473 5.94C301.18 6.08667 300.94 6.28 300.753 6.52C300.566 6.74667 300.42 7.00667 300.313 7.3C300.206 7.58 300.12 7.86667 300.053 8.16H301.273C301.34 7.90667 301.426 7.70667 301.533 7.56C301.653 7.4 301.846 7.32 302.113 7.32C302.34 7.32 302.566 7.35333 302.793 7.42C303.02 7.48667 303.26 7.56667 303.513 7.66C303.766 7.74 304.026 7.82 304.293 7.9C304.56 7.96667 304.846 8 305.153 8C305.553 8 305.88 7.92667 306.133 7.78C306.4 7.62 306.613 7.42667 306.773 7.2C306.946 6.97333 307.073 6.72667 307.153 6.46C307.246 6.19333 307.326 5.94667 307.393 5.72ZM298.873 9.66V20H301.713V14.58C301.713 13.5267 301.886 12.7733 302.233 12.32C302.58 11.8533 303.14 11.62 303.913 11.62C304.593 11.62 305.066 11.8333 305.333 12.26C305.6 12.6733 305.733 13.3067 305.733 14.16V20H308.573V13.64C308.573 13 308.513 12.42 308.393 11.9C308.286 11.3667 308.093 10.92 307.813 10.56C307.533 10.1867 307.146 9.9 306.653 9.7C306.173 9.48667 305.553 9.38 304.793 9.38C304.193 9.38 303.606 9.52 303.033 9.8C302.46 10.0667 301.993 10.5 301.633 11.1H301.573V9.66H298.873ZM310.608 12.84C310.648 12.1733 310.815 11.62 311.108 11.18C311.402 10.74 311.775 10.3867 312.228 10.12C312.682 9.85333 313.188 9.66667 313.748 9.56C314.322 9.44 314.895 9.38 315.468 9.38C315.988 9.38 316.515 9.42 317.048 9.5C317.582 9.56667 318.068 9.70667 318.508 9.92C318.948 10.1333 319.308 10.4333 319.588 10.82C319.868 11.1933 320.008 11.6933 320.008 12.32V17.7C320.008 18.1667 320.035 18.6133 320.088 19.04C320.142 19.4667 320.235 19.7867 320.368 20H317.488C317.435 19.84 317.388 19.68 317.348 19.52C317.322 19.3467 317.302 19.1733 317.288 19C316.835 19.4667 316.302 19.7933 315.688 19.98C315.075 20.1667 314.448 20.26 313.808 20.26C313.315 20.26 312.855 20.2 312.428 20.08C312.002 19.96 311.628 19.7733 311.308 19.52C310.988 19.2667 310.735 18.9467 310.548 18.56C310.375 18.1733 310.288 17.7133 310.288 17.18C310.288 16.5933 310.388 16.1133 310.588 15.74C310.802 15.3533 311.068 15.0467 311.388 14.82C311.722 14.5933 312.095 14.4267 312.508 14.32C312.935 14.2 313.362 14.1067 313.788 14.04C314.215 13.9733 314.635 13.92 315.048 13.88C315.462 13.84 315.828 13.78 316.148 13.7C316.468 13.62 316.722 13.5067 316.908 13.36C317.095 13.2 317.182 12.9733 317.168 12.68C317.168 12.3733 317.115 12.1333 317.008 11.96C316.915 11.7733 316.782 11.6333 316.608 11.54C316.448 11.4333 316.255 11.3667 316.028 11.34C315.815 11.3 315.582 11.28 315.328 11.28C314.768 11.28 314.328 11.4 314.008 11.64C313.688 11.88 313.502 12.28 313.448 12.84H310.608ZM317.168 14.94C317.048 15.0467 316.895 15.1333 316.708 15.2C316.535 15.2533 316.342 15.3 316.128 15.34C315.928 15.38 315.715 15.4133 315.488 15.44C315.262 15.4667 315.035 15.5 314.808 15.54C314.595 15.58 314.382 15.6333 314.168 15.7C313.968 15.7667 313.788 15.86 313.628 15.98C313.482 16.0867 313.362 16.2267 313.268 16.4C313.175 16.5733 313.128 16.7933 313.128 17.06C313.128 17.3133 313.175 17.5267 313.268 17.7C313.362 17.8733 313.488 18.0133 313.648 18.12C313.808 18.2133 313.995 18.28 314.208 18.32C314.422 18.36 314.642 18.38 314.868 18.38C315.428 18.38 315.862 18.2867 316.168 18.1C316.475 17.9133 316.702 17.6933 316.848 17.44C316.995 17.1733 317.082 16.9067 317.108 16.64C317.148 16.3733 317.168 16.16 317.168 16V14.94Z" fill="#FF0000"/>
</svg>
