<svg width="660" height="335" viewBox="0 0 660 335" fill="none" xmlns="http://www.w3.org/2000/svg">
<rect x="1.5" y="9.5" width="657" height="324" rx="30.5" fill="#BFCCD3" stroke="#FF0000" stroke-width="3"/>
<rect x="60" width="274" height="23" fill="#BFCCD3"/>
<path d="M82.32 12.82C82.32 14.5667 82.2267 15.96 82.04 17H70.6L70.48 16.36C70.9867 16.0133 71.5533 15.7 72.18 15.42V5.06L70.64 4.82L70.66 3.76H77.38L77.5 4.4C77.02 4.74667 76.4533 5.06 75.8 5.34V15.14L79.36 14.8L80.26 11.9L82.32 12.08V12.82ZM93.1122 15.86L90.4722 17.34C90.0989 17.3267 89.7255 17.1867 89.3522 16.92C88.9789 16.6533 88.6722 16.3067 88.4322 15.88L86.3122 17.26L85.6322 17.32C84.7655 17.32 84.0389 17.0667 83.4522 16.56C82.8789 16.0533 82.5922 15.44 82.5922 14.72C82.5922 13.72 83.1322 12.9333 84.2122 12.36L88.0122 12.28V10.64C88.0122 9.61333 87.7055 8.94 87.0922 8.62C86.6655 8.64667 86.2922 8.72667 85.9722 8.86L85.4922 11.06L83.5322 11.1C83.2789 10.38 83.1522 9.62 83.1522 8.82L83.1922 8.08C83.9922 7.77333 84.9189 7.51333 85.9722 7.3C87.0255 7.07333 87.8389 6.96 88.4122 6.96C89.5989 6.96 90.5389 7.44667 91.2322 8.42C91.3789 8.67333 91.4589 9.18 91.4722 9.94V14.52C91.4722 14.8667 91.6389 15.04 91.9722 15.04L92.5122 15.02L92.9922 14.98L93.1122 15.86ZM86.0122 14.5C86.0122 14.8467 86.1255 15.1333 86.3522 15.36C86.7522 15.3333 87.3055 15.2067 88.0122 14.98V13.5C86.6789 13.4733 86.0122 13.8067 86.0122 14.5ZM117.675 16.06L117.655 17H110.795L110.675 16.36C111.101 16.0533 111.668 15.74 112.375 15.42L112.355 10.94L112.635 7.38L109.115 16.68L106.555 17.14L103.055 7.46L103.355 10.94L103.295 15.64L104.995 16.06L104.975 17H99.1347L99.0147 16.36C99.548 15.9867 100.135 15.6667 100.775 15.4L101.015 5.36L99.3347 4.94L99.3547 4H105.275L105.255 4.02L108.615 13.4L112.115 4H117.275L117.395 4.64C116.955 4.96 116.381 5.27333 115.675 5.58L115.835 15.6L117.675 16.06ZM128.503 15.86L125.863 17.34C125.489 17.3267 125.116 17.1867 124.743 16.92C124.369 16.6533 124.063 16.3067 123.823 15.88L121.703 17.26L121.023 17.32C120.156 17.32 119.429 17.0667 118.843 16.56C118.269 16.0533 117.983 15.44 117.983 14.72C117.983 13.72 118.523 12.9333 119.603 12.36L123.403 12.28V10.64C123.403 9.61333 123.096 8.94 122.483 8.62C122.056 8.64667 121.683 8.72667 121.363 8.86L120.883 11.06L118.923 11.1C118.669 10.38 118.543 9.62 118.543 8.82L118.583 8.08C119.383 7.77333 120.309 7.51333 121.363 7.3C122.416 7.07333 123.229 6.96 123.803 6.96C124.989 6.96 125.929 7.44667 126.623 8.42C126.769 8.67333 126.849 9.18 126.863 9.94V14.52C126.863 14.8667 127.029 15.04 127.363 15.04L127.903 15.02L128.383 14.98L128.503 15.86ZM121.403 14.5C121.403 14.8467 121.516 15.1333 121.743 15.36C122.143 15.3333 122.696 15.2067 123.403 14.98V13.5C122.069 13.4733 121.403 13.8067 121.403 14.5ZM139.562 15.32C140.148 15.52 140.628 15.7533 141.002 16.02L140.942 17H136.102V11.46C136.102 10.1133 135.675 9.44 134.822 9.44C134.435 9.44 134.002 9.56 133.522 9.8V15.38C134.002 15.5933 134.388 15.8067 134.682 16.02L134.642 17H128.622L128.582 16.3C128.995 16.06 129.488 15.84 130.062 15.64V9.02L128.582 8.74L128.482 7.78C129.668 7.32667 130.988 7.08 132.442 7.04L133.522 8.12V8.76C134.602 7.94667 135.608 7.39333 136.542 7.1C137.795 7.14 138.722 7.62 139.322 8.54C139.468 8.80667 139.548 9.41333 139.562 10.36V15.32ZM145.05 9.38C145.05 9.62 145.136 9.84 145.31 10.04C145.483 10.2267 146.103 10.6 147.17 11.16C148.236 11.7067 148.956 12.22 149.33 12.7C149.703 13.1667 149.89 13.7 149.89 14.3C149.89 15.2067 149.516 15.9533 148.77 16.54C148.023 17.1133 147.03 17.4 145.79 17.4C144.39 17.4 142.996 17.04 141.61 16.32L142.75 13.7C143.91 14.5933 145.11 15.26 146.35 15.7C146.59 15.4867 146.71 15.24 146.71 14.96C146.71 14.7067 146.61 14.48 146.41 14.28C146.223 14.08 145.61 13.72 144.57 13.2C143.543 12.6667 142.843 12.1733 142.47 11.72C142.11 11.2533 141.93 10.7267 141.93 10.14C141.93 9.20667 142.336 8.45333 143.15 7.88C143.976 7.29333 145.043 7 146.35 7C147.563 7 148.596 7.22 149.45 7.66L149.49 8.36C149.49 9.05333 149.376 9.75333 149.15 10.46H147.39L146.77 8.64L145.85 8.54C145.316 8.7 145.05 8.98 145.05 9.38ZM154.089 5.98C153.169 5.56667 152.376 4.96 151.709 4.16C152.243 3.13333 152.903 2.33333 153.689 1.76C154.583 2.22667 155.336 2.90667 155.949 3.8C155.509 4.68 154.889 5.40667 154.089 5.98ZM155.629 15.32C156.216 15.52 156.696 15.7533 157.069 16.02L157.029 17H150.689L150.649 16.3C151.116 16.0333 151.623 15.8067 152.169 15.62V9.02L150.689 8.74L150.589 7.78C151.776 7.32667 153.096 7.08 154.549 7.04L155.629 8V15.32ZM157.564 12.14C157.564 10.6333 158.037 9.4 158.984 8.44C159.93 7.48 161.13 7 162.584 7C164.037 7 165.23 7.48667 166.164 8.46C167.097 9.43333 167.564 10.6933 167.564 12.24C167.564 13.7733 167.104 15.02 166.184 15.98C165.277 16.9267 164.104 17.4 162.664 17.4C161.197 17.4 159.977 16.9067 159.004 15.92C158.044 14.92 157.564 13.66 157.564 12.14ZM163.324 15.5C163.817 15.1267 164.064 14.1133 164.064 12.46C164.064 10.1 163.524 8.92 162.444 8.92C162.11 8.92 161.85 8.99333 161.664 9.14C161.264 9.67333 161.064 10.6867 161.064 12.18C161.064 13.1933 161.204 14.02 161.484 14.66C161.764 15.2867 162.19 15.6 162.764 15.6C162.95 15.6 163.137 15.5667 163.324 15.5ZM160.584 5.06L163.664 1.3L165.824 3.2L164.804 4.06L162.824 5.94L162.324 6.42L160.584 5.06ZM179.191 15.32C179.777 15.52 180.257 15.7533 180.631 16.02L180.571 17H175.731V11.46C175.731 10.1133 175.304 9.44 174.451 9.44C174.064 9.44 173.631 9.56 173.151 9.8V15.38C173.631 15.5933 174.017 15.8067 174.311 16.02L174.271 17H168.251L168.211 16.3C168.624 16.06 169.117 15.84 169.691 15.64V9.02L168.211 8.74L168.111 7.78C169.297 7.32667 170.617 7.08 172.071 7.04L173.151 8.12V8.76C174.231 7.94667 175.237 7.39333 176.171 7.1C177.424 7.14 178.351 7.62 178.951 8.54C179.097 8.80667 179.177 9.41333 179.191 10.36V15.32ZM194.711 12.42L189.671 12.38C189.765 13.2467 190.071 13.9133 190.591 14.38C191.125 14.8467 191.791 15.08 192.591 15.08C193.298 15.08 194.145 14.8267 195.131 14.32L195.631 15.46L192.491 17.24L191.571 17.3C190.091 17.3 188.858 16.8333 187.871 15.9C186.898 14.9667 186.411 13.7733 186.411 12.32C186.411 10.84 186.905 9.58667 187.891 8.56C188.891 7.52 190.098 7 191.511 7C192.805 7 193.858 7.39333 194.671 8.18C195.485 8.95333 195.885 9.98 195.871 11.26L194.711 12.42ZM190.971 8.66C190.331 9.06 189.925 9.79333 189.751 10.86L192.751 10.68C192.671 10.1333 192.465 9.66667 192.131 9.28C191.811 8.88 191.425 8.67333 190.971 8.66ZM207.277 15.32C207.863 15.52 208.343 15.7533 208.717 16.02L208.657 17H203.817V11.46C203.817 10.1133 203.39 9.44 202.537 9.44C202.15 9.44 201.717 9.56 201.237 9.8V15.38C201.717 15.5933 202.103 15.8067 202.397 16.02L202.357 17H196.337L196.297 16.3C196.71 16.06 197.203 15.84 197.777 15.64V9.02L196.297 8.74L196.197 7.78C197.383 7.32667 198.703 7.08 200.157 7.04L201.237 8.12V8.76C202.317 7.94667 203.323 7.39333 204.257 7.1C205.51 7.14 206.437 7.62 207.037 8.54C207.183 8.80667 207.263 9.41333 207.277 10.36V15.32ZM219.457 15.32C220.044 15.52 220.524 15.7533 220.897 16.02L220.857 17H214.517L214.477 16.3C214.944 16.0333 215.451 15.8067 215.997 15.62V4.26L214.517 4L214.417 3C215.537 2.6 216.857 2.35333 218.377 2.26L219.457 3.26V15.32ZM232.116 15.86L229.476 17.34C229.103 17.3267 228.729 17.1867 228.356 16.92C227.983 16.6533 227.676 16.3067 227.436 15.88L225.316 17.26L224.636 17.32C223.769 17.32 223.043 17.0667 222.456 16.56C221.883 16.0533 221.596 15.44 221.596 14.72C221.596 13.72 222.136 12.9333 223.216 12.36L227.016 12.28V10.64C227.016 9.61333 226.709 8.94 226.096 8.62C225.669 8.64667 225.296 8.72667 224.976 8.86L224.496 11.06L222.536 11.1C222.283 10.38 222.156 9.62 222.156 8.82L222.196 8.08C222.996 7.77333 223.923 7.51333 224.976 7.3C226.029 7.07333 226.843 6.96 227.416 6.96C228.603 6.96 229.543 7.44667 230.236 8.42C230.383 8.67333 230.463 9.18 230.476 9.94V14.52C230.476 14.8667 230.643 15.04 230.976 15.04L231.516 15.02L231.996 14.98L232.116 15.86ZM225.016 14.5C225.016 14.8467 225.129 15.1333 225.356 15.36C225.756 15.3333 226.309 15.2067 227.016 14.98V13.5C225.683 13.4733 225.016 13.8067 225.016 14.5ZM256.679 16.06L256.659 17H249.799L249.679 16.36C250.105 16.0533 250.672 15.74 251.379 15.42L251.359 10.94L251.639 7.38L248.119 16.68L245.559 17.14L242.059 7.46L242.359 10.94L242.299 15.64L243.999 16.06L243.979 17H238.139L238.019 16.36C238.552 15.9867 239.139 15.6667 239.779 15.4L240.019 5.36L238.339 4.94L238.359 4H244.279L244.259 4.02L247.619 13.4L251.119 4H256.279L256.399 4.64C255.959 4.96 255.385 5.27333 254.679 5.58L254.839 15.6L256.679 16.06ZM256.704 12.14C256.704 10.6333 257.178 9.4 258.124 8.44C259.071 7.48 260.271 7 261.724 7C263.178 7 264.371 7.48667 265.304 8.46C266.238 9.43333 266.704 10.6933 266.704 12.24C266.704 13.7733 266.244 15.02 265.324 15.98C264.418 16.9267 263.244 17.4 261.804 17.4C260.338 17.4 259.118 16.9067 258.144 15.92C257.184 14.92 256.704 13.66 256.704 12.14ZM262.464 15.5C262.958 15.1267 263.204 14.1133 263.204 12.46C263.204 10.1 262.664 8.92 261.584 8.92C261.251 8.92 260.991 8.99333 260.804 9.14C260.404 9.67333 260.204 10.6867 260.204 12.18C260.204 13.1933 260.344 14.02 260.624 14.66C260.904 15.2867 261.331 15.6 261.904 15.6C262.091 15.6 262.278 15.5667 262.464 15.5ZM278.331 15.32C278.918 15.52 279.398 15.7533 279.771 16.02L279.711 17H274.871V11.46C274.871 10.1133 274.445 9.44 273.591 9.44C273.205 9.44 272.771 9.56 272.291 9.8V15.38C272.771 15.5933 273.158 15.8067 273.451 16.02L273.411 17H267.391L267.351 16.3C267.765 16.06 268.258 15.84 268.831 15.64V9.02L267.351 8.74L267.251 7.78C268.438 7.32667 269.758 7.08 271.211 7.04L272.291 8.12V8.76C273.371 7.94667 274.378 7.39333 275.311 7.1C276.565 7.14 277.491 7.62 278.091 8.54C278.238 8.80667 278.318 9.41333 278.331 10.36V15.32ZM285.819 14.78C286.286 14.78 286.819 14.72 287.419 14.6L287.559 15.64L284.259 17.34C283.592 17.3667 282.979 17.16 282.419 16.72C281.872 16.2667 281.599 15.74 281.599 15.14V9.78H280.139L280.079 8.7C280.519 8.32667 281.086 7.94 281.779 7.54L282.879 4.86H284.459L284.959 7.54H287.719L287.739 8.54L286.739 9.8H285.059V13.92C285.059 14.4933 285.312 14.78 285.819 14.78ZM299.206 15.86L296.566 17.34C296.193 17.3267 295.819 17.1867 295.446 16.92C295.073 16.6533 294.766 16.3067 294.526 15.88L292.406 17.26L291.726 17.32C290.859 17.32 290.133 17.0667 289.546 16.56C288.973 16.0533 288.686 15.44 288.686 14.72C288.686 13.72 289.226 12.9333 290.306 12.36L294.106 12.28V10.64C294.106 9.61333 293.799 8.94 293.186 8.62C292.759 8.64667 292.386 8.72667 292.066 8.86L291.586 11.06L289.626 11.1C289.373 10.38 289.246 9.62 289.246 8.82L289.286 8.08C290.086 7.77333 291.013 7.51333 292.066 7.3C293.119 7.07333 293.933 6.96 294.506 6.96C295.693 6.96 296.633 7.44667 297.326 8.42C297.473 8.67333 297.553 9.18 297.566 9.94V14.52C297.566 14.8667 297.733 15.04 298.066 15.04L298.606 15.02L299.086 14.98L299.206 15.86ZM292.106 14.5C292.106 14.8467 292.219 15.1333 292.446 15.36C292.846 15.3333 293.399 15.2067 294.106 14.98V13.5C292.773 13.4733 292.106 13.8067 292.106 14.5ZM310.655 15.32C311.242 15.52 311.722 15.7533 312.095 16.02L312.035 17H307.195V11.46C307.195 10.1133 306.769 9.44 305.915 9.44C305.529 9.44 305.095 9.56 304.615 9.8V15.38C305.095 15.5933 305.482 15.8067 305.775 16.02L305.735 17H299.715L299.675 16.3C300.089 16.06 300.582 15.84 301.155 15.64V9.02L299.675 8.74L299.575 7.78C300.762 7.32667 302.082 7.08 303.535 7.04L304.615 8.12V8.76C305.695 7.94667 306.702 7.39333 307.635 7.1C308.889 7.14 309.815 7.62 310.415 8.54C310.562 8.80667 310.642 9.41333 310.655 10.36V15.32ZM301.575 5.22C302.295 4.02 302.855 3.22667 303.255 2.84C303.669 2.45333 304.102 2.26 304.555 2.26C304.835 2.26 305.309 2.45333 305.975 2.84C306.642 3.21333 307.269 3.62 307.855 4.06L309.495 2.4L310.575 3.18C309.535 5.20667 308.615 6.22 307.815 6.22C307.575 6.22 307.309 6.14667 307.015 6C306.722 5.84 306.269 5.56 305.655 5.16C305.055 4.74667 304.655 4.54 304.455 4.54C304.255 4.54 304.035 4.66 303.795 4.9C303.555 5.12667 303.195 5.52667 302.715 6.1L301.575 5.22ZM323.483 15.86L320.843 17.34C320.47 17.3267 320.097 17.1867 319.723 16.92C319.35 16.6533 319.043 16.3067 318.803 15.88L316.683 17.26L316.003 17.32C315.137 17.32 314.41 17.0667 313.823 16.56C313.25 16.0533 312.963 15.44 312.963 14.72C312.963 13.72 313.503 12.9333 314.583 12.36L318.383 12.28V10.64C318.383 9.61333 318.077 8.94 317.463 8.62C317.037 8.64667 316.663 8.72667 316.343 8.86L315.863 11.06L313.903 11.1C313.65 10.38 313.523 9.62 313.523 8.82L313.563 8.08C314.363 7.77333 315.29 7.51333 316.343 7.3C317.397 7.07333 318.21 6.96 318.783 6.96C319.97 6.96 320.91 7.44667 321.603 8.42C321.75 8.67333 321.83 9.18 321.843 9.94V14.52C321.843 14.8667 322.01 15.04 322.343 15.04L322.883 15.02L323.363 14.98L323.483 15.86ZM316.383 14.5C316.383 14.8467 316.497 15.1333 316.723 15.36C317.123 15.3333 317.677 15.2067 318.383 14.98V13.5C317.05 13.4733 316.383 13.8067 316.383 14.5Z" fill="#FF0000"/>
</svg>
