<svg width="660" height="560" viewBox="0 0 660 560" fill="none" xmlns="http://www.w3.org/2000/svg">
<rect x="1.5" y="11.5" width="657" height="547" rx="30.5" fill="#BFCCD3" stroke="#FF0000" stroke-width="3"/>
<rect x="485" width="120" height="23" fill="#BFCCD3"/>
<path d="M501.7 12.34V15.56L504.14 15.94L504.12 17H496.62L496.5 16.36C497.02 16.0133 497.547 15.72 498.08 15.48V5.04L496.6 4.82L496.62 3.76L503.52 3.6C505.107 3.58667 506.4 4 507.4 4.84C508.4 5.66667 508.9 6.74 508.9 8.06C508.9 9.26 508.42 10.2667 507.46 11.08C506.513 11.88 505.307 12.2933 503.84 12.32L501.7 12.34ZM501.7 5.64V10.32C502.167 10.4267 502.613 10.48 503.04 10.48C503.76 10.48 504.307 10.2467 504.68 9.78C505.053 9.3 505.24 8.70667 505.24 8C505.24 7.46667 505.147 6.94667 504.96 6.44C504.773 5.92 504.513 5.55333 504.18 5.34L501.7 5.64ZM512.785 5.98C511.865 5.56667 511.071 4.96 510.405 4.16C510.938 3.13333 511.598 2.33333 512.385 1.76C513.278 2.22667 514.031 2.90667 514.645 3.8C514.205 4.68 513.585 5.40667 512.785 5.98ZM514.325 15.32C514.911 15.52 515.391 15.7533 515.765 16.02L515.725 17H509.385L509.345 16.3C509.811 16.0333 510.318 15.8067 510.865 15.62V9.02L509.385 8.74L509.285 7.78C510.471 7.32667 511.791 7.08 513.245 7.04L514.325 8V15.32ZM519.819 9.38C519.819 9.62 519.906 9.84 520.079 10.04C520.252 10.2267 520.872 10.6 521.939 11.16C523.006 11.7067 523.726 12.22 524.099 12.7C524.472 13.1667 524.659 13.7 524.659 14.3C524.659 15.2067 524.286 15.9533 523.539 16.54C522.792 17.1133 521.799 17.4 520.559 17.4C519.159 17.4 517.766 17.04 516.379 16.32L517.519 13.7C518.679 14.5933 519.879 15.26 521.119 15.7C521.359 15.4867 521.479 15.24 521.479 14.96C521.479 14.7067 521.379 14.48 521.179 14.28C520.992 14.08 520.379 13.72 519.339 13.2C518.312 12.6667 517.612 12.1733 517.239 11.72C516.879 11.2533 516.699 10.7267 516.699 10.14C516.699 9.20667 517.106 8.45333 517.919 7.88C518.746 7.29333 519.812 7 521.119 7C522.332 7 523.366 7.22 524.219 7.66L524.259 8.36C524.259 9.05333 524.146 9.75333 523.919 10.46H522.159L521.539 8.64L520.619 8.54C520.086 8.7 519.819 8.98 519.819 9.38ZM531.339 17.26L530.459 17.32C529.019 17.32 527.819 16.8467 526.859 15.9C525.912 14.94 525.439 13.7133 525.439 12.22C525.439 10.7133 525.919 9.46667 526.879 8.48C527.839 7.49333 529.045 7 530.499 7C531.432 7 532.265 7.22667 532.999 7.68C533.732 8.12 534.225 8.76 534.479 9.6L531.739 11.14C531.165 10.0067 530.499 9.23333 529.739 8.82C529.099 9.51333 528.779 10.4733 528.779 11.7C528.779 12.7 529.019 13.5133 529.499 14.14C529.992 14.7667 530.685 15.08 531.579 15.08C532.205 15.08 532.932 14.88 533.759 14.48L534.239 15.58L531.339 17.26ZM538.117 5.98C537.197 5.56667 536.403 4.96 535.737 4.16C536.27 3.13333 536.93 2.33333 537.717 1.76C538.61 2.22667 539.363 2.90667 539.977 3.8C539.537 4.68 538.917 5.40667 538.117 5.98ZM539.657 15.32C540.243 15.52 540.723 15.7533 541.097 16.02L541.057 17H534.717L534.677 16.3C535.143 16.0333 535.65 15.8067 536.197 15.62V9.02L534.717 8.74L534.617 7.78C535.803 7.32667 537.123 7.08 538.577 7.04L539.657 8V15.32ZM552.671 15.32C553.258 15.52 553.738 15.7533 554.111 16.02L554.051 17H549.211V11.46C549.211 10.1133 548.784 9.44 547.931 9.44C547.544 9.44 547.111 9.56 546.631 9.8V15.38C547.111 15.5933 547.498 15.8067 547.791 16.02L547.751 17H541.731L541.691 16.3C542.104 16.06 542.598 15.84 543.171 15.64V9.02L541.691 8.74L541.591 7.78C542.778 7.32667 544.098 7.08 545.551 7.04L546.631 8.12V8.76C547.711 7.94667 548.718 7.39333 549.651 7.1C550.904 7.14 551.831 7.62 552.431 8.54C552.578 8.80667 552.658 9.41333 552.671 10.36V15.32ZM562.606 12.42L557.566 12.38C557.659 13.2467 557.966 13.9133 558.486 14.38C559.019 14.8467 559.686 15.08 560.486 15.08C561.193 15.08 562.039 14.8267 563.026 14.32L563.526 15.46L560.386 17.24L559.466 17.3C557.986 17.3 556.753 16.8333 555.766 15.9C554.793 14.9667 554.306 13.7733 554.306 12.32C554.306 10.84 554.799 9.58667 555.786 8.56C556.786 7.52 557.993 7 559.406 7C560.699 7 561.753 7.39333 562.566 8.18C563.379 8.95333 563.779 9.98 563.766 11.26L562.606 12.42ZM558.866 8.66C558.226 9.06 557.819 9.79333 557.646 10.86L560.646 10.68C560.566 10.1333 560.359 9.66667 560.026 9.28C559.706 8.88 559.319 8.67333 558.866 8.66ZM569.131 10.44V15.18C570.024 15.3933 570.751 15.6733 571.311 16.02L571.271 17H564.231L564.191 16.3C564.604 16.06 565.098 15.84 565.671 15.64V9.02L564.191 8.74L564.091 7.78C565.278 7.32667 566.598 7.08 568.051 7.04L569.131 8.54V8.9L570.711 7.12C570.911 7.05333 571.164 7.02 571.471 7.02C572.004 7.02 572.491 7.15333 572.931 7.42C573.384 7.68667 573.698 8.06 573.871 8.54L571.571 11.44C570.678 10.6933 569.964 10.2867 569.431 10.22L569.131 10.44ZM573.798 12.14C573.798 10.6333 574.271 9.4 575.218 8.44C576.165 7.48 577.365 7 578.818 7C580.271 7 581.465 7.48667 582.398 8.46C583.331 9.43333 583.798 10.6933 583.798 12.24C583.798 13.7733 583.338 15.02 582.418 15.98C581.511 16.9267 580.338 17.4 578.898 17.4C577.431 17.4 576.211 16.9067 575.238 15.92C574.278 14.92 573.798 13.66 573.798 12.14ZM579.558 15.5C580.051 15.1267 580.298 14.1133 580.298 12.46C580.298 10.1 579.758 8.92 578.678 8.92C578.345 8.92 578.085 8.99333 577.898 9.14C577.498 9.67333 577.298 10.6867 577.298 12.18C577.298 13.1933 577.438 14.02 577.718 14.66C577.998 15.2867 578.425 15.6 578.998 15.6C579.185 15.6 579.371 15.5667 579.558 15.5ZM587.905 9.38C587.905 9.62 587.992 9.84 588.165 10.04C588.338 10.2267 588.958 10.6 590.025 11.16C591.092 11.7067 591.812 12.22 592.185 12.7C592.558 13.1667 592.745 13.7 592.745 14.3C592.745 15.2067 592.372 15.9533 591.625 16.54C590.878 17.1133 589.885 17.4 588.645 17.4C587.245 17.4 585.852 17.04 584.465 16.32L585.605 13.7C586.765 14.5933 587.965 15.26 589.205 15.7C589.445 15.4867 589.565 15.24 589.565 14.96C589.565 14.7067 589.465 14.48 589.265 14.28C589.078 14.08 588.465 13.72 587.425 13.2C586.398 12.6667 585.698 12.1733 585.325 11.72C584.965 11.2533 584.785 10.7267 584.785 10.14C584.785 9.20667 585.192 8.45333 586.005 7.88C586.832 7.29333 587.898 7 589.205 7C590.418 7 591.452 7.22 592.305 7.66L592.345 8.36C592.345 9.05333 592.232 9.75333 592.005 10.46H590.245L589.625 8.64L588.705 8.54C588.172 8.7 587.905 8.98 587.905 9.38Z" fill="#FF0000"/>
</svg>
