<svg width="660" height="560" viewBox="0 0 660 560" fill="none" xmlns="http://www.w3.org/2000/svg">
<rect x="1.5" y="11.5" width="657" height="547" rx="30.5" fill="#BFCCD3" stroke="#FF0000" stroke-width="3"/>
<rect x="485" width="120" height="23" fill="#BFCCD3"/>
<path d="M500.52 12.44V8.16H502.96C503.32 8.16 503.667 8.18667 504 8.24C504.333 8.29333 504.627 8.4 504.88 8.56C505.133 8.70667 505.333 8.92 505.48 9.2C505.64 9.48 505.72 9.84667 505.72 10.3C505.72 10.7533 505.64 11.12 505.48 11.4C505.333 11.68 505.133 11.9 504.88 12.06C504.627 12.2067 504.333 12.3067 504 12.36C503.667 12.4133 503.32 12.44 502.96 12.44H500.52ZM497.38 5.72V20H500.52V14.88H503.82C504.713 14.88 505.473 14.7533 506.1 14.5C506.727 14.2333 507.233 13.8867 507.62 13.46C508.02 13.0333 508.307 12.5467 508.48 12C508.667 11.44 508.76 10.8733 508.76 10.3C508.76 9.71333 508.667 9.14667 508.48 8.6C508.307 8.05333 508.02 7.56667 507.62 7.14C507.233 6.71333 506.727 6.37333 506.1 6.12C505.473 5.85333 504.713 5.72 503.82 5.72H497.38ZM513.34 8.06V5.72H510.5V8.06H513.34ZM510.5 9.66V20H513.34V9.66H510.5ZM517.776 16.64H515.076C515.103 17.3333 515.256 17.9133 515.536 18.38C515.829 18.8333 516.196 19.2 516.636 19.48C517.089 19.76 517.603 19.96 518.176 20.08C518.749 20.2 519.336 20.26 519.936 20.26C520.523 20.26 521.096 20.2 521.656 20.08C522.229 19.9733 522.736 19.78 523.176 19.5C523.616 19.22 523.969 18.8533 524.236 18.4C524.516 17.9333 524.656 17.36 524.656 16.68C524.656 16.2 524.563 15.8 524.376 15.48C524.189 15.1467 523.943 14.8733 523.636 14.66C523.329 14.4333 522.976 14.2533 522.576 14.12C522.189 13.9867 521.789 13.8733 521.376 13.78C520.976 13.6867 520.583 13.6 520.196 13.52C519.809 13.44 519.463 13.3533 519.156 13.26C518.863 13.1533 518.623 13.02 518.436 12.86C518.249 12.7 518.156 12.4933 518.156 12.24C518.156 12.0267 518.209 11.86 518.316 11.74C518.423 11.6067 518.549 11.5067 518.696 11.44C518.856 11.3733 519.029 11.3333 519.216 11.32C519.403 11.2933 519.576 11.28 519.736 11.28C520.243 11.28 520.683 11.38 521.056 11.58C521.429 11.7667 521.636 12.1333 521.676 12.68H524.376C524.323 12.04 524.156 11.5133 523.876 11.1C523.609 10.6733 523.269 10.3333 522.856 10.08C522.443 9.82667 521.969 9.64667 521.436 9.54C520.916 9.43333 520.376 9.38 519.816 9.38C519.256 9.38 518.709 9.43333 518.176 9.54C517.643 9.63333 517.163 9.80667 516.736 10.06C516.309 10.3 515.963 10.6333 515.696 11.06C515.443 11.4867 515.316 12.0333 515.316 12.7C515.316 13.1533 515.409 13.54 515.596 13.86C515.783 14.1667 516.029 14.4267 516.336 14.64C516.643 14.84 516.989 15.0067 517.376 15.14C517.776 15.26 518.183 15.3667 518.596 15.46C519.609 15.6733 520.396 15.8867 520.956 16.1C521.529 16.3133 521.816 16.6333 521.816 17.06C521.816 17.3133 521.756 17.5267 521.636 17.7C521.516 17.86 521.363 17.9933 521.176 18.1C521.003 18.1933 520.803 18.2667 520.576 18.32C520.363 18.36 520.156 18.38 519.956 18.38C519.676 18.38 519.403 18.3467 519.136 18.28C518.883 18.2133 518.656 18.1133 518.456 17.98C518.256 17.8333 518.089 17.6533 517.956 17.44C517.836 17.2133 517.776 16.9467 517.776 16.64ZM533.358 13.3H536.138C536.098 12.6333 535.938 12.06 535.658 11.58C535.378 11.0867 535.012 10.68 534.558 10.36C534.118 10.0267 533.612 9.78 533.038 9.62C532.478 9.46 531.892 9.38 531.278 9.38C530.438 9.38 529.692 9.52 529.038 9.8C528.385 10.08 527.832 10.4733 527.378 10.98C526.925 11.4733 526.578 12.0667 526.338 12.76C526.112 13.44 525.998 14.18 525.998 14.98C525.998 15.7533 526.125 16.4667 526.378 17.12C526.632 17.76 526.985 18.3133 527.438 18.78C527.892 19.2467 528.438 19.6133 529.078 19.88C529.732 20.1333 530.445 20.26 531.218 20.26C532.592 20.26 533.718 19.9 534.598 19.18C535.478 18.46 536.012 17.4133 536.198 16.04H533.458C533.365 16.68 533.132 17.1933 532.758 17.58C532.398 17.9533 531.878 18.14 531.198 18.14C530.758 18.14 530.385 18.04 530.078 17.84C529.772 17.64 529.525 17.3867 529.338 17.08C529.165 16.76 529.038 16.4067 528.958 16.02C528.878 15.6333 528.838 15.2533 528.838 14.88C528.838 14.4933 528.878 14.1067 528.958 13.72C529.038 13.32 529.172 12.96 529.358 12.64C529.558 12.3067 529.812 12.04 530.118 11.84C530.425 11.6267 530.805 11.52 531.258 11.52C532.472 11.52 533.172 12.1133 533.358 13.3ZM540.723 8.06V5.72H537.883V8.06H540.723ZM537.883 9.66V20H540.723V9.66H537.883ZM542.959 9.66V20H545.799V14.58C545.799 13.5267 545.972 12.7733 546.319 12.32C546.666 11.8533 547.226 11.62 547.999 11.62C548.679 11.62 549.152 11.8333 549.419 12.26C549.686 12.6733 549.819 13.3067 549.819 14.16V20H552.659V13.64C552.659 13 552.599 12.42 552.479 11.9C552.372 11.3667 552.179 10.92 551.899 10.56C551.619 10.1867 551.232 9.9 550.739 9.7C550.259 9.48667 549.639 9.38 548.879 9.38C548.279 9.38 547.692 9.52 547.119 9.8C546.546 10.0667 546.079 10.5 545.719 11.1H545.659V9.66H542.959ZM561.774 13.72H557.154C557.168 13.52 557.208 13.2933 557.274 13.04C557.354 12.7867 557.481 12.5467 557.654 12.32C557.841 12.0933 558.081 11.9067 558.374 11.76C558.681 11.6 559.061 11.52 559.514 11.52C560.208 11.52 560.721 11.7067 561.054 12.08C561.401 12.4533 561.641 13 561.774 13.72ZM557.154 15.52H564.614C564.668 14.72 564.601 13.9533 564.414 13.22C564.228 12.4867 563.921 11.8333 563.494 11.26C563.081 10.6867 562.548 10.2333 561.894 9.9C561.241 9.55333 560.474 9.38 559.594 9.38C558.808 9.38 558.088 9.52 557.434 9.8C556.794 10.08 556.241 10.4667 555.774 10.96C555.308 11.44 554.948 12.0133 554.694 12.68C554.441 13.3467 554.314 14.0667 554.314 14.84C554.314 15.64 554.434 16.3733 554.674 17.04C554.928 17.7067 555.281 18.28 555.734 18.76C556.188 19.24 556.741 19.6133 557.394 19.88C558.048 20.1333 558.781 20.26 559.594 20.26C560.768 20.26 561.768 19.9933 562.594 19.46C563.421 18.9267 564.034 18.04 564.434 16.8H561.934C561.841 17.12 561.588 17.4267 561.174 17.72C560.761 18 560.268 18.14 559.694 18.14C558.894 18.14 558.281 17.9333 557.854 17.52C557.428 17.1067 557.194 16.44 557.154 15.52ZM566.299 9.66V20H569.139V15.34C569.139 14.8733 569.185 14.44 569.279 14.04C569.372 13.64 569.525 13.2933 569.739 13C569.965 12.6933 570.259 12.4533 570.619 12.28C570.979 12.1067 571.419 12.02 571.939 12.02C572.112 12.02 572.292 12.0333 572.479 12.06C572.665 12.0733 572.825 12.0933 572.959 12.12V9.48C572.732 9.41333 572.525 9.38 572.339 9.38C571.979 9.38 571.632 9.43333 571.299 9.54C570.965 9.64667 570.652 9.8 570.359 10C570.065 10.1867 569.805 10.42 569.579 10.7C569.352 10.9667 569.172 11.26 569.039 11.58H568.999V9.66H566.299ZM576.241 14.84C576.241 14.4267 576.281 14.02 576.361 13.62C576.441 13.22 576.574 12.8667 576.761 12.56C576.961 12.2533 577.221 12.0067 577.541 11.82C577.861 11.62 578.261 11.52 578.741 11.52C579.221 11.52 579.621 11.62 579.941 11.82C580.274 12.0067 580.534 12.2533 580.721 12.56C580.921 12.8667 581.061 13.22 581.141 13.62C581.221 14.02 581.261 14.4267 581.261 14.84C581.261 15.2533 581.221 15.66 581.141 16.06C581.061 16.4467 580.921 16.8 580.721 17.12C580.534 17.4267 580.274 17.6733 579.941 17.86C579.621 18.0467 579.221 18.14 578.741 18.14C578.261 18.14 577.861 18.0467 577.541 17.86C577.221 17.6733 576.961 17.4267 576.761 17.12C576.574 16.8 576.441 16.4467 576.361 16.06C576.281 15.66 576.241 15.2533 576.241 14.84ZM573.401 14.84C573.401 15.6667 573.527 16.4133 573.781 17.08C574.034 17.7467 574.394 18.32 574.861 18.8C575.327 19.2667 575.887 19.6267 576.541 19.88C577.194 20.1333 577.927 20.26 578.741 20.26C579.554 20.26 580.287 20.1333 580.941 19.88C581.607 19.6267 582.174 19.2667 582.641 18.8C583.107 18.32 583.467 17.7467 583.721 17.08C583.974 16.4133 584.101 15.6667 584.101 14.84C584.101 14.0133 583.974 13.2667 583.721 12.6C583.467 11.92 583.107 11.3467 582.641 10.88C582.174 10.4 581.607 10.0333 580.941 9.78C580.287 9.51333 579.554 9.38 578.741 9.38C577.927 9.38 577.194 9.51333 576.541 9.78C575.887 10.0333 575.327 10.4 574.861 10.88C574.394 11.3467 574.034 11.92 573.781 12.6C573.527 13.2667 573.401 14.0133 573.401 14.84ZM588.147 16.64H585.447C585.474 17.3333 585.627 17.9133 585.907 18.38C586.201 18.8333 586.567 19.2 587.007 19.48C587.461 19.76 587.974 19.96 588.547 20.08C589.121 20.2 589.707 20.26 590.307 20.26C590.894 20.26 591.467 20.2 592.027 20.08C592.601 19.9733 593.107 19.78 593.547 19.5C593.987 19.22 594.341 18.8533 594.607 18.4C594.887 17.9333 595.027 17.36 595.027 16.68C595.027 16.2 594.934 15.8 594.747 15.48C594.561 15.1467 594.314 14.8733 594.007 14.66C593.701 14.4333 593.347 14.2533 592.947 14.12C592.561 13.9867 592.161 13.8733 591.747 13.78C591.347 13.6867 590.954 13.6 590.567 13.52C590.181 13.44 589.834 13.3533 589.527 13.26C589.234 13.1533 588.994 13.02 588.807 12.86C588.621 12.7 588.527 12.4933 588.527 12.24C588.527 12.0267 588.581 11.86 588.687 11.74C588.794 11.6067 588.921 11.5067 589.067 11.44C589.227 11.3733 589.401 11.3333 589.587 11.32C589.774 11.2933 589.947 11.28 590.107 11.28C590.614 11.28 591.054 11.38 591.427 11.58C591.801 11.7667 592.007 12.1333 592.047 12.68H594.747C594.694 12.04 594.527 11.5133 594.247 11.1C593.981 10.6733 593.641 10.3333 593.227 10.08C592.814 9.82667 592.341 9.64667 591.807 9.54C591.287 9.43333 590.747 9.38 590.187 9.38C589.627 9.38 589.081 9.43333 588.547 9.54C588.014 9.63333 587.534 9.80667 587.107 10.06C586.681 10.3 586.334 10.6333 586.067 11.06C585.814 11.4867 585.687 12.0333 585.687 12.7C585.687 13.1533 585.781 13.54 585.967 13.86C586.154 14.1667 586.401 14.4267 586.707 14.64C587.014 14.84 587.361 15.0067 587.747 15.14C588.147 15.26 588.554 15.3667 588.967 15.46C589.981 15.6733 590.767 15.8867 591.327 16.1C591.901 16.3133 592.187 16.6333 592.187 17.06C592.187 17.3133 592.127 17.5267 592.007 17.7C591.887 17.86 591.734 17.9933 591.547 18.1C591.374 18.1933 591.174 18.2667 590.947 18.32C590.734 18.36 590.527 18.38 590.327 18.38C590.047 18.38 589.774 18.3467 589.507 18.28C589.254 18.2133 589.027 18.1133 588.827 17.98C588.627 17.8333 588.461 17.6533 588.327 17.44C588.207 17.2133 588.147 16.9467 588.147 16.64Z" fill="#FF0000"/>
</svg>
