<svg width="680" height="574" viewBox="0 0 680 574" fill="none" xmlns="http://www.w3.org/2000/svg">
<g filter="url(#filter0_d)">
<rect x="10" y="10" width="660" height="550" rx="32" fill="#BFCCD3"/>
<rect x="12" y="12" width="656" height="546" rx="30" stroke="#EB3223" stroke-width="4"/>
</g>
<rect x="495" width="120" height="23" fill="#BFCCD3"/>
<path d="M511.7 12.34V15.56L514.14 15.94L514.12 17H506.62L506.5 16.36C507.02 16.0133 507.547 15.72 508.08 15.48V5.04L506.6 4.82L506.62 3.76L513.52 3.6C515.107 3.58667 516.4 4 517.4 4.84C518.4 5.66667 518.9 6.74 518.9 8.06C518.9 9.26 518.42 10.2667 517.46 11.08C516.513 11.88 515.307 12.2933 513.84 12.32L511.7 12.34ZM511.7 5.64V10.32C512.167 10.4267 512.613 10.48 513.04 10.48C513.76 10.48 514.307 10.2467 514.68 9.78C515.053 9.3 515.24 8.70667 515.24 8C515.24 7.46667 515.147 6.94667 514.96 6.44C514.773 5.92 514.513 5.55333 514.18 5.34L511.7 5.64ZM522.785 5.98C521.865 5.56667 521.071 4.96 520.405 4.16C520.938 3.13333 521.598 2.33333 522.385 1.76C523.278 2.22667 524.031 2.90667 524.645 3.8C524.205 4.68 523.585 5.40667 522.785 5.98ZM524.325 15.32C524.911 15.52 525.391 15.7533 525.765 16.02L525.725 17H519.385L519.345 16.3C519.811 16.0333 520.318 15.8067 520.865 15.62V9.02L519.385 8.74L519.285 7.78C520.471 7.32667 521.791 7.08 523.245 7.04L524.325 8V15.32ZM529.819 9.38C529.819 9.62 529.906 9.84 530.079 10.04C530.252 10.2267 530.872 10.6 531.939 11.16C533.006 11.7067 533.726 12.22 534.099 12.7C534.472 13.1667 534.659 13.7 534.659 14.3C534.659 15.2067 534.286 15.9533 533.539 16.54C532.792 17.1133 531.799 17.4 530.559 17.4C529.159 17.4 527.766 17.04 526.379 16.32L527.519 13.7C528.679 14.5933 529.879 15.26 531.119 15.7C531.359 15.4867 531.479 15.24 531.479 14.96C531.479 14.7067 531.379 14.48 531.179 14.28C530.992 14.08 530.379 13.72 529.339 13.2C528.312 12.6667 527.612 12.1733 527.239 11.72C526.879 11.2533 526.699 10.7267 526.699 10.14C526.699 9.20667 527.106 8.45333 527.919 7.88C528.746 7.29333 529.812 7 531.119 7C532.332 7 533.366 7.22 534.219 7.66L534.259 8.36C534.259 9.05333 534.146 9.75333 533.919 10.46H532.159L531.539 8.64L530.619 8.54C530.086 8.7 529.819 8.98 529.819 9.38ZM541.339 17.26L540.459 17.32C539.019 17.32 537.819 16.8467 536.859 15.9C535.912 14.94 535.439 13.7133 535.439 12.22C535.439 10.7133 535.919 9.46667 536.879 8.48C537.839 7.49333 539.045 7 540.499 7C541.432 7 542.265 7.22667 542.999 7.68C543.732 8.12 544.225 8.76 544.479 9.6L541.739 11.14C541.165 10.0067 540.499 9.23333 539.739 8.82C539.099 9.51333 538.779 10.4733 538.779 11.7C538.779 12.7 539.019 13.5133 539.499 14.14C539.992 14.7667 540.685 15.08 541.579 15.08C542.205 15.08 542.932 14.88 543.759 14.48L544.239 15.58L541.339 17.26ZM548.117 5.98C547.197 5.56667 546.403 4.96 545.737 4.16C546.27 3.13333 546.93 2.33333 547.717 1.76C548.61 2.22667 549.363 2.90667 549.977 3.8C549.537 4.68 548.917 5.40667 548.117 5.98ZM549.657 15.32C550.243 15.52 550.723 15.7533 551.097 16.02L551.057 17H544.717L544.677 16.3C545.143 16.0333 545.65 15.8067 546.197 15.62V9.02L544.717 8.74L544.617 7.78C545.803 7.32667 547.123 7.08 548.577 7.04L549.657 8V15.32ZM562.671 15.32C563.258 15.52 563.738 15.7533 564.111 16.02L564.051 17H559.211V11.46C559.211 10.1133 558.784 9.44 557.931 9.44C557.544 9.44 557.111 9.56 556.631 9.8V15.38C557.111 15.5933 557.498 15.8067 557.791 16.02L557.751 17H551.731L551.691 16.3C552.104 16.06 552.598 15.84 553.171 15.64V9.02L551.691 8.74L551.591 7.78C552.778 7.32667 554.098 7.08 555.551 7.04L556.631 8.12V8.76C557.711 7.94667 558.718 7.39333 559.651 7.1C560.904 7.14 561.831 7.62 562.431 8.54C562.578 8.80667 562.658 9.41333 562.671 10.36V15.32ZM572.606 12.42L567.566 12.38C567.659 13.2467 567.966 13.9133 568.486 14.38C569.019 14.8467 569.686 15.08 570.486 15.08C571.193 15.08 572.039 14.8267 573.026 14.32L573.526 15.46L570.386 17.24L569.466 17.3C567.986 17.3 566.753 16.8333 565.766 15.9C564.793 14.9667 564.306 13.7733 564.306 12.32C564.306 10.84 564.799 9.58667 565.786 8.56C566.786 7.52 567.993 7 569.406 7C570.699 7 571.753 7.39333 572.566 8.18C573.379 8.95333 573.779 9.98 573.766 11.26L572.606 12.42ZM568.866 8.66C568.226 9.06 567.819 9.79333 567.646 10.86L570.646 10.68C570.566 10.1333 570.359 9.66667 570.026 9.28C569.706 8.88 569.319 8.67333 568.866 8.66ZM579.131 10.44V15.18C580.024 15.3933 580.751 15.6733 581.311 16.02L581.271 17H574.231L574.191 16.3C574.604 16.06 575.098 15.84 575.671 15.64V9.02L574.191 8.74L574.091 7.78C575.278 7.32667 576.598 7.08 578.051 7.04L579.131 8.54V8.9L580.711 7.12C580.911 7.05333 581.164 7.02 581.471 7.02C582.004 7.02 582.491 7.15333 582.931 7.42C583.384 7.68667 583.698 8.06 583.871 8.54L581.571 11.44C580.678 10.6933 579.964 10.2867 579.431 10.22L579.131 10.44ZM583.798 12.14C583.798 10.6333 584.271 9.4 585.218 8.44C586.165 7.48 587.365 7 588.818 7C590.271 7 591.465 7.48667 592.398 8.46C593.331 9.43333 593.798 10.6933 593.798 12.24C593.798 13.7733 593.338 15.02 592.418 15.98C591.511 16.9267 590.338 17.4 588.898 17.4C587.431 17.4 586.211 16.9067 585.238 15.92C584.278 14.92 583.798 13.66 583.798 12.14ZM589.558 15.5C590.051 15.1267 590.298 14.1133 590.298 12.46C590.298 10.1 589.758 8.92 588.678 8.92C588.345 8.92 588.085 8.99333 587.898 9.14C587.498 9.67333 587.298 10.6867 587.298 12.18C587.298 13.1933 587.438 14.02 587.718 14.66C587.998 15.2867 588.425 15.6 588.998 15.6C589.185 15.6 589.371 15.5667 589.558 15.5ZM597.905 9.38C597.905 9.62 597.992 9.84 598.165 10.04C598.338 10.2267 598.958 10.6 600.025 11.16C601.092 11.7067 601.812 12.22 602.185 12.7C602.558 13.1667 602.745 13.7 602.745 14.3C602.745 15.2067 602.372 15.9533 601.625 16.54C600.878 17.1133 599.885 17.4 598.645 17.4C597.245 17.4 595.852 17.04 594.465 16.32L595.605 13.7C596.765 14.5933 597.965 15.26 599.205 15.7C599.445 15.4867 599.565 15.24 599.565 14.96C599.565 14.7067 599.465 14.48 599.265 14.28C599.078 14.08 598.465 13.72 597.425 13.2C596.398 12.6667 595.698 12.1733 595.325 11.72C594.965 11.2533 594.785 10.7267 594.785 10.14C594.785 9.20667 595.192 8.45333 596.005 7.88C596.832 7.29333 597.898 7 599.205 7C600.418 7 601.452 7.22 602.305 7.66L602.345 8.36C602.345 9.05333 602.232 9.75333 602.005 10.46H600.245L599.625 8.64L598.705 8.54C598.172 8.7 597.905 8.98 597.905 9.38Z" fill="#EB3223"/>
<defs>
<filter id="filter0_d" x="0" y="4" width="680" height="570" filterUnits="userSpaceOnUse" color-interpolation-filters="sRGB">
<feFlood flood-opacity="0" result="BackgroundImageFix"/>
<feColorMatrix in="SourceAlpha" type="matrix" values="0 0 0 0 0 0 0 0 0 0 0 0 0 0 0 0 0 0 127 0"/>
<feOffset dy="4"/>
<feGaussianBlur stdDeviation="5"/>
<feColorMatrix type="matrix" values="0 0 0 0 0.968627 0 0 0 0 0.34902 0 0 0 0 0.447059 0 0 0 0.25 0"/>
<feBlend mode="normal" in2="BackgroundImageFix" result="effect1_dropShadow"/>
<feBlend mode="normal" in="SourceGraphic" in2="effect1_dropShadow" result="shape"/>
</filter>
</defs>
</svg>
