<svg width="618" height="244" viewBox="0 0 618 244" fill="none" xmlns="http://www.w3.org/2000/svg">
<path d="M73.4321 74.0928C90.9948 73.6175 99.7366 82.2125 101.912 86.5695L163.619 137.07C160.296 177.47 195.461 205.395 213.459 214.307C274.691 226.665 331.533 219.456 352.3 214.307C357.046 224.288 378.802 236.686 389.086 241.637C435.604 251.618 487.184 227.576 507.16 214.307C619.656 159.647 625.234 90.5298 613.96 62.8037C606.366 32.3843 549.089 34.6817 521.4 39.6329C491.496 12.0649 449.211 22.997 431.806 31.909C369.15 20.5017 297.317 32.3052 269.233 39.6329C214.171 58.6452 192.495 47.5547 188.539 39.6329C136.8 -24.5332 49.1054 3.39092 11.7253 25.3737C-26.2482 72.4288 37.0409 77.4594 73.4321 74.0928Z" fill="#F2F2F2"/>
<path d="M256.828 169.727H260.438V183.895H268.992V187H256.828V169.727ZM278.273 180.789C278.062 180.922 277.848 181.031 277.629 181.117C277.418 181.195 277.125 181.27 276.75 181.34L276 181.48C275.297 181.605 274.793 181.758 274.488 181.938C273.973 182.242 273.715 182.715 273.715 183.355C273.715 183.926 273.871 184.34 274.184 184.598C274.504 184.848 274.891 184.973 275.344 184.973C276.062 184.973 276.723 184.762 277.324 184.34C277.934 183.918 278.25 183.148 278.273 182.031V180.789ZM276.246 179.23C276.863 179.152 277.305 179.055 277.57 178.938C278.047 178.734 278.285 178.418 278.285 177.988C278.285 177.465 278.102 177.105 277.734 176.91C277.375 176.707 276.844 176.605 276.141 176.605C275.352 176.605 274.793 176.801 274.465 177.191C274.23 177.48 274.074 177.871 273.996 178.363H270.773C270.844 177.246 271.156 176.328 271.711 175.609C272.594 174.484 274.109 173.922 276.258 173.922C277.656 173.922 278.898 174.199 279.984 174.754C281.07 175.309 281.613 176.355 281.613 177.895V183.754C281.613 184.16 281.621 184.652 281.637 185.23C281.66 185.668 281.727 185.965 281.836 186.121C281.945 186.277 282.109 186.406 282.328 186.508V187H278.695C278.594 186.742 278.523 186.5 278.484 186.273C278.445 186.047 278.414 185.789 278.391 185.5C277.93 186 277.398 186.426 276.797 186.777C276.078 187.191 275.266 187.398 274.359 187.398C273.203 187.398 272.246 187.07 271.488 186.414C270.738 185.75 270.363 184.812 270.363 183.602C270.363 182.031 270.969 180.895 272.18 180.191C272.844 179.809 273.82 179.535 275.109 179.371L276.246 179.23ZM287.191 182.922C287.262 183.516 287.414 183.938 287.648 184.188C288.062 184.633 288.828 184.855 289.945 184.855C290.602 184.855 291.121 184.758 291.504 184.562C291.895 184.367 292.09 184.074 292.09 183.684C292.09 183.309 291.934 183.023 291.621 182.828C291.309 182.633 290.148 182.297 288.141 181.82C286.695 181.461 285.676 181.012 285.082 180.473C284.488 179.941 284.191 179.176 284.191 178.176C284.191 176.996 284.652 175.984 285.574 175.141C286.504 174.289 287.809 173.863 289.488 173.863C291.082 173.863 292.379 174.184 293.379 174.824C294.387 175.457 294.965 176.555 295.113 178.117H291.773C291.727 177.688 291.605 177.348 291.41 177.098C291.043 176.645 290.418 176.418 289.535 176.418C288.809 176.418 288.289 176.531 287.977 176.758C287.672 176.984 287.52 177.25 287.52 177.555C287.52 177.938 287.684 178.215 288.012 178.387C288.34 178.566 289.5 178.875 291.492 179.312C292.82 179.625 293.816 180.098 294.48 180.73C295.137 181.371 295.465 182.172 295.465 183.133C295.465 184.398 294.992 185.434 294.047 186.238C293.109 187.035 291.656 187.434 289.688 187.434C287.68 187.434 286.195 187.012 285.234 186.168C284.281 185.316 283.805 184.234 283.805 182.922H287.191ZM318.902 173.945C319.465 173.945 320.02 174.055 320.566 174.273C321.113 174.492 321.609 174.875 322.055 175.422C322.414 175.867 322.656 176.414 322.781 177.062C322.859 177.492 322.898 178.121 322.898 178.949L322.875 187H319.453V178.867C319.453 178.383 319.375 177.984 319.219 177.672C318.922 177.078 318.375 176.781 317.578 176.781C316.656 176.781 316.02 177.164 315.668 177.93C315.488 178.336 315.398 178.824 315.398 179.395V187H312.035V179.395C312.035 178.637 311.957 178.086 311.801 177.742C311.52 177.125 310.969 176.816 310.148 176.816C309.195 176.816 308.555 177.125 308.227 177.742C308.047 178.094 307.957 178.617 307.957 179.312V187H304.57V174.25H307.816V176.113C308.23 175.449 308.621 174.977 308.988 174.695C309.637 174.195 310.477 173.945 311.508 173.945C312.484 173.945 313.273 174.16 313.875 174.59C314.359 174.988 314.727 175.5 314.977 176.125C315.414 175.375 315.957 174.824 316.605 174.473C317.293 174.121 318.059 173.945 318.902 173.945ZM331.711 184.645C332.688 184.645 333.438 184.297 333.961 183.602C334.484 182.906 334.746 181.918 334.746 180.637C334.746 179.355 334.484 178.371 333.961 177.684C333.438 176.988 332.688 176.641 331.711 176.641C330.734 176.641 329.98 176.988 329.449 177.684C328.926 178.371 328.664 179.355 328.664 180.637C328.664 181.918 328.926 182.906 329.449 183.602C329.98 184.297 330.734 184.645 331.711 184.645ZM338.25 180.637C338.25 182.512 337.711 184.117 336.633 185.453C335.555 186.781 333.918 187.445 331.723 187.445C329.527 187.445 327.891 186.781 326.812 185.453C325.734 184.117 325.195 182.512 325.195 180.637C325.195 178.793 325.734 177.195 326.812 175.844C327.891 174.492 329.527 173.816 331.723 173.816C333.918 173.816 335.555 174.492 336.633 175.844C337.711 177.195 338.25 178.793 338.25 180.637ZM347.73 173.922C349.051 173.922 350.129 174.27 350.965 174.965C351.809 175.652 352.23 176.797 352.23 178.398V187H348.809V179.23C348.809 178.559 348.719 178.043 348.539 177.684C348.211 177.027 347.586 176.699 346.664 176.699C345.531 176.699 344.754 177.18 344.332 178.141C344.113 178.648 344.004 179.297 344.004 180.086V187H340.676V174.25H343.898V176.113C344.328 175.457 344.734 174.984 345.117 174.695C345.805 174.18 346.676 173.922 347.73 173.922ZM354.012 176.723V174.344H355.793V170.781H359.098V174.344H361.172V176.723H359.098V183.473C359.098 183.996 359.164 184.324 359.297 184.457C359.43 184.582 359.836 184.645 360.516 184.645C360.617 184.645 360.723 184.645 360.832 184.645C360.949 184.637 361.062 184.629 361.172 184.621V187.117L359.59 187.176C358.012 187.23 356.934 186.957 356.355 186.355C355.98 185.973 355.793 185.383 355.793 184.586V176.723H354.012ZM370.359 180.789C370.148 180.922 369.934 181.031 369.715 181.117C369.504 181.195 369.211 181.27 368.836 181.34L368.086 181.48C367.383 181.605 366.879 181.758 366.574 181.938C366.059 182.242 365.801 182.715 365.801 183.355C365.801 183.926 365.957 184.34 366.27 184.598C366.59 184.848 366.977 184.973 367.43 184.973C368.148 184.973 368.809 184.762 369.41 184.34C370.02 183.918 370.336 183.148 370.359 182.031V180.789ZM368.332 179.23C368.949 179.152 369.391 179.055 369.656 178.938C370.133 178.734 370.371 178.418 370.371 177.988C370.371 177.465 370.188 177.105 369.82 176.91C369.461 176.707 368.93 176.605 368.227 176.605C367.438 176.605 366.879 176.801 366.551 177.191C366.316 177.48 366.16 177.871 366.082 178.363H362.859C362.93 177.246 363.242 176.328 363.797 175.609C364.68 174.484 366.195 173.922 368.344 173.922C369.742 173.922 370.984 174.199 372.07 174.754C373.156 175.309 373.699 176.355 373.699 177.895V183.754C373.699 184.16 373.707 184.652 373.723 185.23C373.746 185.668 373.812 185.965 373.922 186.121C374.031 186.277 374.195 186.406 374.414 186.508V187H370.781C370.68 186.742 370.609 186.5 370.57 186.273C370.531 186.047 370.5 185.789 370.477 185.5C370.016 186 369.484 186.426 368.883 186.777C368.164 187.191 367.352 187.398 366.445 187.398C365.289 187.398 364.332 187.07 363.574 186.414C362.824 185.75 362.449 184.812 362.449 183.602C362.449 182.031 363.055 180.895 364.266 180.191C364.93 179.809 365.906 179.535 367.195 179.371L368.332 179.23ZM383.754 173.922C385.074 173.922 386.152 174.27 386.988 174.965C387.832 175.652 388.254 176.797 388.254 178.398V187H384.832V179.23C384.832 178.559 384.742 178.043 384.562 177.684C384.234 177.027 383.609 176.699 382.688 176.699C381.555 176.699 380.777 177.18 380.355 178.141C380.137 178.648 380.027 179.297 380.027 180.086V187H376.699V174.25H379.922V176.113C380.352 175.457 380.758 174.984 381.141 174.695C381.828 174.18 382.699 173.922 383.754 173.922ZM381.012 169.398C381.223 169.398 381.43 169.422 381.633 169.469C381.836 169.516 382.008 169.566 382.148 169.621L383.25 170.031C383.578 170.141 383.793 170.211 383.895 170.242C383.996 170.273 384.109 170.289 384.234 170.289C384.609 170.289 384.871 170.191 385.02 169.996C385.176 169.793 385.289 169.555 385.359 169.281H386.918C386.777 170.102 386.496 170.789 386.074 171.344C385.66 171.898 385.051 172.176 384.246 172.176C384.004 172.176 383.66 172.117 383.215 172C382.957 171.938 382.711 171.867 382.477 171.789L381.527 171.473C381.395 171.426 381.266 171.395 381.141 171.379C381.016 171.355 380.891 171.344 380.766 171.344C380.469 171.344 380.227 171.43 380.039 171.602C379.852 171.781 379.719 172.027 379.641 172.34H378.117C378.289 171.535 378.512 170.926 378.785 170.512C379.285 169.77 380.027 169.398 381.012 169.398ZM398.391 180.789C398.18 180.922 397.965 181.031 397.746 181.117C397.535 181.195 397.242 181.27 396.867 181.34L396.117 181.48C395.414 181.605 394.91 181.758 394.605 181.938C394.09 182.242 393.832 182.715 393.832 183.355C393.832 183.926 393.988 184.34 394.301 184.598C394.621 184.848 395.008 184.973 395.461 184.973C396.18 184.973 396.84 184.762 397.441 184.34C398.051 183.918 398.367 183.148 398.391 182.031V180.789ZM396.363 179.23C396.98 179.152 397.422 179.055 397.688 178.938C398.164 178.734 398.402 178.418 398.402 177.988C398.402 177.465 398.219 177.105 397.852 176.91C397.492 176.707 396.961 176.605 396.258 176.605C395.469 176.605 394.91 176.801 394.582 177.191C394.348 177.48 394.191 177.871 394.113 178.363H390.891C390.961 177.246 391.273 176.328 391.828 175.609C392.711 174.484 394.227 173.922 396.375 173.922C397.773 173.922 399.016 174.199 400.102 174.754C401.188 175.309 401.73 176.355 401.73 177.895V183.754C401.73 184.16 401.738 184.652 401.754 185.23C401.777 185.668 401.844 185.965 401.953 186.121C402.062 186.277 402.227 186.406 402.445 186.508V187H398.812C398.711 186.742 398.641 186.5 398.602 186.273C398.562 186.047 398.531 185.789 398.508 185.5C398.047 186 397.516 186.426 396.914 186.777C396.195 187.191 395.383 187.398 394.477 187.398C393.32 187.398 392.363 187.07 391.605 186.414C390.855 185.75 390.48 184.812 390.48 183.602C390.48 182.031 391.086 180.895 392.297 180.191C392.961 179.809 393.938 179.535 395.227 179.371L396.363 179.23ZM407.309 182.922C407.379 183.516 407.531 183.938 407.766 184.188C408.18 184.633 408.945 184.855 410.062 184.855C410.719 184.855 411.238 184.758 411.621 184.562C412.012 184.367 412.207 184.074 412.207 183.684C412.207 183.309 412.051 183.023 411.738 182.828C411.426 182.633 410.266 182.297 408.258 181.82C406.812 181.461 405.793 181.012 405.199 180.473C404.605 179.941 404.309 179.176 404.309 178.176C404.309 176.996 404.77 175.984 405.691 175.141C406.621 174.289 407.926 173.863 409.605 173.863C411.199 173.863 412.496 174.184 413.496 174.824C414.504 175.457 415.082 176.555 415.23 178.117H411.891C411.844 177.688 411.723 177.348 411.527 177.098C411.16 176.645 410.535 176.418 409.652 176.418C408.926 176.418 408.406 176.531 408.094 176.758C407.789 176.984 407.637 177.25 407.637 177.555C407.637 177.938 407.801 178.215 408.129 178.387C408.457 178.566 409.617 178.875 411.609 179.312C412.938 179.625 413.934 180.098 414.598 180.73C415.254 181.371 415.582 182.172 415.582 183.133C415.582 184.398 415.109 185.434 414.164 186.238C413.227 187.035 411.773 187.434 409.805 187.434C407.797 187.434 406.312 187.012 405.352 186.168C404.398 185.316 403.922 184.234 403.922 182.922H407.309ZM431.824 173.922C433.145 173.922 434.223 174.27 435.059 174.965C435.902 175.652 436.324 176.797 436.324 178.398V187H432.902V179.23C432.902 178.559 432.812 178.043 432.633 177.684C432.305 177.027 431.68 176.699 430.758 176.699C429.625 176.699 428.848 177.18 428.426 178.141C428.207 178.648 428.098 179.297 428.098 180.086V187H424.77V174.25H427.992V176.113C428.422 175.457 428.828 174.984 429.211 174.695C429.898 174.18 430.77 173.922 431.824 173.922ZM444.457 176.641C443.684 176.641 443.082 176.883 442.652 177.367C442.23 177.852 441.965 178.508 441.855 179.336H447.047C446.992 178.453 446.723 177.785 446.238 177.332C445.762 176.871 445.168 176.641 444.457 176.641ZM444.457 173.887C445.52 173.887 446.477 174.086 447.328 174.484C448.18 174.883 448.883 175.512 449.438 176.371C449.938 177.129 450.262 178.008 450.41 179.008C450.496 179.594 450.531 180.438 450.516 181.539H441.773C441.82 182.82 442.223 183.719 442.98 184.234C443.441 184.555 443.996 184.715 444.645 184.715C445.332 184.715 445.891 184.52 446.32 184.129C446.555 183.918 446.762 183.625 446.941 183.25H450.352C450.266 184.008 449.871 184.777 449.168 185.559C448.074 186.801 446.543 187.422 444.574 187.422C442.949 187.422 441.516 186.898 440.273 185.852C439.031 184.805 438.41 183.102 438.41 180.742C438.41 178.531 438.969 176.836 440.086 175.656C441.211 174.477 442.668 173.887 444.457 173.887ZM460.652 174.227H464.238L459.633 187H456.105L451.523 174.227H455.273L457.934 183.648L460.652 174.227ZM473.18 180.789C472.969 180.922 472.754 181.031 472.535 181.117C472.324 181.195 472.031 181.27 471.656 181.34L470.906 181.48C470.203 181.605 469.699 181.758 469.395 181.938C468.879 182.242 468.621 182.715 468.621 183.355C468.621 183.926 468.777 184.34 469.09 184.598C469.41 184.848 469.797 184.973 470.25 184.973C470.969 184.973 471.629 184.762 472.23 184.34C472.84 183.918 473.156 183.148 473.18 182.031V180.789ZM471.152 179.23C471.77 179.152 472.211 179.055 472.477 178.938C472.953 178.734 473.191 178.418 473.191 177.988C473.191 177.465 473.008 177.105 472.641 176.91C472.281 176.707 471.75 176.605 471.047 176.605C470.258 176.605 469.699 176.801 469.371 177.191C469.137 177.48 468.98 177.871 468.902 178.363H465.68C465.75 177.246 466.062 176.328 466.617 175.609C467.5 174.484 469.016 173.922 471.164 173.922C472.562 173.922 473.805 174.199 474.891 174.754C475.977 175.309 476.52 176.355 476.52 177.895V183.754C476.52 184.16 476.527 184.652 476.543 185.23C476.566 185.668 476.633 185.965 476.742 186.121C476.852 186.277 477.016 186.406 477.234 186.508V187H473.602C473.5 186.742 473.43 186.5 473.391 186.273C473.352 186.047 473.32 185.789 473.297 185.5C472.836 186 472.305 186.426 471.703 186.777C470.984 187.191 470.172 187.398 469.266 187.398C468.109 187.398 467.152 187.07 466.395 186.414C465.645 185.75 465.27 184.812 465.27 183.602C465.27 182.031 465.875 180.895 467.086 180.191C467.75 179.809 468.727 179.535 470.016 179.371L471.152 179.23ZM484.207 173.922C484.98 173.922 485.668 174.094 486.27 174.438C486.871 174.773 487.359 175.242 487.734 175.844V169.75H491.121V187H487.875V185.23C487.398 185.988 486.855 186.539 486.246 186.883C485.637 187.227 484.879 187.398 483.973 187.398C482.48 187.398 481.223 186.797 480.199 185.594C479.184 184.383 478.676 182.832 478.676 180.941C478.676 178.762 479.176 177.047 480.176 175.797C481.184 174.547 482.527 173.922 484.207 173.922ZM484.934 184.586C485.879 184.586 486.598 184.234 487.09 183.531C487.582 182.828 487.828 181.918 487.828 180.801C487.828 179.238 487.434 178.121 486.645 177.449C486.16 177.043 485.598 176.84 484.957 176.84C483.98 176.84 483.262 177.211 482.801 177.953C482.348 178.688 482.121 179.602 482.121 180.695C482.121 181.875 482.352 182.82 482.812 183.531C483.281 184.234 483.988 184.586 484.934 184.586ZM501.211 180.789C501 180.922 500.785 181.031 500.566 181.117C500.355 181.195 500.062 181.27 499.688 181.34L498.938 181.48C498.234 181.605 497.73 181.758 497.426 181.938C496.91 182.242 496.652 182.715 496.652 183.355C496.652 183.926 496.809 184.34 497.121 184.598C497.441 184.848 497.828 184.973 498.281 184.973C499 184.973 499.66 184.762 500.262 184.34C500.871 183.918 501.188 183.148 501.211 182.031V180.789ZM499.184 179.23C499.801 179.152 500.242 179.055 500.508 178.938C500.984 178.734 501.223 178.418 501.223 177.988C501.223 177.465 501.039 177.105 500.672 176.91C500.312 176.707 499.781 176.605 499.078 176.605C498.289 176.605 497.73 176.801 497.402 177.191C497.168 177.48 497.012 177.871 496.934 178.363H493.711C493.781 177.246 494.094 176.328 494.648 175.609C495.531 174.484 497.047 173.922 499.195 173.922C500.594 173.922 501.836 174.199 502.922 174.754C504.008 175.309 504.551 176.355 504.551 177.895V183.754C504.551 184.16 504.559 184.652 504.574 185.23C504.598 185.668 504.664 185.965 504.773 186.121C504.883 186.277 505.047 186.406 505.266 186.508V187H501.633C501.531 186.742 501.461 186.5 501.422 186.273C501.383 186.047 501.352 185.789 501.328 185.5C500.867 186 500.336 186.426 499.734 186.777C499.016 187.191 498.203 187.398 497.297 187.398C496.141 187.398 495.184 187.07 494.426 186.414C493.676 185.75 493.301 184.812 493.301 183.602C493.301 182.031 493.906 180.895 495.117 180.191C495.781 179.809 496.758 179.535 498.047 179.371L499.184 179.23ZM510.129 182.922C510.199 183.516 510.352 183.938 510.586 184.188C511 184.633 511.766 184.855 512.883 184.855C513.539 184.855 514.059 184.758 514.441 184.562C514.832 184.367 515.027 184.074 515.027 183.684C515.027 183.309 514.871 183.023 514.559 182.828C514.246 182.633 513.086 182.297 511.078 181.82C509.633 181.461 508.613 181.012 508.02 180.473C507.426 179.941 507.129 179.176 507.129 178.176C507.129 176.996 507.59 175.984 508.512 175.141C509.441 174.289 510.746 173.863 512.426 173.863C514.02 173.863 515.316 174.184 516.316 174.824C517.324 175.457 517.902 176.555 518.051 178.117H514.711C514.664 177.688 514.543 177.348 514.348 177.098C513.98 176.645 513.355 176.418 512.473 176.418C511.746 176.418 511.227 176.531 510.914 176.758C510.609 176.984 510.457 177.25 510.457 177.555C510.457 177.938 510.621 178.215 510.949 178.387C511.277 178.566 512.438 178.875 514.43 179.312C515.758 179.625 516.754 180.098 517.418 180.73C518.074 181.371 518.402 182.172 518.402 183.133C518.402 184.398 517.93 185.434 516.984 186.238C516.047 187.035 514.594 187.434 512.625 187.434C510.617 187.434 509.133 187.012 508.172 186.168C507.219 185.316 506.742 184.234 506.742 182.922H510.129Z" fill="#191960"/>
<path d="M266 154C272 142.167 284.9 118.5 288.5 118.5C292.1 118.5 304.667 142.167 310.5 154" stroke="#C0CCD3" stroke-width="5" stroke-linecap="round" stroke-linejoin="round"/>
<path d="M331 154C337 142.167 349.9 118.5 353.5 118.5C357.1 118.5 369.667 142.167 375.5 154" stroke="#C0CCD3" stroke-width="5" stroke-linecap="round" stroke-linejoin="round"/>
<path d="M332 108.5C338 96.6667 350.9 73 354.5 73C358.1 73 370.667 96.6667 376.5 108.5" stroke="#C0CCD3" stroke-width="5" stroke-linecap="round" stroke-linejoin="round"/>
<path d="M299 131C305 119.167 317.9 95.5 321.5 95.5C325.1 95.5 337.667 119.167 343.5 131" stroke="#C0CCD3" stroke-width="5" stroke-linecap="round" stroke-linejoin="round"/>
<path d="M396 154C402 142.167 414.9 118.5 418.5 118.5C422.1 118.5 434.667 142.167 440.5 154" stroke="#C0CCD3" stroke-width="5" stroke-linecap="round" stroke-linejoin="round"/>
<path d="M397 108.5C403 96.6667 415.9 73 419.5 73C423.1 73 435.667 96.6667 441.5 108.5" stroke="#C0CCD3" stroke-width="5" stroke-linecap="round" stroke-linejoin="round"/>
<path d="M364 131C370 119.167 382.9 95.5 386.5 95.5C390.1 95.5 402.667 119.167 408.5 131" stroke="#C0CCD3" stroke-width="5" stroke-linecap="round" stroke-linejoin="round"/>
<path d="M365 85.5C371 73.6667 383.9 50 387.5 50C391.1 50 403.667 73.6667 409.5 85.5" stroke="#C0CCD3" stroke-width="5" stroke-linecap="round" stroke-linejoin="round"/>
<path d="M461 154C467 142.167 479.9 118.5 483.5 118.5C487.1 118.5 499.667 142.167 505.5 154" stroke="#C0CCD3" stroke-width="5" stroke-linecap="round" stroke-linejoin="round"/>
<path d="M430 131C436 119.167 448.9 95.5 452.5 95.5C456.1 95.5 468.667 119.167 474.5 131" stroke="#C0CCD3" stroke-width="5" stroke-linecap="round"/>
</svg>
