<svg width="638" height="264" viewBox="0 0 638 264" fill="none" xmlns="http://www.w3.org/2000/svg">
<g filter="url(#filter0_d)">
<path d="M83.4321 80.0928C100.995 79.6175 109.737 88.2125 111.912 92.5695L173.619 143.07C170.296 183.47 205.461 211.395 223.459 220.307C284.691 232.665 341.533 225.456 362.3 220.307C367.046 230.288 388.802 242.686 399.086 247.637C445.604 257.618 497.184 233.576 517.16 220.307C629.656 165.647 635.234 96.5298 623.96 68.8037C616.366 38.3843 559.089 40.6817 531.4 45.6329C501.496 18.0649 459.211 28.997 441.806 37.909C379.15 26.5017 307.317 38.3052 279.233 45.6329C224.171 64.6452 202.495 53.5547 198.539 45.6329C146.8 -18.5332 59.1054 9.39092 21.7253 31.3737C-16.2482 78.4288 47.0409 83.4594 83.4321 80.0928Z" fill="#F2F2F2"/>
<path d="M279.784 185.984C279.784 188.08 279.672 189.752 279.448 191H265.72L265.576 190.232C266.184 189.816 266.864 189.44 267.616 189.104V176.672L265.768 176.384L265.792 175.112H273.856L274 175.88C273.424 176.296 272.744 176.672 271.96 177.008V188.768L276.232 188.36L277.312 184.88L279.784 185.096V185.984ZM292.735 189.632L289.567 191.408C289.119 191.392 288.671 191.224 288.223 190.904C287.775 190.584 287.407 190.168 287.119 189.656L284.575 191.312L283.759 191.384C282.719 191.384 281.847 191.08 281.143 190.472C280.455 189.864 280.111 189.128 280.111 188.264C280.111 187.064 280.759 186.12 282.055 185.432L286.615 185.336V183.368C286.615 182.136 286.247 181.328 285.511 180.944C284.999 180.976 284.551 181.072 284.167 181.232L283.591 183.872L281.239 183.92C280.935 183.056 280.783 182.144 280.783 181.184L280.831 180.296C281.791 179.928 282.903 179.616 284.167 179.36C285.431 179.088 286.407 178.952 287.095 178.952C288.519 178.952 289.647 179.536 290.479 180.704C290.655 181.008 290.751 181.616 290.767 182.528V188.024C290.767 188.44 290.967 188.648 291.367 188.648L292.015 188.624L292.591 188.576L292.735 189.632ZM284.215 188C284.215 188.416 284.351 188.76 284.623 189.032C285.103 189 285.767 188.848 286.615 188.576V186.8C285.015 186.768 284.215 187.168 284.215 188ZM297.45 181.856C297.45 182.144 297.554 182.408 297.762 182.648C297.97 182.872 298.714 183.32 299.994 183.992C301.274 184.648 302.138 185.264 302.586 185.84C303.034 186.4 303.258 187.04 303.258 187.76C303.258 188.848 302.81 189.744 301.914 190.448C301.018 191.136 299.826 191.48 298.338 191.48C296.658 191.48 294.986 191.048 293.322 190.184L294.69 187.04C296.082 188.112 297.522 188.912 299.01 189.44C299.298 189.184 299.442 188.888 299.442 188.552C299.442 188.248 299.322 187.976 299.082 187.736C298.858 187.496 298.122 187.064 296.874 186.44C295.642 185.8 294.802 185.208 294.354 184.664C293.922 184.104 293.706 183.472 293.706 182.768C293.706 181.648 294.194 180.744 295.17 180.056C296.162 179.352 297.442 179 299.01 179C300.466 179 301.706 179.264 302.73 179.792L302.778 180.632C302.778 181.464 302.642 182.304 302.37 183.152H300.258L299.514 180.968L298.41 180.848C297.77 181.04 297.45 181.376 297.45 181.856ZM333.225 189.872L333.201 191H324.969L324.825 190.232C325.337 189.864 326.017 189.488 326.865 189.104L326.841 183.728L327.177 179.456L322.953 190.616L319.881 191.168L315.681 179.552L316.041 183.728L315.969 189.368L318.009 189.872L317.985 191H310.977L310.833 190.232C311.473 189.784 312.177 189.4 312.945 189.08L313.233 177.032L311.217 176.528L311.241 175.4H318.345L318.321 175.424L322.353 186.68L326.553 175.4H332.745L332.889 176.168C332.361 176.552 331.673 176.928 330.825 177.296L331.017 189.32L333.225 189.872ZM333.256 185.168C333.256 183.36 333.824 181.88 334.96 180.728C336.096 179.576 337.536 179 339.28 179C341.024 179 342.456 179.584 343.576 180.752C344.696 181.92 345.256 183.432 345.256 185.288C345.256 187.128 344.704 188.624 343.6 189.776C342.512 190.912 341.104 191.48 339.376 191.48C337.616 191.48 336.152 190.888 334.984 189.704C333.832 188.504 333.256 186.992 333.256 185.168ZM340.168 189.2C340.76 188.752 341.056 187.536 341.056 185.552C341.056 182.72 340.408 181.304 339.112 181.304C338.712 181.304 338.4 181.392 338.176 181.568C337.696 182.208 337.456 183.424 337.456 185.216C337.456 186.432 337.624 187.424 337.96 188.192C338.296 188.944 338.808 189.32 339.496 189.32C339.72 189.32 339.944 189.28 340.168 189.2ZM359.208 188.984C359.912 189.224 360.488 189.504 360.936 189.824L360.864 191H355.056V184.352C355.056 182.736 354.544 181.928 353.52 181.928C353.056 181.928 352.536 182.072 351.96 182.36V189.056C352.536 189.312 353 189.568 353.352 189.824L353.304 191H346.08L346.032 190.16C346.528 189.872 347.12 189.608 347.808 189.368V181.424L346.032 181.088L345.912 179.936C347.336 179.392 348.92 179.096 350.664 179.048L351.96 180.344V181.112C353.256 180.136 354.464 179.472 355.584 179.12C357.088 179.168 358.2 179.744 358.92 180.848C359.096 181.168 359.192 181.896 359.208 183.032V188.984ZM368.194 188.336C368.754 188.336 369.394 188.264 370.114 188.12L370.282 189.368L366.322 191.408C365.522 191.44 364.786 191.192 364.114 190.664C363.458 190.12 363.13 189.488 363.13 188.768V182.336H361.378L361.306 181.04C361.834 180.592 362.514 180.128 363.346 179.648L364.666 176.432H366.562L367.162 179.648H370.474L370.498 180.848L369.298 182.36H367.282V187.304C367.282 187.992 367.586 188.336 368.194 188.336ZM384.258 189.632L381.09 191.408C380.642 191.392 380.194 191.224 379.746 190.904C379.298 190.584 378.93 190.168 378.642 189.656L376.098 191.312L375.282 191.384C374.242 191.384 373.37 191.08 372.666 190.472C371.978 189.864 371.634 189.128 371.634 188.264C371.634 187.064 372.282 186.12 373.578 185.432L378.138 185.336V183.368C378.138 182.136 377.77 181.328 377.034 180.944C376.522 180.976 376.074 181.072 375.69 181.232L375.114 183.872L372.762 183.92C372.458 183.056 372.306 182.144 372.306 181.184L372.354 180.296C373.314 179.928 374.426 179.616 375.69 179.36C376.954 179.088 377.93 178.952 378.618 178.952C380.042 178.952 381.17 179.536 382.002 180.704C382.178 181.008 382.274 181.616 382.29 182.528V188.024C382.29 188.44 382.49 188.648 382.89 188.648L383.538 188.624L384.114 188.576L384.258 189.632ZM375.738 188C375.738 188.416 375.874 188.76 376.146 189.032C376.626 189 377.29 188.848 378.138 188.576V186.8C376.538 186.768 375.738 187.168 375.738 188ZM397.997 188.984C398.702 189.224 399.278 189.504 399.726 189.824L399.654 191H393.846V184.352C393.846 182.736 393.334 181.928 392.31 181.928C391.846 181.928 391.326 182.072 390.75 182.36V189.056C391.326 189.312 391.79 189.568 392.142 189.824L392.094 191H384.87L384.822 190.16C385.318 189.872 385.91 189.608 386.598 189.368V181.424L384.822 181.088L384.702 179.936C386.126 179.392 387.71 179.096 389.454 179.048L390.75 180.344V181.112C392.046 180.136 393.254 179.472 394.374 179.12C395.878 179.168 396.99 179.744 397.71 180.848C397.886 181.168 397.982 181.896 397.997 183.032V188.984ZM387.102 176.864C387.966 175.424 388.638 174.472 389.118 174.008C389.614 173.544 390.134 173.312 390.678 173.312C391.014 173.312 391.582 173.544 392.382 174.008C393.182 174.456 393.934 174.944 394.638 175.472L396.606 173.48L397.902 174.416C396.654 176.848 395.55 178.064 394.59 178.064C394.302 178.064 393.982 177.976 393.63 177.8C393.278 177.608 392.734 177.272 391.998 176.792C391.278 176.296 390.798 176.048 390.558 176.048C390.318 176.048 390.054 176.192 389.766 176.48C389.478 176.752 389.046 177.232 388.47 177.92L387.102 176.864ZM413.391 189.632L410.223 191.408C409.775 191.392 409.327 191.224 408.879 190.904C408.431 190.584 408.063 190.168 407.775 189.656L405.231 191.312L404.415 191.384C403.375 191.384 402.503 191.08 401.799 190.472C401.111 189.864 400.767 189.128 400.767 188.264C400.767 187.064 401.415 186.12 402.711 185.432L407.271 185.336V183.368C407.271 182.136 406.903 181.328 406.167 180.944C405.655 180.976 405.207 181.072 404.823 181.232L404.247 183.872L401.895 183.92C401.591 183.056 401.439 182.144 401.439 181.184L401.487 180.296C402.447 179.928 403.559 179.616 404.823 179.36C406.087 179.088 407.063 178.952 407.751 178.952C409.175 178.952 410.303 179.536 411.135 180.704C411.311 181.008 411.407 181.616 411.423 182.528V188.024C411.423 188.44 411.623 188.648 412.023 188.648L412.671 188.624L413.247 188.576L413.391 189.632ZM404.871 188C404.871 188.416 405.007 188.76 405.279 189.032C405.759 189 406.423 188.848 407.271 188.576V186.8C405.671 186.768 404.871 187.168 404.871 188ZM418.106 181.856C418.106 182.144 418.21 182.408 418.418 182.648C418.626 182.872 419.37 183.32 420.65 183.992C421.93 184.648 422.794 185.264 423.242 185.84C423.69 186.4 423.914 187.04 423.914 187.76C423.914 188.848 423.466 189.744 422.57 190.448C421.674 191.136 420.482 191.48 418.994 191.48C417.314 191.48 415.642 191.048 413.978 190.184L415.346 187.04C416.738 188.112 418.178 188.912 419.666 189.44C419.954 189.184 420.098 188.888 420.098 188.552C420.098 188.248 419.978 187.976 419.738 187.736C419.514 187.496 418.778 187.064 417.53 186.44C416.298 185.8 415.458 185.208 415.01 184.664C414.578 184.104 414.362 183.472 414.362 182.768C414.362 181.648 414.85 180.744 415.826 180.056C416.818 179.352 418.098 179 419.666 179C421.122 179 422.362 179.264 423.386 179.792L423.434 180.632C423.434 181.464 423.298 182.304 423.026 183.152H420.914L420.17 180.968L419.066 180.848C418.426 181.04 418.106 181.376 418.106 181.856ZM449.274 175.88C448.698 176.28 448.058 176.632 447.354 176.936L447.234 191L443.394 191.312L436.218 180.536L436.554 183.44V189.392L438.666 189.728L438.642 191H431.658L431.514 190.232C432.122 189.816 432.802 189.44 433.554 189.104V176.696L431.802 176.384L431.826 175.112H437.706L437.682 175.136L444.714 185.936L444.378 182.936V176.768L442.002 176.384L442.026 175.112H449.13L449.274 175.88ZM459.232 185.504L453.184 185.456C453.296 186.496 453.664 187.296 454.288 187.856C454.928 188.416 455.728 188.696 456.688 188.696C457.536 188.696 458.552 188.392 459.736 187.784L460.336 189.152L456.568 191.288L455.464 191.36C453.688 191.36 452.208 190.8 451.024 189.68C449.856 188.56 449.272 187.128 449.272 185.384C449.272 183.608 449.864 182.104 451.048 180.872C452.248 179.624 453.696 179 455.392 179C456.944 179 458.208 179.472 459.184 180.416C460.16 181.344 460.64 182.576 460.624 184.112L459.232 185.504ZM454.744 180.992C453.976 181.472 453.488 182.352 453.28 183.632L456.88 183.416C456.784 182.76 456.536 182.2 456.136 181.736C455.752 181.256 455.288 181.008 454.744 180.992ZM474.424 180.68L473.248 181.352L470.368 188.624L469.384 190.928C468.808 191.104 467.992 191.192 466.936 191.192C466.28 191.192 465.784 191.16 465.448 191.096L461.992 181.688L460.456 180.824L460.48 179.504H465.712L467.608 185.576L467.944 187.4H468.28C468.776 184.808 469.192 182.176 469.528 179.504H474.352L474.424 180.68ZM487.336 189.632L484.168 191.408C483.72 191.392 483.272 191.224 482.824 190.904C482.376 190.584 482.008 190.168 481.72 189.656L479.176 191.312L478.36 191.384C477.32 191.384 476.448 191.08 475.744 190.472C475.056 189.864 474.712 189.128 474.712 188.264C474.712 187.064 475.36 186.12 476.656 185.432L481.216 185.336V183.368C481.216 182.136 480.848 181.328 480.112 180.944C479.6 180.976 479.152 181.072 478.768 181.232L478.192 183.872L475.84 183.92C475.536 183.056 475.384 182.144 475.384 181.184L475.432 180.296C476.392 179.928 477.504 179.616 478.768 179.36C480.032 179.088 481.008 178.952 481.696 178.952C483.12 178.952 484.248 179.536 485.08 180.704C485.256 181.008 485.352 181.616 485.368 182.528V188.024C485.368 188.44 485.568 188.648 485.968 188.648L486.616 188.624L487.192 188.576L487.336 189.632ZM478.816 188C478.816 188.416 478.952 188.76 479.224 189.032C479.704 189 480.368 188.848 481.216 188.576V186.8C479.616 186.768 478.816 187.168 478.816 188ZM501.628 189.632L498.436 191.408C497.956 191.392 497.476 191.2 496.996 190.832C496.516 190.464 496.14 189.976 495.868 189.368L493.132 191.408C491.58 191.424 490.3 190.864 489.292 189.728C488.284 188.576 487.78 187.128 487.78 185.384C487.78 183.56 488.372 182.056 489.556 180.872C490.74 179.672 492.276 179.072 494.164 179.072L495.508 179.192V175.712L493.732 175.4L493.612 174.2C494.956 173.72 496.54 173.424 498.364 173.312L499.66 174.512V188C499.66 188.432 499.86 188.648 500.26 188.648L500.884 188.624L501.484 188.576L501.628 189.632ZM492.1 184.952C492.1 185.928 492.308 186.744 492.724 187.4C493.156 188.04 493.74 188.36 494.476 188.36C494.828 188.36 495.172 188.296 495.508 188.168V181.664C494.868 181.376 494.18 181.24 493.444 181.256C492.548 182.12 492.1 183.352 492.1 184.952ZM514.711 189.632L511.543 191.408C511.095 191.392 510.647 191.224 510.199 190.904C509.751 190.584 509.383 190.168 509.095 189.656L506.551 191.312L505.735 191.384C504.695 191.384 503.823 191.08 503.119 190.472C502.431 189.864 502.087 189.128 502.087 188.264C502.087 187.064 502.735 186.12 504.031 185.432L508.591 185.336V183.368C508.591 182.136 508.223 181.328 507.487 180.944C506.975 180.976 506.527 181.072 506.143 181.232L505.567 183.872L503.215 183.92C502.911 183.056 502.759 182.144 502.759 181.184L502.807 180.296C503.767 179.928 504.879 179.616 506.143 179.36C507.407 179.088 508.383 178.952 509.071 178.952C510.495 178.952 511.623 179.536 512.455 180.704C512.631 181.008 512.727 181.616 512.743 182.528V188.024C512.743 188.44 512.943 188.648 513.343 188.648L513.991 188.624L514.567 188.576L514.711 189.632ZM506.191 188C506.191 188.416 506.327 188.76 506.599 189.032C507.079 189 507.743 188.848 508.591 188.576V186.8C506.991 186.768 506.191 187.168 506.191 188ZM519.427 181.856C519.427 182.144 519.531 182.408 519.739 182.648C519.947 182.872 520.691 183.32 521.971 183.992C523.251 184.648 524.115 185.264 524.563 185.84C525.011 186.4 525.235 187.04 525.235 187.76C525.235 188.848 524.787 189.744 523.891 190.448C522.995 191.136 521.803 191.48 520.315 191.48C518.635 191.48 516.963 191.048 515.299 190.184L516.667 187.04C518.059 188.112 519.499 188.912 520.987 189.44C521.275 189.184 521.419 188.888 521.419 188.552C521.419 188.248 521.299 187.976 521.059 187.736C520.835 187.496 520.099 187.064 518.851 186.44C517.619 185.8 516.779 185.208 516.331 184.664C515.899 184.104 515.683 183.472 515.683 182.768C515.683 181.648 516.171 180.744 517.147 180.056C518.139 179.352 519.419 179 520.987 179C522.443 179 523.683 179.264 524.707 179.792L524.755 180.632C524.755 181.464 524.619 182.304 524.347 183.152H522.235L521.491 180.968L520.387 180.848C519.747 181.04 519.427 181.376 519.427 181.856Z" fill="#A8B4BA"/>
<path d="M276 160C282 148.167 294.9 124.5 298.5 124.5C302.1 124.5 314.667 148.167 320.5 160" stroke="#A8B4BA" stroke-width="3" stroke-linecap="round" stroke-linejoin="round"/>
<path d="M341 160C347 148.167 359.9 124.5 363.5 124.5C367.1 124.5 379.667 148.167 385.5 160" stroke="#A8B4BA" stroke-width="3" stroke-linecap="round" stroke-linejoin="round"/>
<path d="M342 114.5C348 102.667 360.9 79 364.5 79C368.1 79 380.667 102.667 386.5 114.5" stroke="#A8B4BA" stroke-width="3" stroke-linecap="round" stroke-linejoin="round"/>
<path d="M309 137C315 125.167 327.9 101.5 331.5 101.5C335.1 101.5 347.667 125.167 353.5 137" stroke="#A8B4BA" stroke-width="3" stroke-linecap="round" stroke-linejoin="round"/>
<path d="M406 160C412 148.167 424.9 124.5 428.5 124.5C432.1 124.5 444.667 148.167 450.5 160" stroke="#A8B4BA" stroke-width="3" stroke-linecap="round" stroke-linejoin="round"/>
<path d="M407 114.5C413 102.667 425.9 79 429.5 79C433.1 79 445.667 102.667 451.5 114.5" stroke="#A8B4BA" stroke-width="3" stroke-linecap="round" stroke-linejoin="round"/>
<path d="M374 137C380 125.167 392.9 101.5 396.5 101.5C400.1 101.5 412.667 125.167 418.5 137" stroke="#A8B4BA" stroke-width="3" stroke-linecap="round" stroke-linejoin="round"/>
<path d="M375 91.5C381 79.6667 393.9 56 397.5 56C401.1 56 413.667 79.6667 419.5 91.5" stroke="#A8B4BA" stroke-width="3" stroke-linecap="round" stroke-linejoin="round"/>
<path d="M471 160C477 148.167 489.9 124.5 493.5 124.5C497.1 124.5 509.667 148.167 515.5 160" stroke="#A8B4BA" stroke-width="3" stroke-linecap="round" stroke-linejoin="round"/>
<path d="M440 137C446 125.167 458.9 101.5 462.5 101.5C466.1 101.5 478.667 125.167 484.5 137" stroke="#A8B4BA" stroke-width="3" stroke-linecap="round"/>
</g>
<defs>
<filter id="filter0_d" x="0" y="0" width="638" height="264" filterUnits="userSpaceOnUse" color-interpolation-filters="sRGB">
<feFlood flood-opacity="0" result="BackgroundImageFix"/>
<feColorMatrix in="SourceAlpha" type="matrix" values="0 0 0 0 0 0 0 0 0 0 0 0 0 0 0 0 0 0 127 0"/>
<feOffset dy="4"/>
<feGaussianBlur stdDeviation="5"/>
<feColorMatrix type="matrix" values="0 0 0 0 1 0 0 0 0 1 0 0 0 0 1 0 0 0 0.25 0"/>
<feBlend mode="normal" in2="BackgroundImageFix" result="effect1_dropShadow"/>
<feBlend mode="normal" in="SourceGraphic" in2="effect1_dropShadow" result="shape"/>
</filter>
</defs>
</svg>
