<svg width="618" height="244" viewBox="0 0 618 244" fill="none" xmlns="http://www.w3.org/2000/svg">
<path d="M73.4321 74.0928C90.9948 73.6175 99.7366 82.2125 101.912 86.5695L163.619 137.07C160.296 177.47 195.461 205.395 213.459 214.307C274.691 226.665 331.533 219.456 352.3 214.307C357.046 224.288 378.802 236.686 389.086 241.637C435.604 251.618 487.184 227.576 507.16 214.307C619.656 159.647 625.234 90.5298 613.96 62.8037C606.366 32.3843 549.089 34.6817 521.4 39.6329C491.496 12.0649 449.211 22.997 431.806 31.909C369.15 20.5017 297.317 32.3052 269.233 39.6329C214.171 58.6452 192.495 47.5547 188.539 39.6329C136.8 -24.5332 49.1054 3.39092 11.7253 25.3737C-26.2482 72.4288 37.0409 77.4594 73.4321 74.0928Z" fill="#F2F2F2"/>
<path d="M256.656 170.864V188H268.776V184.832H260.424V170.864H256.656ZM270.379 179.408C270.427 178.608 270.627 177.944 270.979 177.416C271.331 176.888 271.779 176.464 272.323 176.144C272.867 175.824 273.475 175.6 274.147 175.472C274.835 175.328 275.523 175.256 276.211 175.256C276.835 175.256 277.467 175.304 278.107 175.4C278.747 175.48 279.331 175.648 279.859 175.904C280.387 176.16 280.819 176.52 281.155 176.984C281.491 177.432 281.659 178.032 281.659 178.784V185.24C281.659 185.8 281.691 186.336 281.755 186.848C281.819 187.36 281.931 187.744 282.091 188H278.635C278.571 187.808 278.515 187.616 278.467 187.424C278.435 187.216 278.411 187.008 278.395 186.8C277.851 187.36 277.211 187.752 276.475 187.976C275.739 188.2 274.987 188.312 274.219 188.312C273.627 188.312 273.075 188.24 272.563 188.096C272.051 187.952 271.603 187.728 271.219 187.424C270.835 187.12 270.531 186.736 270.307 186.272C270.099 185.808 269.995 185.256 269.995 184.616C269.995 183.912 270.115 183.336 270.355 182.888C270.611 182.424 270.931 182.056 271.315 181.784C271.715 181.512 272.163 181.312 272.659 181.184C273.171 181.04 273.683 180.928 274.195 180.848C274.707 180.768 275.211 180.704 275.707 180.656C276.203 180.608 276.643 180.536 277.027 180.44C277.411 180.344 277.715 180.208 277.939 180.032C278.163 179.84 278.267 179.568 278.251 179.216C278.251 178.848 278.187 178.56 278.059 178.352C277.947 178.128 277.787 177.96 277.579 177.848C277.387 177.72 277.155 177.64 276.883 177.608C276.627 177.56 276.347 177.536 276.043 177.536C275.371 177.536 274.843 177.68 274.459 177.968C274.075 178.256 273.851 178.736 273.787 179.408H270.379ZM278.251 181.928C278.107 182.056 277.923 182.16 277.699 182.24C277.491 182.304 277.259 182.36 277.003 182.408C276.763 182.456 276.507 182.496 276.235 182.528C275.963 182.56 275.691 182.6 275.419 182.648C275.163 182.696 274.907 182.76 274.651 182.84C274.411 182.92 274.195 183.032 274.003 183.176C273.827 183.304 273.683 183.472 273.571 183.68C273.459 183.888 273.403 184.152 273.403 184.472C273.403 184.776 273.459 185.032 273.571 185.24C273.683 185.448 273.835 185.616 274.027 185.744C274.219 185.856 274.443 185.936 274.699 185.984C274.955 186.032 275.219 186.056 275.491 186.056C276.163 186.056 276.683 185.944 277.051 185.72C277.419 185.496 277.691 185.232 277.867 184.928C278.043 184.608 278.147 184.288 278.179 183.968C278.227 183.648 278.251 183.392 278.251 183.2V181.928ZM286.944 183.968H283.704C283.736 184.8 283.92 185.496 284.256 186.056C284.608 186.6 285.048 187.04 285.576 187.376C286.12 187.712 286.736 187.952 287.424 188.096C288.112 188.24 288.816 188.312 289.536 188.312C290.24 188.312 290.928 188.24 291.6 188.096C292.288 187.968 292.896 187.736 293.424 187.4C293.952 187.064 294.376 186.624 294.696 186.08C295.032 185.52 295.2 184.832 295.2 184.016C295.2 183.44 295.088 182.96 294.864 182.576C294.64 182.176 294.344 181.848 293.976 181.592C293.608 181.32 293.184 181.104 292.704 180.944C292.24 180.784 291.76 180.648 291.264 180.536C290.784 180.424 290.312 180.32 289.848 180.224C289.384 180.128 288.968 180.024 288.6 179.912C288.248 179.784 287.96 179.624 287.736 179.432C287.512 179.24 287.4 178.992 287.4 178.688C287.4 178.432 287.464 178.232 287.592 178.088C287.72 177.928 287.872 177.808 288.048 177.728C288.24 177.648 288.448 177.6 288.672 177.584C288.896 177.552 289.104 177.536 289.296 177.536C289.904 177.536 290.432 177.656 290.88 177.896C291.328 178.12 291.576 178.56 291.624 179.216H294.864C294.8 178.448 294.6 177.816 294.264 177.32C293.944 176.808 293.536 176.4 293.04 176.096C292.544 175.792 291.976 175.576 291.336 175.448C290.712 175.32 290.064 175.256 289.392 175.256C288.72 175.256 288.064 175.32 287.424 175.448C286.784 175.56 286.208 175.768 285.696 176.072C285.184 176.36 284.768 176.76 284.448 177.272C284.144 177.784 283.992 178.44 283.992 179.24C283.992 179.784 284.104 180.248 284.328 180.632C284.552 181 284.848 181.312 285.216 181.568C285.584 181.808 286 182.008 286.464 182.168C286.944 182.312 287.432 182.44 287.928 182.552C289.144 182.808 290.088 183.064 290.76 183.32C291.448 183.576 291.792 183.96 291.792 184.472C291.792 184.776 291.72 185.032 291.576 185.24C291.432 185.432 291.248 185.592 291.024 185.72C290.816 185.832 290.576 185.92 290.304 185.984C290.048 186.032 289.8 186.056 289.56 186.056C289.224 186.056 288.896 186.016 288.576 185.936C288.272 185.856 288 185.736 287.76 185.576C287.52 185.4 287.32 185.184 287.16 184.928C287.016 184.656 286.944 184.336 286.944 183.968ZM303.97 175.592V188H307.378V180.8C307.378 180.192 307.466 179.704 307.642 179.336C307.818 178.952 308.026 178.664 308.266 178.472C308.522 178.264 308.778 178.128 309.034 178.064C309.306 177.984 309.522 177.944 309.682 177.944C310.226 177.944 310.634 178.04 310.906 178.232C311.194 178.408 311.394 178.648 311.506 178.952C311.634 179.256 311.706 179.592 311.722 179.96C311.738 180.312 311.746 180.672 311.746 181.04V188H315.154V181.088C315.154 180.704 315.178 180.328 315.226 179.96C315.29 179.576 315.402 179.24 315.562 178.952C315.738 178.648 315.97 178.408 316.258 178.232C316.562 178.04 316.954 177.944 317.434 177.944C317.914 177.944 318.29 178.024 318.562 178.184C318.85 178.344 319.066 178.56 319.21 178.832C319.354 179.104 319.442 179.424 319.474 179.792C319.506 180.16 319.522 180.552 319.522 180.968V188H322.93V179.696C322.93 178.896 322.818 178.216 322.594 177.656C322.37 177.08 322.058 176.616 321.658 176.264C321.258 175.912 320.778 175.656 320.218 175.496C319.658 175.336 319.05 175.256 318.394 175.256C317.53 175.256 316.778 175.464 316.138 175.88C315.514 176.296 315.018 176.776 314.65 177.32C314.314 176.552 313.818 176.016 313.162 175.712C312.522 175.408 311.81 175.256 311.026 175.256C310.21 175.256 309.482 175.432 308.842 175.784C308.218 176.136 307.682 176.632 307.234 177.272H307.186V175.592H303.97ZM328.648 181.808C328.648 181.312 328.696 180.824 328.792 180.344C328.888 179.864 329.048 179.44 329.272 179.072C329.512 178.704 329.824 178.408 330.208 178.184C330.592 177.944 331.072 177.824 331.648 177.824C332.224 177.824 332.704 177.944 333.088 178.184C333.488 178.408 333.8 178.704 334.024 179.072C334.264 179.44 334.432 179.864 334.528 180.344C334.624 180.824 334.672 181.312 334.672 181.808C334.672 182.304 334.624 182.792 334.528 183.272C334.432 183.736 334.264 184.16 334.024 184.544C333.8 184.912 333.488 185.208 333.088 185.432C332.704 185.656 332.224 185.768 331.648 185.768C331.072 185.768 330.592 185.656 330.208 185.432C329.824 185.208 329.512 184.912 329.272 184.544C329.048 184.16 328.888 183.736 328.792 183.272C328.696 182.792 328.648 182.304 328.648 181.808ZM325.24 181.808C325.24 182.8 325.392 183.696 325.696 184.496C326 185.296 326.432 185.984 326.992 186.56C327.552 187.12 328.224 187.552 329.008 187.856C329.792 188.16 330.672 188.312 331.648 188.312C332.624 188.312 333.504 188.16 334.288 187.856C335.088 187.552 335.768 187.12 336.328 186.56C336.888 185.984 337.32 185.296 337.624 184.496C337.928 183.696 338.08 182.8 338.08 181.808C338.08 180.816 337.928 179.92 337.624 179.12C337.32 178.304 336.888 177.616 336.328 177.056C335.768 176.48 335.088 176.04 334.288 175.736C333.504 175.416 332.624 175.256 331.648 175.256C330.672 175.256 329.792 175.416 329.008 175.736C328.224 176.04 327.552 176.48 326.992 177.056C326.432 177.616 326 178.304 325.696 179.12C325.392 179.92 325.24 180.816 325.24 181.808ZM340.296 175.592V188H343.704V181.496C343.704 180.232 343.912 179.328 344.328 178.784C344.744 178.224 345.416 177.944 346.344 177.944C347.16 177.944 347.728 178.2 348.048 178.712C348.368 179.208 348.528 179.968 348.528 180.992V188H351.936V180.368C351.936 179.6 351.864 178.904 351.72 178.28C351.592 177.64 351.36 177.104 351.024 176.672C350.688 176.224 350.224 175.88 349.632 175.64C349.056 175.384 348.312 175.256 347.4 175.256C346.68 175.256 345.976 175.424 345.288 175.76C344.6 176.08 344.04 176.6 343.608 177.32H343.536V175.592H340.296ZM358.843 175.592V171.872H355.435V175.592H353.371V177.872H355.435V185.192C355.435 185.816 355.539 186.32 355.747 186.704C355.955 187.088 356.235 187.384 356.587 187.592C356.955 187.8 357.371 187.936 357.835 188C358.315 188.08 358.819 188.12 359.347 188.12C359.683 188.12 360.027 188.112 360.379 188.096C360.731 188.08 361.051 188.048 361.339 188V185.36C361.179 185.392 361.011 185.416 360.835 185.432C360.659 185.448 360.475 185.456 360.283 185.456C359.707 185.456 359.323 185.36 359.131 185.168C358.939 184.976 358.843 184.592 358.843 184.016V177.872H361.339V175.592H358.843ZM362.816 179.408C362.864 178.608 363.064 177.944 363.416 177.416C363.768 176.888 364.216 176.464 364.76 176.144C365.304 175.824 365.912 175.6 366.584 175.472C367.272 175.328 367.96 175.256 368.648 175.256C369.272 175.256 369.904 175.304 370.544 175.4C371.184 175.48 371.768 175.648 372.296 175.904C372.824 176.16 373.256 176.52 373.592 176.984C373.928 177.432 374.096 178.032 374.096 178.784V185.24C374.096 185.8 374.128 186.336 374.192 186.848C374.256 187.36 374.368 187.744 374.528 188H371.072C371.008 187.808 370.952 187.616 370.904 187.424C370.872 187.216 370.848 187.008 370.832 186.8C370.288 187.36 369.648 187.752 368.912 187.976C368.176 188.2 367.424 188.312 366.656 188.312C366.064 188.312 365.512 188.24 365 188.096C364.488 187.952 364.04 187.728 363.656 187.424C363.272 187.12 362.968 186.736 362.744 186.272C362.536 185.808 362.432 185.256 362.432 184.616C362.432 183.912 362.552 183.336 362.792 182.888C363.048 182.424 363.368 182.056 363.752 181.784C364.152 181.512 364.6 181.312 365.096 181.184C365.608 181.04 366.12 180.928 366.632 180.848C367.144 180.768 367.648 180.704 368.144 180.656C368.64 180.608 369.08 180.536 369.464 180.44C369.848 180.344 370.152 180.208 370.376 180.032C370.6 179.84 370.704 179.568 370.688 179.216C370.688 178.848 370.624 178.56 370.496 178.352C370.384 178.128 370.224 177.96 370.016 177.848C369.824 177.72 369.592 177.64 369.32 177.608C369.064 177.56 368.784 177.536 368.48 177.536C367.808 177.536 367.28 177.68 366.896 177.968C366.512 178.256 366.288 178.736 366.224 179.408H362.816ZM370.688 181.928C370.544 182.056 370.36 182.16 370.136 182.24C369.928 182.304 369.696 182.36 369.44 182.408C369.2 182.456 368.944 182.496 368.672 182.528C368.4 182.56 368.128 182.6 367.856 182.648C367.6 182.696 367.344 182.76 367.088 182.84C366.848 182.92 366.632 183.032 366.44 183.176C366.264 183.304 366.12 183.472 366.008 183.68C365.896 183.888 365.84 184.152 365.84 184.472C365.84 184.776 365.896 185.032 366.008 185.24C366.12 185.448 366.272 185.616 366.464 185.744C366.656 185.856 366.88 185.936 367.136 185.984C367.392 186.032 367.656 186.056 367.928 186.056C368.6 186.056 369.12 185.944 369.488 185.72C369.856 185.496 370.128 185.232 370.304 184.928C370.48 184.608 370.584 184.288 370.616 183.968C370.664 183.648 370.688 183.392 370.688 183.2V181.928ZM386.965 170.864H385.309C385.325 171.088 385.253 171.288 385.093 171.464C384.933 171.624 384.669 171.704 384.301 171.704C384.029 171.704 383.757 171.664 383.485 171.584C383.229 171.488 382.973 171.384 382.717 171.272C382.461 171.176 382.205 171.088 381.949 171.008C381.709 170.912 381.453 170.864 381.181 170.864C380.653 170.864 380.213 170.952 379.861 171.128C379.509 171.304 379.221 171.536 378.997 171.824C378.773 172.096 378.597 172.408 378.469 172.76C378.341 173.096 378.237 173.44 378.157 173.792H379.621C379.701 173.488 379.805 173.248 379.933 173.072C380.077 172.88 380.309 172.784 380.629 172.784C380.901 172.784 381.173 172.824 381.445 172.904C381.717 172.984 382.005 173.08 382.309 173.192C382.613 173.288 382.925 173.384 383.245 173.48C383.565 173.56 383.909 173.6 384.277 173.6C384.757 173.6 385.149 173.512 385.453 173.336C385.773 173.144 386.029 172.912 386.221 172.64C386.429 172.368 386.581 172.072 386.677 171.752C386.789 171.432 386.885 171.136 386.965 170.864ZM376.741 175.592V188H380.149V181.496C380.149 180.232 380.357 179.328 380.773 178.784C381.189 178.224 381.861 177.944 382.789 177.944C383.605 177.944 384.173 178.2 384.493 178.712C384.813 179.208 384.973 179.968 384.973 180.992V188H388.381V180.368C388.381 179.6 388.309 178.904 388.165 178.28C388.037 177.64 387.805 177.104 387.469 176.672C387.133 176.224 386.669 175.88 386.077 175.64C385.501 175.384 384.757 175.256 383.845 175.256C383.125 175.256 382.421 175.424 381.733 175.76C381.045 176.08 380.485 176.6 380.053 177.32H379.981V175.592H376.741ZM390.824 179.408C390.872 178.608 391.072 177.944 391.424 177.416C391.776 176.888 392.224 176.464 392.768 176.144C393.312 175.824 393.92 175.6 394.592 175.472C395.28 175.328 395.968 175.256 396.656 175.256C397.28 175.256 397.912 175.304 398.552 175.4C399.192 175.48 399.776 175.648 400.304 175.904C400.832 176.16 401.264 176.52 401.6 176.984C401.936 177.432 402.104 178.032 402.104 178.784V185.24C402.104 185.8 402.136 186.336 402.2 186.848C402.264 187.36 402.376 187.744 402.536 188H399.08C399.016 187.808 398.96 187.616 398.912 187.424C398.88 187.216 398.856 187.008 398.84 186.8C398.296 187.36 397.656 187.752 396.92 187.976C396.184 188.2 395.432 188.312 394.664 188.312C394.072 188.312 393.52 188.24 393.008 188.096C392.496 187.952 392.048 187.728 391.664 187.424C391.28 187.12 390.976 186.736 390.752 186.272C390.544 185.808 390.44 185.256 390.44 184.616C390.44 183.912 390.56 183.336 390.8 182.888C391.056 182.424 391.376 182.056 391.76 181.784C392.16 181.512 392.608 181.312 393.104 181.184C393.616 181.04 394.128 180.928 394.64 180.848C395.152 180.768 395.656 180.704 396.152 180.656C396.648 180.608 397.088 180.536 397.472 180.44C397.856 180.344 398.16 180.208 398.384 180.032C398.608 179.84 398.712 179.568 398.696 179.216C398.696 178.848 398.632 178.56 398.504 178.352C398.392 178.128 398.232 177.96 398.024 177.848C397.832 177.72 397.6 177.64 397.328 177.608C397.072 177.56 396.792 177.536 396.488 177.536C395.816 177.536 395.288 177.68 394.904 177.968C394.52 178.256 394.296 178.736 394.232 179.408H390.824ZM398.696 181.928C398.552 182.056 398.368 182.16 398.144 182.24C397.936 182.304 397.704 182.36 397.448 182.408C397.208 182.456 396.952 182.496 396.68 182.528C396.408 182.56 396.136 182.6 395.864 182.648C395.608 182.696 395.352 182.76 395.096 182.84C394.856 182.92 394.64 183.032 394.448 183.176C394.272 183.304 394.128 183.472 394.016 183.68C393.904 183.888 393.848 184.152 393.848 184.472C393.848 184.776 393.904 185.032 394.016 185.24C394.128 185.448 394.28 185.616 394.472 185.744C394.664 185.856 394.888 185.936 395.144 185.984C395.4 186.032 395.664 186.056 395.936 186.056C396.608 186.056 397.128 185.944 397.496 185.72C397.864 185.496 398.136 185.232 398.312 184.928C398.488 184.608 398.592 184.288 398.624 183.968C398.672 183.648 398.696 183.392 398.696 183.2V181.928ZM407.389 183.968H404.149C404.181 184.8 404.365 185.496 404.701 186.056C405.053 186.6 405.493 187.04 406.021 187.376C406.565 187.712 407.181 187.952 407.869 188.096C408.557 188.24 409.261 188.312 409.981 188.312C410.685 188.312 411.373 188.24 412.045 188.096C412.733 187.968 413.341 187.736 413.869 187.4C414.397 187.064 414.821 186.624 415.141 186.08C415.477 185.52 415.645 184.832 415.645 184.016C415.645 183.44 415.533 182.96 415.309 182.576C415.085 182.176 414.789 181.848 414.421 181.592C414.053 181.32 413.629 181.104 413.149 180.944C412.685 180.784 412.205 180.648 411.709 180.536C411.229 180.424 410.757 180.32 410.293 180.224C409.829 180.128 409.413 180.024 409.045 179.912C408.693 179.784 408.405 179.624 408.181 179.432C407.957 179.24 407.845 178.992 407.845 178.688C407.845 178.432 407.909 178.232 408.037 178.088C408.165 177.928 408.317 177.808 408.493 177.728C408.685 177.648 408.893 177.6 409.117 177.584C409.341 177.552 409.549 177.536 409.741 177.536C410.349 177.536 410.877 177.656 411.325 177.896C411.773 178.12 412.021 178.56 412.069 179.216H415.309C415.245 178.448 415.045 177.816 414.709 177.32C414.389 176.808 413.981 176.4 413.485 176.096C412.989 175.792 412.421 175.576 411.781 175.448C411.157 175.32 410.509 175.256 409.837 175.256C409.165 175.256 408.509 175.32 407.869 175.448C407.229 175.56 406.653 175.768 406.141 176.072C405.629 176.36 405.213 176.76 404.893 177.272C404.589 177.784 404.437 178.44 404.437 179.24C404.437 179.784 404.549 180.248 404.773 180.632C404.997 181 405.293 181.312 405.661 181.568C406.029 181.808 406.445 182.008 406.909 182.168C407.389 182.312 407.877 182.44 408.373 182.552C409.589 182.808 410.533 183.064 411.205 183.32C411.893 183.576 412.237 183.96 412.237 184.472C412.237 184.776 412.165 185.032 412.021 185.24C411.877 185.432 411.693 185.592 411.469 185.72C411.261 185.832 411.021 185.92 410.749 185.984C410.493 186.032 410.245 186.056 410.005 186.056C409.669 186.056 409.341 186.016 409.021 185.936C408.717 185.856 408.445 185.736 408.205 185.576C407.965 185.4 407.765 185.184 407.605 184.928C407.461 184.656 407.389 184.336 407.389 183.968ZM424.319 175.592V188H427.727V181.496C427.727 180.232 427.935 179.328 428.351 178.784C428.767 178.224 429.439 177.944 430.367 177.944C431.183 177.944 431.751 178.2 432.071 178.712C432.391 179.208 432.551 179.968 432.551 180.992V188H435.959V180.368C435.959 179.6 435.887 178.904 435.743 178.28C435.615 177.64 435.383 177.104 435.047 176.672C434.711 176.224 434.247 175.88 433.655 175.64C433.079 175.384 432.335 175.256 431.423 175.256C430.703 175.256 429.999 175.424 429.311 175.76C428.623 176.08 428.063 176.6 427.631 177.32H427.559V175.592H424.319ZM446.898 180.464H441.354C441.37 180.224 441.418 179.952 441.498 179.648C441.594 179.344 441.746 179.056 441.954 178.784C442.178 178.512 442.466 178.288 442.818 178.112C443.186 177.92 443.642 177.824 444.186 177.824C445.018 177.824 445.634 178.048 446.034 178.496C446.45 178.944 446.738 179.6 446.898 180.464ZM441.354 182.624H450.306C450.37 181.664 450.29 180.744 450.066 179.864C449.842 178.984 449.474 178.2 448.962 177.512C448.466 176.824 447.826 176.28 447.042 175.88C446.258 175.464 445.338 175.256 444.282 175.256C443.338 175.256 442.474 175.424 441.69 175.76C440.922 176.096 440.258 176.56 439.698 177.152C439.138 177.728 438.706 178.416 438.402 179.216C438.098 180.016 437.946 180.88 437.946 181.808C437.946 182.768 438.09 183.648 438.378 184.448C438.682 185.248 439.106 185.936 439.65 186.512C440.194 187.088 440.858 187.536 441.642 187.856C442.426 188.16 443.306 188.312 444.282 188.312C445.69 188.312 446.89 187.992 447.882 187.352C448.874 186.712 449.61 185.648 450.09 184.16H447.09C446.978 184.544 446.674 184.912 446.178 185.264C445.682 185.6 445.09 185.768 444.402 185.768C443.442 185.768 442.706 185.52 442.194 185.024C441.682 184.528 441.402 183.728 441.354 182.624ZM459.191 188L463.391 175.592H460.007L457.391 184.064H457.343L454.727 175.592H451.151L455.399 188H459.191ZM464.652 179.408C464.7 178.608 464.9 177.944 465.252 177.416C465.604 176.888 466.052 176.464 466.596 176.144C467.14 175.824 467.748 175.6 468.42 175.472C469.108 175.328 469.796 175.256 470.484 175.256C471.108 175.256 471.74 175.304 472.38 175.4C473.02 175.48 473.604 175.648 474.132 175.904C474.66 176.16 475.092 176.52 475.428 176.984C475.764 177.432 475.932 178.032 475.932 178.784V185.24C475.932 185.8 475.964 186.336 476.028 186.848C476.092 187.36 476.204 187.744 476.364 188H472.908C472.844 187.808 472.788 187.616 472.74 187.424C472.708 187.216 472.684 187.008 472.668 186.8C472.124 187.36 471.484 187.752 470.748 187.976C470.012 188.2 469.26 188.312 468.492 188.312C467.9 188.312 467.348 188.24 466.836 188.096C466.324 187.952 465.876 187.728 465.492 187.424C465.108 187.12 464.804 186.736 464.58 186.272C464.372 185.808 464.268 185.256 464.268 184.616C464.268 183.912 464.388 183.336 464.628 182.888C464.884 182.424 465.204 182.056 465.588 181.784C465.988 181.512 466.436 181.312 466.932 181.184C467.444 181.04 467.956 180.928 468.468 180.848C468.98 180.768 469.484 180.704 469.98 180.656C470.476 180.608 470.916 180.536 471.3 180.44C471.684 180.344 471.988 180.208 472.212 180.032C472.436 179.84 472.54 179.568 472.524 179.216C472.524 178.848 472.46 178.56 472.332 178.352C472.22 178.128 472.06 177.96 471.852 177.848C471.66 177.72 471.428 177.64 471.156 177.608C470.9 177.56 470.62 177.536 470.316 177.536C469.644 177.536 469.116 177.68 468.732 177.968C468.348 178.256 468.124 178.736 468.06 179.408H464.652ZM472.524 181.928C472.38 182.056 472.196 182.16 471.972 182.24C471.764 182.304 471.532 182.36 471.276 182.408C471.036 182.456 470.78 182.496 470.508 182.528C470.236 182.56 469.964 182.6 469.692 182.648C469.436 182.696 469.18 182.76 468.924 182.84C468.684 182.92 468.468 183.032 468.276 183.176C468.1 183.304 467.956 183.472 467.844 183.68C467.732 183.888 467.676 184.152 467.676 184.472C467.676 184.776 467.732 185.032 467.844 185.24C467.956 185.448 468.108 185.616 468.3 185.744C468.492 185.856 468.716 185.936 468.972 185.984C469.228 186.032 469.492 186.056 469.764 186.056C470.436 186.056 470.956 185.944 471.324 185.72C471.692 185.496 471.964 185.232 472.14 184.928C472.316 184.608 472.42 184.288 472.452 183.968C472.5 183.648 472.524 183.392 472.524 183.2V181.928ZM487.385 181.76C487.385 182.272 487.337 182.768 487.241 183.248C487.145 183.728 486.985 184.16 486.761 184.544C486.537 184.912 486.233 185.208 485.849 185.432C485.481 185.656 485.017 185.768 484.457 185.768C483.929 185.768 483.473 185.656 483.089 185.432C482.721 185.192 482.409 184.888 482.153 184.52C481.913 184.136 481.737 183.704 481.625 183.224C481.513 182.744 481.457 182.264 481.457 181.784C481.457 181.272 481.505 180.784 481.601 180.32C481.713 179.84 481.881 179.416 482.105 179.048C482.345 178.68 482.657 178.384 483.041 178.16C483.425 177.936 483.897 177.824 484.457 177.824C485.017 177.824 485.481 177.936 485.849 178.16C486.217 178.384 486.513 178.68 486.737 179.048C486.977 179.4 487.145 179.816 487.241 180.296C487.337 180.76 487.385 181.248 487.385 181.76ZM487.433 186.416V188H490.673V170.864H487.265V177.104H487.217C486.833 176.496 486.305 176.04 485.633 175.736C484.977 175.416 484.281 175.256 483.545 175.256C482.633 175.256 481.833 175.44 481.145 175.808C480.457 176.16 479.881 176.632 479.417 177.224C478.969 177.816 478.625 178.504 478.385 179.288C478.161 180.056 478.049 180.856 478.049 181.688C478.049 182.552 478.161 183.384 478.385 184.184C478.625 184.984 478.969 185.696 479.417 186.32C479.881 186.928 480.465 187.416 481.169 187.784C481.873 188.136 482.689 188.312 483.617 188.312C484.433 188.312 485.161 188.168 485.801 187.88C486.457 187.576 486.985 187.088 487.385 186.416H487.433ZM493.105 179.408C493.153 178.608 493.353 177.944 493.705 177.416C494.057 176.888 494.505 176.464 495.049 176.144C495.593 175.824 496.201 175.6 496.873 175.472C497.561 175.328 498.249 175.256 498.937 175.256C499.561 175.256 500.193 175.304 500.833 175.4C501.473 175.48 502.057 175.648 502.585 175.904C503.113 176.16 503.545 176.52 503.881 176.984C504.217 177.432 504.385 178.032 504.385 178.784V185.24C504.385 185.8 504.417 186.336 504.481 186.848C504.545 187.36 504.657 187.744 504.817 188H501.361C501.297 187.808 501.241 187.616 501.193 187.424C501.161 187.216 501.137 187.008 501.121 186.8C500.577 187.36 499.937 187.752 499.201 187.976C498.465 188.2 497.713 188.312 496.945 188.312C496.353 188.312 495.801 188.24 495.289 188.096C494.777 187.952 494.329 187.728 493.945 187.424C493.561 187.12 493.257 186.736 493.033 186.272C492.825 185.808 492.721 185.256 492.721 184.616C492.721 183.912 492.841 183.336 493.081 182.888C493.337 182.424 493.657 182.056 494.041 181.784C494.441 181.512 494.889 181.312 495.385 181.184C495.897 181.04 496.409 180.928 496.921 180.848C497.433 180.768 497.937 180.704 498.433 180.656C498.929 180.608 499.369 180.536 499.753 180.44C500.137 180.344 500.441 180.208 500.665 180.032C500.889 179.84 500.993 179.568 500.977 179.216C500.977 178.848 500.913 178.56 500.785 178.352C500.673 178.128 500.513 177.96 500.305 177.848C500.113 177.72 499.881 177.64 499.609 177.608C499.353 177.56 499.073 177.536 498.769 177.536C498.097 177.536 497.569 177.68 497.185 177.968C496.801 178.256 496.577 178.736 496.513 179.408H493.105ZM500.977 181.928C500.833 182.056 500.649 182.16 500.425 182.24C500.217 182.304 499.985 182.36 499.729 182.408C499.489 182.456 499.233 182.496 498.961 182.528C498.689 182.56 498.417 182.6 498.145 182.648C497.889 182.696 497.633 182.76 497.377 182.84C497.137 182.92 496.921 183.032 496.729 183.176C496.553 183.304 496.409 183.472 496.297 183.68C496.185 183.888 496.129 184.152 496.129 184.472C496.129 184.776 496.185 185.032 496.297 185.24C496.409 185.448 496.561 185.616 496.753 185.744C496.945 185.856 497.169 185.936 497.425 185.984C497.681 186.032 497.945 186.056 498.217 186.056C498.889 186.056 499.409 185.944 499.777 185.72C500.145 185.496 500.417 185.232 500.593 184.928C500.769 184.608 500.873 184.288 500.905 183.968C500.953 183.648 500.977 183.392 500.977 183.2V181.928ZM509.67 183.968H506.43C506.462 184.8 506.646 185.496 506.982 186.056C507.334 186.6 507.774 187.04 508.302 187.376C508.846 187.712 509.462 187.952 510.15 188.096C510.838 188.24 511.542 188.312 512.262 188.312C512.966 188.312 513.654 188.24 514.326 188.096C515.014 187.968 515.622 187.736 516.15 187.4C516.678 187.064 517.102 186.624 517.422 186.08C517.758 185.52 517.926 184.832 517.926 184.016C517.926 183.44 517.814 182.96 517.59 182.576C517.366 182.176 517.07 181.848 516.702 181.592C516.334 181.32 515.91 181.104 515.43 180.944C514.966 180.784 514.486 180.648 513.99 180.536C513.51 180.424 513.038 180.32 512.574 180.224C512.11 180.128 511.694 180.024 511.326 179.912C510.974 179.784 510.686 179.624 510.462 179.432C510.238 179.24 510.126 178.992 510.126 178.688C510.126 178.432 510.19 178.232 510.318 178.088C510.446 177.928 510.598 177.808 510.774 177.728C510.966 177.648 511.174 177.6 511.398 177.584C511.622 177.552 511.83 177.536 512.022 177.536C512.63 177.536 513.158 177.656 513.606 177.896C514.054 178.12 514.302 178.56 514.35 179.216H517.59C517.526 178.448 517.326 177.816 516.99 177.32C516.67 176.808 516.262 176.4 515.766 176.096C515.27 175.792 514.702 175.576 514.062 175.448C513.438 175.32 512.79 175.256 512.118 175.256C511.446 175.256 510.79 175.32 510.15 175.448C509.51 175.56 508.934 175.768 508.422 176.072C507.91 176.36 507.494 176.76 507.174 177.272C506.87 177.784 506.718 178.44 506.718 179.24C506.718 179.784 506.83 180.248 507.054 180.632C507.278 181 507.574 181.312 507.942 181.568C508.31 181.808 508.726 182.008 509.19 182.168C509.67 182.312 510.158 182.44 510.654 182.552C511.87 182.808 512.814 183.064 513.486 183.32C514.174 183.576 514.518 183.96 514.518 184.472C514.518 184.776 514.446 185.032 514.302 185.24C514.158 185.432 513.974 185.592 513.75 185.72C513.542 185.832 513.302 185.92 513.03 185.984C512.774 186.032 512.526 186.056 512.286 186.056C511.95 186.056 511.622 186.016 511.302 185.936C510.998 185.856 510.726 185.736 510.486 185.576C510.246 185.4 510.046 185.184 509.886 184.928C509.742 184.656 509.67 184.336 509.67 183.968Z" fill="#191960"/>
<path d="M266 154C272 142.167 284.9 118.5 288.5 118.5C292.1 118.5 304.667 142.167 310.5 154" stroke="#C0CCD3" stroke-width="4" stroke-linecap="round" stroke-linejoin="round"/>
<path d="M331 154C337 142.167 349.9 118.5 353.5 118.5C357.1 118.5 369.667 142.167 375.5 154" stroke="#C0CCD3" stroke-width="4" stroke-linecap="round" stroke-linejoin="round"/>
<path d="M332 108.5C338 96.6667 350.9 73 354.5 73C358.1 73 370.667 96.6667 376.5 108.5" stroke="#C0CCD3" stroke-width="4" stroke-linecap="round" stroke-linejoin="round"/>
<path d="M299 131C305 119.167 317.9 95.5 321.5 95.5C325.1 95.5 337.667 119.167 343.5 131" stroke="#C0CCD3" stroke-width="4" stroke-linecap="round" stroke-linejoin="round"/>
<path d="M396 154C402 142.167 414.9 118.5 418.5 118.5C422.1 118.5 434.667 142.167 440.5 154" stroke="#C0CCD3" stroke-width="4" stroke-linecap="round" stroke-linejoin="round"/>
<path d="M397 108.5C403 96.6667 415.9 73 419.5 73C423.1 73 435.667 96.6667 441.5 108.5" stroke="#C0CCD3" stroke-width="4" stroke-linecap="round" stroke-linejoin="round"/>
<path d="M364 131C370 119.167 382.9 95.5 386.5 95.5C390.1 95.5 402.667 119.167 408.5 131" stroke="#C0CCD3" stroke-width="4" stroke-linecap="round" stroke-linejoin="round"/>
<path d="M365 85.5C371 73.6667 383.9 50 387.5 50C391.1 50 403.667 73.6667 409.5 85.5" stroke="#C0CCD3" stroke-width="4" stroke-linecap="round" stroke-linejoin="round"/>
<path d="M461 154C467 142.167 479.9 118.5 483.5 118.5C487.1 118.5 499.667 142.167 505.5 154" stroke="#C0CCD3" stroke-width="4" stroke-linecap="round" stroke-linejoin="round"/>
<path d="M430 131C436 119.167 448.9 95.5 452.5 95.5C456.1 95.5 468.667 119.167 474.5 131" stroke="#C0CCD3" stroke-width="4" stroke-linecap="round"/>
</svg>
