<svg width="365" height="195" viewBox="0 0 365 195" fill="none" xmlns="http://www.w3.org/2000/svg">
<path d="M55.5 13.3891L0 2.88913V195.389H353.5C369.5 159.389 364.167 138.389 359.5 132.389C349.9 103.189 285.167 127.555 254 143.389C226 152.189 214.667 147.055 212.5 143.389C208.1 136.589 214.333 114.889 218 104.889C210.8 67.2887 167.667 63.8887 147 66.8887C147 26.8887 126.667 7.55565 116.5 2.88913C96.5 -5.51087 67.5 6.38913 55.5 13.3891Z" fill="#6CB294"/>
<path d="M54.6016 106.785H45.4609V110.453H53.8516V113.453H45.4609V117.895H55.0234V121H41.9336V103.727H54.6016V106.785ZM60.9766 121H57.6367V103.727H60.9766V121ZM77.8281 107.945C79.5078 107.945 80.8203 108.551 81.7656 109.762C82.7188 110.973 83.1953 112.535 83.1953 114.449C83.1953 116.434 82.7266 118.078 81.7891 119.383C80.8516 120.688 79.543 121.34 77.8633 121.34C76.8086 121.34 75.9609 121.129 75.3203 120.707C74.9375 120.457 74.5234 120.02 74.0781 119.395V121H70.8086V103.75H74.1367V109.891C74.5586 109.297 75.0234 108.844 75.5312 108.531C76.1328 108.141 76.8984 107.945 77.8281 107.945ZM76.9727 118.586C77.832 118.586 78.5 118.238 78.9766 117.543C79.4531 116.848 79.6914 115.934 79.6914 114.801C79.6914 113.895 79.5742 113.145 79.3398 112.551C78.8945 111.426 78.0742 110.863 76.8789 110.863C75.668 110.863 74.8359 111.414 74.3828 112.516C74.1484 113.102 74.0312 113.859 74.0312 114.789C74.0312 115.883 74.2734 116.789 74.7578 117.508C75.2422 118.227 75.9805 118.586 76.9727 118.586ZM91.3281 118.645C92.3047 118.645 93.0547 118.297 93.5781 117.602C94.1016 116.906 94.3633 115.918 94.3633 114.637C94.3633 113.355 94.1016 112.371 93.5781 111.684C93.0547 110.988 92.3047 110.641 91.3281 110.641C90.3516 110.641 89.5977 110.988 89.0664 111.684C88.543 112.371 88.2812 113.355 88.2812 114.637C88.2812 115.918 88.543 116.906 89.0664 117.602C89.5977 118.297 90.3516 118.645 91.3281 118.645ZM97.8672 114.637C97.8672 116.512 97.3281 118.117 96.25 119.453C95.1719 120.781 93.5352 121.445 91.3398 121.445C89.1445 121.445 87.5078 120.781 86.4297 119.453C85.3516 118.117 84.8125 116.512 84.8125 114.637C84.8125 112.793 85.3516 111.195 86.4297 109.844C87.5078 108.492 89.1445 107.816 91.3398 107.816C93.5352 107.816 95.1719 108.492 96.25 109.844C97.3281 111.195 97.8672 112.793 97.8672 114.637ZM102.871 116.922C102.941 117.516 103.094 117.938 103.328 118.188C103.742 118.633 104.508 118.855 105.625 118.855C106.281 118.855 106.801 118.758 107.184 118.562C107.574 118.367 107.77 118.074 107.77 117.684C107.77 117.309 107.613 117.023 107.301 116.828C106.988 116.633 105.828 116.297 103.82 115.82C102.375 115.461 101.355 115.012 100.762 114.473C100.168 113.941 99.8711 113.176 99.8711 112.176C99.8711 110.996 100.332 109.984 101.254 109.141C102.184 108.289 103.488 107.863 105.168 107.863C106.762 107.863 108.059 108.184 109.059 108.824C110.066 109.457 110.645 110.555 110.793 112.117H107.453C107.406 111.688 107.285 111.348 107.09 111.098C106.723 110.645 106.098 110.418 105.215 110.418C104.488 110.418 103.969 110.531 103.656 110.758C103.352 110.984 103.199 111.25 103.199 111.555C103.199 111.938 103.363 112.215 103.691 112.387C104.02 112.566 105.18 112.875 107.172 113.312C108.5 113.625 109.496 114.098 110.16 114.73C110.816 115.371 111.145 116.172 111.145 117.133C111.145 118.398 110.672 119.434 109.727 120.238C108.789 121.035 107.336 121.434 105.367 121.434C103.359 121.434 101.875 121.012 100.914 120.168C99.9609 119.316 99.4844 118.234 99.4844 116.922H102.871ZM119.043 118.539C120.191 118.539 121.008 118.047 121.492 117.062C121.805 116.414 121.961 115.594 121.961 114.602C121.961 113.82 121.828 113.121 121.562 112.504C121.086 111.395 120.25 110.84 119.055 110.84C118.211 110.84 117.531 111.164 117.016 111.812C116.508 112.461 116.254 113.445 116.254 114.766C116.254 115.648 116.371 116.371 116.605 116.934C117.043 118.004 117.855 118.539 119.043 118.539ZM118.199 107.898C119.262 107.898 120.121 108.16 120.777 108.684C121.16 108.98 121.551 109.469 121.949 110.148V108.25H125.172V126.062H121.867V119.418C121.617 119.934 121.188 120.395 120.578 120.801C119.977 121.199 119.152 121.398 118.105 121.398C116.629 121.398 115.371 120.809 114.332 119.629C113.293 118.449 112.773 116.875 112.773 114.906C112.773 112.781 113.293 111.082 114.332 109.809C115.379 108.535 116.668 107.898 118.199 107.898ZM131.629 108.227V115.926C131.629 116.652 131.715 117.199 131.887 117.566C132.191 118.215 132.789 118.539 133.68 118.539C134.82 118.539 135.602 118.078 136.023 117.156C136.242 116.656 136.352 115.996 136.352 115.176V108.227H139.738V121H136.492V119.195C136.461 119.234 136.383 119.352 136.258 119.547C136.133 119.742 135.984 119.914 135.812 120.062C135.289 120.531 134.781 120.852 134.289 121.023C133.805 121.195 133.234 121.281 132.578 121.281C130.688 121.281 129.414 120.602 128.758 119.242C128.391 118.492 128.207 117.387 128.207 115.926V108.227H131.629ZM148.012 110.641C147.238 110.641 146.637 110.883 146.207 111.367C145.785 111.852 145.52 112.508 145.41 113.336H150.602C150.547 112.453 150.277 111.785 149.793 111.332C149.316 110.871 148.723 110.641 148.012 110.641ZM148.012 107.887C149.074 107.887 150.031 108.086 150.883 108.484C151.734 108.883 152.438 109.512 152.992 110.371C153.492 111.129 153.816 112.008 153.965 113.008C154.051 113.594 154.086 114.438 154.07 115.539H145.328C145.375 116.82 145.777 117.719 146.535 118.234C146.996 118.555 147.551 118.715 148.199 118.715C148.887 118.715 149.445 118.52 149.875 118.129C150.109 117.918 150.316 117.625 150.496 117.25H153.906C153.82 118.008 153.426 118.777 152.723 119.559C151.629 120.801 150.098 121.422 148.129 121.422C146.504 121.422 145.07 120.898 143.828 119.852C142.586 118.805 141.965 117.102 141.965 114.742C141.965 112.531 142.523 110.836 143.641 109.656C144.766 108.477 146.223 107.887 148.012 107.887ZM46.2695 135.922C47.043 135.922 47.7305 136.094 48.332 136.438C48.9336 136.773 49.4219 137.242 49.7969 137.844V131.75H53.1836V149H49.9375V147.23C49.4609 147.988 48.918 148.539 48.3086 148.883C47.6992 149.227 46.9414 149.398 46.0352 149.398C44.543 149.398 43.2852 148.797 42.2617 147.594C41.2461 146.383 40.7383 144.832 40.7383 142.941C40.7383 140.762 41.2383 139.047 42.2383 137.797C43.2461 136.547 44.5898 135.922 46.2695 135.922ZM46.9961 146.586C47.9414 146.586 48.6602 146.234 49.1523 145.531C49.6445 144.828 49.8906 143.918 49.8906 142.801C49.8906 141.238 49.4961 140.121 48.707 139.449C48.2227 139.043 47.6602 138.84 47.0195 138.84C46.043 138.84 45.3242 139.211 44.8633 139.953C44.4102 140.688 44.1836 141.602 44.1836 142.695C44.1836 143.875 44.4141 144.82 44.875 145.531C45.3438 146.234 46.0508 146.586 46.9961 146.586ZM61.2695 138.641C60.4961 138.641 59.8945 138.883 59.4648 139.367C59.043 139.852 58.7773 140.508 58.668 141.336H63.8594C63.8047 140.453 63.5352 139.785 63.0508 139.332C62.5742 138.871 61.9805 138.641 61.2695 138.641ZM61.2695 135.887C62.332 135.887 63.2891 136.086 64.1406 136.484C64.9922 136.883 65.6953 137.512 66.25 138.371C66.75 139.129 67.0742 140.008 67.2227 141.008C67.3086 141.594 67.3438 142.438 67.3281 143.539H58.5859C58.6328 144.82 59.0352 145.719 59.793 146.234C60.2539 146.555 60.8086 146.715 61.457 146.715C62.1445 146.715 62.7031 146.52 63.1328 146.129C63.3672 145.918 63.5742 145.625 63.7539 145.25H67.1641C67.0781 146.008 66.6836 146.777 65.9805 147.559C64.8867 148.801 63.3555 149.422 61.3867 149.422C59.7617 149.422 58.3281 148.898 57.0859 147.852C55.8438 146.805 55.2227 145.102 55.2227 142.742C55.2227 140.531 55.7812 138.836 56.8984 137.656C58.0234 136.477 59.4805 135.887 61.2695 135.887ZM73 149H69.6602V131.727H73V149ZM85.832 143.668C85.9414 144.457 86.1562 145.047 86.4766 145.438C87.0625 146.148 88.0664 146.504 89.4883 146.504C90.3398 146.504 91.0312 146.41 91.5625 146.223C92.5703 145.863 93.0742 145.195 93.0742 144.219C93.0742 143.648 92.8242 143.207 92.3242 142.895C91.8242 142.59 91.0391 142.32 89.9688 142.086L88.1406 141.676C86.3438 141.27 85.1016 140.828 84.4141 140.352C83.25 139.555 82.668 138.309 82.668 136.613C82.668 135.066 83.2305 133.781 84.3555 132.758C85.4805 131.734 87.1328 131.223 89.3125 131.223C91.1328 131.223 92.6836 131.707 93.9648 132.676C95.2539 133.637 95.9297 135.035 95.9922 136.871H92.5234C92.4609 135.832 92.0078 135.094 91.1641 134.656C90.6016 134.367 89.9023 134.223 89.0664 134.223C88.1367 134.223 87.3945 134.41 86.8398 134.785C86.2852 135.16 86.0078 135.684 86.0078 136.355C86.0078 136.973 86.2812 137.434 86.8281 137.738C87.1797 137.941 87.9297 138.18 89.0781 138.453L92.0547 139.168C93.3594 139.48 94.3438 139.898 95.0078 140.422C96.0391 141.234 96.5547 142.41 96.5547 143.949C96.5547 145.527 95.9492 146.84 94.7383 147.887C93.5352 148.926 91.832 149.445 89.6289 149.445C87.3789 149.445 85.6094 148.934 84.3203 147.91C83.0312 146.879 82.3867 145.465 82.3867 143.668H85.832ZM102.285 136.227V143.926C102.285 144.652 102.371 145.199 102.543 145.566C102.848 146.215 103.445 146.539 104.336 146.539C105.477 146.539 106.258 146.078 106.68 145.156C106.898 144.656 107.008 143.996 107.008 143.176V136.227H110.395V149H107.148V147.195C107.117 147.234 107.039 147.352 106.914 147.547C106.789 147.742 106.641 147.914 106.469 148.062C105.945 148.531 105.438 148.852 104.945 149.023C104.461 149.195 103.891 149.281 103.234 149.281C101.344 149.281 100.07 148.602 99.4141 147.242C99.0469 146.492 98.8633 145.387 98.8633 143.926V136.227H102.285ZM120.566 135.922C120.629 135.922 120.68 135.926 120.719 135.934C120.766 135.934 120.863 135.938 121.012 135.945V139.367C120.801 139.344 120.613 139.328 120.449 139.32C120.285 139.312 120.152 139.309 120.051 139.309C118.707 139.309 117.805 139.746 117.344 140.621C117.086 141.113 116.957 141.871 116.957 142.895V149H113.594V136.227H116.781V138.453C117.297 137.602 117.746 137.02 118.129 136.707C118.754 136.184 119.566 135.922 120.566 135.922Z" fill="#191960"/>
</svg>
