<svg width="316" height="221" viewBox="0 0 316 221" fill="none" xmlns="http://www.w3.org/2000/svg">
<path d="M54.5016 48.5894C48.5016 88.1893 19.6683 115.756 6.00163 124.589C-20.3984 162.989 46.6683 166.923 83.5016 164.09C94.3016 159.29 122.668 189.423 135.502 205.09C187.102 245.49 226.668 198.59 240.002 170.09C248.402 151.69 267.168 152.09 275.502 154.59C303.902 159.79 311.335 136.756 311.502 124.589C330.702 58.1889 277.502 64.9228 248.502 76.5898C218.102 98.9902 205.502 92.2567 203.002 86.0898C205.002 70.4898 195.502 54.5895 190.502 48.5894C109.302 -39.4106 66.0016 11.9227 54.5016 48.5894Z" fill="#6CB294"/>
<path d="M128.602 109.785H119.461V113.453H127.852V116.453H119.461V120.895H129.023V124H115.934V106.727H128.602V109.785ZM134.977 124H131.637V106.727H134.977V124ZM151.828 110.945C153.508 110.945 154.82 111.551 155.766 112.762C156.719 113.973 157.195 115.535 157.195 117.449C157.195 119.434 156.727 121.078 155.789 122.383C154.852 123.688 153.543 124.34 151.863 124.34C150.809 124.34 149.961 124.129 149.32 123.707C148.938 123.457 148.523 123.02 148.078 122.395V124H144.809V106.75H148.137V112.891C148.559 112.297 149.023 111.844 149.531 111.531C150.133 111.141 150.898 110.945 151.828 110.945ZM150.973 121.586C151.832 121.586 152.5 121.238 152.977 120.543C153.453 119.848 153.691 118.934 153.691 117.801C153.691 116.895 153.574 116.145 153.34 115.551C152.895 114.426 152.074 113.863 150.879 113.863C149.668 113.863 148.836 114.414 148.383 115.516C148.148 116.102 148.031 116.859 148.031 117.789C148.031 118.883 148.273 119.789 148.758 120.508C149.242 121.227 149.98 121.586 150.973 121.586ZM165.328 121.645C166.305 121.645 167.055 121.297 167.578 120.602C168.102 119.906 168.363 118.918 168.363 117.637C168.363 116.355 168.102 115.371 167.578 114.684C167.055 113.988 166.305 113.641 165.328 113.641C164.352 113.641 163.598 113.988 163.066 114.684C162.543 115.371 162.281 116.355 162.281 117.637C162.281 118.918 162.543 119.906 163.066 120.602C163.598 121.297 164.352 121.645 165.328 121.645ZM171.867 117.637C171.867 119.512 171.328 121.117 170.25 122.453C169.172 123.781 167.535 124.445 165.34 124.445C163.145 124.445 161.508 123.781 160.43 122.453C159.352 121.117 158.812 119.512 158.812 117.637C158.812 115.793 159.352 114.195 160.43 112.844C161.508 111.492 163.145 110.816 165.34 110.816C167.535 110.816 169.172 111.492 170.25 112.844C171.328 114.195 171.867 115.793 171.867 117.637ZM176.871 119.922C176.941 120.516 177.094 120.938 177.328 121.188C177.742 121.633 178.508 121.855 179.625 121.855C180.281 121.855 180.801 121.758 181.184 121.562C181.574 121.367 181.77 121.074 181.77 120.684C181.77 120.309 181.613 120.023 181.301 119.828C180.988 119.633 179.828 119.297 177.82 118.82C176.375 118.461 175.355 118.012 174.762 117.473C174.168 116.941 173.871 116.176 173.871 115.176C173.871 113.996 174.332 112.984 175.254 112.141C176.184 111.289 177.488 110.863 179.168 110.863C180.762 110.863 182.059 111.184 183.059 111.824C184.066 112.457 184.645 113.555 184.793 115.117H181.453C181.406 114.688 181.285 114.348 181.09 114.098C180.723 113.645 180.098 113.418 179.215 113.418C178.488 113.418 177.969 113.531 177.656 113.758C177.352 113.984 177.199 114.25 177.199 114.555C177.199 114.938 177.363 115.215 177.691 115.387C178.02 115.566 179.18 115.875 181.172 116.312C182.5 116.625 183.496 117.098 184.16 117.73C184.816 118.371 185.145 119.172 185.145 120.133C185.145 121.398 184.672 122.434 183.727 123.238C182.789 124.035 181.336 124.434 179.367 124.434C177.359 124.434 175.875 124.012 174.914 123.168C173.961 122.316 173.484 121.234 173.484 119.922H176.871ZM193.043 121.539C194.191 121.539 195.008 121.047 195.492 120.062C195.805 119.414 195.961 118.594 195.961 117.602C195.961 116.82 195.828 116.121 195.562 115.504C195.086 114.395 194.25 113.84 193.055 113.84C192.211 113.84 191.531 114.164 191.016 114.812C190.508 115.461 190.254 116.445 190.254 117.766C190.254 118.648 190.371 119.371 190.605 119.934C191.043 121.004 191.855 121.539 193.043 121.539ZM192.199 110.898C193.262 110.898 194.121 111.16 194.777 111.684C195.16 111.98 195.551 112.469 195.949 113.148V111.25H199.172V129.062H195.867V122.418C195.617 122.934 195.188 123.395 194.578 123.801C193.977 124.199 193.152 124.398 192.105 124.398C190.629 124.398 189.371 123.809 188.332 122.629C187.293 121.449 186.773 119.875 186.773 117.906C186.773 115.781 187.293 114.082 188.332 112.809C189.379 111.535 190.668 110.898 192.199 110.898ZM205.629 111.227V118.926C205.629 119.652 205.715 120.199 205.887 120.566C206.191 121.215 206.789 121.539 207.68 121.539C208.82 121.539 209.602 121.078 210.023 120.156C210.242 119.656 210.352 118.996 210.352 118.176V111.227H213.738V124H210.492V122.195C210.461 122.234 210.383 122.352 210.258 122.547C210.133 122.742 209.984 122.914 209.812 123.062C209.289 123.531 208.781 123.852 208.289 124.023C207.805 124.195 207.234 124.281 206.578 124.281C204.688 124.281 203.414 123.602 202.758 122.242C202.391 121.492 202.207 120.387 202.207 118.926V111.227H205.629ZM222.012 113.641C221.238 113.641 220.637 113.883 220.207 114.367C219.785 114.852 219.52 115.508 219.41 116.336H224.602C224.547 115.453 224.277 114.785 223.793 114.332C223.316 113.871 222.723 113.641 222.012 113.641ZM222.012 110.887C223.074 110.887 224.031 111.086 224.883 111.484C225.734 111.883 226.438 112.512 226.992 113.371C227.492 114.129 227.816 115.008 227.965 116.008C228.051 116.594 228.086 117.438 228.07 118.539H219.328C219.375 119.82 219.777 120.719 220.535 121.234C220.996 121.555 221.551 121.715 222.199 121.715C222.887 121.715 223.445 121.52 223.875 121.129C224.109 120.918 224.316 120.625 224.496 120.25H227.906C227.82 121.008 227.426 121.777 226.723 122.559C225.629 123.801 224.098 124.422 222.129 124.422C220.504 124.422 219.07 123.898 217.828 122.852C216.586 121.805 215.965 120.102 215.965 117.742C215.965 115.531 216.523 113.836 217.641 112.656C218.766 111.477 220.223 110.887 222.012 110.887ZM120.27 138.922C121.043 138.922 121.73 139.094 122.332 139.438C122.934 139.773 123.422 140.242 123.797 140.844V134.75H127.184V152H123.938V150.23C123.461 150.988 122.918 151.539 122.309 151.883C121.699 152.227 120.941 152.398 120.035 152.398C118.543 152.398 117.285 151.797 116.262 150.594C115.246 149.383 114.738 147.832 114.738 145.941C114.738 143.762 115.238 142.047 116.238 140.797C117.246 139.547 118.59 138.922 120.27 138.922ZM120.996 149.586C121.941 149.586 122.66 149.234 123.152 148.531C123.645 147.828 123.891 146.918 123.891 145.801C123.891 144.238 123.496 143.121 122.707 142.449C122.223 142.043 121.66 141.84 121.02 141.84C120.043 141.84 119.324 142.211 118.863 142.953C118.41 143.688 118.184 144.602 118.184 145.695C118.184 146.875 118.414 147.82 118.875 148.531C119.344 149.234 120.051 149.586 120.996 149.586ZM135.27 141.641C134.496 141.641 133.895 141.883 133.465 142.367C133.043 142.852 132.777 143.508 132.668 144.336H137.859C137.805 143.453 137.535 142.785 137.051 142.332C136.574 141.871 135.98 141.641 135.27 141.641ZM135.27 138.887C136.332 138.887 137.289 139.086 138.141 139.484C138.992 139.883 139.695 140.512 140.25 141.371C140.75 142.129 141.074 143.008 141.223 144.008C141.309 144.594 141.344 145.438 141.328 146.539H132.586C132.633 147.82 133.035 148.719 133.793 149.234C134.254 149.555 134.809 149.715 135.457 149.715C136.145 149.715 136.703 149.52 137.133 149.129C137.367 148.918 137.574 148.625 137.754 148.25H141.164C141.078 149.008 140.684 149.777 139.98 150.559C138.887 151.801 137.355 152.422 135.387 152.422C133.762 152.422 132.328 151.898 131.086 150.852C129.844 149.805 129.223 148.102 129.223 145.742C129.223 143.531 129.781 141.836 130.898 140.656C132.023 139.477 133.48 138.887 135.27 138.887ZM147 152H143.66V134.727H147V152ZM157.16 134.727H160.945L167.824 146.785V134.727H171.188V152H167.578L160.523 139.73V152H157.16V134.727ZM180.023 149.645C181 149.645 181.75 149.297 182.273 148.602C182.797 147.906 183.059 146.918 183.059 145.637C183.059 144.355 182.797 143.371 182.273 142.684C181.75 141.988 181 141.641 180.023 141.641C179.047 141.641 178.293 141.988 177.762 142.684C177.238 143.371 176.977 144.355 176.977 145.637C176.977 146.918 177.238 147.906 177.762 148.602C178.293 149.297 179.047 149.645 180.023 149.645ZM186.562 145.637C186.562 147.512 186.023 149.117 184.945 150.453C183.867 151.781 182.23 152.445 180.035 152.445C177.84 152.445 176.203 151.781 175.125 150.453C174.047 149.117 173.508 147.512 173.508 145.637C173.508 143.793 174.047 142.195 175.125 140.844C176.203 139.492 177.84 138.816 180.035 138.816C182.23 138.816 183.867 139.492 184.945 140.844C186.023 142.195 186.562 143.793 186.562 145.637ZM195.902 138.922C195.965 138.922 196.016 138.926 196.055 138.934C196.102 138.934 196.199 138.938 196.348 138.945V142.367C196.137 142.344 195.949 142.328 195.785 142.32C195.621 142.312 195.488 142.309 195.387 142.309C194.043 142.309 193.141 142.746 192.68 143.621C192.422 144.113 192.293 144.871 192.293 145.895V152H188.93V139.227H192.117V141.453C192.633 140.602 193.082 140.02 193.465 139.707C194.09 139.184 194.902 138.922 195.902 138.922ZM197.004 141.723V139.344H198.785V135.781H202.09V139.344H204.164V141.723H202.09V148.473C202.09 148.996 202.156 149.324 202.289 149.457C202.422 149.582 202.828 149.645 203.508 149.645C203.609 149.645 203.715 149.645 203.824 149.645C203.941 149.637 204.055 149.629 204.164 149.621V152.117L202.582 152.176C201.004 152.23 199.926 151.957 199.348 151.355C198.973 150.973 198.785 150.383 198.785 149.586V141.723H197.004ZM211.348 141.641C210.574 141.641 209.973 141.883 209.543 142.367C209.121 142.852 208.855 143.508 208.746 144.336H213.938C213.883 143.453 213.613 142.785 213.129 142.332C212.652 141.871 212.059 141.641 211.348 141.641ZM211.348 138.887C212.41 138.887 213.367 139.086 214.219 139.484C215.07 139.883 215.773 140.512 216.328 141.371C216.828 142.129 217.152 143.008 217.301 144.008C217.387 144.594 217.422 145.438 217.406 146.539H208.664C208.711 147.82 209.113 148.719 209.871 149.234C210.332 149.555 210.887 149.715 211.535 149.715C212.223 149.715 212.781 149.52 213.211 149.129C213.445 148.918 213.652 148.625 213.832 148.25H217.242C217.156 149.008 216.762 149.777 216.059 150.559C214.965 151.801 213.434 152.422 211.465 152.422C209.84 152.422 208.406 151.898 207.164 150.852C205.922 149.805 205.301 148.102 205.301 145.742C205.301 143.531 205.859 141.836 206.977 140.656C208.102 139.477 209.559 138.887 211.348 138.887Z" fill="#191960"/>
</svg>
