<svg width="365" height="195" viewBox="0 0 365 195" fill="none" xmlns="http://www.w3.org/2000/svg">
<path d="M55.5 13.3891L0 2.88913V195.389H353.5C369.5 159.389 364.167 138.389 359.5 132.389C349.9 103.189 285.167 127.555 254 143.389C226 152.189 214.667 147.055 212.5 143.389C208.1 136.589 214.333 114.889 218 104.889C210.8 67.2887 167.667 63.8887 147 66.8887C147 26.8887 126.667 7.55565 116.5 2.88913C96.5 -5.51087 67.5 6.38913 55.5 13.3891Z" fill="#6CB294"/>
<path d="M43.1443 104.864V122H56.1523V118.832H46.9123V114.632H55.2163V111.704H46.9123V108.032H55.9603V104.864H43.1443ZM58.4428 104.864V122H61.8508V104.864H58.4428ZM80.31 115.808C80.31 116.32 80.254 116.816 80.142 117.296C80.03 117.776 79.854 118.2 79.614 118.568C79.374 118.936 79.07 119.232 78.702 119.456C78.35 119.664 77.918 119.768 77.406 119.768C76.91 119.768 76.478 119.664 76.11 119.456C75.742 119.232 75.438 118.936 75.198 118.568C74.958 118.2 74.782 117.776 74.67 117.296C74.558 116.816 74.502 116.32 74.502 115.808C74.502 115.28 74.558 114.776 74.67 114.296C74.782 113.816 74.958 113.392 75.198 113.024C75.438 112.656 75.742 112.368 76.11 112.16C76.478 111.936 76.91 111.824 77.406 111.824C77.918 111.824 78.35 111.936 78.702 112.16C79.07 112.368 79.374 112.656 79.614 113.024C79.854 113.392 80.03 113.816 80.142 114.296C80.254 114.776 80.31 115.28 80.31 115.808ZM71.214 104.864V122H74.454V120.416H74.502C74.87 121.104 75.414 121.592 76.134 121.88C76.854 122.168 77.67 122.312 78.582 122.312C79.206 122.312 79.822 122.184 80.43 121.928C81.038 121.672 81.582 121.28 82.062 120.752C82.558 120.224 82.958 119.552 83.262 118.736C83.566 117.904 83.718 116.92 83.718 115.784C83.718 114.648 83.566 113.672 83.262 112.856C82.958 112.024 82.558 111.344 82.062 110.816C81.582 110.288 81.038 109.896 80.43 109.64C79.822 109.384 79.206 109.256 78.582 109.256C77.814 109.256 77.07 109.408 76.35 109.712C75.646 110 75.086 110.464 74.67 111.104H74.622V104.864H71.214ZM88.9098 115.808C88.9098 115.312 88.9578 114.824 89.0538 114.344C89.1498 113.864 89.3098 113.44 89.5338 113.072C89.7738 112.704 90.0858 112.408 90.4698 112.184C90.8538 111.944 91.3338 111.824 91.9098 111.824C92.4858 111.824 92.9658 111.944 93.3498 112.184C93.7498 112.408 94.0618 112.704 94.2858 113.072C94.5258 113.44 94.6938 113.864 94.7898 114.344C94.8858 114.824 94.9338 115.312 94.9338 115.808C94.9338 116.304 94.8858 116.792 94.7898 117.272C94.6938 117.736 94.5258 118.16 94.2858 118.544C94.0618 118.912 93.7498 119.208 93.3498 119.432C92.9658 119.656 92.4858 119.768 91.9098 119.768C91.3338 119.768 90.8538 119.656 90.4698 119.432C90.0858 119.208 89.7738 118.912 89.5338 118.544C89.3098 118.16 89.1498 117.736 89.0538 117.272C88.9578 116.792 88.9098 116.304 88.9098 115.808ZM85.5018 115.808C85.5018 116.8 85.6538 117.696 85.9578 118.496C86.2618 119.296 86.6938 119.984 87.2538 120.56C87.8138 121.12 88.4858 121.552 89.2698 121.856C90.0538 122.16 90.9338 122.312 91.9098 122.312C92.8858 122.312 93.7658 122.16 94.5498 121.856C95.3498 121.552 96.0298 121.12 96.5898 120.56C97.1498 119.984 97.5818 119.296 97.8858 118.496C98.1898 117.696 98.3418 116.8 98.3418 115.808C98.3418 114.816 98.1898 113.92 97.8858 113.12C97.5818 112.304 97.1498 111.616 96.5898 111.056C96.0298 110.48 95.3498 110.04 94.5498 109.736C93.7658 109.416 92.8858 109.256 91.9098 109.256C90.9338 109.256 90.0538 109.416 89.2698 109.736C88.4858 110.04 87.8138 110.48 87.2538 111.056C86.6938 111.616 86.2618 112.304 85.9578 113.12C85.6538 113.92 85.5018 114.816 85.5018 115.808ZM103.198 117.968H99.9577C99.9897 118.8 100.174 119.496 100.51 120.056C100.862 120.6 101.302 121.04 101.83 121.376C102.374 121.712 102.99 121.952 103.678 122.096C104.366 122.24 105.07 122.312 105.79 122.312C106.494 122.312 107.182 122.24 107.854 122.096C108.542 121.968 109.15 121.736 109.678 121.4C110.206 121.064 110.63 120.624 110.95 120.08C111.286 119.52 111.454 118.832 111.454 118.016C111.454 117.44 111.342 116.96 111.118 116.576C110.894 116.176 110.598 115.848 110.23 115.592C109.862 115.32 109.438 115.104 108.958 114.944C108.494 114.784 108.014 114.648 107.518 114.536C107.038 114.424 106.566 114.32 106.102 114.224C105.638 114.128 105.222 114.024 104.854 113.912C104.502 113.784 104.214 113.624 103.99 113.432C103.766 113.24 103.654 112.992 103.654 112.688C103.654 112.432 103.718 112.232 103.846 112.088C103.974 111.928 104.126 111.808 104.302 111.728C104.494 111.648 104.702 111.6 104.926 111.584C105.15 111.552 105.358 111.536 105.55 111.536C106.158 111.536 106.686 111.656 107.134 111.896C107.582 112.12 107.83 112.56 107.878 113.216H111.118C111.054 112.448 110.854 111.816 110.518 111.32C110.198 110.808 109.79 110.4 109.294 110.096C108.798 109.792 108.23 109.576 107.59 109.448C106.966 109.32 106.318 109.256 105.646 109.256C104.974 109.256 104.318 109.32 103.678 109.448C103.038 109.56 102.462 109.768 101.95 110.072C101.438 110.36 101.022 110.76 100.702 111.272C100.398 111.784 100.246 112.44 100.246 113.24C100.246 113.784 100.358 114.248 100.582 114.632C100.806 115 101.102 115.312 101.47 115.568C101.838 115.808 102.254 116.008 102.718 116.168C103.198 116.312 103.686 116.44 104.182 116.552C105.398 116.808 106.342 117.064 107.014 117.32C107.702 117.576 108.046 117.96 108.046 118.472C108.046 118.776 107.974 119.032 107.83 119.24C107.686 119.432 107.502 119.592 107.278 119.72C107.07 119.832 106.83 119.92 106.558 119.984C106.302 120.032 106.054 120.056 105.814 120.056C105.478 120.056 105.15 120.016 104.83 119.936C104.526 119.856 104.254 119.736 104.014 119.576C103.774 119.4 103.574 119.184 103.414 118.928C103.27 118.656 103.198 118.336 103.198 117.968ZM116.328 115.808C116.328 115.296 116.376 114.808 116.472 114.344C116.584 113.864 116.76 113.44 117 113.072C117.24 112.688 117.552 112.384 117.936 112.16C118.32 111.936 118.792 111.824 119.352 111.824C119.88 111.824 120.328 111.944 120.696 112.184C121.08 112.424 121.384 112.736 121.608 113.12C121.832 113.504 121.992 113.936 122.088 114.416C122.2 114.896 122.256 115.376 122.256 115.856C122.256 116.368 122.2 116.864 122.088 117.344C121.992 117.808 121.824 118.224 121.584 118.592C121.36 118.944 121.056 119.232 120.672 119.456C120.304 119.664 119.84 119.768 119.28 119.768C118.72 119.768 118.248 119.656 117.864 119.432C117.496 119.208 117.192 118.912 116.952 118.544C116.728 118.16 116.568 117.736 116.472 117.272C116.376 116.792 116.328 116.304 116.328 115.808ZM125.544 126.344V109.592H122.304V111.176H122.256C121.872 110.488 121.336 110 120.648 109.712C119.976 109.408 119.256 109.256 118.488 109.256C117.544 109.256 116.72 109.44 116.016 109.808C115.328 110.176 114.752 110.672 114.288 111.296C113.824 111.904 113.48 112.608 113.256 113.408C113.032 114.208 112.92 115.032 112.92 115.88C112.92 117.08 113.088 118.096 113.424 118.928C113.76 119.744 114.184 120.408 114.696 120.92C115.208 121.416 115.768 121.776 116.376 122C117 122.208 117.6 122.312 118.176 122.312C118.944 122.312 119.688 122.168 120.408 121.88C121.128 121.592 121.688 121.112 122.088 120.44H122.136V126.344H125.544ZM139.76 122V109.592H136.352V116.096C136.352 117.36 136.144 118.272 135.728 118.832C135.312 119.376 134.64 119.648 133.712 119.648C132.896 119.648 132.328 119.4 132.008 118.904C131.688 118.392 131.528 117.624 131.528 116.6V109.592H128.12V117.224C128.12 117.992 128.184 118.696 128.312 119.336C128.456 119.96 128.696 120.496 129.032 120.944C129.368 121.376 129.824 121.712 130.4 121.952C130.992 122.192 131.744 122.312 132.656 122.312C133.376 122.312 134.08 122.152 134.768 121.832C135.456 121.512 136.016 120.992 136.448 120.272H136.52V122H139.76ZM150.699 114.464H145.155C145.171 114.224 145.219 113.952 145.299 113.648C145.395 113.344 145.547 113.056 145.755 112.784C145.979 112.512 146.267 112.288 146.619 112.112C146.987 111.92 147.443 111.824 147.987 111.824C148.819 111.824 149.435 112.048 149.835 112.496C150.251 112.944 150.539 113.6 150.699 114.464ZM145.155 116.624H154.107C154.171 115.664 154.091 114.744 153.867 113.864C153.643 112.984 153.275 112.2 152.763 111.512C152.267 110.824 151.627 110.28 150.843 109.88C150.059 109.464 149.139 109.256 148.083 109.256C147.139 109.256 146.275 109.424 145.491 109.76C144.723 110.096 144.059 110.56 143.499 111.152C142.939 111.728 142.507 112.416 142.203 113.216C141.899 114.016 141.747 114.88 141.747 115.808C141.747 116.768 141.891 117.648 142.179 118.448C142.483 119.248 142.907 119.936 143.451 120.512C143.995 121.088 144.659 121.536 145.443 121.856C146.227 122.16 147.107 122.312 148.083 122.312C149.491 122.312 150.691 121.992 151.683 121.352C152.675 120.712 153.411 119.648 153.891 118.16H150.891C150.779 118.544 150.475 118.912 149.979 119.264C149.483 119.6 148.891 119.768 148.203 119.768C147.243 119.768 146.507 119.52 145.995 119.024C145.483 118.528 145.203 117.728 145.155 116.624ZM71.3735 143.76C71.3735 144.272 71.3255 144.768 71.2295 145.248C71.1335 145.728 70.9735 146.16 70.7495 146.544C70.5255 146.912 70.2215 147.208 69.8375 147.432C69.4695 147.656 69.0055 147.768 68.4455 147.768C67.9175 147.768 67.4615 147.656 67.0775 147.432C66.7095 147.192 66.3975 146.888 66.1415 146.52C65.9015 146.136 65.7255 145.704 65.6135 145.224C65.5015 144.744 65.4455 144.264 65.4455 143.784C65.4455 143.272 65.4935 142.784 65.5895 142.32C65.7015 141.84 65.8695 141.416 66.0935 141.048C66.3335 140.68 66.6455 140.384 67.0295 140.16C67.4135 139.936 67.8855 139.824 68.4455 139.824C69.0055 139.824 69.4695 139.936 69.8375 140.16C70.2055 140.384 70.5015 140.68 70.7255 141.048C70.9655 141.4 71.1335 141.816 71.2295 142.296C71.3255 142.76 71.3735 143.248 71.3735 143.76ZM71.4215 148.416V150H74.6615V132.864H71.2535V139.104H71.2055C70.8215 138.496 70.2935 138.04 69.6215 137.736C68.9655 137.416 68.2695 137.256 67.5335 137.256C66.6215 137.256 65.8215 137.44 65.1335 137.808C64.4455 138.16 63.8695 138.632 63.4055 139.224C62.9575 139.816 62.6135 140.504 62.3735 141.288C62.1495 142.056 62.0375 142.856 62.0375 143.688C62.0375 144.552 62.1495 145.384 62.3735 146.184C62.6135 146.984 62.9575 147.696 63.4055 148.32C63.8695 148.928 64.4535 149.416 65.1575 149.784C65.8615 150.136 66.6775 150.312 67.6055 150.312C68.4215 150.312 69.1495 150.168 69.7895 149.88C70.4455 149.576 70.9735 149.088 71.3735 148.416H71.4215ZM85.5894 142.464H80.0454C80.0614 142.224 80.1094 141.952 80.1894 141.648C80.2854 141.344 80.4374 141.056 80.6454 140.784C80.8694 140.512 81.1574 140.288 81.5094 140.112C81.8774 139.92 82.3334 139.824 82.8774 139.824C83.7094 139.824 84.3254 140.048 84.7254 140.496C85.1414 140.944 85.4294 141.6 85.5894 142.464ZM80.0454 144.624H88.9974C89.0614 143.664 88.9814 142.744 88.7574 141.864C88.5334 140.984 88.1654 140.2 87.6534 139.512C87.1574 138.824 86.5174 138.28 85.7334 137.88C84.9494 137.464 84.0294 137.256 82.9734 137.256C82.0294 137.256 81.1654 137.424 80.3814 137.76C79.6134 138.096 78.9494 138.56 78.3894 139.152C77.8294 139.728 77.3974 140.416 77.0934 141.216C76.7894 142.016 76.6374 142.88 76.6374 143.808C76.6374 144.768 76.7814 145.648 77.0694 146.448C77.3734 147.248 77.7974 147.936 78.3414 148.512C78.8854 149.088 79.5494 149.536 80.3334 149.856C81.1174 150.16 81.9974 150.312 82.9734 150.312C84.3814 150.312 85.5814 149.992 86.5734 149.352C87.5654 148.712 88.3014 147.648 88.7814 146.16H85.7814C85.6694 146.544 85.3654 146.912 84.8694 147.264C84.3734 147.6 83.7814 147.768 83.0934 147.768C82.1334 147.768 81.3974 147.52 80.8854 147.024C80.3734 146.528 80.0934 145.728 80.0454 144.624ZM91.1147 132.864V150H94.5227V132.864H91.1147ZM106.814 144.312H103.166C103.15 145.368 103.342 146.28 103.742 147.048C104.142 147.816 104.678 148.448 105.35 148.944C106.038 149.44 106.822 149.8 107.702 150.024C108.598 150.264 109.518 150.384 110.462 150.384C111.63 150.384 112.654 150.248 113.534 149.976C114.43 149.704 115.174 149.328 115.766 148.848C116.374 148.352 116.83 147.768 117.134 147.096C117.438 146.424 117.59 145.696 117.59 144.912C117.59 143.952 117.382 143.168 116.966 142.56C116.566 141.936 116.086 141.44 115.526 141.072C114.966 140.704 114.398 140.44 113.822 140.28C113.262 140.104 112.822 139.984 112.502 139.92C111.43 139.648 110.558 139.424 109.886 139.248C109.23 139.072 108.71 138.896 108.326 138.72C107.958 138.544 107.71 138.352 107.582 138.144C107.454 137.936 107.39 137.664 107.39 137.328C107.39 136.96 107.47 136.656 107.63 136.416C107.79 136.176 107.99 135.976 108.23 135.816C108.486 135.656 108.766 135.544 109.07 135.48C109.374 135.416 109.678 135.384 109.982 135.384C110.446 135.384 110.87 135.424 111.254 135.504C111.654 135.584 112.006 135.72 112.31 135.912C112.614 136.104 112.854 136.368 113.03 136.704C113.222 137.04 113.334 137.464 113.366 137.976H117.014C117.014 136.984 116.822 136.144 116.438 135.456C116.07 134.752 115.566 134.176 114.926 133.728C114.286 133.28 113.55 132.96 112.718 132.768C111.902 132.56 111.046 132.456 110.15 132.456C109.382 132.456 108.614 132.56 107.846 132.768C107.078 132.976 106.39 133.296 105.782 133.728C105.174 134.16 104.678 134.704 104.294 135.36C103.926 136 103.742 136.76 103.742 137.64C103.742 138.424 103.886 139.096 104.174 139.656C104.478 140.2 104.87 140.656 105.35 141.024C105.83 141.392 106.374 141.696 106.982 141.936C107.59 142.16 108.214 142.352 108.854 142.512C109.478 142.688 110.094 142.848 110.702 142.992C111.31 143.136 111.854 143.304 112.334 143.496C112.814 143.688 113.198 143.928 113.486 144.216C113.79 144.504 113.942 144.88 113.942 145.344C113.942 145.776 113.83 146.136 113.606 146.424C113.382 146.696 113.102 146.912 112.766 147.072C112.43 147.232 112.07 147.344 111.686 147.408C111.302 147.456 110.942 147.48 110.606 147.48C110.11 147.48 109.63 147.424 109.166 147.312C108.702 147.184 108.294 147 107.942 146.76C107.606 146.504 107.334 146.176 107.126 145.776C106.918 145.376 106.814 144.888 106.814 144.312ZM131.112 150V137.592H127.704V144.096C127.704 145.36 127.496 146.272 127.08 146.832C126.664 147.376 125.992 147.648 125.064 147.648C124.248 147.648 123.68 147.4 123.36 146.904C123.04 146.392 122.88 145.624 122.88 144.6V137.592H119.472V145.224C119.472 145.992 119.536 146.696 119.664 147.336C119.808 147.96 120.048 148.496 120.384 148.944C120.72 149.376 121.176 149.712 121.752 149.952C122.344 150.192 123.096 150.312 124.008 150.312C124.728 150.312 125.432 150.152 126.12 149.832C126.808 149.512 127.368 148.992 127.8 148.272H127.872V150H131.112ZM133.698 137.592V150H137.106V144.408C137.106 143.848 137.162 143.328 137.274 142.848C137.386 142.368 137.57 141.952 137.826 141.6C138.098 141.232 138.45 140.944 138.882 140.736C139.314 140.528 139.842 140.424 140.466 140.424C140.674 140.424 140.89 140.44 141.114 140.472C141.338 140.488 141.53 140.512 141.69 140.544V137.376C141.418 137.296 141.17 137.256 140.946 137.256C140.514 137.256 140.098 137.32 139.698 137.448C139.298 137.576 138.922 137.76 138.57 138C138.218 138.224 137.906 138.504 137.634 138.84C137.362 139.16 137.146 139.512 136.986 139.896H136.938V137.592H133.698Z" fill="#191960"/>
</svg>
