<svg width="316" height="221" viewBox="0 0 316 221" fill="none" xmlns="http://www.w3.org/2000/svg">
<path d="M54.5016 48.5894C48.5016 88.1893 19.6683 115.756 6.00163 124.589C-20.3984 162.989 46.6683 166.923 83.5016 164.09C94.3016 159.29 122.668 189.423 135.502 205.09C187.102 245.49 226.668 198.59 240.002 170.09C248.402 151.69 267.168 152.09 275.502 154.59C303.902 159.79 311.335 136.756 311.502 124.589C330.702 58.1889 277.502 64.9228 248.502 76.5898C218.102 98.9902 205.502 92.2567 203.002 86.0898C205.002 70.4898 195.502 54.5895 190.502 48.5894C109.302 -39.4106 66.0016 11.9227 54.5016 48.5894Z" fill="#6CB294"/>
<path d="M117.144 107.864V125H130.152V121.832H120.912V117.632H129.216V114.704H120.912V111.032H129.96V107.864H117.144ZM132.443 107.864V125H135.851V107.864H132.443ZM154.31 118.808C154.31 119.32 154.254 119.816 154.142 120.296C154.03 120.776 153.854 121.2 153.614 121.568C153.374 121.936 153.07 122.232 152.702 122.456C152.35 122.664 151.918 122.768 151.406 122.768C150.91 122.768 150.478 122.664 150.11 122.456C149.742 122.232 149.438 121.936 149.198 121.568C148.958 121.2 148.782 120.776 148.67 120.296C148.558 119.816 148.502 119.32 148.502 118.808C148.502 118.28 148.558 117.776 148.67 117.296C148.782 116.816 148.958 116.392 149.198 116.024C149.438 115.656 149.742 115.368 150.11 115.16C150.478 114.936 150.91 114.824 151.406 114.824C151.918 114.824 152.35 114.936 152.702 115.16C153.07 115.368 153.374 115.656 153.614 116.024C153.854 116.392 154.03 116.816 154.142 117.296C154.254 117.776 154.31 118.28 154.31 118.808ZM145.214 107.864V125H148.454V123.416H148.502C148.87 124.104 149.414 124.592 150.134 124.88C150.854 125.168 151.67 125.312 152.582 125.312C153.206 125.312 153.822 125.184 154.43 124.928C155.038 124.672 155.582 124.28 156.062 123.752C156.558 123.224 156.958 122.552 157.262 121.736C157.566 120.904 157.718 119.92 157.718 118.784C157.718 117.648 157.566 116.672 157.262 115.856C156.958 115.024 156.558 114.344 156.062 113.816C155.582 113.288 155.038 112.896 154.43 112.64C153.822 112.384 153.206 112.256 152.582 112.256C151.814 112.256 151.07 112.408 150.35 112.712C149.646 113 149.086 113.464 148.67 114.104H148.622V107.864H145.214ZM162.91 118.808C162.91 118.312 162.958 117.824 163.054 117.344C163.15 116.864 163.31 116.44 163.534 116.072C163.774 115.704 164.086 115.408 164.47 115.184C164.854 114.944 165.334 114.824 165.91 114.824C166.486 114.824 166.966 114.944 167.35 115.184C167.75 115.408 168.062 115.704 168.286 116.072C168.526 116.44 168.694 116.864 168.79 117.344C168.886 117.824 168.934 118.312 168.934 118.808C168.934 119.304 168.886 119.792 168.79 120.272C168.694 120.736 168.526 121.16 168.286 121.544C168.062 121.912 167.75 122.208 167.35 122.432C166.966 122.656 166.486 122.768 165.91 122.768C165.334 122.768 164.854 122.656 164.47 122.432C164.086 122.208 163.774 121.912 163.534 121.544C163.31 121.16 163.15 120.736 163.054 120.272C162.958 119.792 162.91 119.304 162.91 118.808ZM159.502 118.808C159.502 119.8 159.654 120.696 159.958 121.496C160.262 122.296 160.694 122.984 161.254 123.56C161.814 124.12 162.486 124.552 163.27 124.856C164.054 125.16 164.934 125.312 165.91 125.312C166.886 125.312 167.766 125.16 168.55 124.856C169.35 124.552 170.03 124.12 170.59 123.56C171.15 122.984 171.582 122.296 171.886 121.496C172.19 120.696 172.342 119.8 172.342 118.808C172.342 117.816 172.19 116.92 171.886 116.12C171.582 115.304 171.15 114.616 170.59 114.056C170.03 113.48 169.35 113.04 168.55 112.736C167.766 112.416 166.886 112.256 165.91 112.256C164.934 112.256 164.054 112.416 163.27 112.736C162.486 113.04 161.814 113.48 161.254 114.056C160.694 114.616 160.262 115.304 159.958 116.12C159.654 116.92 159.502 117.816 159.502 118.808ZM177.198 120.968H173.958C173.99 121.8 174.174 122.496 174.51 123.056C174.862 123.6 175.302 124.04 175.83 124.376C176.374 124.712 176.99 124.952 177.678 125.096C178.366 125.24 179.07 125.312 179.79 125.312C180.494 125.312 181.182 125.24 181.854 125.096C182.542 124.968 183.15 124.736 183.678 124.4C184.206 124.064 184.63 123.624 184.95 123.08C185.286 122.52 185.454 121.832 185.454 121.016C185.454 120.44 185.342 119.96 185.118 119.576C184.894 119.176 184.598 118.848 184.23 118.592C183.862 118.32 183.438 118.104 182.958 117.944C182.494 117.784 182.014 117.648 181.518 117.536C181.038 117.424 180.566 117.32 180.102 117.224C179.638 117.128 179.222 117.024 178.854 116.912C178.502 116.784 178.214 116.624 177.99 116.432C177.766 116.24 177.654 115.992 177.654 115.688C177.654 115.432 177.718 115.232 177.846 115.088C177.974 114.928 178.126 114.808 178.302 114.728C178.494 114.648 178.702 114.6 178.926 114.584C179.15 114.552 179.358 114.536 179.55 114.536C180.158 114.536 180.686 114.656 181.134 114.896C181.582 115.12 181.83 115.56 181.878 116.216H185.118C185.054 115.448 184.854 114.816 184.518 114.32C184.198 113.808 183.79 113.4 183.294 113.096C182.798 112.792 182.23 112.576 181.59 112.448C180.966 112.32 180.318 112.256 179.646 112.256C178.974 112.256 178.318 112.32 177.678 112.448C177.038 112.56 176.462 112.768 175.95 113.072C175.438 113.36 175.022 113.76 174.702 114.272C174.398 114.784 174.246 115.44 174.246 116.24C174.246 116.784 174.358 117.248 174.582 117.632C174.806 118 175.102 118.312 175.47 118.568C175.838 118.808 176.254 119.008 176.718 119.168C177.198 119.312 177.686 119.44 178.182 119.552C179.398 119.808 180.342 120.064 181.014 120.32C181.702 120.576 182.046 120.96 182.046 121.472C182.046 121.776 181.974 122.032 181.83 122.24C181.686 122.432 181.502 122.592 181.278 122.72C181.07 122.832 180.83 122.92 180.558 122.984C180.302 123.032 180.054 123.056 179.814 123.056C179.478 123.056 179.15 123.016 178.83 122.936C178.526 122.856 178.254 122.736 178.014 122.576C177.774 122.4 177.574 122.184 177.414 121.928C177.27 121.656 177.198 121.336 177.198 120.968ZM190.328 118.808C190.328 118.296 190.376 117.808 190.472 117.344C190.584 116.864 190.76 116.44 191 116.072C191.24 115.688 191.552 115.384 191.936 115.16C192.32 114.936 192.792 114.824 193.352 114.824C193.88 114.824 194.328 114.944 194.696 115.184C195.08 115.424 195.384 115.736 195.608 116.12C195.832 116.504 195.992 116.936 196.088 117.416C196.2 117.896 196.256 118.376 196.256 118.856C196.256 119.368 196.2 119.864 196.088 120.344C195.992 120.808 195.824 121.224 195.584 121.592C195.36 121.944 195.056 122.232 194.672 122.456C194.304 122.664 193.84 122.768 193.28 122.768C192.72 122.768 192.248 122.656 191.864 122.432C191.496 122.208 191.192 121.912 190.952 121.544C190.728 121.16 190.568 120.736 190.472 120.272C190.376 119.792 190.328 119.304 190.328 118.808ZM199.544 129.344V112.592H196.304V114.176H196.256C195.872 113.488 195.336 113 194.648 112.712C193.976 112.408 193.256 112.256 192.488 112.256C191.544 112.256 190.72 112.44 190.016 112.808C189.328 113.176 188.752 113.672 188.288 114.296C187.824 114.904 187.48 115.608 187.256 116.408C187.032 117.208 186.92 118.032 186.92 118.88C186.92 120.08 187.088 121.096 187.424 121.928C187.76 122.744 188.184 123.408 188.696 123.92C189.208 124.416 189.768 124.776 190.376 125C191 125.208 191.6 125.312 192.176 125.312C192.944 125.312 193.688 125.168 194.408 124.88C195.128 124.592 195.688 124.112 196.088 123.44H196.136V129.344H199.544ZM213.76 125V112.592H210.352V119.096C210.352 120.36 210.144 121.272 209.728 121.832C209.312 122.376 208.64 122.648 207.712 122.648C206.896 122.648 206.328 122.4 206.008 121.904C205.688 121.392 205.528 120.624 205.528 119.6V112.592H202.12V120.224C202.12 120.992 202.184 121.696 202.312 122.336C202.456 122.96 202.696 123.496 203.032 123.944C203.368 124.376 203.824 124.712 204.4 124.952C204.992 125.192 205.744 125.312 206.656 125.312C207.376 125.312 208.08 125.152 208.768 124.832C209.456 124.512 210.016 123.992 210.448 123.272H210.52V125H213.76ZM224.699 117.464H219.155C219.171 117.224 219.219 116.952 219.299 116.648C219.395 116.344 219.547 116.056 219.755 115.784C219.979 115.512 220.267 115.288 220.619 115.112C220.987 114.92 221.443 114.824 221.987 114.824C222.819 114.824 223.435 115.048 223.835 115.496C224.251 115.944 224.539 116.6 224.699 117.464ZM219.155 119.624H228.107C228.171 118.664 228.091 117.744 227.867 116.864C227.643 115.984 227.275 115.2 226.763 114.512C226.267 113.824 225.627 113.28 224.843 112.88C224.059 112.464 223.139 112.256 222.083 112.256C221.139 112.256 220.275 112.424 219.491 112.76C218.723 113.096 218.059 113.56 217.499 114.152C216.939 114.728 216.507 115.416 216.203 116.216C215.899 117.016 215.747 117.88 215.747 118.808C215.747 119.768 215.891 120.648 216.179 121.448C216.483 122.248 216.907 122.936 217.451 123.512C217.995 124.088 218.659 124.536 219.443 124.856C220.227 125.16 221.107 125.312 222.083 125.312C223.491 125.312 224.691 124.992 225.683 124.352C226.675 123.712 227.411 122.648 227.891 121.16H224.891C224.779 121.544 224.475 121.912 223.979 122.264C223.483 122.6 222.891 122.768 222.203 122.768C221.243 122.768 220.507 122.52 219.995 122.024C219.483 121.528 219.203 120.728 219.155 119.624ZM132.94 146.76C132.94 147.272 132.892 147.768 132.796 148.248C132.7 148.728 132.54 149.16 132.316 149.544C132.092 149.912 131.788 150.208 131.404 150.432C131.036 150.656 130.572 150.768 130.012 150.768C129.484 150.768 129.028 150.656 128.644 150.432C128.276 150.192 127.964 149.888 127.708 149.52C127.468 149.136 127.292 148.704 127.18 148.224C127.068 147.744 127.012 147.264 127.012 146.784C127.012 146.272 127.06 145.784 127.156 145.32C127.268 144.84 127.436 144.416 127.66 144.048C127.9 143.68 128.212 143.384 128.596 143.16C128.98 142.936 129.452 142.824 130.012 142.824C130.572 142.824 131.036 142.936 131.404 143.16C131.772 143.384 132.068 143.68 132.292 144.048C132.532 144.4 132.7 144.816 132.796 145.296C132.892 145.76 132.94 146.248 132.94 146.76ZM132.988 151.416V153H136.228V135.864H132.82V142.104H132.772C132.388 141.496 131.86 141.04 131.188 140.736C130.532 140.416 129.836 140.256 129.1 140.256C128.188 140.256 127.388 140.44 126.7 140.808C126.012 141.16 125.436 141.632 124.972 142.224C124.524 142.816 124.18 143.504 123.94 144.288C123.716 145.056 123.604 145.856 123.604 146.688C123.604 147.552 123.716 148.384 123.94 149.184C124.18 149.984 124.524 150.696 124.972 151.32C125.436 151.928 126.02 152.416 126.724 152.784C127.428 153.136 128.244 153.312 129.172 153.312C129.988 153.312 130.716 153.168 131.356 152.88C132.012 152.576 132.54 152.088 132.94 151.416H132.988ZM147.156 145.464H141.612C141.628 145.224 141.676 144.952 141.756 144.648C141.852 144.344 142.004 144.056 142.212 143.784C142.436 143.512 142.724 143.288 143.076 143.112C143.444 142.92 143.9 142.824 144.444 142.824C145.276 142.824 145.892 143.048 146.292 143.496C146.708 143.944 146.996 144.6 147.156 145.464ZM141.612 147.624H150.564C150.628 146.664 150.548 145.744 150.324 144.864C150.1 143.984 149.732 143.2 149.22 142.512C148.724 141.824 148.084 141.28 147.3 140.88C146.516 140.464 145.596 140.256 144.54 140.256C143.596 140.256 142.732 140.424 141.948 140.76C141.18 141.096 140.516 141.56 139.956 142.152C139.396 142.728 138.964 143.416 138.66 144.216C138.356 145.016 138.204 145.88 138.204 146.808C138.204 147.768 138.348 148.648 138.636 149.448C138.94 150.248 139.364 150.936 139.908 151.512C140.452 152.088 141.116 152.536 141.9 152.856C142.684 153.16 143.564 153.312 144.54 153.312C145.948 153.312 147.148 152.992 148.14 152.352C149.132 151.712 149.868 150.648 150.348 149.16H147.348C147.236 149.544 146.932 149.912 146.436 150.264C145.94 150.6 145.348 150.768 144.66 150.768C143.7 150.768 142.964 150.52 142.452 150.024C141.94 149.528 141.66 148.728 141.612 147.624ZM152.681 135.864V153H156.089V135.864H152.681ZM165.812 135.864V153H169.34V141.528H169.388L176.516 153H180.284V135.864H176.756V147.36H176.708L169.556 135.864H165.812ZM186.265 146.808C186.265 146.312 186.313 145.824 186.409 145.344C186.505 144.864 186.665 144.44 186.889 144.072C187.129 143.704 187.441 143.408 187.825 143.184C188.209 142.944 188.689 142.824 189.265 142.824C189.841 142.824 190.321 142.944 190.705 143.184C191.105 143.408 191.417 143.704 191.641 144.072C191.881 144.44 192.049 144.864 192.145 145.344C192.241 145.824 192.289 146.312 192.289 146.808C192.289 147.304 192.241 147.792 192.145 148.272C192.049 148.736 191.881 149.16 191.641 149.544C191.417 149.912 191.105 150.208 190.705 150.432C190.321 150.656 189.841 150.768 189.265 150.768C188.689 150.768 188.209 150.656 187.825 150.432C187.441 150.208 187.129 149.912 186.889 149.544C186.665 149.16 186.505 148.736 186.409 148.272C186.313 147.792 186.265 147.304 186.265 146.808ZM182.857 146.808C182.857 147.8 183.009 148.696 183.313 149.496C183.617 150.296 184.049 150.984 184.609 151.56C185.169 152.12 185.841 152.552 186.625 152.856C187.409 153.16 188.289 153.312 189.265 153.312C190.241 153.312 191.121 153.16 191.905 152.856C192.705 152.552 193.385 152.12 193.945 151.56C194.505 150.984 194.937 150.296 195.241 149.496C195.545 148.696 195.697 147.8 195.697 146.808C195.697 145.816 195.545 144.92 195.241 144.12C194.937 143.304 194.505 142.616 193.945 142.056C193.385 141.48 192.705 141.04 191.905 140.736C191.121 140.416 190.241 140.256 189.265 140.256C188.289 140.256 187.409 140.416 186.625 140.736C185.841 141.04 185.169 141.48 184.609 142.056C184.049 142.616 183.617 143.304 183.313 144.12C183.009 144.92 182.857 145.816 182.857 146.808ZM197.913 140.592V153H201.321V147.408C201.321 146.848 201.377 146.328 201.489 145.848C201.601 145.368 201.785 144.952 202.041 144.6C202.313 144.232 202.665 143.944 203.097 143.736C203.529 143.528 204.057 143.424 204.681 143.424C204.889 143.424 205.105 143.44 205.329 143.472C205.553 143.488 205.745 143.512 205.905 143.544V140.376C205.633 140.296 205.385 140.256 205.161 140.256C204.729 140.256 204.313 140.32 203.913 140.448C203.513 140.576 203.137 140.76 202.785 141C202.433 141.224 202.121 141.504 201.849 141.84C201.577 142.16 201.361 142.512 201.201 142.896H201.153V140.592H197.913ZM211.561 140.592V136.872H208.153V140.592H206.089V142.872H208.153V150.192C208.153 150.816 208.257 151.32 208.465 151.704C208.673 152.088 208.953 152.384 209.305 152.592C209.673 152.8 210.089 152.936 210.553 153C211.033 153.08 211.537 153.12 212.065 153.12C212.401 153.12 212.745 153.112 213.097 153.096C213.449 153.08 213.769 153.048 214.057 153V150.36C213.897 150.392 213.729 150.416 213.553 150.432C213.377 150.448 213.193 150.456 213.001 150.456C212.425 150.456 212.041 150.36 211.849 150.168C211.657 149.976 211.561 149.592 211.561 149.016V142.872H214.057V140.592H211.561ZM224.031 145.464H218.487C218.503 145.224 218.551 144.952 218.631 144.648C218.727 144.344 218.879 144.056 219.087 143.784C219.311 143.512 219.599 143.288 219.951 143.112C220.319 142.92 220.775 142.824 221.319 142.824C222.151 142.824 222.767 143.048 223.167 143.496C223.583 143.944 223.871 144.6 224.031 145.464ZM218.487 147.624H227.439C227.503 146.664 227.423 145.744 227.199 144.864C226.975 143.984 226.607 143.2 226.095 142.512C225.599 141.824 224.959 141.28 224.175 140.88C223.391 140.464 222.471 140.256 221.415 140.256C220.471 140.256 219.607 140.424 218.823 140.76C218.055 141.096 217.391 141.56 216.831 142.152C216.271 142.728 215.839 143.416 215.535 144.216C215.231 145.016 215.079 145.88 215.079 146.808C215.079 147.768 215.223 148.648 215.511 149.448C215.815 150.248 216.239 150.936 216.783 151.512C217.327 152.088 217.991 152.536 218.775 152.856C219.559 153.16 220.439 153.312 221.415 153.312C222.823 153.312 224.023 152.992 225.015 152.352C226.007 151.712 226.743 150.648 227.223 149.16H224.223C224.111 149.544 223.807 149.912 223.311 150.264C222.815 150.6 222.223 150.768 221.535 150.768C220.575 150.768 219.839 150.52 219.327 150.024C218.815 149.528 218.535 148.728 218.487 147.624Z" fill="#191960"/>
</svg>
