<svg width="376" height="201" viewBox="0 0 376 201" fill="none" xmlns="http://www.w3.org/2000/svg">
<g filter="url(#filter0_d)">
<path d="M56.5 19.3891L1 8.88913V201.389H354.5C370.5 165.389 365.167 144.389 360.5 138.389C350.9 109.189 286.167 133.555 255 149.389C227 158.189 215.667 153.055 213.5 149.389C209.1 142.589 215.333 120.889 219 110.889C211.8 73.2887 168.667 69.8887 148 72.8887C148 32.8887 127.667 13.5556 117.5 8.88913C97.5 0.489135 68.5 12.3891 56.5 19.3891Z" fill="#9FA152"/>
<path d="M55.232 120.008C55.264 121.576 55.168 123.24 54.944 125H41.72L41.576 124.232C42.184 123.816 42.864 123.44 43.616 123.104V110.648L41.816 110.384L41.84 109.112H55.112L55.136 109.664C55.136 111.136 54.984 112.568 54.68 113.96H52.28L51.848 111.512L47.96 111.248V116.096L52.976 115.688V118.28L47.96 118.064V122.768L51.992 122.456L52.856 119.816L55.232 120.008ZM62.3801 122.984C63.0841 123.224 63.6601 123.504 64.1081 123.824L64.0601 125H56.4521L56.4041 124.16C56.9641 123.84 57.5721 123.568 58.2281 123.344V109.712L56.4521 109.4L56.3321 108.2C57.6761 107.72 59.2601 107.424 61.0841 107.312L62.3801 108.512V122.984ZM78.9697 113.216L79.7857 113.144C81.1137 113.144 82.1857 113.68 83.0017 114.752C83.8337 115.808 84.2497 117.128 84.2497 118.712C84.2497 120.68 83.6097 122.296 82.3297 123.56C81.0497 124.808 79.3617 125.432 77.2657 125.432C75.7137 125.432 74.0417 125.128 72.2497 124.52L72.2737 124.496V109.712L70.4737 109.4L70.3777 108.2C71.7217 107.72 73.3057 107.424 75.1297 107.312L76.4257 108.512V115.064L78.9697 113.216ZM78.5137 123.176C79.4897 122.328 79.9777 121.08 79.9777 119.432C79.9777 118.488 79.7617 117.688 79.3297 117.032C78.8977 116.376 78.3217 116.048 77.6017 116.048C77.2177 116.048 76.8257 116.144 76.4257 116.336V123.008C76.8577 123.152 77.3297 123.224 77.8417 123.224L78.5137 123.176ZM84.9515 119.168C84.9515 117.36 85.5195 115.88 86.6555 114.728C87.7915 113.576 89.2315 113 90.9755 113C92.7195 113 94.1515 113.584 95.2715 114.752C96.3915 115.92 96.9515 117.432 96.9515 119.288C96.9515 121.128 96.3995 122.624 95.2955 123.776C94.2075 124.912 92.7995 125.48 91.0715 125.48C89.3115 125.48 87.8475 124.888 86.6795 123.704C85.5275 122.504 84.9515 120.992 84.9515 119.168ZM91.8635 123.2C92.4555 122.752 92.7515 121.536 92.7515 119.552C92.7515 116.72 92.1035 115.304 90.8075 115.304C90.4075 115.304 90.0955 115.392 89.8715 115.568C89.3915 116.208 89.1515 117.424 89.1515 119.216C89.1515 120.432 89.3195 121.424 89.6555 122.192C89.9915 122.944 90.5035 123.32 91.1915 123.32C91.4155 123.32 91.6395 123.28 91.8635 123.2ZM101.88 115.856C101.88 116.144 101.984 116.408 102.192 116.648C102.4 116.872 103.144 117.32 104.424 117.992C105.704 118.648 106.568 119.264 107.016 119.84C107.464 120.4 107.688 121.04 107.688 121.76C107.688 122.848 107.24 123.744 106.344 124.448C105.448 125.136 104.256 125.48 102.768 125.48C101.088 125.48 99.4158 125.048 97.7518 124.184L99.1198 121.04C100.512 122.112 101.952 122.912 103.44 123.44C103.728 123.184 103.872 122.888 103.872 122.552C103.872 122.248 103.752 121.976 103.512 121.736C103.288 121.496 102.552 121.064 101.304 120.44C100.072 119.8 99.2318 119.208 98.7838 118.664C98.3518 118.104 98.1357 117.472 98.1357 116.768C98.1357 115.648 98.6238 114.744 99.5998 114.056C100.592 113.352 101.872 113 103.44 113C104.896 113 106.136 113.264 107.16 113.792L107.208 114.632C107.208 115.464 107.072 116.304 106.8 117.152H104.688L103.944 114.968L102.84 114.848C102.2 115.04 101.88 115.376 101.88 115.856ZM120.719 127.928L122.015 128.672L121.967 129.848H114.167L114.119 129.008C114.855 128.576 115.671 128.24 116.567 128V123.488L114.167 125.264C112.599 125.28 111.311 124.712 110.303 123.56C109.311 122.408 108.815 120.984 108.815 119.288C108.815 117.432 109.447 115.92 110.711 114.752C111.975 113.568 113.615 112.976 115.631 112.976C116.479 112.976 117.367 113.088 118.295 113.312C119.239 113.536 120.047 113.824 120.719 114.176V127.928ZM115.511 122.264C115.799 122.264 116.151 122.2 116.567 122.072V115.568C115.927 115.28 115.239 115.144 114.503 115.16C113.607 115.96 113.159 117.192 113.159 118.856C113.159 119.816 113.367 120.624 113.783 121.28C114.199 121.936 114.775 122.264 115.511 122.264ZM137.472 123.632L134.28 125.408C133.816 125.376 133.344 125.176 132.864 124.808C132.4 124.44 132.024 123.96 131.736 123.368C130.456 124.344 129.168 125.024 127.872 125.408C127.056 125.408 126.28 125.152 125.544 124.64C124.824 124.128 124.416 123.488 124.32 122.72L124.248 121.352V115.424L122.472 115.088L122.352 113.936C123.776 113.392 125.36 113.096 127.104 113.048L128.4 114.2V120.536C128.4 121.864 128.904 122.528 129.912 122.528C130.408 122.528 130.888 122.424 131.352 122.216V115.352L130.008 115.016L129.888 113.864C131.168 113.352 132.608 113.08 134.208 113.048L135.504 114.2V122.024C135.504 122.44 135.704 122.648 136.104 122.648L136.728 122.624L137.328 122.576L137.472 123.632ZM147.787 119.504L141.739 119.456C141.851 120.496 142.219 121.296 142.843 121.856C143.483 122.416 144.283 122.696 145.243 122.696C146.091 122.696 147.107 122.392 148.291 121.784L148.891 123.152L145.123 125.288L144.019 125.36C142.243 125.36 140.763 124.8 139.579 123.68C138.411 122.56 137.827 121.128 137.827 119.384C137.827 117.608 138.419 116.104 139.603 114.872C140.803 113.624 142.251 113 143.947 113C145.499 113 146.763 113.472 147.739 114.416C148.715 115.344 149.195 116.576 149.179 118.112L147.787 119.504ZM143.299 114.992C142.531 115.472 142.043 116.352 141.835 117.632L145.435 117.416C145.339 116.76 145.091 116.2 144.691 115.736C144.307 115.256 143.843 115.008 143.299 114.992ZM55.112 151.632L51.92 153.408C51.44 153.392 50.96 153.2 50.48 152.832C50 152.464 49.624 151.976 49.352 151.368L46.616 153.408C45.064 153.424 43.784 152.864 42.776 151.728C41.768 150.576 41.264 149.128 41.264 147.384C41.264 145.56 41.856 144.056 43.04 142.872C44.224 141.672 45.76 141.072 47.648 141.072L48.992 141.192V137.712L47.216 137.4L47.096 136.2C48.44 135.72 50.024 135.424 51.848 135.312L53.144 136.512V150C53.144 150.432 53.344 150.648 53.744 150.648L54.368 150.624L54.968 150.576L55.112 151.632ZM45.584 146.952C45.584 147.928 45.792 148.744 46.208 149.4C46.64 150.04 47.224 150.36 47.96 150.36C48.312 150.36 48.656 150.296 48.992 150.168V143.664C48.352 143.376 47.664 143.24 46.928 143.256C46.032 144.12 45.584 145.352 45.584 146.952ZM65.0756 147.504L59.0276 147.456C59.1396 148.496 59.5076 149.296 60.1316 149.856C60.7716 150.416 61.5716 150.696 62.5316 150.696C63.3796 150.696 64.3956 150.392 65.5796 149.784L66.1796 151.152L62.4116 153.288L61.3076 153.36C59.5316 153.36 58.0516 152.8 56.8676 151.68C55.6996 150.56 55.1156 149.128 55.1156 147.384C55.1156 145.608 55.7076 144.104 56.8916 142.872C58.0916 141.624 59.5396 141 61.2356 141C62.7876 141 64.0516 141.472 65.0276 142.416C66.0036 143.344 66.4836 144.576 66.4676 146.112L65.0756 147.504ZM60.5876 142.992C59.8196 143.472 59.3316 144.352 59.1236 145.632L62.7236 145.416C62.6276 144.76 62.3796 144.2 61.9796 143.736C61.5956 143.256 61.1316 143.008 60.5876 142.992ZM73.0676 150.984C73.7716 151.224 74.3476 151.504 74.7956 151.824L74.7476 153H67.1396L67.0916 152.16C67.6516 151.84 68.2596 151.568 68.9156 151.344V137.712L67.1396 137.4L67.0196 136.2C68.3636 135.72 69.9476 135.424 71.7716 135.312L73.0676 136.512V150.984ZM95.1532 148.536C95.1532 150.008 94.5692 151.2 93.4012 152.112C92.2492 153.008 90.7452 153.456 88.8892 153.456C87.9132 153.456 86.8572 153.328 85.7212 153.072C84.6012 152.816 83.6492 152.456 82.8652 151.992L82.8892 151.944L82.8652 151.224C82.8652 149.72 83.0092 148.432 83.2972 147.36H85.2412L86.8012 150.84C87.7132 151.16 88.6412 151.336 89.5852 151.368C90.4492 150.968 90.8812 150.368 90.8812 149.568C90.8812 148.768 90.3372 148.08 89.2492 147.504L86.3212 146.088L85.3852 145.56C83.6892 144.536 82.8412 143.2 82.8412 141.552C82.8412 140.096 83.4412 138.912 84.6412 138C85.8412 137.088 87.3932 136.632 89.2972 136.632C91.0892 136.632 92.8012 136.936 94.4332 137.544C94.3692 139.48 94.2012 141.008 93.9292 142.128H91.7212L90.7852 139.2C89.9852 138.88 89.0572 138.704 88.0012 138.672C87.2812 139.104 86.9212 139.704 86.9212 140.472C86.9212 141 87.1692 141.448 87.6652 141.816C88.1772 142.168 89.0012 142.6 90.1372 143.112C91.2892 143.608 92.2012 144.08 92.8732 144.528C93.5612 144.976 94.1132 145.528 94.5292 146.184C94.9452 146.824 95.1532 147.608 95.1532 148.536ZM110.659 151.632L107.467 153.408C107.003 153.376 106.531 153.176 106.051 152.808C105.587 152.44 105.211 151.96 104.923 151.368C103.643 152.344 102.355 153.024 101.059 153.408C100.243 153.408 99.4671 153.152 98.7311 152.64C98.0111 152.128 97.6031 151.488 97.5071 150.72L97.4351 149.352V143.424L95.6591 143.088L95.5391 141.936C96.9631 141.392 98.5471 141.096 100.291 141.048L101.587 142.2V148.536C101.587 149.864 102.091 150.528 103.099 150.528C103.595 150.528 104.075 150.424 104.539 150.216V143.352L103.195 143.016L103.075 141.864C104.355 141.352 105.795 141.08 107.395 141.048L108.691 142.2V150.024C108.691 150.44 108.891 150.648 109.291 150.648L109.915 150.624L110.515 150.576L110.659 151.632ZM117.062 145.128V150.816C118.134 151.072 119.006 151.408 119.678 151.824L119.63 153H111.182L111.134 152.16C111.63 151.872 112.222 151.608 112.91 151.368V143.424L111.134 143.088L111.014 141.936C112.438 141.392 114.022 141.096 115.766 141.048L117.062 142.848V143.28L118.958 141.144C119.198 141.064 119.502 141.024 119.87 141.024C120.51 141.024 121.094 141.184 121.622 141.504C122.166 141.824 122.542 142.272 122.75 142.848L119.99 146.328C118.918 145.432 118.062 144.944 117.422 144.864L117.062 145.128Z" fill="#6C6E38"/>
</g>
<defs>
<filter id="filter0_d" x="-9" y="0" width="384.252" height="215.389" filterUnits="userSpaceOnUse" color-interpolation-filters="sRGB">
<feFlood flood-opacity="0" result="BackgroundImageFix"/>
<feColorMatrix in="SourceAlpha" type="matrix" values="0 0 0 0 0 0 0 0 0 0 0 0 0 0 0 0 0 0 127 0"/>
<feOffset dy="4"/>
<feGaussianBlur stdDeviation="5"/>
<feColorMatrix type="matrix" values="0 0 0 0 0 0 0 0 0 0 0 0 0 0 0 0 0 0 0.25 0"/>
<feBlend mode="normal" in2="BackgroundImageFix" result="effect1_dropShadow"/>
<feBlend mode="normal" in="SourceGraphic" in2="effect1_dropShadow" result="shape"/>
</filter>
</defs>
</svg>
