<svg width="336" height="241" viewBox="0 0 336 241" fill="none" xmlns="http://www.w3.org/2000/svg">
<g filter="url(#filter0_d)">
<path d="M64.5016 54.5894C58.5016 94.1893 29.6683 121.756 16.0016 130.589C-10.3984 168.989 56.6683 172.923 93.5016 170.09C104.302 165.29 132.668 195.423 145.502 211.09C197.102 251.49 236.668 204.59 250.002 176.09C258.402 157.69 277.168 158.09 285.502 160.59C313.902 165.79 321.335 142.756 321.502 130.589C340.702 64.1889 287.502 70.9228 258.502 82.5898C228.102 104.99 215.502 98.2567 213.002 92.0898C215.002 76.4898 205.502 60.5895 200.502 54.5894C119.302 -33.4106 76.0016 17.9227 64.5016 54.5894Z" fill="#9FA152"/>
<path d="M138.232 123.008C138.264 124.576 138.168 126.24 137.944 128H124.72L124.576 127.232C125.184 126.816 125.864 126.44 126.616 126.104V113.648L124.816 113.384L124.84 112.112H138.112L138.136 112.664C138.136 114.136 137.984 115.568 137.68 116.96H135.28L134.848 114.512L130.96 114.248V119.096L135.976 118.688V121.28L130.96 121.064V125.768L134.992 125.456L135.856 122.816L138.232 123.008ZM145.38 125.984C146.084 126.224 146.66 126.504 147.108 126.824L147.06 128H139.452L139.404 127.16C139.964 126.84 140.572 126.568 141.228 126.344V112.712L139.452 112.4L139.332 111.2C140.676 110.72 142.26 110.424 144.084 110.312L145.38 111.512V125.984ZM161.97 116.216L162.786 116.144C164.114 116.144 165.186 116.68 166.002 117.752C166.834 118.808 167.25 120.128 167.25 121.712C167.25 123.68 166.61 125.296 165.33 126.56C164.05 127.808 162.362 128.432 160.266 128.432C158.714 128.432 157.042 128.128 155.25 127.52L155.274 127.496V112.712L153.474 112.4L153.378 111.2C154.722 110.72 156.306 110.424 158.13 110.312L159.426 111.512V118.064L161.97 116.216ZM161.514 126.176C162.49 125.328 162.978 124.08 162.978 122.432C162.978 121.488 162.762 120.688 162.33 120.032C161.898 119.376 161.322 119.048 160.602 119.048C160.218 119.048 159.826 119.144 159.426 119.336V126.008C159.858 126.152 160.33 126.224 160.842 126.224L161.514 126.176ZM167.952 122.168C167.952 120.36 168.52 118.88 169.656 117.728C170.792 116.576 172.232 116 173.976 116C175.72 116 177.152 116.584 178.272 117.752C179.392 118.92 179.952 120.432 179.952 122.288C179.952 124.128 179.4 125.624 178.296 126.776C177.208 127.912 175.8 128.48 174.072 128.48C172.312 128.48 170.848 127.888 169.68 126.704C168.528 125.504 167.952 123.992 167.952 122.168ZM174.864 126.2C175.456 125.752 175.752 124.536 175.752 122.552C175.752 119.72 175.104 118.304 173.808 118.304C173.408 118.304 173.096 118.392 172.872 118.568C172.392 119.208 172.152 120.424 172.152 122.216C172.152 123.432 172.32 124.424 172.656 125.192C172.992 125.944 173.504 126.32 174.192 126.32C174.416 126.32 174.64 126.28 174.864 126.2ZM184.88 118.856C184.88 119.144 184.984 119.408 185.192 119.648C185.4 119.872 186.144 120.32 187.424 120.992C188.704 121.648 189.568 122.264 190.016 122.84C190.464 123.4 190.688 124.04 190.688 124.76C190.688 125.848 190.24 126.744 189.344 127.448C188.448 128.136 187.256 128.48 185.768 128.48C184.088 128.48 182.416 128.048 180.752 127.184L182.12 124.04C183.512 125.112 184.952 125.912 186.44 126.44C186.728 126.184 186.872 125.888 186.872 125.552C186.872 125.248 186.752 124.976 186.512 124.736C186.288 124.496 185.552 124.064 184.304 123.44C183.072 122.8 182.232 122.208 181.784 121.664C181.352 121.104 181.136 120.472 181.136 119.768C181.136 118.648 181.624 117.744 182.6 117.056C183.592 116.352 184.872 116 186.44 116C187.896 116 189.136 116.264 190.16 116.792L190.208 117.632C190.208 118.464 190.072 119.304 189.8 120.152H187.688L186.944 117.968L185.84 117.848C185.2 118.04 184.88 118.376 184.88 118.856ZM203.719 130.928L205.015 131.672L204.967 132.848H197.167L197.119 132.008C197.855 131.576 198.671 131.24 199.567 131V126.488L197.167 128.264C195.599 128.28 194.311 127.712 193.303 126.56C192.311 125.408 191.815 123.984 191.815 122.288C191.815 120.432 192.447 118.92 193.711 117.752C194.975 116.568 196.615 115.976 198.631 115.976C199.479 115.976 200.367 116.088 201.295 116.312C202.239 116.536 203.047 116.824 203.719 117.176V130.928ZM198.511 125.264C198.799 125.264 199.151 125.2 199.567 125.072V118.568C198.927 118.28 198.239 118.144 197.503 118.16C196.607 118.96 196.159 120.192 196.159 121.856C196.159 122.816 196.367 123.624 196.783 124.28C197.199 124.936 197.775 125.264 198.511 125.264ZM220.472 126.632L217.28 128.408C216.816 128.376 216.344 128.176 215.864 127.808C215.4 127.44 215.024 126.96 214.736 126.368C213.456 127.344 212.168 128.024 210.872 128.408C210.056 128.408 209.28 128.152 208.544 127.64C207.824 127.128 207.416 126.488 207.32 125.72L207.248 124.352V118.424L205.472 118.088L205.352 116.936C206.776 116.392 208.36 116.096 210.104 116.048L211.4 117.2V123.536C211.4 124.864 211.904 125.528 212.912 125.528C213.408 125.528 213.888 125.424 214.352 125.216V118.352L213.008 118.016L212.888 116.864C214.168 116.352 215.608 116.08 217.208 116.048L218.504 117.2V125.024C218.504 125.44 218.704 125.648 219.104 125.648L219.728 125.624L220.328 125.576L220.472 126.632ZM230.787 122.504L224.739 122.456C224.851 123.496 225.219 124.296 225.843 124.856C226.483 125.416 227.283 125.696 228.243 125.696C229.091 125.696 230.107 125.392 231.291 124.784L231.891 126.152L228.123 128.288L227.019 128.36C225.243 128.36 223.763 127.8 222.579 126.68C221.411 125.56 220.827 124.128 220.827 122.384C220.827 120.608 221.419 119.104 222.603 117.872C223.803 116.624 225.251 116 226.947 116C228.499 116 229.763 116.472 230.739 117.416C231.715 118.344 232.195 119.576 232.179 121.112L230.787 122.504ZM226.299 117.992C225.531 118.472 225.043 119.352 224.835 120.632L228.435 120.416C228.339 119.76 228.091 119.2 227.691 118.736C227.307 118.256 226.843 118.008 226.299 117.992ZM138.112 154.632L134.92 156.408C134.44 156.392 133.96 156.2 133.48 155.832C133 155.464 132.624 154.976 132.352 154.368L129.616 156.408C128.064 156.424 126.784 155.864 125.776 154.728C124.768 153.576 124.264 152.128 124.264 150.384C124.264 148.56 124.856 147.056 126.04 145.872C127.224 144.672 128.76 144.072 130.648 144.072L131.992 144.192V140.712L130.216 140.4L130.096 139.2C131.44 138.72 133.024 138.424 134.848 138.312L136.144 139.512V153C136.144 153.432 136.344 153.648 136.744 153.648L137.368 153.624L137.968 153.576L138.112 154.632ZM128.584 149.952C128.584 150.928 128.792 151.744 129.208 152.4C129.64 153.04 130.224 153.36 130.96 153.36C131.312 153.36 131.656 153.296 131.992 153.168V146.664C131.352 146.376 130.664 146.24 129.928 146.256C129.032 147.12 128.584 148.352 128.584 149.952ZM148.076 150.504L142.028 150.456C142.14 151.496 142.508 152.296 143.132 152.856C143.772 153.416 144.572 153.696 145.532 153.696C146.38 153.696 147.396 153.392 148.58 152.784L149.18 154.152L145.412 156.288L144.308 156.36C142.532 156.36 141.052 155.8 139.868 154.68C138.7 153.56 138.116 152.128 138.116 150.384C138.116 148.608 138.708 147.104 139.892 145.872C141.092 144.624 142.54 144 144.236 144C145.788 144 147.052 144.472 148.028 145.416C149.004 146.344 149.484 147.576 149.468 149.112L148.076 150.504ZM143.588 145.992C142.82 146.472 142.332 147.352 142.124 148.632L145.724 148.416C145.628 147.76 145.38 147.2 144.98 146.736C144.596 146.256 144.132 146.008 143.588 145.992ZM156.068 153.984C156.772 154.224 157.348 154.504 157.796 154.824L157.748 156H150.14L150.092 155.16C150.652 154.84 151.26 154.568 151.916 154.344V140.712L150.14 140.4L150.02 139.2C151.364 138.72 152.948 138.424 154.772 138.312L156.068 139.512V153.984ZM182.953 140.88C182.377 141.28 181.737 141.632 181.033 141.936L180.913 156L177.073 156.312L169.897 145.536L170.233 148.44V154.392L172.345 154.728L172.321 156H165.337L165.193 155.232C165.801 154.816 166.481 154.44 167.233 154.104V141.696L165.481 141.384L165.505 140.112H171.385L171.361 140.136L178.393 150.936L178.057 147.936V141.768L175.681 141.384L175.705 140.112H182.809L182.953 140.88ZM182.952 150.168C182.952 148.36 183.52 146.88 184.656 145.728C185.792 144.576 187.232 144 188.976 144C190.72 144 192.152 144.584 193.272 145.752C194.392 146.92 194.952 148.432 194.952 150.288C194.952 152.128 194.4 153.624 193.296 154.776C192.208 155.912 190.8 156.48 189.072 156.48C187.312 156.48 185.848 155.888 184.68 154.704C183.528 153.504 182.952 151.992 182.952 150.168ZM189.864 154.2C190.456 153.752 190.752 152.536 190.752 150.552C190.752 147.72 190.104 146.304 188.808 146.304C188.408 146.304 188.096 146.392 187.872 146.568C187.392 147.208 187.152 148.424 187.152 150.216C187.152 151.432 187.32 152.424 187.656 153.192C187.992 153.944 188.504 154.32 189.192 154.32C189.416 154.32 189.64 154.28 189.864 154.2ZM201.656 148.128V153.816C202.728 154.072 203.6 154.408 204.272 154.824L204.224 156H195.776L195.728 155.16C196.224 154.872 196.816 154.608 197.504 154.368V146.424L195.728 146.088L195.608 144.936C197.032 144.392 198.616 144.096 200.36 144.048L201.656 145.848V146.28L203.552 144.144C203.792 144.064 204.096 144.024 204.464 144.024C205.104 144.024 205.688 144.184 206.216 144.504C206.76 144.824 207.136 145.272 207.344 145.848L204.584 149.328C203.512 148.432 202.656 147.944 202.016 147.864L201.656 148.128ZM214.186 153.336C214.746 153.336 215.386 153.264 216.106 153.12L216.274 154.368L212.314 156.408C211.514 156.44 210.778 156.192 210.106 155.664C209.45 155.12 209.122 154.488 209.122 153.768V147.336H207.37L207.298 146.04C207.826 145.592 208.506 145.128 209.338 144.648L210.658 141.432H212.554L213.154 144.648H216.466L216.49 145.848L215.29 147.36H213.274V152.304C213.274 152.992 213.578 153.336 214.186 153.336ZM227.13 150.504L221.082 150.456C221.194 151.496 221.562 152.296 222.186 152.856C222.826 153.416 223.626 153.696 224.586 153.696C225.434 153.696 226.45 153.392 227.634 152.784L228.234 154.152L224.466 156.288L223.362 156.36C221.586 156.36 220.106 155.8 218.922 154.68C217.754 153.56 217.17 152.128 217.17 150.384C217.17 148.608 217.762 147.104 218.946 145.872C220.146 144.624 221.594 144 223.29 144C224.842 144 226.106 144.472 227.082 145.416C228.058 146.344 228.538 147.576 228.522 149.112L227.13 150.504ZM222.642 145.992C221.874 146.472 221.386 147.352 221.178 148.632L224.778 148.416C224.682 147.76 224.434 147.2 224.034 146.736C223.65 146.256 223.186 146.008 222.642 145.992Z" fill="#6C6E38"/>
</g>
<defs>
<filter id="filter0_d" x="0" y="0" width="335.582" height="240.814" filterUnits="userSpaceOnUse" color-interpolation-filters="sRGB">
<feFlood flood-opacity="0" result="BackgroundImageFix"/>
<feColorMatrix in="SourceAlpha" type="matrix" values="0 0 0 0 0 0 0 0 0 0 0 0 0 0 0 0 0 0 127 0"/>
<feOffset dy="4"/>
<feGaussianBlur stdDeviation="5"/>
<feColorMatrix type="matrix" values="0 0 0 0 0 0 0 0 0 0 0 0 0 0 0 0 0 0 0.25 0"/>
<feBlend mode="normal" in2="BackgroundImageFix" result="effect1_dropShadow"/>
<feBlend mode="normal" in="SourceGraphic" in2="effect1_dropShadow" result="shape"/>
</filter>
</defs>
</svg>
