<svg width="680" height="475" viewBox="0 0 680 475" fill="none" xmlns="http://www.w3.org/2000/svg">
<g filter="url(#filter0_d)">
<rect x="10" y="11" width="660" height="450" rx="32" fill="#BFCCD3"/>
<rect x="12" y="13" width="656" height="446" rx="30" stroke="#F2F2F2" stroke-width="4"/>
</g>
<rect x="476" width="154.545" height="23" fill="#BFCCD3"/>
<path d="M503.86 12.84C503.887 14.1467 503.807 15.5333 503.62 17H492.6L492.48 16.36C492.987 16.0133 493.553 15.7 494.18 15.42V5.04L492.68 4.82L492.7 3.76H503.76L503.78 4.22C503.78 5.44667 503.653 6.64 503.4 7.8H501.4L501.04 5.76L497.8 5.54V9.58L501.98 9.24V11.4L497.8 11.22V15.14L501.16 14.88L501.88 12.68L503.86 12.84ZM509.817 15.32C510.403 15.52 510.883 15.7533 511.257 16.02L511.217 17H504.877L504.837 16.3C505.303 16.0333 505.81 15.8067 506.357 15.62V4.26L504.877 4L504.777 3C505.897 2.6 507.217 2.35333 508.737 2.26L509.817 3.26V15.32ZM528.601 3.82L528.621 4.3C528.621 5.59333 528.495 6.8 528.241 7.92H526.241L525.861 5.74L522.641 5.52V9.98L527.081 9.64V11.92L522.641 11.72V15.56L525.081 15.94L525.061 17H517.561L517.441 16.36C517.961 16.0133 518.488 15.72 519.021 15.48V5.04L517.541 4.82L517.561 3.76H528.621L528.601 3.82ZM536.731 12.42L531.691 12.38C531.784 13.2467 532.091 13.9133 532.611 14.38C533.144 14.8467 533.811 15.08 534.611 15.08C535.318 15.08 536.164 14.8267 537.151 14.32L537.651 15.46L534.511 17.24L533.591 17.3C532.111 17.3 530.878 16.8333 529.891 15.9C528.918 14.9667 528.431 13.7733 528.431 12.32C528.431 10.84 528.924 9.58667 529.911 8.56C530.911 7.52 532.118 7 533.531 7C534.824 7 535.878 7.39333 536.691 8.18C537.504 8.95333 537.904 9.98 537.891 11.26L536.731 12.42ZM532.991 8.66C532.351 9.06 531.944 9.79333 531.771 10.86L534.771 10.68C534.691 10.1333 534.484 9.66667 534.151 9.28C533.831 8.88 533.444 8.67333 532.991 8.66ZM549.296 15.32C549.883 15.52 550.363 15.7533 550.736 16.02L550.676 17H545.836V11.46C545.836 10.1133 545.409 9.44 544.556 9.44C544.169 9.44 543.736 9.56 543.256 9.8V15.38C543.736 15.5933 544.123 15.8067 544.416 16.02L544.376 17H538.356L538.316 16.3C538.729 16.06 539.223 15.84 539.796 15.64V9.02L538.316 8.74L538.216 7.78C539.403 7.32667 540.723 7.08 542.176 7.04L543.256 8.12V8.76C544.336 7.94667 545.343 7.39333 546.276 7.1C547.529 7.14 548.456 7.62 549.056 8.54C549.203 8.80667 549.283 9.41333 549.296 10.36V15.32ZM550.931 12.14C550.931 10.6333 551.404 9.4 552.351 8.44C553.298 7.48 554.498 7 555.951 7C557.404 7 558.598 7.48667 559.531 8.46C560.464 9.43333 560.931 10.6933 560.931 12.24C560.931 13.7733 560.471 15.02 559.551 15.98C558.644 16.9267 557.471 17.4 556.031 17.4C554.564 17.4 553.344 16.9067 552.371 15.92C551.411 14.92 550.931 13.66 550.931 12.14ZM556.691 15.5C557.184 15.1267 557.431 14.1133 557.431 12.46C557.431 10.1 556.891 8.92 555.811 8.92C555.478 8.92 555.218 8.99333 555.031 9.14C554.631 9.67333 554.431 10.6867 554.431 12.18C554.431 13.1933 554.571 14.02 554.851 14.66C555.131 15.2867 555.558 15.6 556.131 15.6C556.318 15.6 556.504 15.5667 556.691 15.5ZM553.951 5.06L557.031 1.3L559.191 3.2L558.171 4.06L556.191 5.94L555.691 6.42L553.951 5.06ZM578.418 15.28C579.058 15.5067 579.571 15.7533 579.958 16.02L579.898 17H574.958V11.46C574.958 10.1133 574.531 9.44 573.678 9.44C573.304 9.44 572.891 9.54667 572.438 9.76L572.458 15.36C572.871 15.5333 573.271 15.7533 573.658 16.02L573.598 17H568.998V11.46C568.998 10.1133 568.571 9.44 567.718 9.44C567.384 9.44 566.984 9.54 566.518 9.74V15.38C566.998 15.5933 567.384 15.8067 567.678 16.02L567.638 17H561.618L561.578 16.3C561.991 16.06 562.484 15.84 563.058 15.64V9.02L561.578 8.74L561.478 7.78C562.664 7.32667 563.984 7.08 565.438 7.04L566.518 8.12V8.68C567.571 7.90667 568.544 7.38 569.438 7.1C570.691 7.14 571.618 7.62 572.218 8.54L572.338 8.8C573.418 7.97333 574.438 7.40667 575.398 7.1C576.651 7.14 577.578 7.62 578.178 8.54C578.324 8.80667 578.404 9.41333 578.418 10.36V15.28ZM588.45 12.42L583.41 12.38C583.503 13.2467 583.81 13.9133 584.33 14.38C584.863 14.8467 585.53 15.08 586.33 15.08C587.036 15.08 587.883 14.8267 588.87 14.32L589.37 15.46L586.23 17.24L585.31 17.3C583.83 17.3 582.596 16.8333 581.61 15.9C580.636 14.9667 580.15 13.7733 580.15 12.32C580.15 10.84 580.643 9.58667 581.63 8.56C582.63 7.52 583.836 7 585.25 7C586.543 7 587.596 7.39333 588.41 8.18C589.223 8.95333 589.623 9.98 589.61 11.26L588.45 12.42ZM584.71 8.66C584.07 9.06 583.663 9.79333 583.49 10.86L586.49 10.68C586.41 10.1333 586.203 9.66667 585.87 9.28C585.55 8.88 585.163 8.67333 584.71 8.66ZM601.015 15.32C601.602 15.52 602.082 15.7533 602.455 16.02L602.395 17H597.555V11.46C597.555 10.1133 597.128 9.44 596.275 9.44C595.888 9.44 595.455 9.56 594.975 9.8V15.38C595.455 15.5933 595.842 15.8067 596.135 16.02L596.095 17H590.075L590.035 16.3C590.448 16.06 590.942 15.84 591.515 15.64V9.02L590.035 8.74L589.935 7.78C591.122 7.32667 592.442 7.08 593.895 7.04L594.975 8.12V8.76C596.055 7.94667 597.062 7.39333 597.995 7.1C599.248 7.14 600.175 7.62 600.775 8.54C600.922 8.80667 601.002 9.41333 601.015 10.36V15.32ZM602.65 12.14C602.65 10.6333 603.123 9.4 604.07 8.44C605.016 7.48 606.216 7 607.67 7C609.123 7 610.316 7.48667 611.25 8.46C612.183 9.43333 612.65 10.6933 612.65 12.24C612.65 13.7733 612.19 15.02 611.27 15.98C610.363 16.9267 609.19 17.4 607.75 17.4C606.283 17.4 605.063 16.9067 604.09 15.92C603.13 14.92 602.65 13.66 602.65 12.14ZM608.41 15.5C608.903 15.1267 609.15 14.1133 609.15 12.46C609.15 10.1 608.61 8.92 607.53 8.92C607.196 8.92 606.936 8.99333 606.75 9.14C606.35 9.67333 606.15 10.6867 606.15 12.18C606.15 13.1933 606.29 14.02 606.57 14.66C606.85 15.2867 607.276 15.6 607.85 15.6C608.036 15.6 608.223 15.5667 608.41 15.5Z" fill="#F2F2F2"/>
<defs>
<filter id="filter0_d" x="0" y="5" width="680" height="470" filterUnits="userSpaceOnUse" color-interpolation-filters="sRGB">
<feFlood flood-opacity="0" result="BackgroundImageFix"/>
<feColorMatrix in="SourceAlpha" type="matrix" values="0 0 0 0 0 0 0 0 0 0 0 0 0 0 0 0 0 0 127 0"/>
<feOffset dy="4"/>
<feGaussianBlur stdDeviation="5"/>
<feColorMatrix type="matrix" values="0 0 0 0 1 0 0 0 0 1 0 0 0 0 1 0 0 0 0.25 0"/>
<feBlend mode="normal" in2="BackgroundImageFix" result="effect1_dropShadow"/>
<feBlend mode="normal" in="SourceGraphic" in2="effect1_dropShadow" result="shape"/>
</filter>
</defs>
</svg>
