<svg width="680" height="249" viewBox="0 0 680 249" fill="none" xmlns="http://www.w3.org/2000/svg">
<g filter="url(#filter0_d)">
<rect x="10" y="11" width="660" height="224" rx="32" fill="#BFCCD3"/>
<rect x="11.5" y="12.5" width="657" height="221" rx="30.5" stroke="#0026F5" stroke-width="3"/>
</g>
<rect x="56" width="154.545" height="23" fill="#BFCCD3"/>
<path d="M88.38 5.72V20H99.22V17.36H91.52V13.86H98.44V11.42H91.52V8.36H99.06V5.72H88.38ZM101.129 5.72V20H103.969V5.72H101.129ZM115.211 17.36V8.36H117.451C118.225 8.36 118.871 8.47333 119.391 8.7C119.925 8.91333 120.351 9.22667 120.671 9.64C120.991 10.0533 121.218 10.5533 121.351 11.14C121.498 11.7133 121.571 12.36 121.571 13.08C121.571 13.8667 121.471 14.5333 121.271 15.08C121.071 15.6267 120.805 16.0733 120.471 16.42C120.138 16.7533 119.758 16.9933 119.331 17.14C118.905 17.2867 118.465 17.36 118.011 17.36H115.211ZM112.071 5.72V20H118.231C119.325 20 120.271 19.82 121.071 19.46C121.885 19.0867 122.558 18.58 123.091 17.94C123.638 17.3 124.045 16.54 124.311 15.66C124.578 14.78 124.711 13.82 124.711 12.78C124.711 11.5933 124.545 10.56 124.211 9.68C123.891 8.8 123.438 8.06667 122.851 7.48C122.278 6.89333 121.591 6.45333 120.791 6.16C120.005 5.86667 119.151 5.72 118.231 5.72H112.071ZM126.596 9.66V20H129.436V15.34C129.436 14.8733 129.482 14.44 129.576 14.04C129.669 13.64 129.822 13.2933 130.036 13C130.262 12.6933 130.556 12.4533 130.916 12.28C131.276 12.1067 131.716 12.02 132.236 12.02C132.409 12.02 132.589 12.0333 132.776 12.06C132.962 12.0733 133.122 12.0933 133.256 12.12V9.48C133.029 9.41333 132.822 9.38 132.636 9.38C132.276 9.38 131.929 9.43333 131.596 9.54C131.262 9.64667 130.949 9.8 130.656 10C130.362 10.1867 130.102 10.42 129.876 10.7C129.649 10.9667 129.469 11.26 129.336 11.58H129.296V9.66H126.596ZM144.069 20V9.66H141.229V15.08C141.229 16.1333 141.056 16.8933 140.709 17.36C140.362 17.8133 139.802 18.04 139.029 18.04C138.349 18.04 137.876 17.8333 137.609 17.42C137.342 16.9933 137.209 16.3533 137.209 15.5V9.66H134.369V16.02C134.369 16.66 134.422 17.2467 134.529 17.78C134.649 18.3 134.849 18.7467 135.129 19.12C135.409 19.48 135.789 19.76 136.269 19.96C136.762 20.16 137.389 20.26 138.149 20.26C138.749 20.26 139.336 20.1267 139.909 19.86C140.482 19.5933 140.949 19.16 141.309 18.56H141.369V20H144.069ZM149.145 8.06V5.72H146.305V8.06H149.145ZM146.305 9.66V20H149.145V9.66H146.305ZM158.721 14.8C158.721 15.2267 158.681 15.64 158.601 16.04C158.521 16.44 158.387 16.8 158.201 17.12C158.014 17.4267 157.761 17.6733 157.441 17.86C157.134 18.0467 156.747 18.14 156.281 18.14C155.841 18.14 155.461 18.0467 155.141 17.86C154.834 17.66 154.574 17.4067 154.361 17.1C154.161 16.78 154.014 16.42 153.921 16.02C153.827 15.62 153.781 15.22 153.781 14.82C153.781 14.3933 153.821 13.9867 153.901 13.6C153.994 13.2 154.134 12.8467 154.321 12.54C154.521 12.2333 154.781 11.9867 155.101 11.8C155.421 11.6133 155.814 11.52 156.281 11.52C156.747 11.52 157.134 11.6133 157.441 11.8C157.747 11.9867 157.994 12.2333 158.181 12.54C158.381 12.8333 158.521 13.18 158.601 13.58C158.681 13.9667 158.721 14.3733 158.721 14.8ZM158.761 18.68V20H161.461V5.72H158.621V10.92H158.581C158.261 10.4133 157.821 10.0333 157.261 9.78C156.714 9.51333 156.134 9.38 155.521 9.38C154.761 9.38 154.094 9.53333 153.521 9.84C152.947 10.1333 152.467 10.5267 152.081 11.02C151.707 11.5133 151.421 12.0867 151.221 12.74C151.034 13.38 150.941 14.0467 150.941 14.74C150.941 15.46 151.034 16.1533 151.221 16.82C151.421 17.4867 151.707 18.08 152.081 18.6C152.467 19.1067 152.954 19.5133 153.541 19.82C154.127 20.1133 154.807 20.26 155.581 20.26C156.261 20.26 156.867 20.14 157.401 19.9C157.947 19.6467 158.387 19.24 158.721 18.68H158.761ZM163.487 12.84C163.527 12.1733 163.694 11.62 163.987 11.18C164.281 10.74 164.654 10.3867 165.107 10.12C165.561 9.85333 166.067 9.66667 166.627 9.56C167.201 9.44 167.774 9.38 168.347 9.38C168.867 9.38 169.394 9.42 169.927 9.5C170.461 9.56667 170.947 9.70667 171.387 9.92C171.827 10.1333 172.187 10.4333 172.467 10.82C172.747 11.1933 172.887 11.6933 172.887 12.32V17.7C172.887 18.1667 172.914 18.6133 172.967 19.04C173.021 19.4667 173.114 19.7867 173.247 20H170.367C170.314 19.84 170.267 19.68 170.227 19.52C170.201 19.3467 170.181 19.1733 170.167 19C169.714 19.4667 169.181 19.7933 168.567 19.98C167.954 20.1667 167.327 20.26 166.687 20.26C166.194 20.26 165.734 20.2 165.307 20.08C164.881 19.96 164.507 19.7733 164.187 19.52C163.867 19.2667 163.614 18.9467 163.427 18.56C163.254 18.1733 163.167 17.7133 163.167 17.18C163.167 16.5933 163.267 16.1133 163.467 15.74C163.681 15.3533 163.947 15.0467 164.267 14.82C164.601 14.5933 164.974 14.4267 165.387 14.32C165.814 14.2 166.241 14.1067 166.667 14.04C167.094 13.9733 167.514 13.92 167.927 13.88C168.341 13.84 168.707 13.78 169.027 13.7C169.347 13.62 169.601 13.5067 169.787 13.36C169.974 13.2 170.061 12.9733 170.047 12.68C170.047 12.3733 169.994 12.1333 169.887 11.96C169.794 11.7733 169.661 11.6333 169.487 11.54C169.327 11.4333 169.134 11.3667 168.907 11.34C168.694 11.3 168.461 11.28 168.207 11.28C167.647 11.28 167.207 11.4 166.887 11.64C166.567 11.88 166.381 12.28 166.327 12.84H163.487ZM170.047 14.94C169.927 15.0467 169.774 15.1333 169.587 15.2C169.414 15.2533 169.221 15.3 169.007 15.34C168.807 15.38 168.594 15.4133 168.367 15.44C168.141 15.4667 167.914 15.5 167.687 15.54C167.474 15.58 167.261 15.6333 167.047 15.7C166.847 15.7667 166.667 15.86 166.507 15.98C166.361 16.0867 166.241 16.2267 166.147 16.4C166.054 16.5733 166.007 16.7933 166.007 17.06C166.007 17.3133 166.054 17.5267 166.147 17.7C166.241 17.8733 166.367 18.0133 166.527 18.12C166.687 18.2133 166.874 18.28 167.087 18.32C167.301 18.36 167.521 18.38 167.747 18.38C168.307 18.38 168.741 18.2867 169.047 18.1C169.354 17.9133 169.581 17.6933 169.727 17.44C169.874 17.1733 169.961 16.9067 169.987 16.64C170.027 16.3733 170.047 16.16 170.047 16V14.94Z" fill="#0026F5"/>
<defs>
<filter id="filter0_d" x="0" y="5" width="680" height="244" filterUnits="userSpaceOnUse" color-interpolation-filters="sRGB">
<feFlood flood-opacity="0" result="BackgroundImageFix"/>
<feColorMatrix in="SourceAlpha" type="matrix" values="0 0 0 0 0 0 0 0 0 0 0 0 0 0 0 0 0 0 127 0"/>
<feOffset dy="4"/>
<feGaussianBlur stdDeviation="5"/>
<feColorMatrix type="matrix" values="0 0 0 0 1 0 0 0 0 1 0 0 0 0 1 0 0 0 0.25 0"/>
<feBlend mode="normal" in2="BackgroundImageFix" result="effect1_dropShadow"/>
<feBlend mode="normal" in="SourceGraphic" in2="effect1_dropShadow" result="shape"/>
</filter>
</defs>
</svg>
