<svg width="680" height="249" viewBox="0 0 680 249" fill="none" xmlns="http://www.w3.org/2000/svg">
<g filter="url(#filter0_d)">
<rect x="10" y="11" width="660" height="224" rx="32" fill="#BFCCD3"/>
<rect x="12" y="13" width="656" height="220" rx="30" stroke="#1C49F0" stroke-width="4"/>
</g>
<rect x="56" width="154.545" height="23" fill="#BFCCD3"/>
<path d="M98.86 12.84C98.8867 14.1467 98.8067 15.5333 98.62 17H87.6L87.48 16.36C87.9867 16.0133 88.5533 15.7 89.18 15.42V5.04L87.68 4.82L87.7 3.76H98.76L98.78 4.22C98.78 5.44667 98.6533 6.64 98.4 7.8H96.4L96.04 5.76L92.8 5.54V9.58L96.98 9.24V11.4L92.8 11.22V15.14L96.16 14.88L96.88 12.68L98.86 12.84ZM104.817 15.32C105.403 15.52 105.883 15.7533 106.257 16.02L106.217 17H99.8767L99.8367 16.3C100.303 16.0333 100.81 15.8067 101.357 15.62V4.26L99.8767 4L99.7767 3C100.897 2.6 102.217 2.35333 103.737 2.26L104.817 3.26V15.32ZM119.381 3.6C120.848 3.6 122.108 3.92 123.161 4.56C124.215 5.2 125.008 6.03333 125.541 7.06C126.088 8.07333 126.361 9.14 126.361 10.26C126.361 12.22 125.735 13.8267 124.481 15.08C123.228 16.32 121.575 16.96 119.521 17H112.541L112.421 16.36C112.928 16.0133 113.495 15.7 114.121 15.42V5.02L112.701 4.82L112.721 3.76C114.735 3.65333 116.955 3.6 119.381 3.6ZM119.081 15.16C120.135 15.16 120.981 14.72 121.621 13.84C122.261 12.9467 122.581 11.8133 122.581 10.44C122.581 9.38667 122.368 8.38667 121.941 7.44C121.528 6.49333 120.968 5.79333 120.261 5.34L117.741 5.64V14.96C118.195 15.0933 118.641 15.16 119.081 15.16ZM131.459 10.44V15.18C132.353 15.3933 133.079 15.6733 133.639 16.02L133.599 17H126.559L126.519 16.3C126.933 16.06 127.426 15.84 127.999 15.64V9.02L126.519 8.74L126.419 7.78C127.606 7.32667 128.926 7.08 130.379 7.04L131.459 8.54V8.9L133.039 7.12C133.239 7.05333 133.493 7.02 133.799 7.02C134.333 7.02 134.819 7.15333 135.259 7.42C135.713 7.68667 136.026 8.06 136.199 8.54L133.899 11.44C133.006 10.6933 132.293 10.2867 131.759 10.22L131.459 10.44ZM148.721 15.86L146.061 17.34C145.674 17.3133 145.281 17.1467 144.881 16.84C144.494 16.5333 144.181 16.1333 143.941 15.64C142.874 16.4533 141.801 17.02 140.721 17.34C140.041 17.34 139.394 17.1267 138.781 16.7C138.181 16.2733 137.841 15.74 137.761 15.1L137.701 13.96V9.02L136.221 8.74L136.121 7.78C137.308 7.32667 138.628 7.08 140.081 7.04L141.161 8V13.28C141.161 14.3867 141.581 14.94 142.421 14.94C142.834 14.94 143.234 14.8533 143.621 14.68V8.96L142.501 8.68L142.401 7.72C143.468 7.29333 144.668 7.06667 146.001 7.04L147.081 8V14.52C147.081 14.8667 147.248 15.04 147.581 15.04L148.101 15.02L148.601 14.98L148.721 15.86ZM152.437 5.98C151.517 5.56667 150.724 4.96 150.057 4.16C150.59 3.13333 151.25 2.33333 152.037 1.76C152.93 2.22667 153.684 2.90667 154.297 3.8C153.857 4.68 153.237 5.40667 152.437 5.98ZM153.977 15.32C154.564 15.52 155.044 15.7533 155.417 16.02L155.377 17H149.037L148.997 16.3C149.464 16.0333 149.97 15.8067 150.517 15.62V9.02L149.037 8.74L148.937 7.78C150.124 7.32667 151.444 7.08 152.897 7.04L153.977 8V15.32ZM167.451 15.86L164.791 17.34C164.391 17.3267 163.991 17.1667 163.591 16.86C163.191 16.5533 162.878 16.1467 162.651 15.64L160.371 17.34C159.078 17.3533 158.011 16.8867 157.171 15.94C156.331 14.98 155.911 13.7733 155.911 12.32C155.911 10.8 156.405 9.54667 157.391 8.56C158.378 7.56 159.658 7.06 161.231 7.06L162.351 7.16V4.26L160.871 4L160.771 3C161.891 2.6 163.211 2.35333 164.731 2.26L165.811 3.26V14.5C165.811 14.86 165.978 15.04 166.311 15.04L166.831 15.02L167.331 14.98L167.451 15.86ZM159.511 11.96C159.511 12.7733 159.685 13.4533 160.031 14C160.391 14.5333 160.878 14.8 161.491 14.8C161.785 14.8 162.071 14.7467 162.351 14.64V9.22C161.818 8.98 161.245 8.86667 160.631 8.88C159.885 9.6 159.511 10.6267 159.511 11.96ZM178.354 15.86L175.714 17.34C175.341 17.3267 174.968 17.1867 174.594 16.92C174.221 16.6533 173.914 16.3067 173.674 15.88L171.554 17.26L170.874 17.32C170.008 17.32 169.281 17.0667 168.694 16.56C168.121 16.0533 167.834 15.44 167.834 14.72C167.834 13.72 168.374 12.9333 169.454 12.36L173.254 12.28V10.64C173.254 9.61333 172.948 8.94 172.334 8.62C171.908 8.64667 171.534 8.72667 171.214 8.86L170.734 11.06L168.774 11.1C168.521 10.38 168.394 9.62 168.394 8.82L168.434 8.08C169.234 7.77333 170.161 7.51333 171.214 7.3C172.268 7.07333 173.081 6.96 173.654 6.96C174.841 6.96 175.781 7.44667 176.474 8.42C176.621 8.67333 176.701 9.18 176.714 9.94V14.52C176.714 14.8667 176.881 15.04 177.214 15.04L177.754 15.02L178.234 14.98L178.354 15.86ZM171.254 14.5C171.254 14.8467 171.368 15.1333 171.594 15.36C171.994 15.3333 172.548 15.2067 173.254 14.98V13.5C171.921 13.4733 171.254 13.8067 171.254 14.5Z" fill="#0026F5"/>
<defs>
<filter id="filter0_d" x="0" y="5" width="680" height="244" filterUnits="userSpaceOnUse" color-interpolation-filters="sRGB">
<feFlood flood-opacity="0" result="BackgroundImageFix"/>
<feColorMatrix in="SourceAlpha" type="matrix" values="0 0 0 0 0 0 0 0 0 0 0 0 0 0 0 0 0 0 127 0"/>
<feOffset dy="4"/>
<feGaussianBlur stdDeviation="5"/>
<feColorMatrix type="matrix" values="0 0 0 0 1 0 0 0 0 1 0 0 0 0 1 0 0 0 0.25 0"/>
<feBlend mode="normal" in2="BackgroundImageFix" result="effect1_dropShadow"/>
<feBlend mode="normal" in="SourceGraphic" in2="effect1_dropShadow" result="shape"/>
</filter>
</defs>
</svg>
