<svg width="660" height="461" viewBox="0 0 660 461" fill="none" xmlns="http://www.w3.org/2000/svg">
<rect x="1.5" y="12.5" width="657" height="447" rx="30.5" fill="#BFCCD3" stroke="#0026F5" stroke-width="3"/>
<rect x="466" width="154.545" height="23" fill="#BFCCD3"/>
<path d="M483.38 5.72V20H494.22V17.36H486.52V13.86H493.44V11.42H486.52V8.36H494.06V5.72H483.38ZM496.129 5.72V20H498.969V5.72H496.129ZM507.071 5.72V20H510.211V14.1H516.191V11.66H510.211V8.36H517.111V5.72H507.071ZM525.587 13.72H520.967C520.98 13.52 521.02 13.2933 521.087 13.04C521.167 12.7867 521.294 12.5467 521.467 12.32C521.654 12.0933 521.894 11.9067 522.187 11.76C522.494 11.6 522.874 11.52 523.327 11.52C524.02 11.52 524.534 11.7067 524.867 12.08C525.214 12.4533 525.454 13 525.587 13.72ZM520.967 15.52H528.427C528.48 14.72 528.414 13.9533 528.227 13.22C528.04 12.4867 527.734 11.8333 527.307 11.26C526.894 10.6867 526.36 10.2333 525.707 9.9C525.054 9.55333 524.287 9.38 523.407 9.38C522.62 9.38 521.9 9.52 521.247 9.8C520.607 10.08 520.054 10.4667 519.587 10.96C519.12 11.44 518.76 12.0133 518.507 12.68C518.254 13.3467 518.127 14.0667 518.127 14.84C518.127 15.64 518.247 16.3733 518.487 17.04C518.74 17.7067 519.094 18.28 519.547 18.76C520 19.24 520.554 19.6133 521.207 19.88C521.86 20.1333 522.594 20.26 523.407 20.26C524.58 20.26 525.58 19.9933 526.407 19.46C527.234 18.9267 527.847 18.04 528.247 16.8H525.747C525.654 17.12 525.4 17.4267 524.987 17.72C524.574 18 524.08 18.14 523.507 18.14C522.707 18.14 522.094 17.9333 521.667 17.52C521.24 17.1067 521.007 16.44 520.967 15.52ZM530.111 9.66V20H532.951V14.58C532.951 13.5267 533.125 12.7733 533.471 12.32C533.818 11.8533 534.378 11.62 535.151 11.62C535.831 11.62 536.305 11.8333 536.571 12.26C536.838 12.6733 536.971 13.3067 536.971 14.16V20H539.811V13.64C539.811 13 539.751 12.42 539.631 11.9C539.525 11.3667 539.331 10.92 539.051 10.56C538.771 10.1867 538.385 9.9 537.891 9.7C537.411 9.48667 536.791 9.38 536.031 9.38C535.431 9.38 534.845 9.52 534.271 9.8C533.698 10.0667 533.231 10.5 532.871 11.1H532.811V9.66H530.111ZM544.487 14.84C544.487 14.4267 544.527 14.02 544.607 13.62C544.687 13.22 544.82 12.8667 545.007 12.56C545.207 12.2533 545.467 12.0067 545.787 11.82C546.107 11.62 546.507 11.52 546.987 11.52C547.467 11.52 547.867 11.62 548.187 11.82C548.52 12.0067 548.78 12.2533 548.967 12.56C549.167 12.8667 549.307 13.22 549.387 13.62C549.467 14.02 549.507 14.4267 549.507 14.84C549.507 15.2533 549.467 15.66 549.387 16.06C549.307 16.4467 549.167 16.8 548.967 17.12C548.78 17.4267 548.52 17.6733 548.187 17.86C547.867 18.0467 547.467 18.14 546.987 18.14C546.507 18.14 546.107 18.0467 545.787 17.86C545.467 17.6733 545.207 17.4267 545.007 17.12C544.82 16.8 544.687 16.4467 544.607 16.06C544.527 15.66 544.487 15.2533 544.487 14.84ZM541.647 14.84C541.647 15.6667 541.773 16.4133 542.027 17.08C542.28 17.7467 542.64 18.32 543.107 18.8C543.573 19.2667 544.133 19.6267 544.787 19.88C545.44 20.1333 546.173 20.26 546.987 20.26C547.8 20.26 548.533 20.1333 549.187 19.88C549.853 19.6267 550.42 19.2667 550.887 18.8C551.353 18.32 551.713 17.7467 551.967 17.08C552.22 16.4133 552.347 15.6667 552.347 14.84C552.347 14.0133 552.22 13.2667 551.967 12.6C551.713 11.92 551.353 11.3467 550.887 10.88C550.42 10.4 549.853 10.0333 549.187 9.78C548.533 9.51333 547.8 9.38 546.987 9.38C546.173 9.38 545.44 9.51333 544.787 9.78C544.133 10.0333 543.573 10.4 543.107 10.88C542.64 11.3467 542.28 11.92 542.027 12.6C541.773 13.2667 541.647 14.0133 541.647 14.84ZM550.727 4.3L547.467 7.84H545.487L547.607 4.3H550.727ZM554.273 9.66V20H557.113V14C557.113 13.4933 557.187 13.0867 557.333 12.78C557.48 12.46 557.653 12.22 557.853 12.06C558.067 11.8867 558.28 11.7733 558.493 11.72C558.72 11.6533 558.9 11.62 559.033 11.62C559.487 11.62 559.827 11.7 560.053 11.86C560.293 12.0067 560.46 12.2067 560.553 12.46C560.66 12.7133 560.72 12.9933 560.733 13.3C560.747 13.5933 560.753 13.8933 560.753 14.2V20H563.593V14.24C563.593 13.92 563.613 13.6067 563.653 13.3C563.707 12.98 563.8 12.7 563.933 12.46C564.08 12.2067 564.273 12.0067 564.513 11.86C564.767 11.7 565.093 11.62 565.493 11.62C565.893 11.62 566.207 11.6867 566.433 11.82C566.673 11.9533 566.853 12.1333 566.973 12.36C567.093 12.5867 567.167 12.8533 567.193 13.16C567.22 13.4667 567.233 13.7933 567.233 14.14V20H570.073V13.08C570.073 12.4133 569.98 11.8467 569.793 11.38C569.607 10.9 569.347 10.5133 569.013 10.22C568.68 9.92667 568.28 9.71333 567.813 9.58C567.347 9.44667 566.84 9.38 566.293 9.38C565.573 9.38 564.947 9.55333 564.413 9.9C563.893 10.2467 563.48 10.6467 563.173 11.1C562.893 10.46 562.48 10.0133 561.933 9.76C561.4 9.50667 560.807 9.38 560.153 9.38C559.473 9.38 558.867 9.52667 558.333 9.82C557.813 10.1133 557.367 10.5267 556.993 11.06H556.953V9.66H554.273ZM579.278 13.72H574.658C574.672 13.52 574.712 13.2933 574.778 13.04C574.858 12.7867 574.985 12.5467 575.158 12.32C575.345 12.0933 575.585 11.9067 575.878 11.76C576.185 11.6 576.565 11.52 577.018 11.52C577.712 11.52 578.225 11.7067 578.558 12.08C578.905 12.4533 579.145 13 579.278 13.72ZM574.658 15.52H582.118C582.172 14.72 582.105 13.9533 581.918 13.22C581.732 12.4867 581.425 11.8333 580.998 11.26C580.585 10.6867 580.052 10.2333 579.398 9.9C578.745 9.55333 577.978 9.38 577.098 9.38C576.312 9.38 575.592 9.52 574.938 9.8C574.298 10.08 573.745 10.4667 573.278 10.96C572.812 11.44 572.452 12.0133 572.198 12.68C571.945 13.3467 571.818 14.0667 571.818 14.84C571.818 15.64 571.938 16.3733 572.178 17.04C572.432 17.7067 572.785 18.28 573.238 18.76C573.692 19.24 574.245 19.6133 574.898 19.88C575.552 20.1333 576.285 20.26 577.098 20.26C578.272 20.26 579.272 19.9933 580.098 19.46C580.925 18.9267 581.538 18.04 581.938 16.8H579.438C579.345 17.12 579.092 17.4267 578.678 17.72C578.265 18 577.772 18.14 577.198 18.14C576.398 18.14 575.785 17.9333 575.358 17.52C574.932 17.1067 574.698 16.44 574.658 15.52ZM583.803 9.66V20H586.643V14.58C586.643 13.5267 586.816 12.7733 587.163 12.32C587.509 11.8533 588.069 11.62 588.843 11.62C589.523 11.62 589.996 11.8333 590.263 12.26C590.529 12.6733 590.663 13.3067 590.663 14.16V20H593.503V13.64C593.503 13 593.443 12.42 593.323 11.9C593.216 11.3667 593.023 10.92 592.743 10.56C592.463 10.1867 592.076 9.9 591.583 9.7C591.103 9.48667 590.483 9.38 589.723 9.38C589.123 9.38 588.536 9.52 587.963 9.8C587.389 10.0667 586.923 10.5 586.563 11.1H586.503V9.66H583.803ZM598.178 14.84C598.178 14.4267 598.218 14.02 598.298 13.62C598.378 13.22 598.511 12.8667 598.698 12.56C598.898 12.2533 599.158 12.0067 599.478 11.82C599.798 11.62 600.198 11.52 600.678 11.52C601.158 11.52 601.558 11.62 601.878 11.82C602.211 12.0067 602.471 12.2533 602.658 12.56C602.858 12.8667 602.998 13.22 603.078 13.62C603.158 14.02 603.198 14.4267 603.198 14.84C603.198 15.2533 603.158 15.66 603.078 16.06C602.998 16.4467 602.858 16.8 602.658 17.12C602.471 17.4267 602.211 17.6733 601.878 17.86C601.558 18.0467 601.158 18.14 600.678 18.14C600.198 18.14 599.798 18.0467 599.478 17.86C599.158 17.6733 598.898 17.4267 598.698 17.12C598.511 16.8 598.378 16.4467 598.298 16.06C598.218 15.66 598.178 15.2533 598.178 14.84ZM595.338 14.84C595.338 15.6667 595.465 16.4133 595.718 17.08C595.971 17.7467 596.331 18.32 596.798 18.8C597.265 19.2667 597.825 19.6267 598.478 19.88C599.131 20.1333 599.865 20.26 600.678 20.26C601.491 20.26 602.225 20.1333 602.878 19.88C603.545 19.6267 604.111 19.2667 604.578 18.8C605.045 18.32 605.405 17.7467 605.658 17.08C605.911 16.4133 606.038 15.6667 606.038 14.84C606.038 14.0133 605.911 13.2667 605.658 12.6C605.405 11.92 605.045 11.3467 604.578 10.88C604.111 10.4 603.545 10.0333 602.878 9.78C602.225 9.51333 601.491 9.38 600.678 9.38C599.865 9.38 599.131 9.51333 598.478 9.78C597.825 10.0333 597.265 10.4 596.798 10.88C596.331 11.3467 595.971 11.92 595.718 12.6C595.465 13.2667 595.338 14.0133 595.338 14.84Z" fill="#0026F5"/>
</svg>
