<svg width="680" height="249" viewBox="0 0 680 249" fill="none" xmlns="http://www.w3.org/2000/svg">
<g filter="url(#filter0_d)">
<rect x="10" y="11" width="660" height="224" rx="32" fill="#BFCCD3"/>
<rect x="12" y="13" width="656" height="220" rx="30" stroke="#F2F2F2" stroke-width="4"/>
</g>
<rect x="476" width="154.545" height="23" fill="#BFCCD3"/>
<path d="M518.86 12.84C518.887 14.1467 518.807 15.5333 518.62 17H507.6L507.48 16.36C507.987 16.0133 508.553 15.7 509.18 15.42V5.04L507.68 4.82L507.7 3.76H518.76L518.78 4.22C518.78 5.44667 518.653 6.64 518.4 7.8H516.4L516.04 5.76L512.8 5.54V9.58L516.98 9.24V11.4L512.8 11.22V15.14L516.16 14.88L516.88 12.68L518.86 12.84ZM524.817 15.32C525.403 15.52 525.883 15.7533 526.257 16.02L526.217 17H519.877L519.837 16.3C520.303 16.0333 520.81 15.8067 521.357 15.62V4.26L519.877 4L519.777 3C520.897 2.6 522.217 2.35333 523.737 2.26L524.817 3.26V15.32ZM539.381 3.6C540.848 3.6 542.108 3.92 543.161 4.56C544.215 5.2 545.008 6.03333 545.541 7.06C546.088 8.07333 546.361 9.14 546.361 10.26C546.361 12.22 545.735 13.8267 544.481 15.08C543.228 16.32 541.575 16.96 539.521 17H532.541L532.421 16.36C532.928 16.0133 533.495 15.7 534.121 15.42V5.02L532.701 4.82L532.721 3.76C534.735 3.65333 536.955 3.6 539.381 3.6ZM539.081 15.16C540.135 15.16 540.981 14.72 541.621 13.84C542.261 12.9467 542.581 11.8133 542.581 10.44C542.581 9.38667 542.368 8.38667 541.941 7.44C541.528 6.49333 540.968 5.79333 540.261 5.34L537.741 5.64V14.96C538.195 15.0933 538.641 15.16 539.081 15.16ZM551.459 10.44V15.18C552.353 15.3933 553.079 15.6733 553.639 16.02L553.599 17H546.559L546.519 16.3C546.933 16.06 547.426 15.84 547.999 15.64V9.02L546.519 8.74L546.419 7.78C547.606 7.32667 548.926 7.08 550.379 7.04L551.459 8.54V8.9L553.039 7.12C553.239 7.05333 553.493 7.02 553.799 7.02C554.333 7.02 554.819 7.15333 555.259 7.42C555.713 7.68667 556.026 8.06 556.199 8.54L553.899 11.44C553.006 10.6933 552.293 10.2867 551.759 10.22L551.459 10.44ZM568.721 15.86L566.061 17.34C565.674 17.3133 565.281 17.1467 564.881 16.84C564.494 16.5333 564.181 16.1333 563.941 15.64C562.874 16.4533 561.801 17.02 560.721 17.34C560.041 17.34 559.394 17.1267 558.781 16.7C558.181 16.2733 557.841 15.74 557.761 15.1L557.701 13.96V9.02L556.221 8.74L556.121 7.78C557.308 7.32667 558.628 7.08 560.081 7.04L561.161 8V13.28C561.161 14.3867 561.581 14.94 562.421 14.94C562.834 14.94 563.234 14.8533 563.621 14.68V8.96L562.501 8.68L562.401 7.72C563.468 7.29333 564.668 7.06667 566.001 7.04L567.081 8V14.52C567.081 14.8667 567.248 15.04 567.581 15.04L568.101 15.02L568.601 14.98L568.721 15.86ZM572.437 5.98C571.517 5.56667 570.724 4.96 570.057 4.16C570.59 3.13333 571.25 2.33333 572.037 1.76C572.93 2.22667 573.684 2.90667 574.297 3.8C573.857 4.68 573.237 5.40667 572.437 5.98ZM573.977 15.32C574.564 15.52 575.044 15.7533 575.417 16.02L575.377 17H569.037L568.997 16.3C569.464 16.0333 569.97 15.8067 570.517 15.62V9.02L569.037 8.74L568.937 7.78C570.124 7.32667 571.444 7.08 572.897 7.04L573.977 8V15.32ZM587.451 15.86L584.791 17.34C584.391 17.3267 583.991 17.1667 583.591 16.86C583.191 16.5533 582.878 16.1467 582.651 15.64L580.371 17.34C579.078 17.3533 578.011 16.8867 577.171 15.94C576.331 14.98 575.911 13.7733 575.911 12.32C575.911 10.8 576.405 9.54667 577.391 8.56C578.378 7.56 579.658 7.06 581.231 7.06L582.351 7.16V4.26L580.871 4L580.771 3C581.891 2.6 583.211 2.35333 584.731 2.26L585.811 3.26V14.5C585.811 14.86 585.978 15.04 586.311 15.04L586.831 15.02L587.331 14.98L587.451 15.86ZM579.511 11.96C579.511 12.7733 579.685 13.4533 580.031 14C580.391 14.5333 580.878 14.8 581.491 14.8C581.785 14.8 582.071 14.7467 582.351 14.64V9.22C581.818 8.98 581.245 8.86667 580.631 8.88C579.885 9.6 579.511 10.6267 579.511 11.96ZM598.354 15.86L595.714 17.34C595.341 17.3267 594.968 17.1867 594.594 16.92C594.221 16.6533 593.914 16.3067 593.674 15.88L591.554 17.26L590.874 17.32C590.008 17.32 589.281 17.0667 588.694 16.56C588.121 16.0533 587.834 15.44 587.834 14.72C587.834 13.72 588.374 12.9333 589.454 12.36L593.254 12.28V10.64C593.254 9.61333 592.948 8.94 592.334 8.62C591.908 8.64667 591.534 8.72667 591.214 8.86L590.734 11.06L588.774 11.1C588.521 10.38 588.394 9.62 588.394 8.82L588.434 8.08C589.234 7.77333 590.161 7.51333 591.214 7.3C592.268 7.07333 593.081 6.96 593.654 6.96C594.841 6.96 595.781 7.44667 596.474 8.42C596.621 8.67333 596.701 9.18 596.714 9.94V14.52C596.714 14.8667 596.881 15.04 597.214 15.04L597.754 15.02L598.234 14.98L598.354 15.86ZM591.254 14.5C591.254 14.8467 591.368 15.1333 591.594 15.36C591.994 15.3333 592.548 15.2067 593.254 14.98V13.5C591.921 13.4733 591.254 13.8067 591.254 14.5Z" fill="#F2F2F2"/>
<defs>
<filter id="filter0_d" x="0" y="5" width="680" height="244" filterUnits="userSpaceOnUse" color-interpolation-filters="sRGB">
<feFlood flood-opacity="0" result="BackgroundImageFix"/>
<feColorMatrix in="SourceAlpha" type="matrix" values="0 0 0 0 0 0 0 0 0 0 0 0 0 0 0 0 0 0 127 0"/>
<feOffset dy="4"/>
<feGaussianBlur stdDeviation="5"/>
<feColorMatrix type="matrix" values="0 0 0 0 1 0 0 0 0 1 0 0 0 0 1 0 0 0 0.25 0"/>
<feBlend mode="normal" in2="BackgroundImageFix" result="effect1_dropShadow"/>
<feBlend mode="normal" in="SourceGraphic" in2="effect1_dropShadow" result="shape"/>
</filter>
</defs>
</svg>
