<svg width="589" height="790" viewBox="0 0 589 790" fill="none" xmlns="http://www.w3.org/2000/svg">
<path d="M588 10.8572C520.047 0.26442 364.658 -7.90228 286.73 44.1732C278.954 50.2147 243.5 76.6807 243.5 76.6807M180.5 111.234C165.98 117.806 136.576 130.274 123.039 133.87C79.8573 142.584 -4.4984 183.076 3.53548 275.335C10.8999 303.867 41.9977 360.727 107.474 359.907C133.584 357.002 193.035 364.52 221.956 417.825C247.732 451.825 293.458 540.223 270.16 621.822C262.126 644.374 263.626 721.983 305 788V790" stroke="#52AADD" stroke-width="5"/>
<path d="M189.366 97.7022L195.99 110.352L205.593 105.324L204.368 102.985L197.547 106.557L195.924 103.456L202.054 100.246L200.922 98.0846L194.792 101.295L193.372 98.5842L200.051 95.0862L198.827 92.7475L189.366 97.7022ZM200.659 91.7877L207.284 104.438L209.8 103.12L203.175 90.4702L200.659 91.7877ZM211.915 90.3406L216.712 99.5006L219.228 98.183L217.066 94.0549C216.85 93.6415 216.69 93.2359 216.587 92.8383C216.484 92.4406 216.459 92.0624 216.512 91.7036C216.571 91.3267 216.719 90.978 216.958 90.6575C217.196 90.3369 217.546 90.056 218.006 89.8148C218.16 89.7343 218.326 89.6627 218.503 89.5997C218.675 89.5249 218.826 89.4684 218.956 89.4301L217.732 87.0914C217.5 87.1375 217.301 87.2039 217.136 87.2905C216.817 87.4575 216.535 87.6656 216.289 87.9147C216.043 88.1638 215.837 88.445 215.67 88.7583C215.496 89.0597 215.374 89.3871 215.303 89.7403C215.226 90.0817 215.203 90.425 215.233 90.7704L215.198 90.7889L214.307 89.088L211.915 90.3406ZM218.872 86.6972L223.669 95.8572L226.185 94.5396L221.388 85.3797L218.872 86.6972ZM220.939 79.5644L219.693 84.2128L217.939 85.1313L218.175 81.0118L220.939 79.5644ZM228.005 87.762C227.813 87.3958 227.66 87.017 227.545 86.6255C227.43 86.2341 227.385 85.8592 227.408 85.5009C227.443 85.1365 227.559 84.7973 227.755 84.4835C227.946 84.1579 228.254 83.8837 228.679 83.661C229.105 83.4384 229.505 83.3414 229.882 83.3701C230.263 83.3808 230.608 83.4787 230.916 83.6638C231.235 83.8427 231.523 84.0907 231.78 84.408C232.036 84.7252 232.26 85.0669 232.452 85.433C232.644 85.7992 232.797 86.178 232.912 86.5695C233.02 86.9491 233.06 87.3271 233.031 87.7034C233.008 88.0616 232.892 88.4008 232.684 88.7208C232.487 89.0346 232.176 89.3028 231.75 89.5255C231.325 89.7482 230.928 89.8511 230.558 89.8342C230.187 89.8173 229.843 89.7194 229.523 89.5405C229.209 89.3436 228.927 89.0925 228.677 88.7871C228.421 88.4698 228.197 88.1281 228.005 87.762ZM225.489 89.0795C225.872 89.8118 226.331 90.4145 226.865 90.8876C227.398 91.3606 227.983 91.7015 228.619 91.9102C229.249 92.1071 229.912 92.1663 230.609 92.0876C231.305 92.0089 232.013 91.7809 232.734 91.4036C233.455 91.0263 234.045 90.5738 234.507 90.0463C234.98 89.5126 235.315 88.9308 235.512 88.3009C235.702 87.6592 235.755 86.9843 235.67 86.2761C235.586 85.568 235.351 84.8478 234.968 84.1155C234.584 83.3832 234.126 82.7805 233.592 82.3074C233.052 81.8226 232.467 81.4817 231.837 81.2848C231.201 81.076 230.529 81.0141 229.821 81.099C229.118 81.1658 228.407 81.3879 227.686 81.7653C226.966 82.1426 226.378 82.6009 225.923 83.1403C225.462 83.6678 225.136 84.2524 224.945 84.8941C224.748 85.524 224.695 86.1989 224.786 86.9189C224.871 87.627 225.105 88.3472 225.489 89.0795Z" fill="#52AADD"/>
</svg>
