<svg width="597" height="793" viewBox="0 0 597 793" fill="none" xmlns="http://www.w3.org/2000/svg">
<g filter="url(#filter0_d)">
<path d="M306.776 777C265.402 710.983 271.126 649.374 279.16 626.822C302.458 545.223 256.732 456.825 230.956 422.825C202.035 369.52 142.584 362.002 116.474 364.907C50.9977 365.727 19.8999 308.867 12.5355 280.335C4.5016 188.076 88.8573 147.584 132.039 138.87C145.576 135.274 159.98 129.806 174.5 123.234M264.5 71.6807C277.194 63.075 287.954 55.2147 295.73 49.1732C352.22 11.4237 449.414 5.33023 524.5 8.86951" stroke="#9BE1FF" stroke-width="4"/>
<path d="M208.393 110.571C209.023 111.717 209.595 112.982 210.11 114.368L200.348 119.48L199.945 118.969C200.233 118.427 200.589 117.887 201.014 117.348L196.199 108.152L194.768 108.653L194.294 107.705L204.092 102.574L204.323 102.972C204.892 104.059 205.333 105.175 205.647 106.32L203.875 107.248L202.61 105.608L199.638 106.916L201.512 110.495L205.057 108.254L206.059 110.168L202.273 111.948L204.091 115.42L206.947 113.631L206.564 111.348L208.393 110.571ZM214.82 110.005C215.433 109.91 215.966 109.894 216.421 109.957L216.84 110.844L211.223 113.785L210.863 113.183C211.153 112.731 211.497 112.295 211.894 111.876L206.624 101.812L205.192 102.269L204.64 101.429C205.446 100.555 206.501 99.7242 207.805 98.9364L209.225 99.3212L214.82 110.005ZM223.527 99.9362L225.726 104.135C226.617 103.91 227.39 103.821 228.047 103.868L228.467 104.755L222.23 108.021L221.87 107.419C222.125 107.015 222.46 106.591 222.875 106.148L219.804 100.283L218.363 100.722L217.829 99.918C218.67 98.9659 219.724 98.135 220.993 97.4253L222.646 98.2531L222.813 98.572L223.387 96.2621C223.533 96.1103 223.742 95.9632 224.014 95.8209C224.486 95.5735 224.979 95.4659 225.493 95.498C226.018 95.5239 226.469 95.7092 226.845 96.0541L226.153 99.6901C225.015 99.4431 224.195 99.4138 223.691 99.6022L223.527 99.9362ZM234.538 99.7465C235.062 99.7128 235.504 99.7224 235.862 99.7753L236.282 100.662L230.949 103.455L230.589 102.853C230.843 102.449 231.178 102.025 231.593 101.582L228.578 95.8239L227.137 96.2624L226.603 95.4584C227.444 94.5063 228.499 93.6754 229.768 92.9657L231.17 93.3151L234.538 99.7465ZM226.224 92.4507L227.209 87.691L230.004 88.372L229.499 89.6071L228.617 92.1911L228.397 92.8483L226.224 92.4507ZM234.506 96.1057C233.807 94.771 233.654 93.4588 234.048 92.1692C234.441 90.8796 235.281 89.8976 236.569 89.2234C237.856 88.5491 239.139 88.4266 240.418 88.8559C241.696 89.2852 242.694 90.1849 243.411 91.555C244.123 92.9133 244.294 94.2311 243.924 95.5084C243.56 96.7676 242.74 97.7313 241.465 98.3994C240.165 99.0798 238.856 99.2087 237.536 98.7862C236.221 98.3457 235.211 97.4522 234.506 96.1057ZM241.168 96.41C241.432 95.8504 241.18 94.8383 240.413 93.3736C239.318 91.283 238.292 90.4882 237.336 90.9892C237.04 91.1439 236.844 91.3294 236.747 91.546C236.64 92.204 236.933 93.1945 237.625 94.5174C238.096 95.4151 238.603 96.0824 239.148 96.5195C239.687 96.9447 240.21 97.0244 240.718 96.7584C240.883 96.6718 241.033 96.5557 241.168 96.41Z" fill="#9BE1FF"/>
</g>
<defs>
<filter id="filter0_d" x="0" y="0" width="534.594" height="792.062" filterUnits="userSpaceOnUse" color-interpolation-filters="sRGB">
<feFlood flood-opacity="0" result="BackgroundImageFix"/>
<feColorMatrix in="SourceAlpha" type="matrix" values="0 0 0 0 0 0 0 0 0 0 0 0 0 0 0 0 0 0 127 0"/>
<feOffset dy="4"/>
<feGaussianBlur stdDeviation="5"/>
<feColorMatrix type="matrix" values="0 0 0 0 0 0 0 0 0 0 0 0 0 0 0 0 0 0 0.25 0"/>
<feBlend mode="normal" in2="BackgroundImageFix" result="effect1_dropShadow"/>
<feBlend mode="normal" in="SourceGraphic" in2="effect1_dropShadow" result="shape"/>
</filter>
</defs>
</svg>
