<svg width="591" height="777" viewBox="0 0 591 777" fill="none" xmlns="http://www.w3.org/2000/svg">
<path d="M590 12.8572C522.047 2.26442 366.658 -5.90228 288.73 46.1732C280.954 52.2147 270.194 60.075 257.5 68.6807M299.776 774C258.402 707.983 264.126 646.374 272.16 623.822C295.458 542.223 249.732 453.825 223.956 419.825C195.035 366.52 135.584 359.002 109.474 361.907C43.9977 362.727 12.8999 305.867 5.53548 277.335C-2.4984 185.076 81.8573 144.584 125.039 135.87C138.576 132.274 152.98 126.806 167.5 120.234" stroke="#52AADD" stroke-width="10"/>
<path d="M199.901 101.934L193.153 105.468L194.571 108.176L200.765 104.932L201.925 107.147L195.731 110.391L197.448 113.669L204.507 109.972L205.708 112.265L196.045 117.326L189.367 104.574L198.719 99.6763L199.901 101.934ZM210.103 109.963L207.637 111.255L200.959 98.5029L203.425 97.2117L210.103 109.963ZM217.513 93.7803C217.559 93.7561 217.598 93.7394 217.63 93.73C217.665 93.7119 217.738 93.677 217.851 93.6254L219.174 96.1515C219.009 96.2158 218.864 96.2767 218.74 96.3344C218.616 96.3921 218.517 96.4405 218.442 96.4798C217.45 96.9993 216.953 97.6711 216.951 98.4953C216.951 98.9583 217.148 99.5676 217.544 100.323L219.904 104.83L217.422 106.131L212.483 96.7009L214.836 95.4686L215.697 97.1123C215.749 96.2843 215.855 95.6809 216.017 95.3023C216.276 94.6742 216.775 94.1669 217.513 93.7803ZM219.447 93.0538L221.948 91.7445L226.886 101.174L224.386 102.484L219.447 93.0538ZM221.675 86.9709L220.399 90.9349L218.617 91.8682L218.923 88.4116L221.675 86.9709ZM232.602 95.9649C233.323 95.5874 233.742 95.0408 233.86 94.3251C233.977 93.6095 233.789 92.7787 233.293 91.8328C232.798 90.887 232.224 90.2615 231.572 89.9563C230.917 89.6454 230.229 89.6787 229.508 90.0562C228.787 90.4338 228.365 90.9819 228.241 91.7006C228.121 92.4105 228.308 93.2383 228.803 94.1842C229.299 95.13 229.874 95.7584 230.529 96.0694C231.19 96.3773 231.881 96.3425 232.602 95.9649ZM235.88 90.4782C236.605 91.8624 236.828 93.256 236.548 94.659C236.266 96.0563 235.314 97.1793 233.693 98.028C232.073 98.8767 230.608 99.0193 229.298 98.4556C227.986 97.8862 226.967 96.9094 226.243 95.5252C225.53 94.1641 225.31 92.7763 225.583 91.3617C225.857 89.9471 226.804 88.8155 228.424 87.9668C230.045 87.118 231.515 86.9842 232.833 87.5651C234.151 88.1461 235.167 89.1171 235.88 90.4782Z" fill="#52AADD"/>
</svg>
