<svg width="680" height="481" viewBox="0 0 680 481" fill="none" xmlns="http://www.w3.org/2000/svg">
<g filter="url(#filter0_d)">
<rect x="10" y="16" width="660" height="451" rx="32" fill="#BFCCD3"/>
<rect x="12" y="18" width="656" height="447" rx="30" stroke="#61B76A" stroke-width="4"/>
</g>
<rect x="70" y="5" width="154.545" height="23" fill="#BFCCD3"/>
<g filter="url(#filter1_d)">
<path d="M114.86 17.84C114.887 19.1467 114.807 20.5333 114.62 22H103.6L103.48 21.36C103.987 21.0133 104.553 20.7 105.18 20.42V10.04L103.68 9.82L103.7 8.76H114.76L114.78 9.22C114.78 10.4467 114.653 11.64 114.4 12.8H112.4L112.04 10.76L108.8 10.54V14.58L112.98 14.24V16.4L108.8 16.22V20.14L112.16 19.88L112.88 17.68L114.86 17.84ZM120.817 20.32C121.403 20.52 121.883 20.7533 122.257 21.02L122.217 22H115.877L115.837 21.3C116.303 21.0333 116.81 20.8067 117.357 20.62V9.26L115.877 9L115.777 8C116.897 7.6 118.217 7.35333 119.737 7.26L120.817 8.26V20.32ZM139.701 20.86L137.041 22.34C136.641 22.3267 136.241 22.1667 135.841 21.86C135.441 21.5533 135.128 21.1467 134.901 20.64L132.621 22.34C131.328 22.3533 130.261 21.8867 129.421 20.94C128.581 19.98 128.161 18.7733 128.161 17.32C128.161 15.8 128.655 14.5467 129.641 13.56C130.628 12.56 131.908 12.06 133.481 12.06L134.601 12.16V9.26L133.121 9L133.021 8C134.141 7.6 135.461 7.35333 136.981 7.26L138.061 8.26V19.5C138.061 19.86 138.228 20.04 138.561 20.04L139.081 20.02L139.581 19.98L139.701 20.86ZM131.761 16.96C131.761 17.7733 131.935 18.4533 132.281 19C132.641 19.5333 133.128 19.8 133.741 19.8C134.035 19.8 134.321 19.7467 134.601 19.64V14.22C134.068 13.98 133.495 13.8667 132.881 13.88C132.135 14.6 131.761 15.6267 131.761 16.96ZM144.647 15.44V20.18C145.54 20.3933 146.267 20.6733 146.827 21.02L146.787 22H139.747L139.707 21.3C140.12 21.06 140.613 20.84 141.187 20.64V14.02L139.707 13.74L139.607 12.78C140.793 12.3267 142.113 12.08 143.567 12.04L144.647 13.54V13.9L146.227 12.12C146.427 12.0533 146.68 12.02 146.987 12.02C147.52 12.02 148.007 12.1533 148.447 12.42C148.9 12.6867 149.213 13.06 149.387 13.54L147.087 16.44C146.193 15.6933 145.48 15.2867 144.947 15.22L144.647 15.44ZM161.909 20.86L159.249 22.34C158.862 22.3133 158.469 22.1467 158.069 21.84C157.682 21.5333 157.369 21.1333 157.129 20.64C156.062 21.4533 154.989 22.02 153.909 22.34C153.229 22.34 152.582 22.1267 151.969 21.7C151.369 21.2733 151.029 20.74 150.949 20.1L150.889 18.96V14.02L149.409 13.74L149.309 12.78C150.495 12.3267 151.815 12.08 153.269 12.04L154.349 13V18.28C154.349 19.3867 154.769 19.94 155.609 19.94C156.022 19.94 156.422 19.8533 156.809 19.68V13.96L155.689 13.68L155.589 12.72C156.655 12.2933 157.855 12.0667 159.189 12.04L160.269 13V19.52C160.269 19.8667 160.435 20.04 160.769 20.04L161.289 20.02L161.789 19.98L161.909 20.86ZM165.624 10.98C164.704 10.5667 163.911 9.96 163.244 9.16C163.778 8.13333 164.438 7.33333 165.224 6.76C166.118 7.22667 166.871 7.90667 167.484 8.8C167.044 9.68 166.424 10.4067 165.624 10.98ZM167.164 20.32C167.751 20.52 168.231 20.7533 168.604 21.02L168.564 22H162.224L162.184 21.3C162.651 21.0333 163.158 20.8067 163.704 20.62V14.02L162.224 13.74L162.124 12.78C163.311 12.3267 164.631 12.08 166.084 12.04L167.164 13V20.32ZM180.639 20.86L177.979 22.34C177.579 22.3267 177.179 22.1667 176.779 21.86C176.379 21.5533 176.066 21.1467 175.839 20.64L173.559 22.34C172.266 22.3533 171.199 21.8867 170.359 20.94C169.519 19.98 169.099 18.7733 169.099 17.32C169.099 15.8 169.592 14.5467 170.579 13.56C171.566 12.56 172.846 12.06 174.419 12.06L175.539 12.16V9.26L174.059 9L173.959 8C175.079 7.6 176.399 7.35333 177.919 7.26L178.999 8.26V19.5C178.999 19.86 179.166 20.04 179.499 20.04L180.019 20.02L180.519 19.98L180.639 20.86ZM172.699 16.96C172.699 17.7733 172.872 18.4533 173.219 19C173.579 19.5333 174.066 19.8 174.679 19.8C174.972 19.8 175.259 19.7467 175.539 19.64V14.22C175.006 13.98 174.432 13.8667 173.819 13.88C173.072 14.6 172.699 15.6267 172.699 16.96ZM191.542 20.86L188.902 22.34C188.529 22.3267 188.155 22.1867 187.782 21.92C187.409 21.6533 187.102 21.3067 186.862 20.88L184.742 22.26L184.062 22.32C183.195 22.32 182.469 22.0667 181.882 21.56C181.309 21.0533 181.022 20.44 181.022 19.72C181.022 18.72 181.562 17.9333 182.642 17.36L186.442 17.28V15.64C186.442 14.6133 186.135 13.94 185.522 13.62C185.095 13.6467 184.722 13.7267 184.402 13.86L183.922 16.06L181.962 16.1C181.709 15.38 181.582 14.62 181.582 13.82L181.622 13.08C182.422 12.7733 183.349 12.5133 184.402 12.3C185.455 12.0733 186.269 11.96 186.842 11.96C188.029 11.96 188.969 12.4467 189.662 13.42C189.809 13.6733 189.889 14.18 189.902 14.94V19.52C189.902 19.8667 190.069 20.04 190.402 20.04L190.942 20.02L191.422 19.98L191.542 20.86ZM184.442 19.5C184.442 19.8467 184.555 20.1333 184.782 20.36C185.182 20.3333 185.735 20.2067 186.442 19.98V18.5C185.109 18.4733 184.442 18.8067 184.442 19.5Z" fill="#61B76A"/>
</g>
<defs>
<filter id="filter0_d" x="0" y="10" width="680" height="471" filterUnits="userSpaceOnUse" color-interpolation-filters="sRGB">
<feFlood flood-opacity="0" result="BackgroundImageFix"/>
<feColorMatrix in="SourceAlpha" type="matrix" values="0 0 0 0 0 0 0 0 0 0 0 0 0 0 0 0 0 0 127 0"/>
<feOffset dy="4"/>
<feGaussianBlur stdDeviation="5"/>
<feColorMatrix type="matrix" values="0 0 0 0 0.780392 0 0 0 0 1 0 0 0 0 0.709804 0 0 0 0.25 0"/>
<feBlend mode="normal" in2="BackgroundImageFix" result="effect1_dropShadow"/>
<feBlend mode="normal" in="SourceGraphic" in2="effect1_dropShadow" result="shape"/>
</filter>
<filter id="filter1_d" x="93.4805" y="0.76001" width="108.062" height="35.5803" filterUnits="userSpaceOnUse" color-interpolation-filters="sRGB">
<feFlood flood-opacity="0" result="BackgroundImageFix"/>
<feColorMatrix in="SourceAlpha" type="matrix" values="0 0 0 0 0 0 0 0 0 0 0 0 0 0 0 0 0 0 127 0"/>
<feOffset dy="4"/>
<feGaussianBlur stdDeviation="5"/>
<feColorMatrix type="matrix" values="0 0 0 0 0.780392 0 0 0 0 1 0 0 0 0 0.709804 0 0 0 0.25 0"/>
<feBlend mode="normal" in2="BackgroundImageFix" result="effect1_dropShadow"/>
<feBlend mode="normal" in="SourceGraphic" in2="effect1_dropShadow" result="shape"/>
</filter>
</defs>
</svg>
