<svg width="660" height="463" viewBox="0 0 660 463" fill="none" xmlns="http://www.w3.org/2000/svg">
<rect x="1.5" y="13.5" width="657" height="448" rx="30.5" fill="#BFCCD3" stroke="#62B76B" stroke-width="3"/>
<rect x="60" y="1" width="154.545" height="23" fill="#BFCCD3"/>
<g filter="url(#filter0_d)">
<path d="M94.38 6.72V21H105.22V18.36H97.52V14.86H104.44V12.42H97.52V9.36H105.06V6.72H94.38ZM107.129 6.72V21H109.969V6.72H107.129ZM125.111 15.8C125.111 16.2267 125.071 16.64 124.991 17.04C124.911 17.44 124.778 17.8 124.591 18.12C124.405 18.4267 124.151 18.6733 123.831 18.86C123.525 19.0467 123.138 19.14 122.671 19.14C122.231 19.14 121.851 19.0467 121.531 18.86C121.225 18.66 120.965 18.4067 120.751 18.1C120.551 17.78 120.405 17.42 120.311 17.02C120.218 16.62 120.171 16.22 120.171 15.82C120.171 15.3933 120.211 14.9867 120.291 14.6C120.385 14.2 120.525 13.8467 120.711 13.54C120.911 13.2333 121.171 12.9867 121.491 12.8C121.811 12.6133 122.205 12.52 122.671 12.52C123.138 12.52 123.525 12.6133 123.831 12.8C124.138 12.9867 124.385 13.2333 124.571 13.54C124.771 13.8333 124.911 14.18 124.991 14.58C125.071 14.9667 125.111 15.3733 125.111 15.8ZM125.151 19.68V21H127.851V6.72H125.011V11.92H124.971C124.651 11.4133 124.211 11.0333 123.651 10.78C123.105 10.5133 122.525 10.38 121.911 10.38C121.151 10.38 120.485 10.5333 119.911 10.84C119.338 11.1333 118.858 11.5267 118.471 12.02C118.098 12.5133 117.811 13.0867 117.611 13.74C117.425 14.38 117.331 15.0467 117.331 15.74C117.331 16.46 117.425 17.1533 117.611 17.82C117.811 18.4867 118.098 19.08 118.471 19.6C118.858 20.1067 119.345 20.5133 119.931 20.82C120.518 21.1133 121.198 21.26 121.971 21.26C122.651 21.26 123.258 21.14 123.791 20.9C124.338 20.6467 124.778 20.24 125.111 19.68H125.151ZM129.998 10.66V21H132.838V16.34C132.838 15.8733 132.885 15.44 132.978 15.04C133.071 14.64 133.225 14.2933 133.438 14C133.665 13.6933 133.958 13.4533 134.318 13.28C134.678 13.1067 135.118 13.02 135.638 13.02C135.811 13.02 135.991 13.0333 136.178 13.06C136.365 13.0733 136.525 13.0933 136.658 13.12V10.48C136.431 10.4133 136.225 10.38 136.038 10.38C135.678 10.38 135.331 10.4333 134.998 10.54C134.665 10.6467 134.351 10.8 134.058 11C133.765 11.1867 133.505 11.42 133.278 11.7C133.051 11.9667 132.871 12.26 132.738 12.58H132.698V10.66H129.998ZM147.471 21V10.66H144.631V16.08C144.631 17.1333 144.458 17.8933 144.111 18.36C143.765 18.8133 143.205 19.04 142.431 19.04C141.751 19.04 141.278 18.8333 141.011 18.42C140.745 17.9933 140.611 17.3533 140.611 16.5V10.66H137.771V17.02C137.771 17.66 137.825 18.2467 137.931 18.78C138.051 19.3 138.251 19.7467 138.531 20.12C138.811 20.48 139.191 20.76 139.671 20.96C140.165 21.16 140.791 21.26 141.551 21.26C142.151 21.26 142.738 21.1267 143.311 20.86C143.885 20.5933 144.351 20.16 144.711 19.56H144.771V21H147.471ZM152.547 9.06V6.72H149.707V9.06H152.547ZM149.707 10.66V21H152.547V10.66H149.707ZM162.123 15.8C162.123 16.2267 162.083 16.64 162.003 17.04C161.923 17.44 161.79 17.8 161.603 18.12C161.416 18.4267 161.163 18.6733 160.843 18.86C160.536 19.0467 160.15 19.14 159.683 19.14C159.243 19.14 158.863 19.0467 158.543 18.86C158.236 18.66 157.976 18.4067 157.763 18.1C157.563 17.78 157.416 17.42 157.323 17.02C157.23 16.62 157.183 16.22 157.183 15.82C157.183 15.3933 157.223 14.9867 157.303 14.6C157.396 14.2 157.536 13.8467 157.723 13.54C157.923 13.2333 158.183 12.9867 158.503 12.8C158.823 12.6133 159.216 12.52 159.683 12.52C160.15 12.52 160.536 12.6133 160.843 12.8C161.15 12.9867 161.396 13.2333 161.583 13.54C161.783 13.8333 161.923 14.18 162.003 14.58C162.083 14.9667 162.123 15.3733 162.123 15.8ZM162.163 19.68V21H164.863V6.72H162.023V11.92H161.983C161.663 11.4133 161.223 11.0333 160.663 10.78C160.116 10.5133 159.536 10.38 158.923 10.38C158.163 10.38 157.496 10.5333 156.923 10.84C156.35 11.1333 155.87 11.5267 155.483 12.02C155.11 12.5133 154.823 13.0867 154.623 13.74C154.436 14.38 154.343 15.0467 154.343 15.74C154.343 16.46 154.436 17.1533 154.623 17.82C154.823 18.4867 155.11 19.08 155.483 19.6C155.87 20.1067 156.356 20.5133 156.943 20.82C157.53 21.1133 158.21 21.26 158.983 21.26C159.663 21.26 160.27 21.14 160.803 20.9C161.35 20.6467 161.79 20.24 162.123 19.68H162.163ZM166.89 13.84C166.93 13.1733 167.096 12.62 167.39 12.18C167.683 11.74 168.056 11.3867 168.51 11.12C168.963 10.8533 169.47 10.6667 170.03 10.56C170.603 10.44 171.176 10.38 171.75 10.38C172.27 10.38 172.796 10.42 173.33 10.5C173.863 10.5667 174.35 10.7067 174.79 10.92C175.23 11.1333 175.59 11.4333 175.87 11.82C176.15 12.1933 176.29 12.6933 176.29 13.32V18.7C176.29 19.1667 176.316 19.6133 176.37 20.04C176.423 20.4667 176.516 20.7867 176.65 21H173.77C173.716 20.84 173.67 20.68 173.63 20.52C173.603 20.3467 173.583 20.1733 173.57 20C173.116 20.4667 172.583 20.7933 171.97 20.98C171.356 21.1667 170.73 21.26 170.09 21.26C169.596 21.26 169.136 21.2 168.71 21.08C168.283 20.96 167.91 20.7733 167.59 20.52C167.27 20.2667 167.016 19.9467 166.83 19.56C166.656 19.1733 166.57 18.7133 166.57 18.18C166.57 17.5933 166.67 17.1133 166.87 16.74C167.083 16.3533 167.35 16.0467 167.67 15.82C168.003 15.5933 168.376 15.4267 168.79 15.32C169.216 15.2 169.643 15.1067 170.07 15.04C170.496 14.9733 170.916 14.92 171.33 14.88C171.743 14.84 172.11 14.78 172.43 14.7C172.75 14.62 173.003 14.5067 173.19 14.36C173.376 14.2 173.463 13.9733 173.45 13.68C173.45 13.3733 173.396 13.1333 173.29 12.96C173.196 12.7733 173.063 12.6333 172.89 12.54C172.73 12.4333 172.536 12.3667 172.31 12.34C172.096 12.3 171.863 12.28 171.61 12.28C171.05 12.28 170.61 12.4 170.29 12.64C169.97 12.88 169.783 13.28 169.73 13.84H166.89ZM173.45 15.94C173.33 16.0467 173.176 16.1333 172.99 16.2C172.816 16.2533 172.623 16.3 172.41 16.34C172.21 16.38 171.996 16.4133 171.77 16.44C171.543 16.4667 171.316 16.5 171.09 16.54C170.876 16.58 170.663 16.6333 170.45 16.7C170.25 16.7667 170.07 16.86 169.91 16.98C169.763 17.0867 169.643 17.2267 169.55 17.4C169.456 17.5733 169.41 17.7933 169.41 18.06C169.41 18.3133 169.456 18.5267 169.55 18.7C169.643 18.8733 169.77 19.0133 169.93 19.12C170.09 19.2133 170.276 19.28 170.49 19.32C170.703 19.36 170.923 19.38 171.15 19.38C171.71 19.38 172.143 19.2867 172.45 19.1C172.756 18.9133 172.983 18.6933 173.13 18.44C173.276 18.1733 173.363 17.9067 173.39 17.64C173.43 17.3733 173.45 17.16 173.45 17V15.94Z" fill="#62B76B"/>
</g>
<defs>
<filter id="filter0_d" x="84.3809" y="0.719971" width="102.27" height="34.54" filterUnits="userSpaceOnUse" color-interpolation-filters="sRGB">
<feFlood flood-opacity="0" result="BackgroundImageFix"/>
<feColorMatrix in="SourceAlpha" type="matrix" values="0 0 0 0 0 0 0 0 0 0 0 0 0 0 0 0 0 0 127 0"/>
<feOffset dy="4"/>
<feGaussianBlur stdDeviation="5"/>
<feColorMatrix type="matrix" values="0 0 0 0 0.780392 0 0 0 0 1 0 0 0 0 0.709804 0 0 0 0.25 0"/>
<feBlend mode="normal" in2="BackgroundImageFix" result="effect1_dropShadow"/>
<feBlend mode="normal" in="SourceGraphic" in2="effect1_dropShadow" result="shape"/>
</filter>
</defs>
</svg>
