<svg width="680" height="221" viewBox="0 0 680 221" fill="none" xmlns="http://www.w3.org/2000/svg">
<g filter="url(#filter0_d)">
<rect x="10" y="16" width="660" height="191" rx="32" fill="#BFCCD3"/>
<rect x="12" y="18" width="656" height="187" rx="30" stroke="#C7FFB5" stroke-width="4"/>
</g>
<rect x="70" y="5" width="232" height="23" fill="#BFCCD3"/>
<g filter="url(#filter1_d)">
<path d="M106.18 15C107.153 15.2 107.907 15.6067 108.44 16.22C108.973 16.82 109.24 17.52 109.24 18.32C109.24 19.4133 108.767 20.2933 107.82 20.96C106.887 21.6133 105.613 21.96 104 22H96.6L96.48 21.36C96.9867 21.0133 97.5533 20.7 98.18 20.42V10.02L96.76 9.82L96.78 8.76C98.5667 8.65333 100.82 8.6 103.54 8.6C105.06 8.6 106.293 8.92 107.24 9.56C108.187 10.2 108.66 11.02 108.66 12.02C108.66 12.6733 108.447 13.2933 108.02 13.88C107.593 14.4533 106.98 14.8267 106.18 15ZM101.8 10.64V14.4H102.7C103.487 14.4 104.073 14.2133 104.46 13.84C104.86 13.4533 105.06 12.9867 105.06 12.44C105.06 11.9867 104.933 11.5533 104.68 11.14C104.44 10.7267 104.12 10.46 103.72 10.34L101.8 10.64ZM103.2 20.3L103.5 20.32C104.153 20.32 104.653 20.1133 105 19.7C105.347 19.2867 105.52 18.8 105.52 18.24C105.52 17.6133 105.307 17.06 104.88 16.58C104.467 16.1 103.947 15.8533 103.32 15.84H101.8V20.14L103.2 20.3ZM110.087 17.14C110.087 15.6333 110.561 14.4 111.507 13.44C112.454 12.48 113.654 12 115.107 12C116.561 12 117.754 12.4867 118.687 13.46C119.621 14.4333 120.087 15.6933 120.087 17.24C120.087 18.7733 119.627 20.02 118.707 20.98C117.801 21.9267 116.627 22.4 115.187 22.4C113.721 22.4 112.501 21.9067 111.527 20.92C110.567 19.92 110.087 18.66 110.087 17.14ZM115.847 20.5C116.341 20.1267 116.587 19.1133 116.587 17.46C116.587 15.1 116.047 13.92 114.967 13.92C114.634 13.92 114.374 13.9933 114.187 14.14C113.787 14.6733 113.587 15.6867 113.587 17.18C113.587 18.1933 113.727 19.02 114.007 19.66C114.287 20.2867 114.714 20.6 115.287 20.6C115.474 20.6 115.661 20.5667 115.847 20.5ZM132.174 20.86L129.514 22.34C129.114 22.3267 128.714 22.1667 128.314 21.86C127.914 21.5533 127.601 21.1467 127.374 20.64L125.094 22.34C123.801 22.3533 122.734 21.8867 121.894 20.94C121.054 19.98 120.634 18.7733 120.634 17.32C120.634 15.8 121.127 14.5467 122.114 13.56C123.101 12.56 124.381 12.06 125.954 12.06L127.074 12.16V9.26L125.594 9L125.494 8C126.614 7.6 127.934 7.35333 129.454 7.26L130.534 8.26V19.5C130.534 19.86 130.701 20.04 131.034 20.04L131.554 20.02L132.054 19.98L132.174 20.86ZM124.234 16.96C124.234 17.7733 124.407 18.4533 124.754 19C125.114 19.5333 125.601 19.8 126.214 19.8C126.507 19.8 126.794 19.7467 127.074 19.64V14.22C126.541 13.98 125.967 13.8667 125.354 13.88C124.607 14.6 124.234 15.6267 124.234 16.96ZM143.077 20.86L140.437 22.34C140.064 22.3267 139.69 22.1867 139.317 21.92C138.944 21.6533 138.637 21.3067 138.397 20.88L136.277 22.26L135.597 22.32C134.73 22.32 134.004 22.0667 133.417 21.56C132.844 21.0533 132.557 20.44 132.557 19.72C132.557 18.72 133.097 17.9333 134.177 17.36L137.977 17.28V15.64C137.977 14.6133 137.67 13.94 137.057 13.62C136.63 13.6467 136.257 13.7267 135.937 13.86L135.457 16.06L133.497 16.1C133.244 15.38 133.117 14.62 133.117 13.82L133.157 13.08C133.957 12.7733 134.884 12.5133 135.937 12.3C136.99 12.0733 137.804 11.96 138.377 11.96C139.564 11.96 140.504 12.4467 141.197 13.42C141.344 13.6733 141.424 14.18 141.437 14.94V19.52C141.437 19.8667 141.604 20.04 141.937 20.04L142.477 20.02L142.957 19.98L143.077 20.86ZM135.977 19.5C135.977 19.8467 136.09 20.1333 136.317 20.36C136.717 20.3333 137.27 20.2067 137.977 19.98V18.5C136.644 18.4733 135.977 18.8067 135.977 19.5ZM147.007 14.38C147.007 14.62 147.093 14.84 147.267 15.04C147.44 15.2267 148.06 15.6 149.127 16.16C150.193 16.7067 150.913 17.22 151.287 17.7C151.66 18.1667 151.847 18.7 151.847 19.3C151.847 20.2067 151.473 20.9533 150.727 21.54C149.98 22.1133 148.987 22.4 147.747 22.4C146.347 22.4 144.953 22.04 143.567 21.32L144.707 18.7C145.867 19.5933 147.067 20.26 148.307 20.7C148.547 20.4867 148.667 20.24 148.667 19.96C148.667 19.7067 148.567 19.48 148.367 19.28C148.18 19.08 147.567 18.72 146.527 18.2C145.5 17.6667 144.8 17.1733 144.427 16.72C144.067 16.2533 143.887 15.7267 143.887 15.14C143.887 14.2067 144.293 13.4533 145.107 12.88C145.933 12.2933 147 12 148.307 12C149.52 12 150.553 12.22 151.407 12.66L151.447 13.36C151.447 14.0533 151.333 14.7533 151.107 15.46H149.347L148.727 13.64L147.807 13.54C147.273 13.7 147.007 13.98 147.007 14.38ZM163.819 22.26L162.939 22.32C161.499 22.32 160.299 21.8467 159.339 20.9C158.393 19.94 157.919 18.7133 157.919 17.22C157.919 15.7133 158.399 14.4667 159.359 13.48C160.319 12.4933 161.526 12 162.979 12C163.913 12 164.746 12.2267 165.479 12.68C166.213 13.12 166.706 13.76 166.959 14.6L164.219 16.14C163.646 15.0067 162.979 14.2333 162.219 13.82C161.579 14.5133 161.259 15.4733 161.259 16.7C161.259 17.7 161.499 18.5133 161.979 19.14C162.473 19.7667 163.166 20.08 164.059 20.08C164.686 20.08 165.413 19.88 166.239 19.48L166.719 20.58L163.819 22.26ZM172.137 20.32C172.724 20.52 173.204 20.7533 173.577 21.02L173.537 22H167.197L167.157 21.3C167.624 21.0333 168.13 20.8067 168.677 20.62V9.26L167.197 9L167.097 8C168.217 7.6 169.537 7.35333 171.057 7.26L172.137 8.26V20.32ZM184.796 20.86L182.156 22.34C181.782 22.3267 181.409 22.1867 181.036 21.92C180.662 21.6533 180.356 21.3067 180.116 20.88L177.996 22.26L177.316 22.32C176.449 22.32 175.722 22.0667 175.136 21.56C174.562 21.0533 174.276 20.44 174.276 19.72C174.276 18.72 174.816 17.9333 175.896 17.36L179.696 17.28V15.64C179.696 14.6133 179.389 13.94 178.776 13.62C178.349 13.6467 177.976 13.7267 177.656 13.86L177.176 16.06L175.216 16.1C174.962 15.38 174.836 14.62 174.836 13.82L174.876 13.08C175.676 12.7733 176.602 12.5133 177.656 12.3C178.709 12.0733 179.522 11.96 180.096 11.96C181.282 11.96 182.222 12.4467 182.916 13.42C183.062 13.6733 183.142 14.18 183.156 14.94V19.52C183.156 19.8667 183.322 20.04 183.656 20.04L184.196 20.02L184.676 19.98L184.796 20.86ZM177.696 19.5C177.696 19.8467 177.809 20.1333 178.036 20.36C178.436 20.3333 178.989 20.2067 179.696 19.98V18.5C178.362 18.4733 177.696 18.8067 177.696 19.5ZM195.855 20.32C196.441 20.52 196.921 20.7533 197.295 21.02L197.235 22H192.395V16.46C192.395 15.1133 191.968 14.44 191.115 14.44C190.728 14.44 190.295 14.56 189.815 14.8V20.38C190.295 20.5933 190.681 20.8067 190.975 21.02L190.935 22H184.915L184.875 21.3C185.288 21.06 185.781 20.84 186.355 20.64V14.02L184.875 13.74L184.775 12.78C185.961 12.3267 187.281 12.08 188.735 12.04L189.815 13.12V13.76C190.895 12.9467 191.901 12.3933 192.835 12.1C194.088 12.14 195.015 12.62 195.615 13.54C195.761 13.8067 195.841 14.4133 195.855 15.36V20.32ZM209.03 20.86L206.37 22.34C205.97 22.3267 205.57 22.1667 205.17 21.86C204.77 21.5533 204.456 21.1467 204.23 20.64L201.95 22.34C200.656 22.3533 199.59 21.8867 198.75 20.94C197.91 19.98 197.49 18.7733 197.49 17.32C197.49 15.8 197.983 14.5467 198.97 13.56C199.956 12.56 201.236 12.06 202.81 12.06L203.93 12.16V9.26L202.45 9L202.35 8C203.47 7.6 204.79 7.35333 206.31 7.26L207.39 8.26V19.5C207.39 19.86 207.556 20.04 207.89 20.04L208.41 20.02L208.91 19.98L209.03 20.86ZM201.09 16.96C201.09 17.7733 201.263 18.4533 201.61 19C201.97 19.5333 202.456 19.8 203.07 19.8C203.363 19.8 203.65 19.7467 203.93 19.64V14.22C203.396 13.98 202.823 13.8667 202.21 13.88C201.463 14.6 201.09 15.6267 201.09 16.96ZM217.333 17.42L212.293 17.38C212.386 18.2467 212.693 18.9133 213.213 19.38C213.746 19.8467 214.413 20.08 215.213 20.08C215.919 20.08 216.766 19.8267 217.753 19.32L218.253 20.46L215.113 22.24L214.193 22.3C212.713 22.3 211.479 21.8333 210.493 20.9C209.519 19.9667 209.033 18.7733 209.033 17.32C209.033 15.84 209.526 14.5867 210.513 13.56C211.513 12.52 212.719 12 214.133 12C215.426 12 216.479 12.3933 217.293 13.18C218.106 13.9533 218.506 14.98 218.493 16.26L217.333 17.42ZM213.593 13.66C212.953 14.06 212.546 14.7933 212.373 15.86L215.373 15.68C215.293 15.1333 215.086 14.6667 214.753 14.28C214.433 13.88 214.046 13.6733 213.593 13.66ZM222.593 14.38C222.593 14.62 222.679 14.84 222.853 15.04C223.026 15.2267 223.646 15.6 224.713 16.16C225.779 16.7067 226.499 17.22 226.873 17.7C227.246 18.1667 227.433 18.7 227.433 19.3C227.433 20.2067 227.059 20.9533 226.313 21.54C225.566 22.1133 224.573 22.4 223.333 22.4C221.933 22.4 220.539 22.04 219.153 21.32L220.293 18.7C221.453 19.5933 222.653 20.26 223.893 20.7C224.133 20.4867 224.253 20.24 224.253 19.96C224.253 19.7067 224.153 19.48 223.952 19.28C223.766 19.08 223.153 18.72 222.113 18.2C221.086 17.6667 220.386 17.1733 220.013 16.72C219.653 16.2533 219.472 15.7267 219.472 15.14C219.472 14.2067 219.879 13.4533 220.693 12.88C221.519 12.2933 222.586 12 223.893 12C225.106 12 226.139 12.22 226.993 12.66L227.033 13.36C227.033 14.0533 226.919 14.7533 226.693 15.46H224.933L224.313 13.64L223.393 13.54C222.859 13.7 222.593 13.98 222.593 14.38ZM233.772 19.78C234.239 19.78 234.772 19.72 235.372 19.6L235.512 20.64L232.212 22.34C231.546 22.3667 230.932 22.16 230.372 21.72C229.826 21.2667 229.552 20.74 229.552 20.14V14.78H228.092L228.032 13.7C228.472 13.3267 229.039 12.94 229.732 12.54L230.832 9.86H232.412L232.912 12.54H235.672L235.692 13.54L234.692 14.8H233.012V18.92C233.012 19.4933 233.266 19.78 233.772 19.78ZM239.679 10.98C238.759 10.5667 237.966 9.96 237.299 9.16C237.832 8.13333 238.492 7.33333 239.279 6.76C240.172 7.22667 240.926 7.90667 241.539 8.8C241.099 9.68 240.479 10.4067 239.679 10.98ZM241.219 20.32C241.806 20.52 242.286 20.7533 242.659 21.02L242.619 22H236.279L236.239 21.3C236.706 21.0333 237.212 20.8067 237.759 20.62V14.02L236.279 13.74L236.179 12.78C237.366 12.3267 238.686 12.08 240.139 12.04L241.219 13V20.32ZM254.234 20.32C254.82 20.52 255.3 20.7533 255.674 21.02L255.614 22H250.774V16.46C250.774 15.1133 250.347 14.44 249.494 14.44C249.107 14.44 248.674 14.56 248.194 14.8V20.38C248.674 20.5933 249.06 20.8067 249.354 21.02L249.314 22H243.294L243.254 21.3C243.667 21.06 244.16 20.84 244.734 20.64V14.02L243.254 13.74L243.154 12.78C244.34 12.3267 245.66 12.08 247.114 12.04L248.194 13.12V13.76C249.274 12.9467 250.28 12.3933 251.214 12.1C252.467 12.14 253.394 12.62 253.994 13.54C254.14 13.8067 254.22 14.4133 254.234 15.36V20.32ZM266.768 20.86L264.128 22.34C263.755 22.3267 263.382 22.1867 263.008 21.92C262.635 21.6533 262.328 21.3067 262.088 20.88L259.968 22.26L259.288 22.32C258.422 22.32 257.695 22.0667 257.108 21.56C256.535 21.0533 256.248 20.44 256.248 19.72C256.248 18.72 256.788 17.9333 257.868 17.36L261.668 17.28V15.64C261.668 14.6133 261.362 13.94 260.748 13.62C260.322 13.6467 259.948 13.7267 259.628 13.86L259.148 16.06L257.188 16.1C256.935 15.38 256.808 14.62 256.808 13.82L256.848 13.08C257.648 12.7733 258.575 12.5133 259.628 12.3C260.682 12.0733 261.495 11.96 262.068 11.96C263.255 11.96 264.195 12.4467 264.888 13.42C265.035 13.6733 265.115 14.18 265.128 14.94V19.52C265.128 19.8667 265.295 20.04 265.628 20.04L266.168 20.02L266.648 19.98L266.768 20.86ZM259.668 19.5C259.668 19.8467 259.782 20.1333 260.008 20.36C260.408 20.3333 260.962 20.2067 261.668 19.98V18.5C260.335 18.4733 259.668 18.8067 259.668 19.5ZM270.698 14.38C270.698 14.62 270.785 14.84 270.958 15.04C271.131 15.2267 271.751 15.6 272.818 16.16C273.885 16.7067 274.605 17.22 274.978 17.7C275.351 18.1667 275.538 18.7 275.538 19.3C275.538 20.2067 275.165 20.9533 274.418 21.54C273.671 22.1133 272.678 22.4 271.438 22.4C270.038 22.4 268.645 22.04 267.258 21.32L268.398 18.7C269.558 19.5933 270.758 20.26 271.998 20.7C272.238 20.4867 272.358 20.24 272.358 19.96C272.358 19.7067 272.258 19.48 272.058 19.28C271.871 19.08 271.258 18.72 270.218 18.2C269.191 17.6667 268.491 17.1733 268.118 16.72C267.758 16.2533 267.578 15.7267 267.578 15.14C267.578 14.2067 267.985 13.4533 268.798 12.88C269.625 12.2933 270.691 12 271.998 12C273.211 12 274.245 12.22 275.098 12.66L275.138 13.36C275.138 14.0533 275.025 14.7533 274.798 15.46H273.038L272.418 13.64L271.498 13.54C270.965 13.7 270.698 13.98 270.698 14.38Z" fill="#C7FFB5"/>
</g>
<defs>
<filter id="filter0_d" x="0" y="10" width="680" height="211" filterUnits="userSpaceOnUse" color-interpolation-filters="sRGB">
<feFlood flood-opacity="0" result="BackgroundImageFix"/>
<feColorMatrix in="SourceAlpha" type="matrix" values="0 0 0 0 0 0 0 0 0 0 0 0 0 0 0 0 0 0 127 0"/>
<feOffset dy="4"/>
<feGaussianBlur stdDeviation="5"/>
<feColorMatrix type="matrix" values="0 0 0 0 0.780392 0 0 0 0 1 0 0 0 0 0.709804 0 0 0 0.25 0"/>
<feBlend mode="normal" in2="BackgroundImageFix" result="effect1_dropShadow"/>
<feBlend mode="normal" in="SourceGraphic" in2="effect1_dropShadow" result="shape"/>
</filter>
<filter id="filter1_d" x="86.4805" y="0.76001" width="199.058" height="35.64" filterUnits="userSpaceOnUse" color-interpolation-filters="sRGB">
<feFlood flood-opacity="0" result="BackgroundImageFix"/>
<feColorMatrix in="SourceAlpha" type="matrix" values="0 0 0 0 0 0 0 0 0 0 0 0 0 0 0 0 0 0 127 0"/>
<feOffset dy="4"/>
<feGaussianBlur stdDeviation="5"/>
<feColorMatrix type="matrix" values="0 0 0 0 0.780392 0 0 0 0 1 0 0 0 0 0.709804 0 0 0 0.25 0"/>
<feBlend mode="normal" in2="BackgroundImageFix" result="effect1_dropShadow"/>
<feBlend mode="normal" in="SourceGraphic" in2="effect1_dropShadow" result="shape"/>
</filter>
</defs>
</svg>
