<svg width="660" height="203" viewBox="0 0 660 203" fill="none" xmlns="http://www.w3.org/2000/svg">
<rect x="1.5" y="13.5" width="657" height="188" rx="30.5" fill="#BFCCD3" stroke="#62B76B" stroke-width="3"/>
<rect x="60" y="1" width="232" height="23" fill="#BFCCD3"/>
<g filter="url(#filter0_d)">
<path d="M90.52 12.5V9.16H93.46C93.74 9.16 94.0067 9.18667 94.26 9.24C94.5267 9.28 94.76 9.36 94.96 9.48C95.16 9.6 95.32 9.76667 95.44 9.98C95.56 10.1933 95.62 10.4667 95.62 10.8C95.62 11.4 95.44 11.8333 95.08 12.1C94.72 12.3667 94.26 12.5 93.7 12.5H90.52ZM87.38 6.72V21H94.3C94.94 21 95.56 20.92 96.16 20.76C96.7733 20.6 97.3133 20.3533 97.78 20.02C98.26 19.6867 98.64 19.26 98.92 18.74C99.2 18.2067 99.34 17.58 99.34 16.86C99.34 15.9667 99.12 15.2067 98.68 14.58C98.2533 13.94 97.6 13.4933 96.72 13.24C97.36 12.9333 97.84 12.54 98.16 12.06C98.4933 11.58 98.66 10.98 98.66 10.26C98.66 9.59333 98.5467 9.03333 98.32 8.58C98.1067 8.12667 97.8 7.76667 97.4 7.5C97 7.22 96.52 7.02 95.96 6.9C95.4 6.78 94.78 6.72 94.1 6.72H87.38ZM90.52 18.56V14.64H93.94C94.62 14.64 95.1667 14.8 95.58 15.12C95.9933 15.4267 96.2 15.9467 96.2 16.68C96.2 17.0533 96.1333 17.36 96 17.6C95.88 17.84 95.7133 18.0333 95.5 18.18C95.2867 18.3133 95.04 18.4133 94.76 18.48C94.48 18.5333 94.1867 18.56 93.88 18.56H90.52ZM103.682 15.84C103.682 15.4267 103.722 15.02 103.802 14.62C103.882 14.22 104.015 13.8667 104.202 13.56C104.402 13.2533 104.662 13.0067 104.982 12.82C105.302 12.62 105.702 12.52 106.182 12.52C106.662 12.52 107.062 12.62 107.382 12.82C107.715 13.0067 107.975 13.2533 108.162 13.56C108.362 13.8667 108.502 14.22 108.582 14.62C108.662 15.02 108.702 15.4267 108.702 15.84C108.702 16.2533 108.662 16.66 108.582 17.06C108.502 17.4467 108.362 17.8 108.162 18.12C107.975 18.4267 107.715 18.6733 107.382 18.86C107.062 19.0467 106.662 19.14 106.182 19.14C105.702 19.14 105.302 19.0467 104.982 18.86C104.662 18.6733 104.402 18.4267 104.202 18.12C104.015 17.8 103.882 17.4467 103.802 17.06C103.722 16.66 103.682 16.2533 103.682 15.84ZM100.842 15.84C100.842 16.6667 100.969 17.4133 101.222 18.08C101.475 18.7467 101.835 19.32 102.302 19.8C102.769 20.2667 103.329 20.6267 103.982 20.88C104.635 21.1333 105.369 21.26 106.182 21.26C106.995 21.26 107.729 21.1333 108.382 20.88C109.049 20.6267 109.615 20.2667 110.082 19.8C110.549 19.32 110.909 18.7467 111.162 18.08C111.415 17.4133 111.542 16.6667 111.542 15.84C111.542 15.0133 111.415 14.2667 111.162 13.6C110.909 12.92 110.549 12.3467 110.082 11.88C109.615 11.4 109.049 11.0333 108.382 10.78C107.729 10.5133 106.995 10.38 106.182 10.38C105.369 10.38 104.635 10.5133 103.982 10.78C103.329 11.0333 102.769 11.4 102.302 11.88C101.835 12.3467 101.475 12.92 101.222 13.6C100.969 14.2667 100.842 15.0133 100.842 15.84ZM120.729 15.8C120.729 16.2267 120.689 16.64 120.609 17.04C120.529 17.44 120.395 17.8 120.209 18.12C120.022 18.4267 119.769 18.6733 119.449 18.86C119.142 19.0467 118.755 19.14 118.289 19.14C117.849 19.14 117.469 19.0467 117.149 18.86C116.842 18.66 116.582 18.4067 116.369 18.1C116.169 17.78 116.022 17.42 115.929 17.02C115.835 16.62 115.789 16.22 115.789 15.82C115.789 15.3933 115.829 14.9867 115.909 14.6C116.002 14.2 116.142 13.8467 116.329 13.54C116.529 13.2333 116.789 12.9867 117.109 12.8C117.429 12.6133 117.822 12.52 118.289 12.52C118.755 12.52 119.142 12.6133 119.449 12.8C119.755 12.9867 120.002 13.2333 120.189 13.54C120.389 13.8333 120.529 14.18 120.609 14.58C120.689 14.9667 120.729 15.3733 120.729 15.8ZM120.769 19.68V21H123.469V6.72H120.629V11.92H120.589C120.269 11.4133 119.829 11.0333 119.269 10.78C118.722 10.5133 118.142 10.38 117.529 10.38C116.769 10.38 116.102 10.5333 115.529 10.84C114.955 11.1333 114.475 11.5267 114.089 12.02C113.715 12.5133 113.429 13.0867 113.229 13.74C113.042 14.38 112.949 15.0467 112.949 15.74C112.949 16.46 113.042 17.1533 113.229 17.82C113.429 18.4867 113.715 19.08 114.089 19.6C114.475 20.1067 114.962 20.5133 115.549 20.82C116.135 21.1133 116.815 21.26 117.589 21.26C118.269 21.26 118.875 21.14 119.409 20.9C119.955 20.6467 120.395 20.24 120.729 19.68H120.769ZM125.495 13.84C125.535 13.1733 125.702 12.62 125.995 12.18C126.288 11.74 126.662 11.3867 127.115 11.12C127.568 10.8533 128.075 10.6667 128.635 10.56C129.208 10.44 129.782 10.38 130.355 10.38C130.875 10.38 131.402 10.42 131.935 10.5C132.468 10.5667 132.955 10.7067 133.395 10.92C133.835 11.1333 134.195 11.4333 134.475 11.82C134.755 12.1933 134.895 12.6933 134.895 13.32V18.7C134.895 19.1667 134.922 19.6133 134.975 20.04C135.028 20.4667 135.122 20.7867 135.255 21H132.375C132.322 20.84 132.275 20.68 132.235 20.52C132.208 20.3467 132.188 20.1733 132.175 20C131.722 20.4667 131.188 20.7933 130.575 20.98C129.962 21.1667 129.335 21.26 128.695 21.26C128.202 21.26 127.742 21.2 127.315 21.08C126.888 20.96 126.515 20.7733 126.195 20.52C125.875 20.2667 125.622 19.9467 125.435 19.56C125.262 19.1733 125.175 18.7133 125.175 18.18C125.175 17.5933 125.275 17.1133 125.475 16.74C125.688 16.3533 125.955 16.0467 126.275 15.82C126.608 15.5933 126.982 15.4267 127.395 15.32C127.822 15.2 128.248 15.1067 128.675 15.04C129.102 14.9733 129.522 14.92 129.935 14.88C130.348 14.84 130.715 14.78 131.035 14.7C131.355 14.62 131.608 14.5067 131.795 14.36C131.982 14.2 132.068 13.9733 132.055 13.68C132.055 13.3733 132.002 13.1333 131.895 12.96C131.802 12.7733 131.668 12.6333 131.495 12.54C131.335 12.4333 131.142 12.3667 130.915 12.34C130.702 12.3 130.468 12.28 130.215 12.28C129.655 12.28 129.215 12.4 128.895 12.64C128.575 12.88 128.388 13.28 128.335 13.84H125.495ZM132.055 15.94C131.935 16.0467 131.782 16.1333 131.595 16.2C131.422 16.2533 131.228 16.3 131.015 16.34C130.815 16.38 130.602 16.4133 130.375 16.44C130.148 16.4667 129.922 16.5 129.695 16.54C129.482 16.58 129.268 16.6333 129.055 16.7C128.855 16.7667 128.675 16.86 128.515 16.98C128.368 17.0867 128.248 17.2267 128.155 17.4C128.062 17.5733 128.015 17.7933 128.015 18.06C128.015 18.3133 128.062 18.5267 128.155 18.7C128.248 18.8733 128.375 19.0133 128.535 19.12C128.695 19.2133 128.882 19.28 129.095 19.32C129.308 19.36 129.528 19.38 129.755 19.38C130.315 19.38 130.748 19.2867 131.055 19.1C131.362 18.9133 131.588 18.6933 131.735 18.44C131.882 18.1733 131.968 17.9067 131.995 17.64C132.035 17.3733 132.055 17.16 132.055 17V15.94ZM139.3 17.64H136.6C136.626 18.3333 136.78 18.9133 137.06 19.38C137.353 19.8333 137.72 20.2 138.16 20.48C138.613 20.76 139.126 20.96 139.7 21.08C140.273 21.2 140.86 21.26 141.46 21.26C142.046 21.26 142.62 21.2 143.18 21.08C143.753 20.9733 144.26 20.78 144.7 20.5C145.14 20.22 145.493 19.8533 145.76 19.4C146.04 18.9333 146.18 18.36 146.18 17.68C146.18 17.2 146.086 16.8 145.9 16.48C145.713 16.1467 145.466 15.8733 145.16 15.66C144.853 15.4333 144.5 15.2533 144.1 15.12C143.713 14.9867 143.313 14.8733 142.9 14.78C142.5 14.6867 142.106 14.6 141.72 14.52C141.333 14.44 140.986 14.3533 140.68 14.26C140.386 14.1533 140.146 14.02 139.96 13.86C139.773 13.7 139.68 13.4933 139.68 13.24C139.68 13.0267 139.733 12.86 139.84 12.74C139.946 12.6067 140.073 12.5067 140.22 12.44C140.38 12.3733 140.553 12.3333 140.74 12.32C140.926 12.2933 141.1 12.28 141.26 12.28C141.766 12.28 142.206 12.38 142.58 12.58C142.953 12.7667 143.16 13.1333 143.2 13.68H145.9C145.846 13.04 145.68 12.5133 145.4 12.1C145.133 11.6733 144.793 11.3333 144.38 11.08C143.966 10.8267 143.493 10.6467 142.96 10.54C142.44 10.4333 141.9 10.38 141.34 10.38C140.78 10.38 140.233 10.4333 139.7 10.54C139.166 10.6333 138.686 10.8067 138.26 11.06C137.833 11.3 137.486 11.6333 137.22 12.06C136.966 12.4867 136.84 13.0333 136.84 13.7C136.84 14.1533 136.933 14.54 137.12 14.86C137.306 15.1667 137.553 15.4267 137.86 15.64C138.166 15.84 138.513 16.0067 138.9 16.14C139.3 16.26 139.706 16.3667 140.12 16.46C141.133 16.6733 141.92 16.8867 142.48 17.1C143.053 17.3133 143.34 17.6333 143.34 18.06C143.34 18.3133 143.28 18.5267 143.16 18.7C143.04 18.86 142.886 18.9933 142.7 19.1C142.526 19.1933 142.326 19.2667 142.1 19.32C141.886 19.36 141.68 19.38 141.48 19.38C141.2 19.38 140.926 19.3467 140.66 19.28C140.406 19.2133 140.18 19.1133 139.98 18.98C139.78 18.8333 139.613 18.6533 139.48 18.44C139.36 18.2133 139.3 17.9467 139.3 17.64ZM160.448 14.3H163.228C163.188 13.6333 163.028 13.06 162.748 12.58C162.468 12.0867 162.101 11.68 161.648 11.36C161.208 11.0267 160.701 10.78 160.128 10.62C159.568 10.46 158.981 10.38 158.368 10.38C157.528 10.38 156.781 10.52 156.128 10.8C155.475 11.08 154.921 11.4733 154.468 11.98C154.015 12.4733 153.668 13.0667 153.428 13.76C153.201 14.44 153.088 15.18 153.088 15.98C153.088 16.7533 153.215 17.4667 153.468 18.12C153.721 18.76 154.075 19.3133 154.528 19.78C154.981 20.2467 155.528 20.6133 156.168 20.88C156.821 21.1333 157.535 21.26 158.308 21.26C159.681 21.26 160.808 20.9 161.688 20.18C162.568 19.46 163.101 18.4133 163.288 17.04H160.548C160.455 17.68 160.221 18.1933 159.848 18.58C159.488 18.9533 158.968 19.14 158.288 19.14C157.848 19.14 157.475 19.04 157.168 18.84C156.861 18.64 156.615 18.3867 156.428 18.08C156.255 17.76 156.128 17.4067 156.048 17.02C155.968 16.6333 155.928 16.2533 155.928 15.88C155.928 15.4933 155.968 15.1067 156.048 14.72C156.128 14.32 156.261 13.96 156.448 13.64C156.648 13.3067 156.901 13.04 157.208 12.84C157.515 12.6267 157.895 12.52 158.348 12.52C159.561 12.52 160.261 13.1133 160.448 14.3ZM164.973 6.72V21H167.813V6.72H164.973ZM169.929 13.84C169.969 13.1733 170.135 12.62 170.429 12.18C170.722 11.74 171.095 11.3867 171.549 11.12C172.002 10.8533 172.509 10.6667 173.069 10.56C173.642 10.44 174.215 10.38 174.789 10.38C175.309 10.38 175.835 10.42 176.369 10.5C176.902 10.5667 177.389 10.7067 177.829 10.92C178.269 11.1333 178.629 11.4333 178.909 11.82C179.189 12.1933 179.329 12.6933 179.329 13.32V18.7C179.329 19.1667 179.355 19.6133 179.409 20.04C179.462 20.4667 179.555 20.7867 179.689 21H176.809C176.755 20.84 176.709 20.68 176.669 20.52C176.642 20.3467 176.622 20.1733 176.609 20C176.155 20.4667 175.622 20.7933 175.009 20.98C174.395 21.1667 173.769 21.26 173.129 21.26C172.635 21.26 172.175 21.2 171.749 21.08C171.322 20.96 170.949 20.7733 170.629 20.52C170.309 20.2667 170.055 19.9467 169.869 19.56C169.695 19.1733 169.609 18.7133 169.609 18.18C169.609 17.5933 169.709 17.1133 169.909 16.74C170.122 16.3533 170.389 16.0467 170.709 15.82C171.042 15.5933 171.415 15.4267 171.829 15.32C172.255 15.2 172.682 15.1067 173.109 15.04C173.535 14.9733 173.955 14.92 174.369 14.88C174.782 14.84 175.149 14.78 175.469 14.7C175.789 14.62 176.042 14.5067 176.229 14.36C176.415 14.2 176.502 13.9733 176.489 13.68C176.489 13.3733 176.435 13.1333 176.329 12.96C176.235 12.7733 176.102 12.6333 175.929 12.54C175.769 12.4333 175.575 12.3667 175.349 12.34C175.135 12.3 174.902 12.28 174.649 12.28C174.089 12.28 173.649 12.4 173.329 12.64C173.009 12.88 172.822 13.28 172.769 13.84H169.929ZM176.489 15.94C176.369 16.0467 176.215 16.1333 176.029 16.2C175.855 16.2533 175.662 16.3 175.449 16.34C175.249 16.38 175.035 16.4133 174.809 16.44C174.582 16.4667 174.355 16.5 174.129 16.54C173.915 16.58 173.702 16.6333 173.489 16.7C173.289 16.7667 173.109 16.86 172.949 16.98C172.802 17.0867 172.682 17.2267 172.589 17.4C172.495 17.5733 172.449 17.7933 172.449 18.06C172.449 18.3133 172.495 18.5267 172.589 18.7C172.682 18.8733 172.809 19.0133 172.969 19.12C173.129 19.2133 173.315 19.28 173.529 19.32C173.742 19.36 173.962 19.38 174.189 19.38C174.749 19.38 175.182 19.2867 175.489 19.1C175.795 18.9133 176.022 18.6933 176.169 18.44C176.315 18.1733 176.402 17.9067 176.429 17.64C176.469 17.3733 176.489 17.16 176.489 17V15.94ZM181.533 10.66V21H184.373V15.58C184.373 14.5267 184.546 13.7733 184.893 13.32C185.24 12.8533 185.8 12.62 186.573 12.62C187.253 12.62 187.726 12.8333 187.993 13.26C188.26 13.6733 188.393 14.3067 188.393 15.16V21H191.233V14.64C191.233 14 191.173 13.42 191.053 12.9C190.946 12.3667 190.753 11.92 190.473 11.56C190.193 11.1867 189.806 10.9 189.313 10.7C188.833 10.4867 188.213 10.38 187.453 10.38C186.853 10.38 186.266 10.52 185.693 10.8C185.12 11.0667 184.653 11.5 184.293 12.1H184.233V10.66H181.533ZM200.729 15.8C200.729 16.2267 200.689 16.64 200.609 17.04C200.529 17.44 200.395 17.8 200.209 18.12C200.022 18.4267 199.769 18.6733 199.449 18.86C199.142 19.0467 198.755 19.14 198.289 19.14C197.849 19.14 197.469 19.0467 197.149 18.86C196.842 18.66 196.582 18.4067 196.369 18.1C196.169 17.78 196.022 17.42 195.929 17.02C195.835 16.62 195.789 16.22 195.789 15.82C195.789 15.3933 195.829 14.9867 195.909 14.6C196.002 14.2 196.142 13.8467 196.329 13.54C196.529 13.2333 196.789 12.9867 197.109 12.8C197.429 12.6133 197.822 12.52 198.289 12.52C198.755 12.52 199.142 12.6133 199.449 12.8C199.755 12.9867 200.002 13.2333 200.189 13.54C200.389 13.8333 200.529 14.18 200.609 14.58C200.689 14.9667 200.729 15.3733 200.729 15.8ZM200.769 19.68V21H203.469V6.72H200.629V11.92H200.589C200.269 11.4133 199.829 11.0333 199.269 10.78C198.722 10.5133 198.142 10.38 197.529 10.38C196.769 10.38 196.102 10.5333 195.529 10.84C194.955 11.1333 194.475 11.5267 194.089 12.02C193.715 12.5133 193.429 13.0867 193.229 13.74C193.042 14.38 192.949 15.0467 192.949 15.74C192.949 16.46 193.042 17.1533 193.229 17.82C193.429 18.4867 193.715 19.08 194.089 19.6C194.475 20.1067 194.962 20.5133 195.549 20.82C196.135 21.1133 196.815 21.26 197.589 21.26C198.269 21.26 198.875 21.14 199.409 20.9C199.955 20.6467 200.395 20.24 200.729 19.68H200.769ZM212.575 14.72H207.955C207.968 14.52 208.008 14.2933 208.075 14.04C208.155 13.7867 208.282 13.5467 208.455 13.32C208.642 13.0933 208.882 12.9067 209.175 12.76C209.482 12.6 209.862 12.52 210.315 12.52C211.008 12.52 211.522 12.7067 211.855 13.08C212.202 13.4533 212.442 14 212.575 14.72ZM207.955 16.52H215.415C215.468 15.72 215.402 14.9533 215.215 14.22C215.028 13.4867 214.722 12.8333 214.295 12.26C213.882 11.6867 213.348 11.2333 212.695 10.9C212.042 10.5533 211.275 10.38 210.395 10.38C209.608 10.38 208.888 10.52 208.235 10.8C207.595 11.08 207.042 11.4667 206.575 11.96C206.108 12.44 205.748 13.0133 205.495 13.68C205.242 14.3467 205.115 15.0667 205.115 15.84C205.115 16.64 205.235 17.3733 205.475 18.04C205.728 18.7067 206.082 19.28 206.535 19.76C206.988 20.24 207.542 20.6133 208.195 20.88C208.848 21.1333 209.582 21.26 210.395 21.26C211.568 21.26 212.568 20.9933 213.395 20.46C214.222 19.9267 214.835 19.04 215.235 17.8H212.735C212.642 18.12 212.388 18.4267 211.975 18.72C211.562 19 211.068 19.14 210.495 19.14C209.695 19.14 209.082 18.9333 208.655 18.52C208.228 18.1067 207.995 17.44 207.955 16.52ZM219.3 17.64H216.6C216.626 18.3333 216.78 18.9133 217.06 19.38C217.353 19.8333 217.72 20.2 218.16 20.48C218.613 20.76 219.126 20.96 219.7 21.08C220.273 21.2 220.86 21.26 221.46 21.26C222.046 21.26 222.62 21.2 223.18 21.08C223.753 20.9733 224.26 20.78 224.7 20.5C225.14 20.22 225.493 19.8533 225.76 19.4C226.04 18.9333 226.18 18.36 226.18 17.68C226.18 17.2 226.086 16.8 225.9 16.48C225.713 16.1467 225.466 15.8733 225.16 15.66C224.853 15.4333 224.5 15.2533 224.1 15.12C223.713 14.9867 223.313 14.8733 222.9 14.78C222.5 14.6867 222.106 14.6 221.72 14.52C221.333 14.44 220.986 14.3533 220.68 14.26C220.386 14.1533 220.146 14.02 219.96 13.86C219.773 13.7 219.68 13.4933 219.68 13.24C219.68 13.0267 219.733 12.86 219.84 12.74C219.946 12.6067 220.073 12.5067 220.22 12.44C220.38 12.3733 220.553 12.3333 220.74 12.32C220.926 12.2933 221.1 12.28 221.26 12.28C221.766 12.28 222.206 12.38 222.58 12.58C222.953 12.7667 223.16 13.1333 223.2 13.68H225.9C225.846 13.04 225.68 12.5133 225.4 12.1C225.133 11.6733 224.793 11.3333 224.38 11.08C223.966 10.8267 223.493 10.6467 222.96 10.54C222.44 10.4333 221.9 10.38 221.34 10.38C220.78 10.38 220.233 10.4333 219.7 10.54C219.166 10.6333 218.686 10.8067 218.26 11.06C217.833 11.3 217.486 11.6333 217.22 12.06C216.966 12.4867 216.84 13.0333 216.84 13.7C216.84 14.1533 216.933 14.54 217.12 14.86C217.306 15.1667 217.553 15.4267 217.86 15.64C218.166 15.84 218.513 16.0067 218.9 16.14C219.3 16.26 219.706 16.3667 220.12 16.46C221.133 16.6733 221.92 16.8867 222.48 17.1C223.053 17.3133 223.34 17.6333 223.34 18.06C223.34 18.3133 223.28 18.5267 223.16 18.7C223.04 18.86 222.886 18.9933 222.7 19.1C222.526 19.1933 222.326 19.2667 222.1 19.32C221.886 19.36 221.68 19.38 221.48 19.38C221.2 19.38 220.926 19.3467 220.66 19.28C220.406 19.2133 220.18 19.1133 219.98 18.98C219.78 18.8333 219.613 18.6533 219.48 18.44C219.36 18.2133 219.3 17.9467 219.3 17.64ZM231.442 10.66V7.56H228.602V10.66H226.882V12.56H228.602V18.66C228.602 19.18 228.688 19.6 228.862 19.92C229.035 20.24 229.268 20.4867 229.562 20.66C229.868 20.8333 230.215 20.9467 230.602 21C231.002 21.0667 231.422 21.1 231.862 21.1C232.142 21.1 232.428 21.0933 232.722 21.08C233.015 21.0667 233.282 21.04 233.522 21V18.8C233.388 18.8267 233.248 18.8467 233.102 18.86C232.955 18.8733 232.802 18.88 232.642 18.88C232.162 18.88 231.842 18.8 231.682 18.64C231.522 18.48 231.442 18.16 231.442 17.68V12.56H233.522V10.66H231.442ZM237.793 9.06V6.72H234.953V9.06H237.793ZM234.953 10.66V21H237.793V10.66H234.953ZM240.029 10.66V21H242.869V15.58C242.869 14.5267 243.043 13.7733 243.389 13.32C243.736 12.8533 244.296 12.62 245.069 12.62C245.749 12.62 246.223 12.8333 246.489 13.26C246.756 13.6733 246.889 14.3067 246.889 15.16V21H249.729V14.64C249.729 14 249.669 13.42 249.549 12.9C249.443 12.3667 249.249 11.92 248.969 11.56C248.689 11.1867 248.303 10.9 247.809 10.7C247.329 10.4867 246.709 10.38 245.949 10.38C245.349 10.38 244.763 10.52 244.189 10.8C243.616 11.0667 243.149 11.5 242.789 12.1H242.729V10.66H240.029ZM251.765 13.84C251.805 13.1733 251.971 12.62 252.265 12.18C252.558 11.74 252.931 11.3867 253.385 11.12C253.838 10.8533 254.345 10.6667 254.905 10.56C255.478 10.44 256.051 10.38 256.625 10.38C257.145 10.38 257.671 10.42 258.205 10.5C258.738 10.5667 259.225 10.7067 259.665 10.92C260.105 11.1333 260.465 11.4333 260.745 11.82C261.025 12.1933 261.165 12.6933 261.165 13.32V18.7C261.165 19.1667 261.191 19.6133 261.245 20.04C261.298 20.4667 261.391 20.7867 261.525 21H258.645C258.591 20.84 258.545 20.68 258.505 20.52C258.478 20.3467 258.458 20.1733 258.445 20C257.991 20.4667 257.458 20.7933 256.845 20.98C256.231 21.1667 255.605 21.26 254.965 21.26C254.471 21.26 254.011 21.2 253.585 21.08C253.158 20.96 252.785 20.7733 252.465 20.52C252.145 20.2667 251.891 19.9467 251.705 19.56C251.531 19.1733 251.445 18.7133 251.445 18.18C251.445 17.5933 251.545 17.1133 251.745 16.74C251.958 16.3533 252.225 16.0467 252.545 15.82C252.878 15.5933 253.251 15.4267 253.665 15.32C254.091 15.2 254.518 15.1067 254.945 15.04C255.371 14.9733 255.791 14.92 256.205 14.88C256.618 14.84 256.985 14.78 257.305 14.7C257.625 14.62 257.878 14.5067 258.065 14.36C258.251 14.2 258.338 13.9733 258.325 13.68C258.325 13.3733 258.271 13.1333 258.165 12.96C258.071 12.7733 257.938 12.6333 257.765 12.54C257.605 12.4333 257.411 12.3667 257.185 12.34C256.971 12.3 256.738 12.28 256.485 12.28C255.925 12.28 255.485 12.4 255.165 12.64C254.845 12.88 254.658 13.28 254.605 13.84H251.765ZM258.325 15.94C258.205 16.0467 258.051 16.1333 257.865 16.2C257.691 16.2533 257.498 16.3 257.285 16.34C257.085 16.38 256.871 16.4133 256.645 16.44C256.418 16.4667 256.191 16.5 255.965 16.54C255.751 16.58 255.538 16.6333 255.325 16.7C255.125 16.7667 254.945 16.86 254.785 16.98C254.638 17.0867 254.518 17.2267 254.425 17.4C254.331 17.5733 254.285 17.7933 254.285 18.06C254.285 18.3133 254.331 18.5267 254.425 18.7C254.518 18.8733 254.645 19.0133 254.805 19.12C254.965 19.2133 255.151 19.28 255.365 19.32C255.578 19.36 255.798 19.38 256.025 19.38C256.585 19.38 257.018 19.2867 257.325 19.1C257.631 18.9133 257.858 18.6933 258.005 18.44C258.151 18.1733 258.238 17.9067 258.265 17.64C258.305 17.3733 258.325 17.16 258.325 17V15.94ZM265.569 17.64H262.869C262.896 18.3333 263.049 18.9133 263.329 19.38C263.622 19.8333 263.989 20.2 264.429 20.48C264.882 20.76 265.396 20.96 265.969 21.08C266.542 21.2 267.129 21.26 267.729 21.26C268.316 21.26 268.889 21.2 269.449 21.08C270.022 20.9733 270.529 20.78 270.969 20.5C271.409 20.22 271.762 19.8533 272.029 19.4C272.309 18.9333 272.449 18.36 272.449 17.68C272.449 17.2 272.356 16.8 272.169 16.48C271.982 16.1467 271.736 15.8733 271.429 15.66C271.122 15.4333 270.769 15.2533 270.369 15.12C269.982 14.9867 269.582 14.8733 269.169 14.78C268.769 14.6867 268.376 14.6 267.989 14.52C267.602 14.44 267.256 14.3533 266.949 14.26C266.656 14.1533 266.416 14.02 266.229 13.86C266.042 13.7 265.949 13.4933 265.949 13.24C265.949 13.0267 266.002 12.86 266.109 12.74C266.216 12.6067 266.342 12.5067 266.489 12.44C266.649 12.3733 266.822 12.3333 267.009 12.32C267.196 12.2933 267.369 12.28 267.529 12.28C268.036 12.28 268.476 12.38 268.849 12.58C269.222 12.7667 269.429 13.1333 269.469 13.68H272.169C272.116 13.04 271.949 12.5133 271.669 12.1C271.402 11.6733 271.062 11.3333 270.649 11.08C270.236 10.8267 269.762 10.6467 269.229 10.54C268.709 10.4333 268.169 10.38 267.609 10.38C267.049 10.38 266.502 10.4333 265.969 10.54C265.436 10.6333 264.956 10.8067 264.529 11.06C264.102 11.3 263.756 11.6333 263.489 12.06C263.236 12.4867 263.109 13.0333 263.109 13.7C263.109 14.1533 263.202 14.54 263.389 14.86C263.576 15.1667 263.822 15.4267 264.129 15.64C264.436 15.84 264.782 16.0067 265.169 16.14C265.569 16.26 265.976 16.3667 266.389 16.46C267.402 16.6733 268.189 16.8867 268.749 17.1C269.322 17.3133 269.609 17.6333 269.609 18.06C269.609 18.3133 269.549 18.5267 269.429 18.7C269.309 18.86 269.156 18.9933 268.969 19.1C268.796 19.1933 268.596 19.2667 268.369 19.32C268.156 19.36 267.949 19.38 267.749 19.38C267.469 19.38 267.196 19.3467 266.929 19.28C266.676 19.2133 266.449 19.1133 266.249 18.98C266.049 18.8333 265.882 18.6533 265.749 18.44C265.629 18.2133 265.569 17.9467 265.569 17.64Z" fill="#61B76A"/>
</g>
<defs>
<filter id="filter0_d" x="77.3809" y="0.720215" width="205.069" height="34.54" filterUnits="userSpaceOnUse" color-interpolation-filters="sRGB">
<feFlood flood-opacity="0" result="BackgroundImageFix"/>
<feColorMatrix in="SourceAlpha" type="matrix" values="0 0 0 0 0 0 0 0 0 0 0 0 0 0 0 0 0 0 127 0"/>
<feOffset dy="4"/>
<feGaussianBlur stdDeviation="5"/>
<feColorMatrix type="matrix" values="0 0 0 0 0.780392 0 0 0 0 1 0 0 0 0 0.709804 0 0 0 0.25 0"/>
<feBlend mode="normal" in2="BackgroundImageFix" result="effect1_dropShadow"/>
<feBlend mode="normal" in="SourceGraphic" in2="effect1_dropShadow" result="shape"/>
</filter>
</defs>
</svg>
