<svg width="92" height="117" viewBox="0 0 92 117" fill="none" xmlns="http://www.w3.org/2000/svg">
<path d="M76 59H43.5V34H37C33 34 32 31.3333 32 30V12.5H37V8H32V2H28V8H23V12.5H28C28.1667 17.1667 28.4 27.2 28 30C27.6 32.8 23.8333 33.8333 22 34H16V84.5H76V59Z" stroke="#B23634" stroke-width="3"/>
<path d="M1.89844 97.6055H4.90625V109.412H12.0352V112H1.89844V97.6055ZM19.7695 106.824C19.5938 106.935 19.4147 107.026 19.2324 107.098C19.0566 107.163 18.8125 107.225 18.5 107.283L17.875 107.4C17.2891 107.505 16.8691 107.632 16.6152 107.781C16.1855 108.035 15.9707 108.429 15.9707 108.963C15.9707 109.438 16.1009 109.783 16.3613 109.998C16.6283 110.206 16.9505 110.311 17.3281 110.311C17.9271 110.311 18.4772 110.135 18.9785 109.783C19.4863 109.432 19.75 108.79 19.7695 107.859V106.824ZM18.0801 105.525C18.5944 105.46 18.9622 105.379 19.1836 105.281C19.5807 105.112 19.7793 104.848 19.7793 104.49C19.7793 104.054 19.6263 103.755 19.3203 103.592C19.0208 103.423 18.5781 103.338 17.9922 103.338C17.3346 103.338 16.8691 103.501 16.5957 103.826C16.4004 104.067 16.2702 104.393 16.2051 104.803H13.5195C13.5781 103.872 13.8385 103.107 14.3008 102.508C15.0365 101.57 16.2995 101.102 18.0898 101.102C19.2552 101.102 20.2904 101.333 21.1953 101.795C22.1003 102.257 22.5527 103.13 22.5527 104.412V109.295C22.5527 109.633 22.5592 110.044 22.5723 110.525C22.5918 110.89 22.6471 111.137 22.7383 111.268C22.8294 111.398 22.9661 111.505 23.1484 111.59V112H20.1211C20.0365 111.785 19.9779 111.583 19.9453 111.395C19.9128 111.206 19.8867 110.991 19.8672 110.75C19.4831 111.167 19.0404 111.521 18.5391 111.814C17.9401 112.16 17.263 112.332 16.5078 112.332C15.5443 112.332 14.7467 112.059 14.1152 111.512C13.4902 110.958 13.1777 110.177 13.1777 109.168C13.1777 107.859 13.6823 106.912 14.6914 106.326C15.2448 106.007 16.0586 105.779 17.1328 105.643L18.0801 105.525ZM33.5781 112H30.5898V97.6055H33.5781V112ZM40.7363 109.715C41.3874 109.715 41.9375 109.471 42.3867 108.982C42.8359 108.488 43.0605 107.703 43.0605 106.629C43.0605 105.62 42.8457 104.852 42.416 104.324C41.9928 103.797 41.4232 103.533 40.707 103.533C39.7305 103.533 39.0566 103.992 38.6855 104.91C38.4902 105.398 38.3926 106.001 38.3926 106.717C38.3926 107.335 38.4967 107.885 38.7051 108.367C39.0827 109.266 39.7598 109.715 40.7363 109.715ZM40.043 101.102C40.5768 101.102 41.0423 101.183 41.4395 101.346C42.1165 101.626 42.6634 102.14 43.0801 102.889V101.355H45.7852V111.453C45.7852 112.827 45.554 113.862 45.0918 114.559C44.2975 115.757 42.7741 116.355 40.5215 116.355C39.1608 116.355 38.0508 116.089 37.1914 115.555C36.332 115.021 35.8568 114.223 35.7656 113.162H38.793C38.8711 113.488 38.998 113.722 39.1738 113.865C39.4733 114.119 39.9779 114.246 40.6875 114.246C41.6901 114.246 42.3607 113.911 42.6992 113.24C42.9206 112.811 43.0312 112.088 43.0312 111.072V110.389C42.7643 110.844 42.4779 111.186 42.1719 111.414C41.6185 111.837 40.8991 112.049 40.0137 112.049C38.6465 112.049 37.5527 111.57 36.7324 110.613C35.9186 109.65 35.5117 108.348 35.5117 106.707C35.5117 105.125 35.9056 103.797 36.6934 102.723C37.4811 101.642 38.5977 101.102 40.043 101.102ZM51.2344 112H48.4512V97.6055H51.2344V112ZM58.1582 103.367C57.5137 103.367 57.0124 103.569 56.6543 103.973C56.3027 104.376 56.0814 104.923 55.9902 105.613H60.3164C60.2708 104.878 60.0462 104.321 59.6426 103.943C59.2454 103.559 58.7507 103.367 58.1582 103.367ZM58.1582 101.072C59.0436 101.072 59.8411 101.238 60.5508 101.57C61.2604 101.902 61.8464 102.426 62.3086 103.143C62.7253 103.774 62.9954 104.507 63.1191 105.34C63.1908 105.828 63.2201 106.531 63.207 107.449H55.9219C55.9609 108.517 56.2962 109.266 56.9277 109.695C57.3118 109.962 57.7741 110.096 58.3145 110.096C58.8874 110.096 59.3529 109.933 59.7109 109.607C59.9062 109.432 60.0788 109.188 60.2285 108.875H63.0703C62.9987 109.507 62.6699 110.148 62.084 110.799C61.1725 111.834 59.8965 112.352 58.2559 112.352C56.9017 112.352 55.707 111.915 54.6719 111.043C53.6367 110.171 53.1191 108.751 53.1191 106.785C53.1191 104.943 53.5846 103.53 54.5156 102.547C55.4531 101.564 56.6673 101.072 58.1582 101.072ZM67.2598 108.602C67.3184 109.096 67.4453 109.448 67.6406 109.656C67.9857 110.027 68.6237 110.213 69.5547 110.213C70.1016 110.213 70.5345 110.132 70.8535 109.969C71.179 109.806 71.3418 109.562 71.3418 109.236C71.3418 108.924 71.2116 108.686 70.9512 108.523C70.6908 108.361 69.724 108.081 68.0508 107.684C66.8464 107.384 65.9967 107.01 65.502 106.561C65.0072 106.118 64.7598 105.48 64.7598 104.646C64.7598 103.663 65.1439 102.82 65.9121 102.117C66.6868 101.408 67.7741 101.053 69.1738 101.053C70.502 101.053 71.5827 101.32 72.416 101.854C73.2559 102.381 73.7376 103.296 73.8613 104.598H71.0781C71.0391 104.24 70.9382 103.956 70.7754 103.748C70.4694 103.37 69.9486 103.182 69.2129 103.182C68.6074 103.182 68.1745 103.276 67.9141 103.465C67.6602 103.654 67.5332 103.875 67.5332 104.129C67.5332 104.448 67.6699 104.679 67.9434 104.822C68.2168 104.972 69.1836 105.229 70.8438 105.594C71.9505 105.854 72.7806 106.248 73.334 106.775C73.8809 107.309 74.1543 107.977 74.1543 108.777C74.1543 109.832 73.7604 110.695 72.9727 111.365C72.1914 112.029 70.9805 112.361 69.3398 112.361C67.6667 112.361 66.4297 112.01 65.6289 111.307C64.8346 110.597 64.4375 109.695 64.4375 108.602H67.2598ZM79.0859 100.086H76.2637V97.5176H79.0859V100.086ZM76.2637 101.355H79.0859V112H76.2637V101.355ZM87.6602 106.824C87.4844 106.935 87.3053 107.026 87.123 107.098C86.9473 107.163 86.7031 107.225 86.3906 107.283L85.7656 107.4C85.1797 107.505 84.7598 107.632 84.5059 107.781C84.0762 108.035 83.8613 108.429 83.8613 108.963C83.8613 109.438 83.9915 109.783 84.252 109.998C84.5189 110.206 84.8411 110.311 85.2188 110.311C85.8177 110.311 86.3678 110.135 86.8691 109.783C87.377 109.432 87.6406 108.79 87.6602 107.859V106.824ZM85.9707 105.525C86.485 105.46 86.8529 105.379 87.0742 105.281C87.4714 105.112 87.6699 104.848 87.6699 104.49C87.6699 104.054 87.5169 103.755 87.2109 103.592C86.9115 103.423 86.4688 103.338 85.8828 103.338C85.2253 103.338 84.7598 103.501 84.4863 103.826C84.291 104.067 84.1608 104.393 84.0957 104.803H81.4102C81.4688 103.872 81.7292 103.107 82.1914 102.508C82.9271 101.57 84.1901 101.102 85.9805 101.102C87.1458 101.102 88.181 101.333 89.0859 101.795C89.9909 102.257 90.4434 103.13 90.4434 104.412V109.295C90.4434 109.633 90.4499 110.044 90.4629 110.525C90.4824 110.89 90.5378 111.137 90.6289 111.268C90.7201 111.398 90.8568 111.505 91.0391 111.59V112H88.0117C87.9271 111.785 87.8685 111.583 87.8359 111.395C87.8034 111.206 87.7773 110.991 87.7578 110.75C87.3737 111.167 86.931 111.521 86.4297 111.814C85.8307 112.16 85.1536 112.332 84.3984 112.332C83.4349 112.332 82.6374 112.059 82.0059 111.512C81.3809 110.958 81.0684 110.177 81.0684 109.168C81.0684 107.859 81.5729 106.912 82.582 106.326C83.1354 106.007 83.9492 105.779 85.0234 105.643L85.9707 105.525Z" fill="#B23634"/>
</svg>
