<svg width="92" height="117" viewBox="0 0 92 117" fill="none" xmlns="http://www.w3.org/2000/svg">
<path d="M76 59H43.5V34H37C33 34 32 31.3333 32 30V12.5H37V8H32V2H28V8H23V12.5H28C28.1667 17.1667 28.4 27.2 28 30C27.6 32.8 23.8333 33.8333 22 34H16V84.5H76V59Z" stroke="#1E2021" stroke-width="3"/>
<path d="M12.7731 105.82C12.7731 107.567 12.6798 108.96 12.4931 110H1.05313L0.933125 109.36C1.43979 109.013 2.00646 108.7 2.63313 108.42V98.06L1.09313 97.82L1.11312 96.76H7.83313L7.95313 97.4C7.47313 97.7467 6.90646 98.06 6.25313 98.34V108.14L9.81313 107.8L10.7131 104.9L12.7731 105.08V105.82ZM23.5653 108.86L20.9253 110.34C20.552 110.327 20.1786 110.187 19.8053 109.92C19.432 109.653 19.1253 109.307 18.8853 108.88L16.7653 110.26L16.0853 110.32C15.2186 110.32 14.492 110.067 13.9053 109.56C13.332 109.053 13.0453 108.44 13.0453 107.72C13.0453 106.72 13.5853 105.933 14.6653 105.36L18.4653 105.28V103.64C18.4653 102.613 18.1586 101.94 17.5453 101.62C17.1186 101.647 16.7453 101.727 16.4253 101.86L15.9453 104.06L13.9853 104.1C13.732 103.38 13.6053 102.62 13.6053 101.82L13.6453 101.08C14.4453 100.773 15.372 100.513 16.4253 100.3C17.4786 100.073 18.292 99.96 18.8653 99.96C20.052 99.96 20.992 100.447 21.6853 101.42C21.832 101.673 21.912 102.18 21.9253 102.94V107.52C21.9253 107.867 22.092 108.04 22.4253 108.04L22.9653 108.02L23.4453 107.98L23.5653 108.86ZM16.4653 107.5C16.4653 107.847 16.5786 108.133 16.8053 108.36C17.2053 108.333 17.7586 108.207 18.4653 107.98V106.5C17.132 106.473 16.4653 106.807 16.4653 107.5ZM36.6278 108.94L36.6078 110H29.6078L29.4878 109.36C29.9945 109.013 30.5611 108.7 31.1878 108.42V98.06L29.6478 97.82L29.6678 96.76H36.3878L36.5078 97.4C36.0278 97.7467 35.4611 98.06 34.8078 98.34V108.64L36.6278 108.94ZM39.8777 107.62C40.9577 107.633 42.1177 107.747 43.3577 107.96C44.5977 108.16 45.7177 108.42 46.7177 108.74C46.9043 109.193 46.9977 109.633 46.9977 110.06C46.9977 111.34 46.371 112.473 45.1177 113.46C43.8777 114.447 42.4177 114.94 40.7377 114.94C39.6177 114.94 38.631 114.687 37.7777 114.18C36.9243 113.687 36.4577 112.913 36.3777 111.86L38.4577 110L37.3977 109.94L36.9777 108.46C37.751 107.66 38.511 107.033 39.2577 106.58C38.4443 106.3 37.811 105.887 37.3577 105.34C36.9177 104.78 36.6977 104.16 36.6977 103.48C36.6977 102.48 37.1443 101.64 38.0377 100.96C38.9443 100.267 40.0777 99.92 41.4377 99.92C42.5177 99.92 43.4643 100.14 44.2777 100.58C44.6777 99.46 45.5777 98.86 46.9777 98.78L47.5377 101.62L46.8377 101.56C46.411 101.56 46.011 101.633 45.6377 101.78C45.971 102.273 46.1377 102.82 46.1377 103.42C46.1377 104.42 45.691 105.247 44.7977 105.9C43.9043 106.553 42.7577 106.88 41.3577 106.88L40.7577 106.86L39.8777 107.62ZM40.5777 101.6C40.231 101.893 40.0577 102.493 40.0577 103.4C40.0577 103.987 40.191 104.473 40.4577 104.86C40.7243 105.247 41.1043 105.44 41.5977 105.44C41.7843 105.44 41.9643 105.413 42.1377 105.36C42.5777 105.053 42.7977 104.473 42.7977 103.62C42.7977 103.06 42.6443 102.567 42.3377 102.14C42.031 101.7 41.6377 101.48 41.1577 101.48C40.971 101.48 40.7777 101.52 40.5777 101.6ZM41.2777 112.38C41.9443 112.38 42.5843 112.273 43.1977 112.06C43.811 111.847 44.2643 111.547 44.5577 111.16C43.411 110.707 41.7977 110.36 39.7177 110.12C39.2777 110.52 39.0577 110.887 39.0577 111.22C39.0577 111.993 39.7977 112.38 41.2777 112.38ZM52.8792 108.32C53.4659 108.52 53.9459 108.753 54.3192 109.02L54.2792 110H47.9392L47.8992 109.3C48.3659 109.033 48.8726 108.807 49.4192 108.62V97.26L47.9392 97L47.8392 96C48.9592 95.6 50.2792 95.3533 51.7992 95.26L52.8792 96.26V108.32ZM62.938 105.42L57.898 105.38C57.9913 106.247 58.298 106.913 58.818 107.38C59.3513 107.847 60.018 108.08 60.818 108.08C61.5246 108.08 62.3713 107.827 63.358 107.32L63.858 108.46L60.718 110.24L59.798 110.3C58.318 110.3 57.0846 109.833 56.098 108.9C55.1246 107.967 54.638 106.773 54.638 105.32C54.638 103.84 55.1313 102.587 56.118 101.56C57.118 100.52 58.3246 100 59.738 100C61.0313 100 62.0846 100.393 62.898 101.18C63.7113 101.953 64.1113 102.98 64.098 104.26L62.938 105.42ZM59.198 101.66C58.558 102.06 58.1513 102.793 57.978 103.86L60.978 103.68C60.898 103.133 60.6913 102.667 60.358 102.28C60.038 101.88 59.6513 101.673 59.198 101.66ZM68.198 102.38C68.198 102.62 68.2846 102.84 68.458 103.04C68.6313 103.227 69.2513 103.6 70.318 104.16C71.3846 104.707 72.1046 105.22 72.478 105.7C72.8513 106.167 73.038 106.7 73.038 107.3C73.038 108.207 72.6646 108.953 71.918 109.54C71.1713 110.113 70.178 110.4 68.938 110.4C67.538 110.4 66.1446 110.04 64.758 109.32L65.898 106.7C67.058 107.593 68.258 108.26 69.498 108.7C69.738 108.487 69.858 108.24 69.858 107.96C69.858 107.707 69.758 107.48 69.558 107.28C69.3713 107.08 68.758 106.72 67.718 106.2C66.6913 105.667 65.9913 105.173 65.618 104.72C65.258 104.253 65.078 103.727 65.078 103.14C65.078 102.207 65.4846 101.453 66.298 100.88C67.1246 100.293 68.1913 100 69.498 100C70.7113 100 71.7446 100.22 72.598 100.66L72.638 101.36C72.638 102.053 72.5246 102.753 72.298 103.46H70.538L69.918 101.64L68.998 101.54C68.4646 101.7 68.198 101.98 68.198 102.38ZM77.2377 98.98C76.3177 98.5667 75.5243 97.96 74.8577 97.16C75.391 96.1333 76.051 95.3333 76.8377 94.76C77.731 95.2267 78.4843 95.9067 79.0977 96.8C78.6577 97.68 78.0377 98.4067 77.2377 98.98ZM78.7777 108.32C79.3643 108.52 79.8443 108.753 80.2177 109.02L80.1777 110H73.8377L73.7977 109.3C74.2643 109.033 74.771 108.807 75.3177 108.62V102.02L73.8377 101.74L73.7377 100.78C74.9243 100.327 76.2443 100.08 77.6977 100.04L78.7777 101V108.32ZM91.3973 108.86L88.7573 110.34C88.384 110.327 88.0107 110.187 87.6373 109.92C87.264 109.653 86.9573 109.307 86.7173 108.88L84.5973 110.26L83.9173 110.32C83.0507 110.32 82.324 110.067 81.7373 109.56C81.164 109.053 80.8773 108.44 80.8773 107.72C80.8773 106.72 81.4173 105.933 82.4973 105.36L86.2973 105.28V103.64C86.2973 102.613 85.9907 101.94 85.3773 101.62C84.9507 101.647 84.5773 101.727 84.2573 101.86L83.7773 104.06L81.8173 104.1C81.564 103.38 81.4373 102.62 81.4373 101.82L81.4773 101.08C82.2773 100.773 83.204 100.513 84.2573 100.3C85.3107 100.073 86.124 99.96 86.6973 99.96C87.884 99.96 88.824 100.447 89.5173 101.42C89.664 101.673 89.744 102.18 89.7573 102.94V107.52C89.7573 107.867 89.924 108.04 90.2573 108.04L90.7973 108.02L91.2773 107.98L91.3973 108.86ZM84.2973 107.5C84.2973 107.847 84.4107 108.133 84.6373 108.36C85.0373 108.333 85.5907 108.207 86.2973 107.98V106.5C84.964 106.473 84.2973 106.807 84.2973 107.5Z" fill="#1E2021"/>
</svg>
