<svg width="99" height="143" viewBox="0 0 99 143" fill="none" xmlns="http://www.w3.org/2000/svg">
<path d="M78.8661 82.8643V54.6733H47.2928V37.5879C47.2928 37.5879 32.7861 38.4422 32.7861 28.1909C32.7861 28.1909 32.7861 37.5879 19.1328 37.5879V82.8643H78.8661Z" stroke="#B23634" stroke-width="4" stroke-miterlimit="10"/>
<path d="M32.7871 28.191V0" stroke="#B23634" stroke-width="4" stroke-miterlimit="10"/>
<path d="M25.1055 7.68848H40.4655" stroke="#B23634" stroke-width="4" stroke-miterlimit="10"/>
<path d="M5.16711 100.72V115H8.30711V100.72H5.16711ZM15.5855 112.56C15.1455 112.56 14.7789 112.467 14.4855 112.28C14.1922 112.093 13.9522 111.853 13.7655 111.56C13.5922 111.267 13.4655 110.94 13.3855 110.58C13.3189 110.207 13.2855 109.833 13.2855 109.46C13.2855 109.073 13.3255 108.707 13.4055 108.36C13.4989 108 13.6389 107.687 13.8255 107.42C14.0255 107.14 14.2655 106.92 14.5455 106.76C14.8389 106.6 15.1855 106.52 15.5855 106.52C16.0522 106.52 16.4389 106.607 16.7455 106.78C17.0522 106.953 17.2989 107.187 17.4855 107.48C17.6722 107.773 17.8055 108.113 17.8855 108.5C17.9655 108.873 18.0055 109.273 18.0055 109.7C18.0055 110.073 17.9522 110.433 17.8455 110.78C17.7522 111.113 17.6055 111.413 17.4055 111.68C17.2055 111.947 16.9522 112.16 16.6455 112.32C16.3389 112.48 15.9855 112.56 15.5855 112.56ZM20.7055 114.34V104.66H18.0055V106.04H17.9655C17.6189 105.44 17.1855 105.013 16.6655 104.76C16.1589 104.507 15.5655 104.38 14.8855 104.38C14.1655 104.38 13.5255 104.52 12.9655 104.8C12.4189 105.08 11.9589 105.46 11.5855 105.94C11.2122 106.407 10.9255 106.953 10.7255 107.58C10.5389 108.193 10.4455 108.833 10.4455 109.5C10.4455 110.207 10.5255 110.88 10.6855 111.52C10.8589 112.147 11.1255 112.7 11.4855 113.18C11.8455 113.647 12.3055 114.02 12.8655 114.3C13.4255 114.567 14.0922 114.7 14.8655 114.7C15.4922 114.7 16.0855 114.573 16.6455 114.32C17.2189 114.053 17.6589 113.647 17.9655 113.1H18.0055V114.46C18.0189 115.193 17.8389 115.8 17.4655 116.28C17.1055 116.76 16.5255 117 15.7255 117C15.2189 117 14.7722 116.893 14.3855 116.68C13.9989 116.48 13.7389 116.113 13.6055 115.58H10.7855C10.8255 116.167 10.9855 116.667 11.2655 117.08C11.5589 117.507 11.9189 117.853 12.3455 118.12C12.7855 118.387 13.2655 118.58 13.7855 118.7C14.3189 118.833 14.8389 118.9 15.3455 118.9C16.5322 118.9 17.4789 118.74 18.1855 118.42C18.8922 118.1 19.4322 117.707 19.8055 117.24C20.1789 116.787 20.4189 116.293 20.5255 115.76C20.6455 115.227 20.7055 114.753 20.7055 114.34ZM23.0721 100.72V115H25.9121V100.72H23.0721ZM35.1084 108.72H30.4884C30.5017 108.52 30.5417 108.293 30.6084 108.04C30.6884 107.787 30.815 107.547 30.9884 107.32C31.175 107.093 31.415 106.907 31.7084 106.76C32.015 106.6 32.395 106.52 32.8484 106.52C33.5417 106.52 34.055 106.707 34.3884 107.08C34.735 107.453 34.975 108 35.1084 108.72ZM30.4884 110.52H37.9484C38.0017 109.72 37.935 108.953 37.7484 108.22C37.5617 107.487 37.255 106.833 36.8284 106.26C36.415 105.687 35.8817 105.233 35.2284 104.9C34.575 104.553 33.8084 104.38 32.9284 104.38C32.1417 104.38 31.4217 104.52 30.7684 104.8C30.1284 105.08 29.575 105.467 29.1084 105.96C28.6417 106.44 28.2817 107.013 28.0284 107.68C27.775 108.347 27.6484 109.067 27.6484 109.84C27.6484 110.64 27.7684 111.373 28.0084 112.04C28.2617 112.707 28.615 113.28 29.0684 113.76C29.5217 114.24 30.075 114.613 30.7284 114.88C31.3817 115.133 32.115 115.26 32.9284 115.26C34.1017 115.26 35.1017 114.993 35.9284 114.46C36.755 113.927 37.3684 113.04 37.7684 111.8H35.2684C35.175 112.12 34.9217 112.427 34.5084 112.72C34.095 113 33.6017 113.14 33.0284 113.14C32.2284 113.14 31.615 112.933 31.1884 112.52C30.7617 112.107 30.5284 111.44 30.4884 110.52ZM41.8327 111.64H39.1327C39.1594 112.333 39.3127 112.913 39.5927 113.38C39.8861 113.833 40.2527 114.2 40.6927 114.48C41.1461 114.76 41.6594 114.96 42.2327 115.08C42.8061 115.2 43.3927 115.26 43.9927 115.26C44.5794 115.26 45.1527 115.2 45.7127 115.08C46.2861 114.973 46.7927 114.78 47.2327 114.5C47.6727 114.22 48.0261 113.853 48.2927 113.4C48.5727 112.933 48.7127 112.36 48.7127 111.68C48.7127 111.2 48.6194 110.8 48.4327 110.48C48.2461 110.147 47.9994 109.873 47.6927 109.66C47.3861 109.433 47.0327 109.253 46.6327 109.12C46.2461 108.987 45.8461 108.873 45.4327 108.78C45.0327 108.687 44.6394 108.6 44.2527 108.52C43.8661 108.44 43.5194 108.353 43.2127 108.26C42.9194 108.153 42.6794 108.02 42.4927 107.86C42.3061 107.7 42.2127 107.493 42.2127 107.24C42.2127 107.027 42.2661 106.86 42.3727 106.74C42.4794 106.607 42.6061 106.507 42.7527 106.44C42.9127 106.373 43.0861 106.333 43.2727 106.32C43.4594 106.293 43.6327 106.28 43.7927 106.28C44.2994 106.28 44.7394 106.38 45.1127 106.58C45.4861 106.767 45.6927 107.133 45.7327 107.68H48.4327C48.3794 107.04 48.2127 106.513 47.9327 106.1C47.6661 105.673 47.3261 105.333 46.9127 105.08C46.4994 104.827 46.0261 104.647 45.4927 104.54C44.9727 104.433 44.4327 104.38 43.8727 104.38C43.3127 104.38 42.7661 104.433 42.2327 104.54C41.6994 104.633 41.2194 104.807 40.7927 105.06C40.3661 105.3 40.0194 105.633 39.7527 106.06C39.4994 106.487 39.3727 107.033 39.3727 107.7C39.3727 108.153 39.4661 108.54 39.6527 108.86C39.8394 109.167 40.0861 109.427 40.3927 109.64C40.6994 109.84 41.0461 110.007 41.4327 110.14C41.8327 110.26 42.2394 110.367 42.6527 110.46C43.6661 110.673 44.4527 110.887 45.0127 111.1C45.5861 111.313 45.8727 111.633 45.8727 112.06C45.8727 112.313 45.8127 112.527 45.6927 112.7C45.5727 112.86 45.4194 112.993 45.2327 113.1C45.0594 113.193 44.8594 113.267 44.6327 113.32C44.4194 113.36 44.2127 113.38 44.0127 113.38C43.7327 113.38 43.4594 113.347 43.1927 113.28C42.9394 113.213 42.7127 113.113 42.5127 112.98C42.3127 112.833 42.1461 112.653 42.0127 112.44C41.8927 112.213 41.8327 111.947 41.8327 111.64ZM53.2949 103.06V100.72H50.4549V103.06H53.2949ZM50.4549 104.66V115H53.2949V104.66H50.4549ZM55.4112 107.84C55.4512 107.173 55.6178 106.62 55.9112 106.18C56.2045 105.74 56.5778 105.387 57.0312 105.12C57.4845 104.853 57.9912 104.667 58.5512 104.56C59.1245 104.44 59.6978 104.38 60.2712 104.38C60.7912 104.38 61.3178 104.42 61.8512 104.5C62.3845 104.567 62.8712 104.707 63.3112 104.92C63.7512 105.133 64.1112 105.433 64.3912 105.82C64.6712 106.193 64.8112 106.693 64.8112 107.32V112.7C64.8112 113.167 64.8378 113.613 64.8912 114.04C64.9445 114.467 65.0378 114.787 65.1712 115H62.2912C62.2378 114.84 62.1912 114.68 62.1512 114.52C62.1245 114.347 62.1045 114.173 62.0912 114C61.6378 114.467 61.1045 114.793 60.4912 114.98C59.8778 115.167 59.2512 115.26 58.6112 115.26C58.1178 115.26 57.6578 115.2 57.2312 115.08C56.8045 114.96 56.4312 114.773 56.1112 114.52C55.7912 114.267 55.5378 113.947 55.3512 113.56C55.1778 113.173 55.0912 112.713 55.0912 112.18C55.0912 111.593 55.1912 111.113 55.3912 110.74C55.6045 110.353 55.8712 110.047 56.1912 109.82C56.5245 109.593 56.8978 109.427 57.3112 109.32C57.7378 109.2 58.1645 109.107 58.5912 109.04C59.0178 108.973 59.4378 108.92 59.8512 108.88C60.2645 108.84 60.6312 108.78 60.9512 108.7C61.2712 108.62 61.5245 108.507 61.7112 108.36C61.8978 108.2 61.9845 107.973 61.9712 107.68C61.9712 107.373 61.9178 107.133 61.8112 106.96C61.7178 106.773 61.5845 106.633 61.4112 106.54C61.2512 106.433 61.0578 106.367 60.8312 106.34C60.6178 106.3 60.3845 106.28 60.1312 106.28C59.5712 106.28 59.1312 106.4 58.8112 106.64C58.4912 106.88 58.3045 107.28 58.2512 107.84H55.4112ZM61.9712 109.94C61.8512 110.047 61.6978 110.133 61.5112 110.2C61.3378 110.253 61.1445 110.3 60.9312 110.34C60.7312 110.38 60.5178 110.413 60.2912 110.44C60.0645 110.467 59.8378 110.5 59.6112 110.54C59.3978 110.58 59.1845 110.633 58.9712 110.7C58.7712 110.767 58.5912 110.86 58.4312 110.98C58.2845 111.087 58.1645 111.227 58.0712 111.4C57.9778 111.573 57.9312 111.793 57.9312 112.06C57.9312 112.313 57.9778 112.527 58.0712 112.7C58.1645 112.873 58.2912 113.013 58.4512 113.12C58.6112 113.213 58.7978 113.28 59.0112 113.32C59.2245 113.36 59.4445 113.38 59.6712 113.38C60.2312 113.38 60.6645 113.287 60.9712 113.1C61.2778 112.913 61.5045 112.693 61.6512 112.44C61.7978 112.173 61.8845 111.907 61.9112 111.64C61.9512 111.373 61.9712 111.16 61.9712 111V109.94ZM79.922 109.8C79.922 110.227 79.882 110.64 79.802 111.04C79.722 111.44 79.5886 111.8 79.402 112.12C79.2153 112.427 78.962 112.673 78.642 112.86C78.3353 113.047 77.9486 113.14 77.482 113.14C77.042 113.14 76.662 113.047 76.342 112.86C76.0353 112.66 75.7753 112.407 75.562 112.1C75.362 111.78 75.2153 111.42 75.122 111.02C75.0286 110.62 74.982 110.22 74.982 109.82C74.982 109.393 75.022 108.987 75.102 108.6C75.1953 108.2 75.3353 107.847 75.522 107.54C75.722 107.233 75.982 106.987 76.302 106.8C76.622 106.613 77.0153 106.52 77.482 106.52C77.9486 106.52 78.3353 106.613 78.642 106.8C78.9486 106.987 79.1953 107.233 79.382 107.54C79.582 107.833 79.722 108.18 79.802 108.58C79.882 108.967 79.922 109.373 79.922 109.8ZM79.962 113.68V115H82.662V100.72H79.822V105.92H79.782C79.462 105.413 79.022 105.033 78.462 104.78C77.9153 104.513 77.3353 104.38 76.722 104.38C75.962 104.38 75.2953 104.533 74.722 104.84C74.1486 105.133 73.6686 105.527 73.282 106.02C72.9086 106.513 72.622 107.087 72.422 107.74C72.2353 108.38 72.142 109.047 72.142 109.74C72.142 110.46 72.2353 111.153 72.422 111.82C72.622 112.487 72.9086 113.08 73.282 113.6C73.6686 114.107 74.1553 114.513 74.742 114.82C75.3286 115.113 76.0086 115.26 76.782 115.26C77.462 115.26 78.0686 115.14 78.602 114.9C79.1486 114.647 79.5886 114.24 79.922 113.68H79.962ZM91.7685 108.72H87.1485C87.1618 108.52 87.2018 108.293 87.2685 108.04C87.3485 107.787 87.4752 107.547 87.6485 107.32C87.8352 107.093 88.0752 106.907 88.3685 106.76C88.6752 106.6 89.0552 106.52 89.5085 106.52C90.2018 106.52 90.7152 106.707 91.0485 107.08C91.3952 107.453 91.6352 108 91.7685 108.72ZM87.1485 110.52H94.6085C94.6618 109.72 94.5952 108.953 94.4085 108.22C94.2218 107.487 93.9152 106.833 93.4885 106.26C93.0752 105.687 92.5418 105.233 91.8885 104.9C91.2352 104.553 90.4685 104.38 89.5885 104.38C88.8018 104.38 88.0818 104.52 87.4285 104.8C86.7885 105.08 86.2352 105.467 85.7685 105.96C85.3018 106.44 84.9418 107.013 84.6885 107.68C84.4352 108.347 84.3085 109.067 84.3085 109.84C84.3085 110.64 84.4285 111.373 84.6685 112.04C84.9218 112.707 85.2752 113.28 85.7285 113.76C86.1818 114.24 86.7352 114.613 87.3885 114.88C88.0418 115.133 88.7752 115.26 89.5885 115.26C90.7618 115.26 91.7618 114.993 92.5885 114.46C93.4152 113.927 94.0285 113.04 94.4285 111.8H91.9285C91.8352 112.12 91.5818 112.427 91.1685 112.72C90.7552 113 90.2618 113.14 89.6885 113.14C88.8885 113.14 88.2752 112.933 87.8485 112.52C87.4218 112.107 87.1885 111.44 87.1485 110.52ZM3.72313 134.26H0.683125C0.669792 135.14 0.829792 135.9 1.16313 136.54C1.49646 137.18 1.94313 137.707 2.50313 138.12C3.07646 138.533 3.72979 138.833 4.46313 139.02C5.20979 139.22 5.97646 139.32 6.76313 139.32C7.73646 139.32 8.58979 139.207 9.32313 138.98C10.0698 138.753 10.6898 138.44 11.1831 138.04C11.6898 137.627 12.0698 137.14 12.3231 136.58C12.5765 136.02 12.7031 135.413 12.7031 134.76C12.7031 133.96 12.5298 133.307 12.1831 132.8C11.8498 132.28 11.4498 131.867 10.9831 131.56C10.5165 131.253 10.0431 131.033 9.56313 130.9C9.09646 130.753 8.72979 130.653 8.46313 130.6C7.56979 130.373 6.84313 130.187 6.28313 130.04C5.73646 129.893 5.30313 129.747 4.98313 129.6C4.67646 129.453 4.46979 129.293 4.36313 129.12C4.25646 128.947 4.20313 128.72 4.20313 128.44C4.20313 128.133 4.26979 127.88 4.40313 127.68C4.53646 127.48 4.70313 127.313 4.90313 127.18C5.11646 127.047 5.34979 126.953 5.60313 126.9C5.85646 126.847 6.10979 126.82 6.36313 126.82C6.74979 126.82 7.10313 126.853 7.42313 126.92C7.75646 126.987 8.04979 127.1 8.30313 127.26C8.55646 127.42 8.75646 127.64 8.90313 127.92C9.06313 128.2 9.15646 128.553 9.18313 128.98H12.2231C12.2231 128.153 12.0631 127.453 11.7431 126.88C11.4365 126.293 11.0165 125.813 10.4831 125.44C9.94979 125.067 9.33646 124.8 8.64313 124.64C7.96313 124.467 7.24979 124.38 6.50313 124.38C5.86313 124.38 5.22313 124.467 4.58313 124.64C3.94313 124.813 3.36979 125.08 2.86313 125.44C2.35646 125.8 1.94313 126.253 1.62313 126.8C1.31646 127.333 1.16313 127.967 1.16313 128.7C1.16313 129.353 1.28313 129.913 1.52312 130.38C1.77646 130.833 2.10313 131.213 2.50313 131.52C2.90313 131.827 3.35646 132.08 3.86313 132.28C4.36979 132.467 4.88979 132.627 5.42313 132.76C5.94313 132.907 6.45646 133.04 6.96313 133.16C7.46979 133.28 7.92313 133.42 8.32313 133.58C8.72313 133.74 9.04313 133.94 9.28313 134.18C9.53646 134.42 9.66313 134.733 9.66313 135.12C9.66313 135.48 9.56979 135.78 9.38313 136.02C9.19646 136.247 8.96313 136.427 8.68313 136.56C8.40313 136.693 8.10313 136.787 7.78313 136.84C7.46313 136.88 7.16313 136.9 6.88313 136.9C6.46979 136.9 6.06979 136.853 5.68313 136.76C5.29646 136.653 4.95646 136.5 4.66313 136.3C4.38313 136.087 4.15646 135.813 3.98313 135.48C3.80979 135.147 3.72313 134.74 3.72313 134.26ZM14.1514 131.84C14.1914 131.173 14.3581 130.62 14.6514 130.18C14.9447 129.74 15.3181 129.387 15.7714 129.12C16.2247 128.853 16.7314 128.667 17.2914 128.56C17.8647 128.44 18.4381 128.38 19.0114 128.38C19.5314 128.38 20.0581 128.42 20.5914 128.5C21.1247 128.567 21.6114 128.707 22.0514 128.92C22.4914 129.133 22.8514 129.433 23.1314 129.82C23.4114 130.193 23.5514 130.693 23.5514 131.32V136.7C23.5514 137.167 23.5781 137.613 23.6314 138.04C23.6847 138.467 23.7781 138.787 23.9114 139H21.0314C20.9781 138.84 20.9314 138.68 20.8914 138.52C20.8647 138.347 20.8447 138.173 20.8314 138C20.3781 138.467 19.8447 138.793 19.2314 138.98C18.6181 139.167 17.9914 139.26 17.3514 139.26C16.8581 139.26 16.3981 139.2 15.9714 139.08C15.5447 138.96 15.1714 138.773 14.8514 138.52C14.5314 138.267 14.2781 137.947 14.0914 137.56C13.9181 137.173 13.8314 136.713 13.8314 136.18C13.8314 135.593 13.9314 135.113 14.1314 134.74C14.3447 134.353 14.6114 134.047 14.9314 133.82C15.2647 133.593 15.6381 133.427 16.0514 133.32C16.4781 133.2 16.9047 133.107 17.3314 133.04C17.7581 132.973 18.1781 132.92 18.5914 132.88C19.0047 132.84 19.3714 132.78 19.6914 132.7C20.0114 132.62 20.2647 132.507 20.4514 132.36C20.6381 132.2 20.7247 131.973 20.7114 131.68C20.7114 131.373 20.6581 131.133 20.5514 130.96C20.4581 130.773 20.3247 130.633 20.1514 130.54C19.9914 130.433 19.7981 130.367 19.5714 130.34C19.3581 130.3 19.1247 130.28 18.8714 130.28C18.3114 130.28 17.8714 130.4 17.5514 130.64C17.2314 130.88 17.0447 131.28 16.9914 131.84H14.1514ZM20.7114 133.94C20.5914 134.047 20.4381 134.133 20.2514 134.2C20.0781 134.253 19.8847 134.3 19.6714 134.34C19.4714 134.38 19.2581 134.413 19.0314 134.44C18.8047 134.467 18.5781 134.5 18.3514 134.54C18.1381 134.58 17.9247 134.633 17.7114 134.7C17.5114 134.767 17.3314 134.86 17.1714 134.98C17.0247 135.087 16.9047 135.227 16.8114 135.4C16.7181 135.573 16.6714 135.793 16.6714 136.06C16.6714 136.313 16.7181 136.527 16.8114 136.7C16.9047 136.873 17.0314 137.013 17.1914 137.12C17.3514 137.213 17.5381 137.28 17.7514 137.32C17.9647 137.36 18.1847 137.38 18.4114 137.38C18.9714 137.38 19.4047 137.287 19.7114 137.1C20.0181 136.913 20.2447 136.693 20.3914 136.44C20.5381 136.173 20.6247 135.907 20.6514 135.64C20.6914 135.373 20.7114 135.16 20.7114 135V133.94ZM25.7558 128.66V139H28.5958V133.58C28.5958 132.527 28.7691 131.773 29.1158 131.32C29.4624 130.853 30.0224 130.62 30.7958 130.62C31.4758 130.62 31.9491 130.833 32.2158 131.26C32.4824 131.673 32.6158 132.307 32.6158 133.16V139H35.4558V132.64C35.4558 132 35.3958 131.42 35.2758 130.9C35.1691 130.367 34.9758 129.92 34.6958 129.56C34.4158 129.187 34.0291 128.9 33.5358 128.7C33.0558 128.487 32.4358 128.38 31.6758 128.38C31.0758 128.38 30.4891 128.52 29.9158 128.8C29.3424 129.067 28.8758 129.5 28.5158 130.1H28.4558V128.66H25.7558ZM46.6177 131.44V127.16H49.0577C49.4177 127.16 49.7643 127.187 50.0977 127.24C50.431 127.293 50.7243 127.4 50.9777 127.56C51.231 127.707 51.431 127.92 51.5777 128.2C51.7377 128.48 51.8177 128.847 51.8177 129.3C51.8177 129.753 51.7377 130.12 51.5777 130.4C51.431 130.68 51.231 130.9 50.9777 131.06C50.7243 131.207 50.431 131.307 50.0977 131.36C49.7643 131.413 49.4177 131.44 49.0577 131.44H46.6177ZM43.4777 124.72V139H46.6177V133.88H49.9177C50.811 133.88 51.571 133.753 52.1977 133.5C52.8243 133.233 53.331 132.887 53.7177 132.46C54.1177 132.033 54.4043 131.547 54.5777 131C54.7643 130.44 54.8577 129.873 54.8577 129.3C54.8577 128.713 54.7643 128.147 54.5777 127.6C54.4043 127.053 54.1177 126.567 53.7177 126.14C53.331 125.713 52.8243 125.373 52.1977 125.12C51.571 124.853 50.811 124.72 49.9177 124.72H43.4777ZM63.4775 132.72H58.8575C58.8708 132.52 58.9108 132.293 58.9775 132.04C59.0575 131.787 59.1842 131.547 59.3575 131.32C59.5442 131.093 59.7842 130.907 60.0775 130.76C60.3842 130.6 60.7642 130.52 61.2175 130.52C61.9108 130.52 62.4242 130.707 62.7575 131.08C63.1042 131.453 63.3442 132 63.4775 132.72ZM58.8575 134.52H66.3175C66.3708 133.72 66.3042 132.953 66.1175 132.22C65.9308 131.487 65.6242 130.833 65.1975 130.26C64.7842 129.687 64.2508 129.233 63.5975 128.9C62.9442 128.553 62.1775 128.38 61.2975 128.38C60.5108 128.38 59.7908 128.52 59.1375 128.8C58.4975 129.08 57.9442 129.467 57.4775 129.96C57.0108 130.44 56.6508 131.013 56.3975 131.68C56.1442 132.347 56.0175 133.067 56.0175 133.84C56.0175 134.64 56.1375 135.373 56.3775 136.04C56.6308 136.707 56.9842 137.28 57.4375 137.76C57.8908 138.24 58.4442 138.613 59.0975 138.88C59.7508 139.133 60.4842 139.26 61.2975 139.26C62.4708 139.26 63.4708 138.993 64.2975 138.46C65.1242 137.927 65.7375 137.04 66.1375 135.8H63.6375C63.5442 136.12 63.2908 136.427 62.8775 136.72C62.4642 137 61.9708 137.14 61.3975 137.14C60.5975 137.14 59.9842 136.933 59.5575 136.52C59.1308 136.107 58.8975 135.44 58.8575 134.52ZM75.3419 133.8C75.3419 134.227 75.3019 134.64 75.2219 135.04C75.1419 135.44 75.0085 135.8 74.8219 136.12C74.6352 136.427 74.3819 136.673 74.0619 136.86C73.7552 137.047 73.3685 137.14 72.9019 137.14C72.4619 137.14 72.0819 137.047 71.7619 136.86C71.4552 136.66 71.1952 136.407 70.9819 136.1C70.7819 135.78 70.6352 135.42 70.5419 135.02C70.4485 134.62 70.4019 134.22 70.4019 133.82C70.4019 133.393 70.4419 132.987 70.5219 132.6C70.6152 132.2 70.7552 131.847 70.9419 131.54C71.1419 131.233 71.4019 130.987 71.7219 130.8C72.0419 130.613 72.4352 130.52 72.9019 130.52C73.3685 130.52 73.7552 130.613 74.0619 130.8C74.3685 130.987 74.6152 131.233 74.8019 131.54C75.0019 131.833 75.1419 132.18 75.2219 132.58C75.3019 132.967 75.3419 133.373 75.3419 133.8ZM75.3819 137.68V139H78.0819V124.72H75.2419V129.92H75.2019C74.8819 129.413 74.4419 129.033 73.8819 128.78C73.3352 128.513 72.7552 128.38 72.1419 128.38C71.3819 128.38 70.7152 128.533 70.1419 128.84C69.5685 129.133 69.0885 129.527 68.7019 130.02C68.3285 130.513 68.0419 131.087 67.8419 131.74C67.6552 132.38 67.5619 133.047 67.5619 133.74C67.5619 134.46 67.6552 135.153 67.8419 135.82C68.0419 136.487 68.3285 137.08 68.7019 137.6C69.0885 138.107 69.5752 138.513 70.1619 138.82C70.7485 139.113 71.4285 139.26 72.2019 139.26C72.8819 139.26 73.4885 139.14 74.0219 138.9C74.5685 138.647 75.0085 138.24 75.3419 137.68H75.3819ZM80.2284 128.66V139H83.0684V134.34C83.0684 133.873 83.1151 133.44 83.2084 133.04C83.3018 132.64 83.4551 132.293 83.6684 132C83.8951 131.693 84.1884 131.453 84.5484 131.28C84.9084 131.107 85.3484 131.02 85.8684 131.02C86.0418 131.02 86.2218 131.033 86.4084 131.06C86.5951 131.073 86.7551 131.093 86.8884 131.12V128.48C86.6618 128.413 86.4551 128.38 86.2684 128.38C85.9084 128.38 85.5618 128.433 85.2284 128.54C84.8951 128.647 84.5818 128.8 84.2884 129C83.9951 129.187 83.7351 129.42 83.5084 129.7C83.2818 129.967 83.1018 130.26 82.9684 130.58H82.9284V128.66H80.2284ZM90.1703 133.84C90.1703 133.427 90.2103 133.02 90.2903 132.62C90.3703 132.22 90.5036 131.867 90.6903 131.56C90.8903 131.253 91.1503 131.007 91.4703 130.82C91.7903 130.62 92.1903 130.52 92.6703 130.52C93.1503 130.52 93.5503 130.62 93.8703 130.82C94.2036 131.007 94.4636 131.253 94.6503 131.56C94.8503 131.867 94.9903 132.22 95.0703 132.62C95.1503 133.02 95.1903 133.427 95.1903 133.84C95.1903 134.253 95.1503 134.66 95.0703 135.06C94.9903 135.447 94.8503 135.8 94.6503 136.12C94.4636 136.427 94.2036 136.673 93.8703 136.86C93.5503 137.047 93.1503 137.14 92.6703 137.14C92.1903 137.14 91.7903 137.047 91.4703 136.86C91.1503 136.673 90.8903 136.427 90.6903 136.12C90.5036 135.8 90.3703 135.447 90.2903 135.06C90.2103 134.66 90.1703 134.253 90.1703 133.84ZM87.3303 133.84C87.3303 134.667 87.457 135.413 87.7103 136.08C87.9636 136.747 88.3236 137.32 88.7903 137.8C89.257 138.267 89.817 138.627 90.4703 138.88C91.1236 139.133 91.857 139.26 92.6703 139.26C93.4836 139.26 94.217 139.133 94.8703 138.88C95.537 138.627 96.1036 138.267 96.5703 137.8C97.037 137.32 97.397 136.747 97.6503 136.08C97.9036 135.413 98.0303 134.667 98.0303 133.84C98.0303 133.013 97.9036 132.267 97.6503 131.6C97.397 130.92 97.037 130.347 96.5703 129.88C96.1036 129.4 95.537 129.033 94.8703 128.78C94.217 128.513 93.4836 128.38 92.6703 128.38C91.857 128.38 91.1236 128.513 90.4703 128.78C89.817 129.033 89.257 129.4 88.7903 129.88C88.3236 130.347 87.9636 130.92 87.7103 131.6C87.457 132.267 87.3303 133.013 87.3303 133.84Z" fill="#B23634"/>
</svg>
