<svg width="291" height="135" viewBox="0 0 291 135" fill="none" xmlns="http://www.w3.org/2000/svg">
<path d="M41.9996 33.4999C-12.4004 39.8999 -1.66708 59.1665 10.4996 67.9999C36.8993 90.7999 77 86.5 103 74C129 61.5 166 60.5879 184.5 67.9999C203 75.4118 256.5 87 284.5 69C310.1 49.7999 249 25.703 244.5 24.0003C214.9 12.8001 188 30.1664 178.5 39.4999C158 45.4999 113 53.8999 97 39.4999C81 25.0999 53.6664 29.4999 41.9996 33.4999Z" fill="#6CB294"/>
<mask id="path-2-inside-1" fill="white">
<path fill-rule="evenodd" clip-rule="evenodd" d="M169 0H129V26H113V70H129H169H185V26H169V0Z"/>
</mask>
<path fill-rule="evenodd" clip-rule="evenodd" d="M169 0H129V26H113V70H129H169H185V26H169V0Z" fill="#BFCCD3"/>
<path d="M129 0V-4H125V0H129ZM169 0H173V-4H169V0ZM129 26V30H133V26H129ZM113 26V22H109V26H113ZM113 70H109V74H113V70ZM185 70V74H189V70H185ZM185 26H189V22H185V26ZM169 26H165V30H169V26ZM129 4H169V-4H129V4ZM133 26V0H125V26H133ZM113 30H129V22H113V30ZM117 70V26H109V70H117ZM129 66H113V74H129V66ZM169 66H129V74H169V66ZM185 66H169V74H185V66ZM181 26V70H189V26H181ZM169 30H185V22H169V30ZM165 0V26H173V0H165Z" fill="#B23634" mask="url(#path-2-inside-1)"/>
<path d="M91.6691 92.72V107H94.8091V101.1H100.789V98.66H94.8091V95.36H101.709V92.72H91.6691ZM103.105 99.84C103.145 99.1733 103.311 98.62 103.605 98.18C103.898 97.74 104.271 97.3867 104.725 97.12C105.178 96.8533 105.685 96.6667 106.245 96.56C106.818 96.44 107.391 96.38 107.965 96.38C108.485 96.38 109.011 96.42 109.545 96.5C110.078 96.5667 110.565 96.7067 111.005 96.92C111.445 97.1333 111.805 97.4333 112.085 97.82C112.365 98.1933 112.505 98.6933 112.505 99.32V104.7C112.505 105.167 112.531 105.613 112.585 106.04C112.638 106.467 112.731 106.787 112.865 107H109.985C109.931 106.84 109.885 106.68 109.845 106.52C109.818 106.347 109.798 106.173 109.785 106C109.331 106.467 108.798 106.793 108.185 106.98C107.571 107.167 106.945 107.26 106.305 107.26C105.811 107.26 105.351 107.2 104.925 107.08C104.498 106.96 104.125 106.773 103.805 106.52C103.485 106.267 103.231 105.947 103.045 105.56C102.871 105.173 102.785 104.713 102.785 104.18C102.785 103.593 102.885 103.113 103.085 102.74C103.298 102.353 103.565 102.047 103.885 101.82C104.218 101.593 104.591 101.427 105.005 101.32C105.431 101.2 105.858 101.107 106.285 101.04C106.711 100.973 107.131 100.92 107.545 100.88C107.958 100.84 108.325 100.78 108.645 100.7C108.965 100.62 109.218 100.507 109.405 100.36C109.591 100.2 109.678 99.9733 109.665 99.68C109.665 99.3733 109.611 99.1333 109.505 98.96C109.411 98.7733 109.278 98.6333 109.105 98.54C108.945 98.4333 108.751 98.3667 108.525 98.34C108.311 98.3 108.078 98.28 107.825 98.28C107.265 98.28 106.825 98.4 106.505 98.64C106.185 98.88 105.998 99.28 105.945 99.84H103.105ZM109.665 101.94C109.545 102.047 109.391 102.133 109.205 102.2C109.031 102.253 108.838 102.3 108.625 102.34C108.425 102.38 108.211 102.413 107.985 102.44C107.758 102.467 107.531 102.5 107.305 102.54C107.091 102.58 106.878 102.633 106.665 102.7C106.465 102.767 106.285 102.86 106.125 102.98C105.978 103.087 105.858 103.227 105.765 103.4C105.671 103.573 105.625 103.793 105.625 104.06C105.625 104.313 105.671 104.527 105.765 104.7C105.858 104.873 105.985 105.013 106.145 105.12C106.305 105.213 106.491 105.28 106.705 105.32C106.918 105.36 107.138 105.38 107.365 105.38C107.925 105.38 108.358 105.287 108.665 105.1C108.971 104.913 109.198 104.693 109.345 104.44C109.491 104.173 109.578 103.907 109.605 103.64C109.645 103.373 109.665 103.16 109.665 103V101.94ZM121.749 100.3H124.529C124.489 99.6333 124.329 99.06 124.049 98.58C123.769 98.0867 123.402 97.68 122.949 97.36C122.509 97.0267 122.002 96.78 121.429 96.62C120.869 96.46 120.282 96.38 119.669 96.38C118.829 96.38 118.082 96.52 117.429 96.8C116.776 97.08 116.222 97.4733 115.769 97.98C115.316 98.4733 114.969 99.0667 114.729 99.76C114.502 100.44 114.389 101.18 114.389 101.98C114.389 102.753 114.516 103.467 114.769 104.12C115.022 104.76 115.376 105.313 115.829 105.78C116.282 106.247 116.829 106.613 117.469 106.88C118.122 107.133 118.836 107.26 119.609 107.26C120.982 107.26 122.109 106.9 122.989 106.18C123.869 105.46 124.402 104.413 124.589 103.04H121.849C121.756 103.68 121.522 104.193 121.149 104.58C120.789 104.953 120.269 105.14 119.589 105.14C119.149 105.14 118.776 105.04 118.469 104.84C118.162 104.64 117.916 104.387 117.729 104.08C117.556 103.76 117.429 103.407 117.349 103.02C117.269 102.633 117.229 102.253 117.229 101.88C117.229 101.493 117.269 101.107 117.349 100.72C117.429 100.32 117.562 99.96 117.749 99.64C117.949 99.3067 118.202 99.04 118.509 98.84C118.816 98.6267 119.196 98.52 119.649 98.52C120.862 98.52 121.562 99.1133 121.749 100.3ZM135.893 107V96.66H133.053V102.08C133.053 103.133 132.88 103.893 132.533 104.36C132.187 104.813 131.627 105.04 130.853 105.04C130.173 105.04 129.7 104.833 129.433 104.42C129.167 103.993 129.033 103.353 129.033 102.5V96.66H126.193V103.02C126.193 103.66 126.247 104.247 126.353 104.78C126.473 105.3 126.673 105.747 126.953 106.12C127.233 106.48 127.613 106.76 128.093 106.96C128.587 107.16 129.213 107.26 129.973 107.26C130.573 107.26 131.16 107.127 131.733 106.86C132.307 106.593 132.773 106.16 133.133 105.56H133.193V107H135.893ZM138.129 92.72V107H140.969V92.72H138.129ZM146.805 96.66V93.56H143.965V96.66H142.245V98.56H143.965V104.66C143.965 105.18 144.052 105.6 144.225 105.92C144.398 106.24 144.632 106.487 144.925 106.66C145.232 106.833 145.578 106.947 145.965 107C146.365 107.067 146.785 107.1 147.225 107.1C147.505 107.1 147.792 107.093 148.085 107.08C148.378 107.067 148.645 107.04 148.885 107V104.8C148.752 104.827 148.612 104.847 148.465 104.86C148.318 104.873 148.165 104.88 148.005 104.88C147.525 104.88 147.205 104.8 147.045 104.64C146.885 104.48 146.805 104.16 146.805 103.68V98.56H148.885V96.66H146.805ZM150.116 99.84C150.156 99.1733 150.323 98.62 150.616 98.18C150.91 97.74 151.283 97.3867 151.736 97.12C152.19 96.8533 152.696 96.6667 153.256 96.56C153.83 96.44 154.403 96.38 154.976 96.38C155.496 96.38 156.023 96.42 156.556 96.5C157.09 96.5667 157.576 96.7067 158.016 96.92C158.456 97.1333 158.816 97.4333 159.096 97.82C159.376 98.1933 159.516 98.6933 159.516 99.32V104.7C159.516 105.167 159.543 105.613 159.596 106.04C159.65 106.467 159.743 106.787 159.876 107H156.996C156.943 106.84 156.896 106.68 156.856 106.52C156.83 106.347 156.81 106.173 156.796 106C156.343 106.467 155.81 106.793 155.196 106.98C154.583 107.167 153.956 107.26 153.316 107.26C152.823 107.26 152.363 107.2 151.936 107.08C151.51 106.96 151.136 106.773 150.816 106.52C150.496 106.267 150.243 105.947 150.056 105.56C149.883 105.173 149.796 104.713 149.796 104.18C149.796 103.593 149.896 103.113 150.096 102.74C150.31 102.353 150.576 102.047 150.896 101.82C151.23 101.593 151.603 101.427 152.016 101.32C152.443 101.2 152.87 101.107 153.296 101.04C153.723 100.973 154.143 100.92 154.556 100.88C154.97 100.84 155.336 100.78 155.656 100.7C155.976 100.62 156.23 100.507 156.416 100.36C156.603 100.2 156.69 99.9733 156.676 99.68C156.676 99.3733 156.623 99.1333 156.516 98.96C156.423 98.7733 156.29 98.6333 156.116 98.54C155.956 98.4333 155.763 98.3667 155.536 98.34C155.323 98.3 155.09 98.28 154.836 98.28C154.276 98.28 153.836 98.4 153.516 98.64C153.196 98.88 153.01 99.28 152.956 99.84H150.116ZM156.676 101.94C156.556 102.047 156.403 102.133 156.216 102.2C156.043 102.253 155.85 102.3 155.636 102.34C155.436 102.38 155.223 102.413 154.996 102.44C154.77 102.467 154.543 102.5 154.316 102.54C154.103 102.58 153.89 102.633 153.676 102.7C153.476 102.767 153.296 102.86 153.136 102.98C152.99 103.087 152.87 103.227 152.776 103.4C152.683 103.573 152.636 103.793 152.636 104.06C152.636 104.313 152.683 104.527 152.776 104.7C152.87 104.873 152.996 105.013 153.156 105.12C153.316 105.213 153.503 105.28 153.716 105.32C153.93 105.36 154.15 105.38 154.376 105.38C154.936 105.38 155.37 105.287 155.676 105.1C155.983 104.913 156.21 104.693 156.356 104.44C156.503 104.173 156.59 103.907 156.616 103.64C156.656 103.373 156.676 103.16 156.676 103V101.94ZM169.061 101.8C169.061 102.227 169.021 102.64 168.941 103.04C168.861 103.44 168.727 103.8 168.541 104.12C168.354 104.427 168.101 104.673 167.781 104.86C167.474 105.047 167.087 105.14 166.621 105.14C166.181 105.14 165.801 105.047 165.481 104.86C165.174 104.66 164.914 104.407 164.701 104.1C164.501 103.78 164.354 103.42 164.261 103.02C164.167 102.62 164.121 102.22 164.121 101.82C164.121 101.393 164.161 100.987 164.241 100.6C164.334 100.2 164.474 99.8467 164.661 99.54C164.861 99.2333 165.121 98.9867 165.441 98.8C165.761 98.6133 166.154 98.52 166.621 98.52C167.087 98.52 167.474 98.6133 167.781 98.8C168.087 98.9867 168.334 99.2333 168.521 99.54C168.721 99.8333 168.861 100.18 168.941 100.58C169.021 100.967 169.061 101.373 169.061 101.8ZM169.101 105.68V107H171.801V92.72H168.961V97.92H168.921C168.601 97.4133 168.161 97.0333 167.601 96.78C167.054 96.5133 166.474 96.38 165.861 96.38C165.101 96.38 164.434 96.5333 163.861 96.84C163.287 97.1333 162.807 97.5267 162.421 98.02C162.047 98.5133 161.761 99.0867 161.561 99.74C161.374 100.38 161.281 101.047 161.281 101.74C161.281 102.46 161.374 103.153 161.561 103.82C161.761 104.487 162.047 105.08 162.421 105.6C162.807 106.107 163.294 106.513 163.881 106.82C164.467 107.113 165.147 107.26 165.921 107.26C166.601 107.26 167.207 107.14 167.741 106.9C168.287 106.647 168.727 106.24 169.061 105.68H169.101ZM186.854 101.8C186.854 102.227 186.814 102.64 186.734 103.04C186.654 103.44 186.52 103.8 186.334 104.12C186.147 104.427 185.894 104.673 185.574 104.86C185.267 105.047 184.88 105.14 184.414 105.14C183.974 105.14 183.594 105.047 183.274 104.86C182.967 104.66 182.707 104.407 182.494 104.1C182.294 103.78 182.147 103.42 182.054 103.02C181.96 102.62 181.914 102.22 181.914 101.82C181.914 101.393 181.954 100.987 182.034 100.6C182.127 100.2 182.267 99.8467 182.454 99.54C182.654 99.2333 182.914 98.9867 183.234 98.8C183.554 98.6133 183.947 98.52 184.414 98.52C184.88 98.52 185.267 98.6133 185.574 98.8C185.88 98.9867 186.127 99.2333 186.314 99.54C186.514 99.8333 186.654 100.18 186.734 100.58C186.814 100.967 186.854 101.373 186.854 101.8ZM186.894 105.68V107H189.594V92.72H186.754V97.92H186.714C186.394 97.4133 185.954 97.0333 185.394 96.78C184.847 96.5133 184.267 96.38 183.654 96.38C182.894 96.38 182.227 96.5333 181.654 96.84C181.08 97.1333 180.6 97.5267 180.214 98.02C179.84 98.5133 179.554 99.0867 179.354 99.74C179.167 100.38 179.074 101.047 179.074 101.74C179.074 102.46 179.167 103.153 179.354 103.82C179.554 104.487 179.84 105.08 180.214 105.6C180.6 106.107 181.087 106.513 181.674 106.82C182.26 107.113 182.94 107.26 183.714 107.26C184.394 107.26 185 107.14 185.534 106.9C186.08 106.647 186.52 106.24 186.854 105.68H186.894ZM198.7 100.72H194.08C194.093 100.52 194.133 100.293 194.2 100.04C194.28 99.7867 194.407 99.5467 194.58 99.32C194.767 99.0933 195.007 98.9067 195.3 98.76C195.607 98.6 195.987 98.52 196.44 98.52C197.133 98.52 197.647 98.7067 197.98 99.08C198.327 99.4533 198.567 100 198.7 100.72ZM194.08 102.52H201.54C201.593 101.72 201.527 100.953 201.34 100.22C201.153 99.4867 200.847 98.8333 200.42 98.26C200.007 97.6867 199.473 97.2333 198.82 96.9C198.167 96.5533 197.4 96.38 196.52 96.38C195.733 96.38 195.013 96.52 194.36 96.8C193.72 97.08 193.167 97.4667 192.7 97.96C192.233 98.44 191.873 99.0133 191.62 99.68C191.367 100.347 191.24 101.067 191.24 101.84C191.24 102.64 191.36 103.373 191.6 104.04C191.853 104.707 192.207 105.28 192.66 105.76C193.113 106.24 193.667 106.613 194.32 106.88C194.973 107.133 195.707 107.26 196.52 107.26C197.693 107.26 198.693 106.993 199.52 106.46C200.347 105.927 200.96 105.04 201.36 103.8H198.86C198.767 104.12 198.513 104.427 198.1 104.72C197.687 105 197.193 105.14 196.62 105.14C195.82 105.14 195.207 104.933 194.78 104.52C194.353 104.107 194.12 103.44 194.08 102.52ZM96.3227 122.5V119.16H99.2627C99.5427 119.16 99.8094 119.187 100.063 119.24C100.329 119.28 100.563 119.36 100.763 119.48C100.963 119.6 101.123 119.767 101.243 119.98C101.363 120.193 101.423 120.467 101.423 120.8C101.423 121.4 101.243 121.833 100.883 122.1C100.523 122.367 100.063 122.5 99.5027 122.5H96.3227ZM93.1827 116.72V131H100.103C100.743 131 101.363 130.92 101.963 130.76C102.576 130.6 103.116 130.353 103.583 130.02C104.063 129.687 104.443 129.26 104.723 128.74C105.003 128.207 105.143 127.58 105.143 126.86C105.143 125.967 104.923 125.207 104.483 124.58C104.056 123.94 103.403 123.493 102.523 123.24C103.163 122.933 103.643 122.54 103.963 122.06C104.296 121.58 104.463 120.98 104.463 120.26C104.463 119.593 104.349 119.033 104.123 118.58C103.909 118.127 103.603 117.767 103.203 117.5C102.803 117.22 102.323 117.02 101.763 116.9C101.203 116.78 100.583 116.72 99.9027 116.72H93.1827ZM96.3227 128.56V124.64H99.7427C100.423 124.64 100.969 124.8 101.383 125.12C101.796 125.427 102.003 125.947 102.003 126.68C102.003 127.053 101.936 127.36 101.803 127.6C101.683 127.84 101.516 128.033 101.303 128.18C101.089 128.313 100.843 128.413 100.563 128.48C100.283 128.533 99.9894 128.56 99.6827 128.56H96.3227ZM113.925 124.72H109.305C109.318 124.52 109.358 124.293 109.425 124.04C109.505 123.787 109.631 123.547 109.805 123.32C109.991 123.093 110.231 122.907 110.525 122.76C110.831 122.6 111.211 122.52 111.665 122.52C112.358 122.52 112.871 122.707 113.205 123.08C113.551 123.453 113.791 124 113.925 124.72ZM109.305 126.52H116.765C116.818 125.72 116.751 124.953 116.565 124.22C116.378 123.487 116.071 122.833 115.645 122.26C115.231 121.687 114.698 121.233 114.045 120.9C113.391 120.553 112.625 120.38 111.745 120.38C110.958 120.38 110.238 120.52 109.585 120.8C108.945 121.08 108.391 121.467 107.925 121.96C107.458 122.44 107.098 123.013 106.845 123.68C106.591 124.347 106.465 125.067 106.465 125.84C106.465 126.64 106.585 127.373 106.825 128.04C107.078 128.707 107.431 129.28 107.885 129.76C108.338 130.24 108.891 130.613 109.545 130.88C110.198 131.133 110.931 131.26 111.745 131.26C112.918 131.26 113.918 130.993 114.745 130.46C115.571 129.927 116.185 129.04 116.585 127.8H114.085C113.991 128.12 113.738 128.427 113.325 128.72C112.911 129 112.418 129.14 111.845 129.14C111.045 129.14 110.431 128.933 110.005 128.52C109.578 128.107 109.345 127.44 109.305 126.52ZM118.529 116.72V131H121.369V116.72H118.529ZM123.685 116.72V131H126.525V116.72H123.685ZM128.642 123.84C128.682 123.173 128.848 122.62 129.142 122.18C129.435 121.74 129.808 121.387 130.262 121.12C130.715 120.853 131.222 120.667 131.782 120.56C132.355 120.44 132.928 120.38 133.502 120.38C134.022 120.38 134.548 120.42 135.082 120.5C135.615 120.567 136.102 120.707 136.542 120.92C136.982 121.133 137.342 121.433 137.622 121.82C137.902 122.193 138.042 122.693 138.042 123.32V128.7C138.042 129.167 138.068 129.613 138.122 130.04C138.175 130.467 138.268 130.787 138.402 131H135.522C135.468 130.84 135.422 130.68 135.382 130.52C135.355 130.347 135.335 130.173 135.322 130C134.868 130.467 134.335 130.793 133.722 130.98C133.108 131.167 132.482 131.26 131.842 131.26C131.348 131.26 130.888 131.2 130.462 131.08C130.035 130.96 129.662 130.773 129.342 130.52C129.022 130.267 128.768 129.947 128.582 129.56C128.408 129.173 128.322 128.713 128.322 128.18C128.322 127.593 128.422 127.113 128.622 126.74C128.835 126.353 129.102 126.047 129.422 125.82C129.755 125.593 130.128 125.427 130.542 125.32C130.968 125.2 131.395 125.107 131.822 125.04C132.248 124.973 132.668 124.92 133.082 124.88C133.495 124.84 133.862 124.78 134.182 124.7C134.502 124.62 134.755 124.507 134.942 124.36C135.128 124.2 135.215 123.973 135.202 123.68C135.202 123.373 135.148 123.133 135.042 122.96C134.948 122.773 134.815 122.633 134.642 122.54C134.482 122.433 134.288 122.367 134.062 122.34C133.848 122.3 133.615 122.28 133.362 122.28C132.802 122.28 132.362 122.4 132.042 122.64C131.722 122.88 131.535 123.28 131.482 123.84H128.642ZM135.202 125.94C135.082 126.047 134.928 126.133 134.742 126.2C134.568 126.253 134.375 126.3 134.162 126.34C133.962 126.38 133.748 126.413 133.522 126.44C133.295 126.467 133.068 126.5 132.842 126.54C132.628 126.58 132.415 126.633 132.202 126.7C132.002 126.767 131.822 126.86 131.662 126.98C131.515 127.087 131.395 127.227 131.302 127.4C131.208 127.573 131.162 127.793 131.162 128.06C131.162 128.313 131.208 128.527 131.302 128.7C131.395 128.873 131.522 129.013 131.682 129.12C131.842 129.213 132.028 129.28 132.242 129.32C132.455 129.36 132.675 129.38 132.902 129.38C133.462 129.38 133.895 129.287 134.202 129.1C134.508 128.913 134.735 128.693 134.882 128.44C135.028 128.173 135.115 127.907 135.142 127.64C135.182 127.373 135.202 127.16 135.202 127V125.94ZM142.446 127.64H139.746C139.773 128.333 139.926 128.913 140.206 129.38C140.499 129.833 140.866 130.2 141.306 130.48C141.759 130.76 142.273 130.96 142.846 131.08C143.419 131.2 144.006 131.26 144.606 131.26C145.193 131.26 145.766 131.2 146.326 131.08C146.899 130.973 147.406 130.78 147.846 130.5C148.286 130.22 148.639 129.853 148.906 129.4C149.186 128.933 149.326 128.36 149.326 127.68C149.326 127.2 149.233 126.8 149.046 126.48C148.859 126.147 148.613 125.873 148.306 125.66C147.999 125.433 147.646 125.253 147.246 125.12C146.859 124.987 146.459 124.873 146.046 124.78C145.646 124.687 145.253 124.6 144.866 124.52C144.479 124.44 144.133 124.353 143.826 124.26C143.533 124.153 143.293 124.02 143.106 123.86C142.919 123.7 142.826 123.493 142.826 123.24C142.826 123.027 142.879 122.86 142.986 122.74C143.093 122.607 143.219 122.507 143.366 122.44C143.526 122.373 143.699 122.333 143.886 122.32C144.073 122.293 144.246 122.28 144.406 122.28C144.913 122.28 145.353 122.38 145.726 122.58C146.099 122.767 146.306 123.133 146.346 123.68H149.046C148.993 123.04 148.826 122.513 148.546 122.1C148.279 121.673 147.939 121.333 147.526 121.08C147.113 120.827 146.639 120.647 146.106 120.54C145.586 120.433 145.046 120.38 144.486 120.38C143.926 120.38 143.379 120.433 142.846 120.54C142.313 120.633 141.833 120.807 141.406 121.06C140.979 121.3 140.633 121.633 140.366 122.06C140.113 122.487 139.986 123.033 139.986 123.7C139.986 124.153 140.079 124.54 140.266 124.86C140.453 125.167 140.699 125.427 141.006 125.64C141.313 125.84 141.659 126.007 142.046 126.14C142.446 126.26 142.853 126.367 143.266 126.46C144.279 126.673 145.066 126.887 145.626 127.1C146.199 127.313 146.486 127.633 146.486 128.06C146.486 128.313 146.426 128.527 146.306 128.7C146.186 128.86 146.033 128.993 145.846 129.1C145.673 129.193 145.473 129.267 145.246 129.32C145.033 129.36 144.826 129.38 144.626 129.38C144.346 129.38 144.073 129.347 143.806 129.28C143.553 129.213 143.326 129.113 143.126 128.98C142.926 128.833 142.759 128.653 142.626 128.44C142.506 128.213 142.446 127.947 142.446 127.64ZM160.455 125.48L162.315 120.24H162.355L164.155 125.48H160.455ZM160.755 116.72L155.355 131H158.515L159.635 127.82H164.975L166.055 131H169.315L163.975 116.72H160.755ZM170.246 120.66V131H173.086V126.34C173.086 125.873 173.133 125.44 173.226 125.04C173.319 124.64 173.473 124.293 173.686 124C173.913 123.693 174.206 123.453 174.566 123.28C174.926 123.107 175.366 123.02 175.886 123.02C176.059 123.02 176.239 123.033 176.426 123.06C176.613 123.073 176.773 123.093 176.906 123.12V120.48C176.679 120.413 176.473 120.38 176.286 120.38C175.926 120.38 175.579 120.433 175.246 120.54C174.913 120.647 174.599 120.8 174.306 121C174.013 121.187 173.753 121.42 173.526 121.7C173.299 121.967 173.119 122.26 172.986 122.58H172.946V120.66H170.246ZM181.619 120.66V117.56H178.779V120.66H177.059V122.56H178.779V128.66C178.779 129.18 178.866 129.6 179.039 129.92C179.213 130.24 179.446 130.487 179.739 130.66C180.046 130.833 180.393 130.947 180.779 131C181.179 131.067 181.599 131.1 182.039 131.1C182.319 131.1 182.606 131.093 182.899 131.08C183.193 131.067 183.459 131.04 183.699 131V128.8C183.566 128.827 183.426 128.847 183.279 128.86C183.133 128.873 182.979 128.88 182.819 128.88C182.339 128.88 182.019 128.8 181.859 128.64C181.699 128.48 181.619 128.16 181.619 127.68V122.56H183.699V120.66H181.619ZM192.011 124.72H187.391C187.404 124.52 187.444 124.293 187.511 124.04C187.591 123.787 187.717 123.547 187.891 123.32C188.077 123.093 188.317 122.907 188.611 122.76C188.917 122.6 189.297 122.52 189.751 122.52C190.444 122.52 190.957 122.707 191.291 123.08C191.637 123.453 191.877 124 192.011 124.72ZM187.391 126.52H194.851C194.904 125.72 194.837 124.953 194.651 124.22C194.464 123.487 194.157 122.833 193.731 122.26C193.317 121.687 192.784 121.233 192.131 120.9C191.477 120.553 190.711 120.38 189.831 120.38C189.044 120.38 188.324 120.52 187.671 120.8C187.031 121.08 186.477 121.467 186.011 121.96C185.544 122.44 185.184 123.013 184.931 123.68C184.677 124.347 184.551 125.067 184.551 125.84C184.551 126.64 184.671 127.373 184.911 128.04C185.164 128.707 185.517 129.28 185.971 129.76C186.424 130.24 186.977 130.613 187.631 130.88C188.284 131.133 189.017 131.26 189.831 131.26C191.004 131.26 192.004 130.993 192.831 130.46C193.657 129.927 194.271 129.04 194.671 127.8H192.171C192.077 128.12 191.824 128.427 191.411 128.72C190.997 129 190.504 129.14 189.931 129.14C189.131 129.14 188.517 128.933 188.091 128.52C187.664 128.107 187.431 127.44 187.391 126.52ZM198.735 127.64H196.035C196.062 128.333 196.215 128.913 196.495 129.38C196.788 129.833 197.155 130.2 197.595 130.48C198.048 130.76 198.562 130.96 199.135 131.08C199.708 131.2 200.295 131.26 200.895 131.26C201.482 131.26 202.055 131.2 202.615 131.08C203.188 130.973 203.695 130.78 204.135 130.5C204.575 130.22 204.928 129.853 205.195 129.4C205.475 128.933 205.615 128.36 205.615 127.68C205.615 127.2 205.522 126.8 205.335 126.48C205.148 126.147 204.902 125.873 204.595 125.66C204.288 125.433 203.935 125.253 203.535 125.12C203.148 124.987 202.748 124.873 202.335 124.78C201.935 124.687 201.542 124.6 201.155 124.52C200.768 124.44 200.422 124.353 200.115 124.26C199.822 124.153 199.582 124.02 199.395 123.86C199.208 123.7 199.115 123.493 199.115 123.24C199.115 123.027 199.168 122.86 199.275 122.74C199.382 122.607 199.508 122.507 199.655 122.44C199.815 122.373 199.988 122.333 200.175 122.32C200.362 122.293 200.535 122.28 200.695 122.28C201.202 122.28 201.642 122.38 202.015 122.58C202.388 122.767 202.595 123.133 202.635 123.68H205.335C205.282 123.04 205.115 122.513 204.835 122.1C204.568 121.673 204.228 121.333 203.815 121.08C203.402 120.827 202.928 120.647 202.395 120.54C201.875 120.433 201.335 120.38 200.775 120.38C200.215 120.38 199.668 120.433 199.135 120.54C198.602 120.633 198.122 120.807 197.695 121.06C197.268 121.3 196.922 121.633 196.655 122.06C196.402 122.487 196.275 123.033 196.275 123.7C196.275 124.153 196.368 124.54 196.555 124.86C196.742 125.167 196.988 125.427 197.295 125.64C197.602 125.84 197.948 126.007 198.335 126.14C198.735 126.26 199.142 126.367 199.555 126.46C200.568 126.673 201.355 126.887 201.915 127.1C202.488 127.313 202.775 127.633 202.775 128.06C202.775 128.313 202.715 128.527 202.595 128.7C202.475 128.86 202.322 128.993 202.135 129.1C201.962 129.193 201.762 129.267 201.535 129.32C201.322 129.36 201.115 129.38 200.915 129.38C200.635 129.38 200.362 129.347 200.095 129.28C199.842 129.213 199.615 129.113 199.415 128.98C199.215 128.833 199.048 128.653 198.915 128.44C198.795 128.213 198.735 127.947 198.735 127.64Z" fill="#B23634"/>
</svg>
