<svg width="291" height="153" viewBox="0 0 291 153" fill="none" xmlns="http://www.w3.org/2000/svg">
<path d="M41.9986 46.4999C-12.4014 52.8999 -1.66806 72.1665 10.4986 80.9999C36.8983 103.8 76.999 99.5 102.999 87C128.999 74.5 165.999 73.5879 184.499 80.9999C202.999 88.4118 256.499 100 284.499 82C310.099 62.7999 248.999 38.703 244.499 37.0003C214.899 25.8001 187.999 43.1664 178.499 52.4999C157.999 58.4999 112.999 66.8999 96.999 52.4999C80.999 38.0999 53.6654 42.4999 41.9986 46.4999Z" fill="#6CB294"/>
<mask id="path-2-inside-1" fill="white">
<path fill-rule="evenodd" clip-rule="evenodd" d="M169 0H129V26H113V70H129H169H185V26H169V0Z"/>
</mask>
<path fill-rule="evenodd" clip-rule="evenodd" d="M169 0H129V26H113V70H129H169H185V26H169V0Z" fill="#BFCCD3"/>
<path d="M129 0V-4H125V0H129ZM169 0H173V-4H169V0ZM129 26V30H133V26H129ZM113 26V22H109V26H113ZM113 70H109V74H113V70ZM185 70V74H189V70H185ZM185 26H189V22H185V26ZM169 26H165V30H169V26ZM129 4H169V-4H129V4ZM133 26V0H125V26H133ZM113 30H129V22H113V30ZM117 70V26H109V70H117ZM129 66H113V74H129V66ZM169 66H129V74H169V66ZM185 66H169V74H185V66ZM181 26V70H189V26H181ZM169 30H185V22H169V30ZM165 0V26H173V0H165Z" fill="#B23634" mask="url(#path-2-inside-1)"/>
<path d="M92.625 109.625H102.83V112.154H95.6133V115.465H101.932V117.965H95.6133V124H92.625V109.625ZM110.496 118.824C110.32 118.935 110.141 119.026 109.959 119.098C109.783 119.163 109.539 119.225 109.227 119.283L108.602 119.4C108.016 119.505 107.596 119.632 107.342 119.781C106.912 120.035 106.697 120.429 106.697 120.963C106.697 121.438 106.827 121.783 107.088 121.998C107.355 122.206 107.677 122.311 108.055 122.311C108.654 122.311 109.204 122.135 109.705 121.783C110.213 121.432 110.477 120.79 110.496 119.859V118.824ZM108.807 117.525C109.321 117.46 109.689 117.379 109.91 117.281C110.307 117.112 110.506 116.848 110.506 116.49C110.506 116.054 110.353 115.755 110.047 115.592C109.747 115.423 109.305 115.338 108.719 115.338C108.061 115.338 107.596 115.501 107.322 115.826C107.127 116.067 106.997 116.393 106.932 116.803H104.246C104.305 115.872 104.565 115.107 105.027 114.508C105.763 113.57 107.026 113.102 108.816 113.102C109.982 113.102 111.017 113.333 111.922 113.795C112.827 114.257 113.279 115.13 113.279 116.412V121.295C113.279 121.633 113.286 122.044 113.299 122.525C113.318 122.89 113.374 123.137 113.465 123.268C113.556 123.398 113.693 123.505 113.875 123.59V124H110.848C110.763 123.785 110.704 123.583 110.672 123.395C110.639 123.206 110.613 122.991 110.594 122.75C110.21 123.167 109.767 123.521 109.266 123.814C108.667 124.16 107.99 124.332 107.234 124.332C106.271 124.332 105.473 124.059 104.842 123.512C104.217 122.958 103.904 122.177 103.904 121.168C103.904 119.859 104.409 118.912 105.418 118.326C105.971 118.007 106.785 117.779 107.859 117.643L108.807 117.525ZM122.117 117.174C122.065 116.777 121.932 116.419 121.717 116.1C121.404 115.67 120.919 115.455 120.262 115.455C119.324 115.455 118.683 115.921 118.338 116.852C118.156 117.346 118.064 118.004 118.064 118.824C118.064 119.605 118.156 120.234 118.338 120.709C118.67 121.594 119.295 122.037 120.213 122.037C120.864 122.037 121.326 121.861 121.6 121.51C121.873 121.158 122.039 120.702 122.098 120.143H124.939C124.874 120.989 124.568 121.79 124.021 122.545C123.149 123.762 121.857 124.371 120.145 124.371C118.432 124.371 117.173 123.863 116.365 122.848C115.558 121.832 115.154 120.514 115.154 118.893C115.154 117.063 115.6 115.641 116.492 114.625C117.384 113.609 118.615 113.102 120.184 113.102C121.518 113.102 122.609 113.401 123.455 114C124.308 114.599 124.812 115.657 124.969 117.174H122.117ZM129.666 113.355V119.771C129.666 120.377 129.738 120.833 129.881 121.139C130.135 121.679 130.633 121.949 131.375 121.949C132.326 121.949 132.977 121.565 133.328 120.797C133.51 120.38 133.602 119.83 133.602 119.146V113.355H136.424V124H133.719V122.496C133.693 122.529 133.628 122.626 133.523 122.789C133.419 122.952 133.296 123.095 133.152 123.219C132.716 123.609 132.293 123.876 131.883 124.02C131.479 124.163 131.004 124.234 130.457 124.234C128.882 124.234 127.82 123.668 127.273 122.535C126.967 121.91 126.814 120.989 126.814 119.771V113.355H129.666ZM141.961 124H139.178V109.605H141.961V124ZM143.592 115.436V113.453H145.076V110.484H147.83V113.453H149.559V115.436H147.83V121.061C147.83 121.497 147.885 121.77 147.996 121.881C148.107 121.985 148.445 122.037 149.012 122.037C149.096 122.037 149.184 122.037 149.275 122.037C149.373 122.031 149.467 122.024 149.559 122.018V124.098L148.24 124.146C146.925 124.192 146.027 123.964 145.545 123.463C145.232 123.144 145.076 122.652 145.076 121.988V115.436H143.592ZM157.215 118.824C157.039 118.935 156.86 119.026 156.678 119.098C156.502 119.163 156.258 119.225 155.945 119.283L155.32 119.4C154.734 119.505 154.314 119.632 154.061 119.781C153.631 120.035 153.416 120.429 153.416 120.963C153.416 121.438 153.546 121.783 153.807 121.998C154.074 122.206 154.396 122.311 154.773 122.311C155.372 122.311 155.923 122.135 156.424 121.783C156.932 121.432 157.195 120.79 157.215 119.859V118.824ZM155.525 117.525C156.04 117.46 156.408 117.379 156.629 117.281C157.026 117.112 157.225 116.848 157.225 116.49C157.225 116.054 157.072 115.755 156.766 115.592C156.466 115.423 156.023 115.338 155.438 115.338C154.78 115.338 154.314 115.501 154.041 115.826C153.846 116.067 153.715 116.393 153.65 116.803H150.965C151.023 115.872 151.284 115.107 151.746 114.508C152.482 113.57 153.745 113.102 155.535 113.102C156.701 113.102 157.736 113.333 158.641 113.795C159.546 114.257 159.998 115.13 159.998 116.412V121.295C159.998 121.633 160.005 122.044 160.018 122.525C160.037 122.89 160.092 123.137 160.184 123.268C160.275 123.398 160.411 123.505 160.594 123.59V124H157.566C157.482 123.785 157.423 123.583 157.391 123.395C157.358 123.206 157.332 122.991 157.312 122.75C156.928 123.167 156.486 123.521 155.984 123.814C155.385 124.16 154.708 124.332 153.953 124.332C152.99 124.332 152.192 124.059 151.561 123.512C150.936 122.958 150.623 122.177 150.623 121.168C150.623 119.859 151.128 118.912 152.137 118.326C152.69 118.007 153.504 117.779 154.578 117.643L155.525 117.525ZM166.404 113.102C167.049 113.102 167.622 113.245 168.123 113.531C168.624 113.811 169.031 114.202 169.344 114.703V109.625H172.166V124H169.461V122.525C169.064 123.157 168.611 123.616 168.104 123.902C167.596 124.189 166.964 124.332 166.209 124.332C164.965 124.332 163.917 123.831 163.064 122.828C162.218 121.819 161.795 120.527 161.795 118.951C161.795 117.135 162.212 115.706 163.045 114.664C163.885 113.622 165.005 113.102 166.404 113.102ZM167.01 121.988C167.798 121.988 168.396 121.695 168.807 121.109C169.217 120.523 169.422 119.765 169.422 118.834C169.422 117.532 169.093 116.601 168.436 116.041C168.032 115.702 167.563 115.533 167.029 115.533C166.215 115.533 165.617 115.842 165.232 116.461C164.855 117.073 164.666 117.835 164.666 118.746C164.666 119.729 164.858 120.517 165.242 121.109C165.633 121.695 166.222 121.988 167.01 121.988ZM184.197 113.102C184.842 113.102 185.415 113.245 185.916 113.531C186.417 113.811 186.824 114.202 187.137 114.703V109.625H189.959V124H187.254V122.525C186.857 123.157 186.404 123.616 185.896 123.902C185.389 124.189 184.757 124.332 184.002 124.332C182.758 124.332 181.71 123.831 180.857 122.828C180.011 121.819 179.588 120.527 179.588 118.951C179.588 117.135 180.005 115.706 180.838 114.664C181.678 113.622 182.798 113.102 184.197 113.102ZM184.803 121.988C185.59 121.988 186.189 121.695 186.6 121.109C187.01 120.523 187.215 119.765 187.215 118.834C187.215 117.532 186.886 116.601 186.229 116.041C185.825 115.702 185.356 115.533 184.822 115.533C184.008 115.533 183.41 115.842 183.025 116.461C182.648 117.073 182.459 117.835 182.459 118.746C182.459 119.729 182.651 120.517 183.035 121.109C183.426 121.695 184.015 121.988 184.803 121.988ZM196.697 115.367C196.053 115.367 195.551 115.569 195.193 115.973C194.842 116.376 194.62 116.923 194.529 117.613H198.855C198.81 116.878 198.585 116.321 198.182 115.943C197.785 115.559 197.29 115.367 196.697 115.367ZM196.697 113.072C197.583 113.072 198.38 113.238 199.09 113.57C199.799 113.902 200.385 114.426 200.848 115.143C201.264 115.774 201.535 116.507 201.658 117.34C201.73 117.828 201.759 118.531 201.746 119.449H194.461C194.5 120.517 194.835 121.266 195.467 121.695C195.851 121.962 196.313 122.096 196.854 122.096C197.426 122.096 197.892 121.933 198.25 121.607C198.445 121.432 198.618 121.188 198.768 120.875H201.609C201.538 121.507 201.209 122.148 200.623 122.799C199.712 123.834 198.436 124.352 196.795 124.352C195.441 124.352 194.246 123.915 193.211 123.043C192.176 122.171 191.658 120.751 191.658 118.785C191.658 116.943 192.124 115.53 193.055 114.547C193.992 113.564 195.206 113.072 196.697 113.072ZM96.4531 136.105V139.279H99.9883C100.62 139.279 101.131 139.162 101.521 138.928C101.919 138.687 102.117 138.264 102.117 137.658C102.117 136.988 101.857 136.545 101.336 136.33C100.887 136.18 100.314 136.105 99.6172 136.105H96.4531ZM96.4531 141.662V145.5H99.9883C100.62 145.5 101.111 145.415 101.463 145.246C102.101 144.934 102.42 144.335 102.42 143.449C102.42 142.701 102.111 142.186 101.492 141.906C101.147 141.75 100.662 141.669 100.037 141.662H96.4531ZM100.574 133.605C102.339 133.632 103.589 134.143 104.324 135.139C104.767 135.751 104.988 136.483 104.988 137.336C104.988 138.215 104.767 138.921 104.324 139.455C104.077 139.755 103.712 140.028 103.23 140.275C103.966 140.542 104.52 140.965 104.891 141.545C105.268 142.124 105.457 142.827 105.457 143.654C105.457 144.507 105.242 145.272 104.812 145.949C104.539 146.398 104.197 146.776 103.787 147.082C103.325 147.434 102.778 147.674 102.146 147.805C101.521 147.935 100.841 148 100.105 148H93.582V133.605H100.574ZM111.961 139.367C111.316 139.367 110.815 139.569 110.457 139.973C110.105 140.376 109.884 140.923 109.793 141.613H114.119C114.074 140.878 113.849 140.321 113.445 139.943C113.048 139.559 112.553 139.367 111.961 139.367ZM111.961 137.072C112.846 137.072 113.644 137.238 114.354 137.57C115.063 137.902 115.649 138.426 116.111 139.143C116.528 139.774 116.798 140.507 116.922 141.34C116.993 141.828 117.023 142.531 117.01 143.449H109.725C109.764 144.517 110.099 145.266 110.73 145.695C111.115 145.962 111.577 146.096 112.117 146.096C112.69 146.096 113.156 145.933 113.514 145.607C113.709 145.432 113.882 145.188 114.031 144.875H116.873C116.801 145.507 116.473 146.148 115.887 146.799C114.975 147.834 113.699 148.352 112.059 148.352C110.704 148.352 109.51 147.915 108.475 147.043C107.439 146.171 106.922 144.751 106.922 142.785C106.922 140.943 107.387 139.53 108.318 138.547C109.256 137.564 110.47 137.072 111.961 137.072ZM121.736 148H118.953V133.605H121.736V148ZM127.303 148H124.52V133.605H127.303V148ZM135.896 142.824C135.721 142.935 135.542 143.026 135.359 143.098C135.184 143.163 134.939 143.225 134.627 143.283L134.002 143.4C133.416 143.505 132.996 143.632 132.742 143.781C132.312 144.035 132.098 144.429 132.098 144.963C132.098 145.438 132.228 145.783 132.488 145.998C132.755 146.206 133.077 146.311 133.455 146.311C134.054 146.311 134.604 146.135 135.105 145.783C135.613 145.432 135.877 144.79 135.896 143.859V142.824ZM134.207 141.525C134.721 141.46 135.089 141.379 135.311 141.281C135.708 141.112 135.906 140.848 135.906 140.49C135.906 140.054 135.753 139.755 135.447 139.592C135.148 139.423 134.705 139.338 134.119 139.338C133.462 139.338 132.996 139.501 132.723 139.826C132.527 140.067 132.397 140.393 132.332 140.803H129.646C129.705 139.872 129.965 139.107 130.428 138.508C131.163 137.57 132.426 137.102 134.217 137.102C135.382 137.102 136.417 137.333 137.322 137.795C138.227 138.257 138.68 139.13 138.68 140.412V145.295C138.68 145.633 138.686 146.044 138.699 146.525C138.719 146.89 138.774 147.137 138.865 147.268C138.956 147.398 139.093 147.505 139.275 147.59V148H136.248C136.163 147.785 136.105 147.583 136.072 147.395C136.04 147.206 136.014 146.991 135.994 146.75C135.61 147.167 135.167 147.521 134.666 147.814C134.067 148.16 133.39 148.332 132.635 148.332C131.671 148.332 130.874 148.059 130.242 147.512C129.617 146.958 129.305 146.177 129.305 145.168C129.305 143.859 129.809 142.912 130.818 142.326C131.372 142.007 132.186 141.779 133.26 141.643L134.207 141.525ZM143.328 144.602C143.387 145.096 143.514 145.448 143.709 145.656C144.054 146.027 144.692 146.213 145.623 146.213C146.17 146.213 146.603 146.132 146.922 145.969C147.247 145.806 147.41 145.562 147.41 145.236C147.41 144.924 147.28 144.686 147.02 144.523C146.759 144.361 145.792 144.081 144.119 143.684C142.915 143.384 142.065 143.01 141.57 142.561C141.076 142.118 140.828 141.48 140.828 140.646C140.828 139.663 141.212 138.82 141.98 138.117C142.755 137.408 143.842 137.053 145.242 137.053C146.57 137.053 147.651 137.32 148.484 137.854C149.324 138.381 149.806 139.296 149.93 140.598H147.146C147.107 140.24 147.007 139.956 146.844 139.748C146.538 139.37 146.017 139.182 145.281 139.182C144.676 139.182 144.243 139.276 143.982 139.465C143.729 139.654 143.602 139.875 143.602 140.129C143.602 140.448 143.738 140.679 144.012 140.822C144.285 140.972 145.252 141.229 146.912 141.594C148.019 141.854 148.849 142.248 149.402 142.775C149.949 143.309 150.223 143.977 150.223 144.777C150.223 145.832 149.829 146.695 149.041 147.365C148.26 148.029 147.049 148.361 145.408 148.361C143.735 148.361 142.498 148.01 141.697 147.307C140.903 146.597 140.506 145.695 140.506 144.602H143.328ZM161.277 142.561H164.93L163.133 136.896L161.277 142.561ZM161.463 133.605H164.861L169.959 148H166.697L165.77 145.041H160.467L159.471 148H156.326L161.463 133.605ZM177.352 137.102C177.404 137.102 177.446 137.105 177.479 137.111C177.518 137.111 177.599 137.115 177.723 137.121V139.973C177.547 139.953 177.391 139.94 177.254 139.934C177.117 139.927 177.007 139.924 176.922 139.924C175.802 139.924 175.05 140.288 174.666 141.018C174.451 141.428 174.344 142.059 174.344 142.912V148H171.541V137.355H174.197V139.211C174.627 138.501 175.001 138.016 175.32 137.756C175.841 137.32 176.518 137.102 177.352 137.102ZM178.27 139.436V137.453H179.754V134.484H182.508V137.453H184.236V139.436H182.508V145.061C182.508 145.497 182.563 145.77 182.674 145.881C182.785 145.985 183.123 146.037 183.689 146.037C183.774 146.037 183.862 146.037 183.953 146.037C184.051 146.031 184.145 146.024 184.236 146.018V148.098L182.918 148.146C181.603 148.192 180.704 147.964 180.223 147.463C179.91 147.144 179.754 146.652 179.754 145.988V139.436H178.27ZM190.223 139.367C189.578 139.367 189.077 139.569 188.719 139.973C188.367 140.376 188.146 140.923 188.055 141.613H192.381C192.335 140.878 192.111 140.321 191.707 139.943C191.31 139.559 190.815 139.367 190.223 139.367ZM190.223 137.072C191.108 137.072 191.906 137.238 192.615 137.57C193.325 137.902 193.911 138.426 194.373 139.143C194.79 139.774 195.06 140.507 195.184 141.34C195.255 141.828 195.285 142.531 195.271 143.449H187.986C188.025 144.517 188.361 145.266 188.992 145.695C189.376 145.962 189.839 146.096 190.379 146.096C190.952 146.096 191.417 145.933 191.775 145.607C191.971 145.432 192.143 145.188 192.293 144.875H195.135C195.063 145.507 194.734 146.148 194.148 146.799C193.237 147.834 191.961 148.352 190.32 148.352C188.966 148.352 187.771 147.915 186.736 147.043C185.701 146.171 185.184 144.751 185.184 142.785C185.184 140.943 185.649 139.53 186.58 138.547C187.518 137.564 188.732 137.072 190.223 137.072ZM199.324 144.602C199.383 145.096 199.51 145.448 199.705 145.656C200.05 146.027 200.688 146.213 201.619 146.213C202.166 146.213 202.599 146.132 202.918 145.969C203.243 145.806 203.406 145.562 203.406 145.236C203.406 144.924 203.276 144.686 203.016 144.523C202.755 144.361 201.788 144.081 200.115 143.684C198.911 143.384 198.061 143.01 197.566 142.561C197.072 142.118 196.824 141.48 196.824 140.646C196.824 139.663 197.208 138.82 197.977 138.117C198.751 137.408 199.839 137.053 201.238 137.053C202.566 137.053 203.647 137.32 204.48 137.854C205.32 138.381 205.802 139.296 205.926 140.598H203.143C203.104 140.24 203.003 139.956 202.84 139.748C202.534 139.37 202.013 139.182 201.277 139.182C200.672 139.182 200.239 139.276 199.979 139.465C199.725 139.654 199.598 139.875 199.598 140.129C199.598 140.448 199.734 140.679 200.008 140.822C200.281 140.972 201.248 141.229 202.908 141.594C204.015 141.854 204.845 142.248 205.398 142.775C205.945 143.309 206.219 143.977 206.219 144.777C206.219 145.832 205.825 146.695 205.037 147.365C204.256 148.029 203.045 148.361 201.404 148.361C199.731 148.361 198.494 148.01 197.693 147.307C196.899 146.597 196.502 145.695 196.502 144.602H199.324Z" fill="#B23634"/>
</svg>
