<svg width="311" height="167" viewBox="0 0 311 167" fill="none" xmlns="http://www.w3.org/2000/svg">
<g filter="url(#filter0_d)">
<path d="M51.9996 52.4999C-2.40041 58.8999 8.33292 78.1665 20.4996 86.9999C46.8993 109.8 87 105.5 113 93C139 80.5 176 79.5879 194.5 86.9999C213 94.4118 266.5 106 294.5 88C320.1 68.7999 259 44.703 254.5 43.0003C224.9 31.8001 198 49.1664 188.5 58.4999C168 64.4999 123 72.8999 107 58.4999C91 44.0999 63.6664 48.4999 51.9996 52.4999Z" fill="#9FA152"/>
<mask id="path-2-inside-1" fill="white">
<path fill-rule="evenodd" clip-rule="evenodd" d="M179 6H139V32H123V76H139H179H195V32H179V6Z"/>
</mask>
<path fill-rule="evenodd" clip-rule="evenodd" d="M179 6H139V32H123V76H139H179H195V32H179V6Z" fill="#BFCCD3"/>
<path d="M139 6V2H135V6H139ZM179 6H183V2H179V6ZM139 32V36H143V32H139ZM123 32V28H119V32H123ZM123 76H119V80H123V76ZM195 76V80H199V76H195ZM195 32H199V28H195V32ZM179 32H175V36H179V32ZM139 10H179V2H139V10ZM143 32V6H135V32H143ZM123 36H139V28H123V36ZM127 76V32H119V76H127ZM139 72H123V80H139V72ZM179 72H139V80H179V72ZM195 72H179V80H195V72ZM191 32V76H199V32H191ZM179 36H195V28H179V36ZM175 6V32H183V6H175Z" fill="#1E2021" mask="url(#path-2-inside-1)"/>
<path d="M113.982 114.82L114.002 115.3C114.002 116.593 113.876 117.8 113.622 118.92H111.622L111.242 116.74L108.022 116.52V120.98L112.462 120.64V122.92L108.022 122.72V126.56L110.462 126.94L110.442 128H102.942L102.822 127.36C103.342 127.013 103.869 126.72 104.402 126.48V116.04L102.922 115.82L102.942 114.76H114.002L113.982 114.82ZM124.302 126.86L121.662 128.34C121.288 128.327 120.915 128.187 120.542 127.92C120.168 127.653 119.862 127.307 119.622 126.88L117.502 128.26L116.822 128.32C115.955 128.32 115.228 128.067 114.642 127.56C114.068 127.053 113.782 126.44 113.782 125.72C113.782 124.72 114.322 123.933 115.402 123.36L119.202 123.28V121.64C119.202 120.613 118.895 119.94 118.282 119.62C117.855 119.647 117.482 119.727 117.162 119.86L116.682 122.06L114.722 122.1C114.468 121.38 114.342 120.62 114.342 119.82L114.382 119.08C115.182 118.773 116.108 118.513 117.162 118.3C118.215 118.073 119.028 117.96 119.602 117.96C120.788 117.96 121.728 118.447 122.422 119.42C122.568 119.673 122.648 120.18 122.662 120.94V125.52C122.662 125.867 122.828 126.04 123.162 126.04L123.702 126.02L124.182 125.98L124.302 126.86ZM117.202 125.5C117.202 125.847 117.315 126.133 117.542 126.36C117.942 126.333 118.495 126.207 119.202 125.98V124.5C117.868 124.473 117.202 124.807 117.202 125.5ZM130.571 128.26L129.691 128.32C128.251 128.32 127.051 127.847 126.091 126.9C125.145 125.94 124.671 124.713 124.671 123.22C124.671 121.713 125.151 120.467 126.111 119.48C127.071 118.493 128.278 118 129.731 118C130.665 118 131.498 118.227 132.231 118.68C132.965 119.12 133.458 119.76 133.711 120.6L130.971 122.14C130.398 121.007 129.731 120.233 128.971 119.82C128.331 120.513 128.011 121.473 128.011 122.7C128.011 123.7 128.251 124.513 128.731 125.14C129.225 125.767 129.918 126.08 130.811 126.08C131.438 126.08 132.165 125.88 132.991 125.48L133.471 126.58L130.571 128.26ZM146.309 126.86L143.649 128.34C143.262 128.313 142.869 128.147 142.469 127.84C142.082 127.533 141.769 127.133 141.529 126.64C140.462 127.453 139.389 128.02 138.309 128.34C137.629 128.34 136.982 128.127 136.369 127.7C135.769 127.273 135.429 126.74 135.349 126.1L135.289 124.96V120.02L133.809 119.74L133.709 118.78C134.896 118.327 136.216 118.08 137.669 118.04L138.749 119V124.28C138.749 125.387 139.169 125.94 140.009 125.94C140.422 125.94 140.822 125.853 141.209 125.68V119.96L140.089 119.68L139.989 118.72C141.056 118.293 142.256 118.067 143.589 118.04L144.669 119V125.52C144.669 125.867 144.836 126.04 145.169 126.04L145.689 126.02L146.189 125.98L146.309 126.86ZM151.565 126.32C152.151 126.52 152.631 126.753 153.005 127.02L152.965 128H146.625L146.585 127.3C147.051 127.033 147.558 126.807 148.105 126.62V115.26L146.625 115L146.525 114C147.645 113.6 148.965 113.353 150.485 113.26L151.565 114.26V126.32ZM159.176 125.78C159.643 125.78 160.176 125.72 160.776 125.6L160.916 126.64L157.616 128.34C156.95 128.367 156.336 128.16 155.776 127.72C155.23 127.267 154.956 126.74 154.956 126.14V120.78H153.496L153.436 119.7C153.876 119.327 154.443 118.94 155.136 118.54L156.236 115.86H157.816L158.316 118.54H161.076L161.096 119.54L160.096 120.8H158.416V124.92C158.416 125.493 158.67 125.78 159.176 125.78ZM172.563 126.86L169.923 128.34C169.55 128.327 169.177 128.187 168.803 127.92C168.43 127.653 168.123 127.307 167.883 126.88L165.763 128.26L165.083 128.32C164.217 128.32 163.49 128.067 162.903 127.56C162.33 127.053 162.043 126.44 162.043 125.72C162.043 124.72 162.583 123.933 163.663 123.36L167.463 123.28V121.64C167.463 120.613 167.157 119.94 166.543 119.62C166.117 119.647 165.743 119.727 165.423 119.86L164.943 122.06L162.983 122.1C162.73 121.38 162.603 120.62 162.603 119.82L162.643 119.08C163.443 118.773 164.37 118.513 165.423 118.3C166.477 118.073 167.29 117.96 167.863 117.96C169.05 117.96 169.99 118.447 170.683 119.42C170.83 119.673 170.91 120.18 170.923 120.94V125.52C170.923 125.867 171.09 126.04 171.423 126.04L171.963 126.02L172.443 125.98L172.563 126.86ZM165.463 125.5C165.463 125.847 165.577 126.133 165.803 126.36C166.203 126.333 166.757 126.207 167.463 125.98V124.5C166.13 124.473 165.463 124.807 165.463 125.5ZM184.473 126.86L181.813 128.34C181.413 128.327 181.013 128.167 180.613 127.86C180.213 127.553 179.9 127.147 179.673 126.64L177.393 128.34C176.1 128.353 175.033 127.887 174.193 126.94C173.353 125.98 172.933 124.773 172.933 123.32C172.933 121.8 173.426 120.547 174.413 119.56C175.4 118.56 176.68 118.06 178.253 118.06L179.373 118.16V115.26L177.893 115L177.793 114C178.913 113.6 180.233 113.353 181.753 113.26L182.833 114.26V125.5C182.833 125.86 183 126.04 183.333 126.04L183.853 126.02L184.353 125.98L184.473 126.86ZM176.533 122.96C176.533 123.773 176.706 124.453 177.053 125C177.413 125.533 177.9 125.8 178.513 125.8C178.806 125.8 179.093 125.747 179.373 125.64V120.22C178.84 119.98 178.266 119.867 177.653 119.88C176.906 120.6 176.533 121.627 176.533 122.96ZM201.602 126.86L198.942 128.34C198.542 128.327 198.142 128.167 197.742 127.86C197.342 127.553 197.028 127.147 196.802 126.64L194.522 128.34C193.228 128.353 192.162 127.887 191.322 126.94C190.482 125.98 190.062 124.773 190.062 123.32C190.062 121.8 190.555 120.547 191.542 119.56C192.528 118.56 193.808 118.06 195.382 118.06L196.502 118.16V115.26L195.022 115L194.922 114C196.042 113.6 197.362 113.353 198.882 113.26L199.962 114.26V125.5C199.962 125.86 200.128 126.04 200.462 126.04L200.982 126.02L201.482 125.98L201.602 126.86ZM193.662 122.96C193.662 123.773 193.835 124.453 194.182 125C194.542 125.533 195.028 125.8 195.642 125.8C195.935 125.8 196.222 125.747 196.502 125.64V120.22C195.968 119.98 195.395 119.867 194.782 119.88C194.035 120.6 193.662 121.627 193.662 122.96ZM209.905 123.42L204.865 123.38C204.958 124.247 205.265 124.913 205.785 125.38C206.318 125.847 206.985 126.08 207.785 126.08C208.491 126.08 209.338 125.827 210.325 125.32L210.825 126.46L207.685 128.24L206.765 128.3C205.285 128.3 204.051 127.833 203.065 126.9C202.091 125.967 201.605 124.773 201.605 123.32C201.605 121.84 202.098 120.587 203.085 119.56C204.085 118.52 205.291 118 206.705 118C207.998 118 209.051 118.393 209.865 119.18C210.678 119.953 211.078 120.98 211.065 122.26L209.905 123.42ZM206.165 119.66C205.525 120.06 205.118 120.793 204.945 121.86L207.945 121.68C207.865 121.133 207.658 120.667 207.325 120.28C207.005 119.88 206.618 119.673 206.165 119.66ZM112.326 145C113.3 145.2 114.053 145.607 114.586 146.22C115.12 146.82 115.386 147.52 115.386 148.32C115.386 149.413 114.913 150.293 113.966 150.96C113.033 151.613 111.76 151.96 110.146 152H102.746L102.626 151.36C103.133 151.013 103.7 150.7 104.326 150.42V140.02L102.906 139.82L102.926 138.76C104.713 138.653 106.966 138.6 109.686 138.6C111.206 138.6 112.44 138.92 113.386 139.56C114.333 140.2 114.806 141.02 114.806 142.02C114.806 142.673 114.593 143.293 114.166 143.88C113.74 144.453 113.126 144.827 112.326 145ZM107.946 140.64V144.4H108.846C109.633 144.4 110.22 144.213 110.606 143.84C111.006 143.453 111.206 142.987 111.206 142.44C111.206 141.987 111.08 141.553 110.826 141.14C110.586 140.727 110.266 140.46 109.866 140.34L107.946 140.64ZM109.346 150.3L109.646 150.32C110.3 150.32 110.8 150.113 111.146 149.7C111.493 149.287 111.666 148.8 111.666 148.24C111.666 147.613 111.453 147.06 111.026 146.58C110.613 146.1 110.093 145.853 109.466 145.84H107.946V150.14L109.346 150.3ZM124.534 147.42L119.494 147.38C119.587 148.247 119.894 148.913 120.414 149.38C120.947 149.847 121.614 150.08 122.414 150.08C123.12 150.08 123.967 149.827 124.954 149.32L125.454 150.46L122.314 152.24L121.394 152.3C119.914 152.3 118.68 151.833 117.694 150.9C116.72 149.967 116.234 148.773 116.234 147.32C116.234 145.84 116.727 144.587 117.714 143.56C118.714 142.52 119.92 142 121.334 142C122.627 142 123.68 142.393 124.494 143.18C125.307 143.953 125.707 144.98 125.694 146.26L124.534 147.42ZM120.794 143.66C120.154 144.06 119.747 144.793 119.574 145.86L122.574 145.68C122.494 145.133 122.287 144.667 121.954 144.28C121.634 143.88 121.247 143.673 120.794 143.66ZM131.194 150.32C131.78 150.52 132.26 150.753 132.634 151.02L132.594 152H126.254L126.214 151.3C126.68 151.033 127.187 150.807 127.734 150.62V139.26L126.254 139L126.154 138C127.274 137.6 128.594 137.353 130.114 137.26L131.194 138.26V150.32ZM138.205 150.32C138.792 150.52 139.272 150.753 139.645 151.02L139.605 152H133.265L133.225 151.3C133.692 151.033 134.199 150.807 134.745 150.62V139.26L133.265 139L133.165 138C134.285 137.6 135.605 137.353 137.125 137.26L138.205 138.26V150.32ZM150.864 150.86L148.224 152.34C147.851 152.327 147.477 152.187 147.104 151.92C146.731 151.653 146.424 151.307 146.184 150.88L144.064 152.26L143.384 152.32C142.517 152.32 141.791 152.067 141.204 151.56C140.631 151.053 140.344 150.44 140.344 149.72C140.344 148.72 140.884 147.933 141.964 147.36L145.764 147.28V145.64C145.764 144.613 145.457 143.94 144.844 143.62C144.417 143.647 144.044 143.727 143.724 143.86L143.244 146.06L141.284 146.1C141.031 145.38 140.904 144.62 140.904 143.82L140.944 143.08C141.744 142.773 142.671 142.513 143.724 142.3C144.777 142.073 145.591 141.96 146.164 141.96C147.351 141.96 148.291 142.447 148.984 143.42C149.131 143.673 149.211 144.18 149.224 144.94V149.52C149.224 149.867 149.391 150.04 149.724 150.04L150.264 150.02L150.744 149.98L150.864 150.86ZM143.764 149.5C143.764 149.847 143.877 150.133 144.104 150.36C144.504 150.333 145.057 150.207 145.764 149.98V148.5C144.431 148.473 143.764 148.807 143.764 149.5ZM154.794 144.38C154.794 144.62 154.88 144.84 155.054 145.04C155.227 145.227 155.847 145.6 156.914 146.16C157.98 146.707 158.7 147.22 159.074 147.7C159.447 148.167 159.634 148.7 159.634 149.3C159.634 150.207 159.26 150.953 158.514 151.54C157.767 152.113 156.774 152.4 155.534 152.4C154.134 152.4 152.74 152.04 151.354 151.32L152.494 148.7C153.654 149.593 154.854 150.26 156.094 150.7C156.334 150.487 156.454 150.24 156.454 149.96C156.454 149.707 156.354 149.48 156.154 149.28C155.967 149.08 155.354 148.72 154.314 148.2C153.287 147.667 152.587 147.173 152.214 146.72C151.854 146.253 151.674 145.727 151.674 145.14C151.674 144.207 152.08 143.453 152.894 142.88C153.72 142.293 154.787 142 156.094 142C157.307 142 158.34 142.22 159.194 142.66L159.234 143.36C159.234 144.053 159.12 144.753 158.894 145.46H157.134L156.514 143.64L155.594 143.54C155.06 143.7 154.794 143.98 154.794 144.38ZM180.326 150.94L180.306 152H173.526L173.406 151.36C173.78 151.093 174.313 150.793 175.006 150.46L174.306 148.56H169.906L169.106 150.66L170.826 150.94L170.806 152H165.206L165.086 151.36C165.553 151.04 166.113 150.733 166.766 150.44L171.046 139.9L170.746 139.08L173.866 138.28L178.886 150.72L180.326 150.94ZM173.666 146.88L172.106 142.68L170.526 146.88H173.666ZM184.965 145.44V150.18C185.858 150.393 186.585 150.673 187.145 151.02L187.105 152H180.065L180.025 151.3C180.438 151.06 180.932 150.84 181.505 150.64V144.02L180.025 143.74L179.925 142.78C181.112 142.327 182.432 142.08 183.885 142.04L184.965 143.54V143.9L186.545 142.12C186.745 142.053 186.998 142.02 187.305 142.02C187.838 142.02 188.325 142.153 188.765 142.42C189.218 142.687 189.532 143.06 189.705 143.54L187.405 146.44C186.512 145.693 185.798 145.287 185.265 145.22L184.965 145.44ZM195.407 149.78C195.874 149.78 196.407 149.72 197.007 149.6L197.147 150.64L193.847 152.34C193.18 152.367 192.567 152.16 192.007 151.72C191.46 151.267 191.187 150.74 191.187 150.14V144.78H189.727L189.667 143.7C190.107 143.327 190.674 142.94 191.367 142.54L192.467 139.86H194.047L194.547 142.54H197.307L197.327 143.54L196.327 144.8H194.647V148.92C194.647 149.493 194.9 149.78 195.407 149.78ZM206.194 147.42L201.154 147.38C201.247 148.247 201.554 148.913 202.074 149.38C202.607 149.847 203.274 150.08 204.074 150.08C204.78 150.08 205.627 149.827 206.614 149.32L207.114 150.46L203.974 152.24L203.054 152.3C201.574 152.3 200.34 151.833 199.354 150.9C198.38 149.967 197.894 148.773 197.894 147.32C197.894 145.84 198.387 144.587 199.374 143.56C200.374 142.52 201.58 142 202.994 142C204.287 142 205.34 142.393 206.154 143.18C206.967 143.953 207.367 144.98 207.354 146.26L206.194 147.42ZM202.454 143.66C201.814 144.06 201.407 144.793 201.234 145.86L204.234 145.68C204.154 145.133 203.947 144.667 203.614 144.28C203.294 143.88 202.907 143.673 202.454 143.66ZM211.454 144.38C211.454 144.62 211.54 144.84 211.714 145.04C211.887 145.227 212.507 145.6 213.574 146.16C214.64 146.707 215.36 147.22 215.734 147.7C216.107 148.167 216.294 148.7 216.294 149.3C216.294 150.207 215.92 150.953 215.174 151.54C214.427 152.113 213.434 152.4 212.194 152.4C210.794 152.4 209.4 152.04 208.014 151.32L209.154 148.7C210.314 149.593 211.514 150.26 212.754 150.7C212.994 150.487 213.114 150.24 213.114 149.96C213.114 149.707 213.014 149.48 212.814 149.28C212.627 149.08 212.014 148.72 210.974 148.2C209.947 147.667 209.247 147.173 208.874 146.72C208.514 146.253 208.334 145.727 208.334 145.14C208.334 144.207 208.74 143.453 209.554 142.88C210.38 142.293 211.447 142 212.754 142C213.967 142 215 142.22 215.854 142.66L215.894 143.36C215.894 144.053 215.78 144.753 215.554 145.46H213.794L213.174 143.64L212.254 143.54C211.72 143.7 211.454 143.98 211.454 144.38Z" fill="#1E2021"/>
</g>
<defs>
<filter id="filter0_d" x="0.645508" y="0" width="310.098" height="166.4" filterUnits="userSpaceOnUse" color-interpolation-filters="sRGB">
<feFlood flood-opacity="0" result="BackgroundImageFix"/>
<feColorMatrix in="SourceAlpha" type="matrix" values="0 0 0 0 0 0 0 0 0 0 0 0 0 0 0 0 0 0 127 0"/>
<feOffset dy="4"/>
<feGaussianBlur stdDeviation="5"/>
<feColorMatrix type="matrix" values="0 0 0 0 0 0 0 0 0 0 0 0 0 0 0 0 0 0 0.25 0"/>
<feBlend mode="normal" in2="BackgroundImageFix" result="effect1_dropShadow"/>
<feBlend mode="normal" in="SourceGraphic" in2="effect1_dropShadow" result="shape"/>
</filter>
</defs>
</svg>
