<svg width="1295" height="663" viewBox="0 0 1295 663" fill="none" xmlns="http://www.w3.org/2000/svg">
<g filter="url(#filter0_d)">
<path d="M12.5 519.592C46.3333 478.925 292 416.592 371.5 464.092C451 511.592 528.5 579.592 567.5 613.592C606.5 647.593 702.7 657.392 789.5 632.592C789.5 632.592 807.904 628.584 837 622.156M1282.5 477.092C1247 519.092 1245 516.593 1205.5 533.592C1192.68 539.108 1144.4 551.465 1085 565.645" stroke="#D39BFF" stroke-width="4" stroke-dasharray="0 10"/>
<path d="M885.646 612.905C886.048 614.605 886.277 615.983 886.334 617.038L875.2 619.666L874.936 619.07C875.35 618.617 875.829 618.181 876.375 617.765L873.995 607.682L872.441 607.802L872.217 606.766L878.757 605.222L879.021 605.818C878.634 606.265 878.154 606.7 877.582 607.123L879.834 616.661L883.22 615.512L883.43 612.483L885.476 612.185L885.646 612.905ZM896.848 613.385L894.619 615.432C894.252 615.504 893.857 615.454 893.432 615.28C893.008 615.106 892.63 614.839 892.298 614.479L890.552 616.309L889.904 616.524C889.06 616.723 888.295 616.643 887.607 616.285C886.933 615.924 886.513 615.393 886.348 614.692C886.118 613.719 886.463 612.829 887.382 612.023L891.062 611.072L890.686 609.476C890.45 608.477 889.997 607.892 889.326 607.721C888.917 607.845 888.572 608.009 888.291 608.212L888.329 610.464L886.431 610.953C886.019 610.31 885.721 609.6 885.537 608.821L885.406 608.092C886.115 607.609 886.957 607.143 887.933 606.694C888.906 606.231 889.672 605.934 890.23 605.802C891.384 605.53 892.411 605.788 893.31 606.576C893.51 606.789 893.705 607.263 893.892 608L894.944 612.457C895.024 612.795 895.226 612.925 895.55 612.849L896.071 612.705L896.529 612.556L896.848 613.385ZM889.626 613.692C889.705 614.03 889.882 614.283 890.154 614.451C890.537 614.333 891.047 614.083 891.683 613.7L891.343 612.259C890.039 612.54 889.466 613.017 889.626 613.692ZM908.423 612.091L907.581 612.352C906.179 612.683 904.902 612.498 903.751 611.797C902.609 611.08 901.866 609.995 901.523 608.541C901.177 607.075 901.358 605.751 902.066 604.571C902.773 603.39 903.834 602.633 905.249 602.299C906.157 602.084 907.02 602.113 907.838 602.386C908.653 602.646 909.28 603.156 909.72 603.915L907.407 606.043C906.588 605.072 905.762 604.472 904.927 604.245C904.464 605.066 904.373 606.074 904.654 607.268C904.884 608.241 905.305 608.978 905.916 609.477C906.54 609.974 907.287 610.12 908.156 609.915C908.766 609.771 909.427 609.409 910.14 608.83L910.86 609.79L908.423 612.091ZM921.598 607.543L919.369 609.59C919.002 609.663 918.607 609.612 918.182 609.439C917.757 609.265 917.379 608.998 917.048 608.638L915.301 610.468L914.653 610.683C913.81 610.882 913.044 610.802 912.357 610.444C911.683 610.082 911.263 609.551 911.097 608.85C910.868 607.877 911.213 606.987 912.132 606.181L915.812 605.231L915.435 603.634C915.199 602.635 914.746 602.05 914.076 601.88C913.667 602.004 913.322 602.167 913.041 602.371L913.079 604.622L911.181 605.111C910.769 604.469 910.471 603.758 910.287 602.98L910.156 602.25C910.864 601.768 911.706 601.302 912.683 600.852C913.656 600.39 914.421 600.093 914.979 599.961C916.134 599.688 917.161 599.946 918.059 600.734C918.26 600.947 918.454 601.422 918.642 602.158L919.694 606.616C919.774 606.953 919.976 607.084 920.3 607.007L920.821 606.864L921.279 606.714L921.598 607.543ZM914.375 607.851C914.455 608.188 914.631 608.441 914.904 608.61C915.287 608.492 915.796 608.241 916.432 607.858L916.092 606.418C914.788 606.698 914.216 607.176 914.375 607.851ZM925.238 601.115L926.326 605.729C927.245 605.731 928.016 605.837 928.641 606.045L928.827 607.008L921.976 608.626L921.776 607.953C922.123 607.625 922.553 607.297 923.065 606.971L921.544 600.528L920.039 600.596L919.721 599.684C920.772 598.97 922 598.427 923.405 598.054L924.801 599.266L924.884 599.617L926.013 597.521C926.192 597.41 926.431 597.32 926.729 597.249C927.248 597.127 927.753 597.145 928.242 597.303C928.745 597.459 929.135 597.75 929.414 598.177L927.842 601.528C926.801 601.007 926.013 600.775 925.479 600.832L925.238 601.115ZM934.894 598.836L935.983 603.449C936.901 603.452 937.673 603.557 938.298 603.766L938.484 604.729L931.632 606.346L931.432 605.674C931.78 605.346 932.209 605.018 932.721 604.692L931.2 598.249L929.696 598.316L929.378 597.405C930.429 596.691 931.657 596.148 933.062 595.775L934.458 596.987L934.54 597.337L935.669 595.242C935.849 595.131 936.088 595.041 936.386 594.97C936.905 594.848 937.409 594.866 937.899 595.024C938.401 595.179 938.792 595.471 939.071 595.898L937.499 599.249C936.458 598.727 935.67 598.496 935.136 598.553L934.894 598.836ZM947.969 597.785L943.055 598.903C943.345 599.725 943.796 600.304 944.41 600.639C945.036 600.97 945.738 601.044 946.517 600.86C947.205 600.698 947.971 600.257 948.814 599.537L949.563 600.532L946.916 602.986L946.034 603.255C944.594 603.595 943.286 603.424 942.112 602.743C940.95 602.058 940.202 601.008 939.868 599.594C939.528 598.153 939.721 596.82 940.445 595.594C941.179 594.352 942.234 593.569 943.61 593.245C944.869 592.947 945.984 593.088 946.956 593.667C947.926 594.233 948.551 595.14 948.832 596.389L947.969 597.785ZM943.466 594.984C942.935 595.521 942.707 596.328 942.784 597.406L945.662 596.541C945.459 596.028 945.15 595.621 944.737 595.321C944.334 595.005 943.91 594.893 943.466 594.984ZM955.577 598.414C956.031 598.307 956.537 598.126 957.093 597.871L957.468 598.851L954.647 601.264C954.004 601.443 953.36 601.382 952.714 601.083C952.078 600.767 951.691 600.317 951.553 599.733L950.322 594.517L948.901 594.852L948.594 593.815C948.937 593.35 949.399 592.844 949.982 592.295L950.437 589.434L951.975 589.071L953.077 591.565L955.763 590.931L956.012 591.9L955.329 593.356L953.694 593.741L954.64 597.751C954.772 598.309 955.084 598.53 955.577 598.414ZM965.534 593.639L960.619 594.758C960.909 595.58 961.361 596.158 961.974 596.493C962.6 596.825 963.303 596.899 964.081 596.715C964.769 596.552 965.535 596.111 966.379 595.392L967.127 596.386L964.48 598.84L963.599 599.11C962.158 599.45 960.851 599.279 959.676 598.597C958.514 597.912 957.766 596.863 957.433 595.448C957.093 594.008 957.285 592.675 958.009 591.449C958.744 590.207 959.799 589.424 961.174 589.099C962.433 588.802 963.548 588.943 964.521 589.522C965.49 590.087 966.115 590.995 966.396 592.243L965.534 593.639ZM961.03 590.839C960.499 591.375 960.272 592.182 960.348 593.26L963.226 592.396C963.023 591.882 962.714 591.475 962.301 591.176C961.898 590.86 961.474 590.747 961.03 590.839ZM971.429 590.213L972.518 594.826C973.437 594.829 974.208 594.934 974.833 595.143L975.019 596.106L968.167 597.723L967.968 597.051C968.315 596.723 968.744 596.395 969.256 596.069L967.736 589.626L966.231 589.693L965.913 588.782C966.964 588.068 968.192 587.525 969.597 587.152L970.993 588.364L971.076 588.714L972.204 586.619C972.384 586.508 972.623 586.417 972.921 586.347C973.44 586.224 973.945 586.242 974.434 586.401C974.936 586.556 975.327 586.848 975.606 587.275L974.034 590.626C972.993 590.104 972.205 589.872 971.671 589.93L971.429 590.213ZM987.654 591.952L985.425 593.999C985.058 594.072 984.663 594.022 984.238 593.848C983.814 593.674 983.435 593.407 983.104 593.047L981.358 594.877L980.709 595.092C979.866 595.291 979.101 595.211 978.413 594.853C977.739 594.491 977.319 593.96 977.154 593.26C976.924 592.286 977.269 591.397 978.188 590.591L981.868 589.64L981.491 588.044C981.256 587.044 980.802 586.459 980.132 586.289C979.723 586.413 979.378 586.577 979.097 586.78L979.135 589.031L977.237 589.52C976.825 588.878 976.527 588.167 976.343 587.389L976.212 586.659C976.92 586.177 977.763 585.711 978.739 585.262C979.712 584.799 980.477 584.502 981.035 584.37C982.19 584.098 983.217 584.355 984.115 585.143C984.316 585.356 984.51 585.831 984.698 586.568L985.75 591.025C985.83 591.362 986.032 591.493 986.356 591.416L986.877 591.273L987.335 591.124L987.654 591.952ZM980.432 592.26C980.511 592.597 980.687 592.85 980.96 593.019C981.343 592.901 981.853 592.65 982.488 592.268L982.148 590.827C980.845 591.107 980.272 591.585 980.432 592.26ZM992.311 587.031C991.965 585.565 992.142 584.256 992.843 583.104C993.544 581.952 994.601 581.209 996.016 580.875C997.43 580.542 998.703 580.741 999.835 581.474C1000.97 582.207 1001.71 583.326 1002.07 584.831C1002.42 586.324 1002.26 587.643 1001.58 588.788C1000.92 589.918 999.884 590.648 998.483 590.979C997.055 591.316 995.754 591.116 994.58 590.379C993.416 589.627 992.66 588.511 992.311 587.031ZM998.688 588.978C999.083 588.502 999.09 587.459 998.71 585.85C998.168 583.553 997.372 582.528 996.32 582.776C995.996 582.853 995.76 582.984 995.612 583.17C995.345 583.781 995.383 584.813 995.726 586.266C995.959 587.252 996.285 588.025 996.705 588.583C997.121 589.129 997.608 589.336 998.166 589.204C998.348 589.161 998.522 589.086 998.688 588.978ZM1005.41 581.104C1005.46 581.338 1005.6 581.532 1005.81 581.687C1006.02 581.829 1006.71 582.05 1007.88 582.35C1009.04 582.637 1009.86 582.971 1010.33 583.353C1010.81 583.721 1011.11 584.197 1011.25 584.781C1011.46 585.664 1011.26 586.476 1010.67 587.218C1010.08 587.948 1009.18 588.455 1007.97 588.74C1006.61 589.062 1005.17 589.031 1003.65 588.649L1004.16 585.837C1005.49 586.44 1006.82 586.813 1008.12 586.957C1008.31 586.694 1008.37 586.426 1008.3 586.154C1008.25 585.907 1008.1 585.71 1007.86 585.561C1007.63 585.409 1006.95 585.2 1005.82 584.933C1004.69 584.649 1003.9 584.33 1003.43 583.975C1002.98 583.603 1002.68 583.132 1002.54 582.561C1002.33 581.652 1002.55 580.826 1003.21 580.081C1003.88 579.32 1004.85 578.79 1006.12 578.489C1007.31 578.211 1008.36 578.188 1009.29 578.42L1009.49 579.092C1009.65 579.767 1009.7 580.474 1009.64 581.214L1007.93 581.618L1006.91 579.989L1005.99 580.103C1005.51 580.381 1005.31 580.715 1005.41 581.104ZM1018.43 586.128L1017.59 586.388C1016.18 586.719 1014.91 586.534 1013.76 585.833C1012.61 585.116 1011.87 584.031 1011.53 582.578C1011.18 581.111 1011.36 579.788 1012.07 578.607C1012.78 577.426 1013.84 576.669 1015.25 576.335C1016.16 576.12 1017.03 576.15 1017.84 576.422C1018.66 576.682 1019.28 577.192 1019.72 577.951L1017.41 580.079C1016.59 579.108 1015.77 578.508 1014.93 578.281C1014.47 579.103 1014.38 580.11 1014.66 581.304C1014.89 582.278 1015.31 583.014 1015.92 583.514C1016.54 584.01 1017.29 584.156 1018.16 583.951C1018.77 583.807 1019.43 583.445 1020.14 582.866L1020.86 583.826L1018.43 586.128ZM1033.42 581.15L1031.17 583.201C1030.79 583.264 1030.37 583.192 1029.91 582.986C1029.46 582.776 1029.07 582.459 1028.72 582.034C1027.87 583.07 1026.95 583.868 1025.98 584.428C1025.32 584.584 1024.64 584.525 1023.94 584.251C1023.26 583.973 1022.81 583.532 1022.58 582.928L1022.26 581.832L1021.13 577.024L1019.62 577.092L1019.3 576.18C1020.36 575.466 1021.58 574.923 1022.99 574.55L1024.26 575.237L1025.47 580.375C1025.73 581.452 1026.26 581.895 1027.08 581.702C1027.48 581.607 1027.85 581.43 1028.19 581.173L1026.87 575.606L1025.72 575.591L1025.4 574.679C1026.34 574.019 1027.46 573.523 1028.75 573.19L1030.02 573.877L1031.52 580.222C1031.6 580.56 1031.8 580.69 1032.13 580.614L1032.63 580.475L1033.1 580.321L1033.42 581.15ZM1037.37 574.649L1038.46 579.262C1039.38 579.265 1040.15 579.37 1040.77 579.579L1040.96 580.542L1034.11 582.159L1033.91 581.487C1034.26 581.159 1034.69 580.831 1035.2 580.505L1033.68 574.062L1032.17 574.129L1031.86 573.218C1032.91 572.504 1034.13 571.961 1035.54 571.588L1036.93 572.8L1037.02 573.15L1038.15 571.055C1038.33 570.944 1038.56 570.853 1038.86 570.783C1039.38 570.66 1039.89 570.678 1040.38 570.837C1040.88 570.992 1041.27 571.284 1041.55 571.711L1039.98 575.062C1038.93 574.54 1038.15 574.308 1037.61 574.366L1037.37 574.649ZM1053.6 576.389L1051.37 578.435C1051 578.508 1050.6 578.458 1050.18 578.284C1049.76 578.11 1049.38 577.843 1049.05 577.483L1047.3 579.313L1046.65 579.528C1045.81 579.727 1045.04 579.647 1044.36 579.289C1043.68 578.927 1043.26 578.396 1043.1 577.696C1042.87 576.722 1043.21 575.833 1044.13 575.027L1047.81 574.076L1047.43 572.48C1047.2 571.48 1046.74 570.896 1046.07 570.725C1045.66 570.849 1045.32 571.013 1045.04 571.216L1045.08 573.467L1043.18 573.956C1042.77 573.314 1042.47 572.603 1042.29 571.825L1042.15 571.095C1042.86 570.613 1043.7 570.147 1044.68 569.698C1045.65 569.235 1046.42 568.938 1046.98 568.806C1048.13 568.534 1049.16 568.791 1050.06 569.579C1050.26 569.792 1050.45 570.267 1050.64 571.004L1051.69 575.461C1051.77 575.799 1051.97 575.929 1052.3 575.852L1052.82 575.709L1053.28 575.56L1053.6 576.389ZM1046.37 576.696C1046.45 577.033 1046.63 577.286 1046.9 577.455C1047.29 577.337 1047.79 577.087 1048.43 576.704L1048.09 575.263C1046.79 575.544 1046.21 576.021 1046.37 576.696Z" fill="#D39BFF"/>
<path d="M1280 82.5C1274.83 73.1667 1250.6 45.2 1195 8" stroke="#D39BFF" stroke-width="4" stroke-dasharray="0 10"/>
</g>
<defs>
<filter id="filter0_d" x="0.962891" y="0.337891" width="1293.06" height="662.082" filterUnits="userSpaceOnUse" color-interpolation-filters="sRGB">
<feFlood flood-opacity="0" result="BackgroundImageFix"/>
<feColorMatrix in="SourceAlpha" type="matrix" values="0 0 0 0 0 0 0 0 0 0 0 0 0 0 0 0 0 0 127 0"/>
<feOffset dy="4"/>
<feGaussianBlur stdDeviation="5"/>
<feColorMatrix type="matrix" values="0 0 0 0 0.827451 0 0 0 0 0.607843 0 0 0 0 1 0 0 0 0.25 0"/>
<feBlend mode="normal" in2="BackgroundImageFix" result="effect1_dropShadow"/>
<feBlend mode="normal" in="SourceGraphic" in2="effect1_dropShadow" result="shape"/>
</filter>
</defs>
</svg>
