<svg width="763" height="299" viewBox="0 0 763 299" fill="none" xmlns="http://www.w3.org/2000/svg">
<g filter="url(#filter0_d)">
<rect x="10" y="10" width="743" height="275" rx="32" fill="#BFCCD3"/>
<rect x="12" y="12" width="739" height="271" rx="30" stroke="#3D8AF4" stroke-width="4"/>
</g>
<rect x="514" width="192" height="23" fill="#BFCCD3"/>
<path d="M552.9 12.92C552.9 12.2933 552.967 11.6867 553.1 11.1C553.247 10.5133 553.473 9.99333 553.78 9.54C554.087 9.07333 554.487 8.70667 554.98 8.44C555.473 8.16 556.073 8.02 556.78 8.02C557.487 8.02 558.087 8.16 558.58 8.44C559.073 8.70667 559.473 9.07333 559.78 9.54C560.087 9.99333 560.307 10.5133 560.44 11.1C560.587 11.6867 560.66 12.2933 560.66 12.92C560.66 13.52 560.587 14.1067 560.44 14.68C560.307 15.24 560.087 15.7467 559.78 16.2C559.473 16.6533 559.073 17.02 558.58 17.3C558.087 17.5667 557.487 17.7 556.78 17.7C556.073 17.7 555.473 17.5667 554.98 17.3C554.487 17.02 554.087 16.6533 553.78 16.2C553.473 15.7467 553.247 15.24 553.1 14.68C552.967 14.1067 552.9 13.52 552.9 12.92ZM549.76 12.92C549.76 13.96 549.92 14.9333 550.24 15.84C550.56 16.7333 551.02 17.5133 551.62 18.18C552.22 18.8467 552.953 19.3733 553.82 19.76C554.7 20.1333 555.687 20.32 556.78 20.32C557.887 20.32 558.873 20.1333 559.74 19.76C560.607 19.3733 561.34 18.8467 561.94 18.18C562.54 17.5133 563 16.7333 563.32 15.84C563.64 14.9333 563.8 13.96 563.8 12.92C563.8 11.8533 563.64 10.8667 563.32 9.96C563 9.04 562.54 8.24 561.94 7.56C561.34 6.88 560.607 6.34667 559.74 5.96C558.873 5.57333 557.887 5.38 556.78 5.38C555.687 5.38 554.7 5.57333 553.82 5.96C552.953 6.34667 552.22 6.88 551.62 7.56C551.02 8.24 550.56 9.04 550.24 9.96C549.92 10.8667 549.76 11.8533 549.76 12.92ZM568.746 8.06V5.72H565.906V8.06H568.746ZM564.206 21.2V23.54C564.473 23.5933 564.773 23.62 565.106 23.62C565.826 23.62 566.42 23.5533 566.886 23.42C567.353 23.3 567.72 23.1067 567.986 22.84C568.266 22.5867 568.46 22.2667 568.566 21.88C568.686 21.4933 568.746 21.0333 568.746 20.5V9.66H565.906V20.36C565.906 20.7467 565.793 20.9933 565.566 21.1C565.353 21.22 565.1 21.28 564.806 21.28C564.553 21.28 564.353 21.2533 564.206 21.2ZM574.133 8.06V5.72H571.293V8.06H574.133ZM571.293 9.66V20H574.133V9.66H571.293ZM579.969 9.66V6.56H577.129V9.66H575.409V11.56H577.129V17.66C577.129 18.18 577.216 18.6 577.389 18.92C577.562 19.24 577.796 19.4867 578.089 19.66C578.396 19.8333 578.742 19.9467 579.129 20C579.529 20.0667 579.949 20.1 580.389 20.1C580.669 20.1 580.956 20.0933 581.249 20.08C581.542 20.0667 581.809 20.04 582.049 20V17.8C581.916 17.8267 581.776 17.8467 581.629 17.86C581.482 17.8733 581.329 17.88 581.169 17.88C580.689 17.88 580.369 17.8 580.209 17.64C580.049 17.48 579.969 17.16 579.969 16.68V11.56H582.049V9.66H579.969ZM585.92 14.84C585.92 14.4267 585.96 14.02 586.04 13.62C586.12 13.22 586.254 12.8667 586.44 12.56C586.64 12.2533 586.9 12.0067 587.22 11.82C587.54 11.62 587.94 11.52 588.42 11.52C588.9 11.52 589.3 11.62 589.62 11.82C589.954 12.0067 590.214 12.2533 590.4 12.56C590.6 12.8667 590.74 13.22 590.82 13.62C590.9 14.02 590.94 14.4267 590.94 14.84C590.94 15.2533 590.9 15.66 590.82 16.06C590.74 16.4467 590.6 16.8 590.4 17.12C590.214 17.4267 589.954 17.6733 589.62 17.86C589.3 18.0467 588.9 18.14 588.42 18.14C587.94 18.14 587.54 18.0467 587.22 17.86C586.9 17.6733 586.64 17.4267 586.44 17.12C586.254 16.8 586.12 16.4467 586.04 16.06C585.96 15.66 585.92 15.2533 585.92 14.84ZM583.08 14.84C583.08 15.6667 583.207 16.4133 583.46 17.08C583.714 17.7467 584.074 18.32 584.54 18.8C585.007 19.2667 585.567 19.6267 586.22 19.88C586.874 20.1333 587.607 20.26 588.42 20.26C589.234 20.26 589.967 20.1333 590.62 19.88C591.287 19.6267 591.854 19.2667 592.32 18.8C592.787 18.32 593.147 17.7467 593.4 17.08C593.654 16.4133 593.78 15.6667 593.78 14.84C593.78 14.0133 593.654 13.2667 593.4 12.6C593.147 11.92 592.787 11.3467 592.32 10.88C591.854 10.4 591.287 10.0333 590.62 9.78C589.967 9.51333 589.234 9.38 588.42 9.38C587.607 9.38 586.874 9.51333 586.22 9.78C585.567 10.0333 585.007 10.4 584.54 10.88C584.074 11.3467 583.714 11.92 583.46 12.6C583.207 13.2667 583.08 14.0133 583.08 14.84ZM597.827 16.64H595.127C595.154 17.3333 595.307 17.9133 595.587 18.38C595.88 18.8333 596.247 19.2 596.687 19.48C597.14 19.76 597.654 19.96 598.227 20.08C598.8 20.2 599.387 20.26 599.987 20.26C600.574 20.26 601.147 20.2 601.707 20.08C602.28 19.9733 602.787 19.78 603.227 19.5C603.667 19.22 604.02 18.8533 604.287 18.4C604.567 17.9333 604.707 17.36 604.707 16.68C604.707 16.2 604.614 15.8 604.427 15.48C604.24 15.1467 603.994 14.8733 603.687 14.66C603.38 14.4333 603.027 14.2533 602.627 14.12C602.24 13.9867 601.84 13.8733 601.427 13.78C601.027 13.6867 600.634 13.6 600.247 13.52C599.86 13.44 599.514 13.3533 599.207 13.26C598.914 13.1533 598.674 13.02 598.487 12.86C598.3 12.7 598.207 12.4933 598.207 12.24C598.207 12.0267 598.26 11.86 598.367 11.74C598.474 11.6067 598.6 11.5067 598.747 11.44C598.907 11.3733 599.08 11.3333 599.267 11.32C599.454 11.2933 599.627 11.28 599.787 11.28C600.294 11.28 600.734 11.38 601.107 11.58C601.48 11.7667 601.687 12.1333 601.727 12.68H604.427C604.374 12.04 604.207 11.5133 603.927 11.1C603.66 10.6733 603.32 10.3333 602.907 10.08C602.494 9.82667 602.02 9.64667 601.487 9.54C600.967 9.43333 600.427 9.38 599.867 9.38C599.307 9.38 598.76 9.43333 598.227 9.54C597.694 9.63333 597.214 9.80667 596.787 10.06C596.36 10.3 596.014 10.6333 595.747 11.06C595.494 11.4867 595.367 12.0333 595.367 12.7C595.367 13.1533 595.46 13.54 595.647 13.86C595.834 14.1667 596.08 14.4267 596.387 14.64C596.694 14.84 597.04 15.0067 597.427 15.14C597.827 15.26 598.234 15.3667 598.647 15.46C599.66 15.6733 600.447 15.8867 601.007 16.1C601.58 16.3133 601.867 16.6333 601.867 17.06C601.867 17.3133 601.807 17.5267 601.687 17.7C601.567 17.86 601.414 17.9933 601.227 18.1C601.054 18.1933 600.854 18.2667 600.627 18.32C600.414 18.36 600.207 18.38 600.007 18.38C599.727 18.38 599.454 18.3467 599.187 18.28C598.934 18.2133 598.707 18.1133 598.507 17.98C598.307 17.8333 598.14 17.6533 598.007 17.44C597.887 17.2133 597.827 16.9467 597.827 16.64ZM615.535 9.66V6.56H612.695V9.66H610.975V11.56H612.695V17.66C612.695 18.18 612.782 18.6 612.955 18.92C613.129 19.24 613.362 19.4867 613.655 19.66C613.962 19.8333 614.309 19.9467 614.695 20C615.095 20.0667 615.515 20.1 615.955 20.1C616.235 20.1 616.522 20.0933 616.815 20.08C617.109 20.0667 617.375 20.04 617.615 20V17.8C617.482 17.8267 617.342 17.8467 617.195 17.86C617.049 17.8733 616.895 17.88 616.735 17.88C616.255 17.88 615.935 17.8 615.775 17.64C615.615 17.48 615.535 17.16 615.535 16.68V11.56H617.615V9.66H615.535ZM618.967 9.66V20H621.807V15.34C621.807 14.8733 621.853 14.44 621.947 14.04C622.04 13.64 622.193 13.2933 622.407 13C622.633 12.6933 622.927 12.4533 623.287 12.28C623.647 12.1067 624.087 12.02 624.607 12.02C624.78 12.02 624.96 12.0333 625.147 12.06C625.333 12.0733 625.493 12.0933 625.627 12.12V9.48C625.4 9.41333 625.193 9.38 625.007 9.38C624.647 9.38 624.3 9.43333 623.967 9.54C623.633 9.64667 623.32 9.8 623.027 10C622.733 10.1867 622.473 10.42 622.247 10.7C622.02 10.9667 621.84 11.26 621.707 11.58H621.667V9.66H618.967ZM629.66 8.06V5.72H626.82V8.06H629.66ZM626.82 9.66V20H629.66V9.66H626.82ZM634.096 16.64H631.396C631.423 17.3333 631.576 17.9133 631.856 18.38C632.15 18.8333 632.516 19.2 632.956 19.48C633.41 19.76 633.923 19.96 634.496 20.08C635.07 20.2 635.656 20.26 636.256 20.26C636.843 20.26 637.416 20.2 637.976 20.08C638.55 19.9733 639.056 19.78 639.496 19.5C639.936 19.22 640.29 18.8533 640.556 18.4C640.836 17.9333 640.976 17.36 640.976 16.68C640.976 16.2 640.883 15.8 640.696 15.48C640.51 15.1467 640.263 14.8733 639.956 14.66C639.65 14.4333 639.296 14.2533 638.896 14.12C638.51 13.9867 638.11 13.8733 637.696 13.78C637.296 13.6867 636.903 13.6 636.516 13.52C636.13 13.44 635.783 13.3533 635.476 13.26C635.183 13.1533 634.943 13.02 634.756 12.86C634.57 12.7 634.476 12.4933 634.476 12.24C634.476 12.0267 634.53 11.86 634.636 11.74C634.743 11.6067 634.87 11.5067 635.016 11.44C635.176 11.3733 635.35 11.3333 635.536 11.32C635.723 11.2933 635.896 11.28 636.056 11.28C636.563 11.28 637.003 11.38 637.376 11.58C637.75 11.7667 637.956 12.1333 637.996 12.68H640.696C640.643 12.04 640.476 11.5133 640.196 11.1C639.93 10.6733 639.59 10.3333 639.176 10.08C638.763 9.82667 638.29 9.64667 637.756 9.54C637.236 9.43333 636.696 9.38 636.136 9.38C635.576 9.38 635.03 9.43333 634.496 9.54C633.963 9.63333 633.483 9.80667 633.056 10.06C632.63 10.3 632.283 10.6333 632.016 11.06C631.763 11.4867 631.636 12.0333 631.636 12.7C631.636 13.1533 631.73 13.54 631.916 13.86C632.103 14.1667 632.35 14.4267 632.656 14.64C632.963 14.84 633.31 15.0067 633.696 15.14C634.096 15.26 634.503 15.3667 634.916 15.46C635.93 15.6733 636.716 15.8867 637.276 16.1C637.85 16.3133 638.136 16.6333 638.136 17.06C638.136 17.3133 638.076 17.5267 637.956 17.7C637.836 17.86 637.683 17.9933 637.496 18.1C637.323 18.1933 637.123 18.2667 636.896 18.32C636.683 18.36 636.476 18.38 636.276 18.38C635.996 18.38 635.723 18.3467 635.456 18.28C635.203 18.2133 634.976 18.1133 634.776 17.98C634.576 17.8333 634.41 17.6533 634.276 17.44C634.156 17.2133 634.096 16.9467 634.096 16.64ZM646.239 9.66V6.56H643.399V9.66H641.679V11.56H643.399V17.66C643.399 18.18 643.485 18.6 643.659 18.92C643.832 19.24 644.065 19.4867 644.359 19.66C644.665 19.8333 645.012 19.9467 645.399 20C645.799 20.0667 646.219 20.1 646.659 20.1C646.939 20.1 647.225 20.0933 647.519 20.08C647.812 20.0667 648.079 20.04 648.319 20V17.8C648.185 17.8267 648.045 17.8467 647.899 17.86C647.752 17.8733 647.599 17.88 647.439 17.88C646.959 17.88 646.639 17.8 646.479 17.64C646.319 17.48 646.239 17.16 646.239 16.68V11.56H648.319V9.66H646.239ZM656.63 13.72H652.01C652.023 13.52 652.063 13.2933 652.13 13.04C652.21 12.7867 652.337 12.5467 652.51 12.32C652.697 12.0933 652.937 11.9067 653.23 11.76C653.537 11.6 653.917 11.52 654.37 11.52C655.063 11.52 655.577 11.7067 655.91 12.08C656.257 12.4533 656.497 13 656.63 13.72ZM652.01 15.52H659.47C659.523 14.72 659.457 13.9533 659.27 13.22C659.083 12.4867 658.777 11.8333 658.35 11.26C657.937 10.6867 657.403 10.2333 656.75 9.9C656.097 9.55333 655.33 9.38 654.45 9.38C653.663 9.38 652.943 9.52 652.29 9.8C651.65 10.08 651.097 10.4667 650.63 10.96C650.163 11.44 649.803 12.0133 649.55 12.68C649.297 13.3467 649.17 14.0667 649.17 14.84C649.17 15.64 649.29 16.3733 649.53 17.04C649.783 17.7067 650.137 18.28 650.59 18.76C651.043 19.24 651.597 19.6133 652.25 19.88C652.903 20.1333 653.637 20.26 654.45 20.26C655.623 20.26 656.623 19.9933 657.45 19.46C658.277 18.9267 658.89 18.04 659.29 16.8H656.79C656.697 17.12 656.443 17.4267 656.03 17.72C655.617 18 655.123 18.14 654.55 18.14C653.75 18.14 653.137 17.9333 652.71 17.52C652.283 17.1067 652.05 16.44 652.01 15.52ZM663.354 16.64H660.654C660.681 17.3333 660.834 17.9133 661.114 18.38C661.408 18.8333 661.774 19.2 662.214 19.48C662.668 19.76 663.181 19.96 663.754 20.08C664.328 20.2 664.914 20.26 665.514 20.26C666.101 20.26 666.674 20.2 667.234 20.08C667.808 19.9733 668.314 19.78 668.754 19.5C669.194 19.22 669.548 18.8533 669.814 18.4C670.094 17.9333 670.234 17.36 670.234 16.68C670.234 16.2 670.141 15.8 669.954 15.48C669.768 15.1467 669.521 14.8733 669.214 14.66C668.908 14.4333 668.554 14.2533 668.154 14.12C667.768 13.9867 667.368 13.8733 666.954 13.78C666.554 13.6867 666.161 13.6 665.774 13.52C665.388 13.44 665.041 13.3533 664.734 13.26C664.441 13.1533 664.201 13.02 664.014 12.86C663.828 12.7 663.734 12.4933 663.734 12.24C663.734 12.0267 663.788 11.86 663.894 11.74C664.001 11.6067 664.128 11.5067 664.274 11.44C664.434 11.3733 664.608 11.3333 664.794 11.32C664.981 11.2933 665.154 11.28 665.314 11.28C665.821 11.28 666.261 11.38 666.634 11.58C667.008 11.7667 667.214 12.1333 667.254 12.68H669.954C669.901 12.04 669.734 11.5133 669.454 11.1C669.188 10.6733 668.848 10.3333 668.434 10.08C668.021 9.82667 667.548 9.64667 667.014 9.54C666.494 9.43333 665.954 9.38 665.394 9.38C664.834 9.38 664.288 9.43333 663.754 9.54C663.221 9.63333 662.741 9.80667 662.314 10.06C661.888 10.3 661.541 10.6333 661.274 11.06C661.021 11.4867 660.894 12.0333 660.894 12.7C660.894 13.1533 660.988 13.54 661.174 13.86C661.361 14.1667 661.608 14.4267 661.914 14.64C662.221 14.84 662.568 15.0067 662.954 15.14C663.354 15.26 663.761 15.3667 664.174 15.46C665.188 15.6733 665.974 15.8867 666.534 16.1C667.108 16.3133 667.394 16.6333 667.394 17.06C667.394 17.3133 667.334 17.5267 667.214 17.7C667.094 17.86 666.941 17.9933 666.754 18.1C666.581 18.1933 666.381 18.2667 666.154 18.32C665.941 18.36 665.734 18.38 665.534 18.38C665.254 18.38 664.981 18.3467 664.714 18.28C664.461 18.2133 664.234 18.1133 664.034 17.98C663.834 17.8333 663.668 17.6533 663.534 17.44C663.414 17.2133 663.354 16.9467 663.354 16.64Z" fill="#3D8AF4"/>
<defs>
<filter id="filter0_d" x="0" y="4" width="763" height="295" filterUnits="userSpaceOnUse" color-interpolation-filters="sRGB">
<feFlood flood-opacity="0" result="BackgroundImageFix"/>
<feColorMatrix in="SourceAlpha" type="matrix" values="0 0 0 0 0 0 0 0 0 0 0 0 0 0 0 0 0 0 127 0"/>
<feOffset dy="4"/>
<feGaussianBlur stdDeviation="5"/>
<feColorMatrix type="matrix" values="0 0 0 0 0.443137 0 0 0 0 0.643137 0 0 0 0 0.729412 0 0 0 0.25 0"/>
<feBlend mode="normal" in2="BackgroundImageFix" result="effect1_dropShadow"/>
<feBlend mode="normal" in="SourceGraphic" in2="effect1_dropShadow" result="shape"/>
</filter>
</defs>
</svg>
