<svg width="763" height="449" viewBox="0 0 763 449" fill="none" xmlns="http://www.w3.org/2000/svg">
<g filter="url(#filter0_d)">
<rect x="10" y="10" width="743" height="425" rx="32" fill="#BFCCD3"/>
<rect x="12" y="12" width="739" height="421" rx="30" stroke="#3D8AF4" stroke-width="4"/>
</g>
<rect x="240" width="282" height="23" fill="#BFCCD3"/>
<path d="M282.32 12.82C282.32 14.5667 282.227 15.96 282.04 17H270.6L270.48 16.36C270.987 16.0133 271.553 15.7 272.18 15.42V5.06L270.64 4.82L270.66 3.76H277.38L277.5 4.4C277.02 4.74667 276.453 5.06 275.8 5.34V15.14L279.36 14.8L280.26 11.9L282.32 12.08V12.82ZM293.112 15.86L290.472 17.34C290.099 17.3267 289.726 17.1867 289.352 16.92C288.979 16.6533 288.672 16.3067 288.432 15.88L286.312 17.26L285.632 17.32C284.766 17.32 284.039 17.0667 283.452 16.56C282.879 16.0533 282.592 15.44 282.592 14.72C282.592 13.72 283.132 12.9333 284.212 12.36L288.012 12.28V10.64C288.012 9.61333 287.706 8.94 287.092 8.62C286.666 8.64667 286.292 8.72667 285.972 8.86L285.492 11.06L283.532 11.1C283.279 10.38 283.152 9.62 283.152 8.82L283.192 8.08C283.992 7.77333 284.919 7.51333 285.972 7.3C287.026 7.07333 287.839 6.96 288.412 6.96C289.599 6.96 290.539 7.44667 291.232 8.42C291.379 8.67333 291.459 9.18 291.472 9.94V14.52C291.472 14.8667 291.639 15.04 291.972 15.04L292.512 15.02L292.992 14.98L293.112 15.86ZM286.012 14.5C286.012 14.8467 286.126 15.1333 286.352 15.36C286.752 15.3333 287.306 15.2067 288.012 14.98V13.5C286.679 13.4733 286.012 13.8067 286.012 14.5ZM297.042 9.38C297.042 9.62 297.128 9.84 297.302 10.04C297.475 10.2267 298.095 10.6 299.162 11.16C300.228 11.7067 300.948 12.22 301.322 12.7C301.695 13.1667 301.882 13.7 301.882 14.3C301.882 15.2067 301.508 15.9533 300.762 16.54C300.015 17.1133 299.022 17.4 297.782 17.4C296.382 17.4 294.988 17.04 293.602 16.32L294.742 13.7C295.902 14.5933 297.102 15.26 298.342 15.7C298.582 15.4867 298.702 15.24 298.702 14.96C298.702 14.7067 298.602 14.48 298.402 14.28C298.215 14.08 297.602 13.72 296.562 13.2C295.535 12.6667 294.835 12.1733 294.462 11.72C294.102 11.2533 293.922 10.7267 293.922 10.14C293.922 9.20667 294.328 8.45333 295.142 7.88C295.968 7.29333 297.035 7 298.342 7C299.555 7 300.588 7.22 301.442 7.66L301.482 8.36C301.482 9.05333 301.368 9.75333 301.142 10.46H299.382L298.762 8.64L297.842 8.54C297.308 8.7 297.042 8.98 297.042 9.38ZM313.854 17.26L312.974 17.32C311.534 17.32 310.334 16.8467 309.374 15.9C308.428 14.94 307.954 13.7133 307.954 12.22C307.954 10.7133 308.434 9.46667 309.394 8.48C310.354 7.49333 311.561 7 313.014 7C313.948 7 314.781 7.22667 315.514 7.68C316.248 8.12 316.741 8.76 316.994 9.6L314.254 11.14C313.681 10.0067 313.014 9.23333 312.254 8.82C311.614 9.51333 311.294 10.4733 311.294 11.7C311.294 12.7 311.534 13.5133 312.014 14.14C312.508 14.7667 313.201 15.08 314.094 15.08C314.721 15.08 315.448 14.88 316.274 14.48L316.754 15.58L313.854 17.26ZM317.212 12.14C317.212 10.6333 317.686 9.4 318.632 8.44C319.579 7.48 320.779 7 322.232 7C323.686 7 324.879 7.48667 325.812 8.46C326.746 9.43333 327.212 10.6933 327.212 12.24C327.212 13.7733 326.752 15.02 325.832 15.98C324.926 16.9267 323.752 17.4 322.312 17.4C320.846 17.4 319.626 16.9067 318.652 15.92C317.692 14.92 317.212 13.66 317.212 12.14ZM322.972 15.5C323.466 15.1267 323.712 14.1133 323.712 12.46C323.712 10.1 323.172 8.92 322.092 8.92C321.759 8.92 321.499 8.99333 321.312 9.14C320.912 9.67333 320.712 10.6867 320.712 12.18C320.712 13.1933 320.852 14.02 321.132 14.66C321.412 15.2867 321.839 15.6 322.412 15.6C322.599 15.6 322.786 15.5667 322.972 15.5ZM338.839 15.32C339.426 15.52 339.906 15.7533 340.279 16.02L340.219 17H335.379V11.46C335.379 10.1133 334.952 9.44 334.099 9.44C333.712 9.44 333.279 9.56 332.799 9.8V15.38C333.279 15.5933 333.666 15.8067 333.959 16.02L333.919 17H327.899L327.859 16.3C328.272 16.06 328.766 15.84 329.339 15.64V9.02L327.859 8.74L327.759 7.78C328.946 7.32667 330.266 7.08 331.719 7.04L332.799 8.12V8.76C333.879 7.94667 334.886 7.39333 335.819 7.1C337.072 7.14 337.999 7.62 338.599 8.54C338.746 8.80667 338.826 9.41333 338.839 10.36V15.32ZM352.014 15.86L349.354 17.34C348.954 17.3267 348.554 17.1667 348.154 16.86C347.754 16.5533 347.441 16.1467 347.214 15.64L344.934 17.34C343.641 17.3533 342.574 16.8867 341.734 15.94C340.894 14.98 340.474 13.7733 340.474 12.32C340.474 10.8 340.967 9.54667 341.954 8.56C342.941 7.56 344.221 7.06 345.794 7.06L346.914 7.16V4.26L345.434 4L345.334 3C346.454 2.6 347.774 2.35333 349.294 2.26L350.374 3.26V14.5C350.374 14.86 350.541 15.04 350.874 15.04L351.394 15.02L351.894 14.98L352.014 15.86ZM344.074 11.96C344.074 12.7733 344.247 13.4533 344.594 14C344.954 14.5333 345.441 14.8 346.054 14.8C346.347 14.8 346.634 14.7467 346.914 14.64V9.22C346.381 8.98 345.807 8.86667 345.194 8.88C344.447 9.6 344.074 10.6267 344.074 11.96ZM364.69 15.86L362.03 17.34C361.643 17.3133 361.25 17.1467 360.85 16.84C360.463 16.5333 360.15 16.1333 359.91 15.64C358.843 16.4533 357.77 17.02 356.69 17.34C356.01 17.34 355.363 17.1267 354.75 16.7C354.15 16.2733 353.81 15.74 353.73 15.1L353.67 13.96V9.02L352.19 8.74L352.09 7.78C353.277 7.32667 354.597 7.08 356.05 7.04L357.13 8V13.28C357.13 14.3867 357.55 14.94 358.39 14.94C358.803 14.94 359.203 14.8533 359.59 14.68V8.96L358.47 8.68L358.37 7.72C359.437 7.29333 360.637 7.06667 361.97 7.04L363.05 8V14.52C363.05 14.8667 363.217 15.04 363.55 15.04L364.07 15.02L364.57 14.98L364.69 15.86ZM370.886 17.26L370.006 17.32C368.566 17.32 367.366 16.8467 366.406 15.9C365.459 14.94 364.986 13.7133 364.986 12.22C364.986 10.7133 365.466 9.46667 366.426 8.48C367.386 7.49333 368.592 7 370.046 7C370.979 7 371.812 7.22667 372.546 7.68C373.279 8.12 373.772 8.76 374.026 9.6L371.286 11.14C370.712 10.0067 370.046 9.23333 369.286 8.82C368.646 9.51333 368.326 10.4733 368.326 11.7C368.326 12.7 368.566 13.5133 369.046 14.14C369.539 14.7667 370.232 15.08 371.126 15.08C371.752 15.08 372.479 14.88 373.306 14.48L373.786 15.58L370.886 17.26ZM379.803 14.78C380.27 14.78 380.803 14.72 381.403 14.6L381.543 15.64L378.243 17.34C377.577 17.3667 376.963 17.16 376.403 16.72C375.857 16.2667 375.583 15.74 375.583 15.14V9.78H374.123L374.063 8.7C374.503 8.32667 375.07 7.94 375.763 7.54L376.863 4.86H378.443L378.943 7.54H381.703L381.723 8.54L380.723 9.8H379.043V13.92C379.043 14.4933 379.297 14.78 379.803 14.78ZM393.19 15.86L390.55 17.34C390.177 17.3267 389.804 17.1867 389.43 16.92C389.057 16.6533 388.75 16.3067 388.51 15.88L386.39 17.26L385.71 17.32C384.844 17.32 384.117 17.0667 383.53 16.56C382.957 16.0533 382.67 15.44 382.67 14.72C382.67 13.72 383.21 12.9333 384.29 12.36L388.09 12.28V10.64C388.09 9.61333 387.784 8.94 387.17 8.62C386.744 8.64667 386.37 8.72667 386.05 8.86L385.57 11.06L383.61 11.1C383.357 10.38 383.23 9.62 383.23 8.82L383.27 8.08C384.07 7.77333 384.997 7.51333 386.05 7.3C387.104 7.07333 387.917 6.96 388.49 6.96C389.677 6.96 390.617 7.44667 391.31 8.42C391.457 8.67333 391.537 9.18 391.55 9.94V14.52C391.55 14.8667 391.717 15.04 392.05 15.04L392.59 15.02L393.07 14.98L393.19 15.86ZM386.09 14.5C386.09 14.8467 386.204 15.1333 386.43 15.36C386.83 15.3333 387.384 15.2067 388.09 14.98V13.5C386.757 13.4733 386.09 13.8067 386.09 14.5ZM397.12 9.38C397.12 9.62 397.207 9.84 397.38 10.04C397.553 10.2267 398.173 10.6 399.24 11.16C400.307 11.7067 401.027 12.22 401.4 12.7C401.773 13.1667 401.96 13.7 401.96 14.3C401.96 15.2067 401.587 15.9533 400.84 16.54C400.093 17.1133 399.1 17.4 397.86 17.4C396.46 17.4 395.067 17.04 393.68 16.32L394.82 13.7C395.98 14.5933 397.18 15.26 398.42 15.7C398.66 15.4867 398.78 15.24 398.78 14.96C398.78 14.7067 398.68 14.48 398.48 14.28C398.293 14.08 397.68 13.72 396.64 13.2C395.613 12.6667 394.913 12.1733 394.54 11.72C394.18 11.2533 394 10.7267 394 10.14C394 9.20667 394.407 8.45333 395.22 7.88C396.047 7.29333 397.113 7 398.42 7C399.633 7 400.667 7.22 401.52 7.66L401.56 8.36C401.56 9.05333 401.447 9.75333 401.22 10.46H399.46L398.84 8.64L397.92 8.54C397.387 8.7 397.12 8.98 397.12 9.38ZM411.593 9.38C411.593 9.62 411.679 9.84 411.853 10.04C412.026 10.2267 412.646 10.6 413.713 11.16C414.779 11.7067 415.499 12.22 415.873 12.7C416.246 13.1667 416.433 13.7 416.433 14.3C416.433 15.2067 416.059 15.9533 415.313 16.54C414.566 17.1133 413.573 17.4 412.333 17.4C410.933 17.4 409.539 17.04 408.153 16.32L409.293 13.7C410.453 14.5933 411.653 15.26 412.893 15.7C413.133 15.4867 413.253 15.24 413.253 14.96C413.253 14.7067 413.153 14.48 412.952 14.28C412.766 14.08 412.153 13.72 411.113 13.2C410.086 12.6667 409.386 12.1733 409.013 11.72C408.653 11.2533 408.472 10.7267 408.472 10.14C408.472 9.20667 408.879 8.45333 409.693 7.88C410.519 7.29333 411.586 7 412.893 7C414.106 7 415.139 7.22 415.993 7.66L416.033 8.36C416.033 9.05333 415.919 9.75333 415.693 10.46H413.933L413.313 8.64L412.393 8.54C411.859 8.7 411.593 8.98 411.593 9.38ZM420.632 5.98C419.712 5.56667 418.919 4.96 418.252 4.16C418.786 3.13333 419.446 2.33333 420.232 1.76C421.126 2.22667 421.879 2.90667 422.492 3.8C422.052 4.68 421.432 5.40667 420.632 5.98ZM422.172 15.32C422.759 15.52 423.239 15.7533 423.612 16.02L423.572 17H417.232L417.192 16.3C417.659 16.0333 418.166 15.8067 418.712 15.62V9.02L417.232 8.74L417.132 7.78C418.319 7.32667 419.639 7.08 421.092 7.04L422.172 8V15.32ZM434.792 15.86L432.152 17.34C431.779 17.3267 431.405 17.1867 431.032 16.92C430.659 16.6533 430.352 16.3067 430.112 15.88L427.992 17.26L427.312 17.32C426.445 17.32 425.719 17.0667 425.132 16.56C424.559 16.0533 424.272 15.44 424.272 14.72C424.272 13.72 424.812 12.9333 425.892 12.36L429.692 12.28V10.64C429.692 9.61333 429.385 8.94 428.772 8.62C428.345 8.64667 427.972 8.72667 427.652 8.86L427.172 11.06L425.212 11.1C424.959 10.38 424.832 9.62 424.832 8.82L424.872 8.08C425.672 7.77333 426.599 7.51333 427.652 7.3C428.705 7.07333 429.519 6.96 430.092 6.96C431.279 6.96 432.219 7.44667 432.912 8.42C433.059 8.67333 433.139 9.18 433.152 9.94V14.52C433.152 14.8667 433.319 15.04 433.652 15.04L434.192 15.02L434.672 14.98L434.792 15.86ZM427.692 14.5C427.692 14.8467 427.805 15.1333 428.032 15.36C428.432 15.3333 428.985 15.2067 429.692 14.98V13.5C428.359 13.4733 427.692 13.8067 427.692 14.5ZM451.711 15.28C452.351 15.5067 452.864 15.7533 453.251 16.02L453.191 17H448.251V11.46C448.251 10.1133 447.824 9.44 446.971 9.44C446.597 9.44 446.184 9.54667 445.731 9.76L445.751 15.36C446.164 15.5333 446.564 15.7533 446.951 16.02L446.891 17H442.291V11.46C442.291 10.1133 441.864 9.44 441.011 9.44C440.677 9.44 440.277 9.54 439.811 9.74V15.38C440.291 15.5933 440.677 15.8067 440.971 16.02L440.931 17H434.911L434.871 16.3C435.284 16.06 435.777 15.84 436.351 15.64V9.02L434.871 8.74L434.771 7.78C435.957 7.32667 437.277 7.08 438.731 7.04L439.811 8.12V8.68C440.864 7.90667 441.837 7.38 442.731 7.1C443.984 7.14 444.911 7.62 445.511 8.54L445.631 8.8C446.711 7.97333 447.731 7.40667 448.691 7.1C449.944 7.14 450.871 7.62 451.471 8.54C451.617 8.80667 451.697 9.41333 451.711 10.36V15.28ZM461.743 12.42L456.703 12.38C456.796 13.2467 457.103 13.9133 457.623 14.38C458.156 14.8467 458.823 15.08 459.623 15.08C460.329 15.08 461.176 14.8267 462.163 14.32L462.663 15.46L459.523 17.24L458.603 17.3C457.123 17.3 455.889 16.8333 454.903 15.9C453.929 14.9667 453.443 13.7733 453.443 12.32C453.443 10.84 453.936 9.58667 454.923 8.56C455.923 7.52 457.129 7 458.543 7C459.836 7 460.889 7.39333 461.703 8.18C462.516 8.95333 462.916 9.98 462.903 11.26L461.743 12.42ZM458.003 8.66C457.363 9.06 456.956 9.79333 456.783 10.86L459.783 10.68C459.703 10.1333 459.496 9.66667 459.163 9.28C458.843 8.88 458.456 8.67333 458.003 8.66ZM467.003 9.38C467.003 9.62 467.089 9.84 467.263 10.04C467.436 10.2267 468.056 10.6 469.123 11.16C470.189 11.7067 470.909 12.22 471.283 12.7C471.656 13.1667 471.843 13.7 471.843 14.3C471.843 15.2067 471.469 15.9533 470.723 16.54C469.976 17.1133 468.983 17.4 467.743 17.4C466.343 17.4 464.949 17.04 463.563 16.32L464.703 13.7C465.863 14.5933 467.063 15.26 468.303 15.7C468.543 15.4867 468.663 15.24 468.663 14.96C468.663 14.7067 468.563 14.48 468.363 14.28C468.176 14.08 467.563 13.72 466.523 13.2C465.496 12.6667 464.796 12.1733 464.423 11.72C464.063 11.2533 463.883 10.7267 463.883 10.14C463.883 9.20667 464.289 8.45333 465.103 7.88C465.929 7.29333 466.996 7 468.303 7C469.516 7 470.549 7.22 471.403 7.66L471.443 8.36C471.443 9.05333 471.329 9.75333 471.103 10.46H469.343L468.723 8.64L467.803 8.54C467.269 8.7 467.003 8.98 467.003 9.38ZM483.308 15.86L480.668 17.34C480.294 17.3267 479.921 17.1867 479.548 16.92C479.174 16.6533 478.868 16.3067 478.628 15.88L476.508 17.26L475.828 17.32C474.961 17.32 474.234 17.0667 473.648 16.56C473.074 16.0533 472.788 15.44 472.788 14.72C472.788 13.72 473.328 12.9333 474.408 12.36L478.208 12.28V10.64C478.208 9.61333 477.901 8.94 477.288 8.62C476.861 8.64667 476.488 8.72667 476.168 8.86L475.688 11.06L473.728 11.1C473.474 10.38 473.348 9.62 473.348 8.82L473.388 8.08C474.188 7.77333 475.114 7.51333 476.168 7.3C477.221 7.07333 478.034 6.96 478.608 6.96C479.794 6.96 480.734 7.44667 481.428 8.42C481.574 8.67333 481.654 9.18 481.668 9.94V14.52C481.668 14.8667 481.834 15.04 482.168 15.04L482.708 15.02L483.188 14.98L483.308 15.86ZM476.208 14.5C476.208 14.8467 476.321 15.1333 476.548 15.36C476.948 15.3333 477.501 15.2067 478.208 14.98V13.5C476.874 13.4733 476.208 13.8067 476.208 14.5ZM487.237 9.38C487.237 9.62 487.324 9.84 487.497 10.04C487.67 10.2267 488.29 10.6 489.357 11.16C490.424 11.7067 491.144 12.22 491.517 12.7C491.89 13.1667 492.077 13.7 492.077 14.3C492.077 15.2067 491.704 15.9533 490.957 16.54C490.21 17.1133 489.217 17.4 487.977 17.4C486.577 17.4 485.184 17.04 483.797 16.32L484.937 13.7C486.097 14.5933 487.297 15.26 488.537 15.7C488.777 15.4867 488.897 15.24 488.897 14.96C488.897 14.7067 488.797 14.48 488.597 14.28C488.41 14.08 487.797 13.72 486.757 13.2C485.73 12.6667 485.03 12.1733 484.657 11.72C484.297 11.2533 484.117 10.7267 484.117 10.14C484.117 9.20667 484.524 8.45333 485.337 7.88C486.164 7.29333 487.23 7 488.537 7C489.75 7 490.784 7.22 491.637 7.66L491.677 8.36C491.677 9.05333 491.564 9.75333 491.337 10.46H489.577L488.957 8.64L488.037 8.54C487.504 8.7 487.237 8.98 487.237 9.38Z" fill="#3D8AF4"/>
<defs>
<filter id="filter0_d" x="0" y="4" width="763" height="445" filterUnits="userSpaceOnUse" color-interpolation-filters="sRGB">
<feFlood flood-opacity="0" result="BackgroundImageFix"/>
<feColorMatrix in="SourceAlpha" type="matrix" values="0 0 0 0 0 0 0 0 0 0 0 0 0 0 0 0 0 0 127 0"/>
<feOffset dy="4"/>
<feGaussianBlur stdDeviation="5"/>
<feColorMatrix type="matrix" values="0 0 0 0 0.443137 0 0 0 0 0.643137 0 0 0 0 0.729412 0 0 0 0.25 0"/>
<feBlend mode="normal" in2="BackgroundImageFix" result="effect1_dropShadow"/>
<feBlend mode="normal" in="SourceGraphic" in2="effect1_dropShadow" result="shape"/>
</filter>
</defs>
</svg>
