<svg width="763" height="299" viewBox="0 0 763 299" fill="none" xmlns="http://www.w3.org/2000/svg">
<g filter="url(#filter0_d)">
<rect x="10" y="10" width="743" height="275" rx="32" fill="#BFCCD3"/>
<rect x="12" y="12" width="739" height="271" rx="30" stroke="#71A4BA" stroke-width="4"/>
</g>
<rect x="514" width="192" height="23" fill="#BFCCD3"/>
<path d="M555.82 3.36C557.767 3.36 559.367 4.03333 560.62 5.38C561.887 6.71333 562.52 8.44 562.52 10.56C562.52 12.6267 561.913 14.2867 560.7 15.54C559.487 16.78 557.907 17.4 555.96 17.4C553.987 17.4 552.367 16.7667 551.1 15.5C549.847 14.22 549.22 12.5467 549.22 10.48C549.22 8.38667 549.84 6.68 551.08 5.36C552.32 4.02667 553.9 3.36 555.82 3.36ZM554.32 5.56C553.933 5.90667 553.62 6.48667 553.38 7.3C553.14 8.1 553.02 9.02667 553.02 10.08C553.02 11.7067 553.307 13.0133 553.88 14C554.467 14.9733 555.28 15.46 556.32 15.46C556.653 15.46 556.967 15.4067 557.26 15.3C557.7 14.8867 558.053 14.26 558.32 13.42C558.587 12.58 558.72 11.6467 558.72 10.62C558.72 9.04667 558.433 7.76667 557.86 6.78C557.287 5.79333 556.52 5.3 555.56 5.3C555.16 5.3 554.747 5.38667 554.32 5.56ZM566 6C565.013 5.53333 564.22 4.92 563.62 4.16C564.14 3.16 564.8 2.36 565.6 1.76C566.533 2.26667 567.287 2.94667 567.86 3.8C567.433 4.66667 566.813 5.4 566 6ZM566.48 7.04L567.56 8V17.9C567.56 18.7933 567.093 19.56 566.16 20.2C565.24 20.8533 564.013 21.2467 562.48 21.38L562.14 20.54C563.393 20.1267 564.047 19.3733 564.1 18.28V9.02L562.6 8.74L562.5 7.78C563.687 7.32667 565.007 7.08 566.46 7.04H566.48ZM572.542 5.98C571.622 5.56667 570.829 4.96 570.162 4.16C570.696 3.13333 571.356 2.33333 572.142 1.76C573.036 2.22667 573.789 2.90667 574.402 3.8C573.962 4.68 573.342 5.40667 572.542 5.98ZM574.082 15.32C574.669 15.52 575.149 15.7533 575.522 16.02L575.482 17H569.142L569.102 16.3C569.569 16.0333 570.076 15.8067 570.622 15.62V9.02L569.142 8.74L569.042 7.78C570.229 7.32667 571.549 7.08 573.002 7.04L574.082 8V15.32ZM581.577 14.78C582.044 14.78 582.577 14.72 583.177 14.6L583.317 15.64L580.017 17.34C579.35 17.3667 578.737 17.16 578.177 16.72C577.63 16.2667 577.357 15.74 577.357 15.14V9.78H575.897L575.837 8.7C576.277 8.32667 576.844 7.94 577.537 7.54L578.637 4.86H580.217L580.717 7.54H583.477L583.497 8.54L582.497 9.8H580.817V13.92C580.817 14.4933 581.07 14.78 581.577 14.78ZM584.064 12.14C584.064 10.6333 584.537 9.4 585.484 8.44C586.43 7.48 587.63 7 589.084 7C590.537 7 591.73 7.48667 592.664 8.46C593.597 9.43333 594.064 10.6933 594.064 12.24C594.064 13.7733 593.604 15.02 592.684 15.98C591.777 16.9267 590.604 17.4 589.164 17.4C587.697 17.4 586.477 16.9067 585.504 15.92C584.544 14.92 584.064 13.66 584.064 12.14ZM589.824 15.5C590.317 15.1267 590.564 14.1133 590.564 12.46C590.564 10.1 590.024 8.92 588.944 8.92C588.61 8.92 588.35 8.99333 588.164 9.14C587.764 9.67333 587.564 10.6867 587.564 12.18C587.564 13.1933 587.704 14.02 587.984 14.66C588.264 15.2867 588.69 15.6 589.264 15.6C589.45 15.6 589.637 15.5667 589.824 15.5ZM598.171 9.38C598.171 9.62 598.257 9.84 598.431 10.04C598.604 10.2267 599.224 10.6 600.291 11.16C601.357 11.7067 602.077 12.22 602.451 12.7C602.824 13.1667 603.011 13.7 603.011 14.3C603.011 15.2067 602.637 15.9533 601.891 16.54C601.144 17.1133 600.151 17.4 598.911 17.4C597.511 17.4 596.117 17.04 594.731 16.32L595.871 13.7C597.031 14.5933 598.231 15.26 599.471 15.7C599.711 15.4867 599.831 15.24 599.831 14.96C599.831 14.7067 599.731 14.48 599.531 14.28C599.344 14.08 598.731 13.72 597.691 13.2C596.664 12.6667 595.964 12.1733 595.591 11.72C595.231 11.2533 595.051 10.7267 595.051 10.14C595.051 9.20667 595.457 8.45333 596.271 7.88C597.097 7.29333 598.164 7 599.471 7C600.684 7 601.717 7.22 602.571 7.66L602.611 8.36C602.611 9.05333 602.497 9.75333 602.271 10.46H600.511L599.891 8.64L598.971 8.54C598.437 8.7 598.171 8.98 598.171 9.38ZM614.643 14.78C615.11 14.78 615.643 14.72 616.243 14.6L616.383 15.64L613.083 17.34C612.417 17.3667 611.803 17.16 611.243 16.72C610.697 16.2667 610.423 15.74 610.423 15.14V9.78H608.963L608.903 8.7C609.343 8.32667 609.91 7.94 610.603 7.54L611.703 4.86H613.283L613.783 7.54H616.543L616.563 8.54L615.563 9.8H613.883V13.92C613.883 14.4933 614.137 14.78 614.643 14.78ZM622.17 10.44V15.18C623.063 15.3933 623.79 15.6733 624.35 16.02L624.31 17H617.27L617.23 16.3C617.643 16.06 618.137 15.84 618.71 15.64V9.02L617.23 8.74L617.13 7.78C618.317 7.32667 619.637 7.08 621.09 7.04L622.17 8.54V8.9L623.75 7.12C623.95 7.05333 624.203 7.02 624.51 7.02C625.043 7.02 625.53 7.15333 625.97 7.42C626.423 7.68667 626.737 8.06 626.91 8.54L624.61 11.44C623.717 10.6933 623.003 10.2867 622.47 10.22L622.17 10.44ZM630.472 5.98C629.552 5.56667 628.759 4.96 628.092 4.16C628.625 3.13333 629.285 2.33333 630.072 1.76C630.965 2.22667 631.719 2.90667 632.332 3.8C631.892 4.68 631.272 5.40667 630.472 5.98ZM632.012 15.32C632.599 15.52 633.079 15.7533 633.452 16.02L633.412 17H627.072L627.032 16.3C627.499 16.0333 628.005 15.8067 628.552 15.62V9.02L627.072 8.74L626.972 7.78C628.159 7.32667 629.479 7.08 630.932 7.04L632.012 8V15.32ZM637.507 9.38C637.507 9.62 637.593 9.84 637.767 10.04C637.94 10.2267 638.56 10.6 639.627 11.16C640.693 11.7067 641.413 12.22 641.787 12.7C642.16 13.1667 642.347 13.7 642.347 14.3C642.347 15.2067 641.973 15.9533 641.227 16.54C640.48 17.1133 639.487 17.4 638.247 17.4C636.847 17.4 635.453 17.04 634.067 16.32L635.207 13.7C636.367 14.5933 637.567 15.26 638.807 15.7C639.047 15.4867 639.167 15.24 639.167 14.96C639.167 14.7067 639.067 14.48 638.867 14.28C638.68 14.08 638.067 13.72 637.027 13.2C636 12.6667 635.3 12.1733 634.927 11.72C634.567 11.2533 634.387 10.7267 634.387 10.14C634.387 9.20667 634.793 8.45333 635.607 7.88C636.433 7.29333 637.5 7 638.807 7C640.02 7 641.053 7.22 641.907 7.66L641.947 8.36C641.947 9.05333 641.833 9.75333 641.607 10.46H639.847L639.227 8.64L638.307 8.54C637.773 8.7 637.507 8.98 637.507 9.38ZM648.686 14.78C649.153 14.78 649.686 14.72 650.286 14.6L650.426 15.64L647.126 17.34C646.46 17.3667 645.846 17.16 645.286 16.72C644.74 16.2667 644.466 15.74 644.466 15.14V9.78H643.006L642.946 8.7C643.386 8.32667 643.953 7.94 644.646 7.54L645.746 4.86H647.326L647.826 7.54H650.586L650.606 8.54L649.606 9.8H647.926V13.92C647.926 14.4933 648.18 14.78 648.686 14.78ZM659.473 12.42L654.433 12.38C654.526 13.2467 654.833 13.9133 655.353 14.38C655.886 14.8467 656.553 15.08 657.353 15.08C658.06 15.08 658.906 14.8267 659.893 14.32L660.393 15.46L657.253 17.24L656.333 17.3C654.853 17.3 653.62 16.8333 652.633 15.9C651.66 14.9667 651.173 13.7733 651.173 12.32C651.173 10.84 651.666 9.58667 652.653 8.56C653.653 7.52 654.86 7 656.273 7C657.566 7 658.62 7.39333 659.433 8.18C660.246 8.95333 660.646 9.98 660.633 11.26L659.473 12.42ZM655.733 8.66C655.093 9.06 654.686 9.79333 654.513 10.86L657.513 10.68C657.433 10.1333 657.226 9.66667 656.893 9.28C656.573 8.88 656.186 8.67333 655.733 8.66ZM664.733 9.38C664.733 9.62 664.82 9.84 664.993 10.04C665.166 10.2267 665.786 10.6 666.853 11.16C667.92 11.7067 668.64 12.22 669.013 12.7C669.386 13.1667 669.573 13.7 669.573 14.3C669.573 15.2067 669.2 15.9533 668.453 16.54C667.706 17.1133 666.713 17.4 665.473 17.4C664.073 17.4 662.68 17.04 661.293 16.32L662.433 13.7C663.593 14.5933 664.793 15.26 666.033 15.7C666.273 15.4867 666.393 15.24 666.393 14.96C666.393 14.7067 666.293 14.48 666.093 14.28C665.906 14.08 665.293 13.72 664.253 13.2C663.226 12.6667 662.526 12.1733 662.153 11.72C661.793 11.2533 661.613 10.7267 661.613 10.14C661.613 9.20667 662.02 8.45333 662.833 7.88C663.66 7.29333 664.726 7 666.033 7C667.246 7 668.28 7.22 669.133 7.66L669.173 8.36C669.173 9.05333 669.06 9.75333 668.833 10.46H667.073L666.453 8.64L665.533 8.54C665 8.7 664.733 8.98 664.733 9.38Z" fill="#71A4BA"/>
<defs>
<filter id="filter0_d" x="0" y="4" width="763" height="295" filterUnits="userSpaceOnUse" color-interpolation-filters="sRGB">
<feFlood flood-opacity="0" result="BackgroundImageFix"/>
<feColorMatrix in="SourceAlpha" type="matrix" values="0 0 0 0 0 0 0 0 0 0 0 0 0 0 0 0 0 0 127 0"/>
<feOffset dy="4"/>
<feGaussianBlur stdDeviation="5"/>
<feColorMatrix type="matrix" values="0 0 0 0 0.443137 0 0 0 0 0.643137 0 0 0 0 0.729412 0 0 0 0.25 0"/>
<feBlend mode="normal" in2="BackgroundImageFix" result="effect1_dropShadow"/>
<feBlend mode="normal" in="SourceGraphic" in2="effect1_dropShadow" result="shape"/>
</filter>
</defs>
</svg>
