<svg width="763" height="449" viewBox="0 0 763 449" fill="none" xmlns="http://www.w3.org/2000/svg">
<g filter="url(#filter0_d)">
<rect x="10" y="10" width="743" height="425" rx="32" fill="#BFCCD3"/>
<rect x="12" y="12" width="739" height="421" rx="30" stroke="#3D8AF4" stroke-width="4"/>
</g>
<rect x="240" width="282" height="23" fill="#BFCCD3"/>
<path d="M271.38 5.72V20H281.48V17.36H274.52V5.72H271.38ZM282.815 12.84C282.855 12.1733 283.022 11.62 283.315 11.18C283.609 10.74 283.982 10.3867 284.435 10.12C284.889 9.85333 285.395 9.66667 285.955 9.56C286.529 9.44 287.102 9.38 287.675 9.38C288.195 9.38 288.722 9.42 289.255 9.5C289.789 9.56667 290.275 9.70667 290.715 9.92C291.155 10.1333 291.515 10.4333 291.795 10.82C292.075 11.1933 292.215 11.6933 292.215 12.32V17.7C292.215 18.1667 292.242 18.6133 292.295 19.04C292.349 19.4667 292.442 19.7867 292.575 20H289.695C289.642 19.84 289.595 19.68 289.555 19.52C289.529 19.3467 289.509 19.1733 289.495 19C289.042 19.4667 288.509 19.7933 287.895 19.98C287.282 20.1667 286.655 20.26 286.015 20.26C285.522 20.26 285.062 20.2 284.635 20.08C284.209 19.96 283.835 19.7733 283.515 19.52C283.195 19.2667 282.942 18.9467 282.755 18.56C282.582 18.1733 282.495 17.7133 282.495 17.18C282.495 16.5933 282.595 16.1133 282.795 15.74C283.009 15.3533 283.275 15.0467 283.595 14.82C283.929 14.5933 284.302 14.4267 284.715 14.32C285.142 14.2 285.569 14.1067 285.995 14.04C286.422 13.9733 286.842 13.92 287.255 13.88C287.669 13.84 288.035 13.78 288.355 13.7C288.675 13.62 288.929 13.5067 289.115 13.36C289.302 13.2 289.389 12.9733 289.375 12.68C289.375 12.3733 289.322 12.1333 289.215 11.96C289.122 11.7733 288.989 11.6333 288.815 11.54C288.655 11.4333 288.462 11.3667 288.235 11.34C288.022 11.3 287.789 11.28 287.535 11.28C286.975 11.28 286.535 11.4 286.215 11.64C285.895 11.88 285.709 12.28 285.655 12.84H282.815ZM289.375 14.94C289.255 15.0467 289.102 15.1333 288.915 15.2C288.742 15.2533 288.549 15.3 288.335 15.34C288.135 15.38 287.922 15.4133 287.695 15.44C287.469 15.4667 287.242 15.5 287.015 15.54C286.802 15.58 286.589 15.6333 286.375 15.7C286.175 15.7667 285.995 15.86 285.835 15.98C285.689 16.0867 285.569 16.2267 285.475 16.4C285.382 16.5733 285.335 16.7933 285.335 17.06C285.335 17.3133 285.382 17.5267 285.475 17.7C285.569 17.8733 285.695 18.0133 285.855 18.12C286.015 18.2133 286.202 18.28 286.415 18.32C286.629 18.36 286.849 18.38 287.075 18.38C287.635 18.38 288.069 18.2867 288.375 18.1C288.682 17.9133 288.909 17.6933 289.055 17.44C289.202 17.1733 289.289 16.9067 289.315 16.64C289.355 16.3733 289.375 16.16 289.375 16V14.94ZM296.62 16.64H293.92C293.947 17.3333 294.1 17.9133 294.38 18.38C294.673 18.8333 295.04 19.2 295.48 19.48C295.933 19.76 296.447 19.96 297.02 20.08C297.593 20.2 298.18 20.26 298.78 20.26C299.367 20.26 299.94 20.2 300.5 20.08C301.073 19.9733 301.58 19.78 302.02 19.5C302.46 19.22 302.813 18.8533 303.08 18.4C303.36 17.9333 303.5 17.36 303.5 16.68C303.5 16.2 303.407 15.8 303.22 15.48C303.033 15.1467 302.787 14.8733 302.48 14.66C302.173 14.4333 301.82 14.2533 301.42 14.12C301.033 13.9867 300.633 13.8733 300.22 13.78C299.82 13.6867 299.427 13.6 299.04 13.52C298.653 13.44 298.307 13.3533 298 13.26C297.707 13.1533 297.467 13.02 297.28 12.86C297.093 12.7 297 12.4933 297 12.24C297 12.0267 297.053 11.86 297.16 11.74C297.267 11.6067 297.393 11.5067 297.54 11.44C297.7 11.3733 297.873 11.3333 298.06 11.32C298.247 11.2933 298.42 11.28 298.58 11.28C299.087 11.28 299.527 11.38 299.9 11.58C300.273 11.7667 300.48 12.1333 300.52 12.68H303.22C303.167 12.04 303 11.5133 302.72 11.1C302.453 10.6733 302.113 10.3333 301.7 10.08C301.287 9.82667 300.813 9.64667 300.28 9.54C299.76 9.43333 299.22 9.38 298.66 9.38C298.1 9.38 297.553 9.43333 297.02 9.54C296.487 9.63333 296.007 9.80667 295.58 10.06C295.153 10.3 294.807 10.6333 294.54 11.06C294.287 11.4867 294.16 12.0333 294.16 12.7C294.16 13.1533 294.253 13.54 294.44 13.86C294.627 14.1667 294.873 14.4267 295.18 14.64C295.487 14.84 295.833 15.0067 296.22 15.14C296.62 15.26 297.027 15.3667 297.44 15.46C298.453 15.6733 299.24 15.8867 299.8 16.1C300.373 16.3133 300.66 16.6333 300.66 17.06C300.66 17.3133 300.6 17.5267 300.48 17.7C300.36 17.86 300.207 17.9933 300.02 18.1C299.847 18.1933 299.647 18.2667 299.42 18.32C299.207 18.36 299 18.38 298.8 18.38C298.52 18.38 298.247 18.3467 297.98 18.28C297.727 18.2133 297.5 18.1133 297.3 17.98C297.1 17.8333 296.933 17.6533 296.8 17.44C296.68 17.2133 296.62 16.9467 296.62 16.64ZM317.768 13.3H320.548C320.508 12.6333 320.348 12.06 320.068 11.58C319.788 11.0867 319.422 10.68 318.968 10.36C318.528 10.0267 318.022 9.78 317.448 9.62C316.888 9.46 316.302 9.38 315.688 9.38C314.848 9.38 314.102 9.52 313.448 9.8C312.795 10.08 312.242 10.4733 311.788 10.98C311.335 11.4733 310.988 12.0667 310.748 12.76C310.522 13.44 310.408 14.18 310.408 14.98C310.408 15.7533 310.535 16.4667 310.788 17.12C311.042 17.76 311.395 18.3133 311.848 18.78C312.302 19.2467 312.848 19.6133 313.488 19.88C314.142 20.1333 314.855 20.26 315.628 20.26C317.002 20.26 318.128 19.9 319.008 19.18C319.888 18.46 320.422 17.4133 320.608 16.04H317.868C317.775 16.68 317.542 17.1933 317.168 17.58C316.808 17.9533 316.288 18.14 315.608 18.14C315.168 18.14 314.795 18.04 314.488 17.84C314.182 17.64 313.935 17.3867 313.748 17.08C313.575 16.76 313.448 16.4067 313.368 16.02C313.288 15.6333 313.248 15.2533 313.248 14.88C313.248 14.4933 313.288 14.1067 313.368 13.72C313.448 13.32 313.582 12.96 313.768 12.64C313.968 12.3067 314.222 12.04 314.528 11.84C314.835 11.6267 315.215 11.52 315.668 11.52C316.882 11.52 317.582 12.1133 317.768 13.3ZM324.733 14.84C324.733 14.4267 324.773 14.02 324.853 13.62C324.933 13.22 325.066 12.8667 325.253 12.56C325.453 12.2533 325.713 12.0067 326.033 11.82C326.353 11.62 326.753 11.52 327.233 11.52C327.713 11.52 328.113 11.62 328.433 11.82C328.766 12.0067 329.026 12.2533 329.213 12.56C329.413 12.8667 329.553 13.22 329.633 13.62C329.713 14.02 329.753 14.4267 329.753 14.84C329.753 15.2533 329.713 15.66 329.633 16.06C329.553 16.4467 329.413 16.8 329.213 17.12C329.026 17.4267 328.766 17.6733 328.433 17.86C328.113 18.0467 327.713 18.14 327.233 18.14C326.753 18.14 326.353 18.0467 326.033 17.86C325.713 17.6733 325.453 17.4267 325.253 17.12C325.066 16.8 324.933 16.4467 324.853 16.06C324.773 15.66 324.733 15.2533 324.733 14.84ZM321.893 14.84C321.893 15.6667 322.019 16.4133 322.273 17.08C322.526 17.7467 322.886 18.32 323.353 18.8C323.819 19.2667 324.379 19.6267 325.033 19.88C325.686 20.1333 326.419 20.26 327.233 20.26C328.046 20.26 328.779 20.1333 329.433 19.88C330.099 19.6267 330.666 19.2667 331.133 18.8C331.599 18.32 331.959 17.7467 332.213 17.08C332.466 16.4133 332.593 15.6667 332.593 14.84C332.593 14.0133 332.466 13.2667 332.213 12.6C331.959 11.92 331.599 11.3467 331.133 10.88C330.666 10.4 330.099 10.0333 329.433 9.78C328.779 9.51333 328.046 9.38 327.233 9.38C326.419 9.38 325.686 9.51333 325.033 9.78C324.379 10.0333 323.819 10.4 323.353 10.88C322.886 11.3467 322.526 11.92 322.273 12.6C322.019 13.2667 321.893 14.0133 321.893 14.84ZM334.439 9.66V20H337.279V14.58C337.279 13.5267 337.453 12.7733 337.799 12.32C338.146 11.8533 338.706 11.62 339.479 11.62C340.159 11.62 340.633 11.8333 340.899 12.26C341.166 12.6733 341.299 13.3067 341.299 14.16V20H344.139V13.64C344.139 13 344.079 12.42 343.959 11.9C343.853 11.3667 343.659 10.92 343.379 10.56C343.099 10.1867 342.713 9.9 342.219 9.7C341.739 9.48667 341.119 9.38 340.359 9.38C339.759 9.38 339.173 9.52 338.599 9.8C338.026 10.0667 337.559 10.5 337.199 11.1H337.139V9.66H334.439ZM353.635 14.8C353.635 15.2267 353.595 15.64 353.515 16.04C353.435 16.44 353.302 16.8 353.115 17.12C352.928 17.4267 352.675 17.6733 352.355 17.86C352.048 18.0467 351.662 18.14 351.195 18.14C350.755 18.14 350.375 18.0467 350.055 17.86C349.748 17.66 349.488 17.4067 349.275 17.1C349.075 16.78 348.928 16.42 348.835 16.02C348.742 15.62 348.695 15.22 348.695 14.82C348.695 14.3933 348.735 13.9867 348.815 13.6C348.908 13.2 349.048 12.8467 349.235 12.54C349.435 12.2333 349.695 11.9867 350.015 11.8C350.335 11.6133 350.728 11.52 351.195 11.52C351.662 11.52 352.048 11.6133 352.355 11.8C352.662 11.9867 352.908 12.2333 353.095 12.54C353.295 12.8333 353.435 13.18 353.515 13.58C353.595 13.9667 353.635 14.3733 353.635 14.8ZM353.675 18.68V20H356.375V5.72H353.535V10.92H353.495C353.175 10.4133 352.735 10.0333 352.175 9.78C351.628 9.51333 351.048 9.38 350.435 9.38C349.675 9.38 349.008 9.53333 348.435 9.84C347.862 10.1333 347.382 10.5267 346.995 11.02C346.622 11.5133 346.335 12.0867 346.135 12.74C345.948 13.38 345.855 14.0467 345.855 14.74C345.855 15.46 345.948 16.1533 346.135 16.82C346.335 17.4867 346.622 18.08 346.995 18.6C347.382 19.1067 347.868 19.5133 348.455 19.82C349.042 20.1133 349.722 20.26 350.495 20.26C351.175 20.26 351.782 20.14 352.315 19.9C352.862 19.6467 353.302 19.24 353.635 18.68H353.675ZM368.221 20V9.66H365.381V15.08C365.381 16.1333 365.208 16.8933 364.861 17.36C364.515 17.8133 363.955 18.04 363.181 18.04C362.501 18.04 362.028 17.8333 361.761 17.42C361.495 16.9933 361.361 16.3533 361.361 15.5V9.66H358.521V16.02C358.521 16.66 358.575 17.2467 358.681 17.78C358.801 18.3 359.001 18.7467 359.281 19.12C359.561 19.48 359.941 19.76 360.421 19.96C360.915 20.16 361.541 20.26 362.301 20.26C362.901 20.26 363.488 20.1267 364.061 19.86C364.635 19.5933 365.101 19.16 365.461 18.56H365.521V20H368.221ZM377.417 13.3H380.197C380.157 12.6333 379.997 12.06 379.717 11.58C379.437 11.0867 379.07 10.68 378.617 10.36C378.177 10.0267 377.67 9.78 377.097 9.62C376.537 9.46 375.95 9.38 375.337 9.38C374.497 9.38 373.75 9.52 373.097 9.8C372.444 10.08 371.89 10.4733 371.437 10.98C370.984 11.4733 370.637 12.0667 370.397 12.76C370.17 13.44 370.057 14.18 370.057 14.98C370.057 15.7533 370.184 16.4667 370.437 17.12C370.69 17.76 371.044 18.3133 371.497 18.78C371.95 19.2467 372.497 19.6133 373.137 19.88C373.79 20.1333 374.504 20.26 375.277 20.26C376.65 20.26 377.777 19.9 378.657 19.18C379.537 18.46 380.07 17.4133 380.257 16.04H377.517C377.424 16.68 377.19 17.1933 376.817 17.58C376.457 17.9533 375.937 18.14 375.257 18.14C374.817 18.14 374.444 18.04 374.137 17.84C373.83 17.64 373.584 17.3867 373.397 17.08C373.224 16.76 373.097 16.4067 373.017 16.02C372.937 15.6333 372.897 15.2533 372.897 14.88C372.897 14.4933 372.937 14.1067 373.017 13.72C373.097 13.32 373.23 12.96 373.417 12.64C373.617 12.3067 373.87 12.04 374.177 11.84C374.484 11.6267 374.864 11.52 375.317 11.52C376.53 11.52 377.23 12.1133 377.417 13.3ZM385.461 9.66V6.56H382.621V9.66H380.901V11.56H382.621V17.66C382.621 18.18 382.708 18.6 382.881 18.92C383.055 19.24 383.288 19.4867 383.581 19.66C383.888 19.8333 384.235 19.9467 384.621 20C385.021 20.0667 385.441 20.1 385.881 20.1C386.161 20.1 386.448 20.0933 386.741 20.08C387.035 20.0667 387.301 20.04 387.541 20V17.8C387.408 17.8267 387.268 17.8467 387.121 17.86C386.975 17.8733 386.821 17.88 386.661 17.88C386.181 17.88 385.861 17.8 385.701 17.64C385.541 17.48 385.461 17.16 385.461 16.68V11.56H387.541V9.66H385.461ZM388.773 12.84C388.813 12.1733 388.979 11.62 389.273 11.18C389.566 10.74 389.939 10.3867 390.393 10.12C390.846 9.85333 391.353 9.66667 391.913 9.56C392.486 9.44 393.059 9.38 393.633 9.38C394.153 9.38 394.679 9.42 395.213 9.5C395.746 9.56667 396.233 9.70667 396.673 9.92C397.113 10.1333 397.473 10.4333 397.753 10.82C398.033 11.1933 398.173 11.6933 398.173 12.32V17.7C398.173 18.1667 398.199 18.6133 398.253 19.04C398.306 19.4667 398.399 19.7867 398.533 20H395.653C395.599 19.84 395.553 19.68 395.513 19.52C395.486 19.3467 395.466 19.1733 395.453 19C394.999 19.4667 394.466 19.7933 393.853 19.98C393.239 20.1667 392.613 20.26 391.973 20.26C391.479 20.26 391.019 20.2 390.593 20.08C390.166 19.96 389.793 19.7733 389.473 19.52C389.153 19.2667 388.899 18.9467 388.713 18.56C388.539 18.1733 388.453 17.7133 388.453 17.18C388.453 16.5933 388.553 16.1133 388.753 15.74C388.966 15.3533 389.233 15.0467 389.553 14.82C389.886 14.5933 390.259 14.4267 390.673 14.32C391.099 14.2 391.526 14.1067 391.953 14.04C392.379 13.9733 392.799 13.92 393.213 13.88C393.626 13.84 393.993 13.78 394.313 13.7C394.633 13.62 394.886 13.5067 395.073 13.36C395.259 13.2 395.346 12.9733 395.333 12.68C395.333 12.3733 395.279 12.1333 395.173 11.96C395.079 11.7733 394.946 11.6333 394.773 11.54C394.613 11.4333 394.419 11.3667 394.193 11.34C393.979 11.3 393.746 11.28 393.493 11.28C392.933 11.28 392.493 11.4 392.173 11.64C391.853 11.88 391.666 12.28 391.613 12.84H388.773ZM395.333 14.94C395.213 15.0467 395.059 15.1333 394.873 15.2C394.699 15.2533 394.506 15.3 394.293 15.34C394.093 15.38 393.879 15.4133 393.653 15.44C393.426 15.4667 393.199 15.5 392.973 15.54C392.759 15.58 392.546 15.6333 392.333 15.7C392.133 15.7667 391.953 15.86 391.793 15.98C391.646 16.0867 391.526 16.2267 391.433 16.4C391.339 16.5733 391.293 16.7933 391.293 17.06C391.293 17.3133 391.339 17.5267 391.433 17.7C391.526 17.8733 391.653 18.0133 391.813 18.12C391.973 18.2133 392.159 18.28 392.373 18.32C392.586 18.36 392.806 18.38 393.033 18.38C393.593 18.38 394.026 18.2867 394.333 18.1C394.639 17.9133 394.866 17.6933 395.013 17.44C395.159 17.1733 395.246 16.9067 395.273 16.64C395.313 16.3733 395.333 16.16 395.333 16V14.94ZM402.577 16.64H399.877C399.904 17.3333 400.057 17.9133 400.337 18.38C400.63 18.8333 400.997 19.2 401.437 19.48C401.89 19.76 402.404 19.96 402.977 20.08C403.55 20.2 404.137 20.26 404.737 20.26C405.324 20.26 405.897 20.2 406.457 20.08C407.03 19.9733 407.537 19.78 407.977 19.5C408.417 19.22 408.77 18.8533 409.037 18.4C409.317 17.9333 409.457 17.36 409.457 16.68C409.457 16.2 409.364 15.8 409.177 15.48C408.99 15.1467 408.744 14.8733 408.437 14.66C408.13 14.4333 407.777 14.2533 407.377 14.12C406.99 13.9867 406.59 13.8733 406.177 13.78C405.777 13.6867 405.384 13.6 404.997 13.52C404.61 13.44 404.264 13.3533 403.957 13.26C403.664 13.1533 403.424 13.02 403.237 12.86C403.05 12.7 402.957 12.4933 402.957 12.24C402.957 12.0267 403.01 11.86 403.117 11.74C403.224 11.6067 403.35 11.5067 403.497 11.44C403.657 11.3733 403.83 11.3333 404.017 11.32C404.204 11.2933 404.377 11.28 404.537 11.28C405.044 11.28 405.484 11.38 405.857 11.58C406.23 11.7667 406.437 12.1333 406.477 12.68H409.177C409.124 12.04 408.957 11.5133 408.677 11.1C408.41 10.6733 408.07 10.3333 407.657 10.08C407.244 9.82667 406.77 9.64667 406.237 9.54C405.717 9.43333 405.177 9.38 404.617 9.38C404.057 9.38 403.51 9.43333 402.977 9.54C402.444 9.63333 401.964 9.80667 401.537 10.06C401.11 10.3 400.764 10.6333 400.497 11.06C400.244 11.4867 400.117 12.0333 400.117 12.7C400.117 13.1533 400.21 13.54 400.397 13.86C400.584 14.1667 400.83 14.4267 401.137 14.64C401.444 14.84 401.79 15.0067 402.177 15.14C402.577 15.26 402.984 15.3667 403.397 15.46C404.41 15.6733 405.197 15.8867 405.757 16.1C406.33 16.3133 406.617 16.6333 406.617 17.06C406.617 17.3133 406.557 17.5267 406.437 17.7C406.317 17.86 406.164 17.9933 405.977 18.1C405.804 18.1933 405.604 18.2667 405.377 18.32C405.164 18.36 404.957 18.38 404.757 18.38C404.477 18.38 404.204 18.3467 403.937 18.28C403.684 18.2133 403.457 18.1133 403.257 17.98C403.057 17.8333 402.89 17.6533 402.757 17.44C402.637 17.2133 402.577 16.9467 402.577 16.64ZM418.885 16.64H416.185C416.212 17.3333 416.365 17.9133 416.645 18.38C416.939 18.8333 417.305 19.2 417.745 19.48C418.199 19.76 418.712 19.96 419.285 20.08C419.859 20.2 420.445 20.26 421.045 20.26C421.632 20.26 422.205 20.2 422.765 20.08C423.339 19.9733 423.845 19.78 424.285 19.5C424.725 19.22 425.079 18.8533 425.345 18.4C425.625 17.9333 425.765 17.36 425.765 16.68C425.765 16.2 425.672 15.8 425.485 15.48C425.299 15.1467 425.052 14.8733 424.745 14.66C424.439 14.4333 424.085 14.2533 423.685 14.12C423.299 13.9867 422.899 13.8733 422.485 13.78C422.085 13.6867 421.692 13.6 421.305 13.52C420.919 13.44 420.572 13.3533 420.265 13.26C419.972 13.1533 419.732 13.02 419.545 12.86C419.359 12.7 419.265 12.4933 419.265 12.24C419.265 12.0267 419.319 11.86 419.425 11.74C419.532 11.6067 419.659 11.5067 419.805 11.44C419.965 11.3733 420.139 11.3333 420.325 11.32C420.512 11.2933 420.685 11.28 420.845 11.28C421.352 11.28 421.792 11.38 422.165 11.58C422.539 11.7667 422.745 12.1333 422.785 12.68H425.485C425.432 12.04 425.265 11.5133 424.985 11.1C424.719 10.6733 424.379 10.3333 423.965 10.08C423.552 9.82667 423.079 9.64667 422.545 9.54C422.025 9.43333 421.485 9.38 420.925 9.38C420.365 9.38 419.819 9.43333 419.285 9.54C418.752 9.63333 418.272 9.80667 417.845 10.06C417.419 10.3 417.072 10.6333 416.805 11.06C416.552 11.4867 416.425 12.0333 416.425 12.7C416.425 13.1533 416.519 13.54 416.705 13.86C416.892 14.1667 417.139 14.4267 417.445 14.64C417.752 14.84 418.099 15.0067 418.485 15.14C418.885 15.26 419.292 15.3667 419.705 15.46C420.719 15.6733 421.505 15.8867 422.065 16.1C422.639 16.3133 422.925 16.6333 422.925 17.06C422.925 17.3133 422.865 17.5267 422.745 17.7C422.625 17.86 422.472 17.9933 422.285 18.1C422.112 18.1933 421.912 18.2667 421.685 18.32C421.472 18.36 421.265 18.38 421.065 18.38C420.785 18.38 420.512 18.3467 420.245 18.28C419.992 18.2133 419.765 18.1133 419.565 17.98C419.365 17.8333 419.199 17.6533 419.065 17.44C418.945 17.2133 418.885 16.9467 418.885 16.64ZM430.348 8.06V5.72H427.508V8.06H430.348ZM427.508 9.66V20H430.348V9.66H427.508ZM432.464 12.84C432.504 12.1733 432.671 11.62 432.964 11.18C433.257 10.74 433.631 10.3867 434.084 10.12C434.537 9.85333 435.044 9.66667 435.604 9.56C436.177 9.44 436.751 9.38 437.324 9.38C437.844 9.38 438.371 9.42 438.904 9.5C439.437 9.56667 439.924 9.70667 440.364 9.92C440.804 10.1333 441.164 10.4333 441.444 10.82C441.724 11.1933 441.864 11.6933 441.864 12.32V17.7C441.864 18.1667 441.891 18.6133 441.944 19.04C441.997 19.4667 442.091 19.7867 442.224 20H439.344C439.291 19.84 439.244 19.68 439.204 19.52C439.177 19.3467 439.157 19.1733 439.144 19C438.691 19.4667 438.157 19.7933 437.544 19.98C436.931 20.1667 436.304 20.26 435.664 20.26C435.171 20.26 434.711 20.2 434.284 20.08C433.857 19.96 433.484 19.7733 433.164 19.52C432.844 19.2667 432.591 18.9467 432.404 18.56C432.231 18.1733 432.144 17.7133 432.144 17.18C432.144 16.5933 432.244 16.1133 432.444 15.74C432.657 15.3533 432.924 15.0467 433.244 14.82C433.577 14.5933 433.951 14.4267 434.364 14.32C434.791 14.2 435.217 14.1067 435.644 14.04C436.071 13.9733 436.491 13.92 436.904 13.88C437.317 13.84 437.684 13.78 438.004 13.7C438.324 13.62 438.577 13.5067 438.764 13.36C438.951 13.2 439.037 12.9733 439.024 12.68C439.024 12.3733 438.971 12.1333 438.864 11.96C438.771 11.7733 438.637 11.6333 438.464 11.54C438.304 11.4333 438.111 11.3667 437.884 11.34C437.671 11.3 437.437 11.28 437.184 11.28C436.624 11.28 436.184 11.4 435.864 11.64C435.544 11.88 435.357 12.28 435.304 12.84H432.464ZM439.024 14.94C438.904 15.0467 438.751 15.1333 438.564 15.2C438.391 15.2533 438.197 15.3 437.984 15.34C437.784 15.38 437.571 15.4133 437.344 15.44C437.117 15.4667 436.891 15.5 436.664 15.54C436.451 15.58 436.237 15.6333 436.024 15.7C435.824 15.7667 435.644 15.86 435.484 15.98C435.337 16.0867 435.217 16.2267 435.124 16.4C435.031 16.5733 434.984 16.7933 434.984 17.06C434.984 17.3133 435.031 17.5267 435.124 17.7C435.217 17.8733 435.344 18.0133 435.504 18.12C435.664 18.2133 435.851 18.28 436.064 18.32C436.277 18.36 436.497 18.38 436.724 18.38C437.284 18.38 437.717 18.2867 438.024 18.1C438.331 17.9133 438.557 17.6933 438.704 17.44C438.851 17.1733 438.937 16.9067 438.964 16.64C439.004 16.3733 439.024 16.16 439.024 16V14.94ZM444.148 9.66V20H446.988V14C446.988 13.4933 447.062 13.0867 447.208 12.78C447.355 12.46 447.528 12.22 447.728 12.06C447.942 11.8867 448.155 11.7733 448.368 11.72C448.595 11.6533 448.775 11.62 448.908 11.62C449.362 11.62 449.702 11.7 449.928 11.86C450.168 12.0067 450.335 12.2067 450.428 12.46C450.535 12.7133 450.595 12.9933 450.608 13.3C450.622 13.5933 450.628 13.8933 450.628 14.2V20H453.468V14.24C453.468 13.92 453.488 13.6067 453.528 13.3C453.582 12.98 453.675 12.7 453.808 12.46C453.955 12.2067 454.148 12.0067 454.388 11.86C454.642 11.7 454.968 11.62 455.368 11.62C455.768 11.62 456.082 11.6867 456.308 11.82C456.548 11.9533 456.728 12.1333 456.848 12.36C456.968 12.5867 457.042 12.8533 457.068 13.16C457.095 13.4667 457.108 13.7933 457.108 14.14V20H459.948V13.08C459.948 12.4133 459.855 11.8467 459.668 11.38C459.482 10.9 459.222 10.5133 458.888 10.22C458.555 9.92667 458.155 9.71333 457.688 9.58C457.222 9.44667 456.715 9.38 456.168 9.38C455.448 9.38 454.822 9.55333 454.288 9.9C453.768 10.2467 453.355 10.6467 453.048 11.1C452.768 10.46 452.355 10.0133 451.808 9.76C451.275 9.50667 450.682 9.38 450.028 9.38C449.348 9.38 448.742 9.52667 448.208 9.82C447.688 10.1133 447.242 10.5267 446.868 11.06H446.828V9.66H444.148ZM469.153 13.72H464.533C464.547 13.52 464.587 13.2933 464.653 13.04C464.733 12.7867 464.86 12.5467 465.033 12.32C465.22 12.0933 465.46 11.9067 465.753 11.76C466.06 11.6 466.44 11.52 466.893 11.52C467.587 11.52 468.1 11.7067 468.433 12.08C468.78 12.4533 469.02 13 469.153 13.72ZM464.533 15.52H471.993C472.047 14.72 471.98 13.9533 471.793 13.22C471.607 12.4867 471.3 11.8333 470.873 11.26C470.46 10.6867 469.927 10.2333 469.273 9.9C468.62 9.55333 467.853 9.38 466.973 9.38C466.187 9.38 465.467 9.52 464.813 9.8C464.173 10.08 463.62 10.4667 463.153 10.96C462.687 11.44 462.327 12.0133 462.073 12.68C461.82 13.3467 461.693 14.0667 461.693 14.84C461.693 15.64 461.813 16.3733 462.053 17.04C462.307 17.7067 462.66 18.28 463.113 18.76C463.567 19.24 464.12 19.6133 464.773 19.88C465.427 20.1333 466.16 20.26 466.973 20.26C468.147 20.26 469.147 19.9933 469.973 19.46C470.8 18.9267 471.413 18.04 471.813 16.8H469.313C469.22 17.12 468.967 17.4267 468.553 17.72C468.14 18 467.647 18.14 467.073 18.14C466.273 18.14 465.66 17.9333 465.233 17.52C464.807 17.1067 464.573 16.44 464.533 15.52ZM475.878 16.64H473.178C473.204 17.3333 473.358 17.9133 473.638 18.38C473.931 18.8333 474.298 19.2 474.738 19.48C475.191 19.76 475.704 19.96 476.278 20.08C476.851 20.2 477.438 20.26 478.038 20.26C478.624 20.26 479.198 20.2 479.758 20.08C480.331 19.9733 480.838 19.78 481.278 19.5C481.718 19.22 482.071 18.8533 482.338 18.4C482.618 17.9333 482.758 17.36 482.758 16.68C482.758 16.2 482.664 15.8 482.478 15.48C482.291 15.1467 482.044 14.8733 481.738 14.66C481.431 14.4333 481.078 14.2533 480.678 14.12C480.291 13.9867 479.891 13.8733 479.478 13.78C479.078 13.6867 478.684 13.6 478.298 13.52C477.911 13.44 477.564 13.3533 477.258 13.26C476.964 13.1533 476.724 13.02 476.538 12.86C476.351 12.7 476.258 12.4933 476.258 12.24C476.258 12.0267 476.311 11.86 476.418 11.74C476.524 11.6067 476.651 11.5067 476.798 11.44C476.958 11.3733 477.131 11.3333 477.318 11.32C477.504 11.2933 477.678 11.28 477.838 11.28C478.344 11.28 478.784 11.38 479.158 11.58C479.531 11.7667 479.738 12.1333 479.778 12.68H482.478C482.424 12.04 482.258 11.5133 481.978 11.1C481.711 10.6733 481.371 10.3333 480.958 10.08C480.544 9.82667 480.071 9.64667 479.538 9.54C479.018 9.43333 478.478 9.38 477.918 9.38C477.358 9.38 476.811 9.43333 476.278 9.54C475.744 9.63333 475.264 9.80667 474.838 10.06C474.411 10.3 474.064 10.6333 473.798 11.06C473.544 11.4867 473.418 12.0333 473.418 12.7C473.418 13.1533 473.511 13.54 473.698 13.86C473.884 14.1667 474.131 14.4267 474.438 14.64C474.744 14.84 475.091 15.0067 475.478 15.14C475.878 15.26 476.284 15.3667 476.698 15.46C477.711 15.6733 478.498 15.8867 479.058 16.1C479.631 16.3133 479.918 16.6333 479.918 17.06C479.918 17.3133 479.858 17.5267 479.738 17.7C479.618 17.86 479.464 17.9933 479.278 18.1C479.104 18.1933 478.904 18.2667 478.678 18.32C478.464 18.36 478.258 18.38 478.058 18.38C477.778 18.38 477.504 18.3467 477.238 18.28C476.984 18.2133 476.758 18.1133 476.558 17.98C476.358 17.8333 476.191 17.6533 476.058 17.44C475.938 17.2133 475.878 16.9467 475.878 16.64ZM484.3 12.84C484.34 12.1733 484.507 11.62 484.8 11.18C485.093 10.74 485.467 10.3867 485.92 10.12C486.373 9.85333 486.88 9.66667 487.44 9.56C488.013 9.44 488.587 9.38 489.16 9.38C489.68 9.38 490.207 9.42 490.74 9.5C491.273 9.56667 491.76 9.70667 492.2 9.92C492.64 10.1333 493 10.4333 493.28 10.82C493.56 11.1933 493.7 11.6933 493.7 12.32V17.7C493.7 18.1667 493.727 18.6133 493.78 19.04C493.833 19.4667 493.927 19.7867 494.06 20H491.18C491.127 19.84 491.08 19.68 491.04 19.52C491.013 19.3467 490.993 19.1733 490.98 19C490.527 19.4667 489.993 19.7933 489.38 19.98C488.767 20.1667 488.14 20.26 487.5 20.26C487.007 20.26 486.547 20.2 486.12 20.08C485.693 19.96 485.32 19.7733 485 19.52C484.68 19.2667 484.427 18.9467 484.24 18.56C484.067 18.1733 483.98 17.7133 483.98 17.18C483.98 16.5933 484.08 16.1133 484.28 15.74C484.493 15.3533 484.76 15.0467 485.08 14.82C485.413 14.5933 485.787 14.4267 486.2 14.32C486.627 14.2 487.053 14.1067 487.48 14.04C487.907 13.9733 488.327 13.92 488.74 13.88C489.153 13.84 489.52 13.78 489.84 13.7C490.16 13.62 490.413 13.5067 490.6 13.36C490.787 13.2 490.873 12.9733 490.86 12.68C490.86 12.3733 490.807 12.1333 490.7 11.96C490.607 11.7733 490.473 11.6333 490.3 11.54C490.14 11.4333 489.947 11.3667 489.72 11.34C489.507 11.3 489.273 11.28 489.02 11.28C488.46 11.28 488.02 11.4 487.7 11.64C487.38 11.88 487.193 12.28 487.14 12.84H484.3ZM490.86 14.94C490.74 15.0467 490.587 15.1333 490.4 15.2C490.227 15.2533 490.033 15.3 489.82 15.34C489.62 15.38 489.407 15.4133 489.18 15.44C488.953 15.4667 488.727 15.5 488.5 15.54C488.287 15.58 488.073 15.6333 487.86 15.7C487.66 15.7667 487.48 15.86 487.32 15.98C487.173 16.0867 487.053 16.2267 486.96 16.4C486.867 16.5733 486.82 16.7933 486.82 17.06C486.82 17.3133 486.867 17.5267 486.96 17.7C487.053 17.8733 487.18 18.0133 487.34 18.12C487.5 18.2133 487.687 18.28 487.9 18.32C488.113 18.36 488.333 18.38 488.56 18.38C489.12 18.38 489.553 18.2867 489.86 18.1C490.167 17.9133 490.393 17.6933 490.54 17.44C490.687 17.1733 490.773 16.9067 490.8 16.64C490.84 16.3733 490.86 16.16 490.86 16V14.94ZM498.104 16.64H495.404C495.431 17.3333 495.584 17.9133 495.864 18.38C496.158 18.8333 496.524 19.2 496.964 19.48C497.418 19.76 497.931 19.96 498.504 20.08C499.078 20.2 499.664 20.26 500.264 20.26C500.851 20.26 501.424 20.2 501.984 20.08C502.558 19.9733 503.064 19.78 503.504 19.5C503.944 19.22 504.298 18.8533 504.564 18.4C504.844 17.9333 504.984 17.36 504.984 16.68C504.984 16.2 504.891 15.8 504.704 15.48C504.518 15.1467 504.271 14.8733 503.964 14.66C503.658 14.4333 503.304 14.2533 502.904 14.12C502.518 13.9867 502.118 13.8733 501.704 13.78C501.304 13.6867 500.911 13.6 500.524 13.52C500.138 13.44 499.791 13.3533 499.484 13.26C499.191 13.1533 498.951 13.02 498.764 12.86C498.578 12.7 498.484 12.4933 498.484 12.24C498.484 12.0267 498.538 11.86 498.644 11.74C498.751 11.6067 498.878 11.5067 499.024 11.44C499.184 11.3733 499.358 11.3333 499.544 11.32C499.731 11.2933 499.904 11.28 500.064 11.28C500.571 11.28 501.011 11.38 501.384 11.58C501.758 11.7667 501.964 12.1333 502.004 12.68H504.704C504.651 12.04 504.484 11.5133 504.204 11.1C503.938 10.6733 503.598 10.3333 503.184 10.08C502.771 9.82667 502.298 9.64667 501.764 9.54C501.244 9.43333 500.704 9.38 500.144 9.38C499.584 9.38 499.038 9.43333 498.504 9.54C497.971 9.63333 497.491 9.80667 497.064 10.06C496.638 10.3 496.291 10.6333 496.024 11.06C495.771 11.4867 495.644 12.0333 495.644 12.7C495.644 13.1533 495.738 13.54 495.924 13.86C496.111 14.1667 496.358 14.4267 496.664 14.64C496.971 14.84 497.318 15.0067 497.704 15.14C498.104 15.26 498.511 15.3667 498.924 15.46C499.938 15.6733 500.724 15.8867 501.284 16.1C501.858 16.3133 502.144 16.6333 502.144 17.06C502.144 17.3133 502.084 17.5267 501.964 17.7C501.844 17.86 501.691 17.9933 501.504 18.1C501.331 18.1933 501.131 18.2667 500.904 18.32C500.691 18.36 500.484 18.38 500.284 18.38C500.004 18.38 499.731 18.3467 499.464 18.28C499.211 18.2133 498.984 18.1133 498.784 17.98C498.584 17.8333 498.418 17.6533 498.284 17.44C498.164 17.2133 498.104 16.9467 498.104 16.64Z" fill="#3D8AF4"/>
<defs>
<filter id="filter0_d" x="0" y="4" width="763" height="445" filterUnits="userSpaceOnUse" color-interpolation-filters="sRGB">
<feFlood flood-opacity="0" result="BackgroundImageFix"/>
<feColorMatrix in="SourceAlpha" type="matrix" values="0 0 0 0 0 0 0 0 0 0 0 0 0 0 0 0 0 0 127 0"/>
<feOffset dy="4"/>
<feGaussianBlur stdDeviation="5"/>
<feColorMatrix type="matrix" values="0 0 0 0 0.443137 0 0 0 0 0.643137 0 0 0 0 0.729412 0 0 0 0.25 0"/>
<feBlend mode="normal" in2="BackgroundImageFix" result="effect1_dropShadow"/>
<feBlend mode="normal" in="SourceGraphic" in2="effect1_dropShadow" result="shape"/>
</filter>
</defs>
</svg>
