<svg width="148" height="86" viewBox="0 0 148 86" fill="none" xmlns="http://www.w3.org/2000/svg">
<path d="M75.3544 3L76.6787 1.50122L75.4037 0.374658L74.0873 1.45263L75.3544 3ZM52 22.125L50.7329 20.5776L50 21.1778V22.125H52ZM97 22.125H99V21.2233L98.3243 20.6262L97 22.125ZM97 48V50H99V48H97ZM52 48H50V50H52V48ZM74.0873 1.45263L50.7329 20.5776L53.2671 23.6724L76.6216 4.54737L74.0873 1.45263ZM98.3243 20.6262L76.6787 1.50122L74.0302 4.49878L95.6757 23.6238L98.3243 20.6262ZM95 22.125V48H99V22.125H95ZM97 46H52V50H97V46ZM54 48V22.125H50V48H54Z" fill="#B23634"/>
<path d="M11.1988 72.52H14.2388C14.1455 71.6933 13.9188 70.96 13.5588 70.32C13.1988 69.68 12.7388 69.1467 12.1788 68.72C11.6322 68.28 11.0055 67.9467 10.2988 67.72C9.60549 67.4933 8.8655 67.38 8.07883 67.38C6.9855 67.38 5.99883 67.5733 5.11883 67.96C4.25216 68.3467 3.51883 68.88 2.91883 69.56C2.31883 70.24 1.85883 71.04 1.53883 71.96C1.21883 72.8667 1.05883 73.8533 1.05883 74.92C1.05883 75.96 1.21883 76.9333 1.53883 77.84C1.85883 78.7333 2.31883 79.5133 2.91883 80.18C3.51883 80.8467 4.25216 81.3733 5.11883 81.76C5.99883 82.1333 6.9855 82.32 8.07883 82.32C8.95883 82.32 9.7655 82.1867 10.4988 81.92C11.2322 81.6533 11.8722 81.2667 12.4188 80.76C12.9655 80.2533 13.4055 79.64 13.7388 78.92C14.0722 78.2 14.2788 77.3933 14.3588 76.5H11.3188C11.1988 77.46 10.8655 78.2333 10.3188 78.82C9.7855 79.4067 9.03883 79.7 8.07883 79.7C7.37216 79.7 6.77216 79.5667 6.27883 79.3C5.7855 79.02 5.3855 78.6533 5.07883 78.2C4.77216 77.7467 4.54549 77.24 4.39883 76.68C4.26549 76.1067 4.19883 75.52 4.19883 74.92C4.19883 74.2933 4.26549 73.6867 4.39883 73.1C4.54549 72.5133 4.77216 71.9933 5.07883 71.54C5.3855 71.0733 5.7855 70.7067 6.27883 70.44C6.77216 70.16 7.37216 70.02 8.07883 70.02C8.4655 70.02 8.83216 70.0867 9.17883 70.22C9.53883 70.34 9.85883 70.5133 10.1388 70.74C10.4188 70.9667 10.6522 71.2333 10.8388 71.54C11.0255 71.8333 11.1455 72.16 11.1988 72.52ZM16.083 74.84C16.123 74.1733 16.2897 73.62 16.583 73.18C16.8764 72.74 17.2497 72.3867 17.703 72.12C18.1564 71.8533 18.663 71.6667 19.223 71.56C19.7964 71.44 20.3697 71.38 20.943 71.38C21.463 71.38 21.9897 71.42 22.523 71.5C23.0564 71.5667 23.543 71.7067 23.983 71.92C24.423 72.1333 24.783 72.4333 25.063 72.82C25.343 73.1933 25.483 73.6933 25.483 74.32V79.7C25.483 80.1667 25.5097 80.6133 25.563 81.04C25.6164 81.4667 25.7097 81.7867 25.843 82H22.963C22.9097 81.84 22.863 81.68 22.823 81.52C22.7964 81.3467 22.7764 81.1733 22.763 81C22.3097 81.4667 21.7764 81.7933 21.163 81.98C20.5497 82.1667 19.923 82.26 19.283 82.26C18.7897 82.26 18.3297 82.2 17.903 82.08C17.4764 81.96 17.103 81.7733 16.783 81.52C16.463 81.2667 16.2097 80.9467 16.023 80.56C15.8497 80.1733 15.763 79.7133 15.763 79.18C15.763 78.5933 15.863 78.1133 16.063 77.74C16.2764 77.3533 16.543 77.0467 16.863 76.82C17.1964 76.5933 17.5697 76.4267 17.983 76.32C18.4097 76.2 18.8364 76.1067 19.263 76.04C19.6897 75.9733 20.1097 75.92 20.523 75.88C20.9364 75.84 21.303 75.78 21.623 75.7C21.943 75.62 22.1964 75.5067 22.383 75.36C22.5697 75.2 22.6564 74.9733 22.643 74.68C22.643 74.3733 22.5897 74.1333 22.483 73.96C22.3897 73.7733 22.2564 73.6333 22.083 73.54C21.923 73.4333 21.7297 73.3667 21.503 73.34C21.2897 73.3 21.0564 73.28 20.803 73.28C20.243 73.28 19.803 73.4 19.483 73.64C19.163 73.88 18.9764 74.28 18.923 74.84H16.083ZM22.643 76.94C22.523 77.0467 22.3697 77.1333 22.183 77.2C22.0097 77.2533 21.8164 77.3 21.603 77.34C21.403 77.38 21.1897 77.4133 20.963 77.44C20.7364 77.4667 20.5097 77.5 20.283 77.54C20.0697 77.58 19.8564 77.6333 19.643 77.7C19.443 77.7667 19.263 77.86 19.103 77.98C18.9564 78.0867 18.8364 78.2267 18.743 78.4C18.6497 78.5733 18.603 78.7933 18.603 79.06C18.603 79.3133 18.6497 79.5267 18.743 79.7C18.8364 79.8733 18.963 80.0133 19.123 80.12C19.283 80.2133 19.4697 80.28 19.683 80.32C19.8964 80.36 20.1164 80.38 20.343 80.38C20.903 80.38 21.3364 80.2867 21.643 80.1C21.9497 79.9133 22.1764 79.6933 22.323 79.44C22.4697 79.1733 22.5564 78.9067 22.583 78.64C22.623 78.3733 22.643 78.16 22.643 78V76.94ZM29.8874 78.64H27.1874C27.2141 79.3333 27.3674 79.9133 27.6474 80.38C27.9408 80.8333 28.3074 81.2 28.7474 81.48C29.2008 81.76 29.7141 81.96 30.2874 82.08C30.8608 82.2 31.4474 82.26 32.0474 82.26C32.6341 82.26 33.2074 82.2 33.7674 82.08C34.3408 81.9733 34.8474 81.78 35.2874 81.5C35.7274 81.22 36.0808 80.8533 36.3474 80.4C36.6274 79.9333 36.7674 79.36 36.7674 78.68C36.7674 78.2 36.6741 77.8 36.4874 77.48C36.3008 77.1467 36.0541 76.8733 35.7474 76.66C35.4408 76.4333 35.0874 76.2533 34.6874 76.12C34.3008 75.9867 33.9008 75.8733 33.4874 75.78C33.0874 75.6867 32.6941 75.6 32.3074 75.52C31.9208 75.44 31.5741 75.3533 31.2674 75.26C30.9741 75.1533 30.7341 75.02 30.5474 74.86C30.3608 74.7 30.2674 74.4933 30.2674 74.24C30.2674 74.0267 30.3208 73.86 30.4274 73.74C30.5341 73.6067 30.6608 73.5067 30.8074 73.44C30.9674 73.3733 31.1408 73.3333 31.3274 73.32C31.5141 73.2933 31.6874 73.28 31.8474 73.28C32.3541 73.28 32.7941 73.38 33.1674 73.58C33.5408 73.7667 33.7474 74.1333 33.7874 74.68H36.4874C36.4341 74.04 36.2674 73.5133 35.9874 73.1C35.7208 72.6733 35.3808 72.3333 34.9674 72.08C34.5541 71.8267 34.0808 71.6467 33.5474 71.54C33.0274 71.4333 32.4874 71.38 31.9274 71.38C31.3674 71.38 30.8208 71.4333 30.2874 71.54C29.7541 71.6333 29.2741 71.8067 28.8474 72.06C28.4208 72.3 28.0741 72.6333 27.8074 73.06C27.5541 73.4867 27.4274 74.0333 27.4274 74.7C27.4274 75.1533 27.5208 75.54 27.7074 75.86C27.8941 76.1667 28.1408 76.4267 28.4474 76.64C28.7541 76.84 29.1008 77.0067 29.4874 77.14C29.8874 77.26 30.2941 77.3667 30.7074 77.46C31.7208 77.6733 32.5074 77.8867 33.0674 78.1C33.6408 78.3133 33.9274 78.6333 33.9274 79.06C33.9274 79.3133 33.8674 79.5267 33.7474 79.7C33.6274 79.86 33.4741 79.9933 33.2874 80.1C33.1141 80.1933 32.9141 80.2667 32.6874 80.32C32.4741 80.36 32.2674 80.38 32.0674 80.38C31.7874 80.38 31.5141 80.3467 31.2474 80.28C30.9941 80.2133 30.7674 80.1133 30.5674 79.98C30.3674 79.8333 30.2008 79.6533 30.0674 79.44C29.9474 79.2133 29.8874 78.9467 29.8874 78.64ZM38.3096 74.84C38.3496 74.1733 38.5163 73.62 38.8096 73.18C39.1029 72.74 39.4763 72.3867 39.9296 72.12C40.3829 71.8533 40.8896 71.6667 41.4496 71.56C42.0229 71.44 42.5963 71.38 43.1696 71.38C43.6896 71.38 44.2163 71.42 44.7496 71.5C45.2829 71.5667 45.7696 71.7067 46.2096 71.92C46.6496 72.1333 47.0096 72.4333 47.2896 72.82C47.5696 73.1933 47.7096 73.6933 47.7096 74.32V79.7C47.7096 80.1667 47.7363 80.6133 47.7896 81.04C47.8429 81.4667 47.9363 81.7867 48.0696 82H45.1896C45.1363 81.84 45.0896 81.68 45.0496 81.52C45.0229 81.3467 45.0029 81.1733 44.9896 81C44.5363 81.4667 44.0029 81.7933 43.3896 81.98C42.7763 82.1667 42.1496 82.26 41.5096 82.26C41.0163 82.26 40.5563 82.2 40.1296 82.08C39.7029 81.96 39.3296 81.7733 39.0096 81.52C38.6896 81.2667 38.4363 80.9467 38.2496 80.56C38.0763 80.1733 37.9896 79.7133 37.9896 79.18C37.9896 78.5933 38.0896 78.1133 38.2896 77.74C38.5029 77.3533 38.7696 77.0467 39.0896 76.82C39.4229 76.5933 39.7963 76.4267 40.2096 76.32C40.6363 76.2 41.0629 76.1067 41.4896 76.04C41.9163 75.9733 42.3363 75.92 42.7496 75.88C43.1629 75.84 43.5296 75.78 43.8496 75.7C44.1696 75.62 44.4229 75.5067 44.6096 75.36C44.7963 75.2 44.8829 74.9733 44.8696 74.68C44.8696 74.3733 44.8163 74.1333 44.7096 73.96C44.6163 73.7733 44.4829 73.6333 44.3096 73.54C44.1496 73.4333 43.9563 73.3667 43.7296 73.34C43.5163 73.3 43.2829 73.28 43.0296 73.28C42.4696 73.28 42.0296 73.4 41.7096 73.64C41.3896 73.88 41.2029 74.28 41.1496 74.84H38.3096ZM44.8696 76.94C44.7496 77.0467 44.5963 77.1333 44.4096 77.2C44.2363 77.2533 44.0429 77.3 43.8296 77.34C43.6296 77.38 43.4163 77.4133 43.1896 77.44C42.9629 77.4667 42.7363 77.5 42.5096 77.54C42.2963 77.58 42.0829 77.6333 41.8696 77.7C41.6696 77.7667 41.4896 77.86 41.3296 77.98C41.1829 78.0867 41.0629 78.2267 40.9696 78.4C40.8763 78.5733 40.8296 78.7933 40.8296 79.06C40.8296 79.3133 40.8763 79.5267 40.9696 79.7C41.0629 79.8733 41.1896 80.0133 41.3496 80.12C41.5096 80.2133 41.6963 80.28 41.9096 80.32C42.1229 80.36 42.3429 80.38 42.5696 80.38C43.1296 80.38 43.5629 80.2867 43.8696 80.1C44.1763 79.9133 44.4029 79.6933 44.5496 79.44C44.6963 79.1733 44.7829 78.9067 44.8096 78.64C44.8496 78.3733 44.8696 78.16 44.8696 78V76.94ZM62.8204 76.8C62.8204 77.2267 62.7804 77.64 62.7004 78.04C62.6204 78.44 62.4871 78.8 62.3004 79.12C62.1137 79.4267 61.8604 79.6733 61.5404 79.86C61.2337 80.0467 60.8471 80.14 60.3804 80.14C59.9404 80.14 59.5604 80.0467 59.2404 79.86C58.9337 79.66 58.6737 79.4067 58.4604 79.1C58.2604 78.78 58.1137 78.42 58.0204 78.02C57.9271 77.62 57.8804 77.22 57.8804 76.82C57.8804 76.3933 57.9204 75.9867 58.0004 75.6C58.0937 75.2 58.2337 74.8467 58.4204 74.54C58.6204 74.2333 58.8804 73.9867 59.2004 73.8C59.5204 73.6133 59.9137 73.52 60.3804 73.52C60.8471 73.52 61.2337 73.6133 61.5404 73.8C61.8471 73.9867 62.0937 74.2333 62.2804 74.54C62.4804 74.8333 62.6204 75.18 62.7004 75.58C62.7804 75.9667 62.8204 76.3733 62.8204 76.8ZM62.8604 80.68V82H65.5604V67.72H62.7204V72.92H62.6804C62.3604 72.4133 61.9204 72.0333 61.3604 71.78C60.8137 71.5133 60.2337 71.38 59.6204 71.38C58.8604 71.38 58.1937 71.5333 57.6204 71.84C57.0471 72.1333 56.5671 72.5267 56.1804 73.02C55.8071 73.5133 55.5204 74.0867 55.3204 74.74C55.1337 75.38 55.0404 76.0467 55.0404 76.74C55.0404 77.46 55.1337 78.1533 55.3204 78.82C55.5204 79.4867 55.8071 80.08 56.1804 80.6C56.5671 81.1067 57.0537 81.5133 57.6404 81.82C58.2271 82.1133 58.9071 82.26 59.6804 82.26C60.3604 82.26 60.9671 82.14 61.5004 81.9C62.0471 81.6467 62.4871 81.24 62.8204 80.68H62.8604ZM74.667 75.72H70.047C70.0603 75.52 70.1003 75.2933 70.167 75.04C70.247 74.7867 70.3736 74.5467 70.547 74.32C70.7336 74.0933 70.9736 73.9067 71.267 73.76C71.5736 73.6 71.9536 73.52 72.407 73.52C73.1003 73.52 73.6136 73.7067 73.947 74.08C74.2936 74.4533 74.5336 75 74.667 75.72ZM70.047 77.52H77.507C77.5603 76.72 77.4936 75.9533 77.307 75.22C77.1203 74.4867 76.8136 73.8333 76.387 73.26C75.9736 72.6867 75.4403 72.2333 74.787 71.9C74.1336 71.5533 73.367 71.38 72.487 71.38C71.7003 71.38 70.9803 71.52 70.327 71.8C69.687 72.08 69.1336 72.4667 68.667 72.96C68.2003 73.44 67.8403 74.0133 67.587 74.68C67.3336 75.3467 67.207 76.0667 67.207 76.84C67.207 77.64 67.327 78.3733 67.567 79.04C67.8203 79.7067 68.1736 80.28 68.627 80.76C69.0803 81.24 69.6336 81.6133 70.287 81.88C70.9403 82.1333 71.6736 82.26 72.487 82.26C73.6603 82.26 74.6603 81.9933 75.487 81.46C76.3136 80.9267 76.927 80.04 77.327 78.8H74.827C74.7336 79.12 74.4803 79.4267 74.067 79.72C73.6536 80 73.1603 80.14 72.587 80.14C71.787 80.14 71.1736 79.9333 70.747 79.52C70.3203 79.1067 70.087 78.44 70.047 77.52ZM85.0577 67.72V82H87.9977V71.98H88.0377L91.5377 82H93.9577L97.4577 71.88H97.4977V82H100.438V67.72H96.0177L92.8577 77.54H92.8177L89.4777 67.72H85.0577ZM105.822 70.06V67.72H102.982V70.06H105.822ZM102.982 71.66V82H105.822V71.66H102.982ZM112.879 79.56C112.439 79.56 112.072 79.4667 111.779 79.28C111.485 79.0933 111.245 78.8533 111.059 78.56C110.885 78.2667 110.759 77.94 110.679 77.58C110.612 77.2067 110.579 76.8333 110.579 76.46C110.579 76.0733 110.619 75.7067 110.699 75.36C110.792 75 110.932 74.6867 111.119 74.42C111.319 74.14 111.559 73.92 111.839 73.76C112.132 73.6 112.479 73.52 112.879 73.52C113.345 73.52 113.732 73.6067 114.039 73.78C114.345 73.9533 114.592 74.1867 114.779 74.48C114.965 74.7733 115.099 75.1133 115.179 75.5C115.259 75.8733 115.299 76.2733 115.299 76.7C115.299 77.0733 115.245 77.4333 115.139 77.78C115.045 78.1133 114.899 78.4133 114.699 78.68C114.499 78.9467 114.245 79.16 113.939 79.32C113.632 79.48 113.279 79.56 112.879 79.56ZM117.999 81.34V71.66H115.299V73.04H115.259C114.912 72.44 114.479 72.0133 113.959 71.76C113.452 71.5067 112.859 71.38 112.179 71.38C111.459 71.38 110.819 71.52 110.259 71.8C109.712 72.08 109.252 72.46 108.879 72.94C108.505 73.4067 108.219 73.9533 108.019 74.58C107.832 75.1933 107.739 75.8333 107.739 76.5C107.739 77.2067 107.819 77.88 107.979 78.52C108.152 79.1467 108.419 79.7 108.779 80.18C109.139 80.6467 109.599 81.02 110.159 81.3C110.719 81.5667 111.385 81.7 112.159 81.7C112.785 81.7 113.379 81.5733 113.939 81.32C114.512 81.0533 114.952 80.6467 115.259 80.1H115.299V81.46C115.312 82.1933 115.132 82.8 114.759 83.28C114.399 83.76 113.819 84 113.019 84C112.512 84 112.065 83.8933 111.679 83.68C111.292 83.48 111.032 83.1133 110.899 82.58H108.079C108.119 83.1667 108.279 83.6667 108.559 84.08C108.852 84.5067 109.212 84.8533 109.639 85.12C110.079 85.3867 110.559 85.58 111.079 85.7C111.612 85.8333 112.132 85.9 112.639 85.9C113.825 85.9 114.772 85.74 115.479 85.42C116.185 85.1 116.725 84.7067 117.099 84.24C117.472 83.7867 117.712 83.2933 117.819 82.76C117.939 82.2267 117.999 81.7533 117.999 81.34ZM129.985 82V71.66H127.145V77.08C127.145 78.1333 126.972 78.8933 126.625 79.36C126.278 79.8133 125.718 80.04 124.945 80.04C124.265 80.04 123.792 79.8333 123.525 79.42C123.258 78.9933 123.125 78.3533 123.125 77.5V71.66H120.285V78.02C120.285 78.66 120.338 79.2467 120.445 79.78C120.565 80.3 120.765 80.7467 121.045 81.12C121.325 81.48 121.705 81.76 122.185 81.96C122.678 82.16 123.305 82.26 124.065 82.26C124.665 82.26 125.252 82.1267 125.825 81.86C126.398 81.5933 126.865 81.16 127.225 80.56H127.285V82H129.985ZM139.101 75.72H134.481C134.494 75.52 134.534 75.2933 134.601 75.04C134.681 74.7867 134.807 74.5467 134.981 74.32C135.167 74.0933 135.407 73.9067 135.701 73.76C136.007 73.6 136.387 73.52 136.841 73.52C137.534 73.52 138.047 73.7067 138.381 74.08C138.727 74.4533 138.967 75 139.101 75.72ZM134.481 77.52H141.941C141.994 76.72 141.927 75.9533 141.741 75.22C141.554 74.4867 141.247 73.8333 140.821 73.26C140.407 72.6867 139.874 72.2333 139.221 71.9C138.567 71.5533 137.801 71.38 136.921 71.38C136.134 71.38 135.414 71.52 134.761 71.8C134.121 72.08 133.567 72.4667 133.101 72.96C132.634 73.44 132.274 74.0133 132.021 74.68C131.767 75.3467 131.641 76.0667 131.641 76.84C131.641 77.64 131.761 78.3733 132.001 79.04C132.254 79.7067 132.607 80.28 133.061 80.76C133.514 81.24 134.067 81.6133 134.721 81.88C135.374 82.1333 136.107 82.26 136.921 82.26C138.094 82.26 139.094 81.9933 139.921 81.46C140.747 80.9267 141.361 80.04 141.761 78.8H139.261C139.167 79.12 138.914 79.4267 138.501 79.72C138.087 80 137.594 80.14 137.021 80.14C136.221 80.14 135.607 79.9333 135.181 79.52C134.754 79.1067 134.521 78.44 134.481 77.52ZM143.705 67.72V82H146.545V67.72H143.705Z" fill="#B23634"/>
</svg>
