<svg width="146" height="86" viewBox="0 0 146 86" fill="none" xmlns="http://www.w3.org/2000/svg">
<path d="M73.3544 3L74.6787 1.50122L73.4037 0.374658L72.0873 1.45263L73.3544 3ZM50 22.125L48.7329 20.5776L48 21.1778V22.125H50ZM95 22.125H97V21.2233L96.3243 20.6262L95 22.125ZM95 48V50H97V48H95ZM50 48H48V50H50V48ZM72.0873 1.45263L48.7329 20.5776L51.2671 23.6724L74.6216 4.54737L72.0873 1.45263ZM96.3243 20.6262L74.6787 1.50122L72.0302 4.49878L93.6757 23.6238L96.3243 20.6262ZM93 22.125V48H97V22.125H93ZM95 46H50V50H95V46ZM52 48V22.125H48V48H52Z" fill="#B23634"/>
<path d="M1.03711 73.9199C1.03711 71.4069 1.71094 69.4701 3.05859 68.1094C4.23047 66.9245 5.72135 66.332 7.53125 66.332C9.95312 66.332 11.724 67.1263 12.8438 68.7148C13.4622 69.6068 13.7943 70.502 13.8398 71.4004H10.832C10.6367 70.7103 10.3861 70.1895 10.0801 69.8379C9.5332 69.2129 8.72266 68.9004 7.64844 68.9004C6.55469 68.9004 5.69206 69.3431 5.06055 70.2285C4.42904 71.1074 4.11328 72.3542 4.11328 73.9688C4.11328 75.5833 4.44531 76.7943 5.10938 77.6016C5.77995 78.4023 6.62956 78.8027 7.6582 78.8027C8.71289 78.8027 9.51693 78.4577 10.0703 77.7676C10.3763 77.3965 10.6302 76.8398 10.832 76.0977H13.8105C13.5501 77.6667 12.8828 78.9427 11.8086 79.9258C10.7409 80.9089 9.37044 81.4004 7.69727 81.4004C5.62695 81.4004 3.99935 80.7363 2.81445 79.4082C1.62956 78.0736 1.03711 76.2441 1.03711 73.9199ZM21.7598 75.8242C21.584 75.9349 21.4049 76.026 21.2227 76.0977C21.0469 76.1628 20.8027 76.2246 20.4902 76.2832L19.8652 76.4004C19.2793 76.5046 18.8594 76.6315 18.6055 76.7812C18.1758 77.0352 17.9609 77.429 17.9609 77.9629C17.9609 78.4382 18.0911 78.7832 18.3516 78.998C18.6185 79.2064 18.9408 79.3105 19.3184 79.3105C19.9173 79.3105 20.4674 79.1348 20.9688 78.7832C21.4766 78.4316 21.7402 77.7904 21.7598 76.8594V75.8242ZM20.0703 74.5254C20.5846 74.4603 20.9525 74.3789 21.1738 74.2812C21.571 74.112 21.7695 73.8483 21.7695 73.4902C21.7695 73.054 21.6165 72.7546 21.3105 72.5918C21.0111 72.4225 20.5684 72.3379 19.9824 72.3379C19.3249 72.3379 18.8594 72.5007 18.5859 72.8262C18.3906 73.0671 18.2604 73.3926 18.1953 73.8027H15.5098C15.5684 72.8717 15.8288 72.1068 16.291 71.5078C17.0267 70.5703 18.2897 70.1016 20.0801 70.1016C21.2454 70.1016 22.2806 70.3327 23.1855 70.7949C24.0905 71.2572 24.543 72.1296 24.543 73.4121V78.2949C24.543 78.6335 24.5495 79.0436 24.5625 79.5254C24.582 79.89 24.6374 80.1374 24.7285 80.2676C24.8197 80.3978 24.9564 80.5052 25.1387 80.5898V81H22.1113C22.0267 80.7852 21.9681 80.5833 21.9355 80.3945C21.903 80.2057 21.877 79.9909 21.8574 79.75C21.4733 80.1667 21.0306 80.5215 20.5293 80.8145C19.9303 81.1595 19.2533 81.332 18.498 81.332C17.5345 81.332 16.737 81.0586 16.1055 80.5117C15.4805 79.9583 15.168 79.1771 15.168 78.168C15.168 76.8594 15.6725 75.9121 16.6816 75.3262C17.235 75.0072 18.0488 74.7793 19.123 74.6426L20.0703 74.5254ZM29.1914 77.6016C29.25 78.0964 29.377 78.4479 29.5723 78.6562C29.9173 79.0273 30.5553 79.2129 31.4863 79.2129C32.0332 79.2129 32.4661 79.1315 32.7852 78.9688C33.1107 78.806 33.2734 78.5618 33.2734 78.2363C33.2734 77.9238 33.1432 77.6862 32.8828 77.5234C32.6224 77.3607 31.6556 77.0807 29.9824 76.6836C28.778 76.3841 27.9284 76.0098 27.4336 75.5605C26.9388 75.1178 26.6914 74.4798 26.6914 73.6465C26.6914 72.6634 27.0755 71.8203 27.8438 71.1172C28.6185 70.4076 29.7057 70.0527 31.1055 70.0527C32.4336 70.0527 33.5143 70.3197 34.3477 70.8535C35.1875 71.3809 35.6693 72.2956 35.793 73.5977H33.0098C32.9707 73.2396 32.8698 72.9564 32.707 72.748C32.401 72.3704 31.8802 72.1816 31.1445 72.1816C30.5391 72.1816 30.1061 72.276 29.8457 72.4648C29.5918 72.6536 29.4648 72.875 29.4648 73.1289C29.4648 73.4479 29.6016 73.679 29.875 73.8223C30.1484 73.972 31.1152 74.2292 32.7754 74.5938C33.8822 74.8542 34.7122 75.248 35.2656 75.7754C35.8125 76.3092 36.0859 76.9766 36.0859 77.7773C36.0859 78.832 35.6921 79.6947 34.9043 80.3652C34.123 81.0293 32.9121 81.3613 31.2715 81.3613C29.5983 81.3613 28.3613 81.0098 27.5605 80.3066C26.7663 79.597 26.3691 78.6953 26.3691 77.6016H29.1914ZM44.0254 75.8242C43.8496 75.9349 43.6706 76.026 43.4883 76.0977C43.3125 76.1628 43.0684 76.2246 42.7559 76.2832L42.1309 76.4004C41.5449 76.5046 41.125 76.6315 40.8711 76.7812C40.4414 77.0352 40.2266 77.429 40.2266 77.9629C40.2266 78.4382 40.3568 78.7832 40.6172 78.998C40.8841 79.2064 41.2064 79.3105 41.584 79.3105C42.1829 79.3105 42.7331 79.1348 43.2344 78.7832C43.7422 78.4316 44.0059 77.7904 44.0254 76.8594V75.8242ZM42.3359 74.5254C42.8503 74.4603 43.2181 74.3789 43.4395 74.2812C43.8366 74.112 44.0352 73.8483 44.0352 73.4902C44.0352 73.054 43.8822 72.7546 43.5762 72.5918C43.2767 72.4225 42.834 72.3379 42.248 72.3379C41.5905 72.3379 41.125 72.5007 40.8516 72.8262C40.6562 73.0671 40.526 73.3926 40.4609 73.8027H37.7754C37.834 72.8717 38.0944 72.1068 38.5566 71.5078C39.2923 70.5703 40.5553 70.1016 42.3457 70.1016C43.5111 70.1016 44.5462 70.3327 45.4512 70.7949C46.3561 71.2572 46.8086 72.1296 46.8086 73.4121V78.2949C46.8086 78.6335 46.8151 79.0436 46.8281 79.5254C46.8477 79.89 46.903 80.1374 46.9941 80.2676C47.0853 80.3978 47.222 80.5052 47.4043 80.5898V81H44.377C44.2923 80.7852 44.2337 80.5833 44.2012 80.3945C44.1686 80.2057 44.1426 79.9909 44.123 79.75C43.7389 80.1667 43.2962 80.5215 42.7949 80.8145C42.196 81.1595 41.5189 81.332 40.7637 81.332C39.8001 81.332 39.0026 81.0586 38.3711 80.5117C37.7461 79.9583 37.4336 79.1771 37.4336 78.168C37.4336 76.8594 37.9382 75.9121 38.9473 75.3262C39.5007 75.0072 40.3145 74.7793 41.3887 74.6426L42.3359 74.5254ZM58.7812 70.1016C59.4258 70.1016 59.9987 70.2448 60.5 70.5312C61.0013 70.8112 61.4082 71.2018 61.7207 71.7031V66.625H64.543V81H61.8379V79.5254C61.4408 80.1569 60.9883 80.6159 60.4805 80.9023C59.9727 81.1888 59.3411 81.332 58.5859 81.332C57.3424 81.332 56.2943 80.8307 55.4414 79.8281C54.5951 78.819 54.1719 77.5267 54.1719 75.9512C54.1719 74.1348 54.5885 72.7057 55.4219 71.6641C56.2617 70.6224 57.3815 70.1016 58.7812 70.1016ZM59.3867 78.9883C60.1745 78.9883 60.7734 78.6953 61.1836 78.1094C61.5938 77.5234 61.7988 76.765 61.7988 75.834C61.7988 74.5319 61.4701 73.6009 60.8125 73.041C60.4089 72.7025 59.9401 72.5332 59.4062 72.5332C58.5924 72.5332 57.9935 72.8424 57.6094 73.4609C57.2318 74.0729 57.043 74.8346 57.043 75.7461C57.043 76.7292 57.235 77.5169 57.6191 78.1094C58.0098 78.6953 58.599 78.9883 59.3867 78.9883ZM71.2812 72.3672C70.6367 72.3672 70.1354 72.569 69.7773 72.9727C69.4258 73.3763 69.2044 73.9232 69.1133 74.6133H73.4395C73.3939 73.8776 73.1693 73.321 72.7656 72.9434C72.3685 72.5592 71.8737 72.3672 71.2812 72.3672ZM71.2812 70.0723C72.1667 70.0723 72.9642 70.2383 73.6738 70.5703C74.3835 70.9023 74.9694 71.4264 75.4316 72.1426C75.8483 72.7741 76.1185 73.5065 76.2422 74.3398C76.3138 74.8281 76.3431 75.5312 76.3301 76.4492H69.0449C69.084 77.5169 69.4193 78.2656 70.0508 78.6953C70.4349 78.9622 70.8971 79.0957 71.4375 79.0957C72.0104 79.0957 72.4759 78.9329 72.834 78.6074C73.0293 78.4316 73.2018 78.1875 73.3516 77.875H76.1934C76.1217 78.5065 75.793 79.1478 75.207 79.7988C74.2956 80.834 73.0195 81.3516 71.3789 81.3516C70.0247 81.3516 68.8301 80.9154 67.7949 80.043C66.7598 79.1706 66.2422 77.7513 66.2422 75.7852C66.2422 73.9427 66.7077 72.5299 67.6387 71.5469C68.5762 70.5638 69.7904 70.0723 71.2812 70.0723ZM93.5469 66.6055H97.873V81H95.0703V71.2637C95.0703 70.9837 95.0736 70.5931 95.0801 70.0918C95.0866 69.584 95.0898 69.1934 95.0898 68.9199L92.3652 81H89.4453L86.7402 68.9199C86.7402 69.1934 86.7435 69.584 86.75 70.0918C86.7565 70.5931 86.7598 70.9837 86.7598 71.2637V81H83.957V66.6055H88.332L90.9492 77.9238L93.5469 66.6055ZM103.303 69.0859H100.48V66.5176H103.303V69.0859ZM100.48 70.3555H103.303V81H100.48V70.3555ZM110.578 78.7148C111.229 78.7148 111.779 78.4707 112.229 77.9824C112.678 77.4876 112.902 76.7031 112.902 75.6289C112.902 74.6198 112.688 73.8516 112.258 73.3242C111.835 72.7969 111.265 72.5332 110.549 72.5332C109.572 72.5332 108.898 72.9922 108.527 73.9102C108.332 74.3984 108.234 75.0007 108.234 75.7168C108.234 76.3353 108.339 76.8854 108.547 77.3672C108.924 78.2656 109.602 78.7148 110.578 78.7148ZM109.885 70.1016C110.419 70.1016 110.884 70.1829 111.281 70.3457C111.958 70.6257 112.505 71.14 112.922 71.8887V70.3555H115.627V80.4531C115.627 81.8268 115.396 82.862 114.934 83.5586C114.139 84.7565 112.616 85.3555 110.363 85.3555C109.003 85.3555 107.893 85.0885 107.033 84.5547C106.174 84.0208 105.699 83.2233 105.607 82.1621H108.635C108.713 82.4876 108.84 82.722 109.016 82.8652C109.315 83.1191 109.82 83.2461 110.529 83.2461C111.532 83.2461 112.202 82.9108 112.541 82.2402C112.762 81.8105 112.873 81.0879 112.873 80.0723V79.3887C112.606 79.8444 112.32 80.1862 112.014 80.4141C111.46 80.8372 110.741 81.0488 109.855 81.0488C108.488 81.0488 107.395 80.5703 106.574 79.6133C105.76 78.6497 105.354 77.3477 105.354 75.707C105.354 74.125 105.747 72.7969 106.535 71.7227C107.323 70.6419 108.439 70.1016 109.885 70.1016ZM121.008 70.3555V76.7715C121.008 77.377 121.079 77.8327 121.223 78.1387C121.477 78.679 121.975 78.9492 122.717 78.9492C123.667 78.9492 124.318 78.5651 124.67 77.7969C124.852 77.3802 124.943 76.8301 124.943 76.1465V70.3555H127.766V81H125.061V79.4961C125.035 79.5286 124.969 79.6263 124.865 79.7891C124.761 79.9518 124.637 80.0951 124.494 80.2188C124.058 80.6094 123.635 80.8763 123.225 81.0195C122.821 81.1628 122.346 81.2344 121.799 81.2344C120.223 81.2344 119.162 80.668 118.615 79.5352C118.309 78.9102 118.156 77.9889 118.156 76.7715V70.3555H121.008ZM134.66 72.3672C134.016 72.3672 133.514 72.569 133.156 72.9727C132.805 73.3763 132.583 73.9232 132.492 74.6133H136.818C136.773 73.8776 136.548 73.321 136.145 72.9434C135.747 72.5592 135.253 72.3672 134.66 72.3672ZM134.66 70.0723C135.546 70.0723 136.343 70.2383 137.053 70.5703C137.762 70.9023 138.348 71.4264 138.811 72.1426C139.227 72.7741 139.497 73.5065 139.621 74.3398C139.693 74.8281 139.722 75.5312 139.709 76.4492H132.424C132.463 77.5169 132.798 78.2656 133.43 78.6953C133.814 78.9622 134.276 79.0957 134.816 79.0957C135.389 79.0957 135.855 78.9329 136.213 78.6074C136.408 78.4316 136.581 78.1875 136.73 77.875H139.572C139.501 78.5065 139.172 79.1478 138.586 79.7988C137.674 80.834 136.398 81.3516 134.758 81.3516C133.404 81.3516 132.209 80.9154 131.174 80.043C130.139 79.1706 129.621 77.7513 129.621 75.7852C129.621 73.9427 130.087 72.5299 131.018 71.5469C131.955 70.5638 133.169 70.0723 134.66 70.0723ZM144.436 81H141.652V66.6055H144.436V81Z" fill="#B23634"/>
</svg>
