<svg width="162" height="104" viewBox="0 0 162 104" fill="none" xmlns="http://www.w3.org/2000/svg">
<g filter="url(#filter0_d)">
<path d="M81.3544 9L82.6787 7.50122L81.4037 6.37466L80.0873 7.45263L81.3544 9ZM58 28.125L56.7329 26.5776L56 27.1778V28.125H58ZM103 28.125H105V27.2233L104.324 26.6262L103 28.125ZM103 54V56H105V54H103ZM58 54H56V56H58V54ZM80.0873 7.45263L56.7329 26.5776L59.2671 29.6724L82.6216 10.5474L80.0873 7.45263ZM104.324 26.6262L82.6787 7.50122L80.0302 10.4988L101.676 29.6238L104.324 26.6262ZM101 28.125V54H105V28.125H101ZM103 52H58V56H103V52ZM60 54V28.125H56V54H60Z" fill="#1E2021"/>
<path d="M21.9695 83.56L17.7695 85.34C16.0228 85.4067 14.5961 85.1133 13.4895 84.46C12.3828 83.8067 11.5828 82.9533 11.0895 81.9C10.6095 80.8467 10.3695 79.7333 10.3695 78.56C10.3695 77.3067 10.6295 76.1333 11.1495 75.04C11.6828 73.9467 12.4761 73.06 13.5295 72.38C14.5828 71.7 15.8628 71.36 17.3695 71.36C18.9828 71.36 20.3895 71.7933 21.5895 72.66L21.6095 73.04C21.6095 74.12 21.4428 75.2733 21.1095 76.5H18.9495L18.3495 73.82C17.5095 73.5 16.6428 73.32 15.7495 73.28C15.1628 73.8 14.7228 74.4867 14.4295 75.34C14.1495 76.1933 14.0095 77.0933 14.0095 78.04C14.0095 79.5067 14.3495 80.7067 15.0295 81.64C15.7228 82.5733 16.7161 83.0267 18.0095 83L21.4095 81.92L21.9695 83.56ZM32.618 83.86L29.978 85.34C29.6047 85.3267 29.2314 85.1867 28.858 84.92C28.4847 84.6533 28.178 84.3067 27.938 83.88L25.818 85.26L25.138 85.32C24.2714 85.32 23.5447 85.0667 22.958 84.56C22.3847 84.0533 22.098 83.44 22.098 82.72C22.098 81.72 22.638 80.9333 23.718 80.36L27.518 80.28V78.64C27.518 77.6133 27.2114 76.94 26.598 76.62C26.1714 76.6467 25.798 76.7267 25.478 76.86L24.998 79.06L23.038 79.1C22.7847 78.38 22.658 77.62 22.658 76.82L22.698 76.08C23.498 75.7733 24.4247 75.5133 25.478 75.3C26.5314 75.0733 27.3447 74.96 27.918 74.96C29.1047 74.96 30.0447 75.4467 30.738 76.42C30.8847 76.6733 30.9647 77.18 30.978 77.94V82.52C30.978 82.8667 31.1447 83.04 31.478 83.04L32.018 83.02L32.498 82.98L32.618 83.86ZM25.518 82.5C25.518 82.8467 25.6314 83.1333 25.858 83.36C26.258 83.3333 26.8114 83.2067 27.518 82.98V81.5C26.1847 81.4733 25.518 81.8067 25.518 82.5ZM36.5476 77.38C36.5476 77.62 36.6342 77.84 36.8076 78.04C36.9809 78.2267 37.6009 78.6 38.6676 79.16C39.7342 79.7067 40.4542 80.22 40.8276 80.7C41.2009 81.1667 41.3876 81.7 41.3876 82.3C41.3876 83.2067 41.0142 83.9533 40.2676 84.54C39.5209 85.1133 38.5276 85.4 37.2876 85.4C35.8876 85.4 34.4942 85.04 33.1076 84.32L34.2476 81.7C35.4076 82.5933 36.6076 83.26 37.8476 83.7C38.0876 83.4867 38.2076 83.24 38.2076 82.96C38.2076 82.7067 38.1076 82.48 37.9076 82.28C37.7209 82.08 37.1076 81.72 36.0676 81.2C35.0409 80.6667 34.3409 80.1733 33.9676 79.72C33.6076 79.2533 33.4276 78.7267 33.4276 78.14C33.4276 77.2067 33.8342 76.4533 34.6476 75.88C35.4742 75.2933 36.5409 75 37.8476 75C39.0609 75 40.0942 75.22 40.9476 75.66L40.9876 76.36C40.9876 77.0533 40.8742 77.7533 40.6476 78.46H38.8876L38.2676 76.64L37.3476 76.54C36.8142 76.7 36.5476 76.98 36.5476 77.38ZM52.8524 83.86L50.2124 85.34C49.8391 85.3267 49.4658 85.1867 49.0924 84.92C48.7191 84.6533 48.4124 84.3067 48.1724 83.88L46.0524 85.26L45.3724 85.32C44.5058 85.32 43.7791 85.0667 43.1924 84.56C42.6191 84.0533 42.3324 83.44 42.3324 82.72C42.3324 81.72 42.8724 80.9333 43.9524 80.36L47.7524 80.28V78.64C47.7524 77.6133 47.4458 76.94 46.8324 76.62C46.4058 76.6467 46.0324 76.7267 45.7124 76.86L45.2324 79.06L43.2724 79.1C43.0191 78.38 42.8924 77.62 42.8924 76.82L42.9324 76.08C43.7324 75.7733 44.6591 75.5133 45.7124 75.3C46.7658 75.0733 47.5791 74.96 48.1524 74.96C49.3391 74.96 50.2791 75.4467 50.9724 76.42C51.1191 76.6733 51.1991 77.18 51.2124 77.94V82.52C51.2124 82.8667 51.3791 83.04 51.7124 83.04L52.2524 83.02L52.7324 82.98L52.8524 83.86ZM45.7524 82.5C45.7524 82.8467 45.8658 83.1333 46.0924 83.36C46.4924 83.3333 47.0458 83.2067 47.7524 82.98V81.5C46.4191 81.4733 45.7524 81.8067 45.7524 82.5ZM70.0549 83.86L67.3949 85.34C66.9949 85.3267 66.5949 85.1667 66.1949 84.86C65.7949 84.5533 65.4816 84.1467 65.2549 83.64L62.9749 85.34C61.6816 85.3533 60.6149 84.8867 59.7749 83.94C58.9349 82.98 58.5149 81.7733 58.5149 80.32C58.5149 78.8 59.0083 77.5467 59.9949 76.56C60.9816 75.56 62.2616 75.06 63.8349 75.06L64.9549 75.16V72.26L63.4749 72L63.3749 71C64.4949 70.6 65.8149 70.3533 67.3349 70.26L68.4149 71.26V82.5C68.4149 82.86 68.5816 83.04 68.9149 83.04L69.4349 83.02L69.9349 82.98L70.0549 83.86ZM62.1149 79.96C62.1149 80.7733 62.2883 81.4533 62.6349 82C62.9949 82.5333 63.4816 82.8 64.0949 82.8C64.3883 82.8 64.6749 82.7467 64.9549 82.64V77.22C64.4216 76.98 63.8483 76.8667 63.2349 76.88C62.4883 77.6 62.1149 78.6267 62.1149 79.96ZM78.3579 80.42L73.3179 80.38C73.4112 81.2467 73.7179 81.9133 74.2379 82.38C74.7712 82.8467 75.4379 83.08 76.2379 83.08C76.9446 83.08 77.7912 82.8267 78.7779 82.32L79.2779 83.46L76.1379 85.24L75.2179 85.3C73.7379 85.3 72.5046 84.8333 71.5179 83.9C70.5446 82.9667 70.0579 81.7733 70.0579 80.32C70.0579 78.84 70.5512 77.5867 71.5379 76.56C72.5379 75.52 73.7446 75 75.1579 75C76.4512 75 77.5046 75.3933 78.3179 76.18C79.1312 76.9533 79.5312 77.98 79.5179 79.26L78.3579 80.42ZM74.6179 76.66C73.9779 77.06 73.5712 77.7933 73.3979 78.86L76.3979 78.68C76.3179 78.1333 76.1112 77.6667 75.7779 77.28C75.4579 76.88 75.0712 76.6733 74.6179 76.66ZM104.251 84.06L104.231 85H97.3709L97.2509 84.36C97.6775 84.0533 98.2442 83.74 98.9509 83.42L98.9309 78.94L99.2109 75.38L95.6909 84.68L93.1309 85.14L89.6309 75.46L89.9309 78.94L89.8709 83.64L91.5709 84.06L91.5509 85H85.7109L85.5909 84.36C86.1242 83.9867 86.7109 83.6667 87.3509 83.4L87.5909 73.36L85.9109 72.94L85.9309 72H91.8509L91.8309 72.02L95.1909 81.4L98.6909 72H103.851L103.971 72.64C103.531 72.96 102.958 73.2733 102.251 73.58L102.411 83.6L104.251 84.06ZM107.697 73.98C106.777 73.5667 105.983 72.96 105.317 72.16C105.85 71.1333 106.51 70.3333 107.297 69.76C108.19 70.2267 108.943 70.9067 109.557 71.8C109.117 72.68 108.497 73.4067 107.697 73.98ZM109.237 83.32C109.823 83.52 110.303 83.7533 110.677 84.02L110.637 85H104.297L104.257 84.3C104.723 84.0333 105.23 83.8067 105.777 83.62V77.02L104.297 76.74L104.197 75.78C105.383 75.3267 106.703 75.08 108.157 75.04L109.237 76V83.32ZM114.516 82.62C115.596 82.6333 116.756 82.7467 117.996 82.96C119.236 83.16 120.356 83.42 121.356 83.74C121.543 84.1933 121.636 84.6333 121.636 85.06C121.636 86.34 121.01 87.4733 119.756 88.46C118.516 89.4467 117.056 89.94 115.376 89.94C114.256 89.94 113.27 89.6867 112.416 89.18C111.563 88.6867 111.096 87.9133 111.016 86.86L113.096 85L112.036 84.94L111.616 83.46C112.39 82.66 113.15 82.0333 113.896 81.58C113.083 81.3 112.45 80.8867 111.996 80.34C111.556 79.78 111.336 79.16 111.336 78.48C111.336 77.48 111.783 76.64 112.676 75.96C113.583 75.2667 114.716 74.92 116.076 74.92C117.156 74.92 118.103 75.14 118.916 75.58C119.316 74.46 120.216 73.86 121.616 73.78L122.176 76.62L121.476 76.56C121.05 76.56 120.65 76.6333 120.276 76.78C120.61 77.2733 120.776 77.82 120.776 78.42C120.776 79.42 120.33 80.2467 119.436 80.9C118.543 81.5533 117.396 81.88 115.996 81.88L115.396 81.86L114.516 82.62ZM115.216 76.6C114.87 76.8933 114.696 77.4933 114.696 78.4C114.696 78.9867 114.83 79.4733 115.096 79.86C115.363 80.2467 115.743 80.44 116.236 80.44C116.423 80.44 116.603 80.4133 116.776 80.36C117.216 80.0533 117.436 79.4733 117.436 78.62C117.436 78.06 117.283 77.5667 116.976 77.14C116.67 76.7 116.276 76.48 115.796 76.48C115.61 76.48 115.416 76.52 115.216 76.6ZM115.916 87.38C116.583 87.38 117.223 87.2733 117.836 87.06C118.45 86.8467 118.903 86.5467 119.196 86.16C118.05 85.7067 116.436 85.36 114.356 85.12C113.916 85.52 113.696 85.8867 113.696 86.22C113.696 86.9933 114.436 87.38 115.916 87.38ZM134.723 83.86L132.063 85.34C131.676 85.3133 131.283 85.1467 130.883 84.84C130.496 84.5333 130.183 84.1333 129.943 83.64C128.876 84.4533 127.803 85.02 126.723 85.34C126.043 85.34 125.396 85.1267 124.783 84.7C124.183 84.2733 123.843 83.74 123.763 83.1L123.703 81.96V77.02L122.223 76.74L122.123 75.78C123.31 75.3267 124.63 75.08 126.083 75.04L127.163 76V81.28C127.163 82.3867 127.583 82.94 128.423 82.94C128.836 82.94 129.236 82.8533 129.623 82.68V76.96L128.503 76.68L128.403 75.72C129.47 75.2933 130.67 75.0667 132.003 75.04L133.083 76V82.52C133.083 82.8667 133.25 83.04 133.583 83.04L134.103 83.02L134.603 82.98L134.723 83.86ZM143.319 80.42L138.279 80.38C138.372 81.2467 138.679 81.9133 139.199 82.38C139.732 82.8467 140.399 83.08 141.199 83.08C141.905 83.08 142.752 82.8267 143.739 82.32L144.239 83.46L141.099 85.24L140.179 85.3C138.699 85.3 137.465 84.8333 136.479 83.9C135.505 82.9667 135.019 81.7733 135.019 80.32C135.019 78.84 135.512 77.5867 136.499 76.56C137.499 75.52 138.705 75 140.119 75C141.412 75 142.465 75.3933 143.279 76.18C144.092 76.9533 144.492 77.98 144.479 79.26L143.319 80.42ZM139.579 76.66C138.939 77.06 138.532 77.7933 138.359 78.86L141.359 78.68C141.279 78.1333 141.072 77.6667 140.739 77.28C140.419 76.88 140.032 76.6733 139.579 76.66ZM149.979 83.32C150.565 83.52 151.045 83.7533 151.419 84.02L151.379 85H145.039L144.999 84.3C145.465 84.0333 145.972 83.8067 146.519 83.62V72.26L145.039 72L144.939 71C146.059 70.6 147.379 70.3533 148.899 70.26L149.979 71.26V83.32Z" fill="#1E2021"/>
</g>
<defs>
<filter id="filter0_d" x="0.369141" y="0.375" width="161.049" height="103.565" filterUnits="userSpaceOnUse" color-interpolation-filters="sRGB">
<feFlood flood-opacity="0" result="BackgroundImageFix"/>
<feColorMatrix in="SourceAlpha" type="matrix" values="0 0 0 0 0 0 0 0 0 0 0 0 0 0 0 0 0 0 127 0"/>
<feOffset dy="4"/>
<feGaussianBlur stdDeviation="5"/>
<feColorMatrix type="matrix" values="0 0 0 0 0 0 0 0 0 0 0 0 0 0 0 0 0 0 0.25 0"/>
<feBlend mode="normal" in2="BackgroundImageFix" result="effect1_dropShadow"/>
<feBlend mode="normal" in="SourceGraphic" in2="effect1_dropShadow" result="shape"/>
</filter>
</defs>
</svg>
